<?xml version="1.0" encoding="UTF-8" ?>
<!DOCTYPE svg PUBLIC "-//W3C//DTD SVG 1.1//EN" "http://www.w3.org/Graphics/SVG/1.1/DTD/svg11.dtd">
<svg width="538pt" height="482pt" viewBox="0 0 538 482" version="1.1" xmlns="http://www.w3.org/2000/svg">
<path fill="#0e224b" opacity="0.31" d=" M 50.06 0.00 L 58.04 0.00 C 49.67 1.16 41.47 3.24 33.57 6.22 C 38.56 2.99 44.38 1.54 50.06 0.00 Z" />
<path fill="#1e479c" opacity="1.00" d=" M 58.04 0.00 L 232.18 0.00 C 234.38 0.35 236.78 0.82 238.33 2.58 C 241.34 5.38 241.37 10.62 238.50 13.52 C 236.37 15.85 232.99 16.14 230.03 16.27 C 175.35 16.26 120.67 16.28 65.99 16.26 C 59.32 16.30 52.42 15.92 46.07 18.37 C 31.19 23.21 19.50 36.56 16.69 51.95 C 16.19 55.61 15.70 59.28 15.67 62.98 C 15.67 177.66 15.68 292.35 15.66 407.03 C 15.77 420.64 20.33 434.26 29.11 444.74 C 39.91 457.92 56.81 466.28 73.97 465.73 C 186.61 465.71 299.25 465.78 411.88 465.70 C 400.52 456.22 391.55 443.75 387.30 429.50 C 383.66 417.71 383.58 405.23 383.68 393.01 C 383.66 282.00 383.72 170.98 383.66 59.97 C 384.41 37.42 364.56 16.63 342.01 16.34 C 318.00 16.16 293.98 16.32 269.96 16.27 C 266.77 16.17 263.07 15.76 261.01 12.99 C 259.22 10.98 259.11 8.06 259.71 5.57 C 260.59 2.93 263.08 1.38 265.33 0.00 L 340.55 0.00 C 347.67 0.85 354.69 2.38 361.60 4.28 C 377.89 10.78 390.94 24.53 396.64 41.12 C 398.15 48.00 399.45 54.97 399.36 62.05 C 399.33 175.69 399.38 289.33 399.34 402.97 C 399.24 411.33 399.69 419.95 403.25 427.66 C 409.37 444.11 423.20 457.72 439.98 463.07 C 451.97 467.26 465.33 466.27 477.14 461.92 C 498.58 454.39 515.45 435.35 520.45 413.20 C 521.88 406.56 522.50 399.76 522.34 392.97 C 522.30 322.32 522.34 251.67 522.33 181.02 C 522.21 171.69 523.11 162.14 520.22 153.10 C 514.73 132.19 494.73 116.06 473.07 115.49 C 458.05 115.39 443.03 115.52 428.01 115.45 C 423.52 115.66 418.72 111.78 419.36 107.02 C 419.30 102.66 423.74 99.18 427.96 99.55 C 442.30 99.52 456.64 99.55 470.98 99.55 C 486.07 99.49 501.04 104.87 512.79 114.30 C 527.97 126.42 537.41 145.32 538.00 164.73 L 538.00 399.61 C 536.89 410.16 536.04 420.91 532.34 430.94 C 531.46 433.41 530.68 435.92 529.83 438.41 C 523.35 451.66 512.98 462.97 500.00 470.06 C 494.42 473.17 488.51 475.68 482.41 477.57 C 474.92 479.07 467.41 480.42 459.94 482.00 L 73.34 482.00 C 63.48 481.12 53.83 478.92 44.47 475.71 C 24.14 466.65 8.10 448.30 2.52 426.68 C 1.66 420.89 0.51 415.14 0.00 409.30 L 0.00 50.88 C 1.90 46.82 2.60 42.35 4.21 38.18 C 9.64 24.38 20.43 12.99 33.57 6.22 C 41.47 3.24 49.67 1.16 58.04 0.00 Z" />
<path fill="#0e224b" opacity="0.31" d=" M 340.55 0.00 L 349.70 0.00 C 353.84 0.88 357.80 2.42 361.60 4.28 C 354.69 2.38 347.67 0.85 340.55 0.00 Z" />
<path fill="#0e224b" opacity="0.31" d=" M 396.64 41.12 C 399.64 47.30 400.27 54.25 400.36 61.02 C 400.33 176.34 400.36 291.67 400.34 406.99 C 400.24 414.00 401.99 420.82 403.25 427.66 C 399.69 419.95 399.24 411.33 399.34 402.97 C 399.38 289.33 399.33 175.69 399.36 62.05 C 399.45 54.97 398.15 48.00 396.64 41.12 Z" />
<path fill="#1e479c" opacity="1.00" d=" M 61.41 48.28 C 64.13 46.76 67.13 45.84 70.02 44.73 C 73.67 44.38 77.34 44.17 81.01 44.18 C 161.00 44.22 240.99 44.15 320.98 44.21 C 330.64 43.84 340.22 48.24 346.55 55.50 C 351.36 60.54 353.78 67.25 355.29 73.93 C 355.71 101.62 355.33 129.32 355.49 157.01 C 355.62 160.76 354.99 164.46 354.25 168.12 C 350.31 182.67 336.19 193.87 321.01 193.58 C 255.04 193.61 189.08 193.59 123.12 193.59 C 118.87 194.03 116.05 190.41 114.35 187.03 C 114.90 184.87 115.12 182.45 116.68 180.73 C 118.67 178.36 122.01 177.72 124.96 177.70 C 190.29 177.72 255.61 177.70 320.94 177.71 C 330.90 178.15 340.05 168.92 339.61 158.98 C 339.62 134.00 339.60 109.01 339.62 84.02 C 339.56 79.43 340.15 74.53 337.76 70.37 C 335.56 65.44 330.99 61.93 325.92 60.33 C 321.13 58.77 316.01 59.41 311.07 59.32 C 236.72 59.33 162.37 59.33 88.02 59.32 C 83.09 59.39 78.01 58.80 73.23 60.31 C 65.46 62.41 59.37 69.83 59.40 77.96 C 59.38 105.33 59.34 132.69 59.43 160.06 C 59.40 167.81 65.32 174.16 72.10 177.13 C 77.67 178.19 83.36 177.34 88.97 177.89 C 93.30 178.41 97.00 182.54 96.27 186.98 C 95.78 189.91 93.32 191.72 91.17 193.47 C 84.75 193.66 78.31 193.71 71.89 193.29 C 63.99 191.19 56.26 187.33 51.24 180.69 C 47.29 175.90 44.91 170.04 43.94 163.94 C 43.68 161.63 43.51 159.32 43.50 157.00 C 43.53 131.34 43.51 105.68 43.50 80.03 C 43.53 78.00 43.70 75.99 43.92 73.98 C 45.28 63.28 51.97 53.47 61.41 48.28 Z" />
<path fill="#0e224b" opacity="0.31" d=" M 73.23 60.31 C 78.01 58.80 83.09 59.39 88.02 59.32 C 162.37 59.33 236.72 59.33 311.07 59.32 C 316.01 59.41 321.13 58.77 325.92 60.33 C 241.69 60.34 157.45 60.39 73.23 60.31 Z" />
<path fill="#1e479c" opacity="1.00" d=" M 57.74 217.51 C 151.86 217.24 245.99 217.46 340.11 217.39 C 344.76 216.82 349.27 221.40 348.58 226.05 C 348.51 228.80 346.20 230.65 344.44 232.47 C 342.31 232.78 340.19 233.23 338.03 233.28 C 245.62 233.35 153.19 233.19 60.78 233.36 C 55.96 232.76 52.47 228.66 52.41 223.85 C 53.71 221.37 55.51 219.20 57.74 217.51 Z" />
<path fill="#1e479c" opacity="1.00" d=" M 52.34 272.91 C 54.10 269.68 56.67 265.75 60.94 266.35 C 153.96 266.31 246.98 266.34 340.00 266.33 C 344.73 265.73 349.35 270.30 348.57 275.05 C 348.47 277.83 346.17 279.68 344.36 281.48 C 341.58 281.84 338.80 282.30 335.99 282.26 C 281.66 282.16 227.33 282.34 173.00 282.17 C 135.99 282.30 98.97 282.25 61.96 282.19 C 56.56 282.59 52.63 278.01 52.34 272.91 Z" />
<path fill="#1e479c" opacity="1.00" d=" M 74.07 309.08 C 77.00 308.45 80.01 308.36 83.01 308.36 C 104.68 308.37 126.35 308.37 148.02 308.36 C 151.02 308.36 154.02 308.50 157.01 308.71 C 158.05 309.08 159.09 309.44 160.14 309.80 C 170.84 312.91 179.46 321.58 183.02 332.07 C 184.08 335.60 184.69 339.25 184.66 342.95 C 184.72 355.64 184.65 368.33 184.69 381.02 C 184.68 386.05 184.83 391.25 182.87 395.99 C 182.74 396.56 182.47 397.68 182.34 398.24 C 178.44 407.18 171.02 414.43 161.91 417.95 C 155.19 420.32 147.97 419.65 140.97 419.75 C 133.32 419.84 125.65 419.54 118.00 419.94 C 109.32 419.53 100.62 419.85 91.93 419.75 C 84.65 419.61 77.11 420.42 70.10 417.93 C 60.04 414.01 51.79 405.58 48.72 395.15 C 46.91 388.91 47.41 382.38 47.36 375.97 C 47.51 362.94 47.01 349.89 47.68 336.87 C 50.25 324.33 59.49 313.44 71.86 309.72 C 72.41 309.56 73.52 309.24 74.07 309.08 M 77.38 324.59 C 69.57 326.45 63.23 333.81 63.25 341.95 C 63.15 356.31 63.23 370.68 63.21 385.05 C 62.92 390.80 65.66 396.46 70.15 400.01 C 74.23 403.49 79.82 404.23 85.00 404.33 C 105.66 404.30 126.33 404.29 147.00 404.33 C 152.92 404.34 159.36 403.09 163.53 398.53 C 168.01 394.29 169.19 387.90 169.24 381.99 C 169.28 371.32 169.19 360.65 169.27 349.98 C 169.25 345.60 169.19 341.15 167.97 336.92 C 165.72 329.76 158.64 324.13 151.03 324.28 C 129.71 324.24 108.38 324.30 87.06 324.25 C 83.83 324.28 80.58 324.08 77.38 324.59 Z" />
<path fill="#0e224b" opacity="0.31" d=" M 223.55 315.44 C 224.94 314.86 226.42 314.45 227.95 314.49 C 262.63 314.56 297.31 314.52 331.99 314.52 C 335.50 314.60 339.21 313.95 342.53 315.42 C 302.87 315.57 263.21 315.53 223.55 315.44 Z" />
<path fill="#1e479c" opacity="1.00" d=" M 218.02 325.04 C 216.48 321.07 219.82 317.67 222.66 315.43 L 223.55 315.44 C 263.21 315.53 302.87 315.57 342.53 315.42 C 346.26 316.37 349.25 320.17 348.56 324.10 C 348.43 326.86 346.12 328.69 344.23 330.39 C 342.48 330.58 340.74 330.87 339.01 331.23 C 329.08 329.56 318.99 331.97 309.03 330.80 C 304.01 330.66 298.96 330.51 293.98 331.29 C 293.25 331.17 291.80 330.93 291.07 330.81 C 289.71 330.83 288.36 330.84 287.02 330.85 C 283.34 330.74 279.65 330.70 275.98 330.87 C 269.66 331.14 263.31 331.14 256.98 330.78 C 255.66 330.82 254.34 330.85 253.02 330.88 C 248.68 330.64 244.32 330.66 239.97 330.86 C 238.65 330.86 237.34 330.85 236.03 330.84 C 233.00 330.65 229.93 330.67 226.94 331.27 C 223.13 330.94 219.00 329.09 218.02 325.04 Z" />
<path fill="#20dca5" opacity="1.00" d=" M 77.38 324.59 C 80.58 324.08 83.83 324.28 87.06 324.25 C 108.38 324.30 129.71 324.24 151.03 324.28 C 158.64 324.13 165.72 329.76 167.97 336.92 C 169.19 341.15 169.25 345.60 169.27 349.98 C 169.19 360.65 169.28 371.32 169.24 381.99 C 169.19 387.90 168.01 394.29 163.53 398.53 C 159.36 403.09 152.92 404.34 147.00 404.33 C 126.33 404.29 105.66 404.30 85.00 404.33 C 79.82 404.23 74.23 403.49 70.15 400.01 C 65.66 396.46 62.92 390.80 63.21 385.05 C 63.23 370.68 63.15 356.31 63.25 341.95 C 63.23 333.81 69.57 326.45 77.38 324.59 Z" />
<path fill="#0e224b" opacity="0.31" d=" M 223.53 364.43 C 224.95 363.82 226.45 363.39 228.02 363.43 C 262.36 363.50 296.70 363.46 331.04 363.46 C 334.96 363.57 339.09 362.82 342.80 364.48 C 303.05 364.54 263.29 364.65 223.53 364.43 Z" />
<path fill="#1e479c" opacity="1.00" d=" M 342.80 364.48 C 347.25 365.49 349.99 370.95 348.01 375.11 C 346.82 377.81 344.05 379.84 341.03 379.67 C 332.02 379.87 323.00 379.52 313.99 379.84 C 312.31 379.83 310.63 379.89 308.97 380.10 C 308.23 380.12 306.74 380.14 306.00 380.16 C 303.35 379.64 300.64 379.64 297.96 379.81 C 296.00 380.33 293.99 380.26 292.05 379.75 C 290.35 379.78 288.67 379.83 286.98 379.91 C 266.36 379.39 245.72 379.96 225.10 379.65 C 220.10 379.81 215.97 373.57 218.39 369.10 C 219.22 367.09 221.14 365.85 222.67 364.41 L 223.53 364.43 C 263.29 364.65 303.05 364.54 342.80 364.48 Z" />
<path fill="#0e224b" opacity="0.31" d=" M 532.34 430.94 C 536.04 420.91 536.89 410.16 538.00 399.61 L 538.00 413.54 C 535.75 421.96 534.48 430.85 529.83 438.41 C 530.68 435.92 531.46 433.41 532.34 430.94 Z" />
<path fill="#0e224b" opacity="0.31" d=" M 0.00 409.30 C 0.51 415.14 1.66 420.89 2.52 426.68 C 1.70 424.77 0.81 422.89 0.00 420.98 L 0.00 409.30 Z" />
<path fill="#1e479c" opacity="1.00" d=" M 217.63 420.99 C 217.67 417.69 220.21 415.31 222.61 413.43 C 254.06 413.10 285.53 413.38 316.99 413.29 C 326.04 413.38 335.11 413.06 344.16 413.51 C 346.30 415.49 348.90 417.76 348.62 421.00 C 348.87 424.39 346.17 426.82 343.66 428.60 L 343.36 428.59 C 303.40 428.48 263.44 428.43 223.49 428.62 L 222.68 428.64 C 220.33 426.65 217.63 424.36 217.63 420.99 Z" />
<path fill="#0e224b" opacity="0.31" d=" M 223.49 428.62 C 263.44 428.43 303.40 428.48 343.36 428.59 C 341.98 429.16 340.54 429.59 339.04 429.56 C 302.01 429.53 264.97 429.49 227.94 429.57 C 226.39 429.62 224.88 429.26 223.49 428.62 Z" />
<path fill="#0e224b" opacity="0.31" d=" M 44.47 475.71 C 53.83 478.92 63.48 481.12 73.34 482.00 L 63.20 482.00 C 56.79 480.47 50.20 479.12 44.47 475.71 Z" />
<path fill="#0e224b" opacity="0.31" d=" M 459.94 482.00 C 467.41 480.42 474.92 479.07 482.41 477.57 C 477.42 479.50 472.25 480.92 467.02 482.00 L 459.94 482.00 Z" />
</svg>
