<?xml version="1.0" encoding="UTF-8" ?>
<!DOCTYPE svg PUBLIC "-//W3C//DTD SVG 1.1//EN" "http://www.w3.org/Graphics/SVG/1.1/DTD/svg11.dtd">
<svg width="598pt" height="450pt" viewBox="0 0 598 450" version="1.1" xmlns="http://www.w3.org/2000/svg">
<path fill="#1e479c" opacity="1.00" d=" M 163.57 0.00 L 474.24 0.00 C 488.77 0.26 502.62 10.60 506.24 24.81 C 508.27 33.73 507.11 42.95 507.41 52.00 C 507.68 55.50 506.60 59.34 508.29 62.58 C 523.91 88.95 539.39 115.41 554.98 141.80 C 558.27 147.66 562.11 153.25 564.62 159.51 C 570.43 172.94 570.32 188.81 564.29 202.14 C 558.95 214.27 549.96 224.50 539.71 232.76 C 535.13 236.84 529.50 239.43 524.50 242.92 C 524.52 306.21 524.51 369.50 524.50 432.78 C 531.02 432.69 537.55 432.98 544.06 432.61 C 554.69 432.14 564.83 426.38 570.91 417.69 C 579.29 405.76 582.47 390.18 579.12 375.96 C 575.86 360.72 565.47 347.30 551.76 340.00 C 548.28 338.17 544.20 335.82 543.83 331.45 C 543.09 325.31 550.05 320.35 555.71 322.78 C 570.53 329.51 582.90 341.39 590.33 355.86 C 603.18 380.34 599.26 412.28 580.99 432.98 C 571.35 443.44 557.37 449.43 543.23 450.00 L 32.08 450.00 C 21.10 449.58 10.24 443.79 4.60 434.23 C 1.60 429.57 0.20 424.08 0.00 418.58 L 0.00 417.73 C 0.55 411.73 1.81 405.84 2.85 399.93 C 9.31 379.54 26.80 363.32 47.53 358.20 C 54.61 356.02 62.55 356.94 69.09 353.04 C 75.79 349.20 79.35 341.98 84.96 336.93 C 91.16 330.62 98.81 326.02 106.69 322.12 C 106.69 318.06 107.49 314.02 107.00 309.97 C 106.34 286.27 107.33 262.61 106.64 238.92 C 99.87 234.69 93.68 229.58 88.11 223.86 C 78.96 213.46 70.80 201.16 69.23 187.07 C 67.53 174.89 70.72 162.40 76.89 151.87 C 94.50 121.82 112.23 91.83 129.87 61.79 C 130.57 60.67 130.42 59.29 130.50 58.03 C 130.45 50.36 130.46 42.69 130.45 35.01 C 130.42 30.67 130.84 26.27 132.37 22.17 C 136.80 9.20 149.99 0.25 163.57 0.00 M 147.96 32.04 C 147.39 39.51 147.93 47.03 147.68 54.52 C 167.78 54.86 187.88 54.57 207.98 54.66 C 301.89 54.65 395.80 54.70 489.71 54.64 C 489.60 47.12 489.75 39.61 489.63 32.09 C 489.57 23.67 481.37 16.57 473.06 17.17 C 370.36 17.15 267.65 17.16 164.95 17.17 C 156.51 16.49 148.32 23.54 147.96 32.04 M 116.71 118.58 C 108.10 132.85 100.05 147.47 91.16 161.57 C 96.10 161.96 101.07 161.71 106.02 161.78 C 150.84 161.75 195.67 161.83 240.49 161.74 C 244.70 139.12 248.84 116.49 253.10 93.89 C 253.57 90.54 254.48 87.28 254.89 83.92 C 255.81 79.91 256.51 75.84 257.00 71.75 C 219.35 71.75 181.71 71.67 144.06 71.80 C 135.14 87.50 125.76 102.95 116.71 118.58 M 274.64 72.16 C 273.05 84.84 269.67 97.29 268.31 109.99 C 268.10 109.38 267.90 108.77 267.70 108.15 C 267.73 110.86 267.37 113.54 266.72 116.17 C 263.82 131.30 261.42 146.54 258.14 161.61 C 298.50 161.96 338.89 161.77 379.25 161.70 C 376.14 142.57 372.18 123.26 368.77 104.06 C 367.36 98.06 374.03 92.13 379.80 94.22 C 383.36 95.17 385.74 98.59 386.26 102.13 C 389.70 122.03 393.68 141.83 397.13 161.73 C 446.81 161.81 496.48 161.83 546.15 161.72 C 540.36 150.77 533.65 140.33 527.53 129.56 C 516.11 110.29 504.92 90.89 493.40 71.69 C 421.60 71.79 349.80 71.72 278.00 71.72 C 276.87 71.77 275.74 71.92 274.64 72.16 M 91.68 199.43 C 97.65 210.04 106.58 218.88 116.98 225.13 C 140.20 239.16 169.74 241.25 195.15 232.20 C 210.20 226.43 224.28 216.72 232.86 202.84 C 234.58 195.13 235.47 187.19 237.44 179.51 C 236.86 179.35 235.70 179.03 235.12 178.86 C 185.61 178.72 136.09 179.03 86.59 178.71 C 85.97 185.94 87.86 193.28 91.68 199.43 M 254.74 179.45 C 253.76 188.01 251.55 196.41 250.39 204.96 C 253.48 208.41 256.08 212.32 259.64 215.34 C 281.49 235.91 314.42 242.17 343.02 234.54 C 360.68 229.83 377.17 219.46 387.56 204.23 C 385.34 195.86 384.51 187.15 382.32 178.76 C 340.86 179.00 299.40 178.74 257.94 178.86 C 256.86 178.99 255.79 179.19 254.74 179.45 M 400.47 178.83 C 401.99 186.94 403.28 195.13 405.02 203.19 C 412.62 214.76 423.81 223.84 436.39 229.54 C 458.11 239.48 483.72 240.21 506.16 232.18 C 522.40 226.12 537.26 215.17 545.80 199.84 C 550.05 193.71 551.22 186.13 551.37 178.83 C 501.07 178.87 450.77 178.85 400.47 178.83 M 228.24 233.18 C 202.53 253.33 167.24 259.27 135.83 251.38 C 131.98 250.56 128.41 248.74 124.51 248.13 C 124.53 309.67 124.55 371.20 124.49 432.74 C 194.47 432.78 264.45 432.87 334.42 432.69 C 334.31 393.12 334.41 353.56 334.37 313.99 C 334.24 302.45 338.32 290.76 346.37 282.39 C 354.82 272.97 367.35 267.57 379.96 267.49 C 392.63 267.36 405.31 267.48 417.98 267.43 C 426.54 267.18 435.35 268.12 443.13 271.91 C 454.28 277.23 463.42 287.13 466.99 299.06 C 468.82 303.47 468.54 308.33 469.38 312.97 C 469.40 352.91 469.40 392.85 469.38 432.79 C 482.01 432.58 494.67 433.17 507.28 432.49 C 507.12 415.66 506.95 398.81 507.10 382.00 C 507.16 354.66 507.12 327.33 507.14 299.98 C 506.51 293.32 507.32 286.65 507.14 279.98 C 506.79 270.15 507.25 260.33 507.26 250.49 C 505.12 250.33 503.08 250.95 501.08 251.55 C 464.38 260.69 421.98 250.25 396.83 221.16 C 392.45 225.38 388.32 229.85 383.42 233.47 C 353.81 256.25 311.91 260.83 277.56 246.74 C 263.56 241.25 251.13 232.23 241.07 221.09 C 236.96 225.30 232.96 229.64 228.24 233.18 M 356.78 296.83 C 352.87 302.39 351.82 309.34 351.67 315.99 C 351.83 354.91 351.49 393.84 351.84 432.76 C 385.13 432.80 418.43 432.81 451.72 432.76 C 451.67 395.16 451.71 357.57 451.70 319.97 C 451.63 314.00 452.21 307.74 449.68 302.14 C 445.58 291.84 435.01 284.64 423.93 284.54 C 409.61 284.44 395.29 284.49 380.97 284.51 C 371.52 284.32 362.12 289.01 356.78 296.83 M 103.17 344.18 C 95.85 349.14 91.10 356.81 84.83 362.91 C 80.16 366.83 74.74 369.81 68.89 371.57 C 61.73 373.47 54.15 373.44 47.22 376.20 C 28.99 382.71 16.07 401.89 17.64 421.30 C 19.82 427.73 25.93 433.17 32.99 432.77 C 57.79 432.65 82.61 433.08 107.40 432.55 C 106.32 426.73 107.11 420.83 107.12 415.01 C 106.60 411.68 107.14 408.31 106.76 404.97 C 106.28 400.30 107.77 395.66 107.00 391.01 C 106.16 383.94 107.33 376.85 106.91 369.79 C 106.96 365.18 106.41 360.57 107.21 355.99 C 106.55 352.65 107.23 349.31 106.84 345.99 C 107.00 345.03 107.31 343.10 107.46 342.13 C 105.82 342.30 104.39 343.10 103.17 344.18 Z" />
<path fill="#1e479c" opacity="1.00" d=" M 184.98 268.78 C 189.48 267.29 194.29 267.47 198.97 267.43 C 220.00 267.46 241.04 267.40 262.07 267.46 C 271.65 267.22 281.31 271.16 287.69 278.37 C 293.52 284.36 296.35 292.75 296.51 301.01 C 296.51 322.66 296.50 344.32 296.51 365.97 C 296.35 373.77 293.92 381.73 288.70 387.65 C 282.26 395.46 272.12 399.95 262.02 399.74 C 239.37 399.75 216.71 399.81 194.05 399.71 C 180.44 399.82 167.58 390.79 162.65 378.17 C 162.52 377.61 162.26 376.51 162.13 375.95 C 159.60 367.89 160.91 359.30 160.55 350.99 C 160.25 347.18 161.28 342.86 164.88 340.89 C 169.70 337.20 177.34 341.16 177.98 346.95 C 178.95 354.70 177.75 362.60 178.63 370.37 C 180.16 377.70 187.52 383.12 194.97 382.69 C 217.65 382.68 240.34 382.74 263.02 382.67 C 271.31 382.79 279.10 375.42 278.78 367.00 C 278.84 344.65 278.87 322.31 278.77 299.96 C 278.97 293.46 274.26 287.48 268.23 285.41 C 265.62 284.38 262.76 284.51 260.02 284.48 C 238.33 284.51 216.64 284.47 194.96 284.49 C 189.13 284.24 183.21 287.29 180.34 292.42 C 177.04 297.70 178.80 304.23 178.29 310.10 C 177.75 313.80 175.22 317.28 171.48 318.18 C 166.37 319.61 160.74 315.31 160.65 310.03 C 160.46 303.71 160.28 297.24 162.06 291.11 C 165.21 280.43 174.21 271.64 184.98 268.78 Z" />
<path fill="#20dca5" opacity="1.00" d=" M 356.78 296.83 C 362.12 289.01 371.52 284.32 380.97 284.51 C 395.29 284.49 409.61 284.44 423.93 284.54 C 435.01 284.64 445.58 291.84 449.68 302.14 C 452.21 307.74 451.63 314.00 451.70 319.97 C 451.71 357.57 451.67 395.16 451.72 432.76 C 418.43 432.81 385.13 432.80 351.84 432.76 C 351.49 393.84 351.83 354.91 351.67 315.99 C 351.82 309.34 352.87 302.39 356.78 296.83 M 412.53 343.72 C 402.04 345.47 392.87 353.68 390.42 364.08 C 388.51 371.36 390.03 379.42 394.40 385.54 C 398.16 391.43 404.54 395.20 411.21 396.91 C 420.03 399.04 429.61 396.28 436.37 390.35 C 442.45 384.72 446.06 376.31 445.16 367.98 C 444.39 359.48 439.23 351.55 431.86 347.28 C 426.13 343.74 419.13 342.68 412.53 343.72 Z" />
<path fill="#1e479c" opacity="1.00" d=" M 412.53 343.72 C 419.13 342.68 426.13 343.74 431.86 347.28 C 439.23 351.55 444.39 359.48 445.16 367.98 C 446.06 376.31 442.45 384.72 436.37 390.35 C 429.61 396.28 420.03 399.04 411.21 396.91 C 404.54 395.20 398.16 391.43 394.40 385.54 C 390.03 379.42 388.51 371.36 390.42 364.08 C 392.87 353.68 402.04 345.47 412.53 343.72 M 414.56 360.83 C 410.31 362.14 406.61 366.37 407.37 371.04 C 407.07 375.13 410.51 378.49 414.06 379.89 C 420.36 382.51 428.37 376.82 427.59 369.95 C 427.63 363.65 420.47 358.84 414.56 360.83 Z" />
<path fill="#112a5c" opacity="0.38" d=" M 0.00 409.23 C 0.74 406.07 1.66 402.95 2.85 399.93 C 1.81 405.84 0.55 411.73 0.00 417.73 L 0.00 409.23 Z" />
</svg>
