<?xml version="1.0" encoding="UTF-8" ?>
<!DOCTYPE svg PUBLIC "-//W3C//DTD SVG 1.1//EN" "http://www.w3.org/Graphics/SVG/1.1/DTD/svg11.dtd">
<svg width="396pt" height="608pt" viewBox="0 0 396 608" version="1.1" xmlns="http://www.w3.org/2000/svg">
<path fill="#1e4c9c" opacity="1.00" d=" M 189.66 0.00 L 206.65 0.00 C 212.56 3.65 219.27 5.96 224.67 10.43 C 232.43 16.33 237.19 25.39 239.51 34.70 C 242.05 46.20 237.44 57.42 234.61 68.37 C 233.66 70.50 235.94 71.69 237.32 72.79 C 268.98 93.05 300.24 113.93 331.81 134.32 C 342.03 141.05 352.57 147.34 362.37 154.70 C 368.34 159.27 373.95 164.52 377.81 171.04 C 381.65 177.39 383.49 184.74 384.21 192.06 C 383.75 206.65 377.00 219.90 371.40 233.06 C 376.82 239.78 383.10 245.76 388.31 252.65 C 391.66 257.02 393.30 262.35 396.00 267.10 L 396.00 272.83 C 393.03 277.98 390.77 283.54 387.19 288.32 C 380.59 297.25 372.03 304.42 363.81 311.78 C 361.96 313.44 360.05 315.07 358.61 317.11 C 357.89 321.03 358.36 325.04 358.27 329.00 C 358.26 386.33 358.35 443.66 358.30 500.99 C 358.33 504.33 358.09 507.69 358.49 511.02 C 361.11 515.14 365.42 517.77 368.96 521.04 C 377.38 528.51 386.54 535.89 391.55 546.23 C 394.38 552.62 395.85 560.36 392.65 566.91 C 387.09 579.03 378.09 589.43 367.35 597.26 C 362.34 600.50 357.19 604.16 351.29 605.41 C 347.07 602.97 343.67 599.36 340.23 595.96 C 352.18 585.30 365.70 575.94 374.79 562.50 C 376.98 559.73 374.77 556.36 373.57 553.69 C 367.73 541.83 357.48 532.02 344.82 527.85 C 339.43 525.86 333.61 526.55 328.00 526.49 C 237.65 526.55 147.29 526.40 56.94 526.59 C 42.99 527.34 32.70 538.17 24.39 548.30 C 22.12 551.52 18.11 555.01 19.93 559.37 C 25.30 573.59 37.48 585.26 52.17 589.44 C 57.30 591.03 62.72 590.32 68.00 590.45 C 146.34 590.41 224.68 590.36 303.02 590.42 C 307.04 590.64 311.84 590.02 315.07 592.89 C 318.06 597.36 318.92 602.84 320.04 608.00 L 48.53 608.00 C 40.35 604.44 32.21 600.51 25.27 594.81 C 15.83 587.06 7.63 577.54 2.39 566.45 C -0.07 558.68 1.59 549.92 5.91 543.09 C 12.42 532.46 22.63 524.92 31.80 516.75 C 34.18 514.47 37.65 512.44 37.87 508.80 C 38.41 504.89 38.07 500.93 38.12 497.00 C 38.11 441.67 38.22 386.33 38.18 331.00 C 38.08 326.82 38.57 322.59 37.84 318.45 C 37.55 316.10 35.46 314.70 33.85 313.24 C 23.99 305.20 13.97 296.98 6.77 286.35 C 4.47 282.83 2.45 279.13 0.00 275.71 L 0.00 264.33 C 2.97 260.90 3.99 256.28 6.90 252.79 C 11.83 245.56 18.80 240.09 23.99 233.08 C 20.71 224.25 15.93 216.00 13.57 206.83 C 10.76 197.66 10.61 187.66 13.94 178.60 C 19.83 162.33 34.54 151.02 49.89 144.21 C 55.71 141.42 63.25 146.50 63.52 152.65 C 60.12 157.80 54.60 161.01 49.93 164.88 C 43.52 170.13 36.49 175.09 32.18 182.35 C 29.80 186.12 30.29 190.78 30.29 195.03 C 30.28 202.05 33.63 208.38 35.67 214.93 C 36.60 217.15 37.05 219.78 38.91 221.45 C 45.19 221.71 51.52 221.59 57.76 220.80 C 65.79 220.08 73.89 220.93 81.90 219.96 C 83.92 219.72 85.95 219.63 87.99 219.62 C 118.32 219.50 148.66 219.53 179.00 219.58 C 228.67 219.80 278.33 219.44 328.00 219.63 C 337.45 219.47 346.77 221.42 356.20 221.65 C 359.21 216.02 361.24 209.95 363.42 203.96 C 365.38 198.64 366.18 192.81 365.09 187.21 C 363.19 179.47 357.36 173.55 351.19 168.89 C 343.26 163.03 334.84 157.89 326.59 152.52 C 291.76 130.10 257.44 106.90 222.53 84.63 C 219.26 82.32 215.44 85.05 211.95 85.29 C 203.99 86.12 195.96 85.75 187.97 85.67 C 183.59 85.81 179.52 83.94 175.22 83.58 C 172.23 84.57 169.73 86.57 167.08 88.22 C 141.83 104.33 117.58 122.06 91.46 136.77 C 85.60 140.33 78.36 134.11 78.49 127.96 C 79.37 125.81 81.38 124.45 83.16 123.09 C 91.20 117.47 98.97 111.46 107.18 106.09 C 123.54 95.35 140.22 85.11 156.66 74.51 C 158.19 73.28 160.53 72.49 161.28 70.61 C 160.98 65.83 158.76 61.39 157.76 56.73 C 155.87 50.67 156.24 44.26 156.23 37.99 C 155.92 30.58 159.68 23.79 163.68 17.82 C 170.01 9.01 180.34 4.80 189.66 0.00 M 54.32 238.14 C 39.73 241.43 28.64 253.05 21.38 265.58 C 19.93 267.87 18.08 271.10 20.27 273.55 C 26.12 281.30 32.11 289.09 39.64 295.30 C 44.61 299.02 50.65 301.69 56.96 301.48 C 148.64 301.48 240.32 301.48 332.00 301.49 C 337.35 301.44 342.97 301.99 347.98 299.67 C 357.73 295.56 364.58 287.17 371.14 279.21 C 373.43 276.28 376.29 273.84 378.46 270.82 C 377.11 267.35 374.13 264.85 372.04 261.83 C 366.75 254.56 360.58 247.82 353.09 242.78 C 348.07 239.41 342.01 237.87 336.04 237.58 C 243.34 237.50 150.64 237.55 57.95 237.53 C 56.72 237.60 55.51 237.80 54.32 238.14 M 55.52 320.82 C 55.58 339.27 55.42 357.72 55.49 376.17 L 56.16 376.82 C 60.38 376.33 63.50 372.94 67.06 370.91 C 76.87 364.49 87.63 356.90 99.99 358.39 C 111.58 359.78 121.22 366.96 130.65 373.24 C 132.95 374.90 135.38 376.43 138.16 377.14 C 138.47 374.77 138.54 372.38 138.50 370.00 C 138.36 353.65 138.64 337.29 138.38 320.94 C 138.06 320.59 137.41 319.89 137.09 319.54 C 111.38 319.36 85.66 319.48 59.95 319.50 C 58.32 319.30 56.91 320.11 55.52 320.82 M 156.57 319.55 C 156.25 338.69 156.42 357.85 156.48 377.00 C 157.06 376.84 158.24 376.54 158.82 376.39 C 167.25 371.47 174.81 364.99 183.88 361.17 C 188.38 359.37 193.02 357.28 198.00 357.63 C 202.68 357.49 207.14 359.18 211.38 360.98 C 219.16 364.31 226.04 369.33 232.94 374.16 C 234.64 375.40 236.54 376.32 238.56 376.95 C 238.86 358.16 238.49 339.37 238.74 320.58 C 237.02 319.52 235.01 319.35 233.03 319.43 C 207.55 319.57 182.05 319.31 156.57 319.55 M 257.53 319.53 C 257.23 338.68 257.33 357.85 257.46 377.01 C 263.91 374.57 268.94 369.49 274.97 366.20 C 283.19 361.60 292.16 356.26 301.98 357.85 C 312.93 360.06 322.52 366.22 331.51 372.58 C 333.99 374.24 336.32 376.48 339.44 376.78 C 339.48 358.17 339.67 339.54 339.43 320.94 C 339.08 320.60 338.38 319.92 338.02 319.59 C 311.20 319.37 284.36 319.47 257.53 319.53 M 191.55 377.78 C 179.57 382.62 169.84 391.34 159.01 398.14 C 157.61 398.99 156.02 400.06 156.37 401.97 C 156.39 410.80 156.38 419.64 156.62 428.48 C 168.92 435.64 179.61 445.67 193.11 450.66 C 195.96 451.88 199.27 452.01 202.15 450.82 C 214.61 446.38 224.64 437.49 235.72 430.57 C 237.28 429.42 239.55 428.19 239.32 425.93 C 239.38 417.41 239.36 408.89 239.44 400.38 C 235.02 396.80 230.04 393.99 225.52 390.56 C 217.30 384.50 208.49 379.03 198.74 375.79 C 196.19 375.34 193.87 376.98 191.55 377.78 M 296.76 376.04 C 281.77 381.21 269.75 391.93 256.70 400.54 C 256.68 409.00 256.71 417.47 256.77 425.93 C 256.53 428.21 258.93 429.26 260.47 430.38 C 272.07 437.45 282.45 446.83 295.50 451.26 C 299.27 452.45 303.03 450.66 306.48 449.30 C 317.94 444.56 327.25 436.17 337.50 429.42 C 338.61 428.43 340.38 427.56 340.31 425.83 C 340.40 418.22 340.24 410.60 340.29 402.99 C 340.69 400.11 337.74 398.71 335.81 397.27 C 324.55 390.17 314.39 380.85 301.47 376.78 C 299.93 376.43 298.33 375.32 296.76 376.04 M 91.29 378.00 C 82.10 381.49 74.26 387.59 66.28 393.17 C 62.67 395.71 58.86 397.98 55.45 400.80 C 55.51 409.56 55.39 418.32 55.51 427.08 C 59.23 430.31 63.50 432.78 67.50 435.62 C 76.13 441.84 84.94 448.23 95.24 451.37 C 98.65 452.34 101.84 450.28 104.88 449.06 C 113.57 445.21 121.11 439.38 128.93 434.08 C 131.80 432.07 134.95 430.42 137.52 428.03 C 138.14 421.36 137.59 414.63 137.84 407.94 C 138.01 405.56 138.73 403.19 138.44 400.79 C 136.16 398.55 133.35 396.96 130.75 395.13 C 121.07 388.51 111.62 381.24 100.56 377.05 C 97.51 375.62 94.23 377.03 91.29 378.00 M 156.38 449.55 C 156.14 451.34 155.80 453.13 155.80 454.95 C 155.83 469.30 155.81 483.65 155.81 498.00 C 155.85 501.50 155.45 505.08 156.42 508.51 C 184.08 508.54 211.74 508.67 239.41 508.44 C 239.36 489.01 239.35 469.58 239.41 450.14 C 234.91 451.19 231.54 454.49 227.76 456.93 C 219.09 462.79 209.81 468.99 199.06 469.64 C 192.17 470.34 185.69 467.40 179.67 464.46 C 171.54 460.08 164.16 454.48 156.38 449.55 M 55.72 450.06 C 55.34 469.51 55.44 488.99 55.56 508.45 C 83.17 508.65 110.78 508.58 138.39 508.41 C 138.55 488.96 138.50 469.50 138.41 450.05 C 133.08 452.13 128.88 456.18 124.02 459.12 C 114.85 465.17 104.35 470.98 92.95 469.54 C 78.74 467.09 68.02 456.69 55.72 450.06 M 257.53 451.06 C 257.32 467.72 257.18 484.38 257.41 501.05 C 257.34 503.23 257.81 505.36 258.61 507.39 C 261.00 508.10 263.46 508.60 265.97 508.50 C 290.00 508.66 314.04 508.63 338.06 508.45 C 338.40 508.10 339.09 507.40 339.43 507.05 C 339.58 488.44 339.53 469.81 339.51 451.19 C 337.82 451.34 336.17 451.79 334.80 452.84 C 325.04 459.23 315.68 467.14 303.92 469.44 C 299.73 469.71 295.46 469.85 291.30 469.21 C 282.03 466.61 273.88 461.26 266.05 455.83 C 263.34 454.02 260.77 451.81 257.53 451.06 Z" />
</svg>
