<?xml version="1.0" encoding="UTF-8" ?>
<!DOCTYPE svg PUBLIC "-//W3C//DTD SVG 1.1//EN" "http://www.w3.org/Graphics/SVG/1.1/DTD/svg11.dtd">
<svg width="600pt" height="450pt" viewBox="0 0 600 450" version="1.1" xmlns="http://www.w3.org/2000/svg">
<path fill="#122c61" opacity="0.40" d=" M 164.42 0.00 L 251.92 0.00 L 250.90 0.86 C 247.27 1.47 243.59 1.21 239.94 1.23 C 217.94 1.24 195.95 1.22 173.96 1.23 C 170.32 1.31 166.66 1.35 163.07 0.69 L 164.42 0.00 Z" />
<path fill="#1e479c" opacity="1.00" d=" M 127.97 2.13 C 139.50 -0.40 151.37 1.01 163.07 0.69 C 166.66 1.35 170.32 1.31 173.96 1.23 C 195.95 1.22 217.94 1.24 239.94 1.23 C 243.59 1.21 247.27 1.47 250.90 0.86 C 259.64 0.72 268.30 3.11 276.12 6.91 C 292.24 14.76 304.27 30.43 307.57 48.07 C 309.13 53.77 308.09 59.76 309.41 65.49 C 326.26 65.42 343.13 65.13 359.98 65.76 C 412.99 65.73 466.01 65.74 519.02 65.75 C 553.30 69.19 584.14 94.04 595.10 126.66 C 595.96 131.86 597.87 136.84 598.54 142.08 C 598.87 144.65 599.39 147.18 600.00 149.69 L 600.00 363.94 C 598.73 372.25 596.91 380.43 594.76 388.56 C 588.94 405.00 578.31 419.75 564.41 430.30 C 550.78 440.73 534.14 447.37 517.02 448.73 C 465.92 448.82 414.81 448.71 363.71 448.79 C 327.48 448.65 291.25 448.64 255.02 448.79 C 199.35 448.73 143.68 448.77 88.00 448.78 C 77.16 449.14 66.50 446.22 56.47 442.32 C 33.36 432.93 14.55 413.63 5.82 390.26 C 4.54 384.44 2.37 378.84 1.53 372.93 C 1.14 370.05 0.62 367.20 0.00 364.37 L 0.00 149.98 C 1.25 142.11 3.05 134.37 4.90 126.63 C 11.35 107.92 24.05 91.47 40.54 80.51 C 52.83 72.26 67.16 67.32 81.82 65.55 C 81.68 55.82 82.50 45.82 86.53 36.84 C 93.60 19.43 109.69 6.22 127.97 2.13 M 169.42 18.51 C 169.46 34.15 169.32 49.78 169.49 65.42 C 186.79 65.39 204.10 65.40 221.40 65.41 C 221.51 49.78 221.42 34.15 221.45 18.51 C 204.10 18.50 186.76 18.50 169.42 18.51 M 239.17 18.49 C 239.19 34.14 239.04 49.79 239.25 65.44 C 256.34 65.42 273.44 65.28 290.53 65.52 C 292.23 62.94 291.09 59.70 290.86 56.86 C 290.40 40.90 278.90 26.35 264.09 20.92 C 256.15 17.78 247.51 18.60 239.17 18.49 M 106.22 37.20 C 100.65 45.43 98.97 55.71 99.63 65.47 C 116.92 65.36 134.21 65.39 151.51 65.42 C 151.67 49.78 151.42 34.14 151.57 18.50 C 147.05 18.52 142.53 18.44 138.02 18.60 C 125.25 19.20 113.09 26.47 106.22 37.20 M 23.77 126.87 C 20.25 134.75 18.46 143.28 17.63 151.84 C 17.56 220.90 17.63 289.95 17.59 359.01 C 17.83 378.59 26.35 397.91 40.59 411.36 C 53.89 423.71 71.72 431.37 89.96 431.35 C 229.29 431.32 368.63 431.37 507.96 431.38 C 530.63 431.87 553.23 421.05 566.93 402.96 C 576.69 390.50 582.13 374.80 582.40 359.00 C 582.31 289.63 582.57 220.25 582.27 150.89 C 581.20 142.69 579.64 134.47 576.23 126.87 C 565.97 103.33 542.66 85.99 517.07 83.42 C 513.34 83.25 509.61 83.33 505.89 83.14 C 504.28 82.56 502.59 82.79 500.98 83.20 C 497.79 81.99 494.43 83.85 491.16 82.92 C 486.47 83.15 481.73 83.57 477.05 82.73 C 472.39 83.19 467.69 83.60 463.03 82.95 C 458.37 82.21 453.73 83.54 449.07 83.27 C 445.68 83.47 442.33 82.44 438.96 82.83 C 424.37 83.84 409.59 82.63 395.00 83.18 C 393.34 82.93 391.51 82.22 390.00 83.34 C 387.53 82.01 384.68 83.74 382.04 83.27 C 375.09 82.15 367.78 84.46 361.01 82.61 C 360.51 82.79 359.52 83.14 359.02 83.32 C 350.39 81.90 341.72 83.81 333.09 82.93 C 328.42 83.31 323.71 83.52 319.06 82.83 C 316.03 82.85 313.00 83.69 309.98 83.05 C 306.32 82.13 302.66 83.89 299.01 82.94 C 293.97 82.89 288.91 83.37 283.89 82.84 C 275.61 84.20 267.26 82.09 259.00 83.28 C 253.00 82.47 246.95 83.68 240.98 82.82 C 238.93 82.90 236.88 83.49 234.83 83.10 C 231.24 82.46 227.60 83.94 224.04 82.81 C 222.36 83.13 220.64 83.56 219.01 82.82 C 215.68 83.83 212.33 82.54 208.96 82.74 C 202.62 82.88 196.25 82.44 189.94 83.22 C 186.00 82.72 181.98 82.45 178.04 83.08 C 176.66 83.38 175.32 83.29 174.01 82.81 C 169.38 83.90 164.67 82.02 160.00 83.20 C 150.37 81.69 140.69 84.23 131.07 82.79 C 127.70 82.36 124.35 83.75 120.99 83.01 C 117.31 82.30 113.64 83.67 109.97 82.73 C 103.34 83.97 96.70 82.04 90.07 83.24 C 61.81 82.56 34.97 101.24 23.77 126.87 Z" />
<path fill="#122c61" opacity="0.40" d=" M 0.00 144.13 C 1.58 138.28 2.07 132.08 4.90 126.63 C 3.05 134.37 1.25 142.11 0.00 149.98 L 0.00 144.13 Z" />
<path fill="#122c61" opacity="0.40" d=" M 595.10 126.66 C 597.85 131.88 598.21 137.86 600.00 143.40 L 600.00 149.69 C 599.39 147.18 598.87 144.65 598.54 142.08 C 597.87 136.84 595.96 131.86 595.10 126.66 Z" />
<path fill="#1e479c" opacity="1.00" d=" M 138.20 161.21 C 152.71 152.22 169.13 146.09 186.12 144.18 C 194.27 142.67 202.68 143.43 210.94 143.45 C 223.36 144.70 235.78 147.37 247.21 152.52 C 249.00 153.36 250.96 153.75 252.94 153.72 C 312.61 153.72 372.29 153.73 431.96 153.72 C 442.33 153.78 452.84 153.01 463.06 155.25 C 487.55 160.31 508.55 179.84 514.82 204.11 C 516.52 209.58 517.08 215.33 517.43 221.02 C 517.40 247.69 517.57 274.35 517.46 301.01 C 517.43 314.66 513.38 328.31 505.67 339.61 C 495.75 354.56 479.68 365.30 462.05 368.69 C 454.13 370.35 445.98 369.63 437.95 370.10 C 432.63 370.52 427.31 369.36 422.00 370.11 C 414.35 370.05 406.67 369.52 399.03 370.10 C 380.35 369.55 361.69 370.30 343.03 369.82 C 317.69 370.16 292.36 369.71 267.00 370.01 C 261.68 369.53 256.36 370.08 251.05 370.24 C 248.25 370.38 245.80 371.91 243.23 372.86 C 237.69 375.18 231.85 376.60 226.06 378.16 C 224.96 378.30 223.85 378.45 222.75 378.60 C 220.41 380.02 217.46 379.12 214.91 379.91 C 181.09 384.09 145.78 372.35 120.90 349.10 C 108.61 337.94 98.74 324.13 92.19 308.88 C 88.70 301.31 86.69 293.18 84.78 285.12 C 78.34 252.59 86.13 217.57 105.99 190.98 C 108.50 187.67 111.18 183.20 115.91 183.31 C 120.65 182.69 124.03 186.79 125.33 190.87 C 125.53 194.21 123.62 197.11 121.68 199.65 C 110.66 213.66 103.49 230.68 101.19 248.36 C 98.24 270.51 102.71 293.63 114.09 312.90 C 123.51 328.97 137.47 342.39 153.91 351.15 C 177.55 364.00 206.48 366.38 232.03 358.12 C 249.64 352.40 265.54 341.66 277.52 327.56 C 290.86 312.02 299.42 292.35 301.38 271.94 C 301.95 262.28 302.01 252.50 300.11 242.98 C 295.64 219.34 282.40 197.41 263.48 182.53 C 253.46 174.57 241.89 168.72 229.71 164.87 C 220.57 161.52 210.68 160.53 200.99 160.58 C 191.73 160.56 182.28 161.46 173.51 164.57 C 164.78 167.24 156.34 170.83 148.54 175.61 C 145.32 177.85 140.42 178.54 137.36 175.67 C 132.75 172.27 133.01 163.96 138.20 161.21 M 278.79 171.51 C 280.07 173.74 282.27 175.19 284.01 177.03 C 289.17 182.04 293.73 187.63 298.00 193.41 C 348.62 193.62 399.25 193.36 449.87 193.59 C 456.56 193.84 460.21 202.85 455.81 207.80 C 452.50 211.95 446.68 211.35 441.95 211.31 C 397.36 211.43 352.76 211.07 308.18 211.50 C 311.60 218.10 314.21 225.23 315.62 232.53 C 316.20 233.29 316.96 233.63 317.90 233.58 C 362.45 233.55 407.01 233.59 451.56 233.55 C 454.93 234.91 457.99 238.06 457.70 241.94 C 458.06 246.60 453.64 251.15 448.94 250.67 C 405.75 250.66 362.56 250.73 319.37 250.64 C 319.47 257.98 319.74 265.33 319.24 272.67 C 361.48 272.72 403.73 272.71 445.98 272.67 C 449.97 272.43 454.56 273.73 456.65 277.41 C 459.69 282.48 456.09 290.07 450.06 290.40 C 405.34 290.65 360.60 290.28 315.89 290.66 C 314.27 298.18 311.67 305.55 308.14 312.39 C 355.77 312.82 403.42 312.34 451.05 312.68 C 454.13 314.00 457.28 316.29 457.58 319.92 C 458.69 325.08 454.34 330.39 449.06 330.26 C 398.68 330.30 348.29 330.30 297.90 330.37 C 294.02 335.91 289.55 341.02 284.91 345.93 C 282.91 348.11 280.36 349.77 278.74 352.29 C 335.51 352.50 392.28 352.29 449.05 352.40 C 461.92 352.03 474.84 347.15 484.05 338.01 C 494.09 328.57 499.84 314.77 499.60 301.00 C 499.61 274.99 499.61 248.97 499.60 222.96 C 499.86 209.87 494.83 196.69 485.63 187.34 C 475.87 176.78 461.34 170.89 447.01 171.49 C 390.93 171.51 334.86 171.47 278.79 171.51 Z" />
<path fill="#122c61" opacity="0.40" d=" M 173.51 164.57 C 182.28 161.46 191.73 160.56 200.99 160.58 C 210.68 160.53 220.57 161.52 229.71 164.87 C 227.41 164.73 225.14 164.32 222.92 163.69 C 208.90 160.31 194.14 160.33 180.09 163.48 C 177.93 164.04 175.76 164.69 173.51 164.57 Z" />
<path fill="#1e479c" opacity="1.00" d=" M 190.49 207.71 C 204.18 204.98 218.90 207.77 230.64 215.32 C 243.71 223.63 252.98 237.67 255.45 252.96 C 255.50 257.31 257.07 261.63 255.92 265.97 C 254.91 281.39 246.94 296.20 234.67 305.59 C 224.35 313.67 211.06 317.75 197.98 316.80 C 169.82 316.22 145.18 290.13 146.28 261.97 C 145.14 236.27 165.44 212.27 190.49 207.71 M 185.34 228.14 C 182.11 228.94 179.87 231.46 177.17 233.19 C 172.48 236.67 169.22 241.69 166.69 246.88 C 164.24 251.91 164.57 257.47 163.64 262.83 L 164.22 261.53 C 162.72 279.18 176.91 295.68 194.06 298.58 C 202.20 300.65 210.84 298.81 218.28 295.22 C 227.51 290.58 234.18 281.72 237.08 271.91 C 240.10 261.80 238.29 250.44 232.56 241.61 C 222.96 226.43 201.50 219.40 185.34 228.14 Z" />
<path fill="#20dca5" opacity="1.00" d=" M 185.34 228.14 C 201.50 219.40 222.96 226.43 232.56 241.61 C 238.29 250.44 240.10 261.80 237.08 271.91 C 234.18 281.72 227.51 290.58 218.28 295.22 C 210.84 298.81 202.20 300.65 194.06 298.58 C 176.91 295.68 162.72 279.18 164.22 261.53 C 164.96 258.42 165.33 255.23 166.16 252.14 C 169.71 242.40 176.00 233.10 185.34 228.14 Z" />
<path fill="#122c61" opacity="0.40" d=" M 315.62 232.53 C 359.44 232.76 403.27 232.59 447.09 232.62 C 448.62 232.60 450.14 232.95 451.56 233.55 C 407.01 233.59 362.45 233.55 317.90 233.58 C 316.96 233.63 316.20 233.29 315.62 232.53 Z" />
<path fill="#122c61" opacity="0.40" d=" M 0.00 364.37 C 0.62 367.20 1.14 370.05 1.53 372.93 C 2.37 378.84 4.54 384.44 5.82 390.26 C 2.49 384.20 1.88 377.24 0.00 370.71 L 0.00 364.37 Z" />
<path fill="#122c61" opacity="0.40" d=" M 594.76 388.56 C 596.91 380.43 598.73 372.25 600.00 363.94 L 600.00 370.43 C 598.24 376.47 597.85 382.96 594.76 388.56 Z" />
<path fill="#122c61" opacity="0.40" d=" M 255.02 448.79 C 291.25 448.64 327.48 448.65 363.71 448.79 L 362.73 450.00 L 256.14 450.00 L 255.02 448.79 Z" />
</svg>
