<?xml version="1.0" encoding="UTF-8" ?>
<!DOCTYPE svg PUBLIC "-//W3C//DTD SVG 1.1//EN" "http://www.w3.org/Graphics/SVG/1.1/DTD/svg11.dtd">
<svg width="612pt" height="600pt" viewBox="0 0 612 600" version="1.1" xmlns="http://www.w3.org/2000/svg">
<path fill="#1e479c" opacity="1.00" d=" M 255.59 0.00 L 270.35 0.00 C 284.91 3.46 299.97 8.32 310.63 19.40 C 316.28 24.34 320.28 30.68 324.43 36.83 C 328.20 36.31 330.85 33.03 334.07 31.22 C 357.82 16.38 385.05 7.07 412.96 4.54 C 423.96 4.14 434.99 4.04 445.99 4.67 C 475.53 7.89 504.50 18.01 528.92 35.07 C 555.44 53.12 576.55 78.69 590.12 107.69 C 604.44 139.68 610.00 175.81 604.25 210.50 C 600.67 233.44 592.36 255.55 580.54 275.50 C 575.51 284.34 569.01 292.16 562.93 300.26 C 569.81 303.96 575.25 309.87 579.68 316.20 C 585.13 324.07 587.45 333.47 590.78 342.31 C 595.71 355.61 599.91 369.17 604.65 382.53 C 606.91 388.76 608.61 395.26 612.00 401.00 L 612.00 417.18 C 608.59 426.15 603.87 435.14 595.65 440.59 C 589.73 445.07 582.27 446.28 575.15 447.45 C 575.76 477.95 575.24 508.48 575.41 539.00 C 575.20 547.91 576.35 557.12 573.36 565.72 C 569.30 578.86 559.44 590.03 546.86 595.60 C 542.19 597.46 537.35 598.89 532.45 600.00 L 79.63 600.00 C 70.48 597.57 61.14 594.48 53.96 588.03 C 43.18 579.05 37.24 564.96 37.37 551.03 C 37.42 516.25 37.33 481.47 37.42 446.70 C 26.13 447.26 15.01 441.67 8.12 432.82 C 4.64 428.39 2.63 423.06 0.00 418.13 L 0.00 401.89 C 1.63 398.52 2.99 395.04 4.21 391.51 C 10.79 372.70 17.25 353.84 23.80 335.02 C 25.76 329.17 27.86 323.30 31.12 318.03 C 41.98 300.62 62.52 288.92 83.23 290.52 C 87.94 281.83 91.31 272.49 96.26 263.93 C 95.17 258.26 91.27 253.37 90.18 247.61 C 78.39 245.87 66.83 241.96 57.05 235.04 C 44.06 226.51 34.69 213.12 29.76 198.51 C 23.69 179.99 25.77 159.10 35.04 141.99 C 43.53 126.38 58.05 114.17 75.01 108.77 C 87.06 104.55 100.15 104.61 112.62 106.71 C 125.67 89.60 143.14 76.23 162.22 66.45 C 172.25 61.77 182.75 58.01 193.54 55.52 C 196.25 42.82 202.81 31.10 211.58 21.59 C 218.06 15.00 226.04 10.02 234.46 6.29 C 241.23 3.36 248.51 1.95 255.59 0.00 M 238.28 24.25 C 227.00 30.06 217.32 40.02 213.49 52.25 C 234.00 50.57 255.03 53.00 274.28 60.45 C 282.89 62.65 290.50 67.39 298.19 71.67 C 303.52 74.58 308.63 77.91 313.35 81.74 C 314.83 78.00 315.64 74.00 315.24 69.97 C 314.63 63.23 313.68 56.35 310.76 50.17 C 304.25 35.33 290.81 23.09 274.65 20.02 C 262.53 16.93 249.47 18.89 238.28 24.25 M 373.45 31.65 C 358.31 37.10 344.58 45.66 331.40 54.74 C 331.69 57.96 332.39 61.12 332.78 64.33 C 334.12 71.07 332.91 77.93 332.11 84.65 C 331.59 88.42 329.56 91.90 329.46 95.72 C 331.19 98.53 333.87 100.60 335.92 103.17 C 344.90 113.89 352.48 125.89 357.96 138.77 C 359.04 137.49 360.00 136.12 360.86 134.68 C 369.38 119.37 379.54 105.03 390.01 91.00 C 408.74 66.39 430.54 44.17 454.54 24.67 C 454.18 23.55 452.87 23.68 451.96 23.44 C 448.68 22.80 445.36 22.50 442.02 22.47 C 435.33 22.58 428.67 20.88 422.01 22.19 C 405.41 22.28 388.99 25.96 373.45 31.65 M 459.84 43.79 C 447.47 53.69 436.51 65.19 425.52 76.56 C 403.41 100.49 384.75 127.52 369.50 156.30 C 367.99 159.24 365.55 162.28 366.75 165.80 C 372.89 190.89 371.11 217.49 363.29 242.00 C 362.18 245.45 360.49 248.80 360.23 252.45 C 370.97 258.66 377.83 270.29 380.22 282.26 C 380.99 284.89 379.53 288.44 381.98 290.33 C 386.78 290.68 391.60 290.11 396.40 290.59 C 396.66 288.38 397.22 286.22 397.33 284.01 C 397.38 275.23 399.08 266.57 400.41 257.93 C 405.23 232.84 413.56 208.35 425.80 185.90 C 435.00 168.38 445.72 151.59 458.33 136.33 C 461.85 131.34 469.91 131.83 472.86 137.14 C 475.75 140.65 474.36 145.51 471.54 148.57 C 454.44 169.88 440.42 193.68 430.35 219.09 C 422.85 239.00 416.85 259.71 415.40 281.03 C 415.29 284.14 415.44 287.27 414.90 290.36 C 452.26 290.46 489.63 290.38 527.00 290.40 C 531.76 290.45 536.60 290.10 541.29 291.22 C 543.03 291.40 545.23 292.48 546.57 290.77 C 550.92 286.64 554.64 281.89 558.04 276.96 C 568.87 261.84 577.43 244.95 582.18 226.91 C 593.36 189.11 589.56 147.18 572.14 111.84 C 566.14 100.12 559.45 88.48 550.21 78.98 C 531.75 90.42 514.20 103.45 498.60 118.60 C 496.34 120.87 494.06 123.38 490.87 124.31 C 488.07 124.99 485.33 123.51 483.12 121.93 C 479.83 119.51 479.65 114.51 481.21 111.09 C 484.89 106.52 489.44 102.70 493.64 98.61 C 506.40 87.88 519.19 77.00 533.54 68.42 C 535.01 67.44 536.55 66.51 537.74 65.18 C 520.69 49.16 500.18 36.94 477.99 29.56 C 471.39 33.50 465.68 38.82 459.84 43.79 M 139.63 103.57 C 115.97 125.50 101.44 156.82 99.37 188.95 C 99.20 196.64 99.04 204.36 99.71 212.03 C 101.69 225.34 104.74 238.70 110.74 250.83 C 117.56 247.14 125.17 244.65 133.00 245.19 C 151.07 244.08 168.70 256.27 174.98 273.08 C 177.35 278.54 178.87 284.43 178.51 290.42 C 214.36 290.39 250.21 290.40 286.05 290.41 C 290.75 280.77 294.14 270.32 300.60 261.65 C 307.37 253.17 317.26 247.32 327.90 245.27 C 332.95 244.17 338.16 244.71 343.28 244.79 C 351.41 224.18 354.38 201.41 351.09 179.47 C 346.17 142.29 323.85 107.55 291.40 88.51 C 283.27 83.37 274.56 79.12 265.31 76.39 C 252.33 72.14 238.70 69.68 225.00 70.26 C 193.52 69.28 162.72 82.58 139.63 103.57 M 86.63 123.88 C 68.93 127.76 53.85 141.20 47.24 157.98 C 43.89 166.19 44.09 175.21 44.52 183.90 C 47.33 199.32 56.15 214.11 70.02 221.97 C 74.68 224.36 79.42 227.69 84.89 227.41 C 80.69 218.15 81.62 207.79 80.57 197.92 C 81.18 189.13 81.02 180.16 83.34 171.59 C 85.43 162.72 86.68 153.58 90.37 145.17 C 93.15 137.67 97.65 130.93 100.12 123.31 C 95.62 123.36 91.07 123.05 86.63 123.88 M 128.51 263.04 C 119.90 264.72 112.38 270.69 108.73 278.65 C 103.21 290.75 97.77 302.88 92.21 314.96 C 90.24 319.00 90.13 323.57 90.30 327.99 C 90.35 335.17 94.26 341.83 99.50 346.52 C 107.46 353.80 119.96 355.00 129.48 350.26 C 134.62 347.32 139.08 342.91 141.62 337.52 C 147.11 325.76 152.48 313.94 157.88 302.13 C 161.14 295.61 161.32 287.75 159.01 280.91 C 155.11 268.56 141.12 260.61 128.51 263.04 M 328.42 263.75 C 322.20 265.52 316.50 269.43 313.03 274.94 C 310.95 278.17 309.58 281.77 308.05 285.28 C 303.91 294.61 299.52 303.84 295.24 313.11 C 291.29 321.15 291.24 331.22 295.84 339.02 C 300.76 348.77 312.30 354.50 323.05 352.79 C 329.06 352.20 334.69 349.19 338.93 344.95 C 343.62 340.18 345.71 333.68 348.53 327.77 C 352.84 318.64 356.80 309.35 360.94 300.14 C 363.15 295.51 362.71 290.21 362.41 285.25 C 361.37 278.69 357.43 272.80 352.40 268.58 C 345.71 263.52 336.55 261.36 328.42 263.75 M 64.19 312.05 C 57.10 315.16 51.20 320.61 46.85 326.96 C 43.02 332.54 41.42 339.20 39.18 345.50 C 32.60 363.98 26.41 382.60 19.85 401.09 C 17.46 407.17 17.30 414.57 21.00 420.18 C 24.25 425.64 30.67 428.81 36.95 428.61 C 56.98 428.61 77.00 428.60 97.03 428.60 C 103.26 428.41 108.81 436.44 105.08 441.91 C 103.26 445.03 99.85 447.63 96.07 447.28 C 82.51 447.25 68.94 447.20 55.37 447.30 C 55.44 482.54 55.36 517.79 55.41 553.03 C 55.42 564.64 63.39 575.49 74.14 579.62 C 79.43 582.07 85.35 581.45 91.00 581.52 C 157.34 581.52 223.68 581.49 290.01 581.53 C 299.77 582.10 309.52 577.15 315.32 569.38 C 319.54 563.53 321.64 556.21 321.35 549.02 C 321.28 489.58 321.34 430.14 321.32 370.70 C 319.16 370.72 316.99 370.56 314.86 370.93 C 313.32 373.57 312.63 376.59 311.63 379.45 C 308.54 388.53 305.22 397.54 302.37 406.70 C 299.49 415.73 295.00 424.49 288.09 431.11 C 278.61 440.54 265.54 446.88 252.00 446.64 C 212.32 446.66 172.63 446.66 132.96 446.64 C 126.17 447.15 121.96 438.70 125.31 433.16 C 127.02 430.66 129.85 428.57 132.98 428.61 C 172.66 428.59 212.35 428.63 252.03 428.60 C 265.70 428.53 278.41 419.13 283.35 406.53 C 287.50 395.36 291.15 384.02 295.01 372.75 C 295.76 370.37 297.04 368.00 296.74 365.43 C 294.63 363.45 292.11 361.98 289.96 360.04 C 282.10 353.17 277.03 343.45 274.93 333.29 C 273.65 324.93 274.54 316.33 277.66 308.46 C 245.44 308.26 213.21 308.47 180.99 308.36 C 178.99 308.36 176.98 308.30 175.00 308.58 C 173.13 310.96 172.07 313.82 170.83 316.55 C 166.85 325.91 162.54 335.14 158.32 344.40 C 153.80 354.23 145.77 362.34 136.02 367.02 C 127.97 371.02 118.77 371.22 110.01 370.48 C 97.14 368.43 85.55 360.49 78.69 349.47 C 74.20 341.80 71.77 332.89 72.28 323.98 C 72.12 318.62 74.21 313.59 74.91 308.35 C 71.31 309.52 67.64 310.49 64.19 312.05 M 377.43 308.51 C 376.37 309.53 375.79 310.93 375.15 312.23 C 369.40 325.22 363.53 338.18 357.48 351.01 C 358.42 355.14 360.66 358.86 361.81 362.94 C 364.94 373.22 368.17 383.49 372.20 393.46 C 374.66 401.71 377.19 410.35 383.18 416.84 C 389.49 424.35 399.22 428.54 408.99 428.49 C 462.32 428.48 515.66 428.47 569.00 428.49 C 574.11 428.36 579.80 429.32 584.29 426.28 C 588.91 423.02 593.14 418.33 593.69 412.47 C 594.77 404.78 590.21 397.98 588.45 390.76 C 583.78 377.35 579.29 363.87 574.43 350.52 C 571.74 342.99 570.09 334.98 565.92 328.06 C 559.35 318.06 548.90 310.32 536.91 308.53 C 530.62 308.09 524.30 308.50 518.00 308.37 C 471.15 308.47 424.27 308.18 377.43 308.51 M 338.96 366.88 C 338.38 369.88 338.77 372.96 338.70 376.00 C 338.71 434.67 338.70 493.33 338.70 551.99 C 339.34 562.71 334.70 572.66 329.12 581.48 C 394.08 581.60 459.04 581.47 524.00 581.54 C 527.23 581.51 530.52 581.68 533.70 580.93 C 547.29 578.31 558.30 564.99 557.49 551.02 C 557.44 516.21 557.50 481.39 557.46 446.58 C 508.31 446.75 459.16 446.60 410.01 446.66 C 389.24 447.34 368.82 434.06 360.88 414.87 C 354.53 398.47 348.94 381.77 343.44 365.07 C 341.80 365.24 340.23 365.82 338.96 366.88 Z" />
<path fill="#20dca5" opacity="1.00" d=" M 238.28 24.25 C 249.47 18.89 262.53 16.93 274.65 20.02 C 290.81 23.09 304.25 35.33 310.76 50.17 C 313.68 56.35 314.63 63.23 315.24 69.97 C 315.64 74.00 314.83 78.00 313.35 81.74 C 308.63 77.91 303.52 74.58 298.19 71.67 C 290.50 67.39 282.89 62.65 274.28 60.45 C 255.03 53.00 234.00 50.57 213.49 52.25 C 217.32 40.02 227.00 30.06 238.28 24.25 Z" />
<path fill="#1e479c" opacity="1.00" d=" M 251.56 110.79 C 254.55 110.18 258.38 109.79 260.59 112.38 C 263.46 115.28 265.32 118.97 267.53 122.36 C 268.90 124.73 270.75 127.12 270.66 130.00 C 270.90 133.66 268.14 136.99 265.00 138.52 C 261.99 138.96 258.39 139.24 256.00 136.97 C 253.40 134.45 251.84 131.12 249.89 128.13 C 248.25 125.30 245.89 122.48 246.28 118.99 C 245.88 115.37 248.66 112.47 251.56 110.79 Z" />
<path fill="#20dca5" opacity="1.00" d=" M 86.63 123.88 C 91.07 123.05 95.62 123.36 100.12 123.31 C 97.65 130.93 93.15 137.67 90.37 145.17 C 86.68 153.58 85.43 162.72 83.34 171.59 C 81.02 180.16 81.18 189.13 80.57 197.92 C 81.62 207.79 80.69 218.15 84.89 227.41 C 79.42 227.69 74.68 224.36 70.02 221.97 C 56.15 214.11 47.33 199.32 44.52 183.90 C 44.09 175.21 43.89 166.19 47.24 157.98 C 53.85 141.20 68.93 127.76 86.63 123.88 Z" />
<path fill="#1e479c" opacity="1.00" d=" M 226.69 154.37 C 227.66 149.84 232.22 146.15 236.89 146.55 C 239.40 147.14 241.90 148.43 243.36 150.63 C 247.32 157.04 248.60 165.23 245.59 172.29 C 242.02 182.77 230.84 189.52 219.91 188.38 C 216.99 195.64 210.87 201.72 203.31 203.98 C 196.16 205.65 188.08 204.57 182.41 199.61 C 179.07 196.55 174.53 193.13 175.27 187.99 C 174.72 181.38 183.83 176.78 188.89 181.09 C 191.62 182.87 193.23 187.00 196.99 186.59 C 200.34 187.00 202.60 183.76 203.48 180.94 C 202.94 177.28 200.48 173.94 201.32 170.09 C 201.71 165.45 206.69 162.55 211.05 163.29 C 216.25 163.20 217.95 169.99 223.02 170.36 C 225.97 170.04 228.24 167.55 229.37 164.95 C 229.61 161.22 225.95 158.21 226.69 154.37 Z" />
<path fill="#1e479c" opacity="1.00" d=" M 139.59 181.82 C 143.06 180.76 147.28 181.30 149.51 184.46 C 152.69 188.69 155.51 193.23 157.99 197.90 C 160.90 204.06 154.47 211.65 147.98 210.14 C 143.06 209.13 141.06 204.02 138.56 200.28 C 136.77 197.01 133.81 193.93 134.19 189.93 C 133.91 186.34 136.33 183.10 139.59 181.82 Z" />
<path fill="#20dca5" opacity="1.00" d=" M 377.43 308.51 C 424.27 308.18 471.15 308.47 518.00 308.37 C 524.30 308.50 530.62 308.09 536.91 308.53 C 548.90 310.32 559.35 318.06 565.92 328.06 C 570.09 334.98 571.74 342.99 574.43 350.52 C 579.29 363.87 583.78 377.35 588.45 390.76 C 590.21 397.98 594.77 404.78 593.69 412.47 C 593.14 418.33 588.91 423.02 584.29 426.28 C 579.80 429.32 574.11 428.36 569.00 428.49 C 515.66 428.47 462.32 428.48 408.99 428.49 C 399.22 428.54 389.49 424.35 383.18 416.84 C 377.19 410.35 374.66 401.71 372.20 393.46 C 368.17 383.49 364.94 373.22 361.81 362.94 C 360.66 358.86 358.42 355.14 357.48 351.01 C 363.53 338.18 369.40 325.22 375.15 312.23 C 375.79 310.93 376.37 309.53 377.43 308.51 Z" />
</svg>
