<?xml version="1.0" encoding="UTF-8" ?>
<!DOCTYPE svg PUBLIC "-//W3C//DTD SVG 1.1//EN" "http://www.w3.org/Graphics/SVG/1.1/DTD/svg11.dtd">
<svg width="582pt" height="582pt" viewBox="0 0 582 582" version="1.1" xmlns="http://www.w3.org/2000/svg">
<path fill="#1e479c" opacity="1.00" d=" M 283.61 0.00 L 298.33 0.00 C 310.86 2.50 323.13 7.60 332.37 16.64 C 347.09 31.25 361.75 45.93 376.36 60.64 C 379.52 63.39 382.10 68.23 386.92 67.66 C 409.29 67.58 431.67 67.64 454.05 67.61 C 469.61 67.64 485.19 73.69 496.16 84.83 C 507.90 95.88 514.19 111.95 514.38 127.95 C 514.39 150.66 514.37 173.37 514.37 196.08 C 514.15 197.88 515.12 199.42 516.36 200.62 C 532.37 216.63 548.49 232.54 564.35 248.70 C 575.14 259.41 581.64 274.28 582.00 289.49 L 582.00 299.23 C 580.09 305.96 578.36 312.83 574.98 319.02 C 570.48 327.74 563.20 334.50 556.40 341.40 C 543.36 354.34 530.48 367.45 517.36 380.32 C 515.87 381.86 514.04 383.54 514.37 385.92 C 514.30 395.61 514.45 405.30 514.39 414.99 C 514.57 418.71 512.60 422.57 509.04 424.01 C 503.74 426.52 496.87 421.98 497.35 416.08 C 497.28 369.98 497.42 323.87 497.29 277.76 C 485.67 267.10 475.16 255.27 463.51 244.65 C 463.11 311.75 463.43 378.88 463.35 445.99 C 463.15 450.84 464.43 456.72 460.59 460.53 C 458.22 463.19 454.27 463.04 451.09 462.33 C 447.00 460.76 446.39 456.06 445.17 452.43 C 430.64 467.34 415.78 481.91 401.10 496.66 C 404.03 497.12 407.00 497.40 409.98 497.37 C 424.33 497.29 438.67 497.36 453.02 497.34 C 464.40 497.33 476.04 493.33 484.12 485.13 C 491.58 478.09 496.17 468.20 497.03 458.00 C 497.40 454.78 497.16 451.53 497.57 448.32 C 498.23 444.74 501.62 442.13 505.13 441.67 C 510.06 441.46 514.49 445.99 514.38 450.90 C 514.71 463.90 511.30 477.14 503.94 487.94 C 496.60 498.51 486.03 506.95 473.76 511.03 C 467.08 513.19 460.06 514.41 453.03 514.39 C 430.66 514.37 408.29 514.38 385.91 514.37 C 383.55 514.06 381.86 515.87 380.32 517.34 C 365.11 532.81 349.66 548.03 334.39 563.43 C 327.94 569.87 320.23 575.17 311.63 578.29 C 308.37 579.44 305.10 580.57 301.94 582.00 L 280.26 582.00 C 274.58 579.47 268.48 577.93 262.99 574.96 C 255.11 570.94 248.84 564.54 242.62 558.38 C 229.84 545.50 216.89 532.77 204.17 519.83 C 201.76 517.71 199.70 514.17 196.08 514.37 C 173.71 514.38 151.34 514.37 128.97 514.39 C 112.91 514.39 96.59 508.34 85.38 496.65 C 73.88 485.69 67.68 469.83 67.61 454.05 C 67.62 431.34 67.62 408.63 67.63 385.92 C 67.95 383.54 66.16 381.84 64.66 380.30 C 50.71 366.60 36.99 352.66 23.12 338.88 C 17.13 332.82 10.94 326.69 7.02 319.02 C 4.05 313.59 2.60 307.53 0.00 301.95 L 0.00 280.36 C 2.33 275.10 3.73 269.46 6.34 264.32 C 9.77 257.19 14.99 251.11 20.58 245.58 C 35.14 231.13 49.53 216.51 64.18 202.15 C 65.74 200.43 67.96 198.70 67.63 196.10 C 67.73 186.10 67.48 176.09 67.66 166.09 C 67.63 162.38 70.09 158.83 73.66 157.71 C 78.91 155.82 85.08 160.31 84.65 165.92 C 84.72 212.02 84.57 258.12 84.72 304.22 C 96.33 314.89 106.86 326.69 118.49 337.34 C 118.86 330.23 118.60 323.11 118.67 316.00 C 118.65 255.33 118.71 194.66 118.64 133.99 C 118.68 129.76 118.02 124.69 121.40 121.47 C 123.76 118.80 127.73 118.95 130.91 119.68 C 134.86 121.19 135.60 125.76 136.87 129.27 C 151.58 114.66 166.19 99.96 180.86 85.32 C 177.60 84.79 174.30 84.57 171.00 84.63 C 156.65 84.72 142.31 84.60 127.96 84.68 C 116.42 84.83 104.79 89.33 96.86 97.87 C 88.35 106.20 84.44 118.31 84.68 130.06 C 85.07 133.86 83.44 138.15 79.55 139.43 C 76.47 139.96 72.61 140.30 70.36 137.66 C 66.45 133.85 67.63 127.89 67.90 123.02 C 69.12 108.69 75.30 94.72 85.84 84.83 C 96.83 73.71 112.39 67.65 127.95 67.61 C 150.66 67.62 173.38 67.62 196.09 67.63 C 198.45 67.95 200.10 66.07 201.65 64.62 C 216.21 49.85 230.97 35.30 245.58 20.58 C 250.96 15.12 256.88 10.05 263.79 6.63 C 270.01 3.39 276.85 1.66 283.61 0.00 M 267.88 23.88 C 262.12 27.66 257.51 32.84 252.64 37.64 C 213.64 76.58 174.73 115.60 135.71 154.51 C 135.62 170.24 135.84 185.97 135.59 201.69 C 136.06 201.63 137.01 201.51 137.48 201.45 C 157.03 181.35 177.08 161.74 196.84 141.84 C 226.00 112.66 255.19 83.51 284.34 54.31 C 286.10 52.50 288.33 50.94 291.00 51.33 C 295.09 50.79 298.39 54.35 299.44 57.98 C 300.29 61.70 297.60 64.70 295.82 67.64 C 316.76 67.57 337.69 67.70 358.63 67.57 C 357.27 65.87 355.93 64.15 354.41 62.60 C 343.67 52.00 333.06 41.28 322.37 30.62 C 318.18 26.53 313.43 22.90 307.98 20.65 C 295.19 15.03 279.60 16.22 267.88 23.88 M 273.90 88.90 C 264.26 98.87 254.10 108.33 244.65 118.49 C 259.42 118.90 274.22 118.55 289.00 118.67 C 344.00 118.67 399.01 118.66 454.02 118.67 C 456.69 118.67 459.29 119.95 461.04 121.96 C 463.34 124.31 462.86 127.99 462.35 130.94 C 460.71 135.01 456.04 135.67 452.35 136.76 C 467.57 151.31 481.95 166.76 497.29 181.18 C 497.42 164.12 497.28 147.06 497.35 130.01 C 497.75 117.80 493.13 105.26 484.13 96.87 C 476.30 88.89 465.07 84.81 454.00 84.66 C 396.31 84.65 338.62 84.69 280.93 84.65 C 277.81 84.21 275.90 87.04 273.90 88.90 M 226.79 135.75 C 215.45 147.75 203.48 159.13 191.91 170.91 C 173.14 189.49 154.74 208.45 135.75 226.79 C 135.67 269.60 135.67 312.40 135.75 355.21 C 151.91 370.72 167.48 386.84 183.41 402.59 C 197.82 417.19 212.61 431.43 226.79 446.25 C 269.60 446.34 312.41 446.33 355.21 446.25 C 373.92 426.95 393.18 408.19 412.11 389.11 C 423.52 377.85 434.62 366.26 446.26 355.22 C 446.33 312.41 446.33 269.59 446.26 226.77 C 430.11 211.25 414.53 195.14 398.61 179.39 C 384.18 164.81 369.42 150.54 355.22 135.75 C 312.41 135.67 269.60 135.66 226.79 135.75 M 380.30 135.60 C 380.36 136.07 380.49 137.02 380.55 137.49 C 386.13 142.56 391.33 148.02 396.68 153.32 C 440.35 197.00 484.03 240.66 527.68 284.35 C 532.17 287.91 531.67 295.72 526.49 298.39 C 522.46 301.21 517.83 298.45 514.40 296.06 C 514.44 316.85 514.21 337.65 514.52 358.43 C 519.32 354.63 523.31 349.95 527.71 345.72 C 536.65 336.67 545.81 327.83 554.62 318.65 C 568.97 302.80 567.96 276.16 552.83 261.15 C 511.11 219.27 469.24 177.54 427.46 135.72 C 411.74 135.61 396.02 135.84 380.30 135.60 M 39.63 250.63 C 33.74 256.76 26.96 262.28 22.71 269.77 C 19.36 275.95 17.03 282.89 17.26 290.00 C 16.58 301.85 21.82 313.56 30.13 321.86 C 71.61 363.33 113.08 404.79 154.54 446.28 C 170.44 446.32 186.34 446.31 202.23 446.29 C 198.81 441.28 194.01 437.49 189.89 433.11 C 144.55 387.78 99.22 342.44 53.88 297.11 C 49.48 293.35 50.80 285.53 56.11 283.25 C 60.19 280.91 64.41 283.84 67.62 286.27 C 67.61 265.16 67.65 244.05 67.60 222.93 C 58.00 231.88 48.99 241.44 39.63 250.63 M 442.12 383.10 C 393.99 431.31 345.77 479.44 297.62 527.64 C 294.02 532.15 286.37 531.59 283.58 526.49 C 280.84 522.56 283.60 518.01 285.53 514.44 C 264.88 514.40 244.22 514.22 223.58 514.53 C 224.89 516.16 226.30 517.74 227.76 519.26 C 239.00 530.32 250.10 541.55 261.29 552.67 C 269.00 560.50 279.95 565.23 291.00 564.74 C 302.59 565.32 313.76 559.93 321.87 551.88 C 363.28 510.32 404.76 468.83 446.30 427.41 C 446.29 411.54 446.32 395.66 446.29 379.79 C 444.87 380.85 443.42 381.89 442.12 383.10 M 84.71 400.82 C 84.60 418.90 84.68 436.98 84.67 455.06 C 84.77 472.55 96.81 489.11 113.34 494.75 C 121.81 498.23 131.08 497.21 140.00 497.34 C 194.75 497.30 249.50 497.42 304.24 497.28 C 314.87 485.63 326.68 475.10 337.36 463.51 C 330.25 463.12 323.12 463.42 316.00 463.33 C 253.33 463.33 190.65 463.34 127.98 463.33 C 125.31 463.31 122.70 462.05 120.96 460.04 C 118.63 457.70 119.15 454.01 119.64 451.06 C 121.28 446.97 125.96 446.32 129.66 445.25 C 115.67 431.59 101.93 417.68 88.15 403.81 C 87.03 402.77 85.86 401.80 84.71 400.82 Z" />
<path fill="#1e479c" opacity="1.00" d=" M 275.46 153.75 C 284.95 153.02 294.49 153.25 304.00 153.52 C 331.61 156.30 358.46 167.37 379.62 185.41 C 407.54 208.41 425.31 242.99 428.53 278.95 C 428.77 287.59 428.85 296.25 428.41 304.89 C 426.06 324.74 419.99 344.28 409.57 361.42 C 389.58 395.47 354.24 420.00 315.35 426.85 C 303.05 429.42 290.42 428.72 277.95 428.48 C 250.84 425.72 224.43 415.00 203.48 397.51 C 174.79 374.23 156.15 338.92 153.43 302.05 C 153.23 294.02 153.20 285.98 153.51 277.95 C 156.31 250.83 166.96 224.44 184.45 203.45 C 203.78 179.86 231.10 162.85 260.93 156.30 C 265.75 155.33 270.60 154.52 275.46 153.75 M 276.47 170.73 C 260.29 172.82 244.53 178.25 230.42 186.43 C 203.35 202.05 182.61 228.53 174.54 258.79 C 172.20 266.30 170.55 274.07 170.39 281.96 C 169.97 295.38 169.98 309.05 174.05 321.99 C 183.00 355.81 207.30 385.15 238.95 400.08 C 254.24 407.23 271.00 412.07 288.00 411.73 C 299.07 411.93 310.32 411.56 320.94 408.09 C 342.07 402.75 361.69 391.53 376.92 375.93 C 395.57 357.32 407.53 332.38 411.16 306.35 C 411.99 297.59 411.80 288.76 411.52 279.97 C 411.19 270.79 408.40 261.97 405.80 253.24 C 393.21 213.57 358.46 182.19 317.96 173.00 C 304.44 169.45 290.30 170.02 276.47 170.73 Z" />
<path fill="#20dca5" opacity="1.00" d=" M 276.47 170.73 C 290.30 170.02 304.44 169.45 317.96 173.00 C 358.46 182.19 393.21 213.57 405.80 253.24 C 408.40 261.97 411.19 270.79 411.52 279.97 C 411.80 288.76 411.99 297.59 411.16 306.35 C 407.53 332.38 395.57 357.32 376.92 375.93 C 361.69 391.53 342.07 402.75 320.94 408.09 C 310.32 411.56 299.07 411.93 288.00 411.73 C 271.00 412.07 254.24 407.23 238.95 400.08 C 207.30 385.15 183.00 355.81 174.05 321.99 C 169.98 309.05 169.97 295.38 170.39 281.96 C 170.55 274.07 172.20 266.30 174.54 258.79 C 182.61 228.53 203.35 202.05 230.42 186.43 C 244.53 178.25 260.29 172.82 276.47 170.73 M 278.44 204.81 C 260.74 207.43 244.22 216.07 231.01 228.00 C 219.18 239.49 210.77 254.36 206.46 270.24 C 203.63 280.23 204.29 290.72 204.52 300.98 C 207.35 321.11 216.68 340.45 231.52 354.47 C 242.39 364.14 255.39 371.52 269.45 375.33 C 280.25 378.43 291.64 377.86 302.73 377.30 C 313.68 375.21 324.61 372.02 334.23 366.24 C 341.57 361.83 348.62 356.76 354.48 350.47 C 363.80 340.05 370.87 327.59 374.83 314.18 C 377.96 303.45 378.11 292.17 377.38 281.10 C 375.27 261.73 365.93 243.47 352.52 229.48 C 341.75 219.31 328.72 211.15 314.28 207.45 C 308.97 205.97 303.61 204.33 298.04 204.39 C 291.51 204.34 284.94 204.08 278.44 204.81 Z" />
<path fill="#1e479c" opacity="1.00" d=" M 278.44 204.81 C 284.94 204.08 291.51 204.34 298.04 204.39 C 303.61 204.33 308.97 205.97 314.28 207.45 C 328.72 211.15 341.75 219.31 352.52 229.48 C 365.93 243.47 375.27 261.73 377.38 281.10 C 378.11 292.17 377.96 303.45 374.83 314.18 C 370.87 327.59 363.80 340.05 354.48 350.47 C 348.62 356.76 341.57 361.83 334.23 366.24 C 324.61 372.02 313.68 375.21 302.73 377.30 C 291.64 377.86 280.25 378.43 269.45 375.33 C 255.39 371.52 242.39 364.14 231.52 354.47 C 216.68 340.45 207.35 321.11 204.52 300.98 C 204.29 290.72 203.63 280.23 206.46 270.24 C 210.77 254.36 219.18 239.49 231.01 228.00 C 244.22 216.07 260.74 207.43 278.44 204.81 M 280.47 221.86 C 265.48 224.38 251.19 231.63 240.82 242.82 C 222.47 261.04 216.32 290.14 225.33 314.32 C 233.97 339.19 257.72 358.03 283.96 360.50 C 290.96 360.57 298.10 361.15 304.96 359.42 C 326.43 355.12 345.27 339.92 354.34 320.04 C 361.68 304.29 362.83 285.74 357.23 269.27 C 350.22 247.76 332.15 230.04 310.32 223.90 C 300.69 220.82 290.42 220.96 280.47 221.86 Z" />
</svg>
