<svg width="28" height="25" viewBox="0 0 28 25" fill="none" xmlns="http://www.w3.org/2000/svg">
<path d="M7.18609 3.53721L6.9892 3.50029C5.289 3.18151 3.31334 3.27352 2.18811 4.67354C1.1729 5.96099 1.08768 7.52187 1.17297 9.17513C1.19032 9.51158 1.21502 9.8553 1.23985 10.2008C1.27521 10.6929 1.31083 11.1887 1.32585 11.672C1.35125 12.4895 1.31969 13.3003 1.13032 14.0712C1.36571 15.0479 1.30011 16.0793 1.23643 17.0808C1.22338 17.2859 1.21042 17.4897 1.20014 17.6915C1.13838 18.9041 1.17045 20.0571 1.7959 21.0854C2.46973 22.1911 3.65878 23.0071 4.95794 23.0823L4.96101 23.0825L4.961 23.0825C7.21991 23.2612 9.46858 23.608 11.6748 24.1407L11.6765 24.1412C13.3762 24.574 15.1832 24.6157 16.8898 24.1979L16.891 24.1976C19.1602 23.6615 21.4694 23.2897 23.797 23.1145L23.8014 23.1142L23.8014 23.1143C25.8059 23.025 27.5819 21.2099 27.5994 19.2045C27.5994 19.2042 27.5994 19.204 27.5994 19.2038L27.7449 19.205C27.7449 18.0982 27.7457 16.9914 27.7465 15.8846C27.7486 12.9335 27.7507 9.98291 27.7378 7.0342L7.18609 3.53721ZM7.18609 3.53721L7.16028 3.33856C7.04864 2.47927 7.36028 1.59789 7.92947 0.981091C8.49597 0.367207 9.30913 0.0231783 10.206 0.213733C12.4024 0.815741 14.018 2.70706 15.0752 4.68709L15.1289 4.78774L15.2395 4.75953C18.042 4.04468 20.8949 3.47736 23.7801 3.3531C25.7771 3.32348 27.526 5.04848 27.5923 7.03694L7.18609 3.53721ZM3.49646 19.4405C3.49664 20.1477 4.05834 20.7661 4.77879 20.7968L4.87679 20.8068C7.55038 21.0815 10.2424 21.3581 12.7906 22.1585L12.9371 21.9169C12.6706 21.6504 12.4092 21.3682 12.143 21.0809L12.1104 21.0456C11.8336 20.7469 11.5516 20.4434 11.2571 20.1518C10.6682 19.5687 10.0235 19.0271 9.25281 18.6537L9.25287 18.6536L9.24719 18.6511C8.16655 18.1831 7.28664 17.1919 7.19351 16.0064C7.17792 14.163 7.18051 12.3216 7.18309 10.479C7.18523 8.95907 7.18736 7.4383 7.1793 5.91469L7.17863 5.78733L7.0523 5.77115C6.93157 5.75569 6.80175 5.7364 6.66574 5.71619C6.16314 5.64151 5.57599 5.55427 5.05057 5.60131C4.7124 5.63159 4.38505 5.71782 4.11127 5.90699C3.83456 6.09819 3.62405 6.38666 3.50894 6.79914L3.50376 6.81772L3.50359 6.83701C3.46796 11.0386 3.48221 15.24 3.49646 19.4403L3.49646 19.4405ZM3.49646 19.4405C3.49646 19.4404 3.49646 19.4403 3.49646 19.4402H3.64195M3.49646 19.4405L3.49646 19.4407L3.64195 19.4402M3.64195 19.4402C3.6277 15.2395 3.61345 11.0389 3.64907 6.83825L12.5424 21.9305C10.0669 21.1938 7.4661 20.9266 4.89833 20.6628L4.7892 20.6516C4.14788 20.6266 3.64195 20.0744 3.64195 19.4402ZM9.14968 2.56859L9.13307 2.85272L9.42902 2.93391C9.43328 4.33898 9.43265 5.74634 9.43202 7.15473C9.43068 10.1502 9.42934 13.1504 9.47501 16.1432L9.47639 16.2332L9.55762 16.2722C12.0856 17.4833 14.1646 19.5723 15.419 22.0777L15.4696 22.1788L15.58 22.1548C18.3632 21.5497 21.1618 21.0279 24.0007 20.8325C24.6979 20.8075 25.2902 20.2648 25.346 19.5585L25.3464 19.5586L25.3465 19.5481C25.3591 17.7575 25.3564 15.9705 25.3538 14.1846C25.3504 11.9154 25.347 9.64791 25.3749 7.37694C25.4162 6.93458 25.2538 6.48513 24.9717 6.14924C24.6877 5.81109 24.272 5.57628 23.8006 5.58831L23.8006 5.58821L23.7953 5.58855C21.0369 5.76027 18.3048 6.25749 15.6453 7.00098L15.5428 7.02964L15.5391 7.13602C15.5247 7.54972 15.5282 7.96404 15.5316 8.37477C15.532 8.42418 15.5324 8.47354 15.5328 8.52284C15.5363 8.97981 15.5372 9.43259 15.5114 9.8835C15.4079 10.3779 14.9709 10.6659 14.4928 10.701C14.0149 10.736 13.5438 10.515 13.374 10.0385C13.257 9.44338 13.2742 8.82573 13.2918 8.19005C13.2979 7.97017 13.3041 7.74813 13.3048 7.52411C13.3075 6.66172 13.2261 5.78828 12.6985 5.00432C12.3074 4.41768 11.8442 3.74793 11.2727 3.25676C10.6973 2.7622 10.0006 2.43914 9.14968 2.56859Z" fill="white" stroke="#02BDA9" stroke-width="0.290969"/>
</svg>
