<svg width="30" height="30" viewBox="0 0 30 30" fill="none" xmlns="http://www.w3.org/2000/svg">
<mask id="mask0_288_4423" style="mask-type:luminance" maskUnits="userSpaceOnUse" x="0" y="0" width="30" height="30">
<path d="M29.8943 0.0302734H0.724609V29.8783H29.8943V0.0302734Z" fill="white"/>
</mask>
<g mask="url(#mask0_288_4423)">
<path d="M29.6729 9.7986L29.6699 9.79647C28.7556 9.23664 27.7422 8.85145 26.6828 8.66108C26.183 8.5446 25.6111 8.43282 24.9573 8.32956C24.1342 8.19857 23.1812 8.08123 22.0781 7.98566C22.0275 7.98096 21.9758 7.9767 21.9248 7.97244C21.701 7.45231 21.4701 6.9211 21.2247 6.36174C21.0943 6.06306 20.9699 5.76097 20.8386 5.44139C20.823 5.40299 20.807 5.3646 20.7909 5.32618C20.3473 4.0892 19.7164 2.92531 18.9194 1.87397C18.4989 1.31803 17.9557 0.863264 17.3308 0.543908C16.7058 0.224552 16.0155 0.0489324 15.3116 0.0302734C14.6078 0.0488834 13.9173 0.224481 13.2925 0.543841C12.6675 0.863201 12.1243 1.31799 11.7038 1.87397C10.9074 2.92462 10.2766 4.08762 9.83275 5.32364C9.81628 5.36288 9.80024 5.40215 9.7842 5.44139C9.65287 5.76097 9.52893 6.06306 9.39803 6.36174C9.15271 6.9211 8.92214 7.45231 8.69849 7.97244C8.64692 7.97669 8.59578 7.98094 8.54506 7.98566C7.43984 8.08166 6.48504 8.199 5.66068 8.3304C5.00923 8.43324 4.43977 8.54502 3.94084 8.66108C2.88152 8.85145 1.86813 9.23664 0.953718 9.79647L0.94636 9.80115C0.867581 9.85755 0.80582 9.93392 0.767656 10.0222C0.729491 10.1104 0.716355 10.2071 0.729644 10.3021L0.87397 11.3624C1.09414 12.9496 1.32862 14.8129 1.71481 16.7334C2.00022 18.2126 2.39925 19.6683 2.90845 21.0881C3.11432 21.6466 3.3423 22.1957 3.59715 22.7295C4.68673 24.8921 6.37217 26.7094 8.46098 27.974C10.5498 29.2386 12.9578 29.8993 15.4098 29.8808C17.8619 29.8623 20.2593 29.1652 22.3281 27.8693C24.397 26.5734 26.054 24.7308 27.1098 22.552C27.3069 22.1258 27.4888 21.6912 27.655 21.2485C28.6761 18.2045 29.3548 15.0594 29.679 11.8697L29.8898 10.2974C29.9028 10.2028 29.8895 10.1064 29.8514 10.0186C29.8132 9.93072 29.7516 9.8547 29.6729 9.7986ZM15.3116 7.73008C13.955 7.73008 12.7219 7.7544 11.6015 7.79835C11.6622 7.65882 11.7233 7.51888 11.7857 7.37594C11.9284 7.05039 12.064 6.72014 12.1953 6.40099C12.4695 5.68641 12.7906 4.99018 13.1566 4.31671C13.3229 4.02421 13.5132 3.74566 13.7258 3.48383C13.9094 3.23152 14.1461 3.02113 14.4198 2.86696C14.6935 2.71278 14.9976 2.61845 15.3116 2.59038C15.6256 2.61851 15.9298 2.71287 16.2034 2.86703C16.4771 3.0212 16.7138 3.23156 16.8975 3.48383C17.1101 3.74596 17.3004 4.0248 17.4665 4.31756C17.8326 4.99079 18.1537 5.68675 18.4279 6.40101C18.5588 6.72016 18.6945 7.05041 18.8375 7.37596C18.8999 7.5189 18.961 7.65888 19.0216 7.79837C17.9013 7.75436 16.6683 7.73008 15.3116 7.73008Z" fill="#96FFF0"/>
</g>
</svg>
