<svg width="37" height="38" viewBox="0 0 37 38" fill="none" xmlns="http://www.w3.org/2000/svg">
<mask id="mask0_311_1712" style="mask-type:luminance" maskUnits="userSpaceOnUse" x="0" y="0" width="37" height="38">
<path d="M36.3228 0H0V37.1675H36.3228V0Z" fill="white"/>
</mask>
<g mask="url(#mask0_311_1712)">
<path d="M36.0472 12.1638L36.0434 12.1611C34.9049 11.464 33.643 10.9844 32.3238 10.7473C31.7015 10.6023 30.9893 10.4631 30.1752 10.3345C29.1503 10.1714 27.9636 10.0253 26.59 9.90625C26.5269 9.9004 26.4625 9.8951 26.399 9.88979C26.1203 9.24211 25.8328 8.58064 25.5272 7.8841C25.3648 7.51218 25.21 7.13601 25.0464 6.73806C25.027 6.69025 25.0071 6.64244 24.9871 6.59461C24.4347 5.05427 23.649 3.60497 22.6567 2.29582C22.133 1.60355 21.4566 1.03726 20.6784 0.639591C19.9002 0.24192 19.0406 0.0232347 18.1641 0C17.2877 0.0231737 16.4279 0.241832 15.6498 0.639508C14.8716 1.03718 14.1952 1.6035 13.6716 2.29582C12.6798 3.60412 11.8943 5.05231 11.3417 6.59143C11.3212 6.64031 11.3012 6.6892 11.2812 6.73806C11.1177 7.13601 10.9634 7.51218 10.8004 7.8841C10.4949 8.58064 10.2078 9.24211 9.92928 9.88979C9.86507 9.89508 9.80138 9.90038 9.73823 9.90625C8.36198 10.0258 7.17303 10.1719 6.14652 10.3355C5.33532 10.4636 4.62621 10.6028 4.00494 10.7473C2.68585 10.9844 1.42394 11.464 0.285292 12.1611L0.276129 12.167C0.178032 12.2372 0.101125 12.3323 0.0536024 12.4421C0.0060792 12.552 -0.0102792 12.6725 0.00626977 12.7908L0.185988 14.1111C0.460154 16.0875 0.752132 18.4077 1.23302 20.7991C1.58843 22.6411 2.08531 24.4538 2.71937 26.2217C2.97573 26.9172 3.25961 27.6009 3.57697 28.2656C4.93373 30.9586 7.03249 33.2216 9.63352 34.7963C12.2346 36.3709 15.233 37.1937 18.2864 37.1706C21.3398 37.1476 24.3251 36.2795 26.9013 34.6659C29.4775 33.0522 31.5408 30.7577 32.8555 28.0446C33.101 27.5139 33.3274 26.9728 33.5344 26.4215C34.8059 22.631 35.651 18.7146 36.0548 14.7428L36.3172 12.7849C36.3334 12.6671 36.3169 12.547 36.2694 12.4377C36.2219 12.3283 36.1451 12.2336 36.0472 12.1638ZM18.1641 9.588C16.4748 9.588 14.9394 9.61828 13.5442 9.67301C13.6198 9.49926 13.6959 9.32501 13.7736 9.14701C13.9512 8.74164 14.1201 8.33039 14.2836 7.93298C14.625 7.04317 15.0249 6.17621 15.4806 5.33758C15.6877 4.97336 15.9247 4.62649 16.1894 4.30046C16.4181 3.98628 16.7127 3.7243 17.0536 3.53231C17.3944 3.34032 17.7731 3.22286 18.1641 3.18791C18.5551 3.22294 18.9339 3.34043 19.2746 3.5324C19.6154 3.72437 19.9102 3.98633 20.1389 4.30046C20.4036 4.62686 20.6406 4.97409 20.8475 5.33864C21.3033 6.17697 21.7032 7.04359 22.0446 7.93301C22.2076 8.33042 22.3765 8.74165 22.5547 9.14704C22.6323 9.32503 22.7084 9.49934 22.7839 9.67304C21.3888 9.61823 19.8535 9.588 18.1641 9.588Z" fill="#AFB9C5"/>
</g>
</svg>
