<svg width="138" height="138" viewBox="0 0 138 138" fill="none" xmlns="http://www.w3.org/2000/svg">
<ellipse cx="69" cy="69" rx="68.5" ry="69" fill="url(#paint0_linear_288_3904)"/>
<mask id="mask0_288_3904" style="mask-type:alpha" maskUnits="userSpaceOnUse" x="0" y="0" width="138" height="138">
<ellipse cx="69" cy="69" rx="68.5" ry="69" fill="url(#paint1_radial_288_3904)"/>
</mask>
<g mask="url(#mask0_288_3904)">
<path d="M97.458 213.172H96.5869V248H97.458V213.172Z" fill="#331E9C"/>
<path d="M78.2915 213.172H77.4204V248H78.2915V213.172Z" fill="#331E9C"/>
<path fill-rule="evenodd" clip-rule="evenodd" d="M80.9033 70.3776L48.4538 14.2176V34.4613C48.4538 37.5088 49.9782 40.1209 52.3738 41.4269C51.7205 41.8623 51.2849 42.5154 50.8494 43.386C48.4538 47.3042 49.9782 52.5283 53.8983 54.705L80.9033 70.3776Z" fill="#7269F2"/>
<path fill-rule="evenodd" clip-rule="evenodd" d="M80.9033 70.3776L48.4538 14.2176V34.4613C48.4538 37.5088 49.9782 40.1209 52.3738 41.4269C51.7205 41.8623 51.2849 42.5154 50.8494 43.386C48.4538 47.3042 49.9782 52.5283 53.8983 54.705L80.9033 70.3776Z" fill="#49BECD"/>
<path fill-rule="evenodd" clip-rule="evenodd" d="M99.8503 212.084C100.068 212.084 100.286 211.866 100.504 211.866C100.504 211.866 100.068 211.866 99.8503 212.084ZM98.3258 212.519C98.5436 212.519 98.7613 212.301 98.9791 212.301C98.7613 212.519 98.5436 212.519 98.3258 212.519ZM31.0312 151.135L58.0362 197.935C66.3119 212.084 83.2989 217.961 98.3258 212.737C97.6725 212.954 97.2369 213.172 96.5835 213.39V231.457L115.966 198.153C113.135 203.159 108.997 207.295 103.77 210.342C119.668 201.2 125.331 180.739 115.966 164.631L75.0231 93.6688C72.6275 89.7506 74.152 84.5264 78.0721 82.3497C81.3388 80.3906 85.2589 81.0436 87.8723 83.438H88.09V83.2204L80.9033 70.5953C77.4187 64.7181 70.0142 62.759 64.134 66.0241C60.214 68.2008 58.0362 72.3367 58.0362 76.6902V144.169C58.0362 149.176 55.4228 153.965 50.8494 156.794C43.8804 160.495 35.1691 158.1 31.0312 151.135Z" fill="#7269F2"/>
<path fill-rule="evenodd" clip-rule="evenodd" d="M-115.535 214.696H47.1482C34.9524 214.696 24.2811 211.866 13.8275 205.771L-101.161 139.38C-113.139 161.583 -118.802 187.704 -115.535 214.696Z" fill="#3CDBC0"/>
<path fill-rule="evenodd" clip-rule="evenodd" d="M-115.535 214.696H47.1482C34.9524 214.696 24.2811 211.866 13.8275 205.771L-101.161 139.38C-113.139 161.583 -118.802 187.704 -115.535 214.696Z" fill="#6485E6"/>
<path fill-rule="evenodd" clip-rule="evenodd" d="M-115.535 214.696L-105.951 197.935C-102.031 190.969 -93.1018 188.575 -86.1328 192.711L-82.8661 194.67C-77.6393 185.527 -65.6613 182.262 -56.5145 187.704L-9.47362 214.913H-115.533L-115.535 214.696Z" fill="#7269F2"/>
<path fill-rule="evenodd" clip-rule="evenodd" d="M-115.535 214.696L-105.951 197.935C-102.031 190.969 -93.1018 188.575 -86.1328 192.711L-82.8661 194.67C-77.6393 185.527 -65.6613 182.262 -56.5145 187.704L-9.47362 214.913H-115.533L-115.535 214.696Z" fill="#7269F2"/>
<path fill-rule="evenodd" clip-rule="evenodd" d="M-115.535 214.696L-105.951 197.935C-102.031 190.969 -93.1018 188.575 -86.1328 192.711L-82.8661 194.67C-77.6393 185.527 -65.6613 182.262 -56.5145 187.704L-9.47362 214.913H-115.533L-115.535 214.696Z" fill="#AE90FB"/>
<path fill-rule="evenodd" clip-rule="evenodd" d="M-144.5 114.348L13.6095 205.553C24.2809 211.648 34.7344 214.478 46.9301 214.478H85.9131C74.8062 214.26 63.9171 208.166 57.8192 197.717L-48.2405 14C-95.9347 24.8837 -135.135 63.1944 -144.5 114.348Z" fill="#61E0CB"/>
<path fill-rule="evenodd" clip-rule="evenodd" d="M-144.5 114.348L-121.633 101.287C-113.357 96.4985 -102.686 99.3283 -97.8947 107.6L-95.4991 111.518C-84.3922 105.206 -70.2364 108.906 -63.9208 120.007L-28.6401 181.174L-144.5 114.348Z" fill="#7269F2"/>
<path fill-rule="evenodd" clip-rule="evenodd" d="M-144.5 114.348L-121.633 101.287C-113.357 96.4985 -102.686 99.3283 -97.8947 107.6L-95.4991 111.518C-84.3922 105.206 -70.2364 108.906 -63.9208 120.007L-28.6401 181.174L-144.5 114.348Z" fill="#6485E6"/>
<path fill-rule="evenodd" clip-rule="evenodd" d="M-144.5 114.348L-121.633 101.287C-113.357 96.4985 -102.686 99.3283 -97.8947 107.6L-95.4991 111.518C-84.3922 105.206 -70.2364 108.906 -63.9208 120.007L-28.6401 181.174L-144.5 114.348Z" fill="#AE90FB"/>
<path fill-rule="evenodd" clip-rule="evenodd" d="M77.4204 231.239V213.172C80.4694 214.043 83.7361 214.696 87.0028 214.478L77.4204 231.239Z" fill="#7269F2"/>
<path fill-rule="evenodd" clip-rule="evenodd" d="M31.0312 151.135L58.0362 197.935C67.183 213.825 87.6545 219.485 103.77 210.125C119.668 200.982 125.331 180.521 115.966 164.413L75.0231 93.4512C72.6275 89.5331 74.152 84.3088 78.0721 82.1321C81.3388 80.173 85.2589 80.826 87.8723 83.2205L88.09 83.2204V83.0027L80.9033 70.3776C77.4187 64.5004 70.0142 62.5414 64.134 65.8065C60.214 67.9833 58.0362 72.119 58.0362 76.4725V143.952C58.0362 148.958 55.4228 153.747 50.8494 156.577C43.8804 160.495 35.1691 158.1 31.0312 151.135Z" fill="#AE90FB"/>
<path fill-rule="evenodd" clip-rule="evenodd" d="M67.8396 78.214L52.8126 69.507C52.8126 69.507 52.5948 69.2892 52.8126 69.2892C52.8126 69.2892 52.8126 69.0716 53.0304 69.0716H70.2352C72.8485 69.0716 75.0263 71.2484 75.0263 73.8605C75.0263 76.4726 72.8485 78.6492 70.2352 78.6492C69.364 78.8669 68.7107 78.6493 67.8396 78.214Z" fill="#4C2EBD"/>
<path fill-rule="evenodd" clip-rule="evenodd" d="M70.2328 71.6837C71.5395 71.6837 72.6284 72.772 72.6284 74.0781C72.6284 75.3841 71.5395 76.4725 70.2328 76.4725C68.9261 76.4725 67.8372 75.3841 67.8372 74.0781C67.8372 72.772 68.9261 71.6837 70.2328 71.6837Z" fill="white"/>
<path fill-rule="evenodd" clip-rule="evenodd" d="M96.5835 213.172C81.9922 217.526 65.8763 211.648 58.0362 197.935L31.0312 151.135C34.9513 158.1 43.8804 160.495 50.8494 156.359C55.4228 153.747 58.0362 148.74 58.0362 143.734V97.5869L82.2099 139.38C83.7344 141.775 84.3878 144.605 84.3878 147.652C84.3878 150.699 83.5166 153.529 82.2099 155.924L77.4187 164.195C88.0901 164.195 96.8013 172.902 96.8013 183.568L96.5835 213.172Z" fill="#663DDE"/>
</g>
<defs>
<linearGradient id="paint0_linear_288_3904" x1="68.5" y1="82" x2="56.1983" y2="164.955" gradientUnits="userSpaceOnUse">
<stop stop-color="#3CE1C6"/>
<stop offset="1" stop-color="#49BECD"/>
</linearGradient>
<radialGradient id="paint1_radial_288_3904" cx="0" cy="0" r="1" gradientUnits="userSpaceOnUse" gradientTransform="translate(122.5 -69) rotate(97.8831) scale(262.48 398.922)">
<stop stop-color="#3A5AB8"/>
<stop offset="1" stop-color="#7F4CFF"/>
</radialGradient>
</defs>
</svg>
