<svg width="84" height="84" viewBox="0 0 84 84" fill="none" xmlns="http://www.w3.org/2000/svg">
<rect x="0.364258" y="0.00195312" width="83.4699" height="83.4699" rx="41.735" fill="white"/>
<path d="M51.9262 32.4943L51.4055 31.9737C49.927 30.5726 48.1389 29.4936 46.1941 28.8828C43.3114 27.9666 40.1204 28.0515 37.2947 29.132C35.624 29.7636 34.0944 30.7472 32.7968 31.9718L32.3391 32.4295C30.9384 33.9092 29.8594 35.6973 29.2475 37.6433C28.2177 40.8734 28.4542 44.4931 29.9268 47.5508C30.5361 48.8334 31.3644 50.0066 32.3354 51.0409L32.7927 51.4982C34.2899 52.9165 36.1048 54.0036 38.0779 54.6114C41.0813 55.5507 44.4146 55.4002 47.3162 54.1783C48.8153 53.5544 50.1866 52.642 51.3717 51.5344L51.889 51.017C52.9821 49.8509 53.886 48.5024 54.5098 47.0286C55.7608 44.1106 55.9221 40.7464 54.9765 37.7174C54.3783 35.7718 53.3113 33.9822 51.9262 32.4943ZM50.5679 34.1409C51.27 34.9263 51.8674 35.806 52.3247 36.755C53.531 39.2142 53.794 42.1155 53.0647 44.7545C52.3299 47.4938 50.5095 49.9161 48.0968 51.4036C45.3144 53.15 41.7598 53.5783 38.637 52.5679C36.4802 51.8897 34.545 50.5392 33.1525 48.7593C31.8873 47.1597 31.0762 45.2082 30.8229 43.1851C30.5585 41.1337 30.865 39.0112 31.7048 37.1211C32.6989 34.8638 34.456 32.9532 36.6195 31.7699C39.4887 30.1752 43.0585 29.9282 46.1244 31.0977C47.8238 31.7327 49.3568 32.7926 50.5679 34.1409Z" fill="black"/>
<path d="M45.3313 36.6837C45.1517 36.3522 44.7849 36.1381 44.4087 36.1403C42.795 36.1176 41.1812 36.0949 39.5671 36.0725C39.1876 36.0677 38.8054 36.1169 38.446 36.2416C37.6014 36.5254 36.8952 37.1884 36.5552 38.0118C36.3876 38.4118 36.3101 38.8468 36.3131 39.2796C36.3243 40.782 36.3384 42.2836 36.3507 43.7857C36.36 44.0587 36.3232 44.3451 36.4371 44.6021C36.5965 44.9991 37.0185 45.2691 37.4457 45.2471C37.8617 45.2385 38.2531 44.9559 38.3939 44.5648C38.4844 44.341 38.4576 44.0967 38.458 43.8617C38.4464 42.3097 38.4297 40.7578 38.4207 39.2062C38.414 38.6572 38.9071 38.1679 39.4561 38.1798C41.1078 38.1988 42.7596 38.2252 44.4113 38.2457C44.7428 38.2487 45.0694 38.0815 45.2624 37.8118C45.5003 37.4904 45.5283 37.0312 45.3313 36.6837Z" fill="black"/>
<path d="M47.2672 45.4728C47.2128 45.3715 47.1361 45.2843 47.056 45.2028C45.278 43.427 43.5026 41.6486 41.7246 39.8728C41.4688 39.614 41.0729 39.5064 40.7213 39.6002C40.3529 39.6907 40.049 39.9976 39.9615 40.3667C39.8714 40.7175 39.9798 41.1097 40.2379 41.3641C42.0256 43.1533 43.814 44.9417 45.6032 46.7286C45.8404 46.9689 46.1972 47.0806 46.5287 47.0203C46.8624 46.9636 47.1603 46.7342 47.3007 46.427C47.443 46.1275 47.4292 45.7614 47.2672 45.4728Z" fill="black"/>
</svg>
