<svg width="304" height="300" viewBox="0 0 304 300" fill="none" xmlns="http://www.w3.org/2000/svg">
<path d="M141.343 256.202H140.615V299.069H141.343V256.202Z" fill="#4C2EBD"/>
<path d="M162.095 256.202H161.367V299.069H162.095V256.202Z" fill="#4C2EBD"/>
<path fill-rule="evenodd" clip-rule="evenodd" d="M187.486 237.089L276.406 83.0948C256.019 34.3119 207.873 0 151.718 0C95.5629 0 47.417 34.3119 27.0302 83.0948L115.95 237.089C119.499 243.005 124.505 248.192 130.967 251.924C150.626 263.391 175.927 256.657 187.486 237.089Z" fill="#61E0CB"/>
<path fill-rule="evenodd" clip-rule="evenodd" d="M133.971 253.562C132.97 253.107 131.969 252.561 130.968 252.015C124.506 248.283 119.5 243.187 115.951 237.18L37.4063 101.115C17.3835 126.144 3.91356 156.906 0 191.127L133.971 253.562Z" fill="#61E0CB"/>
<path fill-rule="evenodd" clip-rule="evenodd" d="M211.241 195.86L276.315 83.0947H250.376C241.73 83.0947 234.813 90.1027 234.813 98.6579V102.845C223.345 102.845 214.062 112.128 214.062 123.595V185.484C214.062 189.034 213.152 192.674 211.241 195.86Z" fill="#6485E6"/>
<path fill-rule="evenodd" clip-rule="evenodd" d="M187.486 237.089L266.03 101.024C286.053 126.053 299.523 156.815 303.436 191.036L169.465 253.471C170.466 253.016 171.468 252.47 172.469 251.924C178.931 248.283 183.936 243.096 187.486 237.089Z" fill="#61E0CB"/>
<path fill-rule="evenodd" clip-rule="evenodd" d="M133.971 253.562C132.97 253.107 131.969 252.561 130.968 252.015C124.506 248.283 119.5 243.187 115.951 237.18L37.4063 101.115C17.3835 126.144 3.91356 156.906 0 191.127L133.971 253.562Z" fill="#57A2D9"/>
<path fill-rule="evenodd" clip-rule="evenodd" d="M169.465 253.562C170.466 253.107 171.468 252.561 172.469 252.015C178.931 248.283 183.936 243.187 187.486 237.18L266.03 101.115C286.053 126.144 299.523 156.906 303.436 191.127L169.465 253.562Z" fill="#57A2D9"/>
<path fill-rule="evenodd" clip-rule="evenodd" d="M209.604 234.813L303.438 191.036L283.506 179.569C276.043 175.291 266.487 177.839 262.209 185.302L260.116 188.943C250.195 183.209 237.453 186.577 231.72 196.588L209.604 234.813Z" fill="#7269F2"/>
<path fill-rule="evenodd" clip-rule="evenodd" d="M209.604 234.813L303.438 191.036L283.506 179.569C276.043 175.291 266.487 177.839 262.209 185.302L260.116 188.943C250.195 183.209 237.453 186.577 231.72 196.588L209.604 234.813Z" fill="#AE90FB"/>
<path fill-rule="evenodd" clip-rule="evenodd" d="M214.062 191.127L276.406 83.0947H250.467C241.821 83.0947 234.904 90.1027 234.904 98.6579V102.845C223.436 102.845 214.153 112.128 214.153 123.595V191.127H214.062Z" fill="#AE90FB"/>
<path fill-rule="evenodd" clip-rule="evenodd" d="M162.094 107.031V37.1332L151.172 56.0639C149.534 58.7942 149.625 62.0707 150.99 64.7101C150.171 64.8921 149.352 65.2562 148.624 65.6202C144.347 68.0776 142.89 73.6294 145.348 77.907L162.094 107.031Z" fill="#49BECD"/>
<path fill-rule="evenodd" clip-rule="evenodd" d="M139.706 255.746C139.979 255.837 140.161 255.928 140.434 255.928C140.252 255.928 139.979 255.837 139.706 255.746ZM138.704 255.473C138.886 255.564 139.159 255.655 139.342 255.655C139.159 255.564 138.977 255.564 138.704 255.473ZM137.794 255.109C137.976 255.2 138.249 255.291 138.431 255.382C138.158 255.291 137.976 255.2 137.794 255.109ZM136.702 254.745C136.975 254.836 137.157 254.927 137.43 255.018C137.248 254.927 136.975 254.836 136.702 254.745ZM135.701 254.29C135.974 254.381 136.247 254.472 136.52 254.654C136.247 254.563 135.974 254.472 135.701 254.29ZM132.789 253.016C133.062 253.198 133.426 253.289 133.699 253.471C133.426 253.289 133.062 253.107 132.789 253.016ZM129.967 251.378C130.24 251.56 130.604 251.742 130.877 251.924C130.604 251.742 130.331 251.56 129.967 251.378ZM125.69 248.374C125.963 248.556 126.236 248.738 126.418 249.011C126.236 248.829 125.963 248.556 125.69 248.374ZM124.961 247.737C125.235 247.919 125.417 248.101 125.69 248.283C125.417 248.101 125.144 247.919 124.961 247.737ZM124.142 247.1C124.324 247.282 124.597 247.464 124.779 247.646C124.597 247.464 124.415 247.282 124.142 247.1ZM120.593 243.551C120.775 243.733 120.866 243.915 121.048 244.097C120.866 243.824 120.684 243.642 120.593 243.551ZM119.956 242.731C120.138 242.913 120.229 243.096 120.411 243.278C120.229 243.096 120.047 242.913 119.956 242.731ZM119.228 242.003C119.41 242.185 119.501 242.367 119.683 242.549C119.592 242.276 119.41 242.094 119.228 242.003ZM118.044 240.365C118.135 240.547 118.318 240.729 118.409 240.911C118.318 240.729 118.226 240.547 118.044 240.365ZM117.498 239.546C117.589 239.728 117.771 239.91 117.862 240.092C117.68 239.91 117.589 239.728 117.498 239.546ZM116.861 238.727C116.952 238.909 117.134 239.091 117.225 239.273C117.134 239.091 117.043 238.909 116.861 238.727ZM116.315 237.817C116.406 237.999 116.588 238.181 116.679 238.454C116.588 238.181 116.497 237.999 116.315 237.817ZM172.47 110.035C172.47 105.484 170.104 101.024 165.917 98.658C159.637 95.0175 151.537 97.2018 147.897 103.482L140.07 117.043C139.979 117.134 140.07 117.225 140.161 117.316C140.252 117.407 140.343 117.407 140.434 117.316C143.255 114.676 147.533 114.13 150.991 116.132C155.269 118.59 156.725 124.142 154.268 128.419L115.678 195.223C107.851 208.875 108.579 225.075 116.133 237.635C116.042 237.453 115.951 237.362 115.86 237.18L141.253 281.139V256.292C141.071 256.201 140.798 256.201 140.616 256.11C158.454 261.025 178.022 253.562 187.669 236.816L211.242 195.951C205.508 205.871 192.766 209.33 182.846 203.596C176.202 199.773 172.47 192.765 172.47 185.575V110.035Z" fill="#7269F2"/>
<path fill-rule="evenodd" clip-rule="evenodd" d="M162.094 107.031V37.1334L151.172 56.0641C149.534 58.7945 149.625 62.071 150.99 64.7103C150.171 64.8924 149.352 65.2564 148.624 65.6205C144.347 68.0778 142.89 73.6296 145.348 77.9072L162.094 107.031Z" fill="#7269F2"/>
<path fill-rule="evenodd" clip-rule="evenodd" d="M172.47 110.035C172.47 105.484 170.103 101.024 165.917 98.658C159.637 95.0175 151.537 97.2018 147.896 103.482L140.069 117.043C139.978 117.134 140.069 117.225 140.16 117.316C140.251 117.407 140.342 117.407 140.433 117.316C143.255 114.676 147.532 114.13 150.991 116.132C155.268 118.59 156.724 124.142 154.267 128.419L115.678 195.223C104.21 215.064 111.036 240.547 130.877 252.015C150.718 263.482 176.201 256.656 187.669 236.816L211.241 195.951C205.507 205.871 192.766 209.33 182.845 203.596C176.201 199.773 172.47 192.765 172.47 185.575V110.035Z" fill="#AE90FB"/>
<path fill-rule="evenodd" clip-rule="evenodd" d="M161.913 111.946L178.022 102.663C178.113 102.572 178.113 102.481 178.113 102.39C178.113 102.299 178.022 102.208 177.931 102.208H159.273C156.361 102.208 154.086 104.574 154.086 107.395C154.086 110.308 156.452 112.583 159.273 112.583C160.274 112.583 161.185 112.401 161.913 111.946Z" fill="#4C2EBD"/>
<path fill-rule="evenodd" clip-rule="evenodd" d="M161.547 106.121C160.819 104.847 159.272 104.483 157.998 105.211C156.723 105.939 156.359 107.486 157.088 108.76C157.816 110.035 159.363 110.399 160.637 109.671C161.82 108.942 162.275 107.395 161.547 106.121Z" fill="white"/>
<path fill-rule="evenodd" clip-rule="evenodd" d="M162.095 256.201V281.048L148.443 257.385C152.993 257.749 157.635 257.294 162.095 256.201ZM148.443 257.385C163.915 258.568 179.478 251.105 187.76 236.725L211.333 195.86C205.599 205.78 192.857 209.239 182.937 203.505C176.293 199.682 172.561 192.674 172.561 185.484V132.788L146.531 177.748C143.255 183.482 143.255 190.035 146.531 195.769L151.719 204.779C148.989 205.052 146.167 205.962 143.619 207.418C133.699 213.152 130.24 225.894 135.974 235.814L148.443 257.385Z" fill="#663DDE"/>
</svg>
