<?xml version="1.0" encoding="UTF-8" ?>
<!DOCTYPE svg PUBLIC "-//W3C//DTD SVG 1.1//EN" "http://www.w3.org/Graphics/SVG/1.1/DTD/svg11.dtd">
<svg width="596pt" height="470pt" viewBox="0 0 596 470" version="1.1" xmlns="http://www.w3.org/2000/svg">
<path fill="#061024" opacity="0.23" d=" M 55.43 0.00 L 539.94 0.00 L 538.53 1.12 C 464.36 1.39 390.19 1.15 316.02 1.23 C 228.74 1.16 141.45 1.36 54.17 1.13 L 55.43 0.00 Z" />
<path fill="#1e479c" opacity="1.00" d=" M 0.00 48.62 C 4.62 23.02 28.14 2.32 54.17 1.13 C 141.45 1.36 228.74 1.16 316.02 1.23 C 390.19 1.15 464.36 1.39 538.53 1.12 C 551.93 1.55 565.03 7.11 575.01 16.00 C 586.89 26.58 594.46 42.13 594.76 58.10 C 594.78 175.80 594.75 293.50 594.78 411.21 C 594.70 425.74 588.57 440.09 578.56 450.57 C 568.80 461.02 555.07 467.65 540.83 468.86 C 431.54 468.65 322.26 468.83 212.97 468.77 C 160.08 468.84 107.18 468.62 54.28 468.88 C 28.21 467.86 4.67 447.06 0.00 421.47 L 0.00 48.62 M 26.76 32.76 C 19.95 40.45 16.12 50.77 16.35 61.05 C 16.33 74.96 16.39 88.88 16.32 102.80 C 167.23 102.86 318.15 102.81 469.06 102.83 C 473.93 102.39 479.25 105.84 479.46 111.00 C 480.21 116.18 475.26 121.16 470.09 120.52 C 318.85 120.48 167.62 120.57 16.38 120.48 C 16.32 216.99 16.36 313.49 16.36 410.00 C 16.18 427.92 28.99 445.05 46.31 449.76 C 53.66 452.07 61.43 451.35 69.01 451.46 C 224.32 451.46 379.63 451.46 534.94 451.46 C 546.36 451.69 557.79 447.00 565.62 438.66 C 573.58 430.64 577.65 419.20 577.38 407.98 C 577.34 312.15 577.38 216.33 577.35 120.50 C 555.21 120.51 533.06 120.55 510.92 120.48 C 506.98 120.71 504.18 117.34 502.59 114.13 C 501.50 108.47 505.95 102.62 511.87 102.90 C 533.70 102.71 555.53 102.88 577.37 102.82 C 577.35 88.22 577.38 73.63 577.35 59.03 C 576.91 50.71 574.30 42.39 569.27 35.68 C 562.63 26.51 552.21 20.49 541.06 18.83 C 536.40 18.49 531.72 18.60 527.06 18.59 C 370.70 18.59 214.33 18.59 57.97 18.59 C 46.18 18.54 34.47 23.83 26.76 32.76 Z" />
<path fill="#1e479c" opacity="1.00" d=" M 71.57 34.87 C 78.22 33.68 85.39 34.96 90.97 38.85 C 98.28 43.59 102.95 52.31 102.66 61.04 C 102.79 68.48 99.18 75.78 93.60 80.62 C 83.80 89.57 66.90 88.94 57.83 79.23 C 51.00 72.54 48.49 62.02 51.35 52.94 C 54.17 43.84 62.16 36.57 71.57 34.87 M 73.45 52.56 C 68.12 54.42 65.73 61.91 69.75 66.20 C 73.57 71.58 82.66 69.85 84.62 63.67 C 87.44 57.05 80.06 50.04 73.45 52.56 Z" />
<path fill="#1e479c" opacity="1.00" d=" M 137.19 36.12 C 144.95 33.16 154.18 34.12 161.02 38.89 C 168.30 43.62 172.91 52.30 172.65 61.00 C 172.87 72.86 163.72 84.09 152.11 86.43 C 150.11 86.88 147.71 86.23 146.00 87.57 C 144.61 86.33 142.55 86.83 140.87 86.40 C 128.87 84.11 119.55 72.21 120.26 59.99 C 120.26 49.55 127.47 39.71 137.19 36.12 M 143.39 52.57 C 140.96 53.45 139.07 55.63 138.22 58.04 C 135.94 63.49 141.29 70.09 147.06 69.46 C 152.89 69.19 157.20 62.10 154.22 56.92 C 152.48 52.71 147.48 51.46 143.39 52.57 Z" />
<path fill="#1e479c" opacity="1.00" d=" M 201.85 38.91 C 210.53 32.81 223.08 32.97 231.60 39.30 C 236.15 42.25 239.16 46.94 241.25 51.84 C 245.59 63.73 240.12 78.08 228.87 83.92 C 224.99 86.31 220.42 86.68 216.00 87.18 C 203.02 86.95 191.14 76.15 190.33 63.09 C 189.33 53.72 193.97 44.06 201.85 38.91 M 213.41 52.56 C 209.99 53.81 207.74 57.43 207.61 61.01 C 207.98 65.65 212.20 69.92 217.02 69.46 C 222.87 69.22 227.24 62.09 224.21 56.89 C 222.45 52.71 217.49 51.47 213.41 52.56 Z" />
<path fill="#20dca5" opacity="1.00" d=" M 73.45 52.56 C 80.06 50.04 87.44 57.05 84.62 63.67 C 82.66 69.85 73.57 71.58 69.75 66.20 C 65.73 61.91 68.12 54.42 73.45 52.56 Z" />
<path fill="#20dca5" opacity="1.00" d=" M 143.39 52.57 C 147.48 51.46 152.48 52.71 154.22 56.92 C 157.20 62.10 152.89 69.19 147.06 69.46 C 141.29 70.09 135.94 63.49 138.22 58.04 C 139.07 55.63 140.96 53.45 143.39 52.57 Z" />
<path fill="#20dca5" opacity="1.00" d=" M 213.41 52.56 C 217.49 51.47 222.45 52.71 224.21 56.89 C 227.24 62.09 222.87 69.22 217.02 69.46 C 212.20 69.92 207.98 65.65 207.61 61.01 C 207.74 57.43 209.99 53.81 213.41 52.56 Z" />
<path fill="#030812" opacity="0.12" d=" M 594.76 58.10 L 596.00 58.02 L 596.00 411.10 L 594.78 411.21 C 594.75 293.50 594.78 175.80 594.76 58.10 Z" />
<path fill="#1e479c" opacity="1.00" d=" M 257.52 158.79 C 265.05 157.73 273.00 159.25 279.39 163.45 C 302.62 178.26 325.83 193.11 349.04 207.95 C 356.09 212.47 361.14 219.90 362.94 228.06 C 365.93 240.87 360.12 255.12 348.99 262.14 C 325.42 277.19 301.90 292.29 278.30 307.28 C 264.64 316.06 245.02 311.11 235.96 298.00 C 230.47 290.93 229.76 281.61 229.78 272.99 C 229.81 246.65 229.79 220.30 229.79 193.96 C 230.03 186.98 230.83 179.67 234.82 173.72 C 239.76 165.77 248.30 160.25 257.52 158.79 M 257.65 176.83 C 251.75 178.82 247.34 184.72 247.49 191.01 C 247.47 219.32 247.53 247.64 247.47 275.96 C 247.32 279.79 247.58 283.84 249.86 287.09 C 253.89 293.99 263.92 295.90 270.41 291.45 C 291.99 277.75 313.48 263.92 335.04 250.19 C 338.28 248.16 341.75 246.17 343.86 242.87 C 346.03 239.74 346.05 235.71 345.67 232.08 C 345.21 227.61 341.82 224.13 338.17 221.86 C 315.74 207.60 293.40 193.21 270.97 178.97 C 267.11 176.26 262.15 175.77 257.65 176.83 Z" />
<path fill="#20dca5" opacity="1.00" d=" M 257.65 176.83 C 262.15 175.77 267.11 176.26 270.97 178.97 C 293.40 193.21 315.74 207.60 338.17 221.86 C 341.82 224.13 345.21 227.61 345.67 232.08 C 346.05 235.71 346.03 239.74 343.86 242.87 C 341.75 246.17 338.28 248.16 335.04 250.19 C 313.48 263.92 291.99 277.75 270.41 291.45 C 263.92 295.90 253.89 293.99 249.86 287.09 C 247.58 283.84 247.32 279.79 247.47 275.96 C 247.53 247.64 247.47 219.32 247.49 191.01 C 247.34 184.72 251.75 178.82 257.65 176.83 Z" />
<path fill="#1e479c" opacity="1.00" d=" M 198.40 349.51 C 206.92 338.87 220.34 332.21 234.03 332.40 C 247.69 332.23 260.97 338.96 269.51 349.52 C 352.33 349.54 435.15 349.51 517.97 349.53 C 532.54 349.50 545.75 362.44 545.78 377.05 C 546.55 388.46 539.38 399.50 529.14 404.28 C 525.57 405.65 521.86 406.83 517.99 406.71 C 435.27 406.85 352.55 406.62 269.84 406.82 C 264.06 412.91 257.36 418.44 249.28 421.20 C 235.76 425.89 219.89 424.18 208.15 415.80 C 192.75 405.57 184.93 385.25 189.73 367.37 C 152.17 366.92 114.58 367.31 77.02 367.17 C 70.94 366.49 65.15 371.96 65.36 378.02 C 65.01 383.58 69.74 388.10 74.87 389.30 C 104.59 389.32 134.32 389.26 164.04 389.33 C 168.37 389.14 171.30 393.04 172.43 396.80 C 172.33 400.00 171.17 403.40 168.39 405.25 C 166.30 406.90 163.52 406.71 161.01 406.77 C 132.33 406.68 103.64 406.84 74.96 406.69 C 58.72 406.46 45.21 389.98 48.13 374.01 C 49.71 360.80 61.72 349.94 74.98 349.54 C 116.12 349.49 157.26 349.55 198.40 349.51 M 207.75 367.79 C 204.49 376.39 205.49 386.47 210.83 394.03 C 215.52 401.08 223.63 405.54 232.01 406.27 C 243.50 407.12 255.06 400.07 259.58 389.48 C 262.12 384.26 262.03 378.27 261.42 372.63 C 259.61 362.98 252.23 354.63 242.94 351.51 C 238.52 349.92 233.68 350.08 229.08 350.50 C 219.52 351.92 211.46 359.02 207.75 367.79 M 278.36 367.17 C 280.49 374.38 280.02 382.06 278.31 389.30 C 355.53 389.30 432.75 389.30 509.97 389.30 C 514.07 389.19 518.43 389.90 522.25 387.97 C 525.42 386.56 527.38 383.36 528.24 380.12 C 529.57 373.59 523.80 366.55 517.02 367.18 C 437.46 367.17 357.91 367.18 278.36 367.17 Z" />
<path fill="#061024" opacity="0.23" d=" M 54.28 468.88 C 107.18 468.62 160.08 468.84 212.97 468.77 C 322.26 468.83 431.54 468.65 540.83 468.86 L 539.56 470.00 L 53.03 470.00 L 54.28 468.88 Z" />
</svg>
