<svg width="35" height="36" viewBox="0 0 35 36" fill="none" xmlns="http://www.w3.org/2000/svg">
<path d="M10.4105 0H24.354C26.8035 0.0484305 29.3472 0.613453 31.31 2.19552C32.8959 3.40628 34.0265 5.18206 34.5446 7.13543C34.8587 8.2009 34.9215 9.33094 35 10.4287V25.3291C34.9686 27.7184 34.4347 30.2206 32.9587 32.1256C31.2943 34.3534 28.6249 35.6287 25.9242 35.8709C25.4217 35.9031 24.9192 35.9516 24.4325 36H10.7873C8.40063 35.9516 5.9354 35.4673 3.97263 34.0144C1.85285 32.5291 0.502468 30.043 0.157021 27.4439C0.0785105 26.8144 0.0628084 26.1848 0 25.5552V10.4771C0 7.5713 0.989233 4.55247 3.17183 2.61525C5.15029 0.823318 7.81965 0.064574 10.4105 0ZM9.60969 2.77668C7.75684 2.90583 5.85689 3.6 4.55361 5.00448C3.29744 6.31211 2.68506 8.18475 2.68506 10.009C2.68506 15.1265 2.68506 20.2278 2.68506 25.3453C2.55944 27.5247 3.23463 29.8332 4.86765 31.3184C6.35935 32.6744 8.40063 33.2717 10.3634 33.2395C15.2782 33.2395 20.2086 33.2556 25.1234 33.2395C27.6671 33.191 30.3365 31.9157 31.4984 29.5103C32.0794 28.3803 32.3149 27.1049 32.3149 25.8457C32.3149 20.5668 32.3149 15.304 32.3149 10.0251C32.3149 8.2009 31.7026 6.34439 30.4464 5.02063C28.9547 3.42242 26.7407 2.74439 24.6366 2.77668C19.6433 2.77668 14.6187 2.74439 9.60969 2.77668Z" fill="white"/>
<path d="M17.9632 7.32915C20.0359 7.16771 22.1086 7.26457 24.1812 7.23229C25.6572 7.18386 27.1175 8.03946 27.8084 9.36323C28.2795 10.1865 28.2795 11.1874 28.2952 12.1076C28.1696 13.7865 28.2481 15.4816 28.201 17.1605C28.1853 17.6448 28.1853 18.2099 27.8084 18.5812C27.2275 19.1946 26.0812 19.0332 25.7201 18.2744C25.4845 17.5964 25.5787 16.8538 25.5473 16.1435C25.5159 14.9004 25.6729 13.6735 25.6415 12.4305C25.6258 11.8978 25.7044 11.3489 25.5473 10.8323C25.3746 10.3318 24.8878 9.92825 24.354 9.96054C22.2185 9.92825 20.0673 10.0251 17.9318 9.96054C17.0054 9.87982 16.5029 8.58834 17.0682 7.86188C17.2409 7.52287 17.6178 7.37758 17.9632 7.32915Z" fill="white"/>
<path d="M17.3037 29.139C15.231 29.3004 13.1584 29.2036 11.0857 29.2359C9.60969 29.2843 8.14939 28.4287 7.4585 27.1049C6.98744 26.2816 6.98744 25.2807 6.97174 24.3605C7.09735 22.6816 7.01884 20.9865 7.06595 19.3076C7.08165 18.8233 7.08165 18.2583 7.4585 17.887C8.03948 17.2735 9.18573 17.435 9.54688 18.1937C9.78241 18.8717 9.6882 19.6143 9.71961 20.3247C9.75101 21.5677 9.59399 22.7946 9.62539 24.0377C9.6411 24.5704 9.56258 25.1193 9.71961 25.6359C9.89233 26.1363 10.3791 26.5399 10.913 26.5076C13.0485 26.5399 15.1996 26.443 17.3351 26.5076C18.2616 26.5883 18.764 27.8798 18.1987 28.6063C18.026 28.9453 17.6649 29.1067 17.3037 29.139Z" fill="white"/>
<path d="M21.5433 12.4789C22.4069 11.9785 23.6003 12.9148 23.4432 13.8996C23.3019 14.4 22.9251 14.7874 22.5953 15.1587C21.0094 16.8054 19.4078 18.4359 17.8062 20.0825C17.2095 20.696 16.6442 21.3901 15.9219 21.8422C15.231 22.165 14.3831 21.713 14.179 20.9704C13.9592 20.4861 14.179 19.9534 14.5402 19.6143C16.8641 17.2413 19.1409 14.7713 21.5433 12.4789Z" fill="white"/>
<path d="M19.6119 14.513C20.4756 14.0126 21.6689 14.9489 21.5119 15.9336C21.3706 16.4341 20.9937 16.8215 20.664 17.1928C19.0781 18.8395 17.4764 20.47 15.8748 22.1166C15.2782 22.73 14.7129 23.4242 13.9906 23.8762C13.2997 24.1991 12.4518 23.7471 12.2476 23.0045C12.0278 22.5202 12.2476 21.9874 12.6088 21.6484C14.9327 19.2592 17.2095 16.8054 19.6119 14.513Z" fill="white"/>
</svg>
