<?xml version="1.0" encoding="UTF-8" ?>
<!DOCTYPE svg PUBLIC "-//W3C//DTD SVG 1.1//EN" "http://www.w3.org/Graphics/SVG/1.1/DTD/svg11.dtd">
<svg width="570pt" height="392pt" viewBox="0 0 570 392" version="1.1" xmlns="http://www.w3.org/2000/svg">
<path fill="#112a5d" opacity="0.55" d=" M 69.90 0.00 L 500.06 0.00 C 509.30 3.31 519.09 5.37 527.59 10.50 C 537.94 16.69 547.77 24.53 554.11 34.94 C 551.98 32.71 549.78 30.56 547.72 28.26 C 535.96 15.10 519.83 5.88 502.44 2.71 C 494.04 1.29 485.49 1.52 477.00 1.54 C 345.00 1.56 213.01 1.52 81.01 1.56 C 63.55 1.49 46.25 7.74 32.61 18.61 C 26.29 23.25 21.43 29.47 15.89 34.95 C 19.46 28.74 24.65 23.70 30.07 19.09 C 38.03 12.49 47.14 7.20 57.05 4.14 C 61.36 2.86 65.67 1.55 69.90 0.00 Z" />
<path fill="#1e479c" opacity="1.00" d=" M 32.61 18.61 C 46.25 7.74 63.55 1.49 81.01 1.56 C 213.01 1.52 345.00 1.56 477.00 1.54 C 485.49 1.52 494.04 1.29 502.44 2.71 C 519.83 5.88 535.96 15.10 547.72 28.26 C 549.78 30.56 551.98 32.71 554.11 34.94 C 555.45 36.88 556.74 38.84 558.00 40.83 C 560.91 48.09 564.49 55.13 566.27 62.78 C 568.78 72.65 568.50 82.91 568.46 93.00 C 568.45 161.00 568.46 229.00 568.46 297.00 C 568.45 307.76 568.95 318.70 566.27 329.21 C 564.48 336.86 560.93 343.91 557.98 351.14 C 557.36 352.12 556.73 353.10 556.10 354.08 C 550.54 360.18 545.66 366.99 539.05 372.06 C 524.89 383.94 506.52 390.73 488.00 390.46 C 352.34 390.44 216.68 390.48 81.02 390.44 C 62.58 390.54 44.39 383.52 30.39 371.60 C 24.03 366.62 19.31 359.99 13.90 354.07 C 13.26 353.10 12.63 352.12 12.02 351.14 C 9.10 343.92 5.50 336.91 3.73 329.27 C 0.98 318.40 1.57 307.10 1.54 296.00 C 1.53 225.00 1.56 154.00 1.53 83.00 C 1.60 75.92 2.08 68.77 3.92 61.90 C 5.76 54.58 9.22 47.82 12.00 40.84 C 13.25 38.84 14.55 36.88 15.89 34.95 C 21.43 29.47 26.29 23.25 32.61 18.61 M 29.24 45.26 C 21.51 56.18 17.02 69.58 17.44 83.00 C 17.45 158.33 17.45 233.67 17.44 309.00 C 16.89 327.46 25.47 345.63 39.10 357.89 C 51.01 368.56 66.93 374.99 83.00 374.55 C 202.04 374.50 321.08 374.62 440.11 374.49 C 439.29 372.47 438.34 370.51 437.18 368.67 C 431.33 359.48 425.76 350.12 420.05 340.85 C 414.02 330.94 403.95 323.65 392.81 320.60 C 387.35 318.99 381.61 319.46 376.00 319.39 C 313.00 319.40 250.01 319.40 187.01 319.40 C 176.76 319.22 166.87 323.65 159.14 330.17 C 151.52 336.24 147.48 345.34 142.36 353.36 C 140.64 356.46 137.98 359.95 134.02 359.69 C 129.27 360.29 124.67 355.76 125.42 350.98 C 125.26 348.39 126.97 346.29 128.19 344.18 C 132.70 337.39 136.22 329.85 141.90 323.90 C 146.12 319.49 150.46 315.10 155.65 311.82 C 158.66 310.98 161.51 309.68 164.32 308.32 C 171.96 304.61 180.55 303.34 188.98 303.27 C 252.65 303.26 316.33 303.28 380.00 303.26 C 386.72 303.25 393.50 303.96 399.92 306.01 C 404.90 307.54 409.30 310.49 414.35 311.82 C 423.75 318.28 431.88 326.82 437.25 336.93 C 444.68 349.27 452.30 361.50 459.88 373.75 C 469.25 373.99 478.62 373.80 488.00 373.86 C 493.51 373.76 499.18 374.15 504.50 372.39 C 512.56 369.99 520.41 366.37 526.96 361.05 C 530.04 359.62 532.60 357.35 534.86 354.86 C 545.03 344.41 551.55 330.49 553.08 315.99 C 553.70 310.68 553.45 305.33 553.47 300.00 C 553.47 227.34 553.47 154.68 553.48 82.02 C 553.21 63.53 544.78 45.30 530.75 33.24 C 529.58 32.34 528.26 31.66 526.96 30.96 C 515.73 22.11 501.34 17.03 487.00 17.45 C 352.66 17.46 218.33 17.46 84.00 17.45 C 62.58 16.55 41.40 27.76 29.24 45.26 Z" />
<path fill="#112a5d" opacity="0.55" d=" M 526.96 30.96 C 528.26 31.66 529.58 32.34 530.75 33.24 C 544.78 45.30 553.21 63.53 553.48 82.02 C 553.47 154.68 553.47 227.34 553.47 300.00 C 553.45 305.33 553.70 310.68 553.08 315.99 C 551.55 330.49 545.03 344.41 534.86 354.86 C 532.60 357.35 530.04 359.62 526.96 361.05 C 531.46 356.52 536.26 352.20 539.97 346.96 C 545.14 339.70 548.97 331.40 550.72 322.64 C 552.07 316.18 551.61 309.55 551.66 303.00 C 551.66 228.34 551.65 153.67 551.67 79.01 C 551.67 67.50 547.49 56.31 541.19 46.80 C 537.30 40.81 531.99 35.97 526.96 30.96 Z" />
<path fill="#112a5d" opacity="0.55" d=" M 0.00 69.85 C 3.57 60.02 5.46 49.32 12.00 40.84 C 9.22 47.82 5.76 54.58 3.92 61.90 C 2.08 68.77 1.60 75.92 1.53 83.00 C 1.56 154.00 1.53 225.00 1.54 296.00 C 1.57 307.10 0.98 318.40 3.73 329.27 C 5.50 336.91 9.10 343.92 12.02 351.14 C 5.39 342.69 3.61 331.92 0.00 322.09 L 0.00 69.85 Z" />
<path fill="#112a5d" opacity="0.55" d=" M 558.00 40.83 C 564.57 49.32 566.32 60.10 570.00 69.91 L 570.00 322.05 C 566.35 331.88 564.62 342.68 557.98 351.14 C 560.93 343.91 564.48 336.86 566.27 329.21 C 568.95 318.70 568.45 307.76 568.46 297.00 C 568.46 229.00 568.45 161.00 568.46 93.00 C 568.50 82.91 568.78 72.65 566.27 62.78 C 564.49 55.13 560.91 48.09 558.00 40.83 Z" />
<path fill="#112a5d" opacity="0.55" d=" M 92.36 53.42 C 99.79 49.08 108.34 46.61 116.95 46.43 C 229.65 46.44 342.35 46.43 455.05 46.44 C 464.64 46.87 475.05 49.17 482.15 56.03 C 477.86 53.83 473.54 51.65 468.99 50.03 C 462.27 47.60 455.00 48.34 448.00 48.26 C 340.33 48.27 232.67 48.26 125.00 48.26 C 118.18 48.34 111.20 47.68 104.55 49.56 C 98.22 51.24 92.55 54.65 87.08 58.15 C 88.57 56.31 90.27 54.58 92.36 53.42 Z" />
<path fill="#1e479c" opacity="1.00" d=" M 104.55 49.56 C 111.20 47.68 118.18 48.34 125.00 48.26 C 232.67 48.26 340.33 48.27 448.00 48.26 C 455.00 48.34 462.27 47.60 468.99 50.03 C 473.54 51.65 477.86 53.83 482.15 56.03 C 495.06 64.78 503.05 80.40 502.52 96.00 C 502.49 121.68 502.51 147.37 502.51 173.05 C 502.89 177.60 498.63 182.21 493.99 181.63 C 489.01 181.78 485.28 176.81 485.66 172.05 C 485.65 146.03 485.66 120.00 485.66 93.97 C 486.02 86.40 482.21 79.24 477.19 73.81 C 471.67 68.17 464.07 63.90 455.99 64.26 C 344.33 64.24 232.67 64.27 121.01 64.25 C 116.15 64.32 111.09 63.85 106.51 65.82 C 94.82 70.27 85.65 82.23 86.29 95.01 C 86.31 138.34 86.30 181.67 86.29 225.00 C 85.73 241.30 100.80 255.95 116.98 255.61 C 230.00 255.59 343.02 255.62 456.04 255.59 C 470.24 255.27 482.92 243.83 485.46 229.99 C 486.04 222.98 485.26 215.92 485.85 208.91 C 486.28 204.92 489.87 201.27 493.99 201.45 C 498.52 200.98 502.91 205.44 502.51 209.95 C 502.51 215.96 502.56 221.98 502.45 228.00 C 501.21 251.36 480.45 271.84 457.00 272.45 C 344.00 272.50 231.00 272.43 118.00 272.48 C 105.05 272.86 92.01 267.33 83.13 257.96 C 78.82 251.95 74.30 245.87 72.19 238.68 C 69.64 231.39 70.37 223.57 70.33 216.00 C 70.33 178.33 70.34 140.67 70.32 103.00 C 70.39 96.25 69.72 89.33 71.67 82.77 C 72.85 78.71 74.40 74.76 76.03 70.86 C 78.67 65.86 82.72 61.69 87.08 58.15 C 92.55 54.65 98.22 51.24 104.55 49.56 Z" />
<path fill="#112a5d" opacity="0.55" d=" M 68.57 93.02 C 69.44 85.31 70.92 76.99 76.03 70.86 C 74.40 74.76 72.85 78.71 71.67 82.77 C 69.72 89.33 70.39 96.25 70.32 103.00 C 70.34 140.67 70.33 178.33 70.33 216.00 C 70.37 223.57 69.64 231.39 72.19 238.68 C 74.30 245.87 78.82 251.95 83.13 257.96 C 78.40 254.51 75.40 249.31 72.98 244.10 C 70.24 237.79 68.48 230.95 68.49 224.04 C 68.60 180.37 68.43 136.69 68.57 93.02 Z" />
<path fill="#1e479c" opacity="1.00" d=" M 154.57 162.99 C 159.82 161.01 165.50 161.36 171.00 161.33 C 249.33 161.35 327.67 161.32 406.01 161.34 C 409.96 161.24 413.85 162.02 417.73 162.72 C 417.28 162.86 416.83 163.00 416.39 163.15 C 428.67 166.41 438.57 176.43 443.14 188.12 C 447.07 198.80 446.63 211.20 441.40 221.37 C 436.28 232.10 426.29 240.48 414.73 243.38 C 409.62 244.92 404.25 244.50 399.00 244.54 C 321.34 244.54 243.67 244.54 166.01 244.55 C 144.10 244.59 125.05 223.71 126.33 202.00 C 125.92 184.67 138.50 168.63 154.57 162.99 M 201.01 177.85 C 203.65 180.99 206.25 184.28 207.57 188.22 C 210.15 194.82 209.88 202.04 209.54 208.99 C 209.15 215.81 205.24 221.64 201.80 227.29 C 207.76 228.79 213.93 228.09 220.00 228.19 C 228.25 228.08 236.52 228.58 244.74 227.70 C 248.79 216.28 249.08 203.90 247.92 191.95 C 247.12 187.19 246.85 182.01 244.20 177.84 C 239.85 177.07 235.40 177.62 231.00 177.51 C 221.01 177.70 210.99 177.08 201.01 177.85 M 262.18 177.45 C 263.31 185.94 265.22 194.37 264.63 203.00 C 265.22 211.35 263.39 219.50 262.13 227.69 C 270.06 228.55 278.04 228.10 286.00 228.20 C 293.97 228.10 301.96 228.57 309.91 227.65 C 307.63 219.95 307.40 211.92 306.76 203.98 C 306.81 195.05 308.46 186.25 309.83 177.46 C 293.95 177.56 278.06 177.57 262.18 177.45 M 327.13 178.06 C 323.35 186.81 323.30 196.61 323.39 206.00 C 323.33 211.92 324.10 217.85 325.66 223.57 C 326.12 225.17 326.64 226.85 327.83 228.10 C 329.50 228.51 331.24 228.47 332.95 228.50 C 345.33 228.37 357.71 228.44 370.09 228.46 C 368.16 222.91 364.51 218.05 363.47 212.18 C 360.53 200.32 363.76 187.71 370.06 177.48 C 357.69 177.50 345.32 177.56 332.95 177.45 C 331.01 177.50 328.99 177.38 327.13 178.06 M 165.32 178.07 C 155.43 179.30 146.69 186.65 144.04 196.28 C 143.06 200.67 143.12 205.31 144.06 209.71 C 145.51 216.28 150.36 221.55 155.95 225.01 C 164.45 230.10 176.07 229.09 183.50 222.52 C 191.61 216.38 194.38 205.03 191.71 195.48 C 188.33 184.51 176.75 176.73 165.32 178.07 M 401.32 178.06 C 391.22 179.37 382.06 187.01 379.76 197.03 C 378.89 203.47 379.00 210.65 382.84 216.19 C 386.61 221.45 391.66 226.32 398.25 227.56 C 405.87 229.84 414.16 227.07 420.00 221.98 C 431.41 212.90 431.70 192.94 420.01 183.99 C 414.90 179.74 407.96 177.25 401.32 178.06 Z" />
<path fill="#20dca5" opacity="1.00" d=" M 201.01 177.85 C 210.99 177.08 221.01 177.70 231.00 177.51 C 235.40 177.62 239.85 177.07 244.20 177.84 C 246.85 182.01 247.12 187.19 247.92 191.95 C 249.08 203.90 248.79 216.28 244.74 227.70 C 236.52 228.58 228.25 228.08 220.00 228.19 C 213.93 228.09 207.76 228.79 201.80 227.29 C 205.24 221.64 209.15 215.81 209.54 208.99 C 209.88 202.04 210.15 194.82 207.57 188.22 C 206.25 184.28 203.65 180.99 201.01 177.85 Z" />
<path fill="#20dca5" opacity="1.00" d=" M 262.18 177.45 C 278.06 177.57 293.95 177.56 309.83 177.46 C 308.46 186.25 306.81 195.05 306.76 203.98 C 307.40 211.92 307.63 219.95 309.91 227.65 C 301.96 228.57 293.97 228.10 286.00 228.20 C 278.04 228.10 270.06 228.55 262.13 227.69 C 263.39 219.50 265.22 211.35 264.63 203.00 C 265.22 194.37 263.31 185.94 262.18 177.45 Z" />
<path fill="#20dca5" opacity="1.00" d=" M 327.13 178.06 C 328.99 177.38 331.01 177.50 332.95 177.45 C 345.32 177.56 357.69 177.50 370.06 177.48 C 363.76 187.71 360.53 200.32 363.47 212.18 C 364.51 218.05 368.16 222.91 370.09 228.46 C 357.71 228.44 345.33 228.37 332.95 228.50 C 331.24 228.47 329.50 228.51 327.83 228.10 C 326.64 226.85 326.12 225.17 325.66 223.57 C 324.10 217.85 323.33 211.92 323.39 206.00 C 323.30 196.61 323.35 186.81 327.13 178.06 Z" />
<path fill="#20dca5" opacity="1.00" d=" M 165.32 178.07 C 176.75 176.73 188.33 184.51 191.71 195.48 C 194.38 205.03 191.61 216.38 183.50 222.52 C 176.07 229.09 164.45 230.10 155.95 225.01 C 150.36 221.55 145.51 216.28 144.06 209.71 C 143.12 205.31 143.06 200.67 144.04 196.28 C 146.69 186.65 155.43 179.30 165.32 178.07 Z" />
<path fill="#20dca5" opacity="1.00" d=" M 401.32 178.06 C 407.96 177.25 414.90 179.74 420.01 183.99 C 431.70 192.94 431.41 212.90 420.00 221.98 C 414.16 227.07 405.87 229.84 398.25 227.56 C 391.66 226.32 386.61 221.45 382.84 216.19 C 379.00 210.65 378.89 203.47 379.76 197.03 C 382.06 187.01 391.22 179.37 401.32 178.06 Z" />
<path fill="#1e479c" opacity="1.00" d=" M 41.09 317.60 C 43.83 308.77 51.97 302.15 60.97 300.54 C 66.49 300.00 72.31 300.12 77.34 302.74 C 86.03 307.40 92.83 316.76 91.79 327.00 C 92.58 336.35 86.54 344.91 78.85 349.64 C 73.20 353.14 66.31 353.01 59.93 352.40 C 52.30 351.03 46.04 345.36 42.23 338.82 C 38.29 331.98 39.14 323.69 40.75 316.30 C 40.86 316.73 40.97 317.16 41.09 317.60 M 60.51 318.48 C 54.89 321.90 54.61 331.12 60.32 334.57 C 64.72 338.16 71.66 336.15 74.18 331.29 C 77.96 325.98 73.60 317.32 67.06 317.31 C 64.86 317.32 62.35 317.00 60.51 318.48 Z" />
<path fill="#112a5d" opacity="0.55" d=" M 155.65 311.82 C 164.54 305.76 175.23 302.15 185.96 301.58 C 251.99 301.58 318.01 301.58 384.03 301.58 C 394.77 302.15 405.46 305.75 414.35 311.82 C 409.30 310.49 404.90 307.54 399.92 306.01 C 393.50 303.96 386.72 303.25 380.00 303.26 C 316.33 303.28 252.65 303.26 188.98 303.27 C 180.55 303.34 171.96 304.61 164.32 308.32 C 161.51 309.68 158.66 310.98 155.65 311.82 Z" />
<path fill="#1e479c" opacity="1.00" d=" M 490.78 303.78 C 499.20 298.76 510.53 299.05 518.74 304.39 C 523.43 307.55 527.24 312.14 528.91 317.59 C 529.02 317.16 529.13 316.73 529.26 316.30 C 530.79 323.49 531.69 331.47 528.10 338.21 C 524.35 345.05 517.91 350.97 510.06 352.40 C 503.93 352.95 497.32 353.19 491.80 350.00 C 482.08 344.65 475.77 332.92 478.25 321.86 C 479.31 314.26 484.64 308.01 490.78 303.78 M 498.64 318.68 C 492.94 322.36 493.29 331.35 499.06 334.80 C 504.73 339.15 514.20 334.09 513.73 327.02 C 514.34 322.96 511.43 319.40 508.01 317.64 C 504.92 317.17 501.33 316.74 498.64 318.68 Z" />
<path fill="#112a5d" opacity="0.55" d=" M 13.90 354.07 C 19.31 359.99 24.03 366.62 30.39 371.60 C 44.39 383.52 62.58 390.54 81.02 390.44 C 216.68 390.48 352.34 390.44 488.00 390.46 C 506.52 390.73 524.89 383.94 539.05 372.06 C 545.66 366.99 550.54 360.18 556.10 354.08 C 549.80 365.63 539.31 374.35 528.22 381.13 C 519.58 386.49 509.56 388.61 500.10 392.00 L 69.93 392.00 C 65.69 390.46 61.37 389.14 57.04 387.85 C 46.91 384.73 37.60 379.27 29.52 372.45 C 23.45 367.14 17.60 361.33 13.90 354.07 Z" />
</svg>
