<svg width="99" height="99" viewBox="0 0 99 99" fill="none" xmlns="http://www.w3.org/2000/svg">
<ellipse cx="49.052" cy="49.3061" rx="49.052" ry="49.3061" fill="url(#paint0_radial_288_5874)"/>
<path fill-rule="evenodd" clip-rule="evenodd" d="M60.8376 30.2871H37.9247C33.7066 30.2871 30.2871 33.7066 30.2871 37.9247V60.8376C30.2871 65.0558 33.7066 68.4752 37.9247 68.4752H60.8376C65.0558 68.4752 68.4752 65.0557 68.4752 60.8376V37.9247C68.4752 33.7066 65.0557 30.2871 60.8376 30.2871ZM58.1492 44.5322C58.6348 43.9079 58.5223 43.0082 57.898 42.5226C57.2737 42.0371 56.374 42.1495 55.8884 42.7738L48.2374 52.6108C48.0673 52.8296 47.7473 52.8579 47.5413 52.6726L42.7016 48.3168C42.1137 47.7877 41.2082 47.8354 40.6791 48.4232C40.15 49.0111 40.1977 49.9166 40.7856 50.4457L45.6253 54.8014C47.0671 56.0991 49.3073 55.9004 50.4982 54.3692L58.1492 44.5322Z" fill="white"/>
<defs>
<radialGradient id="paint0_radial_288_5874" cx="0" cy="0" r="1" gradientUnits="userSpaceOnUse" gradientTransform="translate(65.5721 6.35388) rotate(122.986) scale(80.2942 122.137)">
<stop stop-color="#6485E6"/>
<stop offset="1" stop-color="#7F4CFF"/>
</radialGradient>
</defs>
</svg>
