<svg width="39" height="39" viewBox="0 0 39 39" fill="none" xmlns="http://www.w3.org/2000/svg">
<path fill-rule="evenodd" clip-rule="evenodd" d="M30.8376 0.287109H7.92473C3.70659 0.287109 0.287109 3.70659 0.287109 7.92473V30.8376C0.287109 35.0558 3.70659 38.4752 7.92473 38.4752H30.8376C35.0558 38.4752 38.4752 35.0557 38.4752 30.8376V7.92473C38.4752 3.70659 35.0557 0.287109 30.8376 0.287109ZM28.1492 14.5322C28.6348 13.9079 28.5223 13.0082 27.898 12.5226C27.2737 12.0371 26.374 12.1495 25.8884 12.7738L18.2374 22.6108C18.0673 22.8296 17.7473 22.8579 17.5413 22.6726L12.7016 18.3168C12.1137 17.7877 11.2082 17.8354 10.6791 18.4232C10.15 19.0111 10.1977 19.9166 10.7856 20.4457L15.6253 24.8014C17.0671 26.0991 19.3073 25.9004 20.4982 24.3692L28.1492 14.5322Z" fill="white"/>
</svg>
