<?xml version="1.0" encoding="UTF-8" ?>
<!DOCTYPE svg PUBLIC "-//W3C//DTD SVG 1.1//EN" "http://www.w3.org/Graphics/SVG/1.1/DTD/svg11.dtd">
<svg width="520pt" height="508pt" viewBox="0 0 520 508" version="1.1" xmlns="http://www.w3.org/2000/svg">
<path fill="#1e479c" opacity="1.00" d=" M 234.85 5.18 C 245.36 0.99 256.88 1.21 267.99 1.64 C 282.17 2.76 295.49 8.89 306.93 17.11 C 311.28 20.36 315.14 24.21 319.60 27.32 C 323.72 30.18 327.84 33.05 331.55 36.44 C 337.35 41.74 344.27 45.60 350.04 50.94 C 353.01 53.20 355.68 56.21 359.27 57.41 C 376.86 58.41 395.99 54.64 412.04 63.89 C 428.51 71.63 441.20 87.21 444.88 105.10 C 446.48 111.81 446.16 118.75 446.53 125.57 C 448.50 128.23 451.41 129.97 453.95 132.03 C 461.03 137.63 468.28 143.00 475.30 148.68 C 483.37 154.49 491.25 160.68 498.08 167.94 C 502.62 172.62 505.56 178.50 509.09 183.92 C 513.42 194.46 517.61 205.36 517.73 216.92 C 517.75 289.97 517.75 363.02 517.73 436.08 C 517.75 442.24 515.74 448.15 515.01 454.23 C 512.49 462.77 507.60 470.31 502.39 477.43 C 496.77 483.77 490.47 489.53 483.63 494.52 C 470.45 502.12 455.34 506.96 440.00 506.36 C 319.34 506.36 198.67 506.44 78.01 506.38 C 61.68 506.19 45.30 501.47 31.90 492.03 C 21.74 484.43 13.91 474.11 8.03 462.94 C 6.15 456.56 3.22 450.47 2.38 443.81 C 0.08 427.63 1.97 411.25 0.83 395.00 C 0.70 351.00 0.84 307.00 0.77 263.00 C 0.75 256.33 1.38 249.67 1.22 243.00 C 1.40 227.47 0.02 211.37 5.39 196.49 C 7.37 190.42 10.57 184.87 13.07 179.02 C 19.92 167.54 29.94 158.32 41.04 151.01 C 46.43 146.32 52.16 142.10 57.86 137.82 C 62.53 133.11 68.86 130.34 73.18 125.30 C 73.71 119.87 73.00 114.37 73.82 108.95 C 75.30 99.47 78.73 90.19 84.51 82.47 C 94.52 68.44 110.95 59.60 127.96 57.74 C 138.78 57.06 149.67 58.08 160.47 57.26 C 173.42 47.75 186.48 38.26 198.64 27.70 C 202.32 24.61 206.57 22.30 210.24 19.20 C 217.43 12.99 225.74 8.00 234.85 5.18 M 240.84 19.14 C 231.65 22.40 223.58 28.11 215.75 33.81 C 207.89 40.25 199.53 46.09 191.93 52.85 C 190.22 54.16 188.27 55.09 186.49 56.29 C 186.54 56.55 186.65 57.08 186.71 57.34 C 189.12 57.68 191.57 57.56 194.00 57.56 C 240.30 57.47 286.61 57.65 332.90 57.47 C 328.14 51.76 321.13 48.32 315.52 43.49 C 312.46 40.41 308.58 38.39 305.16 35.78 C 299.30 31.58 294.40 25.96 287.52 23.32 C 273.42 15.50 256.15 14.76 240.84 19.14 M 104.08 84.09 C 94.98 92.90 87.95 104.99 88.54 118.00 C 88.50 156.67 88.54 195.33 88.50 234.00 C 88.57 238.65 88.23 243.32 88.64 247.96 C 96.10 252.29 104.50 254.90 112.20 258.82 C 116.29 260.73 120.75 261.77 124.67 264.07 C 131.43 266.97 138.44 269.32 144.96 272.76 C 159.31 278.27 173.01 285.33 187.42 290.66 C 190.21 291.66 192.60 293.54 195.45 294.39 C 200.37 295.88 204.77 299.43 210.04 299.45 C 216.69 296.06 222.40 290.78 229.75 288.74 C 239.87 284.36 251.04 283.13 261.99 283.50 C 278.38 283.19 294.20 289.38 307.65 298.38 C 308.80 299.12 310.15 300.38 311.63 299.69 C 320.68 295.95 329.65 292.02 338.87 288.71 C 354.69 281.53 370.63 274.59 386.65 267.89 C 392.63 265.46 398.21 262.06 404.46 260.31 C 413.06 256.45 421.99 253.30 430.34 248.96 C 430.90 241.00 430.46 232.98 430.63 225.00 C 430.75 189.00 430.62 153.00 430.63 117.01 C 430.89 107.42 426.72 98.29 421.32 90.60 C 416.92 85.67 412.27 80.53 406.02 77.97 C 400.64 75.60 394.97 73.36 388.99 73.45 C 304.99 73.36 221.00 73.43 137.00 73.41 C 132.29 73.50 127.52 73.23 122.88 74.18 C 116.12 76.36 109.36 79.22 104.08 84.09 M 446.42 146.17 C 446.31 177.72 446.34 209.29 446.41 240.84 C 447.99 242.08 449.68 240.59 451.07 239.82 C 454.21 238.34 457.54 237.27 460.67 235.75 C 474.54 230.46 487.75 223.61 501.71 218.54 C 503.13 218.19 503.42 216.25 503.15 215.03 C 501.15 200.01 494.48 185.13 483.01 174.99 C 474.09 165.38 463.07 158.11 452.48 150.52 C 450.51 149.00 449.08 146.49 446.42 146.17 M 59.20 156.13 C 53.18 160.01 47.54 164.46 42.06 169.06 C 36.40 174.45 30.21 179.58 26.54 186.62 C 20.67 195.89 15.79 206.69 16.75 217.86 C 33.44 225.61 50.86 231.75 67.58 239.53 C 69.16 240.31 70.87 240.89 72.66 240.84 C 72.76 210.89 72.61 180.93 72.73 150.98 C 72.53 149.48 73.17 147.61 72.01 146.40 C 67.47 149.27 63.66 153.14 59.20 156.13 M 15.61 235.51 C 15.23 242.66 15.56 249.83 15.46 257.00 C 15.46 314.33 15.45 371.66 15.46 428.99 C 15.85 436.66 17.29 444.30 19.60 451.62 C 22.93 458.79 26.46 466.18 32.45 471.55 C 36.44 475.17 39.78 479.84 44.87 482.00 C 47.28 484.57 50.66 485.78 53.83 487.13 C 61.20 489.96 69.02 492.26 77.00 491.70 C 200.02 491.66 323.04 491.70 446.06 491.69 C 449.20 491.57 452.77 491.66 455.21 489.34 C 461.12 488.46 466.53 485.67 471.87 483.13 C 474.31 481.88 476.99 480.93 479.06 479.06 C 479.95 478.37 479.75 476.72 478.97 476.02 C 473.95 470.66 468.22 466.06 462.61 461.35 C 455.84 455.14 449.67 448.27 442.47 442.54 C 433.93 435.77 427.05 427.21 418.48 420.50 C 410.11 413.94 403.35 405.63 395.15 398.88 C 391.55 395.85 388.50 392.22 384.80 389.30 C 380.30 385.83 376.71 381.35 372.29 377.79 C 367.85 374.24 364.19 369.85 359.72 366.34 C 355.48 362.93 352.00 358.72 347.86 355.20 C 342.48 350.92 337.95 345.70 332.53 341.46 C 323.65 334.39 316.30 325.65 307.55 318.44 C 302.29 312.88 295.46 309.27 288.99 305.33 C 264.66 292.90 232.52 297.65 213.39 317.35 C 207.61 321.88 202.84 327.54 197.01 332.02 C 189.60 337.88 183.29 344.94 176.38 351.35 C 171.02 355.99 165.42 360.35 160.49 365.46 C 155.51 369.47 151.10 374.10 146.44 378.45 C 138.86 384.45 132.57 391.86 125.34 398.25 C 120.03 402.62 115.47 407.82 110.01 412.01 C 101.10 419.05 93.89 427.95 85.00 435.00 C 75.42 442.67 67.66 452.35 57.88 459.78 C 55.48 461.66 52.01 462.09 49.29 460.65 C 45.02 458.78 44.52 452.49 47.12 449.08 C 55.42 441.40 63.96 433.97 72.02 426.03 C 77.76 421.47 82.80 416.13 88.04 411.04 C 91.81 407.12 96.27 403.95 100.03 400.02 C 105.31 394.59 111.66 390.36 116.96 384.96 C 122.65 379.31 128.30 373.60 134.54 368.55 C 143.22 361.61 150.28 352.90 159.02 346.03 C 167.20 339.60 173.82 331.47 181.83 324.86 C 186.63 320.79 191.71 316.94 195.66 311.98 C 195.35 311.64 194.74 310.95 194.44 310.60 C 188.13 308.18 182.20 304.81 175.73 302.86 C 173.55 302.05 171.80 300.35 169.56 299.69 C 164.23 298.32 159.66 295.11 154.39 293.58 C 147.88 290.09 140.73 288.13 134.17 284.80 C 127.26 282.32 120.82 278.76 114.01 276.07 C 82.22 262.84 50.84 248.52 18.87 235.71 C 18.05 235.66 16.42 235.56 15.61 235.51 M 485.65 241.88 C 473.23 248.03 459.97 252.26 447.56 258.46 C 431.15 264.92 415.31 272.72 398.97 279.25 C 384.17 285.11 369.78 291.96 355.13 298.19 C 345.65 301.53 336.73 306.26 327.23 309.53 C 325.91 310.03 324.61 310.59 323.46 311.40 C 323.59 313.48 325.82 314.51 327.07 315.95 C 333.64 321.35 339.41 327.62 346.08 332.91 C 354.39 339.56 361.08 347.99 369.49 354.52 C 378.60 361.68 385.89 370.83 395.01 377.99 C 403.95 384.99 411.07 393.99 420.00 401.00 C 428.62 407.65 435.45 416.27 443.95 423.07 C 449.92 429.11 456.72 434.25 462.57 440.42 C 468.66 445.32 473.85 451.19 479.99 456.03 C 484.07 459.30 487.01 464.07 491.70 466.51 C 493.74 464.09 495.03 461.18 496.39 458.35 C 500.89 448.90 503.88 438.53 503.53 427.99 C 503.46 363.83 503.72 299.66 503.40 235.51 C 496.95 235.50 491.68 240.11 485.65 241.88 Z" />
<path fill="#112a5d" opacity="0.52" d=" M 141.86 114.93 C 143.89 113.33 146.36 112.34 148.98 112.47 C 200.99 112.48 253.01 112.51 305.03 112.46 C 310.22 112.15 314.93 117.47 313.67 122.62 C 313.10 127.18 308.17 129.45 304.05 129.59 C 252.69 129.69 201.33 129.53 149.97 129.63 C 146.85 129.20 144.16 131.04 142.63 133.63 C 140.56 136.12 141.53 139.46 141.59 142.38 C 138.02 137.29 141.80 130.03 147.42 128.56 C 152.82 127.10 158.47 127.47 164.00 127.44 C 211.01 127.50 258.02 127.43 305.02 127.49 C 307.28 127.38 310.07 127.44 311.50 125.32 C 313.56 122.02 313.06 116.55 309.15 114.82 C 305.30 113.28 301.03 113.94 297.00 113.82 C 249.67 113.87 202.34 113.85 155.01 113.83 C 150.60 113.89 146.22 114.35 141.86 114.93 Z" />
<path fill="#1e479c" opacity="1.00" d=" M 141.86 114.93 C 146.22 114.35 150.60 113.89 155.01 113.83 C 202.34 113.85 249.67 113.87 297.00 113.82 C 301.03 113.94 305.30 113.28 309.15 114.82 C 313.06 116.55 313.56 122.02 311.50 125.32 C 310.07 127.44 307.28 127.38 305.02 127.49 C 258.02 127.43 211.01 127.50 164.00 127.44 C 158.47 127.47 152.82 127.10 147.42 128.56 C 141.80 130.03 138.02 137.29 141.59 142.38 C 143.84 145.17 147.36 146.93 150.99 146.63 C 223.67 146.62 296.35 146.57 369.02 146.58 C 373.38 146.87 377.90 143.51 378.37 139.05 C 379.01 134.75 375.70 131.02 372.37 128.79 C 361.26 128.03 350.06 129.17 338.96 128.19 C 331.43 127.43 331.47 114.49 338.93 113.64 C 345.94 113.20 352.98 113.52 360.00 113.43 C 365.73 113.57 371.64 112.78 377.16 114.73 C 384.16 116.43 389.04 122.48 392.10 128.66 C 394.18 134.41 393.91 140.81 392.22 146.63 C 389.72 152.43 385.46 158.09 379.20 160.07 C 372.91 161.54 366.42 161.53 360.00 161.42 C 293.34 161.41 226.67 161.42 160.00 161.41 C 155.65 161.39 151.30 161.62 146.96 161.23 C 142.67 160.92 138.82 158.84 135.07 156.90 C 122.48 148.46 122.28 127.22 134.81 118.70 C 136.90 117.05 139.12 115.32 141.86 114.93 Z" />
<path fill="#112a5d" opacity="0.52" d=" M 135.07 156.90 C 138.82 158.84 142.67 160.92 146.96 161.23 C 151.30 161.62 155.65 161.39 160.00 161.41 C 226.67 161.42 293.34 161.41 360.00 161.42 C 366.42 161.53 372.91 161.54 379.20 160.07 C 374.74 162.94 369.13 163.04 364.00 163.34 C 294.00 163.32 224.00 163.32 154.00 163.33 C 150.07 163.29 146.21 162.45 142.45 161.40 C 139.68 160.53 136.61 159.57 135.07 156.90 Z" />
<path fill="#112a5d" opacity="0.52" d=" M 0.00 210.63 C 3.67 199.89 5.59 188.01 13.07 179.02 C 10.57 184.87 7.37 190.42 5.39 196.49 C 0.02 211.37 1.40 227.47 1.22 243.00 C 1.38 249.67 0.75 256.33 0.77 263.00 C 0.84 307.00 0.70 351.00 0.83 395.00 C 1.97 411.25 0.08 427.63 2.38 443.81 C 3.22 450.47 6.15 456.56 8.03 462.94 C 3.46 456.55 2.82 448.54 0.00 441.41 L 0.00 210.63 Z" />
<path fill="#112a5d" opacity="0.52" d=" M 509.09 183.92 C 513.39 189.42 515.01 196.36 516.96 202.91 C 518.52 207.76 518.17 212.99 520.00 217.76 L 520.00 435.19 C 517.85 441.42 518.28 448.33 515.01 454.23 C 515.74 448.15 517.75 442.24 517.73 436.08 C 517.75 363.02 517.75 289.97 517.73 216.92 C 517.61 205.36 513.42 194.46 509.09 183.92 Z" />
<path fill="#1e479c" opacity="1.00" d=" M 142.51 198.72 C 146.29 197.93 150.14 197.51 154.01 197.56 C 192.00 197.54 230.00 197.56 268.00 197.62 C 272.60 197.75 277.22 198.87 281.33 200.95 C 286.24 204.39 290.39 209.25 292.22 215.03 C 292.84 219.66 292.83 224.43 292.17 229.06 C 289.68 235.84 284.60 242.21 277.59 244.63 C 273.90 246.07 269.86 245.62 266.00 245.75 C 226.33 245.62 186.67 245.80 147.01 245.66 C 140.69 246.04 135.37 242.07 131.14 237.84 C 124.92 230.66 124.06 219.99 127.59 211.39 C 130.98 205.75 135.99 200.53 142.51 198.72 M 149.43 212.67 C 147.03 213.17 144.55 213.95 142.67 215.59 C 141.27 218.62 139.59 222.36 141.42 225.58 C 143.12 229.60 147.73 231.73 151.93 231.61 C 187.95 231.53 223.98 231.59 260.00 231.57 C 263.48 231.49 267.01 231.90 270.46 231.30 C 274.08 229.61 278.46 226.60 277.75 222.01 C 278.45 217.70 274.58 214.74 271.28 212.86 C 268.26 212.03 265.08 212.50 261.99 212.41 C 228.00 212.44 194.00 212.41 160.00 212.42 C 156.48 212.46 152.93 212.17 149.43 212.67 Z" />
<path fill="#20dca5" opacity="1.00" d=" M 149.43 212.67 C 152.93 212.17 156.48 212.46 160.00 212.42 C 194.00 212.41 228.00 212.44 261.99 212.41 C 265.08 212.50 268.26 212.03 271.28 212.86 C 274.58 214.74 278.45 217.70 277.75 222.01 C 278.46 226.60 274.08 229.61 270.46 231.30 C 267.01 231.90 263.48 231.49 260.00 231.57 C 223.98 231.59 187.95 231.53 151.93 231.61 C 147.73 231.73 143.12 229.60 141.42 225.58 C 139.59 222.36 141.27 218.62 142.67 215.59 C 144.55 213.95 147.03 213.17 149.43 212.67 Z" />
<path fill="#112a5d" opacity="0.52" d=" M 44.87 482.00 C 50.67 484.24 56.15 487.40 62.25 488.82 C 66.43 489.79 70.71 490.35 75.00 490.44 C 197.34 490.44 319.69 490.45 442.02 490.44 C 446.43 490.20 450.79 489.36 455.21 489.34 C 452.77 491.66 449.20 491.57 446.06 491.69 C 323.04 491.70 200.02 491.66 77.00 491.70 C 69.02 492.26 61.20 489.96 53.83 487.13 C 50.66 485.78 47.28 484.57 44.87 482.00 Z" />
</svg>
