<?xml version="1.0" encoding="UTF-8" ?>
<!DOCTYPE svg PUBLIC "-//W3C//DTD SVG 1.1//EN" "http://www.w3.org/Graphics/SVG/1.1/DTD/svg11.dtd">
<svg width="600pt" height="638pt" viewBox="0 0 600 638" version="1.1" xmlns="http://www.w3.org/2000/svg">
<path fill="#1e479c" opacity="1.00" d=" M 154.04 60.30 C 155.80 27.87 186.39 -0.25 219.00 1.35 C 227.05 0.77 234.97 3.15 243.01 2.34 C 241.33 2.64 239.66 2.95 237.98 3.28 C 248.32 5.00 258.60 6.96 268.95 8.58 C 277.32 9.48 285.50 12.52 294.03 11.33 C 292.35 11.64 290.68 11.95 289.01 12.28 C 295.65 13.32 302.31 14.57 309.06 14.53 C 307.01 14.87 304.97 15.22 302.94 15.57 C 313.16 14.42 322.86 19.15 333.02 18.39 C 331.33 18.70 329.64 19.01 327.95 19.32 C 333.15 19.90 338.38 20.25 343.55 21.06 C 349.23 22.72 355.10 23.93 361.06 23.46 C 358.68 23.81 356.30 24.17 353.92 24.51 C 360.18 24.13 366.33 25.80 372.60 25.50 C 370.38 25.90 368.15 26.18 365.92 26.47 C 371.17 26.26 376.33 27.59 381.58 27.44 C 381.21 28.05 380.84 28.66 380.48 29.27 C 390.88 28.52 400.77 32.46 411.10 32.66 C 409.20 32.95 407.29 33.18 405.41 33.52 C 411.34 33.23 417.17 34.62 423.10 34.63 C 421.05 34.96 419.00 35.28 416.95 35.59 C 426.15 34.93 434.98 38.03 444.02 39.08 C 457.29 41.39 471.25 42.83 483.05 49.87 C 491.43 54.44 498.31 61.33 504.12 68.81 C 509.00 75.77 512.47 83.68 514.90 91.80 C 516.70 100.39 516.99 109.32 515.79 118.01 C 515.47 120.69 515.48 123.39 515.51 126.08 C 515.16 124.04 514.81 122.00 514.49 119.96 C 514.69 126.36 512.85 132.66 513.64 139.07 C 513.26 136.73 512.84 134.40 512.49 132.05 C 511.58 139.37 510.71 146.71 510.42 154.08 C 510.09 151.70 509.75 149.32 509.42 146.93 C 510.00 153.36 508.19 159.67 508.47 166.10 C 508.13 163.72 507.77 161.34 507.45 158.96 C 508.01 170.49 504.27 181.58 503.36 192.98 C 503.05 190.97 502.72 188.95 502.41 186.94 C 502.89 192.68 501.80 198.35 501.30 204.05 C 500.99 202.36 500.69 200.66 500.40 198.97 C 500.92 205.05 499.19 211.01 499.49 217.08 C 499.15 215.04 498.80 213.00 498.47 210.96 C 498.84 218.45 496.84 225.75 495.74 233.10 C 495.33 236.99 495.14 240.90 494.77 244.80 C 494.39 243.85 494.01 242.91 493.62 241.98 C 493.20 247.00 492.26 251.99 492.54 257.05 C 492.22 255.00 491.88 252.97 491.55 250.93 C 491.71 256.99 490.02 262.95 490.61 269.02 C 490.31 267.32 490.00 265.62 489.69 263.92 C 489.20 272.74 486.95 281.31 485.75 290.03 C 484.96 295.67 483.10 301.20 483.54 306.96 C 483.21 305.96 482.88 304.98 482.56 303.99 C 482.45 313.45 478.24 322.48 479.65 332.03 C 479.36 330.33 479.07 328.63 478.78 326.94 C 478.15 331.30 477.45 335.64 476.90 340.02 C 476.20 346.37 473.81 352.55 474.61 359.03 C 474.30 357.33 473.98 355.64 473.67 353.95 C 473.00 360.39 472.74 366.94 471.08 373.23 C 470.24 377.19 470.45 381.33 469.10 385.19 C 467.69 389.33 467.25 393.70 467.54 398.06 C 467.19 396.01 466.84 393.97 466.51 391.93 C 466.78 398.00 465.03 403.95 465.61 410.03 C 465.30 408.33 464.99 406.63 464.68 404.94 C 464.16 415.11 460.80 424.87 460.31 435.06 C 459.99 433.36 459.69 431.67 459.40 429.99 C 459.50 433.27 459.75 436.68 458.57 439.82 C 455.21 448.39 450.40 456.40 444.31 463.30 C 440.82 467.12 436.34 470.04 433.50 474.43 C 430.13 479.65 426.50 484.72 422.34 489.33 C 419.87 492.06 416.77 494.17 414.52 497.11 C 414.90 504.79 417.47 512.27 417.66 520.00 C 417.79 526.01 417.83 532.02 417.70 538.03 C 417.19 549.81 411.64 560.60 404.95 570.03 C 396.26 580.97 384.32 589.66 370.72 593.25 C 370.59 593.53 370.34 594.10 370.21 594.39 C 365.09 594.52 360.05 595.65 354.92 595.57 C 356.81 595.86 358.71 596.12 360.60 596.50 C 354.67 596.29 348.85 597.84 342.92 597.47 C 344.81 597.79 346.71 598.09 348.60 598.50 C 340.81 597.66 333.68 601.47 326.02 601.72 C 322.33 602.16 318.64 602.61 314.92 602.54 C 317.30 602.87 319.69 603.23 322.08 603.57 C 316.01 603.05 310.05 604.68 303.99 604.51 C 305.67 604.83 307.35 605.15 309.03 605.47 C 303.13 605.42 297.32 606.88 291.40 606.49 C 293.61 606.90 295.83 607.18 298.06 607.47 C 291.72 607.31 285.51 609.10 279.15 608.57 C 280.03 609.21 280.90 609.86 281.78 610.51 C 275.78 610.04 269.91 611.72 263.92 611.55 C 266.15 611.83 268.38 612.10 270.60 612.50 C 264.34 612.16 258.20 613.88 251.94 613.43 C 253.99 613.74 256.03 614.08 258.08 614.42 C 250.19 613.87 242.86 617.28 235.09 617.87 C 227.81 619.41 220.40 620.57 212.95 620.50 C 214.98 620.82 217.02 621.17 219.06 621.50 C 213.14 621.25 207.33 622.79 201.41 622.50 C 203.28 622.88 205.18 623.16 207.07 623.48 C 201.67 623.17 196.37 624.28 191.22 625.75 C 179.92 627.57 168.63 629.58 157.34 631.52 C 153.04 632.94 148.56 633.40 144.09 633.89 C 137.55 635.79 130.72 635.69 124.00 636.39 C 115.94 636.38 107.63 635.97 100.09 632.84 C 84.55 627.46 70.77 616.29 63.27 601.54 C 60.82 597.46 58.91 593.02 58.41 588.25 C 58.12 588.76 57.84 589.27 57.55 589.79 C 56.08 580.41 54.31 571.07 52.49 561.75 C 51.63 555.31 50.55 548.61 51.84 542.18 C 55.18 537.40 63.76 536.76 67.31 541.63 C 70.14 547.59 70.27 554.32 70.97 560.76 C 73.58 569.63 73.82 579.08 77.30 587.72 C 83.59 602.84 97.79 614.50 113.97 617.30 C 118.90 617.73 123.91 617.85 128.82 617.14 C 135.80 615.76 142.85 614.23 150.00 614.57 C 148.31 614.26 146.62 613.94 144.94 613.61 C 150.52 613.53 156.01 612.30 161.60 612.50 C 159.71 612.10 157.81 611.83 155.92 611.52 C 166.78 611.78 177.11 607.47 187.98 607.38 C 186.65 607.06 185.33 606.75 184.01 606.44 C 189.74 606.86 195.35 605.30 201.06 605.46 C 199.02 605.13 196.98 604.78 194.94 604.46 C 201.03 604.84 206.99 603.14 213.08 603.52 C 211.04 603.18 209.00 602.84 206.96 602.52 C 213.67 602.16 220.49 601.91 227.05 600.42 C 225.36 600.04 223.67 599.67 221.97 599.33 C 228.38 600.21 234.67 598.25 241.07 598.48 C 238.69 598.15 236.31 597.79 233.93 597.45 C 240.19 597.95 246.34 596.27 252.60 596.49 C 250.39 596.07 248.16 595.78 245.94 595.48 C 252.02 595.82 257.98 594.17 264.07 594.47 C 262.03 594.12 259.99 593.78 257.96 593.48 C 264.20 593.68 270.33 591.96 276.59 592.53 C 274.73 592.16 272.85 591.88 270.97 591.59 C 277.91 590.30 285.00 589.72 292.05 589.51 C 290.00 589.18 287.96 588.83 285.93 588.50 C 291.85 588.80 297.67 587.27 303.59 587.50 C 301.71 587.12 299.81 586.84 297.92 586.56 C 303.99 586.59 309.96 585.21 316.03 585.24 C 316.26 584.67 316.49 584.10 316.73 583.55 C 321.20 583.58 325.60 582.70 330.04 582.29 C 328.35 581.98 326.66 581.68 324.97 581.39 C 330.31 581.79 335.63 581.11 340.88 580.19 C 345.54 578.24 350.65 578.47 355.59 578.53 C 353.70 578.18 351.79 577.96 349.90 577.67 C 353.29 577.51 356.68 577.18 360.04 576.66 C 375.33 574.02 388.76 563.45 395.35 549.45 C 400.62 539.45 400.57 527.56 398.26 516.75 C 397.46 512.88 397.35 508.92 397.23 504.99 C 396.67 504.74 396.11 504.51 395.56 504.28 C 395.48 499.84 394.59 495.47 394.40 491.04 C 394.09 492.35 393.78 493.67 393.47 494.99 C 393.80 489.27 392.22 483.66 392.52 477.94 C 392.19 479.98 391.85 482.02 391.52 484.06 C 391.74 477.99 390.08 472.02 390.57 465.94 C 390.25 467.98 389.92 470.01 389.61 472.06 C 389.58 467.08 388.41 462.18 388.53 457.20 C 388.18 457.69 387.85 458.18 387.51 458.68 C 386.73 452.44 385.80 446.21 385.32 439.94 C 385.00 441.63 384.69 443.33 384.39 445.03 C 384.97 438.96 383.26 433.00 383.47 426.94 C 383.13 428.98 382.78 431.02 382.45 433.06 C 383.19 424.86 379.73 417.09 379.52 408.96 C 379.43 406.25 378.90 403.60 378.32 400.97 C 378.04 402.51 377.78 404.06 377.47 405.60 C 378.08 392.89 373.16 380.75 372.51 368.13 C 372.08 368.62 371.65 369.11 371.23 369.61 C 370.79 365.75 370.60 361.87 370.35 358.00 C 369.81 350.58 366.85 343.45 367.57 335.94 C 367.23 337.98 366.89 340.03 366.56 342.07 C 366.70 336.01 365.03 330.05 365.60 323.97 C 365.31 325.66 365.01 327.36 364.71 329.05 C 364.15 323.38 362.94 317.72 363.69 312.00 C 363.32 313.36 362.93 314.71 362.55 316.07 C 360.97 310.18 361.20 303.97 360.32 297.96 C 360.01 299.65 359.70 301.34 359.40 303.03 C 359.94 296.96 358.19 291.01 358.52 284.94 C 358.18 286.98 357.82 289.01 357.47 291.05 C 358.15 285.13 356.16 279.52 354.85 273.86 C 354.45 268.87 353.98 263.90 353.29 258.94 C 352.97 260.64 352.66 262.33 352.36 264.03 C 352.79 258.77 352.35 253.49 351.17 248.35 C 349.75 242.27 349.48 235.98 347.88 229.94 C 346.63 225.01 345.65 220.02 345.17 214.96 C 343.49 204.68 339.76 194.24 332.16 186.84 C 325.74 179.91 317.31 174.85 308.09 172.76 C 303.09 172.15 298.03 172.41 293.00 172.40 C 287.63 172.30 282.36 173.77 276.99 173.44 C 278.68 173.74 280.37 174.05 282.06 174.38 C 276.32 174.37 270.68 175.75 264.93 175.53 C 267.31 175.86 269.69 176.21 272.08 176.55 C 265.65 176.11 259.34 177.97 252.91 177.45 C 255.29 177.80 257.67 178.16 260.06 178.49 C 253.33 178.76 246.47 179.04 239.92 180.59 C 241.62 180.97 243.33 181.35 245.04 181.69 C 241.76 181.41 238.41 181.21 235.18 181.99 C 228.39 183.64 221.40 184.53 214.40 184.50 C 216.28 184.88 218.17 185.16 220.07 185.46 C 213.99 185.33 208.01 186.97 201.92 186.41 C 203.97 186.72 206.01 187.04 208.06 187.35 C 201.37 187.94 194.60 188.25 188.04 189.73 C 189.70 190.03 191.36 190.33 193.04 190.62 C 186.96 189.96 181.00 191.66 174.94 191.50 C 176.83 191.80 178.72 192.09 180.60 192.49 C 174.61 191.98 168.91 194.08 163.02 194.67 C 157.56 195.17 152.56 197.88 146.98 197.62 C 139.40 199.24 131.71 200.46 123.94 200.58 C 125.99 200.91 128.03 201.25 130.08 201.58 C 126.76 201.43 123.40 201.42 120.15 202.23 C 112.84 203.95 105.33 204.48 97.94 205.77 C 99.63 206.07 101.33 206.36 103.02 206.65 C 96.78 205.87 90.64 207.57 84.41 207.50 C 86.29 207.87 88.20 208.14 90.10 208.45 C 84.00 208.23 78.02 209.85 71.93 209.48 C 74.31 209.82 76.70 210.19 79.08 210.53 C 72.98 210.17 66.99 211.72 60.90 211.62 C 62.94 211.95 64.99 212.28 67.04 212.58 C 62.09 212.33 57.01 212.69 52.37 214.54 C 47.15 216.68 41.71 218.64 37.41 222.42 C 26.93 231.09 19.21 244.11 19.41 258.01 C 18.96 265.04 21.33 271.95 20.32 278.98 C 20.64 277.65 20.96 276.32 21.29 275.00 C 22.39 281.30 23.68 287.63 23.51 294.06 C 23.84 292.01 24.20 289.98 24.53 287.94 C 24.18 293.86 25.73 299.67 25.50 305.60 C 25.90 303.71 26.20 301.81 26.51 299.92 C 26.32 304.07 26.84 308.21 27.77 312.25 C 29.34 318.75 30.07 325.42 30.68 332.07 C 31.00 330.37 31.31 328.67 31.61 326.97 C 31.07 332.71 32.35 338.36 32.66 344.06 C 32.98 342.36 33.28 340.67 33.58 338.98 C 33.14 345.23 34.92 351.37 34.48 357.63 C 34.90 355.40 35.11 353.15 35.42 350.91 C 35.82 357.43 36.08 364.05 37.59 370.41 C 40.25 377.72 40.60 385.53 42.23 393.07 C 43.26 401.08 45.52 408.92 45.64 417.03 C 46.49 423.41 49.31 429.51 48.54 436.09 C 48.89 433.71 49.24 431.32 49.58 428.94 C 49.03 435.36 50.89 441.67 50.48 448.09 C 50.83 445.70 51.20 443.31 51.53 440.92 C 51.11 447.32 53.21 453.60 52.33 460.00 C 52.70 458.64 53.09 457.28 53.48 455.94 C 54.85 459.85 54.27 464.05 55.00 468.08 C 55.99 474.05 57.69 479.95 57.64 486.05 C 57.95 484.36 58.27 482.66 58.58 480.97 C 58.18 487.07 59.43 493.08 60.39 499.08 C 60.71 502.08 61.09 505.53 59.03 508.06 C 55.68 513.01 47.43 512.73 44.10 507.89 C 41.07 503.67 41.77 498.16 40.55 493.35 C 38.89 486.32 38.63 479.08 37.28 472.01 C 36.96 473.68 36.65 475.35 36.36 477.02 C 37.07 470.95 35.48 464.99 35.38 458.94 C 35.07 460.98 34.75 463.03 34.43 465.08 C 34.92 458.99 33.20 453.02 33.52 446.94 C 33.20 448.98 32.85 451.02 32.52 453.06 C 32.63 442.53 29.85 432.31 28.52 421.96 C 28.12 423.30 27.71 424.65 27.33 426.01 C 28.17 418.55 26.27 411.24 24.96 403.96 C 24.41 399.73 23.82 395.50 22.61 391.39 C 22.81 387.46 22.15 383.59 21.31 379.77 C 17.65 357.15 13.25 334.67 9.61 312.05 C 6.99 295.71 3.21 279.53 1.63 263.03 C 1.23 252.33 2.73 241.31 7.60 231.65 C 10.22 225.59 14.54 220.53 18.02 214.97 C 22.50 210.07 27.79 206.00 33.34 202.40 C 40.75 198.07 49.08 195.62 57.44 193.88 C 63.11 192.72 69.11 192.98 74.47 190.52 C 74.27 169.35 74.41 148.18 74.38 127.00 C 74.28 121.66 74.83 116.34 75.74 111.09 C 79.32 103.89 81.36 95.84 86.53 89.51 C 91.35 82.71 97.62 77.14 104.50 72.49 C 109.62 68.44 115.87 66.33 121.96 64.26 C 131.42 62.03 141.19 62.36 150.84 62.31 C 152.25 62.48 153.48 61.56 154.04 60.30 M 175.80 48.69 C 174.25 52.83 171.88 57.07 172.76 61.64 C 184.84 61.49 196.92 61.62 209.01 61.71 C 215.63 62.66 222.33 62.26 229.00 62.33 C 274.67 62.34 320.34 62.31 366.00 62.34 C 369.02 62.44 371.98 61.51 375.00 61.81 C 381.05 62.74 387.34 62.15 393.21 64.14 C 396.46 65.51 399.75 66.76 403.00 68.12 C 415.38 74.28 425.85 84.11 432.53 96.25 C 432.73 96.37 433.14 96.61 433.35 96.73 C 434.49 100.53 436.44 104.07 436.98 108.04 C 437.46 108.25 437.93 108.45 438.42 108.66 C 438.89 113.48 440.72 118.11 440.60 123.00 C 440.70 132.68 440.67 142.37 440.59 152.05 C 440.75 155.49 438.31 159.01 434.94 159.88 C 431.91 161.20 428.70 160.01 425.72 159.23 C 423.83 157.16 421.55 154.94 421.70 151.88 C 421.22 138.79 422.65 125.59 420.26 112.63 C 419.89 112.33 419.16 111.72 418.80 111.42 C 414.04 97.51 401.74 86.49 387.62 82.62 C 387.56 82.35 387.44 81.80 387.38 81.52 C 381.55 81.92 375.83 80.20 370.00 80.60 C 295.33 80.57 220.67 80.59 146.00 80.60 C 139.80 80.19 133.73 81.73 127.54 81.64 C 127.25 82.03 126.66 82.80 126.37 83.19 C 113.22 86.50 102.28 96.80 96.90 109.11 C 94.82 113.44 93.19 118.13 93.35 123.00 C 93.33 144.22 93.27 165.45 93.37 186.68 C 99.64 187.09 105.75 185.01 112.01 185.58 C 109.99 185.21 107.98 184.84 105.97 184.46 C 115.79 185.39 125.09 180.41 134.89 181.65 C 133.96 181.30 133.04 180.95 132.12 180.60 C 136.86 179.50 141.80 179.62 146.40 177.92 C 151.93 177.37 157.45 176.30 163.03 176.51 C 161.02 176.14 159.01 175.78 157.00 175.41 C 161.56 175.78 166.17 175.37 170.46 173.71 C 173.18 172.58 176.14 172.60 179.03 172.52 C 181.81 172.56 184.24 170.89 186.97 170.67 C 193.38 170.34 199.83 169.69 206.04 168.01 C 208.77 167.31 211.62 167.41 214.42 167.48 C 214.43 167.18 214.45 166.57 214.46 166.27 C 219.12 165.69 223.75 164.82 228.43 164.43 C 228.46 164.20 228.51 163.75 228.53 163.52 C 233.13 163.70 237.41 161.68 241.96 161.45 C 246.10 161.04 250.22 160.19 254.41 160.45 C 254.42 160.15 254.43 159.56 254.44 159.26 C 258.40 158.54 262.44 158.28 266.46 158.50 C 266.44 158.11 266.40 157.33 266.38 156.94 C 271.28 156.80 276.08 155.80 280.95 155.39 C 279.63 155.07 278.33 154.74 277.02 154.41 C 281.04 154.78 285.05 154.32 289.01 153.60 C 297.82 153.04 306.79 153.00 315.46 154.94 C 319.50 156.20 323.24 158.23 327.27 159.55 C 327.36 159.83 327.56 160.40 327.66 160.69 C 328.77 161.01 329.89 161.33 331.01 161.66 C 333.12 163.72 335.64 165.27 338.04 166.97 C 345.81 172.87 351.90 180.67 356.88 189.00 C 358.40 191.66 359.38 194.63 359.54 197.70 C 359.98 197.23 360.43 196.76 360.88 196.30 C 361.17 200.05 362.15 203.68 363.17 207.29 C 363.51 212.96 365.63 218.32 365.78 224.01 C 367.38 230.02 368.24 236.21 368.50 242.43 C 369.08 242.56 369.66 242.70 370.24 242.84 C 370.37 246.18 370.19 249.58 370.92 252.86 C 372.73 259.08 373.13 265.59 373.64 272.01 C 373.97 270.34 374.30 268.66 374.63 266.99 C 373.89 273.05 376.10 278.96 375.41 285.01 C 375.78 283.00 376.15 280.99 376.53 278.98 C 375.98 284.58 377.47 290.00 379.13 295.28 C 379.44 300.55 380.11 305.79 380.70 311.04 C 381.02 309.36 381.33 307.68 381.65 306.01 C 380.90 311.73 382.49 317.34 382.66 323.04 C 382.99 321.36 383.31 319.69 383.64 318.01 C 382.89 324.06 385.04 329.96 384.47 336.01 C 384.85 334.01 385.21 332.00 385.56 330.00 C 385.17 334.90 386.29 339.72 386.76 344.57 C 388.10 350.97 389.99 357.39 389.44 364.00 C 389.79 361.99 390.16 359.98 390.55 357.98 C 389.95 364.04 392.05 369.95 391.45 376.01 C 391.83 373.66 392.21 371.32 392.58 368.98 C 391.93 375.37 394.23 381.61 393.37 388.01 C 393.71 385.99 394.05 383.98 394.41 381.96 C 394.47 388.00 396.18 393.93 395.38 400.00 C 395.63 398.33 395.85 396.67 396.11 395.02 C 397.74 401.52 398.46 408.31 398.44 415.01 C 398.80 413.00 399.17 410.99 399.56 408.98 C 399.00 414.71 400.84 420.29 400.57 426.02 C 400.93 424.01 401.27 422.01 401.61 420.00 C 401.48 423.01 401.28 426.07 402.08 429.01 C 403.89 436.58 404.93 444.32 405.69 452.05 C 406.02 450.37 406.34 448.68 406.66 447.01 C 405.37 456.05 409.58 464.70 408.67 473.74 C 413.54 473.82 414.66 468.17 416.52 464.73 C 416.80 464.64 417.37 464.45 417.65 464.36 C 417.98 462.89 418.31 461.43 418.65 459.97 C 419.31 459.28 420.15 458.62 420.29 457.61 C 421.31 453.14 421.95 448.57 422.33 444.01 C 422.47 359.84 422.16 275.68 422.54 191.52 C 423.97 190.26 425.31 188.81 427.11 188.06 C 432.08 186.16 440.33 187.53 440.57 194.07 C 440.85 268.38 440.61 342.69 440.74 417.00 C 440.87 420.07 441.38 423.11 441.74 426.16 C 443.62 422.80 443.60 418.83 443.43 415.09 C 443.74 416.03 444.06 416.97 444.39 417.91 C 445.67 411.81 444.74 405.34 447.21 399.53 C 448.34 395.12 448.69 390.55 448.45 386.01 C 448.81 388.35 449.18 390.68 449.57 393.02 C 448.85 386.63 451.13 380.39 450.36 374.01 C 450.68 375.68 451.00 377.35 451.33 379.03 C 451.67 373.34 453.07 367.72 452.37 361.99 C 452.63 363.66 452.90 365.33 453.24 367.00 C 453.93 365.79 454.45 364.48 454.36 363.06 C 454.40 356.63 455.39 350.24 456.95 344.01 C 457.73 341.07 457.51 338.01 457.40 335.01 C 457.76 337.01 458.12 339.02 458.49 341.02 C 458.09 334.97 460.17 329.07 459.35 323.01 C 459.67 324.69 459.98 326.36 460.31 328.04 C 460.73 322.36 462.10 316.73 461.34 311.01 C 461.64 312.67 461.92 314.33 462.23 316.00 C 463.29 309.38 464.63 302.72 464.48 295.99 C 464.84 298.00 465.20 300.00 465.58 302.01 C 464.88 295.96 467.02 290.06 466.44 284.01 C 466.80 286.00 467.17 288.00 467.54 290.00 C 467.06 283.96 469.20 278.05 468.36 272.01 C 468.67 273.68 468.99 275.35 469.32 277.03 C 469.63 270.38 471.29 263.87 471.50 257.24 C 471.82 257.78 472.16 258.33 472.50 258.88 C 472.51 253.89 473.98 249.02 473.42 244.02 C 473.77 246.35 474.15 248.69 474.54 251.03 C 473.94 244.63 476.18 238.39 475.36 231.99 C 475.67 234.01 475.99 236.03 476.34 238.04 C 476.40 234.18 477.06 230.37 477.49 226.54 C 477.71 226.48 478.15 226.35 478.38 226.29 C 479.39 219.23 480.46 212.13 480.49 205.00 C 480.85 207.33 481.22 209.66 481.60 212.00 C 480.79 205.60 483.05 199.37 482.44 192.98 C 482.80 195.32 483.18 197.66 483.57 200.01 C 482.93 193.94 485.03 188.03 484.47 181.97 C 484.85 183.98 485.22 185.99 485.58 188.01 C 485.49 185.68 485.40 183.33 485.81 181.02 C 486.73 176.09 486.46 171.03 487.50 166.12 C 487.78 168.43 488.23 170.71 488.64 173.00 C 487.68 166.61 489.82 160.36 489.51 153.99 C 489.88 156.32 490.24 158.66 490.61 161.00 C 489.80 154.61 492.03 148.37 491.45 141.99 C 491.83 144.32 492.21 146.66 492.58 149.00 C 492.07 143.33 493.53 137.78 493.75 132.13 C 495.02 128.23 496.07 124.22 495.39 120.07 C 495.72 121.01 496.06 121.96 496.41 122.91 C 498.09 110.61 499.19 97.02 492.41 85.95 C 490.48 82.79 488.84 79.41 486.36 76.62 C 480.37 69.64 472.15 65.05 463.67 61.77 C 459.52 60.83 455.27 60.24 451.01 60.56 C 453.34 60.21 455.68 59.84 458.01 59.45 C 451.61 60.09 445.37 57.88 438.98 58.58 C 441.32 58.20 443.67 57.83 446.03 57.45 C 438.29 57.41 430.45 56.77 423.01 54.62 C 415.25 54.18 407.88 50.62 399.99 51.56 C 401.99 51.19 404.00 50.82 406.02 50.44 C 399.97 51.03 394.07 48.86 388.02 49.63 C 389.69 49.30 391.36 48.97 393.03 48.63 C 387.17 48.46 381.35 47.51 375.76 45.75 C 370.81 45.52 365.94 44.32 360.97 44.45 C 362.98 44.10 364.99 43.74 367.00 43.38 C 357.47 44.55 348.47 40.18 338.98 40.33 C 329.76 38.06 320.47 35.86 310.95 35.30 C 312.62 34.97 314.30 34.66 315.98 34.35 C 305.49 35.67 295.48 30.34 285.00 31.66 C 286.68 31.34 288.36 31.03 290.04 30.70 C 284.37 30.18 278.73 28.87 273.00 29.68 C 274.68 29.37 276.36 29.07 278.03 28.76 C 271.35 28.05 264.77 26.13 257.99 26.51 C 260.00 26.14 262.00 25.78 264.01 25.42 C 257.95 26.07 252.03 23.94 245.97 24.57 C 247.98 24.18 249.99 23.81 252.00 23.44 C 245.95 23.93 240.05 21.77 233.99 22.64 C 235.66 22.31 237.34 22.00 239.02 21.68 C 232.03 20.96 225.07 19.91 218.01 20.26 C 199.68 19.36 182.74 32.17 175.80 48.69 Z" />
<path fill="#102756" opacity="0.46" d=" M 6.97 229.98 C 9.89 224.49 12.97 218.82 18.02 214.97 C 14.54 220.53 10.22 225.59 7.60 231.65 C 2.73 241.31 1.23 252.33 1.63 263.03 C 3.21 279.53 6.99 295.71 9.61 312.05 C 13.25 334.67 17.65 357.15 21.31 379.77 C 22.15 383.59 22.81 387.46 22.61 391.39 C 21.09 388.49 20.32 385.30 20.04 382.05 C 13.96 348.05 8.16 314.01 2.27 279.98 C 1.94 277.57 1.03 275.32 0.00 273.14 L 0.00 246.90 C 3.05 241.57 4.06 235.38 6.97 229.98 Z" />
<path fill="#1e479c" opacity="1.00" d=" M 240.10 222.02 C 243.28 217.56 251.19 216.74 254.49 221.48 C 256.45 224.09 257.07 227.37 257.74 230.49 C 262.24 230.62 267.36 229.77 271.14 232.83 C 274.27 235.20 273.84 239.54 273.48 242.99 C 271.95 248.01 266.21 249.53 261.56 249.78 C 261.04 254.32 263.06 259.90 259.56 263.56 C 257.06 266.75 252.47 265.62 248.97 265.48 C 244.69 263.64 243.27 258.62 242.34 254.43 C 237.93 253.98 232.47 255.56 229.05 251.96 C 225.64 248.82 225.95 243.45 227.56 239.49 C 230.35 236.30 234.95 235.75 238.38 233.42 C 238.51 229.60 237.67 225.31 240.10 222.02 Z" />
<path fill="#1e479c" opacity="1.00" d=" M 172.02 233.00 C 176.51 228.55 183.22 229.06 189.00 229.64 C 193.06 230.94 195.89 234.37 198.13 237.82 C 200.49 241.51 202.91 245.16 204.99 249.02 C 205.43 249.29 205.87 249.57 206.32 249.85 C 211.66 259.19 217.75 268.10 223.49 277.21 C 223.71 277.37 224.13 277.69 224.35 277.85 C 229.27 287.23 235.69 295.72 241.30 304.69 C 243.08 307.84 244.85 311.04 247.25 313.78 C 247.65 314.96 248.07 316.14 248.47 317.32 C 248.84 317.39 249.59 317.51 249.96 317.57 C 250.66 321.50 251.82 326.46 248.62 329.63 C 246.21 332.42 242.19 331.61 238.94 331.58 C 236.86 331.75 235.61 329.94 234.40 328.57 C 232.08 325.54 230.27 322.15 227.81 319.21 C 227.32 318.14 226.83 317.07 226.34 316.01 C 224.41 313.90 223.18 311.31 221.78 308.85 C 216.64 307.56 211.27 309.14 206.11 309.69 C 196.44 311.89 186.55 312.90 176.91 315.22 C 175.11 315.55 173.27 315.56 171.44 315.61 C 170.69 316.45 169.93 317.27 169.27 318.18 C 165.37 326.37 166.99 336.30 162.12 344.14 C 158.98 349.01 151.14 348.71 147.67 344.36 C 144.03 341.08 145.62 335.73 146.28 331.53 C 146.58 331.51 147.18 331.45 147.48 331.43 C 147.38 327.61 148.31 323.88 148.57 320.09 C 148.89 321.02 149.20 321.97 149.51 322.91 C 149.31 318.60 150.79 314.41 150.44 310.10 C 150.76 311.04 151.08 311.98 151.41 312.93 C 151.69 308.43 152.62 304.01 153.82 299.68 C 154.82 296.23 154.30 292.53 155.61 289.14 C 155.95 290.42 156.29 291.70 156.61 292.98 C 155.83 286.07 158.78 279.56 159.91 272.86 C 161.58 268.16 161.15 263.08 162.70 258.36 C 163.68 255.05 163.98 251.59 164.35 248.17 C 164.66 249.80 165.04 251.42 165.45 253.03 C 165.54 246.00 165.91 237.67 172.02 233.00 M 181.50 265.44 C 181.23 265.46 180.69 265.52 180.42 265.54 C 179.81 269.88 179.12 274.19 177.74 278.36 C 176.77 283.77 175.82 289.21 175.16 294.67 C 186.62 295.49 197.73 292.11 208.93 290.32 C 208.16 288.49 207.29 286.72 206.34 284.99 C 203.36 281.74 201.50 277.67 199.03 274.06 C 194.13 266.86 189.99 259.18 184.84 252.15 C 181.61 255.70 181.75 260.93 181.50 265.44 Z" />
<path fill="#1e479c" opacity="1.00" d=" M 294.54 363.71 C 305.12 363.93 315.41 359.93 326.00 361.50 C 332.64 364.60 331.79 375.40 325.06 377.89 C 316.37 380.50 307.33 381.67 298.40 383.23 C 293.19 383.77 288.27 385.87 282.96 385.71 C 275.12 387.47 267.08 389.29 259.00 388.32 C 253.92 386.09 253.60 379.79 254.88 375.13 C 256.39 372.92 258.74 371.52 260.81 369.89 C 266.76 369.48 272.58 368.13 278.52 367.58 C 278.54 367.33 278.59 366.83 278.61 366.58 C 283.32 366.87 287.88 365.45 292.57 365.37 C 293.23 364.82 293.88 364.26 294.54 363.71 Z" />
<path fill="#1e479c" opacity="1.00" d=" M 214.05 378.91 C 219.78 378.18 225.37 376.67 231.05 375.62 C 234.57 375.02 238.79 375.94 240.90 379.05 C 243.27 381.70 243.07 385.67 242.20 388.88 C 240.22 391.86 237.07 394.10 233.65 395.11 C 225.43 395.82 217.31 398.24 209.01 397.33 C 210.69 397.64 212.37 397.94 214.05 398.26 C 207.34 398.85 200.75 400.84 193.97 400.48 C 195.99 400.83 198.00 401.21 200.01 401.59 C 193.95 400.86 188.04 403.00 181.98 402.44 C 183.99 402.80 185.99 403.17 188.00 403.55 C 184.71 403.41 181.37 403.38 178.18 404.30 C 172.08 406.03 165.53 405.60 159.63 408.09 C 154.40 408.53 149.19 409.20 143.96 409.68 C 145.63 410.00 147.31 410.31 148.98 410.64 C 143.95 410.08 138.98 411.09 134.00 411.63 C 134.96 411.97 135.92 412.31 136.88 412.64 C 132.74 412.10 128.64 412.91 124.56 413.48 C 124.48 413.72 124.32 414.22 124.24 414.47 C 117.87 415.71 111.33 415.52 104.94 416.74 C 106.62 417.05 108.29 417.35 109.97 417.66 C 103.55 416.38 97.09 420.03 90.84 417.54 C 89.46 415.50 87.15 413.74 87.26 411.06 C 86.77 406.73 87.81 401.14 92.73 399.98 C 96.59 399.56 100.36 398.76 104.10 397.73 C 109.43 397.58 114.66 396.13 120.01 396.54 C 117.66 396.16 115.32 395.78 112.98 395.40 C 119.37 396.16 125.60 393.89 131.99 394.58 C 129.65 394.21 127.31 393.83 124.98 393.47 C 129.66 393.87 134.25 392.71 138.91 392.49 C 138.39 392.13 137.87 391.78 137.35 391.43 C 143.90 390.52 150.50 390.29 157.04 389.29 C 155.36 388.97 153.68 388.66 152.00 388.34 C 158.06 389.24 163.97 387.18 170.02 387.49 C 168.01 387.12 166.01 386.76 164.00 386.40 C 170.05 387.10 175.95 384.96 181.99 385.55 C 179.99 385.17 177.99 384.81 175.98 384.45 C 181.09 384.68 186.32 384.20 191.11 382.33 C 194.47 380.95 198.28 382.12 201.65 380.74 C 205.59 379.10 209.93 379.69 214.05 378.91 Z" />
<path fill="#1e479c" opacity="1.00" d=" M 296.99 409.44 C 303.86 410.10 310.45 407.79 317.10 406.61 C 322.81 406.50 329.01 403.67 334.40 406.63 C 336.86 408.64 338.97 411.69 338.53 415.03 C 338.69 419.94 333.85 423.11 329.62 424.26 C 324.73 424.54 319.92 425.80 315.00 425.46 C 317.00 425.81 319.01 426.18 321.01 426.57 C 314.95 425.87 309.04 428.03 302.99 427.42 C 305.00 427.78 307.02 428.14 309.03 428.52 C 302.98 428.08 297.06 430.15 290.99 429.38 C 293.00 429.74 295.01 430.09 297.02 430.45 C 291.18 430.31 285.39 431.35 279.90 433.27 C 274.56 433.34 269.34 434.80 263.99 434.47 C 266.00 434.83 268.01 435.20 270.03 435.58 C 263.97 434.89 258.06 437.04 252.01 436.43 C 254.00 436.79 256.00 437.16 258.00 437.53 C 253.40 437.28 248.74 437.70 244.38 439.28 C 240.33 441.00 235.79 439.96 231.65 441.37 C 227.53 442.69 223.16 442.46 218.94 443.21 C 213.65 443.79 208.57 445.95 203.17 445.44 C 203.71 445.80 204.26 446.16 204.80 446.53 C 195.50 446.65 186.36 450.13 177.01 448.43 C 172.02 446.03 170.77 438.51 174.56 434.51 C 177.51 430.18 183.36 430.74 187.97 430.46 C 186.66 430.10 185.34 429.75 184.03 429.41 C 189.73 430.03 195.29 428.03 201.00 428.53 C 199.00 428.16 196.99 427.79 194.99 427.43 C 201.48 428.27 207.61 425.67 213.97 425.04 C 218.25 424.47 222.57 424.30 226.81 423.43 C 225.90 423.09 224.98 422.75 224.07 422.42 C 229.12 422.95 234.04 421.52 239.05 421.33 C 237.37 421.00 235.68 420.67 234.00 420.35 C 240.06 421.17 245.97 419.05 252.03 419.51 C 250.02 419.13 248.01 418.76 246.00 418.40 C 252.23 419.43 258.04 416.81 263.99 415.67 C 273.19 416.11 281.85 411.91 291.04 412.50 C 289.02 412.12 287.00 411.75 284.99 411.40 C 291.05 412.10 296.96 409.93 303.03 410.57 C 301.01 410.18 299.00 409.81 296.99 409.44 Z" />
<path fill="#1e479c" opacity="1.00" d=" M 123.94 440.57 C 134.15 440.48 143.88 436.15 154.09 436.46 C 161.29 437.01 164.18 447.43 158.99 452.04 C 155.38 455.81 149.78 455.56 145.01 456.37 C 137.91 456.98 131.10 459.51 123.95 459.68 C 125.62 460.01 127.30 460.33 128.98 460.65 C 120.18 459.60 111.76 463.52 102.95 462.76 C 99.76 463.16 96.58 460.97 95.55 458.02 C 95.24 454.06 94.31 448.84 98.39 446.46 C 103.93 443.66 110.33 443.05 116.44 442.54 C 116.52 442.28 116.68 441.76 116.76 441.50 C 119.13 441.07 121.51 440.57 123.94 440.57 Z" />
<path fill="#1e479c" opacity="1.00" d=" M 519.59 444.71 C 525.15 444.84 530.65 444.03 536.06 442.80 C 539.60 441.98 543.14 442.84 546.46 444.11 C 564.75 445.92 581.59 457.69 589.97 474.00 C 592.82 479.94 595.58 486.16 595.66 492.86 C 597.35 499.83 596.82 507.06 595.61 514.06 C 595.41 517.66 592.92 520.71 593.28 524.40 C 592.84 524.66 591.95 525.18 591.51 525.44 C 591.14 527.07 590.76 528.70 590.42 530.34 C 590.17 530.43 589.68 530.60 589.43 530.68 C 583.78 540.26 575.57 548.35 565.89 553.82 C 562.72 555.57 558.68 555.78 556.06 558.43 C 551.11 557.67 546.90 561.13 542.01 560.50 C 538.03 560.12 534.01 560.70 530.07 560.24 C 526.32 558.92 522.42 558.21 518.45 558.49 C 518.16 558.06 517.59 557.21 517.30 556.78 C 513.35 554.91 508.62 553.92 506.18 549.93 C 502.13 548.68 499.44 545.31 496.34 542.66 C 491.85 538.68 489.33 533.11 485.71 528.43 C 478.71 517.66 478.94 504.36 479.86 492.06 C 480.62 488.64 481.67 485.27 481.81 481.75 C 486.07 476.80 488.20 470.45 492.36 465.42 C 496.27 460.67 500.34 455.68 506.00 452.96 C 507.54 452.20 509.04 451.33 510.25 450.08 C 513.84 449.25 517.05 447.39 519.59 444.71 M 531.34 459.25 C 526.58 460.99 521.23 460.98 516.91 463.86 C 507.46 468.74 500.35 477.59 497.55 487.84 C 495.35 492.60 495.37 497.86 495.13 502.99 C 494.98 509.59 497.95 515.66 500.19 521.70 C 505.53 531.31 514.31 539.24 524.96 542.37 C 528.62 543.01 531.95 545.39 535.79 544.80 C 541.03 544.07 546.73 545.44 551.49 542.57 C 555.92 540.21 561.14 539.33 565.05 536.02 C 571.07 530.38 575.83 523.42 579.04 515.83 C 580.35 510.66 580.63 505.28 581.33 500.00 C 581.04 495.16 579.77 490.40 578.35 485.79 C 576.31 481.34 574.72 476.34 570.74 473.21 C 568.24 471.02 566.36 468.14 563.47 466.42 C 557.15 462.29 549.77 459.30 542.13 459.39 C 538.54 459.22 534.84 457.76 531.34 459.25 Z" />
<path fill="#1e479c" opacity="1.00" d=" M 315.00 452.36 C 322.79 453.34 330.32 450.28 338.06 450.40 C 341.69 450.23 345.59 453.17 345.63 456.94 C 345.63 459.73 346.18 462.94 344.29 465.29 C 342.71 467.73 339.99 469.48 337.02 469.37 C 330.53 469.34 324.38 471.63 317.99 472.37 C 314.59 472.74 311.43 474.32 307.99 474.43 C 303.30 474.56 298.71 475.89 293.99 475.50 C 296.32 475.85 298.66 476.22 300.99 476.60 C 291.98 475.48 283.34 479.63 274.33 478.53 C 273.09 477.02 271.78 475.56 270.78 473.88 C 269.76 469.35 269.78 463.10 274.80 460.99 C 282.23 459.09 289.91 458.22 297.42 456.62 C 305.40 456.23 313.02 453.23 321.04 453.39 C 319.03 453.00 317.01 452.67 315.00 452.36 Z" />
<path fill="#20dca5" opacity="1.00" d=" M 531.34 459.25 C 534.84 457.76 538.54 459.22 542.13 459.39 C 549.77 459.30 557.15 462.29 563.47 466.42 C 566.36 468.14 568.24 471.02 570.74 473.21 C 574.72 476.34 576.31 481.34 578.35 485.79 C 579.77 490.40 581.04 495.16 581.33 500.00 C 580.63 505.28 580.35 510.66 579.04 515.83 C 575.83 523.42 571.07 530.38 565.05 536.02 C 561.14 539.33 555.92 540.21 551.49 542.57 C 546.73 545.44 541.03 544.07 535.79 544.80 C 531.95 545.39 528.62 543.01 524.96 542.37 C 514.31 539.24 505.53 531.31 500.19 521.70 C 497.95 515.66 494.98 509.59 495.13 502.99 C 495.37 497.86 495.35 492.60 497.55 487.84 C 500.35 477.59 507.46 468.74 516.91 463.86 C 521.23 460.98 526.58 460.99 531.34 459.25 Z" />
<path fill="#1e479c" opacity="1.00" d=" M 237.60 466.58 C 242.14 466.89 246.52 465.10 251.06 465.52 C 255.54 466.05 259.13 470.49 258.64 475.00 C 259.17 480.93 253.03 484.61 247.90 485.29 C 242.22 485.36 236.66 486.92 230.96 486.45 C 233.30 486.83 235.65 487.21 237.99 487.58 C 231.61 486.92 225.37 489.20 218.99 488.38 C 221.00 488.72 223.02 489.07 225.03 489.42 C 214.10 489.32 203.71 493.23 192.85 493.83 C 194.81 494.51 196.88 494.52 198.93 494.51 C 194.64 495.16 190.31 495.28 185.98 495.52 C 179.78 496.39 173.61 497.47 167.57 499.12 C 158.37 500.16 149.32 502.96 139.99 502.44 C 142.34 502.81 144.69 503.19 147.03 503.58 C 140.64 502.91 134.40 505.15 128.00 504.42 C 130.34 504.79 132.67 505.16 135.01 505.53 C 129.93 505.07 124.98 506.57 119.92 506.59 C 115.98 506.47 112.18 510.09 108.33 507.73 C 103.40 505.59 100.78 499.19 103.53 494.39 C 105.22 490.68 109.65 489.79 113.18 488.76 C 118.47 488.48 123.69 487.26 129.01 487.48 C 127.01 487.11 125.00 486.75 123.00 486.40 C 128.60 487.13 134.04 485.68 139.29 483.88 C 144.57 483.59 149.83 483.10 155.06 482.26 C 153.38 481.94 151.70 481.64 150.02 481.34 C 155.75 482.11 161.38 480.74 167.05 480.31 C 165.38 479.98 163.70 479.67 162.03 479.36 C 168.07 480.17 173.98 478.10 180.02 478.49 C 178.02 478.12 176.01 477.76 174.01 477.41 C 178.18 477.76 182.32 477.17 186.44 476.53 C 186.52 476.28 186.69 475.78 186.78 475.53 C 192.26 474.30 198.00 474.94 203.32 472.85 C 208.88 472.48 214.39 471.20 219.99 471.53 C 217.66 471.16 215.32 470.79 212.99 470.43 C 218.04 470.89 223.01 469.87 228.00 469.37 C 227.04 469.01 226.08 468.67 225.12 468.35 C 229.28 468.93 233.40 468.01 237.51 467.51 C 237.53 467.28 237.58 466.81 237.60 466.58 Z" />
<path fill="#1e479c" opacity="1.00" d=" M 271.01 506.33 C 280.18 507.95 288.91 503.11 298.02 504.54 C 304.90 506.59 305.22 516.14 300.49 520.53 C 298.84 522.57 296.08 522.69 293.70 523.18 C 289.61 523.68 285.56 524.52 281.43 524.63 C 280.77 525.17 280.11 525.73 279.45 526.29 C 273.91 526.17 268.50 527.54 262.97 527.64 C 264.98 527.99 266.99 528.31 269.00 528.63 C 262.61 527.85 256.37 530.06 249.99 529.46 C 252.32 529.85 254.66 530.23 257.01 530.58 C 246.82 529.61 237.07 534.17 226.92 533.54 C 219.34 532.13 217.77 520.12 224.72 516.71 C 232.60 513.15 241.52 512.95 250.02 512.45 C 248.01 512.08 246.00 511.73 243.99 511.38 C 249.60 512.15 255.04 510.69 260.29 508.89 C 265.57 508.56 270.84 508.16 276.06 507.25 C 274.38 506.93 272.70 506.63 271.01 506.33 Z" />
<path fill="#1e479c" opacity="1.00" d=" M 180.00 522.36 C 186.11 522.94 192.19 522.05 198.14 520.71 C 202.03 519.55 206.13 521.83 208.18 525.12 C 209.10 527.97 208.79 531.10 208.47 534.04 C 207.13 537.51 203.04 538.24 200.28 540.20 C 197.03 540.43 193.65 540.15 190.59 541.47 C 186.77 543.11 182.42 541.83 178.60 543.49 C 175.00 544.94 171.00 544.07 167.35 545.33 C 162.63 547.00 157.45 546.16 152.75 547.93 C 147.98 550.29 142.40 548.69 137.60 551.09 C 130.43 551.60 123.23 553.33 116.01 552.37 C 113.68 551.67 111.44 549.62 111.40 547.06 C 111.18 543.30 110.65 538.66 114.17 536.18 C 118.84 533.71 124.35 533.29 129.56 533.53 C 129.53 532.88 129.50 532.25 129.48 531.62 C 135.05 531.94 140.52 530.72 146.05 530.31 C 144.38 529.97 142.70 529.66 141.02 529.34 C 144.32 529.49 147.70 529.84 150.92 528.90 C 157.29 526.91 164.06 526.92 170.62 526.08 C 175.48 524.23 180.69 523.56 185.86 523.37 C 183.98 522.75 181.94 522.75 180.00 522.36 Z" />
</svg>
