<?xml version="1.0" encoding="UTF-8" ?>
<!DOCTYPE svg PUBLIC "-//W3C//DTD SVG 1.1//EN" "http://www.w3.org/Graphics/SVG/1.1/DTD/svg11.dtd">
<svg width="384pt" height="534pt" viewBox="0 0 384 534" version="1.1" xmlns="http://www.w3.org/2000/svg">
<path fill="#1e479c" opacity="1.00" d=" M 12.58 35.45 C 25.78 15.39 48.96 2.39 72.97 1.68 C 144.32 1.58 215.66 1.78 287.00 1.68 C 290.44 1.85 294.21 1.05 297.38 2.77 C 300.93 5.19 302.49 10.49 299.96 14.19 C 298.71 16.76 295.66 17.40 293.06 17.34 C 221.02 17.35 148.99 17.33 76.95 17.34 C 60.90 17.89 44.57 23.56 33.06 35.06 C 22.27 46.18 15.79 61.45 15.56 76.97 C 15.58 167.56 15.55 258.15 15.58 348.74 C 20.21 347.01 24.94 345.15 29.98 345.32 C 121.65 345.31 213.32 345.33 304.99 345.32 C 322.32 344.99 338.99 352.23 352.74 362.38 C 358.71 366.76 363.38 372.58 368.34 378.02 C 368.45 277.33 368.34 176.64 368.40 75.95 C 367.76 54.57 355.15 33.48 335.64 24.17 C 332.15 22.31 328.13 21.43 324.94 19.01 C 320.65 15.58 321.70 8.09 326.58 5.73 C 329.09 5.25 331.74 5.36 334.17 6.15 C 350.53 12.02 364.73 23.74 373.24 38.94 C 379.05 48.24 381.83 58.96 384.00 69.60 L 384.00 439.65 C 381.25 445.52 380.20 452.00 377.61 457.93 C 371.48 472.16 361.38 484.71 348.57 493.48 C 337.65 500.83 325.02 505.65 311.96 507.34 C 301.96 507.81 291.93 507.22 281.94 507.64 C 279.20 511.13 279.02 515.93 276.52 519.60 C 272.56 526.41 265.52 530.33 258.84 534.00 L 243.29 534.00 C 237.77 530.87 232.45 527.45 227.15 523.98 C 223.45 521.49 218.47 520.37 214.42 522.74 C 208.04 526.20 202.13 530.47 195.79 534.00 L 181.80 534.00 C 175.03 531.42 168.30 527.83 164.15 521.67 C 161.03 517.53 159.48 512.52 158.32 507.54 C 131.86 507.48 105.39 507.57 78.93 507.51 C 72.93 508.01 69.16 500.29 72.42 495.57 C 74.07 493.03 77.01 491.65 80.00 491.70 C 106.12 491.53 132.25 491.94 158.37 491.50 C 158.38 482.33 158.55 473.15 158.36 463.98 C 158.48 462.21 156.63 461.19 155.06 461.51 C 115.71 461.50 76.36 461.55 37.01 461.49 C 32.27 461.53 27.05 460.84 22.92 463.73 C 14.15 468.85 13.88 483.16 22.26 488.79 C 27.31 492.89 34.08 491.42 40.05 491.69 C 43.39 491.67 47.24 492.59 49.01 495.71 C 50.54 499.89 49.54 505.97 44.69 507.32 C 39.46 507.81 34.19 507.52 28.94 507.53 C 21.75 507.58 15.11 503.80 9.91 499.11 C 4.89 494.69 2.49 488.28 0.00 482.27 L 0.00 470.71 C 2.50 464.17 5.39 457.34 11.19 453.02 C 15.23 449.42 20.52 447.93 25.10 445.23 C 25.71 432.70 25.10 420.10 25.37 407.55 C 19.74 405.20 13.96 402.77 9.55 398.42 C 5.24 394.47 3.11 388.90 0.00 384.08 L 0.00 69.59 C 2.36 57.67 5.64 45.61 12.58 35.45 M 26.78 361.10 C 22.34 362.86 18.34 366.43 16.72 370.99 C 15.97 375.43 15.64 380.58 18.53 384.37 C 21.43 388.24 25.80 391.83 30.92 391.45 C 121.28 391.42 211.65 391.40 302.01 391.42 C 313.96 391.32 325.47 397.92 332.14 407.71 C 336.75 415.22 338.68 424.50 336.73 433.16 C 334.41 445.43 324.87 455.97 312.91 459.58 C 302.91 462.97 292.25 460.86 281.94 461.60 C 281.62 461.94 280.98 462.63 280.67 462.97 C 280.53 472.40 280.43 481.86 280.73 491.29 C 287.76 492.19 294.91 491.46 301.99 491.73 C 332.38 492.54 361.58 469.09 366.89 439.07 C 370.23 425.77 367.73 411.68 362.42 399.25 C 358.17 391.05 352.95 383.17 345.93 377.07 C 335.15 367.72 321.42 361.33 307.05 360.69 C 216.70 360.67 126.36 360.70 36.01 360.68 C 32.94 360.77 29.79 360.33 26.78 361.10 M 40.67 406.70 C 40.53 419.50 40.71 432.30 40.57 445.10 C 47.35 445.91 54.19 445.32 61.00 445.49 C 93.47 445.46 125.95 445.55 158.43 445.44 C 158.54 432.51 158.39 419.57 158.39 406.64 C 119.15 406.61 79.91 406.59 40.67 406.70 M 280.47 407.51 C 280.81 419.66 280.30 431.83 280.71 443.98 C 281.04 444.30 281.70 444.94 282.04 445.26 C 287.34 445.60 292.67 445.40 297.99 445.50 C 303.63 445.46 309.81 445.02 314.42 441.41 C 319.97 436.50 322.91 428.52 321.00 421.24 C 319.22 415.30 314.55 410.37 308.71 408.28 C 302.43 405.76 295.57 406.79 289.00 406.61 C 286.12 406.50 283.25 406.73 280.47 407.51 M 174.66 407.52 C 174.37 439.34 174.66 471.17 174.52 503.00 C 174.64 506.16 174.29 509.87 176.71 512.33 C 179.70 515.37 183.59 517.97 187.92 518.38 C 193.67 517.78 198.32 514.04 203.08 511.10 C 207.10 508.68 211.61 507.15 216.14 505.99 C 221.04 504.70 225.97 506.64 230.51 508.31 C 236.94 510.65 241.81 516.00 248.47 517.82 C 252.45 519.34 256.54 517.05 259.75 514.83 C 263.45 512.15 264.73 507.39 264.51 503.01 C 264.32 471.18 264.65 439.34 264.34 407.51 C 248.90 407.14 233.45 407.46 218.00 407.36 C 203.56 407.46 189.10 407.13 174.66 407.52 Z" />
<path fill="#1e479c" opacity="1.00" d=" M 142.44 207.71 C 144.25 207.28 146.12 207.37 147.97 207.34 C 169.30 207.42 190.62 207.26 211.95 207.47 C 216.23 207.48 219.56 211.83 218.75 216.00 C 219.92 220.59 214.95 223.43 211.02 223.43 C 189.01 223.44 166.99 223.42 144.98 223.44 C 139.79 223.83 135.12 218.01 136.98 213.06 C 137.82 210.53 140.01 208.67 142.44 207.71 Z" />
<path fill="#1e479c" opacity="1.00" d=" M 126.51 245.88 C 127.64 245.66 128.79 245.57 129.95 245.60 C 162.60 245.71 195.26 245.55 227.92 245.71 C 233.47 245.91 237.47 252.84 234.49 257.64 C 232.97 260.75 229.40 262.30 226.07 262.24 C 194.36 262.40 162.65 262.22 130.94 262.33 C 127.17 262.38 122.82 260.69 121.29 256.99 C 119.16 252.72 122.16 247.28 126.51 245.88 Z" />
<path fill="#20dca5" opacity="1.00" d=" M 174.66 407.52 C 189.10 407.13 203.56 407.46 218.00 407.36 C 233.45 407.46 248.90 407.14 264.34 407.51 C 264.65 439.34 264.32 471.18 264.51 503.01 C 264.73 507.39 263.45 512.15 259.75 514.83 C 256.54 517.05 252.45 519.34 248.47 517.82 C 241.81 516.00 236.94 510.65 230.51 508.31 C 225.97 506.64 221.04 504.70 216.14 505.99 C 211.61 507.15 207.10 508.68 203.08 511.10 C 198.32 514.04 193.67 517.78 187.92 518.38 C 183.59 517.97 179.70 515.37 176.71 512.33 C 174.29 509.87 174.64 506.16 174.52 503.00 C 174.66 471.17 174.37 439.34 174.66 407.52 Z" />
</svg>
