<?xml version="1.0" encoding="UTF-8" ?>
<!DOCTYPE svg PUBLIC "-//W3C//DTD SVG 1.1//EN" "http://www.w3.org/Graphics/SVG/1.1/DTD/svg11.dtd">
<svg width="600pt" height="638pt" viewBox="0 0 600 638" version="1.1" xmlns="http://www.w3.org/2000/svg">
<path fill="#1e479c" opacity="1.00" d=" M 159.43 39.18 C 169.73 16.58 193.84 0.16 219.00 1.35 C 227.05 0.75 234.97 3.19 243.02 2.31 C 241.34 2.62 239.68 2.94 238.01 3.28 C 248.33 5.01 258.62 6.92 268.95 8.57 C 277.32 9.48 285.49 12.54 294.01 11.31 C 292.35 11.62 290.69 11.94 289.04 12.26 C 295.65 13.37 302.31 14.53 309.03 14.55 C 307.00 14.87 304.98 15.22 302.95 15.56 C 313.18 14.43 322.88 19.20 333.04 18.38 C 331.35 18.69 329.67 19.00 327.99 19.32 C 334.52 20.18 341.22 20.14 347.56 22.11 C 351.94 23.38 356.53 23.68 361.07 23.46 C 358.69 23.82 356.31 24.19 353.93 24.54 C 360.35 24.08 366.65 25.94 373.07 25.44 C 370.69 25.78 368.31 26.13 365.94 26.46 C 371.09 26.29 376.15 27.50 381.29 27.41 C 381.06 28.00 380.84 28.59 380.62 29.17 C 390.97 28.68 400.82 32.40 411.09 32.68 C 409.06 33.00 407.02 33.31 404.99 33.60 C 411.06 33.09 417.02 34.64 423.08 34.64 C 421.04 34.97 419.01 35.28 416.97 35.58 C 426.16 34.94 434.99 38.03 444.03 39.08 C 457.30 41.40 471.25 42.85 483.06 49.87 C 491.43 54.45 498.32 61.33 504.12 68.82 C 509.00 75.77 512.49 83.68 514.89 91.81 C 516.71 100.39 517.00 109.32 515.79 118.01 C 515.47 120.67 515.48 123.36 515.49 126.05 C 515.14 124.02 514.80 122.00 514.49 119.97 C 514.62 126.36 512.97 132.65 513.58 139.06 C 513.33 136.73 513.05 134.40 512.75 132.08 C 511.27 139.30 510.85 146.72 510.43 154.07 C 510.07 151.70 509.77 149.31 509.41 146.94 C 510.01 153.36 508.20 159.65 508.46 166.06 C 508.08 163.70 507.79 161.32 507.44 158.95 C 507.99 170.48 504.33 181.58 503.29 192.97 C 503.10 191.11 502.80 189.28 502.45 187.45 C 502.79 193.02 501.82 198.51 501.30 204.03 C 500.99 202.35 500.69 200.68 500.40 199.00 C 500.91 205.05 499.21 210.99 499.48 217.04 C 499.14 215.01 498.79 212.98 498.46 210.95 C 498.85 218.45 496.83 225.74 495.73 233.09 C 495.29 236.94 495.18 240.81 494.85 244.67 C 494.43 243.80 494.00 242.93 493.58 242.07 C 493.17 247.06 492.28 252.01 492.56 257.04 C 492.24 255.01 491.92 252.98 491.59 250.96 C 491.67 257.00 490.04 262.94 490.62 269.00 C 490.32 267.31 490.02 265.63 489.71 263.96 C 489.16 272.76 486.96 281.32 485.74 290.03 C 484.95 295.53 483.17 300.94 483.60 306.57 L 483.38 306.54 C 483.06 305.68 482.75 304.82 482.45 303.96 C 482.60 313.44 478.15 322.47 479.68 332.03 C 479.37 330.34 479.07 328.66 478.77 326.98 C 478.12 331.32 477.46 335.66 476.90 340.02 C 476.17 346.36 473.84 352.54 474.61 359.01 C 474.31 357.33 474.00 355.65 473.68 353.98 C 473.21 363.58 471.00 372.93 469.79 382.42 C 468.37 387.52 466.97 392.69 467.55 398.04 C 467.20 396.01 466.85 393.98 466.51 391.95 C 466.77 398.01 465.02 403.96 465.62 410.03 C 465.31 408.33 465.00 406.65 464.68 404.96 C 464.14 415.11 460.83 424.87 460.30 435.03 C 459.98 433.35 459.67 431.67 459.38 430.00 C 459.49 433.28 459.77 436.68 458.55 439.82 C 455.23 448.39 450.40 456.39 444.31 463.28 C 440.46 467.45 435.57 470.68 432.67 475.67 C 427.72 483.72 421.38 490.76 414.35 497.04 C 415.12 504.74 417.33 512.25 417.66 520.00 C 417.80 531.21 418.75 542.87 414.30 553.47 C 410.50 562.03 405.75 570.40 398.80 576.81 C 390.74 585.09 380.22 590.56 369.32 594.10 C 364.60 595.11 359.77 595.48 354.96 595.60 C 356.98 595.93 359.01 596.25 361.05 596.57 C 354.97 596.15 349.01 597.83 342.94 597.52 C 344.97 597.86 347.00 598.21 349.03 598.55 C 341.11 597.56 333.81 601.41 326.02 601.72 C 322.34 602.16 318.66 602.60 314.95 602.55 C 317.32 602.91 319.70 603.20 322.07 603.57 C 316.00 603.05 310.04 604.68 303.99 604.51 C 305.65 604.82 307.32 605.15 308.99 605.47 C 302.95 605.42 297.00 606.99 290.94 606.42 C 293.29 606.80 295.67 607.06 298.04 607.43 C 291.75 607.34 285.59 609.09 279.29 608.55 C 280.08 609.21 280.87 609.87 281.66 610.53 C 275.70 610.06 269.87 611.70 263.92 611.57 C 266.29 611.92 268.67 612.21 271.04 612.57 C 264.64 612.03 258.35 613.92 251.95 613.42 C 253.99 613.74 256.03 614.09 258.07 614.44 C 250.19 613.88 242.85 617.24 235.09 617.87 C 227.81 619.36 220.42 620.59 212.97 620.50 C 214.99 620.83 217.02 621.18 219.05 621.52 C 212.98 621.22 207.02 622.93 200.95 622.43 C 202.97 622.76 205.00 623.09 207.03 623.44 C 201.65 623.19 196.37 624.30 191.22 625.74 C 179.92 627.58 168.62 629.54 157.34 631.53 C 151.02 633.55 144.31 633.45 137.93 635.22 C 131.30 635.64 124.67 636.79 118.01 636.31 C 98.32 635.59 79.44 624.93 67.86 609.12 C 63.92 602.78 59.41 596.33 58.55 588.72 C 58.18 588.91 57.81 589.11 57.44 589.32 C 56.64 582.97 55.12 576.75 54.21 570.42 C 52.29 561.45 50.56 552.22 51.57 543.03 C 54.04 537.32 63.71 536.60 67.31 541.63 C 70.13 547.60 70.26 554.32 71.00 560.76 C 73.54 569.64 73.84 579.07 77.30 587.71 C 82.89 601.20 94.74 611.83 108.71 616.08 C 114.60 618.00 120.90 617.77 127.00 617.40 C 134.62 616.19 142.22 614.11 150.01 614.59 C 148.33 614.28 146.65 613.97 144.97 613.66 C 150.68 613.50 156.31 612.18 162.04 612.57 C 160.00 612.23 157.97 611.89 155.94 611.55 C 166.83 611.81 177.17 607.31 188.07 607.52 C 186.82 607.24 185.59 606.90 184.38 606.52 C 189.96 606.63 195.46 605.41 201.04 605.43 C 199.02 605.10 196.99 604.78 194.97 604.46 C 201.04 604.82 206.99 603.14 213.05 603.53 C 211.03 603.19 209.01 602.85 206.99 602.53 C 210.69 602.61 214.36 602.08 218.03 601.66 C 221.01 601.25 224.23 601.83 226.97 600.31 C 225.30 599.94 223.63 599.59 221.95 599.31 C 228.35 600.20 234.65 598.28 241.05 598.46 C 238.68 598.09 236.30 597.82 233.93 597.43 C 240.35 597.99 246.64 596.14 253.05 596.53 C 250.68 596.18 248.31 595.85 245.94 595.50 C 252.02 595.82 257.98 594.17 264.06 594.47 C 262.03 594.12 260.01 593.78 257.97 593.47 C 264.36 593.68 270.64 591.86 277.04 592.64 C 275.03 592.37 273.02 592.06 271.03 591.72 C 277.86 590.08 285.00 589.84 292.00 589.50 C 289.98 589.18 287.96 588.85 285.94 588.52 C 292.01 588.80 297.97 587.14 304.04 587.57 C 302.01 587.25 299.99 586.94 297.96 586.63 C 304.75 586.00 311.82 586.22 318.26 583.74 C 322.15 583.07 326.09 582.69 330.02 582.31 C 328.34 581.98 326.66 581.67 324.98 581.37 C 330.93 581.78 336.93 581.22 342.67 579.58 C 347.01 578.27 351.57 578.42 356.05 578.65 C 354.00 578.34 351.95 578.03 349.92 577.71 C 356.14 577.22 362.55 576.87 368.34 574.30 C 387.04 567.59 400.99 548.06 399.67 528.00 C 399.60 520.96 397.35 514.17 397.18 507.12 C 395.12 502.01 394.63 496.48 394.44 491.02 C 394.11 492.34 393.78 493.66 393.46 494.99 C 393.80 489.27 392.23 483.67 392.52 477.96 C 392.20 479.99 391.86 482.01 391.53 484.04 C 391.73 477.98 390.08 472.03 390.57 465.96 C 390.24 467.99 389.90 470.02 389.59 472.05 C 389.58 467.19 388.42 462.41 388.64 457.55 C 388.21 457.80 387.80 458.05 387.38 458.31 C 386.66 452.20 385.85 446.10 385.31 439.98 C 384.99 441.65 384.68 443.34 384.38 445.02 C 384.97 438.95 383.25 433.00 383.47 426.93 C 383.13 428.97 382.78 431.00 382.45 433.04 C 382.99 426.93 381.23 421.02 380.19 415.07 C 379.24 410.44 379.85 405.58 378.21 401.08 C 377.89 402.72 377.60 404.37 377.33 406.02 C 378.46 393.29 372.94 381.14 372.74 368.51 C 371.99 368.54 371.40 368.87 370.97 369.49 C 370.67 364.98 370.71 360.44 370.13 355.95 C 369.30 349.28 366.90 342.76 367.57 335.95 C 367.24 337.98 366.90 340.02 366.57 342.05 C 366.69 335.99 365.02 330.04 365.62 323.97 C 365.32 325.65 365.03 327.33 364.72 329.02 C 364.11 323.36 362.94 317.70 363.73 312.00 C 363.41 313.31 363.07 314.62 362.70 315.93 C 361.37 314.26 361.68 312.05 361.50 310.07 C 361.36 306.02 360.57 302.03 360.31 297.98 C 360.00 299.66 359.69 301.34 359.40 303.02 C 359.94 296.96 358.18 291.01 358.54 284.95 C 358.20 286.98 357.85 289.01 357.50 291.04 C 358.12 285.12 356.16 279.51 354.88 273.85 C 354.44 268.88 354.01 263.91 353.28 258.97 C 352.96 260.65 352.65 262.33 352.34 264.02 C 352.75 259.04 352.44 254.03 351.33 249.17 C 349.83 242.82 349.50 236.27 347.88 229.95 C 346.64 225.01 345.66 220.02 345.17 214.96 C 343.49 204.69 339.77 194.24 332.15 186.85 C 325.51 179.71 316.72 174.40 307.09 172.62 C 299.06 172.21 290.94 172.06 282.97 173.27 C 280.98 173.49 278.98 173.45 276.99 173.43 C 278.67 173.72 280.35 174.03 282.03 174.35 C 276.31 174.40 270.68 175.74 264.94 175.53 C 267.31 175.87 269.69 176.21 272.07 176.55 C 265.66 176.11 259.36 177.96 252.95 177.46 C 255.32 177.81 257.69 178.17 260.06 178.50 C 254.66 178.26 249.37 179.54 243.99 179.63 C 242.57 179.59 241.21 179.97 240.03 180.75 C 241.69 181.11 243.36 181.42 245.05 181.70 C 241.76 181.45 238.42 181.21 235.18 181.98 C 228.24 183.60 221.12 184.67 213.98 184.45 C 216.00 184.78 218.03 185.12 220.06 185.45 C 214.00 185.35 208.04 186.96 201.97 186.42 C 204.00 186.74 206.03 187.07 208.06 187.39 C 201.43 188.06 194.60 188.00 188.17 189.78 C 189.78 190.10 191.40 190.40 193.03 190.66 C 186.97 189.97 181.01 191.60 174.97 191.56 C 176.99 191.88 179.02 192.22 181.04 192.55 C 174.91 191.89 169.05 194.03 163.03 194.66 C 157.58 195.22 152.54 197.79 146.98 197.63 C 139.40 199.19 131.73 200.48 123.96 200.59 C 125.99 200.92 128.02 201.25 130.05 201.58 C 126.46 201.38 122.84 201.50 119.33 202.38 C 112.30 204.01 105.08 204.50 97.98 205.77 C 99.66 206.08 101.34 206.37 103.03 206.67 C 96.63 205.78 90.35 207.75 83.96 207.45 C 86.00 207.75 88.03 208.09 90.06 208.43 C 83.98 208.25 78.02 209.83 71.95 209.49 C 74.31 209.85 76.69 210.17 79.06 210.53 C 72.97 210.17 67.00 211.71 60.92 211.62 C 62.96 211.96 64.99 212.28 67.03 212.59 C 62.08 212.31 57.01 212.71 52.37 214.55 C 47.14 216.65 41.72 218.66 37.42 222.41 C 26.92 231.08 19.22 244.11 19.41 258.01 C 19.01 264.92 21.13 271.69 20.47 278.61 C 20.80 277.41 21.10 276.20 21.44 275.01 C 22.30 281.33 23.70 287.62 23.52 294.03 C 23.85 292.01 24.19 289.99 24.53 287.97 C 24.16 294.04 25.86 299.98 25.45 306.05 C 25.78 304.01 26.12 301.99 26.46 299.96 C 26.32 304.35 26.93 308.70 27.93 312.97 C 29.41 319.23 30.07 325.64 30.70 332.03 C 31.02 330.35 31.33 328.66 31.63 326.98 C 31.07 332.70 32.30 338.34 32.69 344.02 C 33.00 342.34 33.30 340.66 33.60 338.98 C 33.12 345.38 35.04 351.66 34.41 358.07 C 34.74 355.69 35.05 353.31 35.38 350.94 C 35.97 358.69 36.10 366.63 38.67 374.05 C 39.43 376.64 40.00 379.30 40.36 381.98 C 42.01 394.30 45.18 406.41 45.87 418.85 C 47.18 424.52 49.11 430.15 48.53 436.07 C 48.95 433.70 49.19 431.31 49.58 428.95 C 49.03 435.36 50.89 441.65 50.48 448.06 C 50.75 445.83 51.02 443.59 51.53 441.41 C 51.31 447.63 53.15 453.77 52.27 460.00 C 52.59 458.68 52.93 457.38 53.30 456.09 C 54.69 457.72 54.29 459.95 54.46 461.93 C 54.53 470.09 57.74 477.85 57.65 486.04 C 57.97 484.35 58.28 482.67 58.59 481.00 C 57.90 488.45 60.45 495.65 60.63 503.04 C 60.86 508.02 55.90 512.39 50.97 511.56 C 45.76 511.58 42.21 506.52 41.81 501.72 C 41.11 494.75 39.20 487.97 38.58 480.99 C 38.35 477.99 37.79 475.02 37.27 472.06 C 36.94 473.71 36.63 475.37 36.32 477.04 C 37.10 470.97 35.45 465.00 35.42 458.95 C 35.10 460.98 34.76 463.02 34.43 465.05 C 34.92 458.98 33.21 453.03 33.52 446.97 C 33.19 448.99 32.85 451.02 32.51 453.05 C 32.56 445.61 31.41 438.22 29.75 430.98 C 29.07 428.05 30.01 424.74 28.35 422.08 C 27.97 423.37 27.61 424.67 27.28 425.99 C 28.29 418.20 26.03 410.60 24.81 402.99 C 24.36 399.07 23.67 395.19 22.62 391.39 C 22.93 385.24 20.98 379.33 20.26 373.28 C 14.35 339.86 8.60 306.41 2.74 272.98 C 0.46 259.15 1.27 244.37 7.59 231.66 C 10.22 225.59 14.55 220.53 18.02 214.96 C 20.96 211.86 24.08 208.92 27.56 206.44 C 38.98 197.35 53.75 193.91 67.98 192.45 C 70.26 192.31 72.32 191.30 74.38 190.41 C 74.38 169.27 74.34 148.14 74.38 127.00 C 74.47 120.65 74.39 114.00 77.11 108.12 C 78.93 103.94 80.44 99.62 82.60 95.60 C 88.83 84.32 98.79 75.59 109.77 69.08 C 113.70 67.16 117.81 65.61 121.97 64.27 C 131.42 62.03 141.19 62.36 150.83 62.30 C 153.23 62.59 154.52 60.06 154.32 57.99 C 154.35 51.38 156.87 45.16 159.43 39.18 M 198.99 24.18 C 185.83 30.45 176.47 43.12 172.79 57.07 C 172.68 58.44 171.77 60.58 173.24 61.48 C 187.48 61.96 201.80 60.94 215.99 62.34 C 266.00 62.35 316.00 62.32 366.01 62.35 C 369.02 62.46 371.98 61.52 375.00 61.83 C 380.84 62.71 386.86 62.21 392.58 63.93 C 399.16 66.53 405.97 68.88 411.61 73.31 C 420.82 79.14 427.63 87.87 433.21 97.09 C 434.90 100.26 435.71 103.80 437.15 107.09 C 439.29 111.02 439.65 115.61 440.45 119.95 C 440.88 130.64 440.61 141.35 440.59 152.05 C 440.75 155.50 438.30 158.99 434.93 159.88 C 429.87 161.87 423.14 159.06 421.90 153.53 C 420.72 140.22 423.21 126.62 420.12 113.47 C 417.78 108.73 415.87 103.67 412.45 99.55 C 409.22 95.49 405.36 91.95 401.23 88.83 C 397.28 85.83 392.41 84.58 388.04 82.39 C 385.59 81.00 382.63 81.73 379.97 81.23 C 374.37 80.20 368.66 80.71 363.01 80.61 C 291.00 80.53 219.00 80.60 147.00 80.60 C 140.78 80.30 134.60 81.24 128.43 81.82 C 124.06 84.03 119.12 85.08 115.13 88.03 C 103.86 94.98 95.77 106.94 93.48 119.95 C 93.17 142.17 93.30 164.41 93.40 186.64 C 99.65 187.16 105.74 184.98 111.99 185.57 C 109.99 185.21 107.99 184.85 105.99 184.48 C 115.79 185.40 125.08 180.37 134.86 181.68 C 133.96 181.31 133.06 180.94 132.17 180.57 C 136.89 179.51 141.81 179.60 146.41 177.94 C 151.91 177.35 157.43 176.32 162.99 176.49 C 160.99 176.13 158.99 175.77 157.00 175.41 C 161.80 175.86 166.63 175.23 171.14 173.51 C 174.83 172.00 178.97 173.21 182.68 171.81 C 187.25 169.93 192.30 170.79 197.05 169.72 C 201.83 169.46 206.32 167.38 211.14 167.46 C 213.93 167.79 216.08 165.51 218.83 165.60 C 224.18 165.37 229.28 163.60 234.53 162.76 C 240.87 161.17 247.46 161.02 253.87 160.08 C 257.26 158.10 261.23 158.63 264.98 158.37 C 266.44 158.25 267.38 156.65 268.91 156.73 C 272.95 156.59 276.90 155.66 280.93 155.37 C 279.62 155.06 278.33 154.71 277.03 154.39 C 279.01 154.47 281.00 154.61 282.99 154.45 C 293.46 152.77 304.28 152.77 314.72 154.76 C 333.26 160.28 349.00 173.83 357.86 190.94 C 358.83 192.99 359.30 195.24 359.49 197.49 C 359.97 197.16 360.46 196.83 360.95 196.51 C 361.11 201.47 363.35 206.03 363.61 210.98 C 363.94 214.36 365.33 217.55 365.47 220.97 C 365.59 225.40 367.54 229.52 367.69 233.95 C 368.41 237.21 367.59 241.11 370.08 243.73 C 370.66 246.73 370.13 249.88 370.92 252.87 C 372.71 259.08 373.12 265.57 373.65 271.98 C 373.98 270.32 374.31 268.66 374.64 266.99 C 373.89 273.04 376.09 278.94 375.41 284.99 C 375.78 282.99 376.14 280.98 376.52 278.98 C 375.87 284.88 377.79 290.49 379.24 296.10 C 379.37 301.11 380.20 306.04 380.72 311.02 C 381.04 309.35 381.35 307.68 381.66 306.01 C 380.92 311.72 382.44 317.32 382.69 323.01 C 383.02 321.34 383.33 319.68 383.64 318.01 C 382.90 324.06 385.04 329.97 384.47 336.02 C 384.85 334.02 385.21 332.02 385.57 330.02 C 385.17 334.92 386.29 339.73 386.77 344.58 C 388.10 350.97 389.99 357.38 389.43 363.99 C 389.78 361.99 390.16 360.00 390.53 358.01 C 389.97 364.07 392.04 369.97 391.46 376.02 C 391.83 373.69 392.21 371.35 392.58 369.02 C 391.94 375.39 394.21 381.62 393.37 388.00 C 393.68 386.00 394.04 384.00 394.37 382.01 C 394.54 388.02 396.11 393.93 395.38 399.99 C 395.56 398.35 395.78 396.72 396.05 395.10 C 397.63 398.87 397.31 403.04 398.05 407.00 C 398.53 409.63 398.54 412.32 398.46 414.99 C 398.82 412.98 399.17 410.98 399.56 408.99 C 399.01 414.70 400.83 420.27 400.58 425.98 C 400.92 423.99 401.30 422.01 401.61 420.02 C 401.49 423.01 401.28 426.07 402.07 429.01 C 403.89 436.57 404.90 444.29 405.71 452.02 C 406.04 450.35 406.35 448.69 406.66 447.02 C 405.39 456.01 409.51 464.59 408.70 473.57 C 409.61 473.51 410.53 473.46 411.45 473.42 C 414.24 469.99 416.30 465.99 418.15 462.00 C 422.31 454.07 422.43 444.77 422.36 436.00 C 422.38 355.33 422.29 274.66 422.46 194.00 C 422.10 191.09 424.75 189.10 427.11 188.05 C 432.09 186.15 440.33 187.54 440.57 194.06 C 440.81 248.71 440.66 303.35 440.70 358.00 C 440.87 371.66 440.29 385.36 441.12 399.00 C 440.43 407.93 440.44 416.95 441.57 425.85 C 444.13 423.29 443.29 418.57 443.39 415.12 C 443.72 416.04 444.06 416.96 444.41 417.89 C 444.97 413.30 445.58 408.73 445.77 404.11 C 447.83 398.31 448.89 392.16 448.45 385.99 C 448.78 388.32 449.19 390.63 449.56 392.96 C 448.91 386.68 450.98 380.56 450.44 374.29 C 450.83 375.84 451.06 377.43 451.34 379.02 C 451.68 373.33 453.06 367.71 452.36 361.99 C 452.60 363.64 452.85 365.29 453.18 366.93 C 453.78 366.03 454.44 365.11 454.31 363.96 C 454.35 357.23 455.32 350.53 456.95 344.01 C 457.73 341.07 457.51 338.01 457.40 335.01 C 457.76 337.01 458.12 339.02 458.50 341.03 C 458.08 334.97 460.18 329.06 459.35 323.00 C 459.65 324.67 459.96 326.34 460.30 328.01 C 460.77 322.36 462.08 316.74 461.33 311.04 C 461.62 312.68 461.91 314.32 462.23 315.96 C 463.33 309.35 464.61 302.70 464.49 295.98 C 464.84 297.98 465.20 299.99 465.59 302.00 C 464.87 295.95 467.03 290.05 466.43 284.00 C 466.78 286.00 467.15 287.99 467.52 289.99 C 467.08 283.95 469.18 278.06 468.35 272.02 C 468.65 273.67 468.96 275.33 469.30 276.99 C 469.65 270.41 471.30 263.95 471.45 257.37 C 471.81 257.83 472.18 258.29 472.55 258.75 C 472.50 253.82 473.97 249.00 473.43 244.05 C 473.76 246.38 474.17 248.69 474.52 251.02 C 473.97 244.63 476.16 238.40 475.37 232.01 C 475.64 234.02 475.98 236.02 476.34 238.02 C 476.14 232.40 477.75 227.05 479.21 221.71 C 479.28 216.10 480.83 210.62 480.49 204.99 C 480.85 207.33 481.23 209.67 481.61 212.00 C 480.78 205.61 483.05 199.37 482.45 192.98 C 482.80 195.32 483.18 197.66 483.56 199.99 C 482.93 193.94 485.02 188.04 484.47 181.99 C 484.86 183.99 485.22 185.99 485.57 188.00 C 485.50 185.67 485.40 183.32 485.81 181.02 C 486.79 176.12 486.34 171.06 487.60 166.20 C 487.87 168.48 488.26 170.74 488.62 173.02 C 487.73 166.62 489.78 160.39 489.53 154.01 C 489.88 156.34 490.27 158.66 490.60 160.99 C 489.81 154.60 492.03 148.37 491.46 141.99 C 491.82 144.32 492.21 146.65 492.57 148.99 C 492.08 143.32 493.52 137.77 493.77 132.13 C 495.03 128.23 496.08 124.23 495.36 120.09 C 495.71 121.02 496.06 121.94 496.42 122.86 C 497.57 113.30 498.86 103.28 495.85 93.91 C 494.77 89.27 491.93 85.36 489.67 81.24 C 486.56 75.81 481.72 71.73 476.66 68.20 C 469.03 63.36 460.29 59.60 451.06 60.55 C 453.38 60.22 455.69 59.81 458.01 59.45 C 451.63 60.09 445.39 57.89 439.01 58.58 C 441.34 58.20 443.68 57.82 446.02 57.46 C 440.94 57.93 435.97 56.55 430.91 56.41 C 428.17 56.38 425.70 54.96 423.01 54.63 C 415.25 54.15 407.88 50.64 399.99 51.56 C 401.98 51.20 403.98 50.83 405.98 50.46 C 399.94 51.00 394.05 48.86 388.02 49.64 C 389.67 49.32 391.34 49.01 393.00 48.67 C 387.15 48.43 381.35 47.51 375.76 45.76 C 370.82 45.49 365.97 44.36 361.01 44.42 C 363.00 44.07 365.00 43.72 367.00 43.38 C 357.46 44.54 348.46 40.21 338.98 40.31 C 329.76 38.06 320.48 35.89 310.97 35.29 C 312.63 34.95 314.30 34.64 315.98 34.33 C 305.49 35.67 295.51 30.35 285.03 31.65 C 286.70 31.34 288.36 31.04 290.03 30.72 C 284.37 30.14 278.73 28.89 273.01 29.68 C 274.67 29.39 276.34 29.10 278.01 28.78 C 271.34 28.01 264.75 26.15 257.99 26.50 C 259.99 26.14 261.99 25.78 263.99 25.42 C 257.95 26.06 252.05 23.95 246.00 24.55 C 247.99 24.18 249.99 23.81 251.98 23.46 C 245.94 23.92 240.05 21.76 234.00 22.65 C 235.66 22.31 237.33 21.99 239.00 21.66 C 230.71 20.65 222.39 19.85 214.02 20.32 C 208.73 20.14 203.85 22.42 198.99 24.18 Z" />
<path fill="#102756" opacity="0.46" d=" M 6.98 229.99 C 9.88 224.48 12.98 218.83 18.02 214.96 C 14.55 220.53 10.22 225.59 7.59 231.66 C 1.27 244.37 0.46 259.15 2.74 272.98 C 8.60 306.41 14.35 339.86 20.26 373.28 C 20.98 379.33 22.93 385.24 22.62 391.39 C 21.09 388.49 20.33 385.30 20.04 382.06 C 13.98 348.05 8.15 314.01 2.27 279.97 C 1.94 277.57 1.01 275.32 0.00 273.14 L 0.00 246.90 C 3.05 241.56 4.06 235.38 6.98 229.99 Z" />
<path fill="#1e479c" opacity="1.00" d=" M 240.10 222.02 C 243.28 217.54 251.18 216.74 254.49 221.48 C 256.42 224.07 256.99 227.34 257.78 230.41 C 262.27 230.74 267.38 229.72 271.14 232.84 C 274.27 235.21 273.85 239.54 273.49 243.00 C 271.98 248.04 266.22 249.40 261.62 249.84 C 260.96 254.37 263.08 259.92 259.55 263.56 C 257.07 266.76 252.47 265.63 248.98 265.49 C 244.68 263.66 243.37 258.64 242.31 254.51 C 238.42 254.04 234.27 255.03 230.62 253.29 C 228.30 251.65 226.29 249.03 226.49 246.05 C 226.48 243.29 226.41 239.73 229.04 238.06 C 231.98 236.20 235.47 235.41 238.31 233.34 C 238.58 229.55 237.66 225.28 240.10 222.02 Z" />
<path fill="#1e479c" opacity="1.00" d=" M 172.02 233.00 C 176.52 228.56 183.22 229.04 189.01 229.64 C 196.22 232.26 199.16 240.00 203.19 245.86 C 210.57 256.20 216.70 267.36 224.03 277.73 C 231.85 290.83 240.70 303.28 248.51 316.40 C 251.24 319.72 251.51 324.79 249.55 328.52 C 247.36 332.25 242.66 331.83 238.94 331.59 C 236.62 331.72 235.29 329.56 233.97 328.01 C 229.60 321.83 225.61 315.38 221.74 308.87 C 216.64 307.52 211.26 309.16 206.11 309.69 C 196.44 311.85 186.57 312.97 176.92 315.19 C 174.18 315.63 170.63 315.09 169.22 318.14 C 165.56 326.23 166.84 335.76 162.48 343.60 C 159.72 348.72 151.89 348.96 148.15 344.86 C 144.11 341.45 144.91 335.15 147.11 330.92 C 147.91 327.39 148.17 323.73 148.55 320.13 C 148.88 321.05 149.21 321.96 149.55 322.89 C 149.29 318.59 150.80 314.42 150.42 310.12 C 150.75 311.05 151.08 311.98 151.43 312.91 C 151.68 308.12 152.80 303.45 154.03 298.83 C 154.91 295.68 154.14 292.19 155.70 289.21 C 156.02 290.46 156.35 291.72 156.66 292.98 C 155.80 286.07 158.78 279.56 159.91 272.86 C 161.54 268.16 161.20 263.09 162.71 258.37 C 163.67 255.06 163.97 251.60 164.34 248.19 C 164.66 249.81 165.05 251.41 165.46 253.00 C 165.52 245.98 165.95 237.68 172.02 233.00 M 181.64 262.10 C 181.61 264.85 179.93 267.19 179.67 269.89 C 179.39 274.03 177.51 277.83 177.07 281.95 C 176.60 286.21 175.37 290.36 175.23 294.66 C 186.61 295.51 197.67 292.12 208.80 290.33 C 208.22 287.81 206.74 285.68 205.21 283.65 C 198.19 273.37 192.12 262.47 184.93 252.31 C 181.89 254.52 182.37 258.81 181.64 262.10 Z" />
<path fill="#1e479c" opacity="1.00" d=" M 312.23 361.75 C 316.78 361.06 321.44 360.99 326.01 361.49 C 332.63 364.60 331.80 375.40 325.06 377.88 C 316.37 380.52 307.33 381.64 298.40 383.23 C 293.19 383.78 288.26 385.83 282.95 385.71 C 275.11 387.43 267.08 389.32 259.00 388.31 C 253.92 386.08 253.59 379.79 254.87 375.13 C 256.57 372.91 258.81 370.91 261.47 369.95 C 266.34 369.24 271.23 368.62 276.08 367.85 C 281.29 365.89 287.01 366.51 292.33 365.02 C 294.14 364.37 295.94 363.50 297.92 363.57 C 302.73 363.40 307.50 362.62 312.23 361.75 Z" />
<path fill="#1e479c" opacity="1.00" d=" M 206.92 379.57 C 215.11 379.30 223.05 377.18 231.04 375.61 C 234.57 375.01 238.78 375.96 240.90 379.05 C 243.27 381.70 243.09 385.68 242.19 388.88 C 240.22 391.87 237.07 394.10 233.64 395.09 C 225.43 395.82 217.33 398.23 209.03 397.34 C 210.69 397.63 212.34 397.91 213.99 398.24 C 207.32 398.92 200.75 400.81 194.00 400.49 C 196.00 400.85 198.01 401.21 200.01 401.60 C 193.95 400.84 188.04 403.01 181.99 402.43 C 183.99 402.80 186.00 403.17 188.00 403.56 C 184.71 403.41 181.38 403.38 178.19 404.30 C 172.08 405.98 165.55 405.66 159.62 408.06 C 154.42 408.59 149.21 409.13 144.01 409.71 C 145.66 410.04 147.33 410.34 148.99 410.64 C 143.97 410.10 139.00 411.07 134.03 411.62 C 134.97 411.98 135.92 412.33 136.87 412.67 C 131.63 411.95 126.37 412.95 121.56 415.02 C 116.03 415.53 110.46 415.74 104.98 416.76 C 106.64 417.08 108.31 417.38 109.98 417.67 C 104.21 416.57 98.55 419.20 92.83 418.24 C 86.44 415.93 85.65 407.12 89.17 402.09 C 92.81 398.60 98.27 399.98 102.62 398.07 C 108.38 397.41 114.16 396.34 119.99 396.52 C 117.66 396.17 115.34 395.77 113.01 395.41 C 119.39 396.15 125.62 393.90 132.00 394.58 C 129.66 394.22 127.33 393.83 124.99 393.48 C 129.60 393.85 134.11 392.75 138.68 392.55 C 138.32 392.16 137.95 391.77 137.58 391.39 C 144.05 390.51 150.57 390.32 157.01 389.27 C 155.35 388.94 153.68 388.64 152.01 388.34 C 158.06 389.23 163.97 387.20 170.01 387.48 C 168.00 387.11 165.99 386.76 163.99 386.40 C 170.05 387.11 175.96 384.95 182.03 385.55 C 180.02 385.17 178.01 384.82 176.01 384.44 C 181.12 384.71 186.32 384.16 191.12 382.35 C 194.22 381.06 197.70 381.99 200.86 380.99 C 202.85 380.42 204.82 379.60 206.92 379.57 Z" />
<path fill="#1e479c" opacity="1.00" d=" M 297.02 409.46 C 303.88 410.08 310.46 407.81 317.11 406.62 C 322.81 406.49 329.01 403.66 334.40 406.63 C 336.86 408.65 338.98 411.69 338.53 415.03 C 338.67 419.94 333.85 423.12 329.62 424.25 C 324.73 424.55 319.91 425.79 314.99 425.46 C 317.00 425.81 319.00 426.18 321.00 426.57 C 314.95 425.87 309.05 428.03 303.01 427.42 C 305.01 427.78 307.02 428.13 309.03 428.51 C 302.97 428.09 297.05 430.15 290.99 429.38 C 292.99 429.73 295.00 430.08 297.00 430.45 C 291.17 430.30 285.39 431.38 279.89 433.25 C 274.56 433.36 269.34 434.79 264.00 434.47 C 266.01 434.84 268.02 435.19 270.03 435.58 C 263.96 434.88 258.05 437.05 251.99 436.42 C 254.00 436.79 256.00 437.14 258.01 437.53 C 252.13 436.91 246.47 438.59 240.91 440.22 C 234.46 440.07 228.43 442.72 222.01 442.78 C 215.69 443.17 209.69 445.90 203.31 445.40 C 203.76 445.78 204.21 446.17 204.66 446.57 C 195.41 446.63 186.31 450.16 177.01 448.44 C 172.02 446.03 170.76 438.52 174.56 434.52 C 177.52 430.20 183.36 430.72 187.96 430.46 C 186.69 429.95 185.30 429.87 184.04 429.37 C 189.73 430.06 195.29 428.01 200.98 428.53 C 198.98 428.15 196.98 427.79 194.99 427.42 C 201.48 428.27 207.61 425.69 213.97 425.04 C 218.23 424.45 222.54 424.31 226.76 423.46 C 225.88 423.10 224.99 422.74 224.11 422.39 C 229.13 422.95 234.03 421.58 239.01 421.29 C 237.35 420.96 235.68 420.65 234.02 420.35 C 240.06 421.14 245.95 419.09 251.99 419.48 C 250.00 419.13 248.02 418.73 246.03 418.41 C 250.58 418.80 255.17 418.31 259.47 416.71 C 263.48 415.09 267.87 415.86 272.05 415.13 C 278.34 414.06 284.55 412.04 291.01 412.48 C 289.01 412.11 287.01 411.75 285.01 411.40 C 291.04 412.08 296.93 409.96 302.98 410.54 C 300.99 410.18 299.01 409.79 297.02 409.46 Z" />
<path fill="#1e479c" opacity="1.00" d=" M 122.01 440.65 C 132.90 440.90 143.24 436.20 154.09 436.46 C 161.28 437.02 164.18 447.41 159.00 452.04 C 155.38 455.79 149.78 455.56 145.01 456.38 C 137.93 457.01 131.13 459.47 123.99 459.70 C 125.65 460.03 127.32 460.35 128.99 460.66 C 120.19 459.58 111.77 463.53 102.96 462.76 C 99.76 463.17 96.59 460.95 95.54 458.02 C 95.24 454.06 94.30 448.83 98.40 446.47 C 103.18 443.82 108.81 443.54 114.09 442.67 C 116.83 442.32 119.17 440.42 122.01 440.65 Z" />
<path fill="#1e479c" opacity="1.00" d=" M 534.36 443.13 C 537.41 442.47 540.73 442.08 543.72 443.22 C 547.89 444.85 552.53 444.42 556.68 446.20 C 576.09 452.03 591.45 469.12 595.31 488.98 C 595.40 492.35 596.28 495.62 596.65 498.96 C 597.26 510.06 594.80 521.27 589.51 531.03 C 582.21 541.79 572.66 551.99 560.02 556.15 C 557.69 556.98 555.71 558.90 553.07 558.57 C 549.56 558.43 546.58 561.04 543.03 560.53 C 537.60 559.93 531.94 561.36 526.74 559.28 C 523.83 557.94 520.24 559.45 517.63 557.41 C 514.07 554.80 509.28 554.22 506.52 550.53 C 501.92 547.99 498.01 544.43 494.35 540.67 C 491.02 536.92 488.76 532.39 485.72 528.43 C 482.64 523.10 480.29 517.21 479.74 511.03 C 479.32 506.02 479.56 500.99 479.54 495.98 C 479.45 491.58 481.25 487.47 481.71 483.15 C 481.79 481.76 482.73 480.68 483.45 479.57 C 486.82 474.83 489.00 469.32 492.80 464.86 C 496.43 460.50 500.21 455.96 505.33 453.30 C 508.13 451.82 510.65 449.81 513.70 448.84 C 516.29 448.15 517.85 445.55 520.33 444.78 C 525.04 444.60 529.75 444.28 534.36 443.13 M 531.35 459.25 C 526.82 460.91 521.74 460.92 517.56 463.49 C 514.05 465.57 510.53 467.74 507.55 470.55 C 498.57 479.98 494.20 493.40 495.29 506.31 C 496.01 511.68 498.27 516.68 500.20 521.70 C 505.52 531.32 514.30 539.25 524.96 542.37 C 528.61 543.06 531.95 545.37 535.79 544.80 C 541.03 544.09 546.73 545.42 551.49 542.57 C 556.12 540.12 561.65 539.24 565.56 535.55 C 571.32 529.98 575.94 523.21 579.04 515.83 C 580.36 510.66 580.65 505.28 581.33 500.00 C 580.64 491.43 578.01 482.90 573.25 475.71 C 570.57 473.06 567.96 470.34 565.26 467.72 C 558.60 462.80 550.50 459.36 542.13 459.38 C 538.54 459.22 534.84 457.77 531.35 459.25 Z" />
<path fill="#1e479c" opacity="1.00" d=" M 315.01 452.38 C 322.81 453.31 330.32 450.28 338.06 450.39 C 341.19 450.24 344.04 452.28 345.38 455.04 C 345.93 459.10 346.37 464.03 342.89 466.98 C 340.37 469.78 336.37 469.30 332.99 469.62 C 319.98 471.62 307.24 475.63 293.98 475.48 C 296.33 475.85 298.67 476.23 301.02 476.61 C 292.04 475.27 283.37 479.95 274.44 478.34 C 270.07 475.41 269.67 469.80 270.73 465.10 C 272.07 462.29 274.77 460.45 277.86 460.19 C 286.27 458.90 294.54 456.82 303.01 455.91 C 309.04 455.22 314.86 453.09 321.00 453.36 C 319.02 452.95 317.01 452.64 315.01 452.38 Z" />
<path fill="#20dca5" opacity="1.00" d=" M 531.35 459.25 C 534.84 457.77 538.54 459.22 542.13 459.38 C 550.50 459.36 558.60 462.80 565.26 467.72 C 567.96 470.34 570.57 473.06 573.25 475.71 C 578.01 482.90 580.64 491.43 581.33 500.00 C 580.65 505.28 580.36 510.66 579.04 515.83 C 575.94 523.21 571.32 529.98 565.56 535.55 C 561.65 539.24 556.12 540.12 551.49 542.57 C 546.73 545.42 541.03 544.09 535.79 544.80 C 531.95 545.37 528.61 543.06 524.96 542.37 C 514.30 539.25 505.52 531.32 500.20 521.70 C 498.27 516.68 496.01 511.68 495.29 506.31 C 494.20 493.40 498.57 479.98 507.55 470.55 C 510.53 467.74 514.05 465.57 517.56 463.49 C 521.74 460.92 526.82 460.91 531.35 459.25 Z" />
<path fill="#1e479c" opacity="1.00" d=" M 225.16 468.34 C 231.62 469.50 237.63 466.48 243.98 466.04 C 247.61 465.50 251.84 464.62 254.97 467.12 C 258.52 469.47 259.25 474.17 258.34 478.07 C 256.78 482.31 252.13 484.65 247.90 485.28 C 242.23 485.37 236.68 486.91 230.99 486.47 C 233.32 486.83 235.65 487.22 237.98 487.57 C 231.61 486.93 225.39 489.20 219.02 488.38 C 221.01 488.72 223.01 489.07 225.01 489.42 C 214.09 489.31 203.73 493.24 192.89 493.81 C 194.73 494.84 196.90 494.39 198.92 494.50 C 194.64 495.18 190.30 495.26 185.98 495.51 C 179.79 496.40 173.61 497.47 167.57 499.11 C 158.39 500.15 149.35 502.94 140.03 502.46 C 142.36 502.81 144.68 503.20 147.01 503.56 C 140.63 502.92 134.39 505.15 128.01 504.41 C 130.34 504.78 132.67 505.16 135.01 505.53 C 129.93 505.07 124.98 506.56 119.91 506.60 C 115.98 506.52 112.17 510.07 108.33 507.73 C 102.34 505.27 100.37 496.70 105.14 492.14 C 108.53 489.70 112.80 488.53 116.95 488.43 C 120.97 488.05 124.96 487.25 129.03 487.48 C 127.02 487.11 125.01 486.76 123.01 486.40 C 126.01 486.48 129.07 486.74 132.03 486.03 C 135.67 485.23 139.12 483.39 142.94 483.60 C 147.02 483.64 151.00 482.69 155.03 482.24 C 153.36 481.91 151.69 481.62 150.02 481.33 C 155.73 482.08 161.35 480.80 167.00 480.28 C 165.34 479.94 163.68 479.64 162.02 479.35 C 168.06 480.16 173.97 478.11 180.01 478.49 C 178.00 478.11 176.00 477.76 173.99 477.40 C 179.28 477.91 184.59 477.14 189.45 474.98 C 194.11 474.52 198.85 474.56 203.32 472.87 C 208.88 472.46 214.40 471.19 220.01 471.54 C 217.66 471.17 215.32 470.79 212.98 470.42 C 218.02 470.89 222.99 469.90 227.97 469.38 C 227.03 469.01 226.10 468.67 225.16 468.34 Z" />
<path fill="#1e479c" opacity="1.00" d=" M 271.01 506.32 C 280.18 507.96 288.90 503.11 298.02 504.53 C 306.19 506.98 304.97 519.68 297.66 522.34 C 293.18 523.49 288.54 523.78 283.98 524.49 C 281.22 524.67 278.89 526.56 276.08 526.44 C 271.69 526.57 267.39 527.63 262.99 527.66 C 264.98 527.99 266.98 528.34 268.99 528.63 C 262.60 527.86 256.36 530.06 249.97 529.47 C 252.30 529.84 254.63 530.23 256.97 530.58 C 246.79 529.61 237.06 534.18 226.92 533.54 C 219.35 532.12 217.75 520.13 224.71 516.71 C 232.60 513.18 241.51 512.94 250.01 512.45 C 248.00 512.07 246.00 511.72 243.99 511.38 C 247.00 511.47 250.07 511.75 253.03 511.04 C 256.67 510.24 260.12 508.40 263.94 508.60 C 268.01 508.64 272.00 507.76 276.02 507.23 C 274.35 506.90 272.68 506.61 271.01 506.32 Z" />
<path fill="#1e479c" opacity="1.00" d=" M 180.03 522.37 C 186.13 522.92 192.20 522.05 198.14 520.70 C 202.26 519.52 206.92 522.10 208.50 525.97 C 208.73 529.66 209.82 534.70 206.04 537.00 C 203.29 538.59 200.38 540.47 197.08 540.38 C 194.61 540.35 192.19 540.77 189.90 541.68 C 186.52 542.97 182.74 541.95 179.34 543.25 C 175.27 544.92 170.74 544.09 166.61 545.52 C 161.88 547.00 156.72 546.22 152.10 548.17 C 149.55 549.39 146.73 549.42 143.96 549.49 C 140.88 549.52 138.17 551.43 135.08 551.41 C 128.47 551.66 121.72 553.73 115.16 552.07 C 111.01 550.50 111.01 545.65 111.32 541.95 C 111.18 539.01 113.24 536.11 116.05 535.28 C 120.25 533.71 124.76 533.37 129.21 533.45 C 129.42 532.86 129.62 532.28 129.83 531.70 C 135.28 531.79 140.63 530.79 146.03 530.28 C 144.36 529.94 142.69 529.63 141.01 529.33 C 144.31 529.48 147.69 529.83 150.91 528.91 C 157.07 527.07 163.53 526.80 169.89 526.23 C 175.08 524.41 180.53 523.56 186.01 523.28 C 184.03 522.91 182.03 522.63 180.03 522.37 Z" />
</svg>
