<?xml version="1.0" encoding="UTF-8" ?>
<!DOCTYPE svg PUBLIC "-//W3C//DTD SVG 1.1//EN" "http://www.w3.org/Graphics/SVG/1.1/DTD/svg11.dtd">
<svg width="558pt" height="524pt" viewBox="0 0 558 524" version="1.1" xmlns="http://www.w3.org/2000/svg">
<path fill="#1e479c" opacity="1.00" d=" M 445.19 0.00 L 455.96 0.00 C 461.43 1.90 467.19 2.84 472.60 4.93 C 485.80 10.10 496.74 20.42 503.34 32.89 C 504.59 35.41 506.01 38.08 505.74 40.99 C 505.35 46.73 497.66 50.87 493.01 46.93 C 489.33 43.42 487.71 38.39 484.72 34.36 C 475.54 21.40 458.60 15.06 443.09 17.93 C 374.51 30.20 305.88 42.21 237.28 54.36 C 228.21 55.96 219.03 58.03 211.05 62.82 C 190.92 73.98 178.54 97.13 179.45 120.00 C 179.65 131.43 179.15 142.88 179.67 154.29 C 184.30 153.98 188.78 152.69 193.35 151.97 C 289.77 134.93 386.19 117.82 482.61 100.77 C 486.20 100.02 490.14 100.06 493.33 98.02 C 493.92 90.49 492.91 82.89 493.86 75.39 C 494.89 69.55 503.39 67.60 507.23 71.87 C 509.67 74.24 509.67 77.81 509.68 80.96 C 509.62 169.32 509.71 257.68 509.64 346.04 C 509.74 358.43 505.70 370.25 501.92 381.88 C 508.81 380.08 516.26 377.97 523.25 380.48 C 529.92 383.20 535.81 388.88 537.52 396.02 C 538.31 405.67 537.36 415.38 537.78 425.05 C 538.11 429.98 541.80 433.69 544.60 437.45 C 549.46 443.19 553.66 449.43 558.00 455.56 L 558.00 464.67 C 557.46 473.07 551.69 481.03 543.79 484.05 C 536.59 486.97 528.88 488.31 521.58 490.91 C 519.16 491.77 516.77 493.00 515.21 495.10 C 509.74 502.08 505.92 510.31 499.62 516.64 C 496.56 519.80 492.56 521.73 488.85 524.00 L 479.19 524.00 C 474.89 521.73 470.27 519.70 467.00 515.97 C 461.39 509.72 457.70 502.04 452.45 495.51 C 449.09 491.39 443.62 490.22 438.77 488.78 C 429.36 486.36 418.49 484.11 412.91 475.25 C 408.03 468.36 409.55 459.63 410.85 451.90 C 399.74 453.87 388.39 455.23 377.12 453.84 C 357.99 451.87 338.83 444.71 324.94 431.06 C 313.38 420.17 305.86 405.27 303.52 389.60 C 302.99 383.74 303.19 377.84 303.22 371.97 C 303.17 364.68 305.12 357.59 307.24 350.68 C 314.23 329.03 328.78 310.42 346.48 296.40 C 370.43 277.68 400.91 267.18 431.36 268.20 C 431.56 223.12 431.33 178.04 431.48 132.97 C 431.42 131.03 431.57 128.93 430.33 127.30 C 425.62 127.35 421.02 128.43 416.42 129.30 C 358.14 139.37 299.96 150.05 241.63 159.90 C 241.46 239.28 241.62 318.67 241.48 398.05 C 241.37 404.11 239.86 410.04 238.28 415.87 C 231.23 440.12 215.09 461.14 194.80 475.90 C 175.13 490.60 151.23 499.31 126.84 501.58 C 110.05 502.70 92.99 499.65 77.69 492.62 C 65.18 487.02 54.58 477.64 46.73 466.48 C 41.27 458.13 37.62 448.62 35.86 438.81 C 34.98 431.57 35.26 424.25 35.36 416.97 C 35.44 409.52 37.65 402.32 40.07 395.35 C 41.31 392.02 42.52 388.53 45.00 385.90 C 46.67 383.76 49.65 384.18 52.03 384.20 C 55.06 384.06 57.13 386.87 58.18 389.38 C 59.28 392.68 57.57 395.97 56.45 399.02 C 52.96 407.55 51.03 416.76 51.45 426.00 C 50.78 441.40 57.49 456.82 68.96 467.06 C 81.89 478.81 99.58 485.12 117.00 484.70 C 124.06 484.68 131.19 484.86 138.13 483.34 C 161.35 478.57 183.30 466.90 199.59 449.60 C 212.24 436.89 221.25 420.39 224.38 402.69 C 226.69 390.58 224.88 377.79 219.72 366.63 C 212.09 350.94 196.85 339.77 180.19 335.24 C 170.08 332.17 159.43 332.06 148.96 332.53 C 125.93 334.66 103.76 344.21 86.06 359.05 C 83.23 361.48 80.73 364.31 77.66 366.46 C 75.31 368.25 72.09 367.92 69.35 367.47 C 65.88 366.17 63.76 361.97 64.57 358.37 C 65.44 355.62 67.48 353.47 69.49 351.50 C 89.94 332.42 116.44 319.71 144.27 316.49 C 150.63 316.08 157.01 316.24 163.38 316.27 C 163.41 247.83 163.34 179.39 163.46 110.95 C 165.33 85.34 180.41 60.79 202.95 48.23 C 211.59 43.08 221.40 40.41 231.22 38.66 C 299.20 26.71 367.14 14.52 435.12 2.57 C 438.55 2.03 441.91 1.13 445.19 0.00 M 448.74 122.79 C 448.36 126.18 447.68 129.54 447.68 132.97 C 447.69 175.66 447.69 218.35 447.68 261.04 C 447.69 264.47 448.37 267.85 448.65 271.27 C 459.53 273.22 469.76 278.03 478.82 284.28 C 484.23 287.96 488.69 292.78 493.47 297.21 C 493.57 236.90 493.37 176.59 493.58 116.29 C 478.44 116.90 463.86 122.03 448.74 122.79 M 179.86 171.04 C 179.26 173.64 179.48 176.34 179.45 179.00 C 179.54 225.38 179.38 271.76 179.53 318.14 C 191.77 320.75 203.40 326.14 213.46 333.58 C 217.72 336.66 221.29 340.54 225.25 343.97 C 225.41 283.81 225.25 223.64 225.33 163.47 C 210.03 164.98 195.05 168.76 179.86 171.04 M 329.88 340.08 C 323.51 351.64 319.00 364.67 319.19 377.99 C 318.55 394.90 326.96 411.44 339.69 422.30 C 355.99 435.24 377.89 439.44 398.25 437.06 C 408.42 435.57 418.73 433.51 428.03 429.00 C 429.62 426.01 430.47 422.47 429.79 419.11 C 429.10 413.09 429.25 407.03 429.26 400.99 C 429.16 392.28 435.26 384.27 443.06 380.84 C 446.78 379.05 451.03 379.31 455.03 379.51 C 463.73 380.33 471.10 385.99 479.79 386.84 C 485.89 377.46 490.23 366.90 492.24 355.89 C 492.91 348.63 492.80 341.29 492.35 334.02 C 490.40 321.09 483.37 309.05 473.31 300.73 C 463.37 292.36 450.75 287.69 438.02 285.74 C 429.71 285.08 421.33 285.18 413.00 285.61 C 378.98 289.85 347.06 310.27 329.88 340.08 M 445.79 400.45 C 444.16 410.86 448.50 421.57 445.06 431.78 C 442.03 441.49 434.77 448.87 428.62 456.66 C 426.10 459.41 426.29 463.25 426.22 466.72 C 436.31 473.29 449.37 471.99 459.35 478.74 C 466.60 484.05 470.21 492.58 475.19 499.78 C 477.21 502.61 479.14 506.01 482.64 507.18 C 484.69 507.94 486.50 506.23 487.90 504.96 C 495.35 497.20 498.98 486.27 507.61 479.56 C 516.48 473.67 527.56 473.11 537.18 468.98 C 539.85 467.88 542.41 465.32 541.66 462.18 C 540.36 457.76 536.91 454.40 534.20 450.80 C 529.14 444.21 522.56 437.78 521.75 429.05 C 520.95 419.41 522.28 409.71 521.54 400.07 C 521.53 398.43 520.69 396.44 518.78 396.47 C 506.01 394.64 495.64 405.36 482.98 404.63 C 471.67 404.53 462.31 396.13 451.02 396.20 C 448.42 395.91 446.20 397.98 445.79 400.45 Z" />
<path fill="#1e479c" opacity="1.00" d=" M 57.23 72.98 C 62.27 69.29 68.95 69.96 74.79 70.67 C 83.33 73.21 88.02 81.54 92.64 88.50 C 95.37 92.47 97.88 97.20 102.63 99.05 C 110.93 102.34 120.28 103.01 127.87 108.02 C 134.01 112.10 137.25 119.70 136.63 126.97 C 136.50 134.97 130.70 141.12 126.09 147.08 C 123.14 151.05 119.14 154.82 118.68 160.03 C 118.17 168.27 119.39 176.55 118.50 184.77 C 116.89 195.51 105.85 203.78 95.09 202.36 C 89.24 201.56 83.87 198.89 78.34 196.96 C 74.22 195.53 69.86 193.51 65.41 194.67 C 57.80 196.79 50.75 200.68 42.98 202.24 C 30.68 204.78 17.36 193.71 18.24 181.06 C 18.13 174.03 18.59 166.98 18.21 159.95 C 18.03 155.99 15.40 152.83 13.04 149.87 C 8.00 143.64 2.52 137.40 0.00 129.64 L 0.00 119.21 C 2.90 114.79 5.63 109.89 10.37 107.17 C 18.01 102.78 27.06 102.15 35.07 98.69 C 38.84 97.16 40.95 93.49 43.12 90.28 C 47.17 84.06 50.93 77.24 57.23 72.98 M 64.95 87.96 C 58.01 95.44 54.32 105.73 45.83 111.80 C 38.78 116.28 30.09 116.58 22.48 119.68 C 19.76 121.00 16.39 122.58 15.55 125.75 C 21.12 134.08 28.62 141.21 32.82 150.44 C 36.68 160.99 32.87 172.45 34.94 183.25 C 35.67 186.43 39.38 185.86 41.82 185.51 C 50.71 183.47 58.79 178.33 68.01 177.63 C 79.60 177.85 89.35 186.36 101.08 185.89 C 104.55 175.06 100.56 163.44 103.26 152.49 C 106.27 142.80 114.75 136.35 119.72 127.79 C 121.26 125.55 120.28 122.38 117.87 121.23 C 111.13 117.57 103.25 117.14 96.11 114.59 C 90.04 112.29 85.66 107.15 81.94 102.04 C 78.55 97.42 76.14 92.07 72.10 87.95 C 70.35 85.80 66.62 85.66 64.95 87.96 Z" />
<path fill="#20dca5" opacity="1.00" d=" M 64.95 87.96 C 66.62 85.66 70.35 85.80 72.10 87.95 C 76.14 92.07 78.55 97.42 81.94 102.04 C 85.66 107.15 90.04 112.29 96.11 114.59 C 103.25 117.14 111.13 117.57 117.87 121.23 C 120.28 122.38 121.26 125.55 119.72 127.79 C 114.75 136.35 106.27 142.80 103.26 152.49 C 100.56 163.44 104.55 175.06 101.08 185.89 C 89.35 186.36 79.60 177.85 68.01 177.63 C 58.79 178.33 50.71 183.47 41.82 185.51 C 39.38 185.86 35.67 186.43 34.94 183.25 C 32.87 172.45 36.68 160.99 32.82 150.44 C 28.62 141.21 21.12 134.08 15.55 125.75 C 16.39 122.58 19.76 121.00 22.48 119.68 C 30.09 116.58 38.78 116.28 45.83 111.80 C 54.32 105.73 58.01 95.44 64.95 87.96 Z" />
<path fill="#20dca5" opacity="1.00" d=" M 445.79 400.45 C 446.20 397.98 448.42 395.91 451.02 396.20 C 462.31 396.13 471.67 404.53 482.98 404.63 C 495.64 405.36 506.01 394.64 518.78 396.47 C 520.69 396.44 521.53 398.43 521.54 400.07 C 522.28 409.71 520.95 419.41 521.75 429.05 C 522.56 437.78 529.14 444.21 534.20 450.80 C 536.91 454.40 540.36 457.76 541.66 462.18 C 542.41 465.32 539.85 467.88 537.18 468.98 C 527.56 473.11 516.48 473.67 507.61 479.56 C 498.98 486.27 495.35 497.20 487.90 504.96 C 486.50 506.23 484.69 507.94 482.64 507.18 C 479.14 506.01 477.21 502.61 475.19 499.78 C 470.21 492.58 466.60 484.05 459.35 478.74 C 449.37 471.99 436.31 473.29 426.22 466.72 C 426.29 463.25 426.10 459.41 428.62 456.66 C 434.77 448.87 442.03 441.49 445.06 431.78 C 448.50 421.57 444.16 410.86 445.79 400.45 Z" />
</svg>
