<svg width="16" height="16" viewBox="0 0 16 16" fill="none" xmlns="http://www.w3.org/2000/svg">
<path d="M8 0C8.55229 0 9 0.447715 9 1V8.58579L10.2929 7.29289C10.6834 6.90237 11.3166 6.90237 11.7071 7.29289C12.0976 7.68342 12.0976 8.31658 11.7071 8.70711L8.70711 11.7071C8.31658 12.0976 7.68342 12.0976 7.29289 11.7071L4.29289 8.70711C3.90237 8.31658 3.90237 7.68342 4.29289 7.29289C4.68342 6.90237 5.31658 6.90237 5.70711 7.29289L7 8.58579V1C7 0.447715 7.44772 0 8 0Z" fill="white"/>
<path d="M2 10C2 9.44771 1.55228 9 1 9C0.447715 9 0 9.44771 0 10V11C0 13.7614 2.23858 16 5 16H11C13.7614 16 16 13.7614 16 11V10C16 9.44771 15.5523 9 15 9C14.4477 9 14 9.44771 14 10V11C14 12.6569 12.6569 14 11 14H5C3.34315 14 2 12.6569 2 11V10Z" fill="white"/>
</svg>
