<svg width="26" height="26" viewBox="0 0 26 26" fill="none" xmlns="http://www.w3.org/2000/svg">
<path d="M12.6775 23.1194C11.2123 23.1194 9.73664 22.5582 8.62472 21.4463L3.91725 16.7388C2.77416 15.5957 2.17144 14.0162 2.24418 12.4054L2.49358 7.20955C2.60789 4.72591 4.57193 2.76187 7.06596 2.63717L12.2618 2.38777C13.8726 2.32542 15.4521 2.91775 16.5952 4.06084L21.3027 8.76831C23.5369 11.0026 23.5369 14.6501 21.3027 16.8843L16.7407 21.4463C15.6184 22.5582 14.1531 23.1194 12.6775 23.1194ZM5.01878 15.6269L9.72625 20.3344C10.516 21.1241 11.5656 21.5606 12.6775 21.5606C13.7894 21.5606 14.839 21.1241 15.6288 20.3344L20.1907 15.7724C20.9805 14.9826 21.417 13.933 21.417 12.8211C21.417 11.7092 20.9805 10.6596 20.1907 9.86984L15.4833 5.16237C14.6519 4.33103 13.4985 3.88418 12.3346 3.94653L7.1387 4.19593C5.44484 4.26868 4.12509 5.58843 4.04195 7.2719L3.79255 12.4678C3.74059 13.6421 4.18744 14.7956 5.01878 15.6269Z" fill="white"/>
<path d="M10.0082 13.5276C8.14806 13.5276 6.63086 12.0104 6.63086 10.1503C6.63086 8.29015 8.14806 6.77295 10.0082 6.77295C11.8683 6.77295 13.3855 8.29015 13.3855 10.1503C13.3855 12.0104 11.8683 13.5276 10.0082 13.5276ZM10.0082 8.33171C9.01057 8.33171 8.18962 9.15266 8.18962 10.1503C8.18962 11.1479 9.01057 11.9688 10.0082 11.9688C11.0058 11.9688 11.8267 11.1479 11.8267 10.1503C11.8267 9.15266 11.0058 8.33171 10.0082 8.33171Z" fill="white"/>
</svg>
