<svg width="32" height="33" viewBox="0 0 32 33" fill="none" xmlns="http://www.w3.org/2000/svg">
<mask id="mask0_288_4414" style="mask-type:luminance" maskUnits="userSpaceOnUse" x="0" y="0" width="32" height="33">
<path d="M32 0.790527H0.642578V32.8772H32V0.790527Z" fill="white"/>
</mask>
<g mask="url(#mask0_288_4414)">
<path d="M12.2325 17.5112L0.748047 30.4332L0.749837 30.4411C0.873984 30.9303 1.10296 31.3824 1.41894 31.7625C1.73491 32.1425 2.12936 32.4399 2.57156 32.6319C3.01377 32.8239 3.4918 32.9051 3.96843 32.8691C4.44506 32.833 4.90743 32.681 5.31952 32.4246L5.35602 32.4013L18.283 24.4942L12.2325 17.5112Z" fill="#96FFF0"/>
<path d="M23.8509 15.3106L23.8401 15.3028L18.2592 11.8726L11.9717 17.8042L18.2813 24.4919L23.8328 21.0963C24.3251 20.8157 24.7368 20.3992 25.0245 19.8911C25.312 19.3829 25.4648 18.8019 25.4667 18.2092C25.4686 17.6165 25.3194 17.0344 25.0351 16.5242C24.7506 16.0139 24.3415 15.5947 23.8509 15.3106Z" fill="#96FFF0"/>
<path d="M0.747772 5.90723C0.677611 6.18313 0.642243 6.46767 0.642588 6.75343V29.5871C0.641889 29.8727 0.677514 30.1571 0.748504 30.4325L12.6279 17.8414L0.747772 5.90723Z" fill="#96FFF0"/>
<path d="M12.3179 18.1702L18.2616 11.8705L5.34942 3.93406C4.93707 3.6715 4.47285 3.51402 3.99332 3.47402C3.51377 3.43402 3.03203 3.5126 2.58603 3.70357C2.14001 3.89454 1.74192 4.19268 1.4231 4.57452C1.10428 4.95635 0.873441 5.41143 0.748769 5.90394L0.748047 5.9072L12.3179 18.1702Z" fill="#96FFF0"/>
</g>
</svg>
