<svg width="97" height="98" viewBox="0 0 97 98" fill="none" xmlns="http://www.w3.org/2000/svg">
<ellipse cx="48.4361" cy="48.6871" rx="48.4361" ry="48.6871" fill="url(#paint0_radial_288_4560)"/>
<path fill-rule="evenodd" clip-rule="evenodd" d="M35.5136 26.1686H63.9577C66.2018 26.1686 68.0211 27.9879 68.0211 30.2321V61.0214C68.0211 63.8358 65.2293 65.7979 62.5813 64.8446L59.4082 63.7023C58.4167 63.3454 57.3253 63.3876 56.3644 63.82L51.4031 66.0526C50.3427 66.5298 49.1286 66.5298 48.0682 66.0526L43.1069 63.82C42.1459 63.3876 41.0546 63.3454 40.0631 63.7023L36.89 64.8446C34.242 65.7979 31.4502 63.8358 31.4502 61.0214V30.2321C31.4502 27.9879 33.2695 26.1686 35.5136 26.1686ZM41.6088 34.8034C40.7672 34.8034 40.085 35.4857 40.085 36.3272C40.085 37.1688 40.7672 37.851 41.6088 37.851H49.7356C50.5772 37.851 51.2594 37.1688 51.2594 36.3272C51.2594 35.4857 50.5772 34.8034 49.7356 34.8034H41.6088ZM41.6088 42.9303C40.7672 42.9303 40.085 43.6125 40.085 44.4541C40.085 45.2957 40.7672 45.9779 41.6088 45.9779H57.8625C58.7041 45.9779 59.3863 45.2957 59.3863 44.4541C59.3863 43.6125 58.7041 42.9303 57.8625 42.9303H41.6088ZM41.6088 51.0572C40.7672 51.0572 40.085 51.7394 40.085 52.581C40.085 53.4225 40.7672 54.1047 41.6088 54.1047H57.8625C58.7041 54.1047 59.3863 53.4225 59.3863 52.581C59.3863 51.7394 58.7041 51.0572 57.8625 51.0572H41.6088Z" fill="white"/>
<defs>
<radialGradient id="paint0_radial_288_4560" cx="0" cy="0" r="1" gradientUnits="userSpaceOnUse" gradientTransform="translate(64.7488 6.27411) rotate(122.986) scale(79.2861 120.604)">
<stop stop-color="#32BEBB"/>
<stop offset="1" stop-color="#41DFCA"/>
</radialGradient>
</defs>
</svg>
