<?xml version="1.0" encoding="UTF-8" ?>
<!DOCTYPE svg PUBLIC "-//W3C//DTD SVG 1.1//EN" "http://www.w3.org/Graphics/SVG/1.1/DTD/svg11.dtd">
<svg width="566pt" height="554pt" viewBox="0 0 566 554" version="1.1" xmlns="http://www.w3.org/2000/svg">
<path fill="#1e479c" opacity="1.00" d=" M 228.60 0.00 L 338.07 0.00 C 344.50 2.37 351.69 3.40 357.03 8.03 C 364.13 14.20 369.14 23.38 368.77 32.95 C 368.71 48.23 368.89 63.51 368.78 78.78 C 374.54 77.84 380.03 75.30 385.96 75.41 C 418.30 75.45 450.65 75.42 483.00 75.43 C 489.99 75.49 497.33 74.70 503.86 77.76 C 514.94 82.17 524.16 92.69 524.41 104.99 C 524.37 189.01 524.48 273.03 524.46 357.05 C 524.51 362.36 522.71 367.44 521.95 372.65 C 532.87 372.81 545.35 371.12 554.45 378.58 C 561.33 383.84 564.07 392.62 564.25 400.99 C 564.75 408.69 563.44 416.35 563.71 424.06 C 563.96 432.29 558.17 439.20 551.85 443.78 C 547.02 447.31 540.89 448.23 535.04 448.24 C 524.54 448.21 514.04 448.17 503.54 448.36 C 503.50 475.60 503.48 502.83 503.48 530.07 C 503.45 535.47 501.22 540.73 497.85 544.90 C 494.41 549.11 489.19 551.11 484.74 554.00 L 460.68 554.00 C 454.72 552.36 448.21 550.88 443.84 546.17 C 438.70 541.26 436.54 534.01 436.56 527.05 C 436.66 500.57 436.65 474.08 436.58 447.60 C 333.97 447.71 231.36 447.46 128.75 447.72 C 128.71 475.83 128.77 503.93 128.72 532.04 C 129.05 538.28 125.17 543.77 120.64 547.68 C 116.15 551.56 110.17 552.98 104.47 554.00 L 81.38 554.00 C 75.82 550.75 69.36 548.05 66.18 542.05 C 62.04 535.81 62.35 528.15 62.53 521.00 C 62.57 497.65 62.47 474.29 62.50 450.94 C 63.02 448.81 61.02 447.29 59.03 447.62 C 49.02 447.56 39.00 447.64 28.99 447.65 C 14.92 448.86 1.89 435.94 1.75 422.06 C 1.61 414.69 1.74 407.31 1.71 399.94 C 1.54 389.49 7.94 378.97 17.73 374.98 C 26.09 371.35 35.40 373.07 44.22 372.67 C 43.34 367.46 41.56 362.38 41.60 357.05 C 41.57 274.36 41.64 191.67 41.56 108.97 C 40.75 96.14 48.92 83.46 60.64 78.37 C 65.70 75.84 71.42 75.26 77.00 75.46 C 111.33 75.40 145.67 75.46 180.00 75.41 C 185.68 75.25 191.12 77.04 196.51 78.60 C 196.85 63.04 196.52 47.48 196.68 31.92 C 197.04 23.88 200.63 15.98 206.54 10.49 C 212.45 4.52 220.58 1.74 228.60 0.00 M 221.95 19.19 C 216.88 21.74 213.30 27.22 213.55 32.96 C 213.59 45.74 213.35 58.52 213.66 71.29 C 257.45 71.39 301.24 71.27 345.03 71.35 C 347.52 71.27 350.30 71.66 352.41 70.01 C 352.69 57.67 352.52 45.31 352.45 32.97 C 352.34 24.50 344.48 17.15 336.05 17.47 C 302.03 17.46 268.01 17.49 234.00 17.45 C 229.95 17.49 225.60 17.06 221.95 19.19 M 213.37 88.10 C 213.47 96.56 213.36 105.03 213.53 113.49 C 228.01 113.88 242.51 113.54 257.00 113.66 C 288.83 113.54 320.66 113.88 352.48 113.49 C 352.64 106.98 352.49 100.48 352.66 93.97 C 352.62 91.93 352.86 89.81 352.16 87.85 C 351.13 87.66 350.08 87.55 349.03 87.52 C 308.03 87.39 267.02 87.55 226.01 87.45 C 221.79 87.38 217.54 87.36 213.37 88.10 M 381.58 92.13 C 374.08 93.88 368.54 101.27 368.74 108.92 C 368.81 119.96 368.84 131.00 368.78 142.04 C 368.65 143.58 369.08 145.98 371.17 145.49 C 416.05 145.59 460.95 145.53 505.83 145.50 C 507.93 146.04 508.27 143.56 508.21 142.05 C 508.25 130.67 508.22 119.30 508.20 107.93 C 508.45 99.31 500.61 91.61 492.05 91.72 C 456.68 91.69 421.31 91.75 385.94 91.69 C 384.47 91.70 383.00 91.75 381.58 92.13 M 58.37 107.96 C 58.29 120.23 58.32 132.50 58.42 144.78 C 68.25 145.21 78.30 143.72 87.92 146.37 C 90.24 146.85 92.04 148.71 92.88 150.86 C 94.83 155.72 91.28 162.06 85.91 162.35 C 76.75 162.66 67.58 162.30 58.42 162.48 C 58.28 171.15 58.27 179.83 58.44 188.50 C 104.48 188.51 150.52 188.52 196.56 188.50 C 196.72 179.83 196.69 171.16 196.58 162.50 C 170.70 162.45 144.81 162.40 118.93 162.45 C 114.28 162.84 109.21 158.91 109.57 154.00 C 109.20 148.98 114.30 145.19 119.01 145.55 C 144.85 145.59 170.68 145.53 196.51 145.49 C 196.83 132.99 196.56 120.47 196.67 107.97 C 197.21 99.97 190.14 92.15 182.05 92.32 C 146.02 92.31 110.00 92.33 73.97 92.31 C 65.62 91.64 57.82 99.68 58.37 107.96 M 213.76 130.46 C 213.61 132.29 213.52 134.12 213.51 135.97 C 213.54 175.33 213.53 214.69 213.51 254.05 C 213.44 256.22 214.12 258.30 214.70 260.37 C 259.44 260.18 304.19 260.33 348.94 260.30 C 350.84 260.55 352.94 259.04 352.48 256.96 C 352.58 214.83 352.55 172.70 352.47 130.57 C 306.23 130.36 260.00 130.57 213.76 130.46 M 369.33 162.37 C 369.38 171.07 369.15 179.79 369.49 188.49 C 415.54 188.69 461.59 188.46 507.65 188.63 C 507.76 179.88 507.78 171.12 507.67 162.36 C 461.56 162.45 415.44 162.44 369.33 162.37 M 58.42 204.66 C 57.48 210.06 57.89 215.55 57.82 221.00 C 57.73 231.68 57.79 242.36 57.79 253.04 C 57.76 255.49 58.17 257.91 58.50 260.33 C 104.49 260.24 150.49 260.30 196.49 260.28 C 196.84 258.22 197.29 256.15 197.27 254.05 C 197.20 237.62 197.28 221.18 197.22 204.75 C 150.96 204.55 104.69 204.76 58.42 204.66 M 369.46 204.60 C 369.36 223.19 369.22 241.78 369.54 260.37 C 415.52 260.20 461.50 260.31 507.47 260.28 C 507.80 257.88 508.23 255.47 508.21 253.04 C 508.12 237.72 508.22 222.40 508.17 207.08 C 508.12 206.22 507.96 204.53 506.74 204.70 C 460.98 204.58 415.22 204.79 369.46 204.60 M 58.35 276.39 C 58.18 285.15 58.29 293.90 58.38 302.66 C 104.47 302.62 150.56 302.63 196.64 302.66 C 196.82 294.35 196.67 286.04 196.79 277.73 C 150.82 277.38 104.84 277.76 58.87 277.54 C 103.25 277.21 147.66 277.53 192.05 277.38 C 193.48 277.30 194.89 277.00 196.29 276.70 C 190.54 276.21 184.76 276.55 179.00 276.47 C 138.78 276.38 98.57 276.54 58.35 276.39 M 214.41 276.67 C 213.99 285.29 214.26 293.94 214.35 302.56 C 259.24 302.60 304.14 302.60 349.03 302.53 C 350.59 302.83 352.66 301.85 352.48 300.03 C 352.68 292.53 352.35 285.03 352.68 277.53 C 347.60 275.94 342.23 276.69 337.00 276.50 C 296.14 276.63 255.27 276.32 214.41 276.67 M 369.60 276.50 C 369.11 285.19 369.45 293.90 369.42 302.59 C 394.63 302.58 419.84 302.58 445.05 302.58 C 447.54 302.47 450.10 303.27 451.84 305.13 C 454.57 307.23 453.73 311.05 453.52 314.04 C 452.17 316.32 450.03 319.02 447.08 318.79 C 421.00 318.88 394.92 318.76 368.84 318.84 C 368.75 331.58 368.78 344.33 368.81 357.07 C 368.86 362.27 372.21 366.78 376.03 370.01 C 379.45 372.47 383.89 372.68 387.96 372.68 C 422.65 372.63 457.33 372.72 492.02 372.63 C 498.98 372.74 506.14 367.96 507.46 360.91 C 507.89 347.06 507.59 333.20 507.66 319.34 C 499.10 319.38 490.53 319.40 481.97 319.36 C 478.96 319.28 475.46 319.16 473.39 316.64 C 470.50 314.28 471.29 310.19 471.64 306.95 C 473.14 303.18 477.47 302.78 480.98 302.65 C 489.85 302.45 498.72 302.62 507.60 302.60 C 507.57 293.90 507.97 285.18 507.42 276.49 C 461.48 276.59 415.54 276.57 369.60 276.50 M 58.36 319.36 C 58.26 331.93 58.38 344.49 58.33 357.05 C 57.62 365.40 65.69 373.05 73.94 372.65 C 109.63 372.67 145.32 372.70 181.01 372.63 C 189.30 372.91 197.15 365.37 196.65 357.01 C 196.66 344.46 196.66 331.92 196.64 319.37 C 150.55 319.37 104.45 319.38 58.36 319.36 M 214.26 319.44 C 214.20 332.64 214.20 345.84 214.32 359.05 C 214.15 367.89 223.87 373.68 231.97 372.69 C 266.66 372.64 301.35 372.67 336.04 372.67 C 341.10 372.69 346.53 370.60 349.38 366.22 C 351.60 362.96 352.63 358.97 352.51 355.04 C 352.53 343.20 352.57 331.36 352.48 319.52 C 306.41 319.27 260.33 319.36 214.26 319.44 M 24.55 389.79 C 20.88 392.20 18.13 396.45 18.32 400.95 C 18.32 407.95 18.11 414.97 18.49 421.97 C 18.82 426.85 23.16 431.03 27.97 431.38 C 198.28 431.36 368.59 431.51 538.90 431.36 C 544.14 430.55 548.27 425.35 548.21 420.07 C 548.18 413.10 548.37 406.11 548.11 399.14 C 547.18 394.48 543.35 389.03 538.08 389.48 C 368.36 389.49 198.65 389.49 28.93 389.48 C 27.47 389.52 25.99 389.49 24.55 389.79 M 453.62 447.63 C 453.52 475.10 453.63 502.56 453.57 530.03 C 453.11 533.54 456.73 536.60 460.08 536.50 C 467.53 536.57 475.04 536.94 482.47 536.19 C 485.67 534.43 487.33 530.61 487.32 527.07 C 487.29 500.61 487.33 474.15 487.31 447.70 C 476.08 447.53 464.85 447.64 453.62 447.63 M 79.31 448.51 C 79.64 475.02 79.21 501.53 79.42 528.04 C 79.41 530.54 79.89 533.38 82.00 535.00 C 84.63 536.80 87.98 536.54 91.01 536.64 C 96.02 536.54 101.04 536.72 106.05 536.48 C 109.33 536.41 112.67 533.50 112.43 530.08 C 112.46 503.72 112.46 477.35 112.40 450.98 C 112.70 449.40 111.71 447.65 109.95 447.72 C 103.64 447.42 97.32 447.72 91.00 447.61 C 87.09 447.68 83.06 447.14 79.31 448.51 Z" />
<path fill="#20dca5" opacity="1.00" d=" M 213.37 88.10 C 217.54 87.36 221.79 87.38 226.01 87.45 C 267.02 87.55 308.03 87.39 349.03 87.52 C 350.08 87.55 351.13 87.66 352.16 87.85 C 352.86 89.81 352.62 91.93 352.66 93.97 C 352.49 100.48 352.64 106.98 352.48 113.49 C 320.66 113.88 288.83 113.54 257.00 113.66 C 242.51 113.54 228.01 113.88 213.53 113.49 C 213.36 105.03 213.47 96.56 213.37 88.10 Z" />
<path fill="#20dca5" opacity="1.00" d=" M 369.33 162.37 C 415.44 162.44 461.56 162.45 507.67 162.36 C 507.78 171.12 507.76 179.88 507.65 188.63 C 461.59 188.46 415.54 188.69 369.49 188.49 C 369.15 179.79 369.38 171.07 369.33 162.37 Z" />
<path fill="#20dca5" opacity="1.00" d=" M 58.35 276.39 C 98.57 276.54 138.78 276.38 179.00 276.47 C 184.76 276.55 190.54 276.21 196.29 276.70 C 194.89 277.00 193.48 277.30 192.05 277.38 C 147.66 277.53 103.25 277.21 58.87 277.54 C 104.84 277.76 150.82 277.38 196.79 277.73 C 196.67 286.04 196.82 294.35 196.64 302.66 C 150.56 302.63 104.47 302.62 58.38 302.66 C 58.29 293.90 58.18 285.15 58.35 276.39 Z" />
</svg>
