<?xml version="1.0" encoding="UTF-8" ?>
<!DOCTYPE svg PUBLIC "-//W3C//DTD SVG 1.1//EN" "http://www.w3.org/Graphics/SVG/1.1/DTD/svg11.dtd">
<svg width="482pt" height="526pt" viewBox="0 0 482 526" version="1.1" xmlns="http://www.w3.org/2000/svg">
<path fill="#122a5d" opacity="0.53" d=" M 68.73 0.00 L 77.67 0.00 C 74.31 1.30 70.80 2.17 67.21 2.62 C 56.72 4.19 47.45 9.59 38.03 14.09 C 46.69 6.44 58.31 4.18 68.73 0.00 Z" />
<path fill="#1e479c" opacity="1.00" d=" M 77.67 0.00 L 417.91 0.00 C 424.63 3.42 432.42 4.07 438.93 8.01 C 455.36 16.14 468.87 30.07 475.93 47.04 C 478.07 53.60 479.17 60.49 482.00 66.81 L 482.00 456.77 C 480.52 459.64 479.49 462.70 478.58 465.80 C 474.38 479.84 466.21 492.53 455.79 502.77 C 447.66 509.58 438.98 516.10 428.97 519.86 C 423.92 521.81 418.68 523.19 413.39 524.29 C 410.31 524.33 407.29 524.91 404.42 526.00 L 51.73 526.00 C 44.14 523.17 36.35 520.99 28.80 518.03 C 20.11 513.16 12.90 505.82 7.88 497.25 C 4.83 490.35 3.17 482.93 0.00 476.10 L 0.00 69.24 C 2.96 63.60 3.82 57.18 6.60 51.46 C 13.02 36.18 24.54 23.52 38.03 14.09 C 47.45 9.59 56.72 4.19 67.21 2.62 C 70.80 2.17 74.31 1.30 77.67 0.00 M 28.18 45.11 C 26.60 46.20 25.23 47.60 24.39 49.35 C 20.72 56.20 17.50 63.40 16.00 71.06 C 13.55 81.55 14.57 92.34 14.38 103.00 C 14.38 220.33 14.37 337.67 14.38 455.00 C 14.50 462.37 13.69 469.90 15.77 477.09 C 17.13 481.70 18.36 486.72 21.96 490.16 C 25.99 497.63 33.00 503.22 40.81 506.40 C 46.60 509.39 53.07 510.71 59.57 510.58 C 60.05 507.74 60.50 504.87 60.14 501.99 C 59.42 497.33 60.54 492.66 59.86 488.00 C 60.55 475.69 60.16 463.33 60.22 451.00 C 60.35 447.75 59.52 443.78 62.44 441.48 C 66.66 436.56 76.21 440.27 75.58 446.94 C 75.51 467.92 75.76 488.90 75.44 509.87 C 76.92 510.22 78.43 510.42 79.95 510.45 C 186.30 510.44 292.65 510.46 399.00 510.44 C 420.67 510.32 441.39 498.37 453.82 480.89 C 455.39 479.78 456.77 478.40 457.61 476.66 C 461.98 468.56 465.63 459.87 466.70 450.66 C 467.78 443.82 467.35 436.89 467.42 430.00 C 467.43 350.33 467.40 270.66 467.43 191.00 C 467.54 188.98 466.86 187.10 465.66 185.50 C 462.69 178.86 457.05 173.99 452.04 168.92 C 447.82 164.53 442.44 161.55 437.06 158.85 C 425.70 152.86 412.74 150.14 399.95 150.34 C 394.61 150.54 392.04 143.49 394.06 139.24 C 395.33 137.20 397.33 135.11 399.95 135.34 C 408.68 135.17 417.57 135.37 426.00 137.93 C 440.46 141.96 454.24 149.06 465.05 159.59 L 466.09 159.18 L 466.47 158.14 C 466.65 144.10 466.48 130.05 466.53 116.01 C 466.47 113.52 466.72 110.85 465.36 108.64 C 456.84 92.48 440.29 82.06 423.22 76.83 C 414.94 75.12 406.47 73.98 398.00 74.25 C 302.33 74.27 206.67 74.26 111.01 74.26 C 98.56 74.11 85.71 80.40 79.28 91.25 C 75.63 97.19 75.85 104.39 76.55 111.07 C 78.83 119.35 85.45 125.68 92.62 130.00 L 91.83 130.70 C 93.24 130.32 94.68 130.21 96.13 130.37 C 96.71 123.32 95.94 116.23 96.52 109.19 C 99.05 98.03 109.39 88.89 120.99 88.63 C 136.66 88.58 152.33 88.69 168.00 88.59 C 179.45 88.18 190.85 96.16 193.78 107.33 C 195.15 112.77 194.59 118.45 194.65 124.00 C 194.76 127.93 193.91 132.24 196.18 135.75 C 252.12 135.44 308.06 135.76 364.00 135.58 C 366.81 135.76 370.34 135.28 372.36 137.71 C 375.48 141.89 372.96 149.83 367.05 149.39 C 313.70 149.42 260.35 149.40 207.00 149.41 C 203.48 149.46 199.92 149.11 196.42 149.58 C 194.50 150.11 194.38 152.33 194.42 153.96 C 194.47 165.64 194.48 177.32 194.46 189.00 C 194.99 200.53 182.15 209.80 171.31 206.66 C 163.34 205.00 155.74 201.92 147.75 200.31 C 145.42 199.75 143.03 200.19 140.77 200.82 C 133.17 202.92 125.67 205.43 117.94 207.02 C 112.94 208.15 107.73 206.28 103.76 203.26 C 100.42 200.82 98.62 196.97 96.08 193.81 C 95.46 191.59 95.49 189.27 95.47 186.99 C 95.56 174.99 95.47 162.99 95.53 150.98 C 95.39 149.84 95.81 148.20 94.52 147.56 C 90.97 145.57 86.87 144.72 83.45 142.47 C 80.83 141.07 78.69 138.62 75.61 138.30 C 75.60 227.86 75.61 317.43 75.61 406.99 C 75.53 410.51 75.88 414.07 75.33 417.57 C 74.11 420.36 71.16 422.71 68.00 422.52 C 63.95 422.86 60.00 419.17 60.31 415.05 C 60.25 311.37 60.30 207.69 60.28 104.01 C 60.15 99.99 61.03 96.05 61.95 92.17 C 64.39 88.66 65.52 84.44 68.03 80.99 C 74.76 71.67 84.68 64.74 95.74 61.62 C 103.56 59.06 111.87 59.16 120.00 59.18 C 214.00 59.20 308.00 59.17 402.00 59.20 C 418.46 59.24 434.84 63.65 449.10 71.86 C 452.01 73.69 454.83 75.71 458.06 76.96 C 460.70 79.12 463.05 82.00 466.51 82.84 C 466.79 73.08 466.33 62.95 462.01 54.00 C 452.59 30.84 428.10 14.45 403.00 15.54 C 296.34 15.57 189.67 15.54 83.00 15.56 C 61.33 15.70 40.52 27.47 28.18 45.11 M 118.28 104.18 C 114.25 105.61 111.04 109.57 111.35 113.99 C 111.26 137.66 111.38 161.33 111.29 185.00 C 111.32 186.66 111.29 188.34 111.69 189.96 C 112.71 192.59 115.85 191.63 118.04 191.65 C 125.54 190.43 132.46 186.90 139.97 185.70 C 143.94 185.36 148.02 185.05 151.95 185.92 C 158.16 187.75 164.50 189.13 170.63 191.22 C 172.90 191.58 175.45 193.00 177.64 191.69 C 180.22 190.59 179.88 187.35 180.22 185.04 C 180.28 163.03 180.24 141.01 180.24 119.00 C 179.89 114.90 180.32 110.05 177.00 106.98 C 175.06 104.63 172.03 103.49 169.02 103.54 C 154.35 103.44 139.67 103.54 125.00 103.53 C 122.76 103.59 120.42 103.35 118.28 104.18 Z" />
<path fill="#122a5d" opacity="0.53" d=" M 24.39 49.35 C 25.23 47.60 26.60 46.20 28.18 45.11 C 23.68 52.83 19.45 60.87 17.54 69.67 C 16.00 76.00 16.52 82.56 16.45 89.00 C 16.44 216.34 16.47 343.67 16.43 471.01 C 16.26 477.83 19.40 484.03 21.96 490.16 C 18.36 486.72 17.13 481.70 15.77 477.09 C 13.69 469.90 14.50 462.37 14.38 455.00 C 14.37 337.67 14.38 220.33 14.38 103.00 C 14.57 92.34 13.55 81.55 16.00 71.06 C 17.50 63.40 20.72 56.20 24.39 49.35 Z" />
<path fill="#122a5d" opacity="0.53" d=" M 475.93 47.04 C 478.73 51.56 480.04 56.75 482.00 61.64 L 482.00 66.81 C 479.17 60.49 478.07 53.60 475.93 47.04 Z" />
<path fill="#122a5d" opacity="0.53" d=" M 105.65 57.92 C 110.06 57.19 114.55 57.49 119.00 57.48 C 215.34 57.51 311.67 57.45 408.01 57.51 C 418.00 58.56 427.86 61.20 437.23 64.83 C 444.62 67.99 452.19 71.32 458.06 76.96 C 454.83 75.71 452.01 73.69 449.10 71.86 C 434.84 63.65 418.46 59.24 402.00 59.20 C 308.00 59.17 214.00 59.20 120.00 59.18 C 111.87 59.16 103.56 59.06 95.74 61.62 C 84.68 64.74 74.76 71.67 68.03 80.99 C 65.52 84.44 64.39 88.66 61.95 92.17 C 63.67 82.54 70.66 74.98 78.07 69.11 C 86.02 62.88 95.90 59.92 105.65 57.92 Z" />
<path fill="#122a5d" opacity="0.53" d=" M 97.01 104.00 C 101.53 94.21 111.87 86.44 122.98 87.34 C 139.01 87.52 155.05 87.42 171.08 87.40 C 176.05 87.25 180.53 89.81 184.52 92.49 C 190.85 96.76 194.78 103.95 196.24 111.32 C 196.95 118.66 196.15 126.05 196.61 133.40 C 252.73 133.74 308.86 133.46 364.98 133.54 C 370.09 133.39 375.83 137.36 375.58 142.86 C 374.80 146.83 371.56 151.15 367.07 150.67 C 314.72 150.64 262.36 150.66 210.00 150.66 C 205.41 150.50 200.83 150.66 196.25 150.88 C 196.32 163.27 196.42 175.67 196.28 188.06 C 196.14 197.86 188.30 206.51 178.86 208.47 C 171.79 209.63 165.26 206.08 158.59 204.41 C 153.13 203.03 147.54 200.43 141.81 201.80 C 133.83 203.68 126.15 206.80 118.04 208.17 C 108.53 209.85 98.30 203.22 96.08 193.81 C 98.62 196.97 100.42 200.82 103.76 203.26 C 107.73 206.28 112.94 208.15 117.94 207.02 C 125.67 205.43 133.17 202.92 140.77 200.82 C 143.03 200.19 145.42 199.75 147.75 200.31 C 155.74 201.92 163.34 205.00 171.31 206.66 C 182.15 209.80 194.99 200.53 194.46 189.00 C 194.48 177.32 194.47 165.64 194.42 153.96 C 194.38 152.33 194.50 150.11 196.42 149.58 C 199.92 149.11 203.48 149.46 207.00 149.41 C 260.35 149.40 313.70 149.42 367.05 149.39 C 372.96 149.83 375.48 141.89 372.36 137.71 C 370.34 135.28 366.81 135.76 364.00 135.58 C 308.06 135.76 252.12 135.44 196.18 135.75 C 193.91 132.24 194.76 127.93 194.65 124.00 C 194.59 118.45 195.15 112.77 193.78 107.33 C 190.85 96.16 179.45 88.18 168.00 88.59 C 152.33 88.69 136.66 88.58 120.99 88.63 C 109.39 88.89 99.05 98.03 96.52 109.19 C 95.94 116.23 96.71 123.32 96.13 130.37 C 94.68 130.21 93.24 130.32 91.83 130.70 L 92.62 130.00 C 94.68 128.30 94.45 125.41 94.52 123.01 C 94.42 116.62 94.32 109.94 97.01 104.00 Z" />
<path fill="#122a5d" opacity="0.53" d=" M 465.52 448.01 C 465.67 360.51 465.38 273.00 465.66 185.50 C 466.86 187.10 467.54 188.98 467.43 191.00 C 467.40 270.66 467.43 350.33 467.42 430.00 C 467.35 436.89 467.78 443.82 466.70 450.66 C 465.63 459.87 461.98 468.56 457.61 476.66 C 456.77 478.40 455.39 479.78 453.82 480.89 C 459.73 470.83 465.14 459.90 465.52 448.01 Z" />
<path fill="#1e479c" opacity="1.00" d=" M 241.47 216.88 C 252.19 214.95 263.14 215.30 273.99 215.63 C 291.64 217.21 308.87 223.55 323.52 233.47 C 328.96 236.71 326.52 246.77 320.06 246.66 C 315.33 247.52 311.90 243.85 307.95 242.04 C 302.61 238.52 296.37 236.78 290.42 234.61 C 283.88 232.26 276.91 231.37 269.99 231.30 C 257.93 231.15 245.44 230.59 234.00 235.09 C 219.51 239.54 206.43 248.05 195.91 258.91 C 180.68 273.27 171.28 293.32 168.61 313.98 C 168.10 321.30 168.19 328.68 168.52 336.01 C 170.54 354.09 177.91 371.54 189.35 385.68 C 203.80 403.78 225.37 415.28 247.97 419.41 C 260.76 420.86 273.95 420.99 286.43 417.45 C 295.87 415.06 304.89 411.13 313.24 406.16 C 323.95 398.77 334.09 390.10 341.07 378.98 C 347.97 369.99 351.96 359.18 355.13 348.41 C 356.86 340.73 357.97 332.89 357.64 325.00 C 358.12 306.79 352.10 288.85 342.35 273.60 C 340.48 270.57 337.47 267.79 337.48 264.01 C 337.15 259.96 340.87 255.97 344.99 256.32 C 349.02 255.80 351.58 259.49 353.60 262.38 C 357.99 269.05 362.81 275.77 364.67 283.66 C 364.90 283.22 365.12 282.78 365.35 282.34 C 365.64 284.37 366.12 286.37 366.87 288.29 C 370.49 297.41 372.56 307.18 372.65 317.00 C 373.01 332.61 373.23 349.00 366.32 363.40 C 361.62 371.73 358.55 380.97 352.67 388.63 C 348.42 395.23 342.86 400.83 337.48 406.51 C 333.22 411.08 327.79 414.24 322.78 417.88 C 311.47 425.69 298.51 431.03 285.04 433.72 C 272.81 435.16 260.36 436.71 248.10 434.57 C 236.66 433.93 225.87 429.69 215.38 425.41 C 208.76 421.52 201.67 418.29 195.90 413.13 C 185.03 405.09 176.19 394.68 168.35 383.76 C 164.15 374.86 159.42 365.99 157.35 356.30 C 157.07 356.77 156.80 357.25 156.52 357.73 C 156.71 354.85 155.79 352.16 154.80 349.51 C 153.76 341.71 152.18 333.91 152.45 326.00 C 152.12 296.70 164.22 267.61 185.02 247.02 C 190.41 241.26 197.24 237.19 203.41 232.37 C 208.07 229.71 212.59 226.77 217.60 224.81 C 220.73 223.04 224.11 221.83 227.68 221.35 C 227.22 221.11 226.77 220.86 226.31 220.62 C 231.51 219.98 236.35 217.90 241.47 216.88 Z" />
<path fill="#1e479c" opacity="1.00" d=" M 291.69 266.75 C 303.74 262.13 317.68 270.35 321.38 282.24 C 322.82 307.44 322.12 332.74 322.31 358.00 C 322.16 364.30 321.49 371.20 317.20 376.18 C 313.60 380.24 309.23 384.11 303.63 384.84 C 295.23 387.35 287.37 382.28 280.07 378.85 C 270.44 374.27 261.29 368.72 251.41 364.66 C 241.37 363.38 230.70 365.81 221.05 361.91 C 213.02 358.25 206.25 350.85 204.50 342.06 C 203.91 332.73 204.38 323.36 204.24 314.01 C 203.57 301.69 213.55 291.07 224.87 287.73 C 233.32 286.71 241.92 287.96 250.35 287.01 C 264.16 280.35 277.68 273.03 291.69 266.75 M 292.76 282.85 C 283.53 287.66 274.11 292.09 264.89 296.93 C 263.01 298.15 260.04 299.29 260.37 302.04 C 260.38 318.55 260.38 335.07 260.39 351.58 C 262.51 352.74 264.53 354.11 266.80 354.99 C 274.85 358.31 282.47 362.57 290.12 366.72 C 293.41 368.31 296.93 370.52 300.75 369.67 C 302.96 368.82 304.87 367.22 306.29 365.35 C 306.78 362.60 306.55 359.78 306.58 357.00 C 306.49 334.02 306.63 311.04 306.51 288.06 C 306.65 286.03 305.18 284.45 303.82 283.16 C 300.92 280.16 296.09 281.13 292.76 282.85 M 225.68 304.67 C 221.79 307.01 219.54 311.47 219.62 315.97 C 219.59 322.65 219.46 329.34 219.68 336.02 C 220.00 341.52 223.98 346.61 229.47 347.72 C 234.36 348.68 239.76 349.20 244.47 347.20 C 244.27 332.40 244.71 317.59 244.23 302.80 C 238.06 302.57 231.34 301.59 225.68 304.67 Z" />
<path fill="#20dca5" opacity="1.00" d=" M 292.76 282.85 C 296.09 281.13 300.92 280.16 303.82 283.16 C 305.18 284.45 306.65 286.03 306.51 288.06 C 306.63 311.04 306.49 334.02 306.58 357.00 C 306.55 359.78 306.78 362.60 306.29 365.35 C 304.87 367.22 302.96 368.82 300.75 369.67 C 296.93 370.52 293.41 368.31 290.12 366.72 C 282.47 362.57 274.85 358.31 266.80 354.99 C 264.53 354.11 262.51 352.74 260.39 351.58 C 260.38 335.07 260.38 318.55 260.37 302.04 C 260.04 299.29 263.01 298.15 264.89 296.93 C 274.11 292.09 283.53 287.66 292.76 282.85 Z" />
<path fill="#20dca5" opacity="1.00" d=" M 225.68 304.67 C 231.34 301.59 238.06 302.57 244.23 302.80 C 244.71 317.59 244.27 332.40 244.47 347.20 C 239.76 349.20 234.36 348.68 229.47 347.72 C 223.98 346.61 220.00 341.52 219.68 336.02 C 219.46 329.34 219.59 322.65 219.62 315.97 C 219.54 311.47 221.79 307.01 225.68 304.67 Z" />
<path fill="#122a5d" opacity="0.53" d=" M 0.00 476.10 C 3.17 482.93 4.83 490.35 7.88 497.25 C 4.21 492.41 2.75 486.44 0.00 481.12 L 0.00 476.10 Z" />
<path fill="#122a5d" opacity="0.53" d=" M 28.80 518.03 C 36.35 520.99 44.14 523.17 51.73 526.00 L 46.69 526.00 C 40.67 523.46 34.19 521.86 28.80 518.03 Z" />
<path fill="#122a5d" opacity="0.53" d=" M 404.42 526.00 C 407.29 524.91 410.31 524.33 413.39 524.29 C 412.36 524.86 411.34 525.43 410.32 526.00 L 404.42 526.00 Z" />
</svg>
