<?xml version="1.0" encoding="UTF-8" ?>
<!DOCTYPE svg PUBLIC "-//W3C//DTD SVG 1.1//EN" "http://www.w3.org/Graphics/SVG/1.1/DTD/svg11.dtd">
<svg width="534pt" height="604pt" viewBox="0 0 534 604" version="1.1" xmlns="http://www.w3.org/2000/svg">
<path fill="#1e479c" opacity="1.00" d=" M 112.38 0.00 L 131.20 0.00 C 138.81 4.32 146.92 9.14 150.75 17.42 C 152.77 22.42 155.65 27.37 155.55 32.93 C 155.63 38.74 155.33 44.55 155.69 50.36 C 173.45 50.83 191.23 50.42 209.00 50.56 C 216.47 50.46 223.95 50.77 231.42 50.41 C 232.43 41.83 229.86 32.74 233.47 24.59 C 235.80 18.71 238.46 12.58 243.60 8.59 C 247.90 4.65 253.40 2.59 258.52 0.00 L 275.54 0.00 C 280.99 1.94 286.75 3.84 290.96 8.02 C 295.75 12.84 300.24 18.38 301.83 25.15 C 304.71 33.29 302.76 42.00 303.57 50.41 C 320.71 50.77 337.86 50.45 355.00 50.56 C 363.12 50.45 371.24 50.80 379.35 50.38 C 379.83 43.02 379.06 35.63 379.74 28.29 C 381.66 20.25 386.15 12.81 392.37 7.36 C 395.74 4.32 400.00 2.57 403.71 0.00 L 422.60 0.00 C 427.71 1.57 433.05 3.28 437.05 7.00 C 443.63 12.75 449.32 20.34 450.40 29.24 C 450.97 36.26 450.29 43.32 450.74 50.35 C 461.66 50.99 472.62 50.12 483.54 50.78 C 492.26 52.98 501.27 55.10 508.82 60.25 C 515.49 65.53 522.37 71.07 526.31 78.80 C 529.49 83.79 530.92 89.61 534.00 94.64 L 534.00 297.72 C 532.46 300.35 530.57 304.03 526.98 303.70 C 522.37 304.55 517.93 300.93 516.63 296.74 C 516.33 251.74 516.88 206.70 516.36 161.69 C 474.58 161.34 432.78 161.65 391.00 161.54 C 386.57 161.40 382.07 161.98 377.70 161.18 C 374.86 159.66 372.72 156.94 371.74 153.89 C 370.75 150.03 373.62 146.62 376.66 144.67 C 379.06 142.88 382.21 143.65 384.99 143.49 C 425.66 143.58 466.33 143.49 507.00 143.53 C 510.23 143.50 513.53 143.87 516.72 143.06 C 516.61 130.36 516.74 117.66 516.63 104.96 C 516.69 100.15 514.82 95.61 512.80 91.33 C 507.63 79.27 495.71 70.36 482.71 68.67 C 472.19 68.24 461.64 68.68 451.11 68.42 C 449.77 76.07 451.33 83.91 450.25 91.58 C 447.80 100.43 442.72 108.75 435.16 114.12 C 427.33 119.34 417.36 121.92 408.08 119.72 C 398.24 117.75 389.25 111.40 384.47 102.52 C 382.49 98.73 380.88 94.71 379.78 90.57 C 378.94 83.34 379.99 76.03 379.25 68.78 C 356.17 68.31 333.07 68.78 309.99 68.55 C 307.69 68.50 305.40 68.61 303.14 69.04 C 302.34 77.11 303.56 85.32 302.17 93.36 C 299.00 103.74 291.63 113.06 281.52 117.37 C 273.39 120.33 264.27 120.46 255.96 118.18 C 250.39 116.82 246.06 112.83 241.94 109.09 C 235.08 102.70 231.93 93.21 231.77 84.00 C 231.65 79.07 231.88 74.14 231.67 69.21 C 228.87 68.28 225.89 68.61 223.00 68.57 C 200.60 68.78 178.19 68.28 155.81 68.82 C 154.97 75.97 156.15 83.22 155.18 90.36 C 152.93 98.35 149.77 106.81 142.68 111.75 C 132.19 121.54 115.29 123.22 102.96 116.00 C 96.90 111.88 90.82 107.09 87.94 100.11 C 83.15 90.26 84.91 79.15 84.39 68.61 C 76.94 68.30 69.47 68.61 62.01 68.49 C 55.90 68.50 49.42 68.08 43.82 70.98 C 40.59 72.71 37.15 74.07 34.12 76.15 C 26.31 83.12 18.97 92.00 18.61 102.99 C 18.42 116.44 18.34 129.91 18.65 143.36 C 22.76 143.63 26.88 143.55 31.00 143.53 C 131.67 143.52 232.33 143.54 333.00 143.52 C 336.09 143.60 339.26 143.15 342.29 143.86 C 345.47 145.39 349.11 148.03 348.70 152.03 C 349.07 154.94 347.83 157.75 345.52 159.52 C 342.78 162.39 338.52 161.39 335.00 161.57 C 233.33 161.50 131.67 161.57 30.00 161.54 C 26.23 161.50 22.45 161.47 18.69 161.71 C 18.31 166.46 18.50 171.23 18.49 176.00 C 18.47 265.66 18.50 355.33 18.47 445.00 C 17.91 456.85 23.75 468.78 33.18 475.91 C 38.28 480.30 44.83 482.63 51.22 484.38 C 63.44 484.88 75.70 484.49 87.93 484.62 C 87.66 479.98 84.76 476.15 83.40 471.83 C 82.23 468.18 81.42 464.43 80.14 460.81 C 73.31 439.27 72.88 416.40 73.74 394.01 C 74.64 379.06 77.48 364.21 82.19 349.99 C 86.19 340.69 88.41 330.59 93.85 321.94 C 100.54 309.07 108.28 296.68 117.55 285.51 C 123.79 279.43 128.84 272.07 135.98 266.96 C 139.64 264.21 145.14 266.00 147.59 269.52 C 149.31 272.95 149.18 277.61 146.52 280.56 C 144.25 283.27 141.58 285.61 139.05 288.08 C 125.95 301.00 116.47 316.96 108.03 333.17 C 105.45 337.38 104.00 342.10 102.46 346.75 C 96.07 363.95 90.83 382.02 91.39 400.56 C 102.27 400.47 113.16 400.47 124.04 400.50 C 126.82 400.35 129.36 401.84 131.11 403.91 C 133.29 406.11 132.83 409.64 132.31 412.41 C 130.21 415.03 127.73 418.53 124.02 418.43 C 113.20 418.53 102.37 418.19 91.56 418.56 C 91.86 440.15 98.18 461.18 106.09 481.11 C 109.67 487.82 113.06 494.65 116.88 501.23 C 121.49 507.60 125.23 514.60 130.52 520.47 C 136.13 526.21 140.94 532.70 147.03 537.98 C 154.29 545.58 163.30 551.03 171.62 557.33 C 189.99 568.41 209.77 577.71 230.96 581.84 C 239.90 584.00 249.08 584.80 258.24 585.22 C 258.89 573.85 258.22 562.44 258.54 551.07 C 258.64 546.75 263.01 543.85 267.00 543.62 C 270.31 543.18 273.10 545.51 275.00 547.95 C 277.38 550.73 276.30 554.66 276.53 558.00 C 276.70 566.98 276.07 575.99 276.83 584.94 C 294.41 584.27 311.75 580.37 328.32 574.59 C 336.83 572.05 344.90 568.19 352.46 563.56 C 361.76 558.03 371.17 552.51 379.34 545.36 C 385.17 540.19 391.32 535.35 396.49 529.48 C 404.94 521.38 411.23 511.47 417.75 501.84 C 423.38 493.08 427.64 483.59 431.84 474.09 C 437.71 456.13 443.36 437.64 443.45 418.58 C 432.63 418.17 421.81 418.53 410.99 418.43 C 407.47 418.62 405.17 415.34 403.08 412.99 C 399.99 407.60 404.86 400.23 410.95 400.50 C 421.85 400.46 432.74 400.48 443.64 400.55 C 443.70 397.14 443.72 393.71 443.29 390.32 C 439.73 369.03 435.12 347.46 424.61 328.39 C 419.18 317.58 411.97 307.83 404.72 298.20 C 392.77 282.88 377.71 270.19 361.45 259.65 C 356.57 256.37 351.03 254.30 346.09 251.13 C 326.53 241.12 304.93 235.00 283.00 233.54 C 280.88 233.41 278.76 233.49 276.66 233.60 C 276.28 244.06 276.63 254.54 276.52 265.02 C 276.61 268.02 275.04 270.83 272.96 272.90 C 270.75 274.70 267.63 274.75 264.96 274.27 C 260.82 273.50 258.76 268.85 258.59 265.05 C 258.54 254.46 258.61 243.87 258.62 233.28 C 255.23 233.10 251.85 233.47 248.52 234.14 C 242.14 234.86 235.77 235.69 229.44 236.76 C 214.14 239.84 199.45 245.54 185.57 252.62 C 180.84 254.86 176.86 258.52 171.84 260.18 C 166.04 261.94 159.82 255.88 160.84 250.06 C 161.75 246.34 165.16 244.11 168.24 242.28 C 176.38 237.60 184.81 233.39 193.36 229.54 C 202.16 226.79 210.52 222.59 219.72 221.30 C 232.25 218.09 245.11 216.33 258.01 215.46 C 266.78 215.63 275.61 214.89 284.32 216.20 C 300.43 217.25 316.23 221.07 331.49 226.19 C 339.45 228.43 347.14 231.54 354.35 235.59 C 366.34 241.37 377.76 248.44 387.84 257.15 C 392.38 260.94 397.40 264.18 401.48 268.51 C 405.85 273.14 410.77 277.27 414.57 282.42 C 420.18 289.78 426.26 296.81 431.29 304.60 C 436.48 314.42 442.69 323.73 446.86 334.07 C 454.27 351.80 459.52 370.61 460.64 389.86 C 462.05 399.85 461.44 409.97 461.45 420.02 C 460.41 431.13 459.72 442.33 456.97 453.19 C 454.70 462.07 452.41 471.04 448.44 479.34 C 447.65 480.99 447.33 482.81 447.07 484.61 C 457.05 484.65 467.03 484.58 477.01 484.62 C 480.51 484.55 484.17 484.81 487.47 483.37 C 493.13 481.06 499.34 479.28 503.57 474.58 C 511.70 467.50 516.88 456.90 516.68 446.04 C 516.67 409.68 516.66 373.31 516.68 336.95 C 516.31 331.82 520.48 326.42 525.97 327.26 C 529.54 326.83 532.00 329.73 534.00 332.23 L 534.00 458.30 C 530.21 465.71 527.28 473.63 522.33 480.40 C 515.38 489.16 505.95 496.17 495.17 499.35 C 489.81 500.45 484.60 502.54 479.06 502.51 C 465.38 502.64 451.70 502.30 438.02 502.66 C 435.02 506.02 433.48 510.34 430.97 514.04 C 425.82 521.49 420.22 528.63 414.82 535.90 C 408.86 542.57 402.31 548.67 395.93 554.93 C 393.29 557.34 390.13 559.08 387.52 561.52 C 380.44 567.75 372.18 572.34 364.17 577.24 C 358.55 581.41 351.84 583.54 345.65 586.68 C 321.75 596.95 295.91 602.39 269.99 603.69 C 251.13 603.65 232.42 600.24 214.14 595.77 C 207.81 594.35 202.01 591.35 195.89 589.32 C 190.81 587.62 186.14 584.95 181.20 582.92 C 173.60 579.94 167.28 574.64 160.12 570.83 C 153.68 565.90 146.83 561.50 140.62 556.27 C 128.92 545.68 117.87 534.23 108.81 521.27 C 104.72 515.15 101.42 508.52 96.95 502.66 C 83.63 502.30 70.29 502.62 56.97 502.52 C 50.48 502.68 44.35 500.27 38.11 498.86 C 27.93 495.05 18.55 488.64 12.29 479.63 C 5.70 471.17 2.70 460.71 0.00 450.52 L 0.00 97.77 C 3.17 93.20 4.02 87.57 6.59 82.70 C 10.20 73.98 17.31 67.36 24.49 61.52 C 28.44 58.10 33.46 56.40 38.14 54.29 C 46.28 50.69 55.35 51.45 64.00 51.38 C 70.78 51.30 77.56 51.53 84.33 51.31 C 84.92 43.87 84.07 36.38 84.77 28.95 C 85.61 23.29 88.42 18.14 91.38 13.33 C 96.16 6.12 104.26 2.19 112.38 0.00 M 112.39 14.58 C 105.28 17.77 98.48 24.66 98.96 32.99 C 98.84 50.66 98.87 68.34 98.94 86.00 C 98.70 93.47 103.54 100.76 110.39 103.66 C 114.91 105.99 120.16 105.48 125.06 105.21 C 129.67 104.75 132.86 101.02 136.01 98.03 C 138.78 95.48 140.58 91.82 140.41 88.00 C 140.38 69.00 140.41 49.99 140.39 30.99 C 140.52 27.68 139.09 24.53 136.83 22.16 C 134.10 19.26 131.25 16.22 127.53 14.61 C 122.60 13.44 117.33 13.45 112.39 14.58 M 259.53 14.71 C 252.78 17.45 247.57 23.85 246.41 31.04 C 246.30 49.71 246.45 68.39 246.34 87.06 C 245.98 92.75 250.35 97.19 254.13 100.86 C 259.22 105.90 267.09 106.11 273.72 104.84 C 281.77 102.39 288.35 94.64 288.37 86.03 C 288.38 68.35 288.35 50.67 288.38 33.00 C 288.49 23.53 280.48 14.69 271.04 13.90 C 267.21 13.67 263.24 13.59 259.53 14.71 M 407.51 14.67 C 402.84 16.95 398.91 20.78 396.20 25.19 C 393.78 29.02 394.27 33.69 394.25 38.00 C 394.27 53.67 394.28 69.34 394.24 85.01 C 393.37 94.69 401.68 103.73 411.00 105.17 C 415.98 105.67 421.55 105.84 425.80 102.75 C 430.77 98.82 436.06 93.92 436.02 87.04 C 436.27 69.36 436.08 51.67 436.12 33.98 C 436.41 27.89 433.21 22.19 428.47 18.53 C 425.93 16.70 423.40 14.23 420.05 14.26 C 415.88 14.18 411.61 13.81 407.51 14.67 Z" />
<path fill="#20dca5" opacity="1.00" d=" M 112.39 14.58 C 117.33 13.45 122.60 13.44 127.53 14.61 C 131.25 16.22 134.10 19.26 136.83 22.16 C 139.09 24.53 140.52 27.68 140.39 30.99 C 140.41 49.99 140.38 69.00 140.41 88.00 C 140.58 91.82 138.78 95.48 136.01 98.03 C 132.86 101.02 129.67 104.75 125.06 105.21 C 120.16 105.48 114.91 105.99 110.39 103.66 C 103.54 100.76 98.70 93.47 98.94 86.00 C 98.87 68.34 98.84 50.66 98.96 32.99 C 98.48 24.66 105.28 17.77 112.39 14.58 Z" />
<path fill="#20dca5" opacity="1.00" d=" M 259.53 14.71 C 263.24 13.59 267.21 13.67 271.04 13.90 C 280.48 14.69 288.49 23.53 288.38 33.00 C 288.35 50.67 288.38 68.35 288.37 86.03 C 288.35 94.64 281.77 102.39 273.72 104.84 C 267.09 106.11 259.22 105.90 254.13 100.86 C 250.35 97.19 245.98 92.75 246.34 87.06 C 246.45 68.39 246.30 49.71 246.41 31.04 C 247.57 23.85 252.78 17.45 259.53 14.71 Z" />
<path fill="#20dca5" opacity="1.00" d=" M 407.51 14.67 C 411.61 13.81 415.88 14.18 420.05 14.26 C 423.40 14.23 425.93 16.70 428.47 18.53 C 433.21 22.19 436.41 27.89 436.12 33.98 C 436.08 51.67 436.27 69.36 436.02 87.04 C 436.06 93.92 430.77 98.82 425.80 102.75 C 421.55 105.84 415.98 105.67 411.00 105.17 C 401.68 103.73 393.37 94.69 394.24 85.01 C 394.28 69.34 394.27 53.67 394.25 38.00 C 394.27 33.69 393.78 29.02 396.20 25.19 C 398.91 20.78 402.84 16.95 407.51 14.67 Z" />
<path fill="#1e479c" opacity="1.00" d=" M 264.40 400.63 C 267.23 400.25 270.74 399.79 272.94 402.06 C 300.28 429.72 328.15 456.84 355.54 484.45 C 358.96 487.13 359.57 492.13 357.81 495.91 C 354.73 499.96 347.93 502.15 343.98 498.03 C 319.86 474.15 295.91 450.09 271.90 426.10 C 270.25 424.79 269.04 421.63 266.49 422.53 C 257.61 431.28 248.78 440.11 240.03 449.01 C 236.78 451.99 231.20 452.29 228.16 448.82 C 224.52 445.91 224.18 439.86 227.65 436.70 C 238.78 425.14 250.45 414.11 261.55 402.52 C 262.37 401.74 263.26 400.90 264.40 400.63 Z" />
</svg>
