<?xml version="1.0" encoding="UTF-8" ?>
<!DOCTYPE svg PUBLIC "-//W3C//DTD SVG 1.1//EN" "http://www.w3.org/Graphics/SVG/1.1/DTD/svg11.dtd">
<svg width="554pt" height="534pt" viewBox="0 0 554 534" version="1.1" xmlns="http://www.w3.org/2000/svg">
<path fill="#1e479c" opacity="1.00" d=" M 152.70 0.00 L 356.99 0.00 C 372.09 1.04 386.73 7.82 397.18 18.79 C 408.64 30.36 415.14 46.74 414.64 63.02 C 414.62 116.97 414.62 170.93 414.64 224.88 C 437.36 235.49 456.67 253.25 468.94 275.14 C 483.84 301.59 488.34 333.65 481.19 363.17 C 488.47 370.83 497.23 377.68 501.32 387.75 C 508.71 404.17 505.33 424.78 492.76 437.73 C 484.02 446.73 475.12 455.56 466.19 464.36 C 478.40 476.95 490.87 489.27 503.16 501.77 C 508.21 507.16 516.06 509.69 523.31 508.26 C 529.14 507.03 533.99 502.53 536.20 497.07 C 539.09 489.56 536.57 480.62 531.06 474.96 C 524.28 468.04 517.27 461.35 510.59 454.34 C 507.29 451.13 507.46 445.04 511.13 442.18 C 514.23 439.46 519.28 439.83 522.07 442.84 C 529.32 449.95 536.40 457.25 543.60 464.42 C 550.20 470.91 553.99 480.03 554.00 489.28 L 554.00 492.26 C 552.83 510.57 535.80 527.44 517.03 525.83 C 507.29 525.37 498.28 520.24 491.61 513.34 C 478.42 500.01 465.19 486.72 452.00 473.40 C 440.08 478.82 426.18 477.14 414.70 471.44 C 414.77 485.15 410.12 498.86 401.62 509.62 C 390.43 524.19 372.38 533.33 353.98 533.50 C 259.32 533.51 164.66 533.50 70.00 533.50 C 63.98 533.47 57.91 533.79 51.96 532.73 C 33.20 529.81 16.28 517.54 7.38 500.82 C 3.15 493.24 0.90 484.70 0.00 476.11 L 0.00 153.83 C 0.97 135.55 8.86 117.75 21.89 104.88 C 49.29 77.30 76.62 49.64 104.10 22.13 C 116.92 9.20 134.48 1.06 152.70 0.00 M 140.01 18.83 C 139.41 19.09 138.21 19.62 137.61 19.88 C 137.64 45.25 137.61 70.62 137.63 95.99 C 137.90 107.66 132.74 119.32 124.10 127.14 C 116.41 134.60 105.64 138.60 94.97 138.45 C 80.62 138.41 66.27 138.48 51.93 138.42 C 48.44 138.62 45.14 136.29 43.92 133.07 C 41.89 128.30 45.79 122.26 51.00 122.28 C 66.33 121.98 81.69 122.50 97.01 122.04 C 109.96 121.53 121.20 109.96 121.39 97.01 C 121.43 74.25 121.49 51.48 121.36 28.72 C 115.60 33.50 110.51 38.99 105.23 44.28 C 81.35 68.37 57.42 92.42 33.47 116.45 C 21.77 127.96 15.37 144.58 16.29 160.97 C 16.33 264.99 16.28 369.00 16.32 473.02 C 16.60 494.26 33.83 513.67 54.87 516.54 C 62.18 517.69 69.60 517.15 76.96 517.26 C 169.65 517.23 262.34 517.32 355.03 517.21 C 360.06 516.59 365.15 515.88 369.83 513.81 C 383.07 508.57 393.48 496.78 396.96 482.96 C 399.20 474.86 398.25 466.39 398.40 458.11 C 396.50 456.21 394.62 454.29 392.84 452.29 C 387.20 453.14 381.65 454.57 375.95 454.93 C 368.66 455.91 361.27 455.59 353.96 455.20 C 347.89 454.48 341.86 453.52 335.90 452.17 C 313.97 446.85 293.74 435.15 278.12 418.89 C 262.99 402.56 252.01 382.36 247.35 360.55 C 246.34 351.69 244.66 342.88 244.59 333.95 C 244.94 323.14 246.81 312.48 248.93 301.90 C 252.34 290.46 256.85 279.25 263.32 269.17 C 268.56 261.28 274.76 254.09 281.04 247.03 C 287.04 241.27 293.35 235.61 300.91 231.99 C 309.93 226.27 319.80 222.05 329.98 218.88 C 341.03 215.65 352.52 213.76 364.06 214.18 C 375.69 213.75 387.28 215.54 398.41 218.84 C 398.45 166.55 398.40 114.26 398.43 61.98 C 398.43 53.62 396.11 45.24 391.71 38.12 C 385.00 27.10 373.52 19.49 360.95 16.87 C 352.67 15.94 344.33 16.54 336.02 16.37 C 276.01 16.37 216.00 16.38 155.99 16.37 C 150.55 16.23 145.23 17.45 140.01 18.83 M 308.05 246.87 C 285.84 261.15 269.42 284.21 263.35 309.93 C 257.96 332.34 260.05 356.55 269.50 377.61 C 279.10 399.08 296.12 417.14 317.12 427.78 C 330.03 434.65 344.52 437.93 359.01 439.15 C 378.05 439.75 397.48 435.70 414.17 426.33 C 432.32 416.43 447.24 400.86 456.72 382.52 C 467.59 360.98 471.10 335.64 465.67 312.08 C 460.79 289.16 447.76 268.13 429.55 253.43 C 412.27 239.33 390.29 231.05 368.00 230.43 C 346.97 229.58 325.68 235.35 308.05 246.87 M 475.53 380.79 C 463.51 409.98 439.80 434.14 410.61 446.27 C 414.63 453.23 421.84 458.07 429.42 460.39 C 438.75 463.23 448.65 458.91 455.21 452.24 C 463.77 443.78 472.18 435.18 480.67 426.65 C 485.92 421.48 489.91 414.50 489.75 406.95 C 489.85 396.48 483.23 387.28 475.53 380.79 Z" />
<path fill="#1e479c" opacity="1.00" d=" M 75.26 161.40 C 162.16 161.13 249.08 161.38 336.00 161.28 C 344.79 160.82 353.62 165.54 358.01 173.19 C 362.63 180.72 362.72 190.69 358.25 198.31 C 353.92 206.16 345.00 211.10 336.04 210.69 C 250.02 210.68 164.00 210.71 77.98 210.67 C 65.14 211.13 53.35 199.88 53.25 187.04 C 52.27 174.44 62.66 162.32 75.26 161.40 M 76.42 177.69 C 71.35 178.48 67.77 184.53 70.12 189.26 C 71.58 192.68 75.34 194.60 78.97 194.44 C 162.98 194.45 246.98 194.41 330.99 194.45 C 334.21 194.34 337.66 194.93 340.65 193.39 C 344.36 191.59 346.43 186.66 344.60 182.86 C 343.39 179.38 339.68 177.37 336.12 177.53 C 273.74 177.54 211.37 177.53 148.99 177.54 C 124.80 177.64 100.60 177.33 76.42 177.69 Z" />
<path fill="#1e479c" opacity="1.00" d=" M 56.27 246.16 C 60.44 238.38 69.09 233.32 77.92 233.49 C 99.62 233.45 121.33 233.53 143.03 233.46 C 154.99 232.16 167.04 232.98 179.04 232.81 C 186.36 232.59 193.67 233.32 200.99 232.80 C 209.28 232.97 218.26 231.93 225.76 236.25 C 235.31 241.44 240.35 253.49 237.41 263.94 C 234.94 274.42 224.78 282.43 214.04 282.51 C 200.03 282.69 186.02 282.29 172.02 282.78 C 140.67 282.79 109.33 282.77 77.99 282.79 C 66.65 283.40 56.03 274.49 53.73 263.54 C 52.61 257.68 53.25 251.37 56.27 246.16 M 176.43 249.60 C 168.95 250.00 161.45 249.72 153.95 249.80 C 129.64 249.61 105.34 249.80 81.03 249.68 C 77.72 249.70 73.87 249.84 71.59 252.62 C 68.59 255.74 68.76 261.15 71.96 264.06 C 75.36 267.60 80.68 266.28 85.04 266.52 C 126.69 266.63 168.34 266.10 209.99 266.33 C 213.09 266.27 216.59 266.19 219.04 264.00 C 222.94 260.89 222.75 254.19 218.76 251.23 C 216.06 248.90 212.26 249.47 208.97 249.36 C 198.13 249.56 187.27 249.14 176.43 249.60 Z" />
<path fill="#20dca5" opacity="1.00" d=" M 176.43 249.60 C 187.27 249.14 198.13 249.56 208.97 249.36 C 212.26 249.47 216.06 248.90 218.76 251.23 C 222.75 254.19 222.94 260.89 219.04 264.00 C 216.59 266.19 213.09 266.27 209.99 266.33 C 168.34 266.10 126.69 266.63 85.04 266.52 C 80.68 266.28 75.36 267.60 71.96 264.06 C 68.76 261.15 68.59 255.74 71.59 252.62 C 73.87 249.84 77.72 249.70 81.03 249.68 C 105.34 249.80 129.64 249.61 153.95 249.80 C 161.45 249.72 168.95 250.00 176.43 249.60 Z" />
<path fill="#1e479c" opacity="1.00" d=" M 317.37 269.28 C 327.76 261.49 340.23 257.03 352.92 254.74 C 363.96 253.92 375.28 253.80 385.96 257.12 C 413.01 264.36 434.93 287.05 441.91 314.09 C 446.03 329.97 445.33 347.10 439.58 362.50 C 433.34 380.00 420.70 395.09 404.61 404.39 C 394.09 410.68 382.03 413.80 369.95 415.18 C 352.98 416.09 335.50 412.08 321.19 402.75 C 316.71 400.17 316.06 393.28 319.94 389.88 C 322.71 386.93 327.41 386.94 330.57 389.28 C 345.01 398.56 363.30 400.96 379.86 396.94 C 393.12 393.77 404.75 385.79 414.05 376.01 C 421.43 368.63 426.54 359.15 429.17 349.08 C 429.49 347.39 429.84 345.71 430.25 344.05 C 430.76 337.57 431.01 330.96 429.47 324.59 C 427.34 314.44 422.07 305.27 416.02 296.96 C 407.12 284.73 393.87 275.60 379.07 272.24 C 361.94 268.11 343.05 271.40 328.53 281.46 C 317.61 288.78 309.14 299.64 304.55 311.95 C 298.37 328.66 299.13 347.97 307.33 363.87 C 308.36 366.21 309.97 368.74 309.08 371.39 C 308.09 374.91 304.80 378.12 300.92 377.63 C 296.98 377.95 294.13 374.62 292.71 371.34 C 284.82 355.56 282.42 337.26 285.53 319.94 C 289.15 299.82 300.67 281.15 317.37 269.28 Z" />
<path fill="#122c61" opacity="0.39" d=" M 244.42 334.95 C 244.12 323.79 245.16 312.47 248.93 301.90 C 246.81 312.48 244.94 323.14 244.59 333.95 C 244.66 342.88 246.34 351.69 247.35 360.55 C 244.76 352.28 244.16 343.56 244.42 334.95 Z" />
<path fill="#1e479c" opacity="1.00" d=" M 57.44 316.48 C 61.89 309.68 69.98 305.65 78.04 305.62 C 123.04 305.63 168.03 305.60 213.02 305.74 C 218.18 305.96 223.40 307.29 227.65 310.31 C 236.64 316.31 240.54 328.63 236.84 338.75 C 234.04 347.51 225.87 353.59 217.03 355.33 C 195.68 355.56 174.33 355.45 152.97 355.55 C 127.32 354.93 101.66 355.51 76.00 355.20 C 74.30 354.82 72.58 354.53 70.86 354.28 C 64.95 352.12 59.56 348.22 56.41 342.68 C 51.78 334.71 52.15 324.05 57.44 316.48 M 74.53 322.73 C 71.04 324.27 68.71 328.29 69.57 332.10 C 70.52 335.79 74.04 338.91 77.98 338.60 C 108.98 338.66 139.98 338.58 170.98 338.49 C 184.99 338.99 199.02 339.31 213.03 339.03 C 217.44 339.02 221.97 335.68 221.82 330.99 C 222.30 326.52 218.41 322.30 213.93 322.37 C 188.97 322.09 164.00 322.74 139.04 322.15 C 119.35 322.15 99.67 322.18 79.98 322.13 C 78.16 322.18 76.27 322.09 74.53 322.73 Z" />
<path fill="#1e479c" opacity="1.00" d=" M 145.65 377.60 C 168.08 377.25 190.52 377.74 212.96 377.55 C 224.69 377.25 235.95 386.20 237.80 397.88 C 239.86 408.11 234.58 419.37 225.25 424.13 C 217.87 428.27 209.13 427.17 201.02 427.30 C 160.01 427.46 119.00 427.38 78.00 427.39 C 69.74 427.35 61.48 423.06 57.09 416.00 C 52.95 409.73 52.13 401.53 54.52 394.47 C 57.59 385.26 66.47 378.84 75.98 377.73 C 99.20 377.58 122.43 377.84 145.65 377.60 M 76.35 394.51 C 71.84 395.10 68.42 400.13 69.64 404.57 C 70.49 407.34 72.66 409.91 75.57 410.54 C 83.02 411.70 90.54 410.70 98.02 410.84 C 102.67 410.79 107.31 411.34 111.95 410.98 C 124.29 410.59 136.65 411.17 148.99 410.64 C 170.88 410.47 192.79 410.95 214.68 410.57 C 221.03 410.21 224.11 401.73 220.05 397.09 C 216.93 393.11 211.42 394.42 207.05 394.20 C 190.39 393.94 173.73 394.57 157.07 394.49 C 130.17 394.37 103.25 394.19 76.35 394.51 Z" />
<path fill="#20dca5" opacity="1.00" d=" M 475.53 380.79 C 483.23 387.28 489.85 396.48 489.75 406.95 C 489.91 414.50 485.92 421.48 480.67 426.65 C 472.18 435.18 463.77 443.78 455.21 452.24 C 448.65 458.91 438.75 463.23 429.42 460.39 C 421.84 458.07 414.63 453.23 410.61 446.27 C 439.80 434.14 463.51 409.98 475.53 380.79 Z" />
</svg>
