<?xml version="1.0" encoding="UTF-8" ?>
<!DOCTYPE svg PUBLIC "-//W3C//DTD SVG 1.1//EN" "http://www.w3.org/Graphics/SVG/1.1/DTD/svg11.dtd">
<svg width="620pt" height="670pt" viewBox="0 0 620 670" version="1.1" xmlns="http://www.w3.org/2000/svg">
<path fill="#1e479c" opacity="1.00" d=" M 294.05 8.06 C 301.16 1.32 312.32 -0.61 321.23 3.51 C 328.27 6.78 333.20 13.06 339.08 17.92 C 362.59 37.41 388.09 54.59 409.64 76.36 C 427.38 93.68 442.35 114.06 452.07 136.95 C 458.14 150.73 461.63 165.48 463.74 180.35 C 468.04 180.47 472.50 180.10 476.62 181.64 C 486.28 185.02 493.24 194.74 493.38 204.98 C 493.44 215.68 493.35 226.38 493.42 237.07 C 493.50 244.67 490.18 252.35 484.37 257.29 C 479.44 261.42 472.98 263.05 466.65 262.83 C 466.59 287.70 466.63 312.57 466.63 337.45 C 477.10 337.63 487.57 337.27 498.04 337.67 C 507.55 338.49 517.03 340.05 526.22 342.64 C 560.45 352.43 590.03 377.14 606.03 408.90 C 621.57 439.48 624.31 476.25 613.14 508.71 C 606.77 528.05 595.50 545.73 580.96 559.96 C 556.99 583.59 523.61 597.18 490.00 597.38 C 462.00 597.35 433.99 597.39 405.99 597.35 C 392.19 596.98 378.35 602.85 368.94 612.94 C 358.25 623.70 355.11 639.31 346.34 651.39 C 341.77 657.07 336.26 662.26 329.52 665.26 C 324.12 667.67 318.32 669.09 312.50 670.00 L 307.54 670.00 C 301.03 669.00 294.52 667.37 288.65 664.32 C 282.70 661.29 277.82 656.54 273.65 651.40 C 264.90 639.31 261.75 623.70 251.05 612.93 C 241.64 602.86 227.82 596.95 214.02 597.35 C 204.33 597.33 194.63 597.42 184.94 597.37 C 180.91 597.48 176.47 595.16 175.45 591.04 C 174.93 587.81 174.91 583.91 177.54 581.55 C 180.29 578.78 184.46 579.38 188.00 579.30 C 199.01 579.47 210.03 579.11 221.04 579.50 C 239.49 581.20 257.22 590.67 268.58 605.36 C 274.15 612.30 277.73 620.51 281.66 628.43 C 284.91 635.04 287.88 642.41 294.32 646.60 C 303.61 653.30 317.16 653.13 326.27 646.19 C 332.15 642.12 334.98 635.33 338.00 629.13 C 341.86 621.42 345.27 613.39 350.53 606.49 C 363.29 589.33 384.60 578.75 406.01 579.33 C 432.00 579.35 458.00 579.32 484.00 579.34 C 503.45 579.60 523.26 576.06 540.56 566.86 C 554.84 559.96 567.10 549.41 577.15 537.23 C 590.78 520.37 599.18 499.45 601.42 477.92 C 601.82 467.50 602.16 456.92 599.91 446.67 C 594.00 414.42 572.81 385.64 544.27 369.69 C 526.33 359.60 505.52 354.97 485.00 355.55 C 366.00 355.57 246.99 355.55 127.99 355.56 C 100.47 356.21 73.09 367.01 53.32 386.32 C 31.24 406.83 17.83 436.77 18.31 467.00 C 17.74 494.67 28.74 522.24 47.46 542.53 C 65.58 562.53 91.14 575.53 117.98 578.39 C 127.63 578.99 137.31 578.50 146.97 578.76 C 151.03 578.89 154.98 581.53 156.39 585.38 C 156.92 588.24 156.85 591.55 154.75 593.81 C 152.48 596.72 148.60 597.57 145.09 597.41 C 135.63 597.17 126.11 597.90 116.71 596.56 C 81.32 592.91 47.83 574.05 26.40 545.64 C 15.24 530.74 6.90 513.58 3.07 495.31 C 2.41 491.96 1.44 488.68 0.00 485.58 L 0.00 450.10 C 2.57 444.18 3.09 437.68 4.98 431.56 C 9.57 415.89 17.05 401.04 27.08 388.15 C 46.95 362.43 76.64 344.44 108.76 339.25 C 124.20 336.63 139.90 336.80 155.50 336.77 C 155.19 312.37 155.55 287.97 155.56 263.57 C 150.75 262.71 145.64 262.30 141.39 259.65 C 134.69 255.46 129.26 248.24 129.32 240.06 C 129.27 228.02 129.31 215.98 129.30 203.94 C 129.14 196.54 133.37 189.59 139.10 185.15 C 144.62 180.85 151.81 180.05 158.58 180.38 C 159.95 172.22 161.18 164.00 163.56 156.05 C 169.14 135.65 179.16 116.64 191.86 99.79 C 210.14 75.83 233.57 56.52 257.38 38.32 C 269.95 28.67 282.71 19.17 294.05 8.06 M 306.97 21.00 C 285.06 41.64 259.48 57.88 237.27 78.17 C 219.33 94.16 202.70 112.26 191.83 133.90 C 184.48 148.44 178.62 164.13 177.27 180.47 C 266.47 180.42 355.67 180.40 444.86 180.48 C 444.57 172.06 442.19 163.90 439.75 155.89 C 431.49 130.12 415.44 107.55 396.42 88.58 C 378.35 71.07 358.17 55.97 338.29 40.61 C 330.57 34.77 323.36 28.29 316.32 21.67 C 313.93 19.17 309.55 18.38 306.97 21.00 M 151.52 198.74 C 148.59 199.80 146.97 202.91 147.30 205.94 C 147.39 216.94 147.18 227.95 147.39 238.94 C 147.40 242.78 151.39 245.23 154.95 244.77 C 258.98 244.75 363.02 244.75 467.05 244.77 C 469.96 244.91 473.67 243.93 474.51 240.75 C 475.81 233.91 475.02 226.91 475.22 220.01 C 475.03 213.86 475.88 207.55 474.27 201.54 C 472.06 197.51 466.81 198.53 463.01 198.39 C 360.00 198.50 256.98 198.41 153.97 198.43 C 153.36 198.51 152.13 198.66 151.52 198.74 M 173.68 262.72 C 173.54 275.43 173.59 288.14 173.68 300.84 C 174.74 308.19 174.22 315.61 174.36 323.00 C 174.48 327.85 173.12 332.64 173.82 337.50 C 203.66 337.44 233.50 337.58 263.34 337.43 C 263.39 333.37 263.16 329.28 263.67 325.24 C 265.85 313.89 273.36 304.23 282.51 297.49 C 288.87 292.73 295.65 288.31 303.20 285.70 C 311.11 282.99 319.84 284.92 326.87 289.09 C 339.02 295.99 351.25 304.95 356.62 318.36 C 359.36 324.32 358.63 330.99 358.73 337.36 C 388.66 337.67 418.60 337.39 448.53 337.50 C 448.52 312.56 448.67 287.63 448.46 262.69 C 356.87 262.73 265.27 262.68 173.68 262.72 M 304.61 304.69 C 296.26 309.63 287.27 315.11 282.94 324.19 C 280.78 328.28 281.49 333.02 281.50 337.45 C 301.19 337.54 320.89 337.46 340.59 337.50 C 340.71 332.50 341.42 327.07 338.55 322.64 C 333.38 314.05 324.55 308.53 315.94 303.87 C 312.37 301.66 307.96 302.52 304.61 304.69 Z" />
<path fill="#1e479c" opacity="1.00" d=" M 238.56 119.60 C 243.80 116.14 252.03 120.67 251.67 126.98 C 251.70 133.66 251.73 140.34 251.66 147.02 C 251.90 151.16 248.18 154.27 244.50 155.26 C 239.08 156.40 233.46 151.37 233.62 145.91 C 233.61 139.63 233.54 133.35 233.66 127.07 C 233.70 123.87 236.04 121.29 238.56 119.60 Z" />
<path fill="#1e479c" opacity="1.00" d=" M 306.62 119.68 C 312.07 116.03 319.84 120.69 320.29 126.92 C 320.55 132.27 320.30 137.64 320.41 143.00 C 320.47 146.11 320.37 149.66 318.03 152.01 C 313.70 157.35 303.40 155.09 302.39 148.03 C 302.17 141.01 302.32 133.97 302.31 126.94 C 302.02 123.85 304.18 121.26 306.62 119.68 Z" />
<path fill="#1e479c" opacity="1.00" d=" M 378.18 118.54 C 383.41 117.64 388.95 122.63 388.53 127.93 C 388.52 133.96 388.55 139.99 388.52 146.02 C 388.82 150.46 385.01 154.12 381.01 155.29 C 375.79 156.22 370.15 151.38 370.42 146.05 C 370.38 140.02 370.40 133.98 370.41 127.94 C 370.05 123.43 373.90 119.33 378.18 118.54 Z" />
<path fill="#20dca5" opacity="1.00" d=" M 151.52 198.74 C 152.13 198.66 153.36 198.51 153.97 198.43 C 256.98 198.41 360.00 198.50 463.01 198.39 C 466.81 198.53 472.06 197.51 474.27 201.54 C 475.88 207.55 475.03 213.86 475.22 220.01 C 475.02 226.91 475.81 233.91 474.51 240.75 C 473.67 243.93 469.96 244.91 467.05 244.77 C 363.02 244.75 258.98 244.75 154.95 244.77 C 151.39 245.23 147.40 242.78 147.39 238.94 C 147.18 227.95 147.39 216.94 147.30 205.94 C 146.97 202.91 148.59 199.80 151.52 198.74 Z" />
<path fill="#1e479c" opacity="1.00" d=" M 214.62 294.86 C 218.06 293.76 222.08 294.65 224.48 297.44 C 227.17 299.88 226.57 303.75 226.66 307.01 C 226.48 312.66 226.95 318.35 226.40 323.99 C 225.19 327.15 222.19 329.60 218.90 330.35 C 214.20 331.07 209.61 327.21 208.67 322.73 C 208.40 316.47 208.64 310.20 208.56 303.94 C 208.18 299.93 211.07 296.37 214.62 294.86 Z" />
<path fill="#1e479c" opacity="1.00" d=" M 401.50 294.81 C 406.61 293.04 412.74 296.46 413.45 301.89 C 413.67 308.27 413.50 314.66 413.54 321.05 C 413.95 326.84 407.62 331.94 402.07 330.03 C 398.47 328.66 395.09 325.18 395.48 321.08 C 395.49 315.04 395.43 309.00 395.51 302.97 C 395.42 299.31 398.22 296.10 401.50 294.81 Z" />
<path fill="#1e479c" opacity="1.00" d=" M 355.68 419.32 C 356.72 415.78 358.63 411.92 362.31 410.59 C 365.19 410.24 368.67 409.85 370.97 412.03 C 373.75 414.34 375.39 418.14 374.11 421.69 C 363.73 453.18 353.06 484.57 342.71 516.07 C 341.37 520.72 337.10 524.95 332.00 524.63 C 327.11 525.09 322.71 521.30 321.04 516.94 C 309.92 485.22 298.80 453.50 287.87 421.71 C 285.71 416.09 291.00 409.26 297.02 410.27 C 302.22 409.82 305.11 415.04 306.35 419.32 C 314.21 443.15 323.07 466.64 330.76 490.52 C 331.14 490.53 331.89 490.56 332.27 490.57 C 339.70 466.70 347.97 443.10 355.68 419.32 Z" />
<path fill="#1e479c" opacity="1.00" d=" M 156.61 418.07 C 157.03 411.88 164.43 408.43 169.79 410.96 C 171.74 412.17 173.39 413.92 174.34 416.03 C 174.81 418.99 174.59 422.01 174.63 425.00 C 174.59 452.16 174.65 479.31 174.60 506.46 C 183.43 506.67 192.27 506.26 201.09 506.60 C 206.78 507.30 210.31 513.87 208.02 519.07 C 206.58 522.10 203.54 524.69 200.03 524.55 C 188.35 524.55 176.67 524.55 164.99 524.50 C 161.72 524.72 159.30 521.96 157.57 519.53 C 156.21 517.66 156.65 515.21 156.53 513.05 C 156.63 481.39 156.46 449.72 156.61 418.07 Z" />
<path fill="#1e479c" opacity="1.00" d=" M 245.08 410.51 C 247.83 410.19 251.05 409.82 253.37 411.66 C 255.92 413.59 257.44 416.80 257.35 420.00 C 257.35 451.35 257.32 482.70 257.37 514.05 C 257.46 516.63 256.80 519.26 255.18 521.30 C 252.24 525.43 245.26 525.99 241.90 522.11 C 239.65 520.09 238.55 517.06 238.70 514.07 C 238.74 482.69 238.72 451.30 238.71 419.92 C 238.49 415.83 241.37 411.98 245.08 410.51 Z" />
<path fill="#1e479c" opacity="1.00" d=" M 404.60 419.99 C 404.36 415.04 408.99 410.28 413.94 410.48 C 427.31 410.45 440.67 410.46 454.04 410.47 C 459.51 410.11 464.26 415.53 463.36 420.89 C 462.42 424.72 459.23 428.47 455.03 428.48 C 444.23 428.73 433.40 428.13 422.61 428.77 C 422.79 438.63 422.64 448.49 422.70 458.35 C 432.15 458.51 441.60 458.35 451.06 458.41 C 457.36 457.76 462.79 465.76 459.40 471.27 C 457.96 473.72 455.59 475.85 452.74 476.35 C 442.82 476.95 432.74 475.75 422.91 476.90 C 422.42 486.53 422.74 496.20 422.78 505.85 C 433.80 506.91 444.90 505.86 455.94 506.41 C 461.62 506.99 465.45 514.38 462.34 519.27 C 460.65 522.19 457.50 524.56 454.01 524.41 C 440.99 524.42 427.96 524.37 414.94 524.43 C 409.71 524.96 404.49 520.29 404.61 515.01 C 404.59 483.34 404.62 451.66 404.60 419.99 Z" />
</svg>
