<?xml version="1.0" encoding="UTF-8" ?>
<!DOCTYPE svg PUBLIC "-//W3C//DTD SVG 1.1//EN" "http://www.w3.org/Graphics/SVG/1.1/DTD/svg11.dtd">
<svg width="634pt" height="600pt" viewBox="0 0 634 600" version="1.1" xmlns="http://www.w3.org/2000/svg">
<path fill="#1e479c" opacity="1.00" d=" M 195.90 0.00 L 220.43 0.00 C 229.62 0.24 238.76 1.64 247.66 3.89 C 262.51 6.98 276.37 13.78 288.88 22.22 C 297.15 27.73 304.15 34.84 311.04 41.92 C 312.99 43.92 314.47 46.51 316.99 47.87 C 319.87 46.19 321.52 43.13 323.89 40.86 C 328.43 36.43 332.80 31.81 337.67 27.72 C 359.51 11.35 386.11 0.74 413.57 0.00 L 439.03 0.00 C 441.06 0.87 443.12 1.73 445.29 2.20 C 458.94 4.82 471.91 10.33 483.92 17.25 C 489.99 20.61 495.12 25.31 500.66 29.42 C 510.29 37.10 518.00 46.82 525.20 56.73 C 538.67 76.94 546.22 100.84 548.33 124.96 C 548.87 131.09 548.07 137.27 548.64 143.39 C 553.24 147.46 558.48 151.12 561.35 156.75 C 564.32 162.74 567.32 169.10 567.42 175.92 C 567.56 203.15 567.21 230.39 567.58 257.62 C 573.33 256.07 578.82 253.14 584.95 253.37 C 596.79 252.34 609.21 255.83 618.07 263.92 C 622.94 268.19 627.00 273.41 629.68 279.32 C 630.97 282.21 632.36 285.07 634.00 287.80 L 634.00 308.14 C 626.41 325.27 620.33 343.01 613.16 360.32 C 608.43 372.33 603.77 384.37 599.14 396.43 C 596.48 403.53 592.14 409.80 588.16 416.20 C 579.85 429.48 568.42 440.46 556.27 450.19 C 551.35 454.08 545.61 456.79 540.68 460.64 C 540.57 460.94 540.35 461.55 540.24 461.85 C 542.78 464.89 545.93 467.40 548.12 470.74 C 555.75 482.52 556.64 498.24 550.75 510.93 C 546.81 519.42 539.84 526.12 531.70 530.58 C 531.29 550.06 531.71 569.57 531.53 589.05 C 531.70 593.16 528.58 596.46 525.24 598.37 C 522.47 600.08 519.08 599.45 516.00 599.59 C 466.67 599.50 417.33 599.57 368.00 599.55 C 364.04 599.46 360.03 599.92 356.11 599.24 C 352.23 597.33 348.11 593.79 348.38 589.06 C 348.36 570.39 348.38 551.73 348.40 533.06 C 348.55 529.93 344.97 528.75 342.98 527.05 C 330.60 519.02 324.44 503.45 325.68 489.05 C 327.25 479.57 330.89 469.79 338.38 463.38 C 340.10 461.82 341.85 460.29 343.47 458.63 C 342.21 456.87 340.45 455.59 338.83 454.22 C 332.79 449.27 327.35 443.50 323.26 436.82 C 321.08 433.42 319.44 429.71 317.01 426.48 C 313.28 431.71 310.67 437.66 306.63 442.69 C 302.14 448.88 295.79 453.26 290.43 458.60 C 305.25 468.38 312.21 488.13 306.98 505.06 C 304.81 512.57 300.27 519.26 294.53 524.51 C 291.92 526.95 288.59 528.46 286.00 530.92 C 285.43 532.17 285.64 533.60 285.56 534.95 C 285.69 552.65 285.58 570.35 285.64 588.06 C 286.09 594.20 280.16 600.05 274.05 599.59 C 220.68 599.51 167.31 599.55 113.95 599.57 C 107.94 599.78 101.90 594.24 102.43 588.06 C 102.49 570.01 102.39 551.97 102.51 533.92 C 102.37 532.50 102.75 530.64 101.27 529.80 C 97.32 527.12 93.09 524.69 90.03 520.92 C 83.81 513.38 80.15 503.75 79.55 494.01 C 79.69 483.18 83.67 472.14 91.44 464.42 C 92.43 463.27 93.76 462.14 93.70 460.48 C 89.19 457.62 84.46 455.12 80.12 452.01 C 59.27 436.25 41.34 415.49 32.60 390.57 C 21.86 362.15 9.88 334.19 0.00 305.45 L 0.00 291.59 C 2.01 285.38 3.91 279.02 7.56 273.53 C 10.30 269.10 14.09 265.43 18.09 262.13 C 26.76 255.27 38.13 252.44 49.06 253.37 C 55.18 253.17 60.63 256.22 66.43 257.57 C 66.77 230.36 66.45 203.13 66.59 175.91 C 66.73 168.84 69.74 162.20 73.05 156.09 C 75.93 150.77 80.96 147.31 85.37 143.41 C 85.89 138.62 85.28 133.79 85.52 128.99 C 86.86 104.70 94.17 80.72 107.02 60.03 C 109.60 56.21 112.79 51.44 117.97 51.51 C 122.41 52.26 127.24 56.05 126.74 61.00 C 126.74 66.49 122.17 70.36 119.87 74.99 C 111.55 90.39 105.31 107.34 104.39 124.95 C 101.51 151.96 111.36 178.67 125.54 201.25 C 132.54 214.13 141.99 225.43 151.16 236.78 C 157.45 243.83 163.11 251.47 170.02 257.95 C 177.23 264.73 183.73 272.25 191.26 278.70 C 200.80 286.50 209.34 295.48 219.32 302.77 C 225.85 308.60 233.19 313.40 239.85 319.08 C 249.83 326.86 260.53 333.67 270.65 341.28 C 284.45 351.50 299.54 359.79 313.88 369.21 C 315.17 369.88 316.74 371.20 318.19 370.15 C 326.66 365.01 335.17 359.92 343.45 354.47 C 351.22 348.84 359.66 344.21 367.18 338.23 C 371.97 335.16 376.62 330.13 382.88 331.36 C 390.52 331.97 392.32 343.48 386.59 347.59 C 378.41 354.21 369.17 359.35 360.68 365.55 C 354.77 369.43 348.59 372.87 342.72 376.80 C 337.81 380.23 332.25 382.69 327.60 386.48 C 326.14 410.06 338.62 434.01 358.85 446.24 C 361.88 447.92 364.21 451.47 367.98 451.34 C 417.27 451.21 466.57 451.41 515.85 451.24 C 525.49 448.44 534.02 442.76 542.39 437.35 C 549.43 431.78 556.59 426.20 562.33 419.24 C 571.43 408.59 579.94 396.94 584.19 383.44 C 592.77 361.42 601.46 339.45 610.15 317.47 C 612.63 310.88 616.24 304.29 615.55 297.00 C 615.24 280.53 596.89 267.57 581.25 272.52 C 572.57 275.46 565.62 282.81 562.59 291.41 C 558.07 303.47 553.32 315.45 548.78 327.50 C 547.50 330.80 546.50 334.38 543.98 336.99 C 541.37 339.74 537.72 341.04 534.36 342.57 C 527.90 345.25 521.62 348.31 515.46 351.61 C 509.71 354.59 504.74 358.80 499.66 362.76 C 489.35 371.15 482.55 382.79 476.31 394.31 C 473.33 400.27 463.76 400.23 460.49 394.57 C 457.79 390.30 459.88 385.10 462.20 381.17 C 466.02 373.07 471.82 366.21 477.28 359.20 C 482.44 352.70 489.31 347.95 495.62 342.68 C 504.40 335.68 514.41 330.36 524.73 325.99 C 526.58 325.16 528.58 324.48 530.14 323.12 C 532.06 320.30 532.80 316.89 534.10 313.77 C 538.58 302.30 542.77 290.71 547.56 279.36 C 549.14 275.44 548.43 271.12 548.54 267.00 C 548.54 238.00 548.49 209.00 548.57 180.00 C 548.67 175.16 548.04 170.01 544.98 166.07 C 540.21 177.79 536.89 190.23 530.16 201.09 C 525.20 211.41 518.59 220.78 512.07 230.16 C 510.25 232.89 507.28 235.36 507.43 238.93 C 507.42 254.61 507.46 270.30 507.46 285.98 C 507.57 288.76 506.65 291.62 504.51 293.49 C 501.96 296.25 497.81 295.96 494.44 295.35 C 491.18 293.99 488.54 290.65 488.63 287.01 C 488.42 278.13 488.97 269.24 488.43 260.37 C 484.97 262.12 482.81 265.46 480.06 268.06 C 466.03 282.07 452.33 296.53 436.61 308.67 C 431.50 313.56 425.79 317.74 420.34 322.21 C 414.93 326.12 406.14 321.71 406.30 314.95 C 405.41 310.03 409.73 306.79 413.06 304.05 C 423.18 296.60 432.02 287.60 441.86 279.80 C 451.64 270.60 461.03 261.00 470.48 251.46 C 475.91 246.17 480.17 239.86 485.44 234.41 C 496.39 220.34 507.45 206.10 515.07 189.87 C 519.73 180.92 523.34 171.46 526.53 161.90 C 531.42 144.21 530.99 125.36 527.24 107.49 C 526.18 102.10 523.93 97.05 522.28 91.83 C 515.80 72.67 503.09 56.15 487.81 43.11 C 471.87 29.49 451.68 21.00 430.86 18.67 C 422.93 18.21 414.97 18.32 407.04 18.62 C 392.20 20.16 377.74 24.82 364.63 31.90 C 351.83 38.70 341.24 48.86 331.77 59.68 C 327.54 64.54 325.02 72.21 317.98 73.58 C 311.93 74.38 308.58 68.47 305.63 64.26 C 287.22 39.09 258.07 21.81 226.96 18.62 C 219.08 18.30 211.16 18.22 203.29 18.72 C 189.57 20.44 176.04 24.42 163.86 31.02 C 158.81 33.65 154.51 37.78 148.96 39.35 C 143.67 39.69 139.16 35.14 138.74 30.00 C 139.19 26.74 140.90 23.61 143.67 21.76 C 154.75 14.02 167.13 8.19 180.09 4.43 C 185.32 2.79 190.93 2.47 195.90 0.00 M 85.46 177.98 C 85.50 210.33 85.45 242.69 85.47 275.04 C 85.36 277.88 86.83 280.37 87.98 282.86 C 92.91 295.58 97.85 308.31 102.65 321.08 C 103.62 324.38 107.39 324.93 110.09 326.23 C 137.48 338.10 162.26 358.64 174.36 386.44 C 174.97 389.53 175.14 393.28 172.64 395.63 C 169.01 400.36 160.48 399.72 157.65 394.43 C 152.40 384.19 146.06 374.31 137.62 366.38 C 126.12 354.71 111.04 347.74 96.47 340.76 C 92.86 339.19 88.97 337.21 87.50 333.27 C 81.59 318.41 76.08 303.39 70.22 288.52 C 66.57 280.74 59.57 274.29 51.16 272.11 C 42.35 269.98 32.75 273.06 26.45 279.46 C 22.39 283.41 20.33 288.90 18.93 294.27 C 17.72 299.21 19.08 304.28 20.91 308.88 C 27.83 326.36 34.80 343.81 41.47 361.39 C 45.80 371.93 49.96 382.53 53.84 393.25 C 58.55 402.38 64.17 411.16 71.26 418.65 C 77.85 427.06 86.29 433.73 94.82 440.05 C 103.31 444.91 112.16 449.88 121.97 451.28 C 170.79 451.27 219.62 451.43 268.42 451.19 C 271.79 448.54 275.26 446.04 278.94 443.84 C 293.18 433.92 301.94 417.64 305.29 400.87 C 305.58 396.89 306.15 392.93 306.52 388.96 C 306.68 386.73 304.53 385.31 302.96 384.13 C 290.53 376.25 277.74 368.87 265.76 360.31 C 254.86 353.72 245.02 345.59 234.48 338.48 C 226.56 331.67 217.61 326.14 209.94 319.03 C 204.41 313.84 197.83 309.89 192.47 304.51 C 188.67 300.63 184.20 297.48 180.40 293.60 C 169.26 283.78 158.95 273.05 148.68 262.32 C 147.82 261.30 146.76 260.61 145.51 260.27 C 145.15 269.18 145.50 278.12 145.38 287.04 C 145.57 290.46 143.01 293.37 140.28 295.09 C 137.78 295.98 134.98 295.81 132.40 295.39 C 129.09 294.00 126.44 290.61 126.57 286.92 C 126.52 270.93 126.58 254.94 126.57 238.96 C 126.63 234.10 122.30 230.93 119.96 227.10 C 116.06 220.47 111.03 214.56 107.39 207.76 C 100.59 194.60 93.32 181.41 90.03 166.84 L 88.99 166.17 C 86.27 169.38 85.57 173.89 85.46 177.98 M 118.32 470.07 C 107.26 471.31 97.96 481.81 98.48 493.00 C 97.96 499.59 101.10 505.84 105.47 510.57 C 110.32 515.30 117.52 516.24 124.00 516.47 C 168.67 516.43 213.33 516.46 258.00 516.45 C 264.41 516.57 271.08 516.62 277.10 514.11 C 281.42 512.00 284.76 508.29 287.24 504.24 C 289.99 499.68 289.63 494.08 289.35 488.97 C 289.05 484.52 286.55 480.60 283.51 477.49 C 280.99 474.99 278.62 471.81 274.90 471.17 C 267.12 468.92 258.98 469.74 251.00 469.62 C 208.66 469.60 166.33 469.65 123.99 469.60 C 122.09 469.65 120.20 469.80 118.32 470.07 M 364.32 470.08 C 356.83 470.63 350.94 476.02 346.92 481.95 C 343.95 486.35 344.44 491.96 344.60 497.01 C 344.77 502.80 348.61 507.57 352.66 511.34 C 356.97 515.48 363.32 516.06 368.99 516.44 C 413.66 516.47 458.33 516.44 503.00 516.45 C 508.32 516.47 513.76 516.86 518.92 515.23 C 529.32 513.24 536.61 502.37 535.51 492.00 C 535.92 483.44 529.63 476.48 522.83 472.22 C 517.03 469.29 510.32 469.55 504.01 469.62 C 459.33 469.61 414.66 469.65 369.99 469.59 C 368.08 469.64 366.19 469.79 364.32 470.08 M 121.50 535.59 C 121.08 550.23 121.23 564.93 121.42 579.58 C 139.27 579.97 157.14 579.63 175.00 579.74 C 205.54 579.65 236.09 579.93 266.63 579.61 C 266.83 564.95 266.99 550.24 266.55 535.58 C 244.71 535.29 222.85 535.55 201.00 535.46 C 174.50 535.55 147.99 535.28 121.50 535.59 M 367.45 535.58 C 367.01 550.24 367.17 564.95 367.37 579.61 C 392.91 579.93 418.46 579.65 444.00 579.74 C 466.86 579.63 489.73 579.96 512.58 579.59 C 512.77 564.93 512.92 550.24 512.50 535.59 C 495.67 535.28 478.83 535.55 462.00 535.46 C 430.48 535.55 398.96 535.29 367.45 535.58 Z" />
<path fill="#1e479c" opacity="1.00" d=" M 310.26 116.09 C 316.27 114.24 323.08 116.09 327.60 120.39 C 333.79 126.44 336.96 134.84 342.94 141.07 C 347.46 143.48 352.71 144.07 357.49 145.86 C 363.11 147.42 369.52 148.63 373.21 153.65 C 376.88 159.11 379.01 166.49 375.84 172.70 C 371.82 180.84 364.31 186.78 360.43 194.99 C 360.12 203.00 360.67 211.04 360.52 219.06 C 360.72 224.42 356.89 228.84 352.98 232.01 C 348.30 235.82 341.71 236.53 336.08 234.64 C 329.86 232.58 323.67 230.41 317.53 228.10 C 314.26 226.67 311.08 228.97 308.00 229.83 C 300.81 232.16 293.80 236.25 286.00 235.58 C 280.20 235.33 275.08 231.37 272.35 226.41 C 269.01 221.22 270.60 214.79 270.32 209.00 C 270.10 203.94 270.95 198.77 270.11 193.78 C 265.06 188.45 261.32 182.08 256.57 176.48 C 251.89 170.64 251.81 161.92 255.73 155.66 C 258.36 151.77 262.59 149.24 267.01 147.86 C 272.93 146.00 278.99 144.60 284.90 142.72 C 289.17 141.31 290.79 136.70 293.27 133.38 C 297.60 126.54 301.84 118.47 310.26 116.09 M 294.25 159.19 C 287.07 162.04 279.33 163.33 272.11 166.02 C 276.68 173.02 282.62 179.07 286.85 186.32 C 288.09 188.30 288.65 190.62 288.73 192.94 C 288.96 200.67 288.12 208.44 288.90 216.16 C 297.95 213.89 306.47 208.96 315.99 208.71 C 321.28 209.08 326.11 211.55 331.19 212.89 C 334.87 213.73 338.03 215.98 341.68 216.87 C 342.23 208.91 341.19 200.93 341.71 192.97 C 341.95 188.73 344.06 184.89 346.56 181.56 C 349.43 177.78 352.28 173.97 355.36 170.34 C 356.43 168.88 358.10 167.42 357.72 165.41 C 353.88 164.03 349.72 163.74 346.00 162.01 C 341.55 159.88 336.17 159.97 332.23 156.76 C 324.80 150.90 321.69 141.35 315.01 134.84 C 307.65 142.54 304.51 154.51 294.25 159.19 Z" />
<path fill="#20dca5" opacity="1.00" d=" M 294.25 159.19 C 304.51 154.51 307.65 142.54 315.01 134.84 C 321.69 141.35 324.80 150.90 332.23 156.76 C 336.17 159.97 341.55 159.88 346.00 162.01 C 349.72 163.74 353.88 164.03 357.72 165.41 C 358.10 167.42 356.43 168.88 355.36 170.34 C 352.28 173.97 349.43 177.78 346.56 181.56 C 344.06 184.89 341.95 188.73 341.71 192.97 C 341.19 200.93 342.23 208.91 341.68 216.87 C 338.03 215.98 334.87 213.73 331.19 212.89 C 326.11 211.55 321.28 209.08 315.99 208.71 C 306.47 208.96 297.95 213.89 288.90 216.16 C 288.12 208.44 288.96 200.67 288.73 192.94 C 288.65 190.62 288.09 188.30 286.85 186.32 C 282.62 179.07 276.68 173.02 272.11 166.02 C 279.33 163.33 287.07 162.04 294.25 159.19 Z" />
<path fill="#20dca5" opacity="1.00" d=" M 118.32 470.07 C 120.20 469.80 122.09 469.65 123.99 469.60 C 166.33 469.65 208.66 469.60 251.00 469.62 C 258.98 469.74 267.12 468.92 274.90 471.17 C 278.62 471.81 280.99 474.99 283.51 477.49 C 286.55 480.60 289.05 484.52 289.35 488.97 C 289.63 494.08 289.99 499.68 287.24 504.24 C 284.76 508.29 281.42 512.00 277.10 514.11 C 271.08 516.62 264.41 516.57 258.00 516.45 C 213.33 516.46 168.67 516.43 124.00 516.47 C 117.52 516.24 110.32 515.30 105.47 510.57 C 101.10 505.84 97.96 499.59 98.48 493.00 C 97.96 481.81 107.26 471.31 118.32 470.07 Z" />
<path fill="#20dca5" opacity="1.00" d=" M 364.32 470.08 C 366.19 469.79 368.08 469.64 369.99 469.59 C 414.66 469.65 459.33 469.61 504.01 469.62 C 510.32 469.55 517.03 469.29 522.83 472.22 C 529.63 476.48 535.92 483.44 535.51 492.00 C 536.61 502.37 529.32 513.24 518.92 515.23 C 513.76 516.86 508.32 516.47 503.00 516.45 C 458.33 516.44 413.66 516.47 368.99 516.44 C 363.32 516.06 356.97 515.48 352.66 511.34 C 348.61 507.57 344.77 502.80 344.60 497.01 C 344.44 491.96 343.95 486.35 346.92 481.95 C 350.94 476.02 356.83 470.63 364.32 470.08 Z" />
</svg>
