<?xml version="1.0" encoding="UTF-8" ?>
<!DOCTYPE svg PUBLIC "-//W3C//DTD SVG 1.1//EN" "http://www.w3.org/Graphics/SVG/1.1/DTD/svg11.dtd">
<svg width="467pt" height="563pt" viewBox="0 0 467 563" version="1.1" xmlns="http://www.w3.org/2000/svg">
<path fill="#1e479c" opacity="1.00" d=" M 61.86 0.00 L 156.62 0.00 C 159.84 1.37 162.85 4.23 162.70 7.99 C 163.03 12.63 158.67 16.75 154.08 16.41 C 136.91 16.46 119.73 16.35 102.56 16.45 C 102.79 19.96 102.78 23.49 102.74 27.01 C 102.75 149.00 102.74 271.00 102.74 393.00 C 102.71 398.35 102.89 403.70 102.55 409.04 C 108.35 409.61 114.18 409.32 120.00 409.37 C 184.67 409.40 249.34 409.33 314.01 409.40 C 319.31 409.17 323.14 414.77 321.64 419.73 C 320.91 423.63 316.84 425.99 313.04 425.60 C 240.34 425.57 167.64 425.62 94.94 425.58 C 85.11 425.82 75.27 430.41 69.30 438.32 C 60.48 449.42 60.34 466.56 69.28 477.64 C 75.12 485.70 85.07 490.36 94.93 490.41 C 194.65 490.37 294.37 490.44 394.08 490.38 C 409.22 489.43 424.10 482.69 434.27 471.33 C 443.35 460.79 449.05 447.03 448.68 433.01 C 448.70 421.56 448.69 410.10 448.69 398.65 C 435.60 414.63 415.76 425.02 395.00 425.55 C 378.98 425.64 362.96 425.59 346.95 425.59 C 340.90 426.31 336.21 418.55 339.54 413.53 C 340.98 410.84 343.92 409.13 346.98 409.37 C 361.66 409.34 376.34 409.41 391.02 409.38 C 402.67 408.87 414.64 406.12 424.19 399.12 C 439.70 388.58 449.32 369.75 448.69 351.00 C 448.67 258.34 448.69 165.68 448.68 73.01 C 448.65 56.04 440.51 39.31 427.13 28.86 C 416.74 20.56 403.32 15.88 390.00 16.41 C 322.65 16.42 255.29 16.41 187.94 16.41 C 183.45 16.63 178.72 12.79 179.26 8.05 C 178.95 4.23 182.11 1.30 185.39 0.00 L 404.02 0.00 C 407.95 1.78 412.18 2.71 416.26 4.05 C 432.58 9.91 446.61 21.74 455.31 36.71 C 461.51 47.39 464.98 59.66 465.51 71.97 C 465.51 211.66 465.53 351.35 465.50 491.04 C 464.74 507.15 459.05 523.22 448.69 535.69 C 441.07 545.06 431.16 552.51 420.02 557.19 C 414.64 559.86 408.61 560.67 403.11 563.00 L 63.00 563.00 C 57.19 560.69 50.94 559.66 45.30 556.89 C 30.20 550.43 17.35 538.79 9.70 524.23 C 3.43 513.61 1.15 501.18 0.68 489.00 C 0.67 353.67 0.69 218.33 0.67 83.00 C 0.60 71.82 0.71 60.29 4.76 49.71 C 11.37 30.34 26.38 13.97 45.25 6.00 C 50.65 3.61 56.47 2.40 61.86 0.00 M 36.14 31.06 C 24.27 41.89 16.73 57.82 17.33 74.01 C 17.33 212.34 17.33 350.66 17.33 488.99 C 16.59 511.55 31.44 533.51 52.31 541.85 C 59.08 544.95 66.53 546.68 73.99 546.52 C 180.00 546.53 286.00 546.53 392.01 546.52 C 416.25 546.78 439.29 529.47 446.18 506.29 C 449.31 497.85 448.59 488.73 448.72 479.91 C 444.66 483.45 441.59 488.04 437.08 491.10 C 424.72 501.17 408.81 506.27 392.98 506.67 C 293.33 506.66 193.67 506.68 94.01 506.66 C 88.90 506.72 83.89 505.49 79.01 504.13 C 66.91 500.27 57.04 490.93 51.26 479.78 C 44.78 466.53 44.49 450.26 50.98 436.96 C 57.19 424.05 69.20 413.89 83.25 410.65 C 84.47 410.21 86.86 409.87 86.50 408.07 C 86.47 277.55 86.55 147.02 86.47 16.50 C 80.97 16.42 75.46 16.25 69.97 16.58 C 57.63 17.91 45.33 22.53 36.14 31.06 Z" />
<path fill="#1e479c" opacity="1.00" d=" M 217.54 150.79 C 215.88 128.36 233.63 106.22 256.11 103.71 C 264.61 103.01 273.40 102.92 281.58 105.67 C 298.85 111.93 311.83 129.43 311.53 148.00 C 311.33 150.65 312.91 153.85 315.97 153.64 C 324.30 153.86 332.65 153.65 341.00 153.71 C 345.51 153.82 350.48 152.92 354.47 155.60 C 359.04 158.49 363.36 163.20 363.25 168.94 C 363.22 207.31 363.28 245.69 363.22 284.06 C 363.31 289.57 359.18 293.98 354.80 296.73 C 351.29 299.02 346.98 298.55 343.00 298.57 C 334.35 298.56 325.70 298.51 317.05 298.57 C 314.45 298.35 311.93 300.38 311.68 303.00 C 311.33 307.99 311.21 313.07 309.65 317.87 C 306.35 327.68 299.60 336.14 291.21 342.11 C 275.79 352.09 254.80 352.48 239.13 342.85 C 228.52 335.97 220.19 325.02 218.25 312.32 C 216.66 308.24 219.17 302.72 215.32 299.67 C 213.88 298.36 211.84 298.63 210.05 298.57 C 200.69 298.64 191.33 298.60 181.98 298.63 C 175.87 298.92 170.27 294.92 167.25 289.84 C 164.80 285.64 165.50 280.63 165.43 276.00 C 165.46 240.66 165.43 205.33 165.44 169.99 C 165.38 161.05 174.05 153.01 182.95 153.68 C 192.98 153.69 203.01 153.83 213.04 153.65 C 215.01 153.72 216.23 151.97 217.54 150.79 M 249.91 121.95 C 243.15 126.13 236.93 132.16 234.79 140.04 C 232.90 145.81 234.45 152.22 231.76 157.79 C 228.43 165.90 219.41 170.17 211.01 170.31 C 201.10 170.39 191.19 170.36 181.28 170.28 C 181.51 206.84 181.35 243.41 181.36 279.98 C 181.39 281.25 181.43 282.89 183.18 282.57 C 192.78 282.82 202.39 282.42 211.99 282.67 C 216.09 282.99 220.53 283.44 223.84 286.16 C 227.38 289.01 231.03 292.25 232.38 296.77 C 234.07 301.44 233.22 306.52 234.38 311.30 C 236.51 320.54 243.89 327.93 252.42 331.62 C 259.90 333.94 267.92 333.66 275.56 332.22 C 282.69 329.50 289.07 324.37 292.29 317.33 C 296.68 310.00 294.16 300.77 298.35 293.36 C 301.91 286.51 309.44 282.69 316.98 282.44 C 327.01 282.22 337.05 282.64 347.08 282.26 C 347.44 267.51 347.14 252.75 347.24 238.00 C 347.07 215.41 347.58 192.81 346.98 170.23 C 337.65 170.44 328.32 170.31 319.00 170.36 C 310.99 170.33 302.47 166.86 298.32 159.71 C 294.10 152.28 296.71 143.02 292.45 135.60 C 289.80 131.15 286.55 126.86 282.30 123.83 C 277.83 121.64 273.18 119.07 268.04 119.32 C 261.96 119.47 255.33 118.56 249.91 121.95 Z" />
<path fill="#20dca5" opacity="1.00" d=" M 249.91 121.95 C 255.33 118.56 261.96 119.47 268.04 119.32 C 273.18 119.07 277.83 121.64 282.30 123.83 C 286.55 126.86 289.80 131.15 292.45 135.60 C 296.71 143.02 294.10 152.28 298.32 159.71 C 302.47 166.86 310.99 170.33 319.00 170.36 C 328.32 170.31 337.65 170.44 346.98 170.23 C 347.58 192.81 347.07 215.41 347.24 238.00 C 347.14 252.75 347.44 267.51 347.08 282.26 C 337.05 282.64 327.01 282.22 316.98 282.44 C 309.44 282.69 301.91 286.51 298.35 293.36 C 294.16 300.77 296.68 310.00 292.29 317.33 C 289.07 324.37 282.69 329.50 275.56 332.22 C 267.92 333.66 259.90 333.94 252.42 331.62 C 243.89 327.93 236.51 320.54 234.38 311.30 C 233.22 306.52 234.07 301.44 232.38 296.77 C 231.03 292.25 227.38 289.01 223.84 286.16 C 220.53 283.44 216.09 282.99 211.99 282.67 C 202.39 282.42 192.78 282.82 183.18 282.57 C 181.43 282.89 181.39 281.25 181.36 279.98 C 181.35 243.41 181.51 206.84 181.28 170.28 C 191.19 170.36 201.10 170.39 211.01 170.31 C 219.41 170.17 228.43 165.90 231.76 157.79 C 234.45 152.22 232.90 145.81 234.79 140.04 C 236.93 132.16 243.15 126.13 249.91 121.95 Z" />
</svg>
