<?xml version="1.0" encoding="UTF-8" ?>
<!DOCTYPE svg PUBLIC "-//W3C//DTD SVG 1.1//EN" "http://www.w3.org/Graphics/SVG/1.1/DTD/svg11.dtd">
<svg width="576pt" height="558pt" viewBox="0 0 576 558" version="1.1" xmlns="http://www.w3.org/2000/svg">
<path fill="#060f22" opacity="0.22" d=" M 459.99 0.00 L 473.25 0.00 C 474.63 0.93 475.97 1.93 477.37 2.85 C 472.15 2.65 466.94 2.93 461.73 3.10 C 459.71 3.08 457.70 3.03 455.69 3.06 C 457.14 2.07 458.53 1.00 459.99 0.00 Z" />
<path fill="#0e224b" opacity="0.49" d=" M 28.57 118.99 C 170.95 80.40 313.30 41.64 455.69 3.06 C 457.70 3.03 459.71 3.08 461.73 3.10 C 466.90 3.41 472.15 3.58 477.18 4.93 C 469.37 4.45 461.17 3.57 453.70 6.48 C 448.53 8.44 442.79 8.23 437.74 10.58 C 433.20 12.66 428.14 12.73 423.25 13.06 C 424.21 13.56 425.08 14.24 425.84 15.03 C 420.52 15.71 415.23 16.58 409.89 17.02 C 410.05 17.69 410.21 18.35 410.37 19.01 C 402.25 19.87 394.59 22.92 386.55 24.24 C 380.85 26.33 375.00 28.18 368.84 27.97 C 369.02 28.70 369.21 29.42 369.40 30.15 C 364.10 31.04 358.76 31.77 353.38 31.97 C 354.17 32.61 354.95 33.26 355.74 33.91 C 350.48 34.81 345.21 35.59 339.89 35.97 C 340.03 36.67 340.18 37.38 340.33 38.09 C 335.00 38.94 329.67 39.71 324.29 40.04 C 325.13 40.68 325.98 41.32 326.84 41.94 C 317.76 42.41 309.26 45.73 300.50 47.81 C 294.52 50.12 288.18 51.12 281.88 52.19 C 282.04 52.76 282.20 53.33 282.36 53.90 C 277.41 54.21 272.35 54.51 267.80 56.69 C 263.16 58.88 257.63 57.90 253.18 60.61 C 249.41 62.77 244.95 62.61 240.75 62.88 C 240.92 63.60 241.10 64.33 241.28 65.05 C 236.55 65.57 231.76 66.13 227.30 67.87 C 222.56 69.77 217.41 70.16 212.59 71.79 C 207.33 73.61 201.83 74.58 196.53 76.29 C 192.26 77.66 187.76 77.90 183.32 78.04 C 184.15 78.65 184.99 79.26 185.83 79.88 C 180.37 80.96 174.86 81.78 169.31 82.05 C 170.14 82.66 170.98 83.27 171.82 83.89 C 166.04 84.89 160.23 85.74 154.37 86.05 C 155.19 86.69 156.01 87.33 156.83 87.97 C 151.01 88.91 145.19 89.82 139.32 90.35 C 140.19 90.86 141.06 91.38 141.93 91.90 C 135.46 92.48 129.29 94.45 123.06 96.08 C 116.48 97.01 110.61 100.38 104.05 101.41 C 97.62 103.23 91.15 105.20 84.38 105.03 C 85.17 105.66 85.97 106.29 86.76 106.93 C 80.86 108.18 74.44 107.71 69.05 110.76 C 64.85 112.96 59.97 112.60 55.39 112.93 C 56.17 113.59 56.94 114.26 57.72 114.93 C 52.52 115.56 47.22 116.12 42.35 118.16 C 36.66 120.55 30.19 120.13 24.61 122.84 C 15.30 127.14 7.79 135.25 4.32 144.90 C 2.61 152.09 3.18 159.62 3.62 166.93 C 2.41 166.10 1.20 165.27 0.00 164.43 L 0.00 146.46 C 3.38 141.92 5.59 136.61 9.26 132.28 C 14.43 126.34 20.82 121.06 28.57 118.99 Z" />
<path fill="#0e2148" opacity="0.47" d=" M 461.73 3.10 C 466.94 2.93 472.15 2.65 477.37 2.85 C 486.31 5.73 494.28 11.54 499.75 19.18 C 504.75 26.64 506.53 35.62 508.88 44.14 C 509.50 46.61 510.40 49.07 510.38 51.65 C 509.85 56.03 506.32 60.22 501.76 60.62 C 497.56 61.14 493.09 58.62 491.67 54.56 C 489.15 47.72 487.99 40.45 485.42 33.63 C 482.76 26.66 475.75 22.48 468.77 20.92 C 464.86 20.31 461.13 22.08 457.40 22.94 C 319.75 60.26 182.12 97.68 44.49 135.04 C 39.04 136.35 33.51 137.72 28.63 140.57 C 22.90 143.85 19.66 150.51 19.60 156.98 C 19.48 161.90 21.07 166.60 22.46 171.25 C 46.97 262.01 71.48 352.77 96.01 443.52 C 96.90 446.94 97.57 450.48 99.24 453.63 C 101.73 458.42 106.11 462.24 111.25 463.91 C 115.88 465.21 120.83 464.72 125.41 463.46 C 131.61 461.68 137.86 460.13 143.99 458.14 C 150.07 455.68 157.44 461.53 156.81 467.95 C 156.82 472.57 153.00 476.34 148.70 477.41 C 139.15 480.01 129.64 482.98 119.84 484.48 C 104.53 485.40 89.04 476.70 82.07 462.98 C 78.71 456.10 76.64 448.68 74.84 441.26 C 62.03 393.16 48.82 345.17 36.00 297.07 C 33.90 290.48 32.19 283.62 32.55 276.65 C 32.78 276.22 33.24 275.36 33.47 274.93 C 35.28 280.60 35.87 286.57 35.58 292.49 C 36.48 291.80 37.36 291.10 38.23 290.38 C 38.97 295.80 39.72 301.24 39.65 306.73 C 40.43 305.88 41.20 305.03 41.96 304.17 C 42.78 309.24 41.45 315.04 44.63 319.45 C 47.26 323.18 46.81 328.03 48.40 332.18 C 50.50 337.59 50.82 343.41 51.23 349.14 C 52.09 348.91 52.96 348.69 53.83 348.47 C 54.37 353.18 54.71 357.93 54.61 362.67 C 55.37 361.88 56.14 361.09 56.89 360.29 C 58.02 365.95 58.87 371.70 58.52 377.48 C 59.32 376.70 60.13 375.93 60.95 375.17 C 61.94 380.52 62.68 385.93 62.66 391.39 C 63.48 391.07 64.30 390.76 65.12 390.45 C 65.97 395.76 66.74 401.11 66.53 406.50 C 67.31 405.72 68.10 404.94 68.88 404.16 C 69.39 408.48 69.64 412.82 69.56 417.16 C 70.29 416.96 71.03 416.76 71.76 416.57 C 72.94 422.36 73.76 428.21 74.94 434.00 C 75.63 433.90 76.32 433.80 77.01 433.70 C 77.47 438.51 76.77 443.71 79.24 448.09 C 81.54 452.20 81.47 457.15 83.72 461.30 C 86.31 466.04 89.16 470.98 93.79 474.02 C 97.22 476.25 100.68 478.57 104.56 479.95 C 112.86 481.97 121.50 481.21 129.90 480.34 C 133.48 479.93 136.37 477.47 139.91 476.92 C 144.03 476.19 148.88 476.30 151.93 472.93 C 154.66 469.97 153.18 465.63 152.95 462.08 C 145.96 460.77 138.98 462.38 132.03 463.05 C 132.13 463.73 132.23 464.42 132.34 465.12 C 125.01 466.41 117.44 467.44 110.05 466.13 C 104.93 464.51 101.22 460.18 97.95 456.14 C 94.93 452.54 94.51 447.67 94.52 443.16 C 94.05 444.09 93.58 445.02 93.10 445.96 C 92.01 440.48 91.22 434.95 90.95 429.37 C 90.33 430.16 89.72 430.95 89.10 431.75 C 88.39 426.53 87.75 421.23 85.80 416.30 C 83.94 411.63 83.84 406.48 82.00 401.82 C 80.73 398.68 80.09 395.34 79.45 392.04 C 75.82 376.79 70.54 361.97 67.75 346.55 C 66.75 343.73 65.00 341.15 64.76 338.09 C 64.15 331.64 61.19 325.79 59.93 319.48 C 58.00 313.72 56.15 307.87 56.06 301.73 C 55.37 301.89 54.69 302.06 54.00 302.23 C 53.63 292.33 48.46 283.29 48.96 273.28 C 48.34 274.14 47.72 275.00 47.10 275.86 C 46.23 270.16 45.76 264.28 43.31 258.98 C 41.00 254.07 42.29 248.22 39.47 243.49 C 37.36 239.67 37.31 235.22 36.91 230.98 C 36.26 231.07 35.62 231.16 34.97 231.25 C 34.22 226.13 33.46 221.02 32.81 215.90 C 32.17 216.05 31.53 216.21 30.89 216.37 C 30.43 211.42 29.87 206.42 28.13 201.73 C 26.43 197.13 26.51 192.04 24.33 187.61 C 22.16 183.32 22.23 178.43 22.03 173.75 C 21.34 173.97 20.65 174.20 19.96 174.43 C 18.40 165.92 15.84 156.96 18.59 148.42 C 20.75 143.56 25.28 140.33 29.44 137.28 C 34.24 133.68 40.44 133.52 46.17 133.01 C 45.98 132.30 45.79 131.59 45.60 130.88 C 54.45 130.44 62.87 127.52 71.32 125.12 C 76.73 122.52 82.77 122.17 88.66 121.80 C 87.81 121.22 86.97 120.63 86.13 120.04 C 91.97 118.98 97.87 118.15 103.82 117.91 C 102.56 117.38 101.30 116.83 100.06 116.28 C 105.89 115.17 111.95 114.91 117.49 112.60 C 121.48 110.94 125.78 110.33 130.06 109.99 C 129.97 109.32 129.87 108.65 129.78 107.99 C 138.84 107.36 147.41 104.16 156.15 101.99 C 161.97 99.27 168.77 100.16 174.40 97.00 C 178.53 95.03 183.22 95.33 187.66 94.99 C 186.85 94.36 186.05 93.73 185.24 93.10 C 190.50 92.20 195.78 91.40 201.10 91.04 C 200.95 90.34 200.80 89.63 200.66 88.92 C 205.42 88.21 210.17 87.48 214.94 86.83 C 214.96 86.25 214.99 85.68 215.02 85.10 C 219.77 84.50 224.55 83.78 229.03 82.01 C 234.20 79.93 239.80 79.42 245.31 79.02 C 245.03 78.34 244.75 77.67 244.47 76.99 C 248.82 76.74 253.24 76.34 257.26 74.52 C 262.10 72.39 267.46 72.19 272.67 71.98 C 271.83 71.33 270.99 70.67 270.16 70.02 C 275.94 69.02 281.77 68.19 287.65 67.96 C 286.81 67.33 285.97 66.70 285.14 66.06 C 288.78 65.47 292.46 65.12 296.08 64.39 C 298.86 63.82 301.18 61.98 303.97 61.43 C 307.56 60.71 311.26 60.32 314.65 58.84 C 319.26 56.88 324.30 56.44 329.25 56.00 C 329.04 55.39 328.83 54.77 328.63 54.16 C 333.29 53.76 338.03 53.32 342.38 51.45 C 347.23 49.37 352.56 49.12 357.76 48.98 C 356.88 48.41 356.01 47.83 355.14 47.25 C 360.59 46.10 366.10 45.27 371.67 45.01 C 370.85 44.37 370.04 43.73 369.24 43.09 C 374.48 42.22 379.74 41.43 385.05 41.05 C 384.93 40.33 384.81 39.62 384.70 38.90 C 390.00 38.10 395.30 37.33 400.66 37.02 C 399.85 36.37 399.05 35.71 398.25 35.07 C 403.16 34.54 408.11 33.94 412.81 32.30 C 418.02 30.47 423.53 29.79 428.96 28.94 C 428.87 28.27 428.77 27.60 428.69 26.93 C 433.54 26.38 438.36 25.58 443.20 24.97 C 443.01 24.39 442.82 23.82 442.63 23.25 C 450.69 23.25 457.93 18.79 466.00 19.13 C 469.81 19.17 473.91 19.15 477.27 21.21 C 481.65 23.70 484.04 28.40 488.00 31.39 C 488.75 34.82 489.26 38.30 489.48 41.80 C 489.95 40.89 490.45 39.99 490.94 39.08 C 491.85 44.14 491.80 49.49 493.79 54.29 C 496.36 58.87 502.30 57.37 506.50 56.56 C 506.77 51.12 507.19 45.52 505.52 40.24 C 503.22 33.45 502.46 25.91 497.84 20.13 C 493.14 12.66 485.38 7.75 477.18 4.93 C 472.15 3.58 466.90 3.41 461.73 3.10 Z" />
<path fill="#1e479c" opacity="1.00" d=" M 453.70 6.48 C 461.17 3.57 469.37 4.45 477.18 4.93 C 485.38 7.75 493.14 12.66 497.84 20.13 C 502.46 25.91 503.22 33.45 505.52 40.24 C 507.19 45.52 506.77 51.12 506.50 56.56 C 502.30 57.37 496.36 58.87 493.79 54.29 C 491.80 49.49 491.85 44.14 490.94 39.08 C 490.45 39.99 489.95 40.89 489.48 41.80 C 489.26 38.30 488.75 34.82 488.00 31.39 C 484.04 28.40 481.65 23.70 477.27 21.21 C 473.91 19.15 469.81 19.17 466.00 19.13 C 457.93 18.79 450.69 23.25 442.63 23.25 C 442.82 23.82 443.01 24.39 443.20 24.97 C 438.36 25.58 433.54 26.38 428.69 26.93 C 428.77 27.60 428.87 28.27 428.96 28.94 C 423.53 29.79 418.02 30.47 412.81 32.30 C 408.11 33.94 403.16 34.54 398.25 35.07 C 399.05 35.71 399.85 36.37 400.66 37.02 C 395.30 37.33 390.00 38.10 384.70 38.90 C 384.81 39.62 384.93 40.33 385.05 41.05 C 379.74 41.43 374.48 42.22 369.24 43.09 C 370.04 43.73 370.85 44.37 371.67 45.01 C 366.10 45.27 360.59 46.10 355.14 47.25 C 356.01 47.83 356.88 48.41 357.76 48.98 C 352.56 49.12 347.23 49.37 342.38 51.45 C 338.03 53.32 333.29 53.76 328.63 54.16 C 328.83 54.77 329.04 55.39 329.25 56.00 C 324.30 56.44 319.26 56.88 314.65 58.84 C 311.26 60.32 307.56 60.71 303.97 61.43 C 301.18 61.98 298.86 63.82 296.08 64.39 C 292.46 65.12 288.78 65.47 285.14 66.06 C 285.97 66.70 286.81 67.33 287.65 67.96 C 281.77 68.19 275.94 69.02 270.16 70.02 C 270.99 70.67 271.83 71.33 272.67 71.98 C 267.46 72.19 262.10 72.39 257.26 74.52 C 253.24 76.34 248.82 76.74 244.47 76.99 C 244.75 77.67 245.03 78.34 245.31 79.02 C 239.80 79.42 234.20 79.93 229.03 82.01 C 224.55 83.78 219.77 84.50 215.02 85.10 C 214.99 85.68 214.96 86.25 214.94 86.83 C 210.17 87.48 205.42 88.21 200.66 88.92 C 200.80 89.63 200.95 90.34 201.10 91.04 C 195.78 91.40 190.50 92.20 185.24 93.10 C 186.05 93.73 186.85 94.36 187.66 94.99 C 183.22 95.33 178.53 95.03 174.40 97.00 C 168.77 100.16 161.97 99.27 156.15 101.99 C 147.41 104.16 138.84 107.36 129.78 107.99 C 129.87 108.65 129.97 109.32 130.06 109.99 C 125.78 110.33 121.48 110.94 117.49 112.60 C 111.95 114.91 105.89 115.17 100.06 116.28 C 101.30 116.83 102.56 117.38 103.82 117.91 C 97.87 118.15 91.97 118.98 86.13 120.04 C 86.97 120.63 87.81 121.22 88.66 121.80 C 82.77 122.17 76.73 122.52 71.32 125.12 C 62.87 127.52 54.45 130.44 45.60 130.88 C 45.79 131.59 45.98 132.30 46.17 133.01 C 40.44 133.52 34.24 133.68 29.44 137.28 C 25.28 140.33 20.75 143.56 18.59 148.42 C 15.84 156.96 18.40 165.92 19.96 174.43 C 20.65 174.20 21.34 173.97 22.03 173.75 C 22.23 178.43 22.16 183.32 24.33 187.61 C 26.51 192.04 26.43 197.13 28.13 201.73 C 29.87 206.42 30.43 211.42 30.89 216.37 C 31.53 216.21 32.17 216.05 32.81 215.90 C 33.46 221.02 34.22 226.13 34.97 231.25 C 35.62 231.16 36.26 231.07 36.91 230.98 C 37.31 235.22 37.36 239.67 39.47 243.49 C 42.29 248.22 41.00 254.07 43.31 258.98 C 45.76 264.28 46.23 270.16 47.10 275.86 C 47.72 275.00 48.34 274.14 48.96 273.28 C 48.46 283.29 53.63 292.33 54.00 302.23 C 54.69 302.06 55.37 301.89 56.06 301.73 C 56.15 307.87 58.00 313.72 59.93 319.48 C 61.19 325.79 64.15 331.64 64.76 338.09 C 65.00 341.15 66.75 343.73 67.75 346.55 C 70.54 361.97 75.82 376.79 79.45 392.04 C 80.09 395.34 80.73 398.68 82.00 401.82 C 83.84 406.48 83.94 411.63 85.80 416.30 C 87.75 421.23 88.39 426.53 89.10 431.75 C 89.72 430.95 90.33 430.16 90.95 429.37 C 91.22 434.95 92.01 440.48 93.10 445.96 C 93.58 445.02 94.05 444.09 94.52 443.16 C 94.51 447.67 94.93 452.54 97.95 456.14 C 101.22 460.18 104.93 464.51 110.05 466.13 C 117.44 467.44 125.01 466.41 132.34 465.12 C 132.23 464.42 132.13 463.73 132.03 463.05 C 138.98 462.38 145.96 460.77 152.95 462.08 C 153.18 465.63 154.66 469.97 151.93 472.93 C 148.88 476.30 144.03 476.19 139.91 476.92 C 136.37 477.47 133.48 479.93 129.90 480.34 C 121.50 481.21 112.86 481.97 104.56 479.95 C 100.68 478.57 97.22 476.25 93.79 474.02 C 89.16 470.98 86.31 466.04 83.72 461.30 C 81.47 457.15 81.54 452.20 79.24 448.09 C 76.77 443.71 77.47 438.51 77.01 433.70 C 76.32 433.80 75.63 433.90 74.94 434.00 C 73.76 428.21 72.94 422.36 71.76 416.57 C 71.03 416.76 70.29 416.96 69.56 417.16 C 69.64 412.82 69.39 408.48 68.88 404.16 C 68.10 404.94 67.31 405.72 66.53 406.50 C 66.74 401.11 65.97 395.76 65.12 390.45 C 64.30 390.76 63.48 391.07 62.66 391.39 C 62.68 385.93 61.94 380.52 60.95 375.17 C 60.13 375.93 59.32 376.70 58.52 377.48 C 58.87 371.70 58.02 365.95 56.89 360.29 C 56.14 361.09 55.37 361.88 54.61 362.67 C 54.71 357.93 54.37 353.18 53.83 348.47 C 52.96 348.69 52.09 348.91 51.23 349.14 C 50.82 343.41 50.50 337.59 48.40 332.18 C 46.81 328.03 47.26 323.18 44.63 319.45 C 41.45 315.04 42.78 309.24 41.96 304.17 C 41.20 305.03 40.43 305.88 39.65 306.73 C 39.72 301.24 38.97 295.80 38.23 290.38 C 37.36 291.10 36.48 291.80 35.58 292.49 C 35.87 286.57 35.28 280.60 33.47 274.93 C 33.24 275.36 32.78 276.22 32.55 276.65 C 32.35 276.99 31.94 277.67 31.73 278.01 C 30.69 272.06 30.25 266.05 29.85 260.04 C 29.65 262.13 29.45 264.23 29.18 266.32 C 26.76 259.82 26.18 252.89 26.07 246.01 C 25.67 247.47 25.33 248.94 25.04 250.43 C 23.28 245.68 22.99 240.52 21.12 235.79 C 19.04 230.42 18.61 224.62 17.98 218.95 C 17.96 219.39 17.92 220.27 17.90 220.71 C 16.19 215.37 15.42 209.80 15.05 204.22 C 14.38 205.03 13.71 205.84 13.04 206.66 C 12.62 201.31 11.80 196.00 11.05 190.69 C 10.35 190.83 9.65 190.97 8.95 191.11 C 8.60 186.44 8.01 181.79 7.57 177.14 C 7.10 178.01 6.63 178.88 6.16 179.76 C 5.34 175.48 4.24 171.25 3.62 166.93 C 3.18 159.62 2.61 152.09 4.32 144.90 C 7.79 135.25 15.30 127.14 24.61 122.84 C 30.19 120.13 36.66 120.55 42.35 118.16 C 47.22 116.12 52.52 115.56 57.72 114.93 C 56.94 114.26 56.17 113.59 55.39 112.93 C 59.97 112.60 64.85 112.96 69.05 110.76 C 74.44 107.71 80.86 108.18 86.76 106.93 C 85.97 106.29 85.17 105.66 84.38 105.03 C 91.15 105.20 97.62 103.23 104.05 101.41 C 110.61 100.38 116.48 97.01 123.06 96.08 C 129.29 94.45 135.46 92.48 141.93 91.90 C 141.06 91.38 140.19 90.86 139.32 90.35 C 145.19 89.82 151.01 88.91 156.83 87.97 C 156.01 87.33 155.19 86.69 154.37 86.05 C 160.23 85.74 166.04 84.89 171.82 83.89 C 170.98 83.27 170.14 82.66 169.31 82.05 C 174.86 81.78 180.37 80.96 185.83 79.88 C 184.99 79.26 184.15 78.65 183.32 78.04 C 187.76 77.90 192.26 77.66 196.53 76.29 C 201.83 74.58 207.33 73.61 212.59 71.79 C 217.41 70.16 222.56 69.77 227.30 67.87 C 231.76 66.13 236.55 65.57 241.28 65.05 C 241.10 64.33 240.92 63.60 240.75 62.88 C 244.95 62.61 249.41 62.77 253.18 60.61 C 257.63 57.90 263.16 58.88 267.80 56.69 C 272.35 54.51 277.41 54.21 282.36 53.90 C 282.20 53.33 282.04 52.76 281.88 52.19 C 288.18 51.12 294.52 50.12 300.50 47.81 C 309.26 45.73 317.76 42.41 326.84 41.94 C 325.98 41.32 325.13 40.68 324.29 40.04 C 329.67 39.71 335.00 38.94 340.33 38.09 C 340.18 37.38 340.03 36.67 339.89 35.97 C 345.21 35.59 350.48 34.81 355.74 33.91 C 354.95 33.26 354.17 32.61 353.38 31.97 C 358.76 31.77 364.10 31.04 369.40 30.15 C 369.21 29.42 369.02 28.70 368.84 27.97 C 375.00 28.18 380.85 26.33 386.55 24.24 C 394.59 22.92 402.25 19.87 410.37 19.01 C 410.21 18.35 410.05 17.69 409.89 17.02 C 415.23 16.58 420.52 15.71 425.84 15.03 C 425.08 14.24 424.21 13.56 423.25 13.06 C 428.14 12.73 433.20 12.66 437.74 10.58 C 442.79 8.23 448.53 8.44 453.70 6.48 Z" />
<path fill="#0e2148" opacity="0.47" d=" M 441.45 54.77 C 453.79 52.22 466.05 61.77 469.21 73.45 C 479.50 110.95 489.39 148.53 499.69 186.02 C 500.65 191.44 502.96 196.49 503.90 201.91 C 504.76 206.73 506.90 211.20 507.73 216.03 C 508.55 220.83 510.79 225.23 511.61 230.03 C 512.52 235.49 514.92 240.56 515.75 246.03 C 516.51 249.38 517.10 253.29 520.00 255.52 C 525.56 254.02 530.67 251.27 536.06 249.29 C 538.39 248.27 541.30 247.52 542.39 244.95 C 541.28 237.01 538.32 229.49 536.52 221.72 C 525.90 182.27 515.13 142.89 504.65 103.42 C 502.53 97.42 500.59 90.99 501.74 84.57 C 502.30 81.59 505.04 79.33 508.07 79.27 C 511.41 79.08 515.88 78.69 517.95 81.94 C 522.11 89.69 522.99 98.59 525.88 106.80 C 527.47 114.43 530.24 121.73 531.63 129.40 C 534.00 135.37 534.80 141.78 536.94 147.82 C 542.27 168.00 547.60 188.19 553.31 208.26 C 554.24 214.64 557.08 220.52 558.05 226.90 C 561.14 237.32 564.00 247.82 566.51 258.41 C 567.69 262.54 569.52 266.58 569.50 270.96 C 569.66 280.31 569.63 289.67 569.51 299.03 C 569.48 305.42 566.67 311.30 565.00 317.35 C 561.49 326.52 557.22 335.48 551.38 343.41 C 547.40 348.71 544.08 354.61 539.00 359.00 C 526.55 369.43 512.60 378.70 496.66 382.71 C 490.49 385.34 483.72 385.86 477.48 388.30 C 457.25 393.51 437.12 399.14 416.95 404.61 C 411.18 405.54 405.92 408.34 400.09 409.01 C 368.15 418.19 335.83 426.30 303.86 435.41 C 298.67 436.04 293.98 438.51 288.88 439.49 C 282.82 440.49 277.23 443.26 271.11 444.05 C 259.10 447.88 246.71 450.40 234.70 454.23 C 227.53 455.37 220.88 458.44 213.73 459.68 C 207.16 462.14 200.11 462.84 193.59 465.44 C 189.09 466.99 184.13 467.09 179.47 466.31 C 173.62 463.52 172.88 454.79 177.42 450.48 C 182.63 447.16 188.80 445.99 194.74 444.70 C 205.50 441.16 216.63 438.95 227.44 435.59 C 259.51 427.02 291.49 418.17 323.58 409.64 C 329.91 407.40 336.62 406.57 342.93 404.23 C 348.50 403.18 353.81 401.20 359.26 399.71 C 365.35 398.91 370.92 396.12 376.96 395.14 C 397.38 389.44 417.88 383.98 438.33 378.42 C 443.91 376.33 449.96 375.94 455.49 373.66 C 461.02 371.55 468.55 372.31 472.22 366.93 C 471.25 359.85 471.95 352.44 469.54 345.63 C 468.61 342.42 464.68 343.49 462.37 344.27 C 455.91 346.83 449.02 347.91 442.45 350.08 C 435.10 351.57 428.11 354.33 420.73 355.68 C 414.02 358.34 406.77 359.06 400.06 361.73 C 394.71 362.79 389.50 364.31 384.31 365.95 C 377.44 367.03 371.09 370.02 364.23 371.16 C 357.09 373.33 349.79 374.92 342.69 377.22 C 335.49 378.42 328.79 381.45 321.59 382.66 C 315.32 385.08 308.61 385.86 302.29 388.12 C 282.48 393.42 262.66 398.66 243.04 404.61 C 236.96 405.44 231.34 408.03 225.34 409.14 C 221.14 409.98 217.25 412.00 212.98 412.51 C 206.79 413.20 201.15 416.10 194.99 416.98 C 179.90 421.44 164.67 425.44 149.46 429.44 C 144.46 431.70 138.83 432.31 133.45 431.26 C 124.68 428.55 117.08 421.58 114.86 412.49 C 94.81 338.40 74.84 264.32 54.84 190.22 C 52.73 184.26 51.83 177.60 53.74 171.47 C 56.43 164.57 61.86 158.57 68.90 155.98 C 74.33 153.44 80.45 153.18 86.02 151.04 C 90.58 149.32 95.56 149.09 100.08 147.21 C 104.64 145.40 109.64 145.16 114.21 143.37 C 119.04 141.54 124.28 141.20 129.11 139.33 C 171.12 127.98 213.05 116.50 255.07 105.18 C 259.95 103.39 265.20 102.98 270.04 101.07 C 274.59 99.30 279.56 99.09 284.09 97.23 C 289.68 95.21 295.71 94.78 301.24 92.49 C 308.55 91.10 315.45 88.21 322.77 86.86 C 339.88 81.91 357.14 77.64 374.25 72.69 C 380.02 71.86 385.30 69.18 391.06 68.32 C 396.17 67.43 400.86 64.94 406.02 64.22 C 417.83 61.06 429.53 57.51 441.45 54.77 M 429.28 59.33 C 430.14 59.78 430.99 60.23 431.84 60.68 C 426.07 62.04 420.18 62.71 414.28 63.16 C 415.17 63.71 416.05 64.27 416.94 64.82 C 411.44 65.95 405.86 66.62 400.28 67.21 C 401.15 67.68 402.02 68.16 402.90 68.64 C 399.48 69.14 396.01 69.28 392.64 70.04 C 389.07 71.18 385.91 73.57 382.04 73.70 C 376.48 74.01 371.68 77.26 366.13 77.58 C 361.47 77.84 357.69 81.16 353.04 81.42 C 350.14 81.72 347.23 82.01 344.33 82.27 C 345.18 82.79 346.02 83.32 346.87 83.84 C 340.34 85.09 333.74 85.89 327.26 87.39 C 328.15 87.75 329.04 88.11 329.94 88.48 C 325.07 89.11 320.19 89.68 315.31 90.19 C 316.16 90.69 316.99 91.20 317.84 91.71 C 312.05 92.92 306.18 93.67 300.29 94.18 C 301.16 94.68 302.03 95.17 302.90 95.66 C 297.80 96.72 292.64 97.46 287.51 98.32 C 287.88 98.79 288.25 99.26 288.62 99.73 C 286.41 99.97 284.20 100.21 281.99 100.47 C 277.38 100.73 273.64 104.06 269.00 104.26 C 265.59 104.91 260.92 103.85 258.90 107.44 C 254.40 108.39 249.82 108.90 245.25 109.41 C 246.11 109.83 246.97 110.26 247.84 110.68 C 242.19 111.94 236.43 112.49 230.76 113.60 C 230.60 114.24 230.45 114.88 230.30 115.52 C 225.63 116.09 220.97 116.67 216.30 117.20 C 217.13 117.70 217.97 118.21 218.80 118.73 C 215.20 119.42 211.54 119.80 207.93 120.41 C 204.46 120.90 201.56 123.36 197.99 123.42 C 194.76 123.63 191.58 124.26 188.50 125.23 C 188.86 125.71 189.22 126.18 189.58 126.66 C 184.70 127.35 179.55 127.28 175.10 129.69 C 171.32 131.68 166.77 130.93 163.01 132.95 C 157.97 135.69 152.08 135.40 146.55 136.12 C 146.90 136.75 147.25 137.38 147.61 138.02 C 142.61 138.85 137.61 139.58 132.58 140.14 C 132.87 140.72 133.17 141.31 133.47 141.89 C 129.76 142.52 126.01 142.89 122.34 143.68 C 119.75 144.26 117.56 145.92 114.97 146.47 C 111.18 147.24 107.33 147.54 103.50 148.00 C 103.86 148.59 104.21 149.18 104.57 149.78 C 101.70 150.10 98.82 150.31 95.95 150.63 C 92.56 150.94 90.04 153.65 86.77 154.34 C 82.92 155.06 79.00 155.39 75.09 155.41 C 76.05 155.80 77.01 156.19 77.98 156.58 C 74.90 157.11 71.77 157.36 68.76 158.20 C 58.50 162.30 52.67 174.94 56.50 185.38 C 58.51 190.61 58.76 196.27 59.40 201.77 C 59.86 200.86 60.33 199.95 60.80 199.05 C 61.93 204.47 62.61 209.97 63.30 215.46 C 63.87 215.09 64.44 214.72 65.01 214.35 C 65.84 219.80 66.65 225.26 67.21 230.75 C 67.68 229.84 68.15 228.95 68.63 228.05 C 69.27 232.29 69.16 236.79 71.14 240.71 C 73.82 245.98 73.66 252.03 74.32 257.76 C 74.81 256.86 75.31 255.95 75.80 255.05 C 77.21 260.69 77.56 266.52 78.61 272.24 C 79.27 272.38 79.94 272.54 80.60 272.69 C 81.39 277.15 80.89 282.07 83.44 286.03 C 85.85 289.91 84.60 294.87 86.78 298.83 C 89.67 303.89 89.29 309.94 90.32 315.52 C 90.86 315.10 91.39 314.68 91.93 314.27 C 92.25 317.09 92.37 319.93 92.79 322.74 C 93.39 326.67 95.77 330.07 96.28 334.03 C 96.64 336.59 97.02 339.20 98.36 341.46 C 101.15 346.40 100.45 352.29 101.16 357.72 C 101.70 356.82 102.25 355.94 102.80 355.05 C 103.70 358.68 104.16 362.38 104.60 366.08 C 104.90 368.70 107.07 370.60 107.51 373.19 C 108.41 377.67 108.91 382.24 109.41 386.79 C 109.87 385.87 110.34 384.96 110.81 384.05 C 111.50 387.66 111.92 391.30 112.50 394.92 C 112.86 398.17 115.34 400.69 115.65 403.95 C 116.34 408.39 116.41 413.18 119.19 416.96 C 122.31 421.24 125.31 426.76 131.10 427.59 C 140.37 430.55 149.50 425.81 158.79 425.58 C 157.87 425.12 156.96 424.66 156.05 424.22 C 161.51 422.91 167.11 422.33 172.70 421.83 C 171.86 421.31 171.03 420.80 170.20 420.30 C 175.55 419.15 180.97 418.38 186.43 418.02 C 186.11 417.33 185.79 416.64 185.48 415.96 C 188.98 415.47 192.48 415.07 195.97 414.50 C 199.50 414.00 202.30 411.27 205.95 411.20 C 211.73 410.91 216.90 408.10 222.54 407.16 C 227.46 406.29 231.91 403.64 236.98 403.39 C 240.59 403.23 243.38 400.56 246.87 399.94 C 249.39 399.46 252.00 399.63 254.50 399.03 C 257.34 398.02 259.85 396.05 262.94 395.76 C 266.20 395.33 269.48 395.02 272.76 394.69 C 271.85 394.19 270.95 393.67 270.05 393.17 C 275.55 392.04 281.12 391.37 286.70 390.81 C 285.86 390.30 285.03 389.79 284.19 389.29 C 289.57 388.26 294.99 387.45 300.45 387.03 C 300.10 386.33 299.76 385.63 299.42 384.93 C 304.37 384.35 309.51 384.21 314.09 382.02 C 318.30 380.06 323.07 380.06 327.40 378.45 C 332.30 376.62 337.53 376.14 342.70 375.66 C 341.83 375.16 340.96 374.65 340.11 374.16 C 345.92 372.93 351.83 372.21 357.75 371.69 C 356.84 371.19 355.94 370.69 355.04 370.20 C 360.52 368.92 366.12 368.34 371.71 367.80 C 370.86 367.33 370.01 366.85 369.18 366.38 C 374.52 365.18 379.96 364.41 385.43 364.00 C 385.09 363.32 384.75 362.63 384.42 361.95 C 393.14 361.48 401.30 358.30 409.77 356.56 C 415.44 354.06 421.58 353.23 427.70 352.76 C 426.83 352.23 425.95 351.71 425.09 351.19 C 430.55 349.83 436.16 349.28 441.77 348.98 C 440.86 348.46 440.00 347.88 439.17 347.25 C 444.98 346.03 450.87 345.30 456.77 344.79 C 455.87 344.33 454.97 343.88 454.07 343.43 C 458.72 342.72 463.33 341.55 468.04 341.41 C 469.87 341.28 472.31 342.16 472.46 344.27 C 473.77 350.53 473.00 357.00 474.20 363.28 C 474.54 365.90 475.32 369.05 473.13 371.11 C 469.31 375.29 462.75 372.99 458.17 375.78 C 454.04 378.31 448.89 377.49 444.57 379.54 C 439.80 381.83 434.42 381.60 429.28 382.20 C 430.12 382.67 430.95 383.17 431.78 383.68 C 426.02 385.07 420.13 385.81 414.24 386.31 C 415.13 386.82 416.03 387.33 416.94 387.84 C 413.62 388.53 410.27 389.02 406.92 389.47 C 403.02 389.76 399.96 392.71 396.06 393.02 C 392.34 393.91 387.24 392.56 384.87 396.38 C 380.18 397.11 375.45 397.64 370.78 398.51 C 370.67 399.13 370.57 399.76 370.47 400.40 C 366.14 400.89 361.83 401.53 357.50 402.02 C 357.86 402.60 358.23 403.19 358.60 403.78 C 356.09 404.05 353.57 404.27 351.06 404.60 C 347.51 405.01 344.57 407.37 341.07 408.01 C 337.73 408.65 334.09 408.25 331.08 410.11 C 326.33 413.00 320.58 412.45 315.29 413.19 C 316.12 413.68 316.96 414.18 317.80 414.70 C 312.04 416.04 306.16 416.73 300.27 417.15 C 301.15 417.72 302.03 418.28 302.93 418.84 C 297.83 419.82 292.69 420.53 287.55 421.26 C 287.86 421.80 288.18 422.35 288.50 422.90 C 284.68 423.51 280.83 423.84 277.04 424.56 C 274.75 424.96 272.96 426.61 270.78 427.29 C 267.05 428.11 263.00 427.84 259.56 429.71 C 255.50 432.12 250.38 430.71 246.38 433.25 C 242.69 435.49 238.31 435.50 234.14 435.73 C 229.23 440.62 221.55 439.06 215.28 440.16 C 216.17 440.71 217.05 441.27 217.94 441.83 C 212.45 443.05 206.87 443.72 201.26 443.99 C 202.12 444.57 202.99 445.16 203.86 445.75 C 198.69 446.91 193.19 446.80 188.30 449.04 C 185.22 450.39 181.81 450.58 178.66 451.70 C 176.60 455.07 176.66 459.95 178.57 463.39 C 182.71 465.20 187.73 465.05 191.67 462.78 C 196.04 460.37 201.45 461.63 205.82 459.21 C 207.73 458.16 209.82 457.50 211.98 457.24 C 217.18 456.67 221.79 453.77 227.05 453.52 C 231.36 453.53 234.65 450.15 238.89 449.86 C 241.09 449.52 243.35 449.58 245.53 449.06 C 248.06 448.20 250.26 446.50 252.93 446.00 C 256.08 445.40 259.30 445.32 262.50 445.03 C 262.13 444.40 261.77 443.78 261.42 443.17 C 266.26 442.40 271.53 442.93 275.85 440.22 C 280.07 437.45 285.47 438.53 289.93 436.41 C 294.78 433.83 300.62 434.85 305.53 432.35 C 309.77 430.18 314.89 431.04 318.96 428.46 C 323.42 425.90 328.79 426.58 333.71 425.82 C 332.87 425.31 332.03 424.81 331.20 424.30 C 336.54 423.09 341.96 422.33 347.43 422.02 C 347.10 421.33 346.79 420.65 346.48 419.97 C 351.77 419.11 357.08 418.32 362.44 418.03 C 362.09 417.34 361.74 416.64 361.40 415.96 C 366.42 415.21 371.43 414.43 376.49 413.99 C 376.13 413.39 375.77 412.79 375.42 412.20 C 380.36 411.61 385.53 411.61 390.00 409.13 C 393.93 406.96 398.79 408.16 402.63 405.80 C 405.75 403.88 409.45 403.60 413.02 403.40 C 417.04 403.42 419.98 400.00 423.93 399.69 C 426.76 399.36 429.61 399.24 432.46 399.05 C 432.11 398.35 431.77 397.66 431.43 396.97 C 436.82 395.99 442.25 395.27 447.73 394.98 C 446.87 394.41 446.03 393.83 445.18 393.27 C 450.55 392.20 455.98 391.39 461.45 391.03 C 461.10 390.33 460.77 389.63 460.44 388.94 C 465.81 387.95 471.73 388.46 476.51 385.42 C 480.88 383.49 485.84 383.74 490.48 382.84 C 490.11 382.30 489.75 381.78 489.39 381.26 C 492.68 380.80 496.06 380.74 499.28 379.85 C 513.29 374.62 527.22 367.68 537.35 356.38 C 540.41 352.77 543.61 349.28 546.85 345.84 C 555.16 336.88 559.31 325.13 563.60 313.93 C 565.10 305.66 567.85 297.50 567.48 288.99 C 567.32 280.98 568.12 272.65 565.23 264.99 C 563.56 260.35 563.52 255.38 563.03 250.54 C 562.42 250.84 561.82 251.15 561.23 251.46 C 560.28 246.16 559.49 240.84 558.81 235.51 C 558.28 235.88 557.75 236.26 557.23 236.63 C 556.64 231.25 555.86 225.89 554.92 220.55 C 554.26 220.90 553.61 221.25 552.96 221.60 C 552.60 211.90 547.94 203.03 547.76 193.30 C 547.28 194.14 546.80 194.97 546.32 195.81 C 545.10 191.07 544.68 186.20 544.06 181.37 C 544.01 179.76 542.69 178.79 541.56 177.88 C 540.72 173.48 540.34 169.01 540.04 164.55 C 539.34 164.90 538.64 165.25 537.95 165.61 C 537.21 160.58 536.44 155.56 535.99 150.50 C 535.39 150.86 534.80 151.23 534.22 151.60 C 533.59 147.12 533.74 142.40 531.69 138.25 C 529.19 133.28 529.09 127.62 528.60 122.20 C 528.14 123.11 527.68 124.02 527.23 124.93 C 525.77 119.14 525.15 113.19 524.68 107.25 C 524.20 108.16 523.71 109.06 523.23 109.96 C 521.80 104.48 521.30 98.83 520.80 93.20 C 520.32 94.11 519.85 95.02 519.38 95.93 C 518.62 92.20 518.97 88.13 517.33 84.65 C 514.52 80.73 509.36 81.26 505.24 82.24 C 503.49 86.36 502.94 91.08 505.03 95.20 C 507.82 100.63 507.60 106.81 508.16 112.72 C 508.69 111.82 509.24 110.93 509.80 110.05 C 511.09 115.44 511.70 120.95 512.31 126.45 C 512.86 126.08 513.42 125.70 513.99 125.33 C 515.07 130.74 515.76 136.21 516.16 141.71 C 516.71 140.83 517.27 139.96 517.84 139.09 C 518.90 144.65 519.15 150.44 521.40 155.72 C 523.15 159.90 522.92 164.65 524.98 168.72 C 527.41 173.15 525.56 178.70 528.60 182.91 C 530.98 186.34 529.83 190.81 531.65 194.43 C 535.08 200.66 534.45 208.04 536.38 214.74 C 536.73 213.85 537.09 212.95 537.46 212.06 C 538.16 216.94 538.78 221.84 539.31 226.74 C 539.82 225.85 540.33 224.97 540.86 224.09 C 541.75 229.23 542.20 234.47 543.73 239.48 C 544.43 242.10 545.53 245.16 543.88 247.66 C 542.16 251.19 537.66 250.66 534.57 252.13 C 530.39 254.00 526.21 255.84 521.88 257.31 C 519.43 258.24 516.12 257.73 514.93 255.15 C 513.17 250.36 514.55 244.79 511.73 240.35 C 509.75 236.74 509.87 232.46 508.40 228.66 C 507.08 225.30 506.53 221.72 506.21 218.14 C 505.86 214.86 503.33 212.35 502.80 209.12 C 502.31 205.96 502.24 202.76 502.08 199.57 C 501.31 199.82 500.61 200.18 499.96 200.65 C 498.66 195.35 499.36 189.48 496.42 184.68 C 494.32 180.29 494.56 175.29 493.88 170.58 C 493.24 170.90 492.60 171.22 491.98 171.54 C 491.16 166.23 490.34 160.91 490.03 155.54 C 489.34 155.89 488.65 156.25 487.96 156.60 C 487.27 152.21 486.51 147.80 486.57 143.34 C 486.16 143.77 485.75 144.21 485.36 144.64 C 483.16 139.05 483.24 132.88 480.88 127.34 C 479.09 123.50 480.28 118.87 477.99 115.24 C 475.08 110.56 475.60 104.78 474.71 99.53 C 474.14 99.90 473.58 100.26 473.02 100.63 C 471.99 95.22 471.23 89.76 470.67 84.28 C 470.21 85.13 469.75 85.98 469.29 86.83 C 467.45 80.20 468.56 72.55 464.03 66.87 C 461.21 63.20 457.99 58.90 453.04 58.30 C 445.14 56.55 437.17 58.57 429.28 59.33 Z" />
<path fill="#1e479c" opacity="1.00" d=" M 429.28 59.33 C 437.17 58.57 445.14 56.55 453.04 58.30 C 457.99 58.90 461.21 63.20 464.03 66.87 C 468.56 72.55 467.45 80.20 469.29 86.83 C 469.75 85.98 470.21 85.13 470.67 84.28 C 471.23 89.76 471.99 95.22 473.02 100.63 C 473.58 100.26 474.14 99.90 474.71 99.53 C 475.60 104.78 475.08 110.56 477.99 115.24 C 480.28 118.87 479.09 123.50 480.88 127.34 C 483.24 132.88 483.16 139.05 485.36 144.64 C 485.75 144.21 486.16 143.77 486.57 143.34 C 486.51 147.80 487.27 152.21 487.96 156.60 C 488.65 156.25 489.34 155.89 490.03 155.54 C 490.34 160.91 491.16 166.23 491.98 171.54 C 492.60 171.22 493.24 170.90 493.88 170.58 C 494.56 175.29 494.32 180.29 496.42 184.68 C 499.36 189.48 498.66 195.35 499.96 200.65 C 500.61 200.18 501.31 199.82 502.08 199.57 C 502.24 202.76 502.31 205.96 502.80 209.12 C 503.33 212.35 505.86 214.86 506.21 218.14 C 506.53 221.72 507.08 225.30 508.40 228.66 C 509.87 232.46 509.75 236.74 511.73 240.35 C 514.55 244.79 513.17 250.36 514.93 255.15 C 516.12 257.73 519.43 258.24 521.88 257.31 C 526.21 255.84 530.39 254.00 534.57 252.13 C 537.66 250.66 542.16 251.19 543.88 247.66 C 545.53 245.16 544.43 242.10 543.73 239.48 C 542.20 234.47 541.75 229.23 540.86 224.09 C 540.33 224.97 539.82 225.85 539.31 226.74 C 538.78 221.84 538.16 216.94 537.46 212.06 C 537.09 212.95 536.73 213.85 536.38 214.74 C 534.45 208.04 535.08 200.66 531.65 194.43 C 529.83 190.81 530.98 186.34 528.60 182.91 C 525.56 178.70 527.41 173.15 524.98 168.72 C 522.92 164.65 523.15 159.90 521.40 155.72 C 519.15 150.44 518.90 144.65 517.84 139.09 C 517.27 139.96 516.71 140.83 516.16 141.71 C 515.76 136.21 515.07 130.74 513.99 125.33 C 513.42 125.70 512.86 126.08 512.31 126.45 C 511.70 120.95 511.09 115.44 509.80 110.05 C 509.24 110.93 508.69 111.82 508.16 112.72 C 507.60 106.81 507.82 100.63 505.03 95.20 C 502.94 91.08 503.49 86.36 505.24 82.24 C 509.36 81.26 514.52 80.73 517.33 84.65 C 518.97 88.13 518.62 92.20 519.38 95.93 C 519.85 95.02 520.32 94.11 520.80 93.20 C 521.30 98.83 521.80 104.48 523.23 109.96 C 523.71 109.06 524.20 108.16 524.68 107.25 C 525.15 113.19 525.77 119.14 527.23 124.93 C 527.68 124.02 528.14 123.11 528.60 122.20 C 529.09 127.62 529.19 133.28 531.69 138.25 C 533.74 142.40 533.59 147.12 534.22 151.60 C 534.80 151.23 535.39 150.86 535.99 150.50 C 536.44 155.56 537.21 160.58 537.95 165.61 C 538.64 165.25 539.34 164.90 540.04 164.55 C 540.34 169.01 540.72 173.48 541.56 177.88 C 542.69 178.79 544.01 179.76 544.06 181.37 C 544.68 186.20 545.10 191.07 546.32 195.81 C 546.80 194.97 547.28 194.14 547.76 193.30 C 547.94 203.03 552.60 211.90 552.96 221.60 C 553.61 221.25 554.26 220.90 554.92 220.55 C 555.86 225.89 556.64 231.25 557.23 236.63 C 557.75 236.26 558.28 235.88 558.81 235.51 C 559.49 240.84 560.28 246.16 561.23 251.46 C 561.82 251.15 562.42 250.84 563.03 250.54 C 563.52 255.38 563.56 260.35 565.23 264.99 C 568.12 272.65 567.32 280.98 567.48 288.99 C 567.85 297.50 565.10 305.66 563.60 313.93 C 559.31 325.13 555.16 336.88 546.85 345.84 C 543.61 349.28 540.41 352.77 537.35 356.38 C 527.22 367.68 513.29 374.62 499.28 379.85 C 496.06 380.74 492.68 380.80 489.39 381.26 C 489.75 381.78 490.11 382.30 490.48 382.84 C 485.84 383.74 480.88 383.49 476.51 385.42 C 471.73 388.46 465.81 387.95 460.44 388.94 C 460.77 389.63 461.10 390.33 461.45 391.03 C 455.98 391.39 450.55 392.20 445.18 393.27 C 446.03 393.83 446.87 394.41 447.73 394.98 C 442.25 395.27 436.82 395.99 431.43 396.97 C 431.77 397.66 432.11 398.35 432.46 399.05 C 429.61 399.24 426.76 399.36 423.93 399.69 C 419.98 400.00 417.04 403.42 413.02 403.40 C 409.45 403.60 405.75 403.88 402.63 405.80 C 398.79 408.16 393.93 406.96 390.00 409.13 C 385.53 411.61 380.36 411.61 375.42 412.20 C 375.77 412.79 376.13 413.39 376.49 413.99 C 371.43 414.43 366.42 415.21 361.40 415.96 C 361.74 416.64 362.09 417.34 362.44 418.03 C 357.08 418.32 351.77 419.11 346.48 419.97 C 346.79 420.65 347.10 421.33 347.43 422.02 C 341.96 422.33 336.54 423.09 331.20 424.30 C 332.03 424.81 332.87 425.31 333.71 425.82 C 328.79 426.58 323.42 425.90 318.96 428.46 C 314.89 431.04 309.77 430.18 305.53 432.35 C 300.62 434.85 294.78 433.83 289.93 436.41 C 285.47 438.53 280.07 437.45 275.85 440.22 C 271.53 442.93 266.26 442.40 261.42 443.17 C 261.77 443.78 262.13 444.40 262.50 445.03 C 259.30 445.32 256.08 445.40 252.93 446.00 C 250.26 446.50 248.06 448.20 245.53 449.06 C 243.35 449.58 241.09 449.52 238.89 449.86 C 234.65 450.15 231.36 453.53 227.05 453.52 C 221.79 453.77 217.18 456.67 211.98 457.24 C 209.82 457.50 207.73 458.16 205.82 459.21 C 201.45 461.63 196.04 460.37 191.67 462.78 C 187.73 465.05 182.71 465.20 178.57 463.39 C 176.66 459.95 176.60 455.07 178.66 451.70 C 181.81 450.58 185.22 450.39 188.30 449.04 C 193.19 446.80 198.69 446.91 203.86 445.75 C 202.99 445.16 202.12 444.57 201.26 443.99 C 206.87 443.72 212.45 443.05 217.94 441.83 C 217.05 441.27 216.17 440.71 215.28 440.16 C 221.55 439.06 229.23 440.62 234.14 435.73 C 238.31 435.50 242.69 435.49 246.38 433.25 C 250.38 430.71 255.50 432.12 259.56 429.71 C 263.00 427.84 267.05 428.11 270.78 427.29 C 272.96 426.61 274.75 424.96 277.04 424.56 C 280.83 423.84 284.68 423.51 288.50 422.90 C 288.18 422.35 287.86 421.80 287.55 421.26 C 292.69 420.53 297.83 419.82 302.93 418.84 C 302.03 418.28 301.15 417.72 300.27 417.15 C 306.16 416.73 312.04 416.04 317.80 414.70 C 316.96 414.18 316.12 413.68 315.29 413.19 C 320.58 412.45 326.33 413.00 331.08 410.11 C 334.09 408.25 337.73 408.65 341.07 408.01 C 344.57 407.37 347.51 405.01 351.06 404.60 C 353.57 404.27 356.09 404.05 358.60 403.78 C 358.23 403.19 357.86 402.60 357.50 402.02 C 361.83 401.53 366.14 400.89 370.47 400.40 C 370.57 399.76 370.67 399.13 370.78 398.51 C 375.45 397.64 380.18 397.11 384.87 396.38 C 387.24 392.56 392.34 393.91 396.06 393.02 C 399.96 392.71 403.02 389.76 406.92 389.47 C 410.27 389.02 413.62 388.53 416.94 387.84 C 416.03 387.33 415.13 386.82 414.24 386.31 C 420.13 385.81 426.02 385.07 431.78 383.68 C 430.95 383.17 430.12 382.67 429.28 382.20 C 434.42 381.60 439.80 381.83 444.57 379.54 C 448.89 377.49 454.04 378.31 458.17 375.78 C 462.75 372.99 469.31 375.29 473.13 371.11 C 475.32 369.05 474.54 365.90 474.20 363.28 C 473.00 357.00 473.77 350.53 472.46 344.27 C 472.31 342.16 469.87 341.28 468.04 341.41 C 463.33 341.55 458.72 342.72 454.07 343.43 C 454.97 343.88 455.87 344.33 456.77 344.79 C 450.87 345.30 444.98 346.03 439.17 347.25 C 440.00 347.88 440.86 348.46 441.77 348.98 C 436.16 349.28 430.55 349.83 425.09 351.19 C 425.95 351.71 426.83 352.23 427.70 352.76 C 421.58 353.23 415.44 354.06 409.77 356.56 C 401.30 358.30 393.14 361.48 384.42 361.95 C 384.75 362.63 385.09 363.32 385.43 364.00 C 379.96 364.41 374.52 365.18 369.18 366.38 C 370.01 366.85 370.86 367.33 371.71 367.80 C 366.12 368.34 360.52 368.92 355.04 370.20 C 355.94 370.69 356.84 371.19 357.75 371.69 C 351.83 372.21 345.92 372.93 340.11 374.16 C 340.96 374.65 341.83 375.16 342.70 375.66 C 337.53 376.14 332.30 376.62 327.40 378.45 C 323.07 380.06 318.30 380.06 314.09 382.02 C 309.51 384.21 304.37 384.35 299.42 384.93 C 299.76 385.63 300.10 386.33 300.45 387.03 C 294.99 387.45 289.57 388.26 284.19 389.29 C 285.03 389.79 285.86 390.30 286.70 390.81 C 281.12 391.37 275.55 392.04 270.05 393.17 C 270.95 393.67 271.85 394.19 272.76 394.69 C 269.48 395.02 266.20 395.33 262.94 395.76 C 259.85 396.05 257.34 398.02 254.50 399.03 C 252.00 399.63 249.39 399.46 246.87 399.94 C 243.38 400.56 240.59 403.23 236.98 403.39 C 231.91 403.64 227.46 406.29 222.54 407.16 C 216.90 408.10 211.73 410.91 205.95 411.20 C 202.30 411.27 199.50 414.00 195.97 414.50 C 192.48 415.07 188.98 415.47 185.48 415.96 C 185.79 416.64 186.11 417.33 186.43 418.02 C 180.97 418.38 175.55 419.15 170.20 420.30 C 171.03 420.80 171.86 421.31 172.70 421.83 C 167.11 422.33 161.51 422.91 156.05 424.22 C 156.96 424.66 157.87 425.12 158.79 425.58 C 149.50 425.81 140.37 430.55 131.10 427.59 C 125.31 426.76 122.31 421.24 119.19 416.96 C 116.41 413.18 116.34 408.39 115.65 403.95 C 115.34 400.69 112.86 398.17 112.50 394.92 C 111.92 391.30 111.50 387.66 110.81 384.05 C 110.34 384.96 109.87 385.87 109.41 386.79 C 108.91 382.24 108.41 377.67 107.51 373.19 C 107.07 370.60 104.90 368.70 104.60 366.08 C 104.16 362.38 103.70 358.68 102.80 355.05 C 102.25 355.94 101.70 356.82 101.16 357.72 C 100.45 352.29 101.15 346.40 98.36 341.46 C 97.02 339.20 96.64 336.59 96.28 334.03 C 95.77 330.07 93.39 326.67 92.79 322.74 C 92.37 319.93 92.25 317.09 91.93 314.27 C 91.39 314.68 90.86 315.10 90.32 315.52 C 89.29 309.94 89.67 303.89 86.78 298.83 C 84.60 294.87 85.85 289.91 83.44 286.03 C 80.89 282.07 81.39 277.15 80.60 272.69 C 79.94 272.54 79.27 272.38 78.61 272.24 C 77.56 266.52 77.21 260.69 75.80 255.05 C 75.31 255.95 74.81 256.86 74.32 257.76 C 73.66 252.03 73.82 245.98 71.14 240.71 C 69.16 236.79 69.27 232.29 68.63 228.05 C 68.15 228.95 67.68 229.84 67.21 230.75 C 66.65 225.26 65.84 219.80 65.01 214.35 C 64.44 214.72 63.87 215.09 63.30 215.46 C 62.61 209.97 61.93 204.47 60.80 199.05 C 60.33 199.95 59.86 200.86 59.40 201.77 C 58.76 196.27 58.51 190.61 56.50 185.38 C 52.67 174.94 58.50 162.30 68.76 158.20 C 71.77 157.36 74.90 157.11 77.98 156.58 C 77.01 156.19 76.05 155.80 75.09 155.41 C 79.00 155.39 82.92 155.06 86.77 154.34 C 90.04 153.65 92.56 150.94 95.95 150.63 C 98.82 150.31 101.70 150.10 104.57 149.78 C 104.21 149.18 103.86 148.59 103.50 148.00 C 107.33 147.54 111.18 147.24 114.97 146.47 C 117.56 145.92 119.75 144.26 122.34 143.68 C 126.01 142.89 129.76 142.52 133.47 141.89 C 133.17 141.31 132.87 140.72 132.58 140.14 C 137.61 139.58 142.61 138.85 147.61 138.02 C 147.25 137.38 146.90 136.75 146.55 136.12 C 152.08 135.40 157.97 135.69 163.01 132.95 C 166.77 130.93 171.32 131.68 175.10 129.69 C 179.55 127.28 184.70 127.35 189.58 126.66 C 189.22 126.18 188.86 125.71 188.50 125.23 C 191.58 124.26 194.76 123.63 197.99 123.42 C 201.56 123.36 204.46 120.90 207.93 120.41 C 211.54 119.80 215.20 119.42 218.80 118.73 C 217.97 118.21 217.13 117.70 216.30 117.20 C 220.97 116.67 225.63 116.09 230.30 115.52 C 230.45 114.88 230.60 114.24 230.76 113.60 C 236.43 112.49 242.19 111.94 247.84 110.68 C 246.97 110.26 246.11 109.83 245.25 109.41 C 249.82 108.90 254.40 108.39 258.90 107.44 C 260.92 103.85 265.59 104.91 269.00 104.26 C 273.64 104.06 277.38 100.73 281.99 100.47 C 284.20 100.21 286.41 99.97 288.62 99.73 C 288.25 99.26 287.88 98.79 287.51 98.32 C 292.64 97.46 297.80 96.72 302.90 95.66 C 302.03 95.17 301.16 94.68 300.29 94.18 C 306.18 93.67 312.05 92.92 317.84 91.71 C 316.99 91.20 316.16 90.69 315.31 90.19 C 320.19 89.68 325.07 89.11 329.94 88.48 C 329.04 88.11 328.15 87.75 327.26 87.39 C 333.74 85.89 340.34 85.09 346.87 83.84 C 346.02 83.32 345.18 82.79 344.33 82.27 C 347.23 82.01 350.14 81.72 353.04 81.42 C 357.69 81.16 361.47 77.84 366.13 77.58 C 371.68 77.26 376.48 74.01 382.04 73.70 C 385.91 73.57 389.07 71.18 392.64 70.04 C 396.01 69.28 399.48 69.14 402.90 68.64 C 402.02 68.16 401.15 67.68 400.28 67.21 C 405.86 66.62 411.44 65.95 416.94 64.82 C 416.05 64.27 415.17 63.71 414.28 63.16 C 420.18 62.71 426.07 62.04 431.84 60.68 C 430.99 60.23 430.14 59.78 429.28 59.33 M 431.77 75.03 C 428.17 77.33 423.51 75.79 419.84 77.98 C 415.44 80.46 410.06 79.45 405.60 81.71 C 400.91 84.12 395.54 84.22 390.43 84.93 C 390.76 85.63 391.11 86.33 391.45 87.03 C 385.99 87.39 380.56 88.16 375.19 89.26 C 376.02 89.84 376.86 90.42 377.70 90.98 C 372.24 91.28 366.81 91.96 361.44 92.98 C 361.76 93.66 362.09 94.35 362.43 95.03 C 357.18 95.53 351.54 95.17 346.83 97.94 C 344.15 99.60 340.93 99.43 337.93 99.90 C 334.39 100.41 331.41 102.69 327.90 103.30 C 324.98 103.77 322.05 104.06 319.12 104.40 C 319.99 104.85 320.85 105.31 321.73 105.77 C 316.31 106.47 310.91 107.29 305.49 107.97 C 305.79 108.65 306.11 109.33 306.42 110.01 C 301.38 110.42 296.37 111.18 291.38 111.95 C 291.73 112.65 292.09 113.34 292.46 114.04 C 288.62 114.36 284.75 114.49 280.96 115.19 C 277.76 115.62 275.38 118.36 272.10 118.48 C 268.36 118.84 264.66 119.48 261.05 120.51 C 262.31 120.93 263.58 121.34 264.87 121.71 C 258.98 122.10 253.12 122.83 247.34 124.04 C 247.75 124.55 248.16 125.07 248.58 125.59 C 243.11 125.71 237.66 126.56 232.46 128.29 C 232.83 128.71 233.21 129.13 233.58 129.55 C 229.20 129.76 224.85 130.41 220.51 131.10 C 220.82 131.69 221.13 132.28 221.44 132.87 C 217.64 133.43 213.79 133.68 210.03 134.48 C 207.47 135.03 205.39 136.83 202.83 137.35 C 199.94 137.86 197.02 138.15 194.13 138.61 C 193.20 139.71 192.24 141.04 190.65 141.10 C 186.10 141.67 181.51 142.05 177.05 143.20 C 177.94 143.75 178.82 144.30 179.72 144.85 C 175.47 145.26 171.17 145.35 166.96 146.15 C 164.06 146.55 161.91 148.92 159.02 149.33 C 156.24 149.70 153.44 149.95 150.66 150.30 C 150.53 150.98 150.41 151.66 150.28 152.34 C 145.28 153.38 139.93 153.02 135.25 155.30 C 130.92 157.28 126.06 157.28 121.43 157.95 C 121.76 158.58 122.09 159.20 122.42 159.83 C 116.99 160.52 111.57 161.32 106.20 162.40 C 107.04 162.92 107.88 163.44 108.72 163.97 C 103.13 164.33 97.54 164.96 92.06 166.16 C 92.95 166.72 93.84 167.28 94.73 167.84 C 86.87 168.43 78.32 168.76 71.90 173.92 C 69.16 176.63 70.75 180.87 71.20 184.18 C 72.27 188.66 71.78 193.68 74.48 197.63 C 77.00 201.39 76.07 206.19 77.79 210.25 C 79.69 215.18 80.40 220.44 80.90 225.67 C 81.64 225.34 82.34 224.93 82.98 224.42 C 83.33 229.96 84.06 235.47 85.17 240.92 C 85.67 240.03 86.18 239.14 86.68 238.25 C 87.23 244.15 87.98 250.04 89.33 255.82 C 89.78 254.97 90.22 254.12 90.67 253.27 C 91.11 256.88 91.35 260.52 91.93 264.12 C 92.43 267.64 95.56 270.24 95.41 273.93 C 95.43 278.89 98.35 283.15 98.90 288.01 C 99.41 292.55 101.95 296.52 102.59 301.02 C 103.15 304.63 103.60 308.25 104.30 311.83 C 104.75 310.98 105.21 310.13 105.66 309.28 C 106.33 314.86 107.07 320.44 108.19 325.95 C 108.69 325.05 109.19 324.15 109.68 323.26 C 110.21 328.53 110.86 333.80 111.66 339.05 C 112.01 337.76 112.34 336.47 112.66 335.18 C 113.80 341.67 114.82 348.19 116.03 354.67 C 116.56 354.27 117.09 353.88 117.62 353.49 C 118.05 358.50 118.53 363.60 120.56 368.28 C 122.23 372.23 121.79 376.72 123.49 380.65 C 126.62 386.18 125.95 392.85 128.39 398.65 C 128.79 398.20 129.19 397.76 129.59 397.32 C 129.59 401.43 129.43 405.85 131.41 409.59 C 132.80 412.35 137.51 412.39 138.88 409.59 C 141.21 405.58 143.09 401.32 145.59 397.41 C 149.52 391.29 152.42 384.58 156.47 378.53 C 159.05 373.24 161.86 368.07 165.39 363.34 C 169.15 355.37 174.51 348.26 177.97 340.15 C 180.75 337.27 182.15 333.46 184.14 330.06 C 191.83 316.40 199.23 302.59 207.47 289.25 C 212.23 280.41 216.69 270.00 226.50 265.75 C 233.73 261.97 242.15 261.96 250.05 262.93 C 260.97 265.04 268.96 273.61 279.08 277.53 C 284.13 279.00 286.06 273.09 287.91 269.66 C 291.01 264.69 293.33 259.29 296.68 254.47 C 300.14 248.36 303.29 242.07 307.24 236.24 C 310.64 230.07 313.93 223.84 317.77 217.92 C 326.70 201.53 336.14 185.43 345.31 169.17 C 348.60 162.57 352.42 156.02 358.00 151.08 C 361.97 147.83 366.31 144.97 371.02 142.92 C 374.53 141.38 378.03 139.45 381.97 139.49 C 388.66 139.41 395.38 139.19 402.07 139.65 C 409.45 140.96 415.61 145.59 422.26 148.77 C 430.13 152.14 436.68 157.82 444.32 161.63 C 451.46 165.01 457.93 169.58 464.97 173.13 C 469.41 175.38 473.00 179.27 477.94 180.50 C 478.32 180.14 479.08 179.44 479.46 179.08 C 480.73 174.65 476.90 171.28 476.59 167.08 C 476.33 164.51 476.14 161.93 475.88 159.36 C 475.30 159.74 474.73 160.11 474.16 160.48 C 473.32 155.67 473.63 150.50 471.41 146.04 C 468.68 141.29 469.14 135.59 468.01 130.38 C 467.43 130.73 466.86 131.10 466.29 131.46 C 465.64 126.78 465.11 122.09 464.59 117.40 C 464.18 117.77 463.78 118.15 463.38 118.53 C 460.97 112.62 461.94 105.89 458.81 100.22 C 456.56 92.83 455.23 85.15 453.06 77.73 C 451.76 75.35 449.39 73.61 446.93 72.59 C 441.83 72.00 436.26 72.28 431.77 75.03 M 381.44 153.65 C 373.00 156.48 365.75 162.55 361.30 170.24 C 349.89 189.59 339.26 209.39 327.74 228.68 C 317.77 246.35 307.85 264.05 297.51 281.51 C 296.64 283.33 295.06 285.22 295.59 287.37 C 297.31 289.38 299.74 290.58 301.98 291.92 C 319.93 301.87 337.42 312.63 355.39 322.54 C 367.72 329.47 379.76 336.94 392.16 343.75 C 398.71 345.96 405.66 342.91 411.97 341.02 C 425.47 337.67 438.80 333.77 452.24 330.17 C 456.52 328.41 461.32 328.34 465.54 326.49 C 467.52 324.18 466.47 320.68 465.93 317.99 C 463.52 310.36 459.60 303.07 458.82 295.00 C 459.77 285.56 464.12 275.34 473.25 271.21 C 480.34 268.46 487.85 266.79 495.44 266.24 C 498.75 266.04 503.32 264.15 502.53 260.07 C 497.64 241.74 492.72 223.44 487.66 205.17 C 485.32 199.93 479.21 198.30 474.73 195.42 C 452.27 182.53 429.92 169.46 407.39 156.69 C 399.67 151.94 390.06 151.95 381.44 153.65 M 547.20 262.54 C 543.28 263.39 539.81 265.54 536.12 267.03 C 528.17 270.27 520.13 273.36 511.87 275.70 C 505.15 276.72 498.90 279.89 492.03 279.99 C 484.77 280.39 476.21 282.86 473.30 290.29 C 470.42 295.35 473.90 300.71 475.61 305.51 C 478.12 311.03 479.25 317.02 481.33 322.69 C 483.14 327.67 483.09 333.09 484.82 338.09 C 487.75 346.49 485.73 355.77 488.90 364.08 C 490.85 368.00 495.80 366.59 498.81 364.89 C 522.60 355.56 541.82 335.21 549.76 310.92 C 551.34 304.68 553.80 298.58 553.93 292.06 C 554.29 283.99 554.47 275.67 552.23 267.84 C 551.38 265.64 550.15 262.11 547.20 262.54 M 236.53 276.68 C 230.95 279.04 226.90 283.87 223.98 289.03 C 212.29 309.08 200.85 329.28 189.44 349.49 C 178.38 367.92 168.50 387.06 157.13 405.30 C 156.11 407.18 157.99 409.42 160.04 409.29 C 165.72 409.59 170.61 406.06 176.10 405.24 C 180.69 404.57 184.90 402.54 189.40 401.55 C 195.96 400.39 202.14 397.78 208.70 396.57 C 215.50 394.12 222.74 393.33 229.47 390.67 C 234.54 389.62 239.52 388.29 244.41 386.59 C 251.59 385.53 258.20 382.38 265.35 381.17 C 272.45 378.71 279.89 377.54 287.00 375.12 C 294.29 373.65 301.22 370.85 308.54 369.50 C 314.56 367.21 321.03 366.49 327.04 364.18 C 331.00 362.78 335.27 362.64 339.20 361.13 C 344.44 358.98 350.20 358.64 355.45 356.50 C 360.22 354.56 365.86 355.23 370.22 352.25 C 372.40 350.97 372.68 346.91 369.96 346.10 C 362.28 342.75 355.26 338.14 348.00 333.98 C 315.83 315.45 283.65 296.94 251.48 278.41 C 247.07 275.65 241.46 275.28 236.53 276.68 Z" />
<path fill="#0e2149" opacity="0.47" d=" M 431.77 75.03 C 436.26 72.28 441.83 72.00 446.93 72.59 C 449.39 73.61 451.76 75.35 453.06 77.73 C 455.23 85.15 456.56 92.83 458.81 100.22 C 461.94 105.89 460.97 112.62 463.38 118.53 C 463.78 118.15 464.18 117.77 464.59 117.40 C 465.11 122.09 465.64 126.78 466.29 131.46 C 466.86 131.10 467.43 130.73 468.01 130.38 C 469.14 135.59 468.68 141.29 471.41 146.04 C 473.63 150.50 473.32 155.67 474.16 160.48 C 474.73 160.11 475.30 159.74 475.88 159.36 C 476.14 161.93 476.33 164.51 476.59 167.08 C 476.90 171.28 480.73 174.65 479.46 179.08 C 479.08 179.44 478.32 180.14 477.94 180.50 C 473.00 179.27 469.41 175.38 464.97 173.13 C 457.93 169.58 451.46 165.01 444.32 161.63 C 436.68 157.82 430.13 152.14 422.26 148.77 C 415.61 145.59 409.45 140.96 402.07 139.65 C 395.38 139.19 388.66 139.41 381.97 139.49 C 378.03 139.45 374.53 141.38 371.02 142.92 C 366.31 144.97 361.97 147.83 358.00 151.08 C 352.42 156.02 348.60 162.57 345.31 169.17 C 336.14 185.43 326.70 201.53 317.77 217.92 C 313.93 223.84 310.64 230.07 307.24 236.24 C 303.29 242.07 300.14 248.36 296.68 254.47 C 293.33 259.29 291.01 264.69 287.91 269.66 C 286.06 273.09 284.13 279.00 279.08 277.53 C 268.96 273.61 260.97 265.04 250.05 262.93 C 242.15 261.96 233.73 261.97 226.50 265.75 C 216.69 270.00 212.23 280.41 207.47 289.25 C 199.23 302.59 191.83 316.40 184.14 330.06 C 182.15 333.46 180.75 337.27 177.97 340.15 C 174.51 348.26 169.15 355.37 165.39 363.34 C 161.86 368.07 159.05 373.24 156.47 378.53 C 152.42 384.58 149.52 391.29 145.59 397.41 C 143.09 401.32 141.21 405.58 138.88 409.59 C 137.51 412.39 132.80 412.35 131.41 409.59 C 129.43 405.85 129.59 401.43 129.59 397.32 C 129.19 397.76 128.79 398.20 128.39 398.65 C 125.95 392.85 126.62 386.18 123.49 380.65 C 121.79 376.72 122.23 372.23 120.56 368.28 C 118.53 363.60 118.05 358.50 117.62 353.49 C 117.09 353.88 116.56 354.27 116.03 354.67 C 114.82 348.19 113.80 341.67 112.66 335.18 C 112.34 336.47 112.01 337.76 111.66 339.05 C 110.86 333.80 110.21 328.53 109.68 323.26 C 109.19 324.15 108.69 325.05 108.19 325.95 C 107.07 320.44 106.33 314.86 105.66 309.28 C 105.21 310.13 104.75 310.98 104.30 311.83 C 103.60 308.25 103.15 304.63 102.59 301.02 C 101.95 296.52 99.41 292.55 98.90 288.01 C 98.35 283.15 95.43 278.89 95.41 273.93 C 95.56 270.24 92.43 267.64 91.93 264.12 C 91.35 260.52 91.11 256.88 90.67 253.27 C 90.22 254.12 89.78 254.97 89.33 255.82 C 87.98 250.04 87.23 244.15 86.68 238.25 C 86.18 239.14 85.67 240.03 85.17 240.92 C 84.06 235.47 83.33 229.96 82.98 224.42 C 82.34 224.93 81.64 225.34 80.90 225.67 C 80.40 220.44 79.69 215.18 77.79 210.25 C 76.07 206.19 77.00 201.39 74.48 197.63 C 71.78 193.68 72.27 188.66 71.20 184.18 C 70.75 180.87 69.16 176.63 71.90 173.92 C 78.32 168.76 86.87 168.43 94.73 167.84 C 93.84 167.28 92.95 166.72 92.06 166.16 C 97.54 164.96 103.13 164.33 108.72 163.97 C 107.88 163.44 107.04 162.92 106.20 162.40 C 111.57 161.32 116.99 160.52 122.42 159.83 C 122.09 159.20 121.76 158.58 121.43 157.95 C 126.06 157.28 130.92 157.28 135.25 155.30 C 139.93 153.02 145.28 153.38 150.28 152.34 C 150.41 151.66 150.53 150.98 150.66 150.30 C 153.44 149.95 156.24 149.70 159.02 149.33 C 161.91 148.92 164.06 146.55 166.96 146.15 C 171.17 145.35 175.47 145.26 179.72 144.85 C 178.82 144.30 177.94 143.75 177.05 143.20 C 181.51 142.05 186.10 141.67 190.65 141.10 C 192.24 141.04 193.20 139.71 194.13 138.61 C 197.02 138.15 199.94 137.86 202.83 137.35 C 205.39 136.83 207.47 135.03 210.03 134.48 C 213.79 133.68 217.64 133.43 221.44 132.87 C 221.13 132.28 220.82 131.69 220.51 131.10 C 224.85 130.41 229.20 129.76 233.58 129.55 C 233.21 129.13 232.83 128.71 232.46 128.29 C 237.66 126.56 243.11 125.71 248.58 125.59 C 248.16 125.07 247.75 124.55 247.34 124.04 C 253.12 122.83 258.98 122.10 264.87 121.71 C 263.58 121.34 262.31 120.93 261.05 120.51 C 264.66 119.48 268.36 118.84 272.10 118.48 C 275.38 118.36 277.76 115.62 280.96 115.19 C 284.75 114.49 288.62 114.36 292.46 114.04 C 292.09 113.34 291.73 112.65 291.38 111.95 C 296.37 111.18 301.38 110.42 306.42 110.01 C 306.11 109.33 305.79 108.65 305.49 107.97 C 310.91 107.29 316.31 106.47 321.73 105.77 C 320.85 105.31 319.99 104.85 319.12 104.40 C 322.05 104.06 324.98 103.77 327.90 103.30 C 331.41 102.69 334.39 100.41 337.93 99.90 C 340.93 99.43 344.15 99.60 346.83 97.94 C 351.54 95.17 357.18 95.53 362.43 95.03 C 362.09 94.35 361.76 93.66 361.44 92.98 C 366.81 91.96 372.24 91.28 377.70 90.98 C 376.86 90.42 376.02 89.84 375.19 89.26 C 380.56 88.16 385.99 87.39 391.45 87.03 C 391.11 86.33 390.76 85.63 390.43 84.93 C 395.54 84.22 400.91 84.12 405.60 81.71 C 410.06 79.45 415.44 80.46 419.84 77.98 C 423.51 75.79 428.17 77.33 431.77 75.03 M 439.42 75.33 C 434.38 77.37 428.92 77.88 423.82 79.67 C 418.70 81.47 413.25 82.05 408.21 84.05 C 385.56 89.97 363.02 96.39 340.36 102.26 C 334.80 104.44 328.74 104.81 323.20 107.06 C 288.36 116.45 253.53 125.94 218.73 135.43 C 212.72 136.46 207.18 139.20 201.13 140.07 C 191.18 142.88 181.21 145.61 171.20 148.18 C 165.18 150.56 158.64 151.08 152.62 153.45 C 147.41 154.80 142.10 155.75 137.06 157.72 C 129.70 159.09 122.73 161.92 115.39 163.36 C 102.24 167.48 88.65 170.07 75.62 174.61 C 72.63 175.42 72.43 179.12 73.01 181.63 C 73.65 187.99 76.71 193.72 77.76 199.97 C 78.51 204.53 80.61 208.72 81.41 213.26 C 82.30 218.69 84.61 223.74 85.61 229.15 C 88.33 239.74 91.44 250.21 94.10 260.82 C 96.54 267.38 97.11 274.44 99.75 280.94 C 101.12 288.30 103.92 295.27 105.36 302.61 C 109.05 314.45 111.60 326.61 115.20 338.48 C 116.88 345.77 119.36 352.84 120.83 360.18 C 123.31 366.18 123.78 372.73 126.08 378.78 C 127.57 383.15 127.96 387.82 129.69 392.12 C 132.16 397.90 130.99 405.09 135.87 409.76 C 139.26 404.95 141.62 399.54 144.58 394.48 C 165.43 358.02 186.34 321.59 207.23 285.15 C 212.24 275.16 219.53 265.56 230.31 261.46 C 233.71 260.16 237.42 260.37 240.99 260.26 C 246.23 260.33 251.84 259.81 256.59 262.50 C 264.95 266.86 272.99 271.81 281.20 276.45 C 291.10 260.11 300.18 243.27 309.87 226.81 C 321.18 206.83 332.71 186.98 344.11 167.06 C 350.41 155.09 360.00 144.06 372.77 138.88 C 376.89 137.26 381.35 136.88 385.65 135.98 C 392.65 134.49 399.64 136.68 406.48 137.96 C 413.74 140.26 420.06 144.71 426.66 148.41 C 441.65 157.50 457.21 165.64 472.02 175.01 C 473.28 175.65 475.18 176.67 475.89 174.78 C 475.90 168.51 472.39 162.97 471.45 156.86 C 467.22 140.75 462.78 124.70 458.49 108.60 C 456.48 103.27 456.11 97.49 453.96 92.20 C 451.71 86.56 452.49 79.64 447.98 75.02 C 445.54 72.79 442.10 74.60 439.42 75.33 Z" />
<path fill="#112758" opacity="0.56" d=" M 381.44 153.65 C 390.06 151.95 399.67 151.94 407.39 156.69 C 429.92 169.46 452.27 182.53 474.73 195.42 C 479.21 198.30 485.32 199.93 487.66 205.17 C 492.72 223.44 497.64 241.74 502.53 260.07 C 503.32 264.15 498.75 266.04 495.44 266.24 C 487.85 266.79 480.34 268.46 473.25 271.21 C 464.12 275.34 459.77 285.56 458.82 295.00 C 459.60 303.07 463.52 310.36 465.93 317.99 C 466.47 320.68 467.52 324.18 465.54 326.49 C 461.32 328.34 456.52 328.41 452.24 330.17 C 438.80 333.77 425.47 337.67 411.97 341.02 C 405.66 342.91 398.71 345.96 392.16 343.75 C 379.76 336.94 367.72 329.47 355.39 322.54 C 337.42 312.63 319.93 301.87 301.98 291.92 C 299.74 290.58 297.31 289.38 295.59 287.37 C 295.06 285.22 296.64 283.33 297.51 281.51 C 307.85 264.05 317.77 246.35 327.74 228.68 C 339.26 209.39 349.89 189.59 361.30 170.24 C 365.75 162.55 373.00 156.48 381.44 153.65 M 384.37 154.45 C 379.99 155.58 375.85 157.59 372.09 160.09 C 365.48 164.69 361.86 172.15 358.01 178.98 C 338.37 213.33 318.67 247.63 299.00 281.95 C 298.13 283.78 296.55 286.64 298.83 288.10 C 313.57 297.19 328.80 305.53 343.87 314.09 C 359.50 323.61 375.62 332.28 391.34 341.65 C 396.69 345.10 402.94 341.90 408.37 340.39 C 424.38 336.21 440.28 331.63 456.29 327.47 C 458.63 326.86 461.14 326.60 463.25 325.33 C 465.52 323.81 465.43 320.66 464.63 318.37 C 461.82 310.43 457.64 302.66 457.28 294.10 C 458.05 283.45 464.59 272.76 474.84 268.87 C 481.38 265.85 488.71 266.13 495.60 264.51 C 497.69 263.92 500.71 262.69 500.46 260.06 C 500.06 254.41 497.88 249.12 496.41 243.71 C 493.46 231.74 489.88 219.95 486.93 207.98 C 485.87 203.56 481.73 201.03 478.07 198.90 C 454.46 185.58 431.14 171.72 407.47 158.51 C 400.55 154.43 392.28 152.72 384.37 154.45 Z" />
<path fill="#0c1d41" opacity="0.42" d=" M 384.37 154.45 C 392.28 152.72 400.55 154.43 407.47 158.51 C 431.14 171.72 454.46 185.58 478.07 198.90 C 481.73 201.03 485.87 203.56 486.93 207.98 C 489.88 219.95 493.46 231.74 496.41 243.71 C 497.88 249.12 500.06 254.41 500.46 260.06 C 500.71 262.69 497.69 263.92 495.60 264.51 C 488.71 266.13 481.38 265.85 474.84 268.87 C 464.59 272.76 458.05 283.45 457.28 294.10 C 457.64 302.66 461.82 310.43 464.63 318.37 C 465.43 320.66 465.52 323.81 463.25 325.33 C 461.14 326.60 458.63 326.86 456.29 327.47 C 440.28 331.63 424.38 336.21 408.37 340.39 C 402.94 341.90 396.69 345.10 391.34 341.65 C 375.62 332.28 359.50 323.61 343.87 314.09 C 328.80 305.53 313.57 297.19 298.83 288.10 C 296.55 286.64 298.13 283.78 299.00 281.95 C 318.67 247.63 338.37 213.33 358.01 178.98 C 361.86 172.15 365.48 164.69 372.09 160.09 C 375.85 157.59 379.99 155.58 384.37 154.45 M 388.36 155.29 C 383.39 155.89 378.73 158.00 374.38 160.38 C 366.14 165.05 362.56 174.31 357.93 182.05 C 339.33 214.45 321.05 247.03 302.23 279.30 C 301.05 281.40 299.77 283.53 299.44 285.96 C 302.69 289.50 307.32 291.22 311.34 293.70 C 338.16 309.23 365.09 324.60 391.92 340.10 C 396.65 343.06 402.21 340.85 406.94 339.13 C 422.33 334.90 437.82 331.02 453.12 326.53 C 456.11 325.81 459.38 325.78 462.07 324.15 C 463.74 323.42 463.66 321.55 463.43 320.04 C 461.53 312.21 456.13 305.31 456.18 297.03 C 456.14 292.65 455.91 288.01 458.04 284.02 C 461.49 276.31 467.66 269.69 475.68 266.74 C 481.24 263.93 487.60 264.92 493.48 263.57 C 495.75 262.97 498.86 261.76 498.58 258.89 C 498.59 252.94 495.08 247.72 494.37 241.87 C 491.49 230.70 488.02 219.68 485.64 208.39 C 484.76 205.26 482.11 203.10 479.41 201.55 C 460.16 190.47 440.86 179.47 421.65 168.32 C 413.83 164.02 406.38 158.86 397.82 156.10 C 394.78 155.10 391.52 155.00 388.36 155.29 Z" />
<path fill="#0c1d41" opacity="0.42" d=" M 0.00 164.43 C 1.20 165.27 2.41 166.10 3.62 166.93 C 4.24 171.25 5.34 175.48 6.16 179.76 C 6.63 178.88 7.10 178.01 7.57 177.14 C 8.01 181.79 8.60 186.44 8.95 191.11 C 9.65 190.97 10.35 190.83 11.05 190.69 C 11.80 196.00 12.62 201.31 13.04 206.66 C 13.71 205.84 14.38 205.03 15.05 204.22 C 15.42 209.80 16.19 215.37 17.90 220.71 C 18.03 223.23 18.12 225.76 18.15 228.28 C 14.94 222.24 14.33 215.33 12.25 208.90 C 9.15 197.63 6.23 186.31 3.19 175.02 C 2.57 172.68 1.21 170.66 0.00 168.61 L 0.00 164.43 Z" />
<path fill="#09152e" opacity="0.30" d=" M 167.38 165.41 C 174.62 164.20 181.69 166.68 188.53 168.69 C 203.30 174.26 215.59 186.74 219.73 202.11 C 220.79 208.20 222.93 214.40 221.56 220.63 C 220.48 226.19 219.84 231.98 217.15 237.06 C 211.28 249.63 200.21 259.74 187.05 264.18 C 183.25 265.77 179.20 266.85 175.05 266.73 C 170.37 266.68 165.59 267.11 161.01 265.94 C 152.31 263.23 143.67 259.44 137.20 252.81 C 130.03 246.47 125.15 237.88 122.48 228.75 C 121.03 221.62 121.10 214.21 121.85 207.00 C 125.30 189.85 137.77 174.43 154.47 168.68 C 158.73 167.44 162.99 166.13 167.38 165.41 M 167.37 167.58 C 160.70 168.31 154.01 169.82 148.22 173.32 C 135.04 180.16 125.96 193.63 123.32 208.10 C 122.79 216.74 122.22 225.87 126.11 233.90 C 134.43 257.30 163.06 271.31 186.50 262.59 C 199.58 258.55 210.51 248.45 215.94 235.93 C 219.35 229.52 219.81 222.09 219.77 214.96 C 220.11 198.61 210.77 182.56 196.65 174.41 C 188.01 168.95 177.50 166.80 167.37 167.58 Z" />
<path fill="#14306a" opacity="0.68" d=" M 167.37 167.58 C 177.50 166.80 188.01 168.95 196.65 174.41 C 210.77 182.56 220.11 198.61 219.77 214.96 C 219.81 222.09 219.35 229.52 215.94 235.93 C 210.51 248.45 199.58 258.55 186.50 262.59 C 163.06 271.31 134.43 257.30 126.11 233.90 C 122.22 225.87 122.79 216.74 123.32 208.10 C 125.96 193.63 135.04 180.16 148.22 173.32 C 154.01 169.82 160.70 168.31 167.37 167.58 M 165.36 170.10 C 149.45 170.94 134.94 182.14 128.70 196.58 C 126.37 203.16 123.86 209.94 124.13 217.03 C 124.26 222.93 126.34 228.53 128.00 234.12 C 131.84 243.95 139.07 252.65 148.62 257.35 C 154.24 260.78 160.87 261.50 167.19 262.83 C 172.87 264.15 178.52 262.19 184.08 261.18 C 191.81 259.96 198.52 255.35 204.25 250.25 C 210.91 244.24 214.72 235.83 217.20 227.38 C 218.28 221.97 217.67 216.41 217.80 210.94 C 218.09 204.17 214.84 197.99 211.84 192.14 C 206.52 181.96 196.58 174.76 185.78 171.33 C 179.09 169.98 172.17 169.29 165.36 170.10 Z" />
<path fill="#1e479c" opacity="1.00" d=" M 165.36 170.10 C 172.17 169.29 179.09 169.98 185.78 171.33 C 196.58 174.76 206.52 181.96 211.84 192.14 C 214.84 197.99 218.09 204.17 217.80 210.94 C 217.67 216.41 218.28 221.97 217.20 227.38 C 214.72 235.83 210.91 244.24 204.25 250.25 C 198.52 255.35 191.81 259.96 184.08 261.18 C 178.52 262.19 172.87 264.15 167.19 262.83 C 160.87 261.50 154.24 260.78 148.62 257.35 C 139.07 252.65 131.84 243.95 128.00 234.12 C 126.34 228.53 124.26 222.93 124.13 217.03 C 123.86 209.94 126.37 203.16 128.70 196.58 C 134.94 182.14 149.45 170.94 165.36 170.10 M 164.34 183.26 C 150.55 185.89 140.19 198.47 137.60 211.89 C 136.26 219.48 139.15 226.89 142.54 233.53 C 147.25 241.88 156.01 247.02 164.88 249.92 C 173.18 252.40 181.90 249.44 188.91 244.93 C 196.14 240.19 201.75 232.96 204.39 224.73 C 205.15 219.02 205.26 213.12 204.31 207.43 C 201.35 198.78 195.41 191.03 187.41 186.47 C 180.55 182.30 172.07 182.15 164.34 183.26 Z" />
<path fill="#15316d" opacity="0.70" d=" M 164.34 183.26 C 172.07 182.15 180.55 182.30 187.41 186.47 C 195.41 191.03 201.35 198.78 204.31 207.43 C 205.26 213.12 205.15 219.02 204.39 224.73 C 201.75 232.96 196.14 240.19 188.91 244.93 C 181.90 249.44 173.18 252.40 164.88 249.92 C 156.01 247.02 147.25 241.88 142.54 233.53 C 139.15 226.89 136.26 219.48 137.60 211.89 C 140.19 198.47 150.55 185.89 164.34 183.26 M 140.60 224.40 C 142.19 229.51 144.21 235.16 149.05 238.06 C 149.61 238.76 150.27 239.35 151.04 239.81 C 155.13 246.05 163.22 247.12 169.99 248.21 C 177.98 248.24 186.39 245.91 192.33 240.33 C 201.23 232.65 205.66 219.87 202.48 208.41 C 200.60 202.37 197.49 196.53 192.69 192.31 C 186.44 187.09 178.42 183.58 170.15 184.30 C 150.57 184.04 134.65 205.83 140.60 224.40 Z" />
<path fill="#08132a" opacity="0.27" d=" M 140.60 224.40 C 134.65 205.83 150.57 184.04 170.15 184.30 C 178.42 183.58 186.44 187.09 192.69 192.31 C 197.49 196.53 200.60 202.37 202.48 208.41 C 205.66 219.87 201.23 232.65 192.33 240.33 C 186.39 245.91 177.98 248.24 169.99 248.21 C 163.22 247.12 155.13 246.05 151.04 239.81 C 155.86 242.26 160.67 245.26 166.20 245.68 C 173.99 246.32 182.57 246.07 189.00 241.03 C 196.66 236.26 200.22 227.41 201.98 218.95 C 202.89 212.49 200.21 206.16 197.40 200.49 C 191.10 189.71 177.46 183.57 165.22 186.33 C 155.61 188.79 146.22 195.36 143.36 205.26 C 141.75 211.36 141.78 217.80 142.69 224.01 C 143.38 229.23 146.31 233.71 149.05 238.06 C 144.21 235.16 142.19 229.51 140.60 224.40 Z" />
<path fill="#142f68" opacity="0.67" d=" M 547.20 262.54 C 550.15 262.11 551.38 265.64 552.23 267.84 C 554.47 275.67 554.29 283.99 553.93 292.06 C 553.80 298.58 551.34 304.68 549.76 310.92 C 541.82 335.21 522.60 355.56 498.81 364.89 C 495.80 366.59 490.85 368.00 488.90 364.08 C 485.73 355.77 487.75 346.49 484.82 338.09 C 483.09 333.09 483.14 327.67 481.33 322.69 C 479.25 317.02 478.12 311.03 475.61 305.51 C 473.90 300.71 470.42 295.35 473.30 290.29 C 476.21 282.86 484.77 280.39 492.03 279.99 C 498.90 279.89 505.15 276.72 511.87 275.70 C 520.13 273.36 528.17 270.27 536.12 267.03 C 539.81 265.54 543.28 263.39 547.20 262.54 M 542.04 266.15 C 530.86 271.21 519.37 275.71 507.42 278.57 C 498.99 281.65 489.74 281.21 481.37 284.49 C 476.80 286.03 474.12 291.12 474.48 295.77 C 475.07 300.46 477.21 304.74 478.80 309.14 C 482.51 318.85 484.69 329.01 487.01 339.11 C 488.38 346.88 488.46 354.88 490.60 362.51 C 490.90 364.08 492.38 365.06 493.96 364.75 C 519.89 356.64 540.98 334.90 548.67 308.88 C 552.36 294.66 554.68 278.97 548.77 265.02 C 546.50 265.20 544.16 265.23 542.04 266.15 Z" />
<path fill="#08132a" opacity="0.27" d=" M 542.04 266.15 C 544.16 265.23 546.50 265.20 548.77 265.02 C 554.68 278.97 552.36 294.66 548.67 308.88 C 540.98 334.90 519.89 356.64 493.96 364.75 C 492.38 365.06 490.90 364.08 490.60 362.51 C 488.46 354.88 488.38 346.88 487.01 339.11 C 484.69 329.01 482.51 318.85 478.80 309.14 C 477.21 304.74 475.07 300.46 474.48 295.77 C 474.12 291.12 476.80 286.03 481.37 284.49 C 489.74 281.21 498.99 281.65 507.42 278.57 C 519.37 275.71 530.86 271.21 542.04 266.15 M 501.88 281.87 C 495.11 282.63 488.55 284.47 481.95 286.06 C 478.27 286.68 476.59 290.70 476.39 294.04 C 475.99 299.79 479.29 304.78 480.90 310.09 C 482.41 315.01 484.31 319.82 485.31 324.88 C 486.30 329.65 488.46 334.16 488.72 339.08 C 489.02 347.20 491.72 354.96 492.54 363.02 C 509.89 358.44 525.12 347.04 535.51 332.54 C 540.51 325.38 543.99 317.31 546.94 309.13 C 548.23 305.35 548.19 301.32 548.70 297.40 C 549.26 292.61 550.76 287.86 550.22 283.00 C 549.51 277.25 548.80 271.46 547.16 265.89 C 532.64 272.72 517.51 278.26 501.88 281.87 Z" />
<path fill="#142f68" opacity="0.67" d=" M 236.53 276.68 C 241.46 275.28 247.07 275.65 251.48 278.41 C 283.65 296.94 315.83 315.45 348.00 333.98 C 355.26 338.14 362.28 342.75 369.96 346.10 C 372.68 346.91 372.40 350.97 370.22 352.25 C 365.86 355.23 360.22 354.56 355.45 356.50 C 350.20 358.64 344.44 358.98 339.20 361.13 C 335.27 362.64 331.00 362.78 327.04 364.18 C 321.03 366.49 314.56 367.21 308.54 369.50 C 301.22 370.85 294.29 373.65 287.00 375.12 C 279.89 377.54 272.45 378.71 265.35 381.17 C 258.20 382.38 251.59 385.53 244.41 386.59 C 239.52 388.29 234.54 389.62 229.47 390.67 C 222.74 393.33 215.50 394.12 208.70 396.57 C 202.14 397.78 195.96 400.39 189.40 401.55 C 184.90 402.54 180.69 404.57 176.10 405.24 C 170.61 406.06 165.72 409.59 160.04 409.29 C 157.99 409.42 156.11 407.18 157.13 405.30 C 168.50 387.06 178.38 367.92 189.44 349.49 C 200.85 329.28 212.29 309.08 223.98 289.03 C 226.90 283.87 230.95 279.04 236.53 276.68 M 232.19 281.20 C 228.03 284.22 225.83 289.00 223.34 293.33 C 203.50 327.84 183.90 362.49 163.94 396.94 C 161.94 400.12 160.05 403.40 158.83 406.97 C 160.22 407.08 161.61 407.10 163.00 407.03 C 225.64 389.94 288.32 372.98 350.98 355.94 C 356.86 354.02 363.13 353.40 368.76 350.73 C 368.74 349.63 368.73 348.53 368.73 347.44 C 354.75 339.85 340.97 331.88 327.22 323.91 C 305.26 311.12 283.15 298.59 261.17 285.85 C 256.26 282.97 251.41 279.84 245.97 278.04 C 241.21 276.44 236.06 278.37 232.19 281.20 Z" />
<path fill="#08132a" opacity="0.27" d=" M 232.19 281.20 C 236.06 278.37 241.21 276.44 245.97 278.04 C 251.41 279.84 256.26 282.97 261.17 285.85 C 283.15 298.59 305.26 311.12 327.22 323.91 C 340.97 331.88 354.75 339.85 368.73 347.44 C 368.73 348.53 368.74 349.63 368.76 350.73 C 363.13 353.40 356.86 354.02 350.98 355.94 C 288.32 372.98 225.64 389.94 163.00 407.03 C 161.61 407.10 160.22 407.08 158.83 406.97 C 160.05 403.40 161.94 400.12 163.94 396.94 C 183.90 362.49 203.50 327.84 223.34 293.33 C 225.83 289.00 228.03 284.22 232.19 281.20 M 227.70 288.65 C 208.81 322.06 189.63 355.30 170.69 388.68 C 167.86 394.15 163.72 398.97 161.94 404.95 C 171.33 403.67 180.13 400.08 189.36 398.15 C 196.18 395.68 203.42 394.74 210.24 392.26 C 217.01 390.97 223.45 388.45 230.19 387.05 C 247.83 382.00 265.62 377.50 283.24 372.45 C 289.56 371.40 295.42 368.64 301.74 367.61 C 309.15 365.13 316.85 363.74 324.27 361.28 C 330.59 360.27 336.46 357.57 342.76 356.47 C 347.22 355.55 351.35 353.42 355.90 352.83 C 359.65 352.32 363.42 351.40 366.51 349.09 C 363.30 346.28 359.56 344.20 355.81 342.21 C 321.68 322.74 287.76 302.90 253.58 283.49 C 249.92 281.65 246.27 279.11 242.03 279.09 C 236.11 279.78 230.42 283.23 227.70 288.65 Z" />
<path fill="#112758" opacity="0.56" d=" M 483.95 428.87 C 487.83 422.51 493.93 416.14 501.96 416.28 C 508.03 416.15 515.29 415.58 520.01 420.17 C 524.67 425.07 528.40 430.81 531.47 436.83 C 534.83 443.44 539.66 449.21 545.03 454.29 C 551.11 459.39 558.28 462.93 565.21 466.69 C 569.90 469.23 572.53 474.08 576.00 477.91 L 576.00 481.52 C 575.12 480.88 574.23 480.26 573.35 479.66 C 572.04 476.55 570.47 473.38 567.77 471.26 C 563.33 467.74 558.04 465.58 553.20 462.70 C 542.39 456.59 533.93 446.85 528.26 435.88 C 525.98 431.60 524.08 426.87 520.19 423.75 C 512.59 417.30 500.68 416.76 492.54 422.51 C 487.34 426.30 484.82 432.45 481.78 437.90 C 477.15 446.74 470.24 454.30 462.14 460.10 C 456.41 464.23 449.63 466.68 444.01 470.98 C 434.17 479.10 433.92 496.03 443.69 504.30 C 450.88 509.68 459.45 512.93 466.49 518.55 C 473.15 523.99 478.33 531.05 482.33 538.62 C 485.07 543.37 487.34 548.71 491.82 552.13 C 494.67 554.26 497.68 556.16 500.72 558.00 L 493.96 558.00 C 490.12 553.43 485.15 549.67 482.64 544.12 C 479.01 536.59 474.61 529.29 468.54 523.46 C 464.32 519.20 459.01 516.29 453.99 513.13 C 448.49 509.72 441.87 507.47 438.23 501.77 C 433.47 495.97 433.80 487.99 434.63 480.97 C 435.31 475.35 439.89 471.46 443.96 468.07 C 452.39 462.87 461.78 458.93 468.96 451.91 C 475.50 445.36 479.77 437.02 483.95 428.87 Z" />
<path fill="#1e469c" opacity="1.00" d=" M 492.54 422.51 C 500.68 416.76 512.59 417.30 520.19 423.75 C 524.08 426.87 525.98 431.60 528.26 435.88 C 533.93 446.85 542.39 456.59 553.20 462.70 C 558.04 465.58 563.33 467.74 567.77 471.26 C 570.47 473.38 572.04 476.55 573.35 479.66 C 574.63 486.33 573.54 493.12 572.69 499.77 C 569.84 508.12 560.14 510.05 553.58 514.53 C 543.44 520.48 535.34 529.59 529.94 539.98 C 527.76 543.82 526.16 548.12 522.94 551.25 C 520.61 553.50 518.17 555.64 515.95 558.00 L 500.72 558.00 C 497.68 556.16 494.67 554.26 491.82 552.13 C 487.34 548.71 485.07 543.37 482.33 538.62 C 478.33 531.05 473.15 523.99 466.49 518.55 C 459.45 512.93 450.88 509.68 443.69 504.30 C 433.92 496.03 434.17 479.10 444.01 470.98 C 449.63 466.68 456.41 464.23 462.14 460.10 C 470.24 454.30 477.15 446.74 481.78 437.90 C 484.82 432.45 487.34 426.30 492.54 422.51 M 504.43 431.52 C 500.47 432.86 498.19 436.67 496.28 440.13 C 493.49 445.51 489.67 450.25 486.21 455.20 C 481.01 462.65 473.77 468.43 466.01 473.05 C 461.25 475.90 455.88 477.92 451.80 481.80 C 449.00 484.36 448.13 489.28 450.76 492.26 C 454.02 496.20 458.82 498.30 463.21 500.69 C 471.67 505.17 479.09 511.47 485.20 518.81 C 490.45 525.25 493.73 532.96 498.11 539.96 C 500.38 544.13 506.04 544.66 510.01 542.91 C 513.58 540.36 515.21 536.06 517.31 532.37 C 521.72 523.60 527.71 515.57 535.26 509.26 C 541.08 504.48 547.67 500.78 554.29 497.25 C 557.77 495.26 562.24 492.68 561.74 487.99 C 562.00 481.42 554.96 478.66 550.23 475.86 C 540.31 470.99 531.81 463.68 524.83 455.16 C 520.41 449.32 517.73 442.39 513.58 436.37 C 511.49 433.58 508.24 430.40 504.43 431.52 Z" />
<path fill="#1f91a1" opacity="1.00" d=" M 504.43 431.52 C 508.24 430.40 511.49 433.58 513.58 436.37 C 517.73 442.39 520.41 449.32 524.83 455.16 C 531.81 463.68 540.31 470.99 550.23 475.86 C 554.96 478.66 562.00 481.42 561.74 487.99 C 562.24 492.68 557.77 495.26 554.29 497.25 C 547.67 500.78 541.08 504.48 535.26 509.26 C 527.71 515.57 521.72 523.60 517.31 532.37 C 515.21 536.06 513.58 540.36 510.01 542.91 C 506.04 544.66 500.38 544.13 498.11 539.96 C 493.73 532.96 490.45 525.25 485.20 518.81 C 479.09 511.47 471.67 505.17 463.21 500.69 C 458.82 498.30 454.02 496.20 450.76 492.26 C 448.13 489.28 449.00 484.36 451.80 481.80 C 455.88 477.92 461.25 475.90 466.01 473.05 C 473.77 468.43 481.01 462.65 486.21 455.20 C 489.67 450.25 493.49 445.51 496.28 440.13 C 498.19 436.67 500.47 432.86 504.43 431.52 M 504.35 435.10 C 501.30 436.05 500.23 439.38 498.69 441.84 C 490.60 456.62 479.21 470.17 463.95 477.87 C 459.75 480.50 453.41 482.30 452.71 488.02 C 453.24 491.35 456.61 493.21 459.25 494.84 C 467.03 499.08 474.75 503.65 481.19 509.81 C 486.78 515.00 491.22 521.31 495.04 527.88 C 497.15 531.46 498.66 535.42 501.33 538.65 C 503.00 540.75 506.54 541.80 508.64 539.70 C 511.80 536.92 513.46 532.93 515.43 529.31 C 521.51 517.72 530.50 507.63 541.67 500.72 C 546.62 497.19 552.66 495.31 557.19 491.19 C 559.02 489.71 559.41 487.06 557.83 485.25 C 555.11 481.72 550.78 480.08 547.05 477.85 C 537.01 472.43 528.16 464.82 521.35 455.66 C 517.41 450.37 514.84 444.25 511.27 438.73 C 509.72 436.59 507.30 433.66 504.35 435.10 Z" />
<path fill="#20dca5" opacity="1.00" d=" M 504.35 435.10 C 507.30 433.66 509.72 436.59 511.27 438.73 C 514.84 444.25 517.41 450.37 521.35 455.66 C 528.16 464.82 537.01 472.43 547.05 477.85 C 550.78 480.08 555.11 481.72 557.83 485.25 C 559.41 487.06 559.02 489.71 557.19 491.19 C 552.66 495.31 546.62 497.19 541.67 500.72 C 530.50 507.63 521.51 517.72 515.43 529.31 C 513.46 532.93 511.80 536.92 508.64 539.70 C 506.54 541.80 503.00 540.75 501.33 538.65 C 498.66 535.42 497.15 531.46 495.04 527.88 C 491.22 521.31 486.78 515.00 481.19 509.81 C 474.75 503.65 467.03 499.08 459.25 494.84 C 456.61 493.21 453.24 491.35 452.71 488.02 C 453.41 482.30 459.75 480.50 463.95 477.87 C 479.21 470.17 490.60 456.62 498.69 441.84 C 500.23 439.38 501.30 436.05 504.35 435.10 Z" />
<path fill="#18397f" opacity="0.82" d=" M 573.35 479.66 C 574.23 480.26 575.12 480.88 576.00 481.52 L 576.00 499.36 C 575.17 499.47 573.52 499.67 572.69 499.77 C 573.54 493.12 574.63 486.33 573.35 479.66 Z" />
</svg>
