<svg width="81" height="80" viewBox="0 0 81 80" fill="none" xmlns="http://www.w3.org/2000/svg">
<rect x="0.641602" y="0.426025" width="79.3712" height="79.3714" rx="39.6856" fill="white"/>
<path d="M36.2289 27.863H45.3876C47.7985 27.9603 50.42 28.4312 52.1937 30.2084C53.9638 31.9767 54.4329 34.5859 54.5356 36.988V46.1519C54.4382 48.5611 53.9691 51.1773 52.1972 52.951C50.4271 54.7282 47.8073 55.2008 45.3982 55.2999H36.2484C33.8375 55.2026 31.2159 54.7317 29.4405 52.9545C27.6686 51.1826 27.1978 48.5681 27.0986 46.1625V37.0057C27.1978 34.5948 27.6686 31.9767 29.444 30.2049C31.2142 28.4347 33.8251 27.9639 36.2289 27.863ZM34.6234 29.9287C33.0409 30.1323 31.377 30.7111 30.3928 32.0369C29.2476 33.5752 29.067 35.5736 29.0263 37.4287C29.0281 40.3193 29.0104 43.2082 29.0352 46.097C29.0989 48.0229 29.3821 50.1506 30.7947 51.588C32.2338 53.0147 34.3738 53.2997 36.3068 53.3634C39.1426 53.3882 41.9765 53.3687 44.8123 53.374C46.5169 53.3475 48.3065 53.2129 49.8235 52.3615C50.8891 51.7738 51.6591 50.7436 52.045 49.6019C52.7336 47.6211 52.5938 45.4934 52.6097 43.433C52.5955 41.1903 52.6415 38.9493 52.5849 36.7083C52.4964 34.8514 52.1459 32.8105 50.7351 31.4723C49.3367 30.173 47.3382 29.8809 45.5062 29.8066C43.3838 29.7676 41.2614 29.7995 39.139 29.7889C37.6326 29.8013 36.1192 29.7305 34.6234 29.9287Z" fill="black"/>
<path d="M35.8395 36.8163C39.0611 36.7579 42.2881 36.8056 45.5097 36.7915C46.0584 36.7402 46.5877 37.2075 46.5629 37.7651C46.5718 38.312 46.0514 38.7687 45.5115 38.7138C42.3217 38.7085 39.1284 38.7351 35.9386 38.7015C34.8695 38.6802 34.7898 36.9561 35.8395 36.8163Z" fill="black"/>
<path d="M35.6324 44.534C35.8979 44.419 36.1971 44.4561 36.4803 44.442C39.4913 44.4561 42.5023 44.4402 45.5132 44.4491C46.1257 44.3818 46.6798 44.9819 46.5488 45.5855C46.4656 46.0652 45.9947 46.4104 45.5132 46.3696C42.3306 46.3679 39.1479 46.3856 35.9652 46.3608C35.0022 46.3626 34.7385 44.881 35.6324 44.534Z" fill="black"/>
</svg>
