<svg width="82" height="79" viewBox="0 0 82 79" fill="none" xmlns="http://www.w3.org/2000/svg">
<path fill-rule="evenodd" clip-rule="evenodd" d="M33.748 21.1085L47.764 45.4089C47.855 45.4999 47.946 45.5909 48.128 45.5909C48.3101 45.5909 48.4011 45.4999 48.4921 45.4089L55.3181 33.5772C56.4102 31.757 56.4102 29.6637 55.3181 27.8434L48.128 15.3746H37.1155C36.4784 15.3746 35.7503 15.5567 35.1132 15.9207C33.2929 17.0129 32.6558 19.2882 33.748 21.1085Z" fill="#3CDBC0"/>
<path fill-rule="evenodd" clip-rule="evenodd" d="M33.7478 21.1085C32.7467 19.2882 32.2006 17.2859 32.2006 15.3746C32.2006 13.4634 32.6556 11.4611 33.7478 9.64083L38.2074 1.99574C38.9356 0.812575 40.1187 0.0844727 41.4839 0.0844727H73.9755C74.1575 0.0844727 74.2486 0.175483 74.3396 0.266496C74.4306 0.357509 74.4306 0.539536 74.3396 0.630549L67.5136 12.4622C66.4215 14.2825 64.6922 15.3746 62.5079 15.3746H37.2063C36.5692 15.3746 35.8411 15.5567 35.204 15.9207C33.2928 17.0129 32.6556 19.2882 33.7478 21.1085Z" fill="#3CDBC0"/>
<path fill-rule="evenodd" clip-rule="evenodd" d="M35.9321 24.931L21.9161 0.630509C21.8251 0.539496 21.7341 0.448486 21.5521 0.448486C21.37 0.448486 21.279 0.539496 21.188 0.630509L14.362 12.4622C13.2699 14.2824 13.2699 16.3757 14.362 18.196L30.0163 45.4089C30.1073 45.4999 30.1983 45.5909 30.3803 45.5909C30.5623 45.5909 30.6533 45.4999 30.7444 45.4089L35.9321 36.3986C38.0254 32.7581 38.0254 28.6625 35.9321 24.931Z" fill="#3CDBC0"/>
<path fill-rule="evenodd" clip-rule="evenodd" d="M63.4176 41.8594L62.5985 43.4976L61.7794 41.8594H61.3243H60.5962V45.6819H61.3243V42.7695L62.3255 44.8628H62.7805L62.9626 44.4077L63.7816 42.7695V45.6819H64.5097V41.8594H63.7816H63.4176ZM56.8647 41.8594H59.8681V42.5875H58.7759V45.5909H58.0478V42.5875H56.9557V41.8594H56.8647Z" fill="#7F4CFF"/>
<path fill-rule="evenodd" clip-rule="evenodd" d="M33.748 21.1085L47.764 45.4089C47.855 45.4999 47.946 45.5909 48.128 45.5909C48.3101 45.5909 48.4011 45.4999 48.4921 45.4089L55.3181 33.5772C56.4102 31.757 56.4102 29.6637 55.3181 27.8434L48.128 15.3746H37.1155C36.4784 15.3746 35.7503 15.5567 35.1132 15.9207C33.2929 17.0129 32.6558 19.2882 33.748 21.1085Z" fill="#7F4CFF"/>
<path fill-rule="evenodd" clip-rule="evenodd" d="M40.028 62.9745V60.4261C40.028 60.2441 39.846 60.1531 39.755 60.1531H37.2066C37.0245 60.1531 36.9335 60.3351 36.9335 60.4261V62.9745C36.9335 63.1565 37.1156 63.2476 37.2066 63.2476H39.755C39.846 63.2476 40.028 63.0655 40.028 62.9745ZM42.3943 72.3488V57.2407C42.3943 57.0587 42.5763 56.9677 42.6673 56.9677H45.2157C45.3978 56.9677 45.4888 57.1497 45.4888 57.2407V72.3488C45.4888 72.5309 45.3068 72.6219 45.2157 72.6219H42.6673C42.4853 72.7129 42.3943 72.5309 42.3943 72.3488ZM47.8551 67.1611C47.8551 64.1577 50.3125 61.6093 53.4069 61.6093H63.7824C64.1464 61.6093 64.4195 61.8824 64.4195 62.2464C64.4195 65.7049 64.4195 69.1634 64.4195 72.6219C64.4195 75.6253 61.9621 78.1737 58.8677 78.1737H57.5935C57.4115 78.1737 57.3205 77.9916 57.3205 77.9006V75.3523C57.3205 75.1702 57.5025 75.0792 57.5935 75.0792H58.8677C60.1419 75.0792 61.234 73.9871 61.234 72.7129V64.8858H53.4069C52.1327 64.8858 51.0405 65.9779 51.0405 67.2521V69.6185C54.317 69.6185 57.6845 69.6185 60.961 69.6185L59.3228 72.4399C59.2317 72.6219 59.0497 72.7129 58.7766 72.7129C55.3181 72.7129 51.9507 72.7129 48.4922 72.7129C48.1281 72.7129 47.8551 72.4399 47.8551 72.0758C47.8551 70.4376 47.8551 68.7993 47.8551 67.1611ZM81.7119 67.1611C81.7119 64.1577 79.2546 61.6093 76.1601 61.6093H68.8791C68.6061 61.6093 68.424 61.7003 68.333 61.8824L66.6948 64.7038H76.1601C77.4343 64.7038 78.5265 65.7959 78.5265 67.0701V69.4364H67.0589C66.8768 69.4364 66.7858 69.6184 66.7858 69.7095V72.2578C66.7858 72.4399 66.9678 72.5309 67.0589 72.5309H81.0748C81.4389 72.5309 81.7119 72.2578 81.7119 71.8938C81.7119 70.4376 81.7119 68.7993 81.7119 67.1611ZM6.17118 64.7948C4.897 64.7948 3.80487 65.8869 3.80487 67.1611C3.80487 68.4353 4.897 69.5274 6.17118 69.5274H13.9983V64.7948H6.17118ZM16.5467 72.7129H6.17118C3.16775 72.7129 0.619385 70.2556 0.619385 67.1611C0.619385 64.1577 3.07674 61.6093 6.17118 61.6093H11.905C12.178 61.6093 12.3601 61.7003 12.4511 61.8824L14.0893 64.7038V60.3351C14.0893 60.1531 14.2713 60.0621 14.3623 60.0621H16.9107C17.0927 60.0621 17.1837 60.2441 17.1837 60.3351C17.1837 64.2487 17.1837 68.0712 17.1837 71.9848C17.1837 72.4399 16.9107 72.7129 16.5467 72.7129ZM34.4762 67.1611C34.4762 64.1577 32.0189 61.6093 28.9244 61.6093H21.6434C21.3703 61.6093 21.1883 61.7003 21.0973 61.8824L19.459 64.7038H28.9244C30.1986 64.7038 31.2907 65.7959 31.2907 67.0701V69.4364H19.8231C19.6411 69.4364 19.5501 69.6184 19.5501 69.7095V72.2578C19.5501 72.4399 19.7321 72.5309 19.8231 72.5309H33.8391C34.2032 72.5309 34.4762 72.2578 34.4762 71.8938C34.4762 70.4376 34.4762 68.7993 34.4762 67.1611ZM40.028 72.7129V65.9779C40.028 65.7959 39.846 65.7049 39.755 65.7049H37.2066C37.0245 65.7049 36.9335 65.8869 36.9335 65.9779V72.7129C36.9335 73.9871 35.8414 75.0792 34.5672 75.0792H33.293C33.111 75.0792 33.02 75.2613 33.02 75.3523V77.9006C33.02 78.0827 33.202 78.1737 33.293 78.1737H34.5672C37.5707 78.1737 40.028 75.7163 40.028 72.7129Z" fill="#7F4CFF"/>
</svg>
