<svg width="223" height="66" viewBox="0 0 223 66" fill="none" xmlns="http://www.w3.org/2000/svg">
<path fill-rule="evenodd" clip-rule="evenodd" d="M164.389 30.4829L184.594 65.5228C184.685 65.7049 184.867 65.7959 185.049 65.7959C185.231 65.7959 185.413 65.7049 185.504 65.5228L195.424 48.4124C196.972 45.773 196.972 42.7696 195.424 40.1302L185.049 22.2007H169.213C168.211 22.2007 167.301 22.3827 166.391 22.9288C163.752 24.476 162.842 27.8435 164.389 30.4829Z" fill="#3CDBC0"/>
<path fill-rule="evenodd" clip-rule="evenodd" d="M164.389 30.4828C162.842 27.8435 162.205 25.0221 162.205 22.2007C162.205 19.3793 162.933 16.5579 164.389 13.9185L170.76 2.90593C171.761 1.17668 173.49 0.175537 175.584 0.175537H222.455C222.637 0.175537 222.819 0.266553 222.91 0.448579C223.001 0.630605 223.001 0.812629 222.91 0.994655L212.99 18.1051C211.443 20.7445 208.894 22.2007 205.8 22.2007H169.213C168.211 22.2007 167.301 22.3827 166.391 22.9288C163.752 24.476 162.842 27.8435 164.389 30.4828Z" fill="#3CDBC0"/>
<path fill-rule="evenodd" clip-rule="evenodd" d="M167.573 35.9436L147.368 0.903657C147.277 0.721631 147.095 0.630615 146.913 0.630615C146.731 0.630615 146.549 0.721631 146.458 0.903657L136.538 18.0141C134.99 20.6535 134.99 23.6569 136.538 26.2963L159.2 65.5228C159.291 65.7049 159.473 65.7959 159.655 65.7959C159.837 65.7959 160.019 65.7049 160.11 65.5228L167.573 52.508C170.576 47.3203 170.576 41.2224 167.573 35.9436Z" fill="#3CDBC0"/>
<path fill-rule="evenodd" clip-rule="evenodd" d="M207.256 60.3351L206.164 62.7924L205.071 60.3351H204.434H203.342V65.7959H204.434V61.6093L205.89 64.7037H206.528L206.801 64.0666L207.893 61.6093V65.7959H208.985V60.3351H207.893H207.256ZM197.79 60.3351H202.159V61.4272H200.521V65.7959H199.429V61.4272H197.79V60.3351Z" fill="#7F4CFF"/>
<path fill-rule="evenodd" clip-rule="evenodd" d="M164.389 30.4829L184.594 65.5228C184.685 65.7049 184.867 65.7959 185.049 65.7959C185.231 65.7959 185.413 65.7049 185.504 65.5228L195.424 48.4124C196.972 45.773 196.972 42.7696 195.424 40.1302L185.049 22.2007H169.213C168.211 22.2007 167.301 22.3827 166.391 22.9288C163.752 24.476 162.842 27.8435 164.389 30.4829Z" fill="#7F4CFF"/>
<path fill-rule="evenodd" clip-rule="evenodd" d="M57.63 26.2052V22.5647C57.63 22.2916 57.448 22.1096 57.175 22.1096H53.5345C53.2614 22.1096 53.0794 22.2916 53.0794 22.5647V26.2052C53.0794 26.4782 53.2614 26.6603 53.5345 26.6603H57.175C57.448 26.6603 57.63 26.4782 57.63 26.2052ZM60.9975 39.8571V18.014C60.9975 17.741 61.1796 17.559 61.4526 17.559H65.0931C65.3661 17.559 65.5482 17.741 65.5482 18.014V39.8571C65.5482 40.1302 65.3661 40.3122 65.0931 40.3122H61.4526C61.2706 40.3122 60.9975 40.1302 60.9975 39.8571ZM69.0067 32.3941C69.0067 28.0254 72.5562 24.4759 76.9248 24.4759H91.9419C92.397 24.4759 92.8521 24.84 92.8521 25.3861C92.8521 30.3918 92.8521 35.3975 92.8521 40.4032C92.8521 44.7718 89.3025 48.3213 84.9339 48.3213H83.1137C82.8406 48.3213 82.6586 48.1393 82.6586 47.8663V44.2257C82.6586 43.9527 82.8406 43.7707 83.1137 43.7707H84.9339C86.8452 43.7707 88.3014 42.2235 88.3014 40.4032V29.0266H76.9248C75.0135 29.0266 73.5573 30.5738 73.5573 32.3941V35.7615C78.29 35.7615 83.1137 35.7615 87.8463 35.7615L85.48 39.8571C85.298 40.1302 85.0249 40.3122 84.6609 40.3122C79.7462 40.3122 74.7405 40.3122 69.8258 40.3122C69.3707 40.3122 68.9156 39.9481 68.9156 39.4021C69.0067 37.0357 69.0067 34.7604 69.0067 32.3941ZM117.79 32.3941C117.79 28.0254 114.24 24.4759 109.871 24.4759H99.405C99.0409 24.4759 98.7679 24.658 98.5859 24.931L96.2195 29.0266H109.871C111.783 29.0266 113.239 30.5738 113.239 32.3941V35.7615H96.6746C96.4016 35.7615 96.2195 35.9436 96.2195 36.2166V39.8571C96.2195 40.1302 96.4016 40.3122 96.6746 40.3122H116.879C117.335 40.3122 117.79 39.9481 117.79 39.4021C117.79 37.0357 117.79 34.7604 117.79 32.3941ZM8.75609 28.9356C6.84482 28.9356 5.38861 30.4828 5.38861 32.3031C5.38861 34.1233 6.93583 35.6705 8.75609 35.6705H20.1327V28.8446H8.75609V28.9356ZM23.7732 40.3122H8.75609C4.38747 40.3122 0.837967 36.7627 0.837967 32.3941C0.837967 28.0254 4.38747 24.4759 8.75609 24.4759H16.9473C17.3113 24.4759 17.5843 24.658 17.7664 24.931L20.1327 29.0266V22.6557C20.1327 22.3826 20.3147 22.2006 20.5878 22.2006H24.2283C24.5013 22.2006 24.6834 22.3826 24.6834 22.6557C24.6834 28.2985 24.6834 33.8503 24.6834 39.4931C24.6834 39.9481 24.3193 40.3122 23.7732 40.3122ZM49.7119 32.3941C49.7119 28.0254 46.1624 24.4759 41.7938 24.4759H31.3273C30.9632 24.4759 30.6902 24.658 30.5082 24.931L28.1418 29.0266H41.7938C43.7051 29.0266 45.1613 30.5738 45.1613 32.3941V35.7615H28.5969C28.3239 35.7615 28.1418 35.9436 28.1418 36.2166V39.8571C28.1418 40.1302 28.3239 40.3122 28.5969 40.3122H48.8018C49.2568 40.3122 49.7119 39.9481 49.7119 39.4021C49.7119 37.0357 49.7119 34.7604 49.7119 32.3941ZM57.63 40.3122V30.5738C57.63 30.3008 57.448 30.1187 57.175 30.1187H53.5345C53.2614 30.1187 53.0794 30.3008 53.0794 30.5738V40.3122C53.0794 42.2235 51.5322 43.6797 49.7119 43.6797H47.8917C47.6186 43.6797 47.4366 43.8617 47.4366 44.1347V47.7753C47.4366 48.0483 47.6186 48.2303 47.8917 48.2303H49.7119C54.0805 48.2303 57.63 44.6808 57.63 40.3122Z" fill="#7F4CFF"/>
</svg>
