<svg width="74" height="99" viewBox="0 0 74 99" fill="none" xmlns="http://www.w3.org/2000/svg">
<path fill-rule="evenodd" clip-rule="evenodd" d="M26.9234 21.3885L41.1215 45.962C41.2125 46.053 41.3035 46.1441 41.4855 46.1441C41.6675 46.1441 41.7586 46.053 41.8496 45.962L48.7665 33.9483C49.8587 32.1281 49.8587 29.9438 48.7665 28.1235L41.4855 15.5637H30.3819C29.7448 15.5637 29.0168 15.7458 28.3797 16.1098C26.4684 17.1109 25.8313 19.4773 26.9234 21.3885Z" fill="#3CDBC0"/>
<path fill-rule="evenodd" clip-rule="evenodd" d="M26.923 21.3886C25.8309 19.5683 25.3758 17.566 25.3758 15.5638C25.3758 13.5615 25.8309 11.5592 26.923 9.73893L31.3827 2.00283C32.1108 0.728649 33.294 0.0915527 34.7502 0.0915527H67.6058C67.7878 0.0915527 67.8789 0.182549 67.9699 0.273562C68.0609 0.364575 68.0609 0.546623 67.9699 0.637636L61.0529 12.6513C59.9607 14.4716 58.1405 15.5638 56.0472 15.5638H30.3815C29.7444 15.5638 29.0164 15.7458 28.3793 16.1098C26.468 17.111 25.8309 19.4773 26.923 21.3886Z" fill="#3CDBC0"/>
<path fill-rule="evenodd" clip-rule="evenodd" d="M29.1991 25.2111L15.0011 0.637603C14.91 0.54659 14.819 0.455566 14.637 0.455566C14.455 0.455566 14.364 0.54659 14.273 0.637603L7.35595 12.6513C6.2638 14.4716 6.2638 16.6559 7.35595 18.4761L23.1922 45.962C23.2832 46.053 23.3742 46.1441 23.5562 46.1441C23.7383 46.1441 23.8293 46.053 23.9203 45.962L29.1991 36.8607C31.2924 33.1292 31.2924 28.9426 29.1991 25.2111Z" fill="#3CDBC0"/>
<path fill-rule="evenodd" clip-rule="evenodd" d="M57.0483 42.3214L56.2292 44.0507L55.4101 42.3214H54.955H54.2269V46.144H54.955V43.2315L55.9562 45.4158H56.4112L56.5933 44.9608L57.4124 43.2315V46.144H58.1405V42.3214H57.4124H57.0483ZM50.4044 42.3214H53.4988V43.0495H52.3157V46.144H51.5876V43.0495H50.4044V42.3214Z" fill="#7F4CFF"/>
<path fill-rule="evenodd" clip-rule="evenodd" d="M26.9234 21.3885L41.1215 45.962C41.2125 46.053 41.3035 46.1441 41.4855 46.1441C41.6675 46.1441 41.7586 46.053 41.8496 45.962L48.7665 33.9483C49.8587 32.1281 49.8587 29.9438 48.7665 28.1235L41.4855 15.5637H30.3819C29.7448 15.5637 29.0168 15.7458 28.3797 16.1098C26.4684 17.1109 25.8313 19.4773 26.9234 21.3885Z" fill="#7F4CFF"/>
<path fill-rule="evenodd" clip-rule="evenodd" d="M36.2063 63.8007V61.5253C36.2063 61.3433 36.1153 61.2523 35.9333 61.2523H33.658C33.476 61.2523 33.385 61.3433 33.385 61.5253V63.8007C33.385 63.9827 33.476 64.0737 33.658 64.0737H35.9333C36.1153 64.0737 36.2063 63.9827 36.2063 63.8007ZM38.3907 72.3559V58.7039C38.3907 58.5219 38.4817 58.4309 38.6637 58.4309H40.939C41.121 58.4309 41.212 58.5219 41.212 58.7039V72.3559C41.212 72.5379 41.121 72.6289 40.939 72.6289H38.6637C38.4817 72.6289 38.3907 72.5379 38.3907 72.3559ZM43.3053 67.6232C43.3053 64.8928 45.4897 62.7085 48.2201 62.7085H57.5944C57.8674 62.7085 58.1404 62.9815 58.1404 63.2546C58.1404 66.349 58.1404 69.4435 58.1404 72.6289C58.1404 75.3593 55.9562 77.5436 53.2258 77.5436H52.1336C51.9516 77.5436 51.8606 77.4526 51.8606 77.2706V74.9952C51.8606 74.8132 51.9516 74.7222 52.1336 74.7222H53.2258C54.4089 74.7222 55.319 73.8121 55.319 72.6289V65.5299H48.2201C47.0369 65.5299 46.1268 66.44 46.1268 67.6232V69.7165C49.1302 69.7165 52.0426 69.7165 55.046 69.7165L53.5898 72.2649C53.4988 72.4469 53.3167 72.5379 53.1347 72.5379C50.0403 72.5379 46.9459 72.5379 43.8514 72.5379C43.5784 72.5379 43.3053 72.2649 43.3053 71.9918C43.3053 70.6266 43.3053 69.1704 43.3053 67.6232ZM73.7947 67.6232C73.7947 64.8928 71.6104 62.7085 68.88 62.7085H62.3271C62.145 62.7085 61.963 62.7995 61.872 62.9816L60.4157 65.5299H68.88C70.0632 65.5299 70.9733 66.44 70.9733 67.6232V69.7165H60.5978C60.4158 69.7165 60.3248 69.8075 60.3248 69.9895V72.2649C60.3248 72.4469 60.4158 72.5379 60.5978 72.5379H73.2486C73.5216 72.5379 73.7947 72.2649 73.7947 71.9918C73.7947 70.6266 73.7947 69.1704 73.7947 67.6232ZM5.80799 65.5299C4.62482 65.5299 3.7147 66.44 3.7147 67.6232C3.7147 68.8064 4.62482 69.7165 5.80799 69.7165H12.907V65.4389H5.80799V65.5299ZM15.0913 72.6289H5.717C2.98661 72.6289 0.802307 70.4446 0.802307 67.7142C0.802307 64.9838 2.98661 62.7995 5.717 62.7995H10.8137C10.9957 62.7995 11.1778 62.8905 11.2688 63.0725L12.725 65.6209V61.6164C12.725 61.4343 12.816 61.3433 12.998 61.3433H15.2734C15.4554 61.3433 15.5464 61.4343 15.5464 61.6164C15.5464 65.0749 15.5464 68.6244 15.5464 72.0828C15.7284 72.3559 15.4554 72.6289 15.0913 72.6289ZM31.2916 67.6232C31.2916 64.8928 29.1073 62.7085 26.3769 62.7085H19.824C19.642 62.7085 19.46 62.7995 19.3689 62.9816L17.9128 65.5299H26.3769C27.5601 65.5299 28.4702 66.44 28.4702 67.6232V69.7165H18.0947C17.9127 69.7165 17.8217 69.8075 17.8217 69.9895V72.2649C17.8217 72.4469 17.9127 72.5379 18.0947 72.5379H30.7456C31.0186 72.5379 31.2916 72.2649 31.2916 71.9918C31.2916 70.6266 31.2916 69.1704 31.2916 67.6232ZM36.2063 72.6289V66.5311C36.2063 66.349 36.1153 66.258 35.9333 66.258H33.658C33.476 66.258 33.385 66.349 33.385 66.5311V72.6289C33.385 73.8121 32.4748 74.7222 31.2916 74.7222H30.1995C30.0175 74.7222 29.9264 74.8132 29.9264 74.9952V77.2706C29.9264 77.4526 30.0175 77.5436 30.1995 77.5436H31.2916C34.022 77.5436 36.2063 75.3593 36.2063 72.6289Z" fill="#7F4CFF"/>
<path fill-rule="evenodd" clip-rule="evenodd" d="M20.3694 98.3856H17.1839C16.9109 98.3856 16.7289 98.2035 16.7289 97.9305C16.7289 94.654 16.7289 91.3775 16.7289 88.1011C16.7289 88.0101 16.8199 87.9191 16.9109 87.9191H18.5491C18.6401 87.9191 18.7312 88.0101 18.7312 88.1011V96.2013H20.2784C21.0975 96.2013 21.8256 95.4731 21.8256 94.654V88.1011C21.8256 88.0101 21.9166 87.9191 22.0077 87.9191H23.6459C23.7369 87.9191 23.8279 88.0101 23.8279 88.1011V94.654C24.0099 96.7473 22.3717 98.3856 20.3694 98.3856ZM29.1976 94.745V88.1921C29.1976 88.1011 29.1066 88.0101 29.0156 88.0101H27.3774C27.2864 88.0101 27.1953 88.1011 27.1953 88.1921V94.745C27.1953 95.5642 26.4673 96.2922 25.6482 96.2922H23.7369L24.829 98.2035C24.92 98.2945 25.0111 98.3856 25.1931 98.3856H25.6482C27.5594 98.3856 29.1976 96.7473 29.1976 94.745ZM42.7586 98.0215V88.1921C42.7586 88.1011 42.8496 88.0101 42.9406 88.0101H44.5789C44.6699 88.0101 44.7609 88.1011 44.7609 88.1921V96.2922H47.1272C47.2182 96.2922 47.3092 96.3833 47.3092 96.4743V98.1125C47.3092 98.2035 47.2182 98.2945 47.1272 98.2945C45.762 98.2945 44.3968 98.2945 43.0316 98.2945C42.9406 98.3855 42.7586 98.2035 42.7586 98.0215ZM32.2011 98.3856H39.3911C39.4821 98.3856 39.5731 98.2945 39.5731 98.2035V96.5653C39.5731 96.4743 39.4821 96.3833 39.3911 96.3833H33.9303V94.199H39.4821C39.5731 94.199 39.6641 94.1079 39.6641 94.0169V92.3787C39.6641 92.2877 39.5731 92.1967 39.4821 92.1967H35.3865C35.2045 92.1967 35.1135 92.2877 35.0225 92.3787L33.9303 94.199V91.1045C33.9303 90.5584 34.3854 90.1034 34.9314 90.1034H39.3911C39.4821 90.1034 39.5731 90.0123 39.5731 89.9213V88.2831C39.5731 88.1921 39.4821 88.1011 39.3911 88.1011H34.9314C33.2022 88.1011 31.837 89.4663 31.837 91.1955C31.837 93.4709 31.837 95.7462 31.837 98.1125C31.837 98.2035 32.019 98.3856 32.2011 98.3856ZM55.2274 88.1921V92.6517C55.2274 94.654 53.5891 96.2922 51.5869 96.2922V88.1921C51.5869 88.1011 51.4958 88.0101 51.4048 88.0101H49.7666C49.6756 88.0101 49.5846 88.1011 49.5846 88.1921V98.0215C49.5846 98.2945 49.7666 98.4766 50.0396 98.4766H51.6779C54.8633 98.4766 57.4117 95.9282 57.4117 92.7427V88.2831C57.4117 88.1921 57.3206 88.1011 57.2296 88.1011H55.5914C55.3184 88.0101 55.2274 88.1011 55.2274 88.1921ZM60.3241 98.3856H67.5141C67.6051 98.3856 67.6961 98.2945 67.6961 98.2035V96.5653C67.6961 96.4743 67.6051 96.3833 67.5141 96.3833H61.9623V94.199H67.5141C67.6051 94.199 67.6961 94.1079 67.6961 94.0169V92.3787C67.6961 92.2877 67.6051 92.1967 67.5141 92.1967H63.4185C63.2365 92.1967 63.1455 92.2877 63.0545 92.3787L61.9623 94.29V91.1955C61.9623 90.6495 62.4174 90.1944 62.9635 90.1944H67.4231C67.5141 90.1944 67.6051 90.1034 67.6051 90.0124V88.3741C67.6051 88.2831 67.5141 88.1921 67.4231 88.1921H63.0545C61.3252 88.1921 59.96 89.5573 59.96 91.2865C59.96 93.5619 59.96 95.8372 59.96 98.2035C59.96 98.2035 60.1421 98.3856 60.3241 98.3856ZM9.72091 98.2035V90.1034H7.08151C6.9905 90.1034 6.89948 90.0123 6.89948 89.9213V88.2831C6.89948 88.1921 6.9905 88.1011 7.08151 88.1011H14.4535C14.5446 88.1011 14.6356 88.1921 14.6356 88.2831V89.9213C14.6356 90.0123 14.5446 90.1034 14.4535 90.1034H11.8142V98.2035C11.8142 98.2945 11.7232 98.3856 11.6322 98.3856H9.99394C9.81191 98.3856 9.72091 98.2945 9.72091 98.2035Z" fill="#7F4CFF"/>
</svg>
