<svg width="89" height="73" viewBox="0 0 89 73" fill="none" xmlns="http://www.w3.org/2000/svg">
<path fill-rule="evenodd" clip-rule="evenodd" d="M19.7193 72.8533H14.9866C14.6226 72.8533 14.3496 72.5803 14.3496 72.2162C14.3496 67.4836 14.3496 62.6599 14.3496 57.9272C14.3496 57.7452 14.4406 57.6542 14.6226 57.6542H17.08C17.262 57.6542 17.353 57.7452 17.353 57.9272V69.7589H19.6283C20.9025 69.7589 21.9037 68.7578 21.9037 67.4836V57.9272C21.9037 57.7452 21.9947 57.6542 22.1767 57.6542H24.634C24.8161 57.6542 24.9071 57.7452 24.9071 57.9272V67.4836C24.9981 70.487 22.6317 72.8533 19.7193 72.8533ZM32.6432 67.5746V58.0182C32.6432 57.8362 32.5522 57.7452 32.3701 57.7452H29.9128C29.7308 57.7452 29.6397 57.8362 29.6397 58.0182V67.5746C29.6397 68.8488 28.6386 69.8499 27.3644 69.8499H24.543L26.0902 72.5803C26.1812 72.7623 26.3633 72.8533 26.6363 72.8533H27.3644C30.2768 72.8533 32.6432 70.487 32.6432 67.5746ZM52.393 72.3073V58.0182C52.393 57.8362 52.484 57.7452 52.666 57.7452H55.1234C55.3054 57.7452 55.3964 57.8362 55.3964 58.0182V69.8499H58.8549C59.0369 69.8499 59.1279 69.9409 59.1279 70.123V72.5803C59.1279 72.7623 59.0369 72.8533 58.8549 72.8533C56.8526 72.8533 54.9413 72.8533 52.939 72.8533C52.666 72.8533 52.393 72.5803 52.393 72.3073ZM37.0118 72.8533H47.4783C47.6603 72.8533 47.7513 72.7623 47.7513 72.5803V70.123C47.7513 69.9409 47.6603 69.8499 47.4783 69.8499H39.4691V66.8465H47.4783C47.6603 66.8465 47.7513 66.7555 47.7513 66.5735V64.1161C47.7513 63.9341 47.6603 63.8431 47.4783 63.8431H41.5624C41.3804 63.8431 41.1074 63.9341 41.0164 64.1161L39.4691 66.8465V62.2958C39.4691 61.4767 40.1062 60.7486 41.0164 60.7486H47.5693C47.7513 60.7486 47.8423 60.6576 47.8423 60.4756V58.0182C47.8423 57.8362 47.7513 57.7452 47.5693 57.7452H41.0164C38.468 57.7452 36.4657 59.7475 36.4657 62.2958C36.4657 65.6633 36.4657 68.9398 36.4657 72.3073C36.4657 72.5803 36.7387 72.8533 37.0118 72.8533ZM70.5956 58.0182V64.5712C70.5956 67.4836 68.2292 69.8499 65.3168 69.8499V58.0182C65.3168 57.8362 65.2258 57.7452 65.0437 57.7452H62.5864C62.4044 57.7452 62.3134 57.8362 62.3134 58.0182V72.3073C62.3134 72.6713 62.5864 72.9444 62.9505 72.9444H65.4078C70.0495 72.9444 73.781 69.2128 73.781 64.5712V58.0182C73.781 57.8362 73.69 57.7452 73.508 57.7452H71.0506C70.6866 57.7452 70.5956 57.8362 70.5956 58.0182ZM78.0586 72.8533H88.5251C88.7072 72.8533 88.7982 72.7623 88.7982 72.5803V70.123C88.7982 69.9409 88.7072 69.8499 88.5251 69.8499H80.425V66.8465H88.4341C88.6161 66.8465 88.7071 66.7555 88.7071 66.5735V64.1161C88.7071 63.9341 88.6161 63.8431 88.4341 63.8431H82.5182C82.3362 63.8431 82.0632 63.9341 81.9722 64.1161L80.425 66.8465V62.2958C80.425 61.4767 81.0621 60.7486 81.9722 60.7486H88.5251C88.7072 60.7486 88.7982 60.6576 88.7982 60.4756V58.0182C88.7982 57.8362 88.7072 57.7452 88.5251 57.7452H81.9722C79.4238 57.7452 77.4215 59.7475 77.4215 62.2958C77.4215 65.6633 77.4215 68.9398 77.4215 72.3073C77.4215 72.5803 77.6946 72.8533 78.0586 72.8533ZM4.15613 72.5803V60.7486H0.333575C0.151549 60.7486 0.0605469 60.6576 0.0605469 60.4756V58.0182C0.0605469 57.8362 0.151549 57.7452 0.333575 57.7452H11.0731C11.2551 57.7452 11.3461 57.8362 11.3461 58.0182V60.4756C11.3461 60.6576 11.2551 60.7486 11.0731 60.7486H7.15954V72.5803C7.15954 72.7623 7.06854 72.8533 6.88652 72.8533H4.42916C4.33814 72.8533 4.15613 72.7623 4.15613 72.5803Z" fill="#7F4CFF"/>
<path fill-rule="evenodd" clip-rule="evenodd" d="M34.1912 21.9772L48.2071 46.2777C48.2981 46.3687 48.3892 46.4597 48.5712 46.4597C48.7532 46.4597 48.8443 46.3687 48.9353 46.2777L55.7613 34.446C56.8534 32.6257 56.8534 30.5324 55.7613 28.7122L48.5712 16.2434H37.5587C36.9216 16.2434 36.1935 16.4254 35.5564 16.7895C33.7361 17.8816 33.099 20.157 34.1912 21.9772Z" fill="#3CDBC0"/>
<path fill-rule="evenodd" clip-rule="evenodd" d="M34.191 21.9771C33.1899 20.1569 32.6438 18.1546 32.6438 16.2433C32.6438 14.332 33.0989 12.3297 34.191 10.5095L38.6506 2.8644C39.3787 1.68123 40.5619 0.953125 41.9271 0.953125H74.4188C74.6008 0.953125 74.6918 1.04414 74.7828 1.13515C74.8738 1.22616 74.8738 1.4082 74.7828 1.49921L67.9568 13.3309C66.8647 15.1511 65.1354 16.2433 62.9511 16.2433H37.6495C37.0124 16.2433 36.2843 16.4253 35.6472 16.7894C33.7359 17.8815 33.0989 20.1569 34.191 21.9771Z" fill="#3CDBC0"/>
<path fill-rule="evenodd" clip-rule="evenodd" d="M36.3753 25.7997L22.3593 1.4993C22.2683 1.40828 22.1773 1.31726 21.9952 1.31726C21.8132 1.31726 21.7222 1.40828 21.6312 1.4993L14.8053 13.331C13.7131 15.1512 13.7131 17.2445 14.8053 19.0648L30.4594 46.2776C30.5505 46.3687 30.6415 46.4597 30.8235 46.4597C31.0055 46.4597 31.0966 46.3687 31.1876 46.2776L36.3753 37.2674C38.4686 33.6269 38.4686 29.5313 36.3753 25.7997Z" fill="#3CDBC0"/>
<path fill-rule="evenodd" clip-rule="evenodd" d="M63.8605 42.7281L63.0414 44.3664L62.2222 42.7281H61.7672H61.0391V46.5507H61.7672V43.6383L62.7683 45.7316H63.2234L63.4054 45.2765L64.2245 43.6383V46.5507H64.9526V42.7281H64.2245H63.8605ZM57.3986 42.7281H60.402V43.4563H59.3098V46.4597H58.5817V43.4563H57.4896V42.7281H57.3986Z" fill="#7F4CFF"/>
<path fill-rule="evenodd" clip-rule="evenodd" d="M34.1912 21.9772L48.2071 46.2777C48.2981 46.3687 48.3892 46.4597 48.5712 46.4597C48.7532 46.4597 48.8443 46.3687 48.9353 46.2777L55.7613 34.446C56.8534 32.6257 56.8534 30.5324 55.7613 28.7122L48.5712 16.2434H37.5587C36.9216 16.2434 36.1935 16.4254 35.5564 16.7895C33.7361 17.8816 33.099 20.157 34.1912 21.9772Z" fill="#7F4CFF"/>
</svg>
