<svg width="148" height="36" viewBox="0 0 148 36" fill="none" xmlns="http://www.w3.org/2000/svg">
<path fill-rule="evenodd" clip-rule="evenodd" d="M139.273 31.6056L138.713 32.8655L138.153 31.6056H137.826H137.266V34.4055H137.826V32.2589L138.573 33.8455H138.9L139.04 33.5188L139.6 32.2589V34.4055H140.16V31.6056H139.6H139.273ZM134.42 31.6056H136.66V32.1656H135.82V34.4055H135.26V32.1656H134.42V31.6056Z" fill="white"/>
<path fill-rule="evenodd" clip-rule="evenodd" d="M44.226 15.7668V12.9435C44.226 12.7866 44.0669 12.6297 43.9078 12.6297H41.0443C40.8852 12.6297 40.7261 12.7866 40.7261 12.9435V15.7668C40.7261 15.9237 40.8852 16.0805 41.0443 16.0805H43.9078C44.0669 16.0805 44.226 15.9237 44.226 15.7668ZM46.9305 26.1977V9.49263C46.9305 9.33577 47.0896 9.17892 47.2486 9.17892H50.1122C50.2713 9.17892 50.4304 9.33577 50.4304 9.49263V26.1977C50.4304 26.3545 50.2713 26.5114 50.1122 26.5114H47.2486C47.0896 26.5898 46.9305 26.433 46.9305 26.1977ZM53.0553 20.4725C53.0553 17.1001 55.8393 14.3551 59.2597 14.3551H70.9525C71.3502 14.3551 71.6684 14.6688 71.6684 15.061C71.6684 18.9039 71.6684 22.7469 71.6684 26.5898C71.6684 29.9622 68.8844 32.7071 65.464 32.7071H64.0322C63.8732 32.7071 63.7141 32.5503 63.7141 32.3934V29.57C63.7141 29.4132 63.8732 29.2563 64.0322 29.2563H65.464C66.8958 29.2563 68.089 28.0799 68.089 26.6682V17.9628H59.2597C57.8279 17.9628 56.6347 19.1392 56.6347 20.5509V23.139C60.3733 23.139 64.0323 23.139 67.7708 23.139L65.9413 26.2761C65.7822 26.5114 65.6231 26.5898 65.3049 26.5898C61.4869 26.5898 57.5893 26.5898 53.7712 26.5898C53.3735 26.5898 53.0553 26.2761 53.0553 25.884C53.0553 24.0801 53.0553 22.2763 53.0553 20.4725ZM91.0769 20.4725C91.0769 17.1001 88.2929 14.3551 84.8726 14.3551H76.7592C76.5205 14.3551 76.2819 14.512 76.1228 14.6688L74.2933 17.8059H84.8726C86.3044 17.8059 87.4975 18.9824 87.4975 20.3941V22.9821H74.6115C74.4524 22.9821 74.2933 23.139 74.2933 23.2959V26.1192C74.2933 26.2761 74.4524 26.4329 74.6115 26.4329H90.3611C90.7588 26.4329 91.0769 26.1192 91.0769 25.7271C91.0769 24.0801 91.0769 22.2763 91.0769 20.4725ZM6.28391 17.8844C4.85214 17.8844 3.65899 19.0608 3.65899 20.4725C3.65899 21.8842 4.85214 23.0606 6.28391 23.0606H15.1132V17.8059H6.28391V17.8844ZM17.8972 26.5898H6.20436C2.78401 26.5898 0 23.8448 0 20.4725C0 17.1001 2.78401 14.3551 6.20436 14.3551H12.5678C12.8064 14.3551 13.0451 14.512 13.2042 14.6688L15.0337 17.8059V12.9435C15.0337 12.7866 15.1927 12.6297 15.3518 12.6297H18.2154C18.3745 12.6297 18.5336 12.7866 18.5336 12.9435C18.5336 17.257 18.5336 21.5705 18.5336 25.8055C18.6131 26.2761 18.2949 26.5898 17.8972 26.5898ZM38.1012 20.4725C38.1012 17.1001 35.3172 14.3551 31.8968 14.3551H23.7834C23.5448 14.3551 23.3062 14.512 23.1471 14.6688L21.3176 17.8059H31.8968C33.3286 17.8059 34.5217 18.9824 34.5217 20.3941V22.9821H21.6357C21.4767 22.9821 21.3176 23.139 21.3176 23.2959V26.1192C21.3176 26.2761 21.4767 26.4329 21.6357 26.4329H37.3853C37.783 26.4329 38.1012 26.1192 38.1012 25.7271C38.1012 24.0801 38.1012 22.2763 38.1012 20.4725ZM44.226 26.5898V19.0608C44.226 18.9039 44.0669 18.7471 43.9078 18.7471H41.0443C40.8852 18.7471 40.7261 18.9039 40.7261 19.0608V26.5898C40.7261 28.0015 39.533 29.1779 38.1012 29.1779H36.6694C36.5103 29.1779 36.3512 29.3348 36.3512 29.4916V32.315C36.3512 32.4719 36.5103 32.6287 36.6694 32.6287H38.1012C41.5215 32.6287 44.226 29.9622 44.226 26.5898Z" fill="white"/>
<path fill-rule="evenodd" clip-rule="evenodd" d="M117.33 16.503L126.158 31.7606C126.205 31.855 126.297 31.9022 126.39 31.9022C126.483 31.9022 126.576 31.855 126.622 31.7606L131.673 22.8853C132.461 21.5163 132.461 19.9584 131.673 18.5893L127.849 12.207H119.786C119.276 12.207 118.813 12.3014 118.349 12.5846C117.005 13.3872 116.542 15.1339 117.33 16.503Z" fill="#D6D6D6"/>
<path d="M120.309 3.44285C120.861 2.2658 121.782 1.09371 123.144 0.903314C131.373 0.923132 139.604 0.870048 147.832 0.930209C148.174 1.12981 147.906 1.53607 147.776 1.79796C146.204 4.44083 144.708 7.12688 143.158 9.78178C142.621 10.8498 141.71 11.7169 140.621 12.1996C140.469 12.2808 140.212 12.3233 140.038 12.3659C133.447 12.5407 126.845 12.3949 120.25 12.4381C119.287 12.356 118.287 12.7035 117.655 13.4495C117.024 14.1354 116.898 15.1001 116.992 15.9912C115.479 13.2759 116.386 10.0055 117.958 7.53173C118.72 6.15579 119.537 4.81242 120.309 3.44285Z" fill="#FDFDFD"/>
<path d="M106.488 4.27713C107.087 3.33577 107.527 2.2748 108.263 1.43466C110.177 4.65367 112.02 7.93214 113.897 11.1802C115.102 12.912 115.972 14.8689 117.16 16.616C117.962 18.086 118.882 19.4896 119.617 20.9964C120.615 23.0434 120.669 25.3898 119.607 27.4621C118.199 30.1064 116.602 32.653 115.18 35.2859C114.966 35.5867 114.667 35.3263 114.571 35.0602C110.682 28.3341 106.816 21.5952 102.937 14.8635C102.259 13.8011 102.053 12.4662 102.519 11.2757C103.756 8.89827 105.185 6.6199 106.488 4.27713Z" fill="#FDFDFD"/>
<path d="M122.78 25.5617C124.95 21.884 126.996 18.1136 129.219 14.4799C129.971 15.7645 130.709 17.0548 131.454 18.343C132.335 19.9546 133.349 21.4954 134.152 23.1509C134.543 23.9583 134.52 24.6879 134.165 25.4229C133.294 27.2214 132.224 28.906 131.247 30.6443C130.365 32.2071 129.437 33.7592 128.562 35.3185C128.343 35.5917 128.086 35.2838 127.99 35.0602C126.222 32.0039 124.498 28.9159 122.724 25.8858C122.662 25.7705 122.71 25.6586 122.78 25.5617Z" fill="#FDFDFD"/>
</svg>
