<svg width="179" height="58" viewBox="0 0 179 58" fill="none" xmlns="http://www.w3.org/2000/svg">
<path fill-rule="evenodd" clip-rule="evenodd" d="M164.548 51.2576L163.62 53.3444L162.693 51.2576H162.152H161.224V55.8949H162.152V52.3397L163.388 54.9675H163.929L164.161 54.4265L165.089 52.3397V55.8949H166.016V51.2576H165.089H164.548ZM156.51 51.2576H160.22V52.1851H158.828V55.8949H157.901V52.1851H156.51V51.2576Z" fill="white"/>
<path fill-rule="evenodd" clip-rule="evenodd" d="M42.9725 10.2946V7.51227C42.9725 7.35769 42.8179 7.20309 42.6633 7.20309H39.8809C39.7264 7.20309 39.5718 7.35769 39.5718 7.51227V10.2946C39.5718 10.4492 39.7264 10.6038 39.8809 10.6038H42.6633C42.8179 10.6038 42.9725 10.4492 42.9725 10.2946ZM45.6003 20.574V4.11155C45.6003 3.95697 45.7549 3.8024 45.9095 3.8024H48.6918C48.8464 3.8024 49.001 3.95697 49.001 4.11155V20.574C49.001 20.7286 48.8464 20.8832 48.6918 20.8832H45.9095C45.7549 20.9605 45.6003 20.8059 45.6003 20.574ZM51.5515 14.932C51.5515 11.6085 54.2566 8.90345 57.58 8.90345H68.9415C69.3279 8.90345 69.6371 9.2126 69.6371 9.59905C69.6371 13.3862 69.6371 17.1733 69.6371 20.9605C69.6371 24.2839 66.932 26.989 63.6086 26.989H62.2174C62.0628 26.989 61.9082 26.8344 61.9082 26.6798V23.8974C61.9082 23.7429 62.0628 23.5883 62.2174 23.5883H63.6086C64.9998 23.5883 66.1591 22.429 66.1591 21.0378V12.4587H57.58C56.1888 12.4587 55.0295 13.6181 55.0295 15.0093V17.5598C58.6621 17.5598 62.2174 17.5598 65.8499 17.5598L64.0723 20.6513C63.9177 20.8832 63.7631 20.9605 63.454 20.9605C59.7441 20.9605 55.957 20.9605 52.2471 20.9605C51.8607 20.9605 51.5515 20.6513 51.5515 20.2649C51.5515 18.4873 51.5515 16.7096 51.5515 14.932ZM88.4955 14.932C88.4955 11.6085 85.7904 8.90345 82.467 8.90345H74.5835C74.3517 8.90345 74.1198 9.05803 73.9652 9.2126L72.1876 12.3041H82.467C83.8582 12.3041 85.0175 13.4635 85.0175 14.8547V17.4052H72.4967C72.3422 17.4052 72.1876 17.5598 72.1876 17.7144V20.4967C72.1876 20.6513 72.3422 20.8059 72.4967 20.8059H87.7999C88.1863 20.8059 88.4955 20.4967 88.4955 20.1103C88.4955 18.4872 88.4955 16.7096 88.4955 14.932ZM6.1058 12.3814C4.71461 12.3814 3.55528 13.5408 3.55528 14.932C3.55528 16.3232 4.71461 17.4825 6.1058 17.4825H14.6848V12.3041H6.1058V12.3814ZM17.3899 20.9605H6.02851C2.7051 20.9605 0 18.2554 0 14.932C0 11.6085 2.7051 8.90345 6.02851 8.90345H12.2116C12.4435 8.90345 12.6753 9.05803 12.8299 9.2126L14.6076 12.3041V7.51227C14.6076 7.35769 14.7621 7.20309 14.9167 7.20309H17.6991C17.8537 7.20309 18.0083 7.35769 18.0083 7.51227C18.0083 11.7631 18.0083 16.014 18.0083 20.1876C18.0855 20.6513 17.7764 20.9605 17.3899 20.9605ZM37.0213 14.932C37.0213 11.6085 34.3162 8.90345 30.9927 8.90345H23.1093C22.8774 8.90345 22.6456 9.05803 22.491 9.2126L20.7134 12.3041H30.9927C32.3839 12.3041 33.5433 13.4635 33.5433 14.8547V17.4052H21.0225C20.8679 17.4052 20.7134 17.5598 20.7134 17.7144V20.4967C20.7134 20.6513 20.8679 20.8059 21.0225 20.8059H36.3257C36.7121 20.8059 37.0213 20.4967 37.0213 20.1103C37.0213 18.4872 37.0213 16.7096 37.0213 14.932ZM42.9725 20.9605V13.5408C42.9725 13.3862 42.8179 13.2316 42.6633 13.2316H39.8809C39.7264 13.2316 39.5718 13.3862 39.5718 13.5408V20.9605C39.5718 22.3517 38.4125 23.511 37.0213 23.511H35.6301C35.4755 23.511 35.3209 23.6656 35.3209 23.8202V26.6025C35.3209 26.7571 35.4755 26.9117 35.6301 26.9117H37.0213C40.3447 26.9117 42.9725 24.2839 42.9725 20.9605Z" fill="white"/>
<path fill-rule="evenodd" clip-rule="evenodd" d="M21.7406 48.3207H16.9941C16.6218 48.3207 16.3426 48.0362 16.3426 47.6568C16.3426 42.8204 16.3426 37.9839 16.3426 33.1474C16.3426 32.9578 16.4356 32.863 16.6218 32.863H19.0416C19.2277 32.863 19.3208 32.9578 19.3208 33.1474V45.1912H21.5545C22.8575 45.1912 23.7882 44.148 23.7882 42.9152V33.1474C23.7882 32.9578 23.8813 32.863 24.0674 32.863H26.4872C26.6733 32.863 26.7664 32.9578 26.7664 33.1474V42.9152C27.0456 45.855 24.7189 48.3207 21.7406 48.3207ZM34.6774 42.9152V33.1474C34.6774 32.9578 34.5843 32.863 34.3982 32.863H31.8853C31.6991 32.863 31.6061 32.9578 31.6061 33.1474V42.9152C31.6061 44.2429 30.5823 45.1912 29.3724 45.1912H26.5803L28.1625 47.9414C28.2555 48.131 28.4417 48.2259 28.7209 48.2259H29.3724C32.2576 48.3207 34.6774 45.855 34.6774 42.9152ZM54.4082 47.6568V33.1474C54.4082 32.9578 54.5013 32.863 54.6874 32.863H57.1073C57.2934 32.863 57.3865 32.9578 57.3865 33.1474V45.1912H60.9231C61.1093 45.1912 61.2024 45.286 61.2024 45.4757V47.9414C61.2024 48.131 61.1093 48.2259 60.9231 48.2259C58.9687 48.2259 57.0142 48.2259 54.9667 48.2259C54.6874 48.3207 54.4082 48.0362 54.4082 47.6568ZM39.0517 48.3207H49.5686C49.7547 48.3207 49.8478 48.2259 49.8478 48.0362V45.4757C49.8478 45.286 49.7547 45.1912 49.5686 45.1912H41.4715V42.0617H49.5686C49.7547 42.0617 49.8478 41.9669 49.8478 41.7772V39.3116C49.8478 39.1219 49.7547 39.0271 49.5686 39.0271H43.6121C43.426 39.0271 43.2398 39.1219 43.0537 39.3116L41.4715 42.0617V37.4149C41.4715 36.5614 42.123 35.8976 42.9606 35.8976H49.4755C49.6617 35.8976 49.7547 35.8028 49.7547 35.6131V33.1474C49.7547 32.9578 49.6617 32.863 49.4755 32.863H42.9606C40.4477 32.863 38.4002 34.9493 38.4002 37.5098C38.4002 40.9237 38.4002 44.3377 38.4002 47.7517C38.4932 48.0362 38.7725 48.3207 39.0517 48.3207ZM72.65 33.1474V39.7857C72.65 42.8204 70.2302 45.1912 67.345 45.1912V33.1474C67.345 32.9578 67.2519 32.863 67.0658 32.863H64.6459C64.4598 32.863 64.3667 32.9578 64.3667 33.1474V47.6568C64.3667 48.0362 64.646 48.3207 65.0182 48.3207H67.438C72.0916 48.3207 75.8144 44.5274 75.8144 39.7857V33.1474C75.8144 32.9578 75.7213 32.863 75.5351 32.863H73.1153C72.743 32.863 72.65 32.9578 72.65 33.1474ZM80.0956 48.3207H90.6125C90.7986 48.3207 90.8917 48.2259 90.8917 48.0362V45.4757C90.8917 45.286 90.7986 45.1912 90.6125 45.1912H82.5154V42.0617H90.6125C90.7986 42.0617 90.8917 41.9669 90.8917 41.7772V39.3116C90.8917 39.1219 90.7986 39.0271 90.6125 39.0271H84.656C84.4699 39.0271 84.2837 39.1219 84.0976 39.3116L82.5154 42.0617V37.4149C82.5154 36.5614 83.1669 35.8976 84.0045 35.8976H90.5194C90.7056 35.8976 90.7986 35.8028 90.7986 35.6131V33.1474C90.7986 32.9578 90.7056 32.863 90.5194 32.863H84.0045C81.4916 32.863 79.4441 34.9493 79.4441 37.5098C79.4441 40.9237 79.4441 44.3377 79.4441 47.7517C79.4441 48.0362 79.7233 48.3207 80.0956 48.3207ZM6.19792 48.0362V35.9924H2.28898C2.10284 35.9924 2.00977 35.8976 2.00977 35.7079V33.1474C2.00977 32.9578 2.10284 32.863 2.28898 32.863H13.0851C13.2713 32.863 13.3643 32.9578 13.3643 33.1474V35.6131C13.3643 35.8028 13.2713 35.8976 13.0851 35.8976H9.17617V47.9414C9.17617 48.131 9.0831 48.2259 8.89696 48.2259H6.47713C6.29099 48.3207 6.19792 48.131 6.19792 48.0362Z" fill="white"/>
<path fill-rule="evenodd" clip-rule="evenodd" d="M128.205 26.2436L142.828 51.5142C142.905 51.6706 143.058 51.7488 143.212 51.7488C143.365 51.7488 143.519 51.6706 143.595 51.5142L151.961 36.8144C153.266 34.5469 153.266 31.9666 151.961 29.6991L145.628 19.1283H132.273C131.429 19.1283 130.661 19.2847 129.894 19.7538C127.668 21.083 126.9 23.9761 128.205 26.2436Z" fill="#D6D6D6"/>
<path d="M133.138 4.61262C134.053 2.66312 135.579 0.721817 137.834 0.406473C151.464 0.439297 165.097 0.351376 178.725 0.45102C179.291 0.781604 178.848 1.45449 178.632 1.88824C176.028 6.26554 173.55 10.7143 170.983 15.1116C170.093 16.8805 168.585 18.3166 166.781 19.1161C166.53 19.2506 166.103 19.3211 165.815 19.3916C154.9 19.6811 143.965 19.4396 133.041 19.5112C131.447 19.3752 129.79 19.9508 128.743 21.1863C127.699 22.3223 127.489 23.9201 127.645 25.396C125.139 20.8987 126.641 15.4821 129.245 11.3849C130.507 9.10598 131.86 6.88099 133.138 4.61262Z" fill="#FDFDFD"/>
<path d="M110.248 5.9944C111.241 4.43526 111.97 2.67801 113.187 1.28651C116.357 6.61805 119.411 12.0481 122.519 17.4277C124.515 20.296 125.956 23.5371 127.923 26.4308C129.252 28.8656 130.776 31.1902 131.993 33.686C133.645 37.0763 133.735 40.9626 131.976 44.3948C129.644 48.7745 127 52.9923 124.644 57.3532C124.29 57.8514 123.795 57.42 123.636 56.9793C117.194 45.8391 110.79 34.6778 104.367 23.5282C103.243 21.7686 102.903 19.5577 103.675 17.5859C105.723 13.6482 108.089 9.87465 110.248 5.9944Z" fill="#FDFDFD"/>
<path d="M137.232 41.2472C140.827 35.156 144.215 28.9113 147.897 22.8928C149.143 25.0205 150.364 27.1576 151.598 29.2911C153.058 31.9604 154.737 34.5124 156.067 37.2544C156.715 38.5915 156.677 39.8 156.088 41.0174C154.646 43.9962 152.874 46.7862 151.256 49.6654C149.794 52.2538 148.259 54.8246 146.809 57.4071C146.445 57.8596 146.02 57.3497 145.86 56.9792C142.934 51.9173 140.078 46.8026 137.139 41.7841C137.037 41.593 137.116 41.4078 137.232 41.2472Z" fill="#FDFDFD"/>
</svg>
