<svg width="234" height="67" viewBox="0 0 234 67" fill="none" xmlns="http://www.w3.org/2000/svg">
<path fill-rule="evenodd" clip-rule="evenodd" d="M29.1318 44.5506H22.3058C21.8507 44.5506 21.3957 44.1865 21.3957 43.6404C21.3957 36.8145 21.3957 29.8975 21.3957 23.0715C21.3957 22.7985 21.5777 22.6165 21.8507 22.6165H25.3092C25.5823 22.6165 25.7643 22.7985 25.7643 23.0715V40.1819H29.0408C30.861 40.1819 32.3172 38.7258 32.3172 36.9055V23.0715C32.3172 22.7985 32.4993 22.6165 32.7723 22.6165H36.2308C36.5038 22.6165 36.6859 22.7985 36.6859 23.0715V36.9055C36.8679 41.0921 33.4094 44.5506 29.1318 44.5506ZM47.7894 36.9055V23.0715C47.7894 22.7985 47.6074 22.6165 47.3344 22.6165H43.8759C43.6028 22.6165 43.4208 22.7985 43.4208 23.0715V36.9055C43.4208 38.7258 41.9646 40.1819 40.1444 40.1819H36.1398L38.4151 44.0955C38.5971 44.3686 38.8702 44.5506 39.1432 44.5506H40.1444C44.3309 44.5506 47.7894 41.0921 47.7894 36.9055ZM76.2765 43.7315V23.0715C76.2765 22.7985 76.4585 22.6165 76.7315 22.6165H80.19C80.4631 22.6165 80.6451 22.7985 80.6451 23.0715V40.1819H85.6508C85.9239 40.1819 86.1059 40.364 86.1059 40.637V44.1865C86.1059 44.4596 85.9239 44.6416 85.6508 44.6416C82.8294 44.6416 79.917 44.6416 77.0956 44.6416C76.6405 44.5506 76.2765 44.1865 76.2765 43.7315ZM54.1603 44.5506H69.2685C69.5415 44.5506 69.7235 44.3686 69.7235 44.0955V40.546C69.7235 40.273 69.5415 40.0909 69.2685 40.0909H57.6188V35.8133H69.2685C69.5415 35.8133 69.7235 35.6313 69.7235 35.3583V31.8998C69.7235 31.6267 69.5415 31.4447 69.2685 31.4447H60.7133C60.3492 31.4447 60.0762 31.6267 59.9852 31.8998L57.7098 35.8133V29.2604C57.7098 28.0772 58.711 27.0761 59.8942 27.0761H69.2685C69.5415 27.0761 69.7235 26.8941 69.7235 26.621V23.0715C69.7235 22.7985 69.5415 22.6165 69.2685 22.6165H59.8942C56.2536 22.6165 53.3412 25.5289 53.3412 29.1694C53.3412 33.9931 53.3412 38.8168 53.3412 43.6404C53.2502 44.1865 53.6143 44.5506 54.1603 44.5506ZM102.488 23.0715V32.4459C102.488 36.7235 99.0297 40.0909 94.8431 40.0909V23.0715C94.8431 22.7985 94.6611 22.6165 94.388 22.6165H90.9296C90.6565 22.6165 90.4745 22.7985 90.4745 23.0715V43.6404C90.4745 44.0955 90.8385 44.5506 91.3846 44.5506H94.8431C101.487 44.5506 106.857 39.1808 106.857 32.5369V23.0715C106.857 22.7985 106.675 22.6165 106.402 22.6165H102.943C102.761 22.7075 102.488 22.8895 102.488 23.0715ZM113.228 44.5506H128.336C128.609 44.5506 128.791 44.3686 128.791 44.0955V40.546C128.791 40.273 128.609 40.0909 128.336 40.0909H116.686V35.8133H128.336C128.609 35.8133 128.791 35.6313 128.791 35.3583V31.8998C128.791 31.6267 128.609 31.4447 128.336 31.4447H119.781C119.417 31.4447 119.144 31.6267 119.053 31.8998L116.777 35.8133V29.2604C116.777 28.0772 117.778 27.0761 118.962 27.0761H128.336C128.609 27.0761 128.791 26.8941 128.791 26.621V23.0715C128.791 22.7985 128.609 22.6165 128.336 22.6165H118.962C115.321 22.6165 112.409 25.5289 112.409 29.1694C112.409 33.9931 112.409 38.8168 112.409 43.6404C112.409 44.1865 112.773 44.5506 113.228 44.5506ZM6.7426 44.0955V26.9851H1.19081C0.917774 26.9851 0.735748 26.8031 0.735748 26.53V23.0715C0.735748 22.7985 0.917774 22.6165 1.19081 22.6165H16.754C17.0271 22.6165 17.2091 22.7985 17.2091 23.0715V26.53C17.2091 26.8031 17.0271 26.9851 16.754 26.9851H11.2022V44.0955C11.2022 44.3686 11.0202 44.5506 10.7472 44.5506H7.28868C6.92462 44.5506 6.7426 44.3686 6.7426 44.0955Z" fill="#7F4CFF"/>
<path fill-rule="evenodd" clip-rule="evenodd" d="M175.39 31.1717L195.594 66.2117C195.685 66.3937 195.867 66.4847 196.049 66.4847C196.232 66.4847 196.414 66.3937 196.505 66.2117L206.425 49.1013C207.972 46.4619 207.972 43.4584 206.425 40.8191L196.049 22.8895H180.213C179.212 22.8895 178.302 23.0716 177.392 23.6176C174.752 25.0738 173.842 28.5323 175.39 31.1717Z" fill="#3CDBC0"/>
<path fill-rule="evenodd" clip-rule="evenodd" d="M175.39 31.1717C173.842 28.5323 173.205 25.7109 173.205 22.8895C173.205 20.0681 173.933 17.2467 175.39 14.6073L181.76 3.59477C182.762 1.86552 184.491 0.86438 186.584 0.86438H233.456C233.638 0.86438 233.82 0.955382 233.911 1.13741C234.002 1.31943 234.002 1.50146 233.911 1.68349L223.99 18.7939C222.443 21.4333 219.895 22.8895 216.8 22.8895H180.213C179.212 22.8895 178.302 23.0715 177.392 23.6176C174.752 25.0738 173.842 28.5323 175.39 31.1717Z" fill="#3CDBC0"/>
<path fill-rule="evenodd" clip-rule="evenodd" d="M178.575 36.6325L158.37 1.59249C158.279 1.41046 158.097 1.31946 157.915 1.31946C157.733 1.31946 157.551 1.41046 157.46 1.59249L147.54 18.7029C145.993 21.3423 145.993 24.3457 147.54 26.9851L170.202 66.2117C170.293 66.3937 170.475 66.4847 170.657 66.4847C170.839 66.4847 171.021 66.3937 171.112 66.2117L178.575 53.1968C181.579 47.9181 181.579 41.9112 178.575 36.6325Z" fill="#3CDBC0"/>
<path fill-rule="evenodd" clip-rule="evenodd" d="M218.256 61.0239L217.164 63.4813L216.072 61.0239H215.435H214.343V66.4847H215.435V62.2981L216.891 65.3925H217.528L217.801 64.7554L218.893 62.2981V66.4847H219.986V61.0239H218.893H218.256ZM208.791 61.0239H213.16V62.1161H211.521V66.4847H210.429V62.1161H208.791V61.0239Z" fill="#7F4CFF"/>
<path fill-rule="evenodd" clip-rule="evenodd" d="M175.39 31.1717L195.594 66.2117C195.685 66.3937 195.867 66.4847 196.049 66.4847C196.232 66.4847 196.414 66.3937 196.505 66.2117L206.425 49.1013C207.972 46.4619 207.972 43.4584 206.425 40.8191L196.049 22.8895H180.213C179.212 22.8895 178.302 23.0716 177.392 23.6176C174.752 25.0738 173.842 28.5323 175.39 31.1717Z" fill="#7F4CFF"/>
</svg>
