<?xml version="1.0" encoding="UTF-8" ?>
<!DOCTYPE svg PUBLIC "-//W3C//DTD SVG 1.1//EN" "http://www.w3.org/Graphics/SVG/1.1/DTD/svg11.dtd">
<svg width="470pt" height="558pt" viewBox="0 0 470 558" version="1.1" xmlns="http://www.w3.org/2000/svg">
<path fill="#1e479c" opacity="1.00" d=" M 319.94 2.35 C 337.96 -2.17 357.66 1.61 373.01 11.99 C 395.58 27.35 418.21 42.62 440.75 58.02 C 461.01 71.98 472.34 97.62 469.05 122.00 C 466.33 141.01 460.26 159.39 452.61 176.95 C 458.72 188.78 458.91 203.45 453.31 215.51 C 447.49 227.34 437.13 237.76 423.98 240.84 C 419.23 242.19 414.29 241.49 409.46 241.55 C 397.76 253.63 384.98 264.74 370.83 273.89 C 360.94 280.63 349.27 284.81 337.32 285.60 C 278.30 366.82 219.31 448.04 160.28 529.24 C 149.75 543.53 133.64 553.66 116.09 556.54 C 100.09 559.35 83.15 556.09 69.26 547.70 C 52.56 537.91 40.29 520.87 36.49 501.87 C 35.42 498.00 35.62 493.96 34.85 490.05 C 34.62 475.76 38.31 461.30 46.07 449.21 C 97.81 364.58 149.51 279.91 201.24 195.27 C 201.85 194.42 202.00 193.51 201.67 192.53 C 199.10 183.27 197.84 173.49 199.36 163.94 C 201.89 146.14 207.28 128.83 214.46 112.38 C 215.10 110.97 215.94 109.38 214.89 107.90 C 210.70 98.61 210.13 87.89 212.46 78.04 C 216.96 59.90 234.10 45.39 252.99 45.21 C 255.29 44.91 258.19 45.96 259.91 43.86 C 268.08 35.34 276.80 27.31 286.29 20.25 C 296.47 12.63 307.33 5.18 319.94 2.35 M 308.04 25.07 C 296.57 32.24 286.15 40.95 276.36 50.24 C 310.14 73.26 344.08 96.04 377.86 119.06 C 382.36 121.68 382.99 128.71 379.03 132.08 C 376.24 134.84 371.63 134.79 368.56 132.51 C 335.81 110.25 303.05 88.00 270.26 65.79 C 263.18 61.76 254.40 60.63 246.54 62.78 C 238.06 65.07 231.50 72.27 228.71 80.44 C 224.45 93.17 230.97 107.98 242.24 114.78 C 293.87 149.80 345.47 184.88 397.11 219.88 C 404.52 225.21 414.45 226.08 422.97 223.18 C 432.18 219.58 439.37 210.99 440.70 201.12 C 442.08 192.92 439.54 184.19 433.99 178.00 C 430.38 173.85 425.45 171.25 421.02 168.12 C 413.13 162.70 405.16 157.38 397.25 151.98 C 393.40 149.70 392.06 144.13 394.70 140.46 C 396.86 136.98 401.81 135.53 405.37 137.77 C 417.45 145.66 429.07 154.31 441.27 161.99 C 445.54 150.96 449.22 139.66 451.52 128.04 C 452.80 121.47 454.09 114.71 453.03 108.00 C 451.45 93.24 443.13 79.29 430.78 71.02 C 408.83 56.03 386.78 41.17 364.82 26.20 C 354.48 19.05 341.44 15.49 328.96 17.41 C 321.47 18.08 314.39 21.17 308.04 25.07 M 226.97 124.59 C 223.28 133.82 220.16 143.28 217.92 152.97 C 216.35 159.86 214.83 166.85 215.09 173.96 C 215.11 190.40 224.10 206.26 237.64 215.40 C 260.08 230.59 282.46 245.86 304.91 261.03 C 320.37 271.49 341.74 272.15 357.83 262.70 C 370.22 255.20 381.59 246.07 391.93 235.94 C 337.14 198.82 282.31 161.75 227.69 124.38 C 227.51 124.43 227.15 124.54 226.97 124.59 M 201.76 225.69 C 161.97 290.81 122.18 355.93 82.39 421.06 C 104.80 436.12 127.06 451.40 149.44 466.49 C 151.96 468.18 154.66 470.64 154.53 473.95 C 155.11 480.01 147.56 484.96 142.37 481.40 C 119.47 466.09 96.77 450.45 73.92 435.05 C 68.85 442.95 64.17 451.10 59.17 459.05 C 51.12 471.98 49.16 488.39 53.52 502.94 C 57.91 517.92 69.35 530.56 83.65 536.72 C 92.81 541.00 103.13 541.40 113.04 540.41 C 126.63 538.16 139.14 530.49 147.29 519.38 C 203.94 441.40 260.62 363.43 317.25 285.44 C 317.38 285.04 317.62 284.23 317.74 283.83 C 308.59 282.20 300.10 277.83 292.59 272.46 C 270.92 257.76 249.26 243.05 227.60 228.34 C 222.77 224.96 218.42 220.91 214.61 216.42 C 213.16 214.85 212.30 212.45 210.04 211.91 C 207.47 216.62 204.45 221.05 201.76 225.69 Z" />
<path fill="#1e479c" opacity="1.00" d=" M 48.15 105.07 C 52.16 98.25 60.04 93.87 67.97 94.34 C 75.65 94.28 82.92 98.85 86.73 105.43 C 91.18 113.09 94.67 121.55 101.35 127.64 C 107.85 134.61 117.04 137.83 124.78 143.07 C 134.69 150.15 136.68 165.61 129.02 175.03 C 124.93 180.59 118.20 182.89 112.49 186.32 C 104.12 190.99 97.01 197.93 92.48 206.42 C 88.92 212.41 86.55 219.59 80.61 223.75 C 74.84 228.19 66.83 229.22 59.99 226.92 C 54.11 224.80 48.97 220.22 46.73 214.32 C 45.75 210.79 47.80 207.19 50.57 205.12 C 52.98 204.32 55.71 203.88 58.11 204.93 C 61.09 206.23 62.13 209.81 64.92 211.37 C 67.26 211.89 70.19 211.85 71.75 209.73 C 74.85 205.60 76.77 200.74 79.47 196.36 C 85.55 185.87 94.75 177.30 105.39 171.54 C 108.79 169.52 112.57 168.08 115.62 165.52 C 118.49 163.13 118.03 158.11 114.90 156.17 C 111.40 153.88 107.60 152.13 104.02 149.97 C 92.92 143.81 83.72 134.30 77.82 123.07 C 75.72 119.53 74.20 115.61 71.59 112.39 C 69.14 109.57 64.17 110.09 62.32 113.33 C 59.00 118.45 56.63 124.14 53.19 129.20 C 47.50 137.73 39.76 144.89 30.80 149.90 C 27.07 152.18 23.00 153.89 19.46 156.47 C 16.24 158.64 16.54 164.12 19.78 166.15 C 26.06 170.36 33.04 173.49 39.09 178.05 C 41.71 180.02 43.01 183.61 42.00 186.77 C 41.33 189.37 39.02 190.96 37.13 192.65 C 31.06 193.77 26.76 188.96 21.84 186.39 C 16.15 182.74 9.26 180.36 5.30 174.57 C -1.73 165.27 0.06 150.54 9.45 143.46 C 17.07 137.97 26.40 134.89 33.03 127.99 C 39.92 121.70 43.56 112.97 48.15 105.07 Z" />
<path fill="#20dca5" opacity="1.00" d=" M 62.32 113.33 C 64.17 110.09 69.14 109.57 71.59 112.39 C 74.20 115.61 75.72 119.53 77.82 123.07 C 83.72 134.30 92.92 143.81 104.02 149.97 C 107.60 152.13 111.40 153.88 114.90 156.17 C 118.03 158.11 118.49 163.13 115.62 165.52 C 112.57 168.08 108.79 169.52 105.39 171.54 C 94.75 177.30 85.55 185.87 79.47 196.36 C 76.77 200.74 74.85 205.60 71.75 209.73 C 70.19 211.85 67.26 211.89 64.92 211.37 C 62.13 209.81 61.09 206.23 58.11 204.93 C 55.71 203.88 52.98 204.32 50.57 205.12 C 45.80 201.30 41.69 196.73 37.13 192.65 C 39.02 190.96 41.33 189.37 42.00 186.77 C 43.01 183.61 41.71 180.02 39.09 178.05 C 33.04 173.49 26.06 170.36 19.78 166.15 C 16.54 164.12 16.24 158.64 19.46 156.47 C 23.00 153.89 27.07 152.18 30.80 149.90 C 39.76 144.89 47.50 137.73 53.19 129.20 C 56.63 124.14 59.00 118.45 62.32 113.33 Z" />
<path fill="#20dca5" opacity="1.00" d=" M 54.19 262.21 C 59.11 261.15 64.14 260.28 69.20 260.46 C 74.00 264.85 77.84 270.48 83.76 273.47 C 84.87 274.37 85.64 275.61 86.56 276.70 C 86.09 279.24 85.62 281.79 85.37 284.37 C 79.69 288.88 74.71 294.50 68.04 297.57 C 66.31 296.68 64.24 296.35 62.79 295.03 C 61.42 292.94 61.49 290.18 59.94 288.19 C 57.30 284.94 54.13 282.09 51.84 278.58 C 51.06 275.71 50.08 272.84 49.84 269.86 C 50.46 267.46 51.25 265.09 51.86 262.69 C 52.45 262.57 53.61 262.33 54.19 262.21 Z" />
<path fill="#1e479c" opacity="1.00" d=" M 180.44 326.74 C 189.33 324.37 199.08 325.59 207.24 329.81 C 220.56 337.35 226.98 354.66 222.28 369.16 C 220.62 375.20 216.59 380.11 213.30 385.32 C 205.43 397.09 197.64 408.92 189.77 420.70 C 184.79 427.76 177.58 433.71 168.94 435.42 C 159.92 436.81 150.21 435.52 142.51 430.41 C 134.83 425.38 129.69 416.96 128.06 407.99 C 126.32 399.22 128.61 389.93 133.58 382.58 C 142.93 368.59 152.31 354.63 161.66 340.65 C 166.15 334.13 172.69 328.78 180.44 326.74 M 175.03 350.00 C 171.16 356.11 166.75 361.89 163.16 368.17 C 175.19 368.26 186.63 376.21 191.65 387.03 C 193.34 386.33 194.13 384.61 195.11 383.19 C 198.36 378.14 201.88 373.26 205.00 368.13 C 208.71 362.32 208.95 353.98 204.31 348.59 C 200.80 344.34 195.63 341.11 190.02 340.78 C 183.78 340.75 178.23 344.86 175.03 350.00 M 156.09 385.16 C 150.66 387.01 146.05 391.51 144.54 397.11 C 142.06 404.36 145.50 412.99 151.94 417.00 C 157.69 420.94 165.99 420.67 171.55 416.49 C 177.05 412.59 179.88 405.46 179.18 398.85 C 177.67 388.57 165.70 382.12 156.09 385.16 Z" />
<path fill="#1e479c" opacity="1.00" d=" M 404.64 372.99 C 409.88 371.78 415.60 372.68 420.03 375.81 C 424.95 378.86 427.02 384.53 429.75 389.34 C 432.84 395.27 437.51 400.39 443.28 403.81 C 447.91 406.82 453.45 408.62 457.17 412.88 C 464.25 420.65 463.23 434.35 454.85 440.80 C 449.55 444.68 443.14 446.84 438.21 451.27 C 432.70 455.82 429.55 462.37 426.27 468.56 C 423.04 474.81 416.17 479.22 409.03 478.75 C 403.74 479.09 398.67 476.49 395.07 472.76 C 392.21 469.45 390.59 465.33 388.41 461.59 C 385.15 455.48 380.12 450.31 374.05 446.96 C 369.53 444.20 364.27 442.31 360.87 438.06 C 355.34 431.65 354.96 421.63 359.79 414.73 C 362.83 409.89 368.38 407.80 373.08 405.01 C 379.60 401.54 385.09 396.12 388.55 389.59 C 390.86 385.61 392.48 381.09 395.92 377.89 C 398.29 375.47 401.40 373.90 404.64 372.99 M 408.50 389.46 C 403.49 395.57 400.31 403.01 394.77 408.73 C 388.61 415.67 380.01 419.57 372.82 425.27 C 373.46 426.27 374.17 427.23 375.19 427.88 C 381.21 432.54 388.32 435.76 393.54 441.42 C 400.01 447.54 403.42 455.97 409.13 462.71 C 412.40 459.02 415.00 454.80 417.58 450.61 C 421.72 443.93 427.39 438.20 434.08 434.06 C 438.18 431.57 442.09 428.76 445.87 425.80 C 439.24 419.70 430.53 416.29 424.45 409.53 C 418.30 403.69 415.18 395.55 409.61 389.25 C 409.34 389.30 408.78 389.41 408.50 389.46 Z" />
<path fill="#20dca5" opacity="1.00" d=" M 408.50 389.46 C 408.78 389.41 409.34 389.30 409.61 389.25 C 415.18 395.55 418.30 403.69 424.45 409.53 C 430.53 416.29 439.24 419.70 445.87 425.80 C 442.09 428.76 438.18 431.57 434.08 434.06 C 427.39 438.20 421.72 443.93 417.58 450.61 C 415.00 454.80 412.40 459.02 409.13 462.71 C 403.42 455.97 400.01 447.54 393.54 441.42 C 388.32 435.76 381.21 432.54 375.19 427.88 C 374.17 427.23 373.46 426.27 372.82 425.27 C 380.01 419.57 388.61 415.67 394.77 408.73 C 400.31 403.01 403.49 395.57 408.50 389.46 Z" />
</svg>
