<svg width="39" height="39" viewBox="0 0 39 39" fill="none" xmlns="http://www.w3.org/2000/svg">
<path d="M5.98877 6.39912C8.9341 3.36975 12.9389 1.33601 17.1543 0.894858C19.6296 0.730945 22.1698 0.706661 24.5743 1.40076C35.6072 4.25356 42.0482 17.9804 36.6676 28.1733C34.8262 31.9879 31.6783 35.1245 27.8822 37.0004C23.8414 39.1697 18.6104 39.4609 14.2515 38.1559C11.8997 37.484 9.65321 36.3812 7.74098 34.8513C6.38175 33.6594 5.06912 32.3885 3.99551 30.9315C1.30542 27.0786 -0.0112647 22.234 0.614668 17.5574C1.07247 13.3766 2.98065 9.34957 5.98877 6.39912ZM12.9773 11.1445C9.99555 11.695 7.47156 14.4714 7.52018 17.5513C7.51815 20.1213 7.51208 22.6913 7.5141 25.2613C7.49587 25.7713 7.62957 26.3258 8.06914 26.6374C9.05159 27.5076 10.9375 26.8054 10.9679 25.4576C10.9861 23.0232 10.9598 20.5888 10.9719 18.1564C10.9638 17.3044 11.2029 16.4323 11.7255 15.7503C12.951 14.1577 15.6938 14.1638 16.9274 15.7442C17.4541 16.4242 17.6789 17.3044 17.6668 18.1564C17.6749 20.1841 17.6445 22.2117 17.6728 24.2414C17.6688 24.9295 18.1631 25.5406 18.7768 25.8097C19.8079 26.3318 21.1894 25.3909 21.1266 24.2536C21.155 22.1551 21.1165 20.0546 21.1307 17.956C21.1124 16.5496 22.0888 15.2788 23.3346 14.7061C25.263 13.8279 27.8113 15.4144 27.8032 17.5574C27.8356 20.1153 27.789 22.6751 27.8194 25.233C27.8336 26.1194 28.5791 27.0401 29.5149 27.0037C30.392 27.1312 31.3117 26.35 31.2691 25.4556C31.2813 22.8229 31.2813 20.1861 31.2691 17.5533C31.1982 14.5584 28.9011 11.8022 25.9659 11.1911C24.6006 10.7863 23.1523 11.0717 21.8437 11.5412C20.9038 11.8771 20.1685 12.5732 19.3683 13.1398C18.5722 12.5914 17.8531 11.9054 16.9396 11.5533C15.6897 11.0717 14.2981 10.8147 12.9773 11.1445ZM14.3649 27.8435C15.3048 29.7497 17.5513 30.6685 19.5912 30.6138C21.6229 30.6381 23.8511 29.7396 24.7931 27.8394C24.1408 28.0904 23.5534 28.4688 22.9234 28.7663C21.3231 29.511 19.4797 29.5494 17.766 29.2661C16.5243 29.0718 15.5054 28.3028 14.3649 27.8435Z" fill="#AFB9C5"/>
</svg>
