<svg width="32" height="31" viewBox="0 0 32 31" fill="none" xmlns="http://www.w3.org/2000/svg">
<path d="M5.34341 4.7626C7.67535 2.36412 10.8461 0.753922 14.1836 0.404644C16.1435 0.274867 18.1546 0.255641 20.0584 0.805192C28.7936 3.06387 33.8932 13.932 29.6331 22.0022C28.1752 25.0223 25.6829 27.5057 22.6774 28.9909C19.4781 30.7084 15.3365 30.939 11.8853 29.9058C10.0233 29.3738 8.2447 28.5006 6.73071 27.2894C5.65455 26.3457 4.61529 25.3395 3.76527 24.1859C1.63541 21.1354 0.592935 17.2997 1.08851 13.5971C1.45097 10.2869 2.96176 7.09859 5.34341 4.7626ZM10.8766 8.51973C8.51575 8.95553 6.5174 11.1537 6.55589 13.5923C6.55429 15.627 6.54948 17.6618 6.55108 19.6966C6.53665 20.1004 6.6425 20.5394 6.99053 20.7861C7.76837 21.475 9.26152 20.9191 9.28558 19.852C9.30001 17.9246 9.27916 15.9971 9.28878 14.0713C9.28237 13.3968 9.47162 12.7063 9.8854 12.1663C10.8557 10.9054 13.0273 10.9102 14.004 12.1615C14.421 12.6998 14.599 13.3968 14.5894 14.0713C14.5958 15.6767 14.5717 17.2821 14.5942 18.8891C14.591 19.4338 14.9823 19.9177 15.4683 20.1308C16.2846 20.5442 17.3784 19.7991 17.3287 18.8987C17.3511 17.2372 17.3207 15.5742 17.3319 13.9127C17.3174 12.7992 18.0905 11.793 19.0768 11.3396C20.6037 10.6442 22.6212 11.9004 22.6148 13.5971C22.6405 15.6222 22.6036 17.649 22.6277 19.6742C22.6389 20.3759 23.2291 21.1049 23.97 21.0761C24.6645 21.177 25.3926 20.5586 25.3589 19.8504C25.3686 17.766 25.3686 15.6783 25.3589 13.5939C25.3028 11.2226 23.4841 9.04044 21.1602 8.55658C20.0792 8.23615 18.9325 8.46205 17.8964 8.83376C17.1523 9.09972 16.5701 9.65088 15.9366 10.0995C15.3063 9.6653 14.7369 9.12216 14.0136 8.84337C13.0241 8.46205 11.9222 8.25858 10.8766 8.51973ZM11.9752 21.741C12.7193 23.2503 14.498 23.9776 16.113 23.9344C17.7216 23.9536 19.4858 23.2422 20.2316 21.7378C19.7151 21.9365 19.25 22.2361 18.7513 22.4716C17.4842 23.0612 16.0248 23.0916 14.668 22.8673C13.6848 22.7135 12.8781 22.1047 11.9752 21.741Z" fill="#96FFF0"/>
</svg>
