<?xml version="1.0" encoding="UTF-8" ?>
<!DOCTYPE svg PUBLIC "-//W3C//DTD SVG 1.1//EN" "http://www.w3.org/Graphics/SVG/1.1/DTD/svg11.dtd">
<svg width="531pt" height="534pt" viewBox="0 0 531 534" version="1.1" xmlns="http://www.w3.org/2000/svg">
<path fill="#1e479c" opacity="1.00" d=" M 308.94 12.93 C 319.78 3.20 336.03 -0.10 349.81 4.67 C 354.24 5.70 357.39 10.53 356.41 15.00 C 356.02 17.94 353.37 19.68 351.43 21.60 C 348.95 21.72 346.43 21.92 344.02 21.25 C 337.98 19.71 331.25 19.74 325.61 22.64 C 321.20 24.59 318.14 28.44 314.74 31.69 C 304.88 41.57 294.78 51.22 285.10 61.27 C 302.91 65.91 317.82 81.45 320.57 99.83 C 321.39 104.69 320.62 110.08 323.80 114.25 C 331.43 117.83 340.16 117.42 347.92 120.58 C 356.52 124.08 363.66 131.28 366.60 140.15 C 370.18 150.61 367.42 161.80 368.58 172.54 C 370.22 174.79 372.40 176.58 374.32 178.58 C 392.73 197.22 411.08 215.91 429.61 234.44 C 433.53 237.89 433.71 244.61 429.64 248.02 C 427.10 250.20 423.64 249.71 420.57 249.57 C 418.54 247.88 416.53 246.18 414.70 244.28 C 399.39 228.60 383.88 213.11 368.47 197.52 C 367.88 205.99 368.60 214.50 367.96 222.96 C 367.55 228.33 365.19 233.25 362.76 237.96 C 373.19 248.27 383.47 258.74 393.78 269.17 C 396.76 271.97 398.54 276.50 396.36 280.33 C 395.01 283.83 391.16 284.64 387.95 285.51 C 386.02 284.75 383.94 284.13 382.51 282.54 C 371.39 271.52 360.40 260.37 349.32 249.31 C 343.24 251.56 336.85 252.76 330.47 253.82 C 327.68 254.61 324.43 254.99 322.50 257.41 C 320.60 259.93 320.73 263.27 320.43 266.26 C 333.35 279.43 346.52 292.37 359.42 305.55 C 364.35 310.50 360.89 320.05 353.85 320.40 C 349.35 321.23 346.44 317.17 343.60 314.45 C 335.87 306.94 328.53 299.03 320.66 291.67 C 320.40 327.00 320.21 362.33 320.36 397.66 C 379.27 338.48 438.99 280.12 498.02 221.06 C 502.24 216.60 507.46 212.76 509.94 206.96 C 513.68 198.56 512.43 187.82 506.10 180.98 C 462.97 137.39 419.84 93.81 376.52 50.41 C 374.00 47.78 370.62 45.03 371.09 40.96 C 370.70 37.09 373.92 34.56 376.61 32.43 C 379.31 32.52 382.36 32.12 384.65 33.88 C 387.47 36.23 389.86 39.04 392.51 41.58 C 434.05 83.33 475.32 125.34 516.97 166.98 C 529.41 178.67 533.15 198.41 526.00 213.89 C 522.14 223.10 514.28 229.51 507.47 236.45 C 473.41 270.40 439.06 304.06 405.03 338.03 C 398.86 344.44 392.11 350.35 386.29 357.06 C 385.60 399.02 385.80 441.02 385.53 483.00 C 385.75 495.30 380.96 507.60 372.45 516.48 C 363.65 525.94 350.85 531.60 337.92 531.54 C 309.94 531.49 281.96 531.40 253.99 531.38 C 251.66 531.37 249.39 530.85 247.11 530.44 C 244.84 528.19 242.17 525.53 242.67 522.02 C 242.68 518.85 245.04 516.59 247.12 514.53 C 259.51 511.76 272.95 516.47 284.89 510.96 C 295.09 506.10 302.26 495.37 302.33 483.99 C 302.46 459.47 302.61 434.94 302.56 410.41 C 284.37 410.45 266.17 410.42 247.98 410.27 C 242.75 409.27 237.54 410.79 232.30 410.09 C 224.23 410.72 216.18 409.70 208.13 410.26 C 197.51 409.38 186.80 409.59 176.18 410.21 C 169.82 410.56 163.47 409.08 157.13 409.92 C 154.13 410.34 151.14 409.63 148.14 409.64 C 104.72 409.68 61.29 409.34 17.86 409.51 C 17.83 427.66 17.76 445.82 17.80 463.97 C 17.92 480.21 26.68 496.01 40.22 504.93 C 47.82 510.12 57.03 512.21 66.05 513.16 C 74.57 512.88 83.15 513.80 91.68 513.00 C 98.55 513.69 105.50 512.75 112.37 513.49 C 112.46 513.34 112.64 513.04 112.73 512.90 C 116.13 513.65 119.63 513.34 123.08 513.37 C 151.38 513.44 179.68 513.46 207.98 513.51 C 211.02 513.60 214.57 513.93 216.67 516.44 C 220.72 520.68 218.92 529.22 212.87 530.53 C 207.47 531.88 201.77 531.28 196.27 530.94 C 190.83 531.63 185.40 530.34 179.94 530.75 C 171.59 530.25 163.28 531.94 154.96 530.79 C 124.36 530.49 93.75 530.71 63.15 530.45 C 42.34 528.91 22.16 517.62 11.06 499.76 C 4.31 489.56 1.15 477.50 0.00 465.44 L 0.00 378.34 C 0.79 373.59 0.53 368.78 0.57 363.99 C 0.80 285.32 1.31 206.65 1.47 127.98 C 1.27 113.71 5.55 99.39 13.78 87.71 C 24.52 72.21 42.14 61.79 60.86 59.62 C 65.22 59.20 69.60 59.35 73.97 59.33 C 136.58 59.44 199.19 59.63 261.81 59.67 C 277.47 44.04 293.26 28.54 308.94 12.93 M 118.71 76.55 L 118.64 77.39 C 116.92 77.35 115.19 77.17 113.68 76.23 L 113.62 77.35 C 112.67 77.27 111.73 77.18 110.78 77.09 C 110.37 77.00 109.53 76.80 109.11 76.71 C 95.75 76.61 82.38 76.66 69.01 76.60 C 63.31 77.01 57.50 77.48 52.13 79.60 C 33.75 85.75 20.21 103.69 19.25 123.03 C 19.05 133.01 19.39 143.00 18.83 152.97 C 18.82 232.53 18.23 312.10 18.30 391.66 C 33.89 391.51 49.47 391.78 65.06 391.69 C 67.11 391.69 69.20 391.56 71.18 392.19 C 73.74 391.30 76.34 392.27 78.95 392.27 C 153.50 392.34 228.05 392.61 302.60 392.66 C 302.91 349.09 303.04 305.51 303.23 261.94 C 303.25 251.84 310.10 242.32 319.41 238.62 C 323.07 237.26 327.04 237.05 330.69 235.74 C 332.64 235.60 334.59 235.43 336.44 234.75 C 337.47 234.58 338.50 234.42 339.54 234.29 C 345.65 232.41 350.65 226.49 350.58 219.94 C 350.68 196.94 350.77 173.93 350.73 150.92 C 351.15 144.77 346.84 138.84 341.18 136.72 C 338.85 136.03 336.46 135.58 334.13 134.91 C 329.66 133.93 325.07 133.49 320.69 132.13 C 315.16 129.85 310.05 126.10 307.25 120.69 C 302.49 113.95 304.91 105.23 302.06 97.88 C 300.03 91.03 294.77 85.82 289.17 81.70 C 284.90 79.95 280.75 77.56 275.99 77.54 C 246.01 77.42 216.03 77.38 186.06 77.34 C 185.07 77.33 184.11 77.17 183.18 76.88 C 182.27 76.80 181.36 76.72 180.45 76.64 C 180.41 76.87 180.34 77.32 180.31 77.55 C 179.47 77.46 177.80 77.30 176.96 77.21 C 174.53 76.66 171.90 76.44 169.50 77.24 C 163.87 77.18 158.21 77.63 152.62 76.89 C 141.34 77.78 130.00 77.04 118.71 76.55 M 321.16 421.26 C 319.96 422.15 320.21 423.71 320.15 425.01 C 320.33 445.02 319.65 465.03 319.76 485.05 C 319.87 495.75 314.91 505.53 309.24 514.29 C 311.73 514.15 314.22 514.14 316.70 514.38 L 316.79 513.57 C 321.31 513.90 325.79 514.10 330.31 513.76 C 333.27 514.81 336.50 514.01 339.58 514.37 L 339.77 513.68 C 341.69 513.59 343.60 513.45 345.51 513.21 C 346.41 512.83 347.33 512.47 348.25 512.12 C 349.13 511.77 350.01 511.43 350.90 511.10 C 361.00 506.12 367.94 495.33 368.06 484.03 C 368.25 447.49 368.32 410.95 368.44 374.41 C 352.75 390.10 336.96 405.69 321.16 421.26 Z" />
<path fill="#1e479c" opacity="1.00" d=" M 150.50 178.87 C 159.79 176.78 169.64 176.91 178.96 178.83 C 181.47 179.53 184.01 180.14 186.55 180.75 C 188.92 182.01 191.41 183.04 193.82 184.23 C 217.33 195.06 232.53 221.20 230.84 246.98 C 230.41 260.69 224.97 273.84 216.65 284.62 C 208.68 295.07 197.09 302.32 184.85 306.75 C 181.57 307.85 178.12 308.30 174.72 308.82 C 170.56 310.06 166.08 309.42 161.79 309.57 C 156.43 309.78 151.33 308.01 146.12 307.03 C 143.14 306.49 140.63 304.56 137.61 304.17 C 132.90 301.26 128.04 298.58 123.60 295.26 C 113.18 287.04 105.57 275.49 101.47 262.92 C 96.55 246.09 98.02 227.13 106.85 211.83 C 113.85 198.48 125.86 188.32 139.56 182.32 C 143.09 180.79 146.74 179.64 150.50 178.87 M 158.27 195.27 C 143.43 196.68 130.42 206.24 122.64 218.64 C 113.85 233.69 113.98 253.41 122.66 268.46 C 126.56 274.74 131.86 280.01 137.77 284.41 C 150.98 293.21 168.38 294.52 183.09 288.88 C 191.97 285.68 198.99 278.96 204.80 271.73 C 216.39 255.58 216.50 232.23 205.18 215.92 C 201.34 210.76 196.69 206.19 191.41 202.52 C 181.76 196.18 169.66 193.74 158.27 195.27 Z" />
<path fill="#20dca5" opacity="1.00" d=" M 158.27 195.27 C 169.66 193.74 181.76 196.18 191.41 202.52 C 196.69 206.19 201.34 210.76 205.18 215.92 C 216.50 232.23 216.39 255.58 204.80 271.73 C 198.99 278.96 191.97 285.68 183.09 288.88 C 168.38 294.52 150.98 293.21 137.77 284.41 C 131.86 280.01 126.56 274.74 122.66 268.46 C 113.98 253.41 113.85 233.69 122.64 218.64 C 130.42 206.24 143.43 196.68 158.27 195.27 Z" />
</svg>
