<?xml version="1.0" encoding="UTF-8" ?>
<!DOCTYPE svg PUBLIC "-//W3C//DTD SVG 1.1//EN" "http://www.w3.org/Graphics/SVG/1.1/DTD/svg11.dtd">
<svg width="533pt" height="596pt" viewBox="0 0 533 596" version="1.1" xmlns="http://www.w3.org/2000/svg">
<path fill="#fff" opacity="0.49" d=" M 253.68 0.00 L 280.32 0.00 C 280.82 0.54 281.81 1.61 282.30 2.15 C 274.18 2.55 266.05 2.30 257.93 2.29 C 250.05 1.76 243.98 7.58 236.92 10.03 C 242.01 5.91 248.04 3.25 253.68 0.00 Z" />
<path fill="#fff" opacity="1.00" d=" M 236.92 10.03 C 243.98 7.58 250.05 1.76 257.93 2.29 C 266.05 2.30 274.18 2.55 282.30 2.15 C 290.50 7.33 299.39 11.72 306.15 18.85 C 318.82 30.84 321.60 49.10 323.78 65.57 C 334.41 70.62 346.05 73.12 356.83 77.82 C 369.47 82.48 381.63 88.30 393.67 94.34 C 432.43 115.79 465.84 147.03 489.22 184.72 C 497.94 198.98 506.72 213.47 511.76 229.50 C 511.89 229.19 512.02 228.88 512.16 228.58 C 515.10 237.36 518.53 245.98 520.92 254.93 C 523.76 265.15 526.91 275.42 527.48 286.08 C 527.79 292.05 529.60 297.84 529.61 303.85 C 531.12 315.17 530.54 326.62 530.60 338.00 C 530.76 346.03 529.53 353.99 528.77 361.96 C 528.40 367.53 526.90 373.03 527.50 378.66 C 526.93 377.78 526.39 376.88 525.86 376.00 C 525.25 384.65 523.40 393.20 520.64 401.42 C 518.74 407.07 517.55 412.95 515.27 418.48 C 513.42 423.05 511.71 427.68 510.21 432.38 C 509.99 432.15 509.77 431.93 509.56 431.71 C 506.32 442.23 501.17 452.01 495.58 461.45 C 491.63 468.95 487.55 476.50 481.86 482.84 C 474.60 490.34 468.94 499.20 461.79 506.80 C 447.18 523.03 430.22 536.99 412.13 549.17 C 403.03 554.99 393.79 560.86 383.67 564.77 C 383.90 565.01 384.14 565.26 384.37 565.52 C 377.86 567.71 371.77 570.93 365.35 573.35 C 349.52 579.34 333.32 584.57 316.59 587.37 C 303.47 589.51 290.28 591.92 276.94 591.57 C 273.19 591.27 269.74 592.93 266.13 593.55 C 256.35 594.08 246.66 592.37 236.95 591.47 C 227.51 590.29 218.13 588.60 208.91 586.25 C 201.94 585.03 195.32 582.39 188.34 581.20 C 188.78 581.04 189.22 580.88 189.66 580.72 C 179.16 578.69 169.48 574.01 159.57 570.19 C 140.79 562.07 123.00 551.67 106.71 539.29 C 92.30 528.56 79.54 515.83 67.41 502.64 C 52.08 485.53 39.40 466.14 29.52 445.41 C 25.68 437.36 21.63 429.34 19.31 420.68 C 19.10 420.90 18.90 421.12 18.70 421.34 C 16.91 415.39 14.67 409.57 13.24 403.52 C 13.07 403.87 12.91 404.23 12.74 404.60 C 11.69 399.84 10.33 395.15 9.26 390.40 C 9.06 390.83 8.85 391.26 8.64 391.70 C 8.35 389.17 7.95 386.66 7.55 384.15 C 7.27 384.65 7.00 385.16 6.72 385.67 C 5.93 377.01 2.21 368.82 2.20 360.05 C 2.13 338.37 2.24 316.68 2.15 295.00 C 1.68 286.46 6.07 278.71 6.78 270.30 C 6.92 270.77 7.06 271.25 7.21 271.73 C 8.39 266.57 9.61 261.43 10.86 256.30 C 10.96 256.76 11.06 257.23 11.17 257.71 C 13.28 246.99 17.61 236.92 20.73 226.50 C 20.88 226.83 21.03 227.17 21.18 227.51 C 25.34 214.24 32.17 202.02 39.27 190.12 C 57.49 159.55 81.67 132.14 111.41 112.35 C 113.29 111.30 115.58 109.38 117.79 110.70 C 121.01 112.74 124.07 115.17 126.51 118.12 C 126.92 119.81 125.12 121.03 124.30 122.32 C 111.13 136.49 95.89 148.56 82.79 162.80 C 67.17 179.95 54.17 199.50 44.45 220.57 C 40.94 228.02 37.39 235.51 35.21 243.48 C 35.05 243.12 34.89 242.76 34.73 242.41 C 33.72 246.83 32.33 251.15 31.29 255.56 C 31.11 255.17 30.94 254.78 30.76 254.39 C 29.49 261.29 27.11 267.93 25.84 274.84 C 24.02 284.15 22.28 293.52 21.55 302.99 C 21.01 317.32 21.09 331.67 21.40 346.00 C 21.43 352.60 22.92 359.11 22.56 365.72 C 22.85 365.20 23.14 364.68 23.43 364.17 C 24.12 368.45 24.59 372.77 24.71 377.11 C 25.01 375.06 25.28 373.00 25.50 370.94 C 25.21 376.02 26.33 380.99 26.75 386.02 C 26.97 384.34 27.19 382.66 27.39 380.98 C 27.21 389.48 31.05 397.29 32.71 405.49 C 32.89 405.15 33.08 404.82 33.26 404.48 C 35.84 414.26 39.88 423.56 44.30 432.62 C 67.95 483.37 109.67 525.40 160.11 549.65 C 182.18 559.77 205.47 568.21 229.82 570.31 C 246.09 572.78 262.58 572.85 279.00 572.60 C 288.37 572.78 297.62 571.04 306.92 570.17 C 318.77 567.47 330.73 565.16 342.27 561.24 C 380.46 548.98 415.48 527.18 443.51 498.51 C 449.64 492.56 454.74 485.70 460.06 479.06 C 465.40 472.28 470.52 465.31 474.80 457.81 C 479.11 451.14 483.71 444.60 487.07 437.37 C 492.34 425.33 497.31 413.13 501.38 400.63 C 502.83 396.21 503.74 391.60 503.60 386.94 C 503.83 388.97 504.09 391.00 504.33 393.04 C 504.50 388.33 505.58 383.70 505.61 378.98 C 505.79 380.66 505.98 382.35 506.20 384.04 C 507.65 371.70 510.92 359.52 510.69 347.00 C 510.57 330.68 511.77 314.24 509.38 298.04 C 508.50 288.63 506.47 279.38 504.51 270.15 C 502.03 258.72 497.58 247.88 494.31 236.68 C 494.01 236.92 493.71 237.16 493.42 237.41 C 491.65 230.54 488.48 224.17 485.16 217.94 C 481.58 211.35 479.45 204.03 475.11 197.86 C 460.69 174.70 442.63 153.79 421.57 136.42 C 400.55 119.46 377.19 104.97 351.55 96.18 C 351.85 96.04 352.16 95.90 352.47 95.77 C 340.41 92.65 328.75 87.52 316.27 86.29 C 316.75 86.12 317.23 85.94 317.71 85.77 C 310.43 84.60 303.20 83.04 295.86 82.32 C 285.31 80.78 274.62 81.39 264.00 81.22 C 254.67 81.38 245.26 80.85 236.01 82.31 C 231.29 82.42 226.62 82.99 222.00 83.87 C 224.35 84.16 226.73 84.34 229.09 84.57 C 224.34 84.37 219.56 84.44 214.91 85.55 C 215.89 85.87 216.88 86.18 217.87 86.48 C 214.92 86.34 211.93 86.31 209.05 87.06 C 191.75 91.55 175.10 98.13 158.20 103.91 C 154.56 105.23 150.78 106.20 146.95 106.79 C 146.35 101.86 144.55 97.06 144.61 92.09 C 148.12 89.07 152.52 87.44 156.62 85.41 C 168.80 79.53 181.82 75.73 194.30 70.60 C 198.33 68.99 202.85 68.11 206.18 65.16 C 210.52 60.98 210.32 54.49 211.44 48.99 C 212.98 41.63 214.54 34.04 218.71 27.65 C 223.18 20.34 229.86 14.72 236.92 10.03 M 231.74 43.79 C 229.44 49.38 226.93 55.33 227.71 61.50 C 234.47 61.56 241.25 61.35 248.01 61.82 C 253.30 62.68 258.66 62.29 264.00 62.38 C 277.20 62.35 290.41 62.50 303.61 62.47 C 305.53 44.71 293.05 26.71 275.95 21.87 C 269.36 20.75 262.56 21.14 255.93 21.69 C 244.70 24.15 236.26 33.63 231.74 43.79 Z" />
<path fill="#fff" opacity="1.00" d=" M 222.94 127.81 C 232.30 126.76 241.53 124.47 251.00 124.38 C 267.48 124.18 284.07 123.60 300.39 126.14 C 311.49 128.38 322.65 130.75 333.17 135.03 C 369.95 147.82 402.64 171.80 426.37 202.65 C 438.41 217.86 448.39 234.78 455.22 252.96 C 458.10 259.13 459.36 265.88 462.13 272.09 C 462.47 274.84 462.60 277.69 464.21 280.06 C 464.68 282.81 463.99 286.02 466.18 288.17 C 466.51 291.88 466.51 295.63 467.39 299.28 C 469.26 307.73 468.41 316.42 468.68 325.00 C 468.43 334.67 469.35 344.47 467.40 354.02 C 466.62 359.70 466.08 365.40 464.70 370.99 C 464.35 378.15 459.73 384.46 460.43 391.73 C 460.15 391.19 459.86 390.65 459.58 390.13 C 457.18 399.29 453.08 407.86 449.91 416.76 C 444.72 427.56 438.57 437.90 431.63 447.67 C 426.54 453.90 422.06 460.65 416.28 466.29 C 406.81 475.89 397.43 486.04 385.39 492.47 C 377.79 497.19 370.16 501.87 362.38 506.29 C 357.28 508.68 352.42 511.73 346.90 513.05 C 346.67 513.43 346.44 513.81 346.22 514.20 C 331.15 520.34 315.46 524.89 299.49 527.95 C 290.71 529.13 281.79 529.17 273.05 530.67 C 265.37 530.76 257.66 530.82 250.00 530.22 C 244.17 528.95 238.10 530.09 232.36 528.31 C 226.82 527.49 221.41 526.03 215.92 524.96 C 213.12 523.59 210.05 522.99 207.06 522.19 C 150.04 504.83 101.84 460.90 79.06 405.83 C 75.66 398.81 73.47 391.33 70.99 383.97 C 67.77 370.86 64.08 357.60 64.28 343.99 C 64.06 330.66 64.08 317.32 64.47 303.99 C 65.92 290.75 68.91 277.70 72.97 265.02 C 84.46 229.32 105.58 196.57 134.15 172.15 C 147.20 161.15 161.66 151.88 176.77 143.98 C 186.20 139.70 195.81 135.52 205.89 133.06 C 211.05 130.88 216.65 129.51 222.24 129.23 C 222.47 128.76 222.71 128.28 222.94 127.81 M 219.23 147.76 C 219.72 148.25 220.22 148.75 220.72 149.25 C 216.69 149.29 212.78 150.24 208.96 151.46 C 191.18 158.08 173.76 166.16 158.38 177.41 C 134.56 194.61 115.45 217.93 102.04 243.99 C 99.19 250.62 95.42 256.98 94.03 264.13 C 93.61 264.31 93.19 264.50 92.77 264.69 C 92.53 266.92 91.89 269.02 90.92 271.03 C 89.56 275.39 88.75 279.92 86.88 284.11 C 86.35 286.83 86.99 290.01 84.85 292.15 C 84.59 298.82 83.15 305.36 82.53 311.99 C 82.28 322.66 82.25 333.34 82.56 344.01 C 83.23 350.30 84.61 356.51 84.85 362.86 C 87.11 364.90 86.29 368.15 86.87 370.84 C 88.25 373.01 88.60 375.43 88.84 377.98 C 90.37 380.63 90.51 383.74 91.59 386.57 C 95.17 395.95 98.58 405.48 103.79 414.11 C 117.68 440.53 138.81 462.69 163.15 479.74 C 166.77 482.42 170.89 484.24 174.97 486.10 C 179.73 488.09 184.13 490.85 188.82 493.01 C 194.37 496.40 200.76 497.92 206.74 500.33 C 214.73 503.99 223.38 506.01 232.03 507.33 C 239.71 508.26 247.21 510.63 255.00 510.54 C 265.34 510.57 275.69 510.80 286.03 510.31 C 294.47 508.65 303.12 508.28 311.37 505.68 C 317.40 504.87 322.82 501.83 328.83 501.05 C 331.88 499.30 335.07 497.85 338.32 496.51 C 381.74 478.48 417.90 442.88 435.62 399.23 C 438.31 394.03 440.88 388.71 442.24 382.99 C 442.78 375.17 445.77 367.79 446.68 360.02 C 447.18 355.66 448.49 351.41 448.56 347.00 C 448.75 333.68 448.90 320.34 448.41 307.02 C 446.79 298.73 446.12 290.32 444.10 282.11 C 442.36 278.61 442.11 274.66 440.73 271.03 C 437.74 261.36 433.37 252.23 428.93 243.17 C 424.57 235.89 421.03 228.04 415.43 221.57 C 412.22 217.63 410.81 212.50 407.08 208.91 C 383.70 180.97 352.01 159.97 317.03 149.70 C 315.15 149.38 313.24 149.35 311.35 149.29 C 311.82 148.77 312.31 148.25 312.79 147.73 C 303.44 147.15 294.41 143.92 285.00 143.52 C 272.67 143.19 260.33 143.20 247.99 143.50 C 238.25 143.81 228.93 147.25 219.23 147.76 Z" />
<path fill="#fff" opacity="1.00" d=" M 256.52 168.93 C 256.11 165.89 259.86 165.69 262.00 165.47 C 265.73 165.29 270.64 162.73 273.26 166.69 C 277.69 174.91 275.19 184.88 273.04 193.44 C 267.86 194.02 262.75 192.81 257.64 192.24 C 257.79 184.43 257.05 176.68 256.52 168.93 Z" />
<path fill="#fff" opacity="1.00" d=" M 162.92 248.04 C 167.26 236.17 177.31 226.57 189.37 222.79 C 195.07 221.03 201.11 221.28 207.00 221.49 C 213.42 221.78 219.35 224.75 224.31 228.67 C 237.79 239.07 249.07 251.89 260.81 264.13 C 262.11 265.31 263.83 267.60 265.77 266.14 C 274.71 260.26 283.40 253.43 293.93 250.62 C 303.67 249.78 314.32 249.63 322.82 255.21 C 331.29 261.00 338.72 269.37 340.79 279.68 C 340.96 279.19 341.14 278.70 341.32 278.22 C 343.22 289.45 344.25 302.32 336.91 311.94 C 323.54 329.38 307.39 344.44 291.08 359.08 C 284.38 365.28 275.06 368.24 266.00 367.69 C 259.84 368.04 253.63 366.78 248.17 363.88 C 242.72 361.28 238.49 356.90 234.20 352.79 C 213.90 333.43 194.48 313.17 174.78 293.22 C 169.71 288.07 164.81 282.37 162.80 275.28 C 160.82 270.08 161.30 264.45 161.23 259.01 C 161.20 255.29 161.31 251.47 162.92 248.04 M 195.28 240.95 C 187.98 243.32 181.64 249.41 179.70 256.92 C 179.06 261.51 178.93 266.55 181.59 270.58 C 191.92 286.86 207.32 298.83 220.72 312.40 C 221.82 313.98 224.24 314.12 225.27 312.39 C 233.11 303.86 240.53 294.95 248.34 286.39 C 249.69 284.81 251.94 282.39 249.72 280.50 C 237.65 267.22 225.77 253.53 211.19 242.89 C 206.58 239.70 200.53 239.90 195.28 240.95 M 287.26 276.21 C 276.31 284.52 267.41 295.08 257.47 304.49 C 252.04 310.46 245.24 316.39 244.53 324.99 C 244.22 332.10 247.06 339.82 252.92 344.14 C 257.40 350.11 266.12 352.24 272.80 348.83 C 280.74 344.84 286.74 338.12 293.40 332.41 C 299.15 327.14 304.61 321.55 309.69 315.64 C 314.01 310.60 319.58 306.29 321.85 299.82 C 325.02 293.25 323.94 285.09 319.99 279.07 C 316.78 273.15 310.14 270.13 303.83 268.79 C 297.48 268.42 291.96 272.41 287.26 276.21 Z" />
<path fill="#20dca5" opacity="1.00" d=" M 287.26 276.21 C 291.96 272.41 297.48 268.42 303.83 268.79 C 310.14 270.13 316.78 273.15 319.99 279.07 C 323.94 285.09 325.02 293.25 321.85 299.82 C 307.10 313.05 293.96 327.97 279.36 341.35 C 272.15 347.76 261.42 347.94 252.92 344.14 C 247.06 339.82 244.22 332.10 244.53 324.99 C 245.24 316.39 252.04 310.46 257.47 304.49 C 267.41 295.08 276.31 284.52 287.26 276.21 Z" />
<path fill="#102756" opacity="0.49" d=" M 279.36 341.35 C 293.96 327.97 307.10 313.05 321.85 299.82 C 319.58 306.29 314.01 310.60 309.69 315.64 C 304.61 321.55 299.15 327.14 293.40 332.41 C 286.74 338.12 280.74 344.84 272.80 348.83 C 266.12 352.24 257.40 350.11 252.92 344.14 C 261.42 347.94 272.15 347.76 279.36 341.35 Z" />
<path fill="#102756" opacity="0.49" d=" M 402.26 316.36 C 410.74 316.33 419.17 317.48 427.56 318.69 C 429.09 324.07 428.65 329.70 428.43 335.22 C 422.02 336.61 415.56 338.36 408.93 337.82 C 404.89 337.81 401.08 335.58 398.63 332.46 C 397.56 326.91 398.64 320.81 402.26 316.36 M 402.50 318.44 C 400.26 322.09 400.27 326.69 400.22 330.86 C 400.16 333.04 402.36 334.25 404.13 334.93 C 411.35 337.63 419.33 335.67 426.42 333.48 C 427.06 329.25 426.35 324.95 426.31 320.69 C 423.60 320.09 420.88 319.50 418.09 319.45 C 412.88 319.28 407.72 317.81 402.50 318.44 Z" />
<path fill="#fff" opacity="1.00" d=" M 402.50 318.44 C 407.72 317.81 412.88 319.28 418.09 319.45 C 420.88 319.50 423.60 320.09 426.31 320.69 C 426.35 324.95 427.06 329.25 426.42 333.48 C 419.33 335.67 411.35 337.63 404.13 334.93 C 402.36 334.25 400.16 333.04 400.22 330.86 C 400.27 326.69 400.26 322.09 402.50 318.44 Z" />
<path fill="#fff" opacity="1.00" d=" M 106.58 319.37 C 107.39 317.82 109.55 318.54 110.96 318.30 C 117.63 318.50 124.32 318.20 130.99 318.60 C 131.30 318.98 131.94 319.72 132.26 320.09 C 132.75 324.75 132.58 329.46 132.51 334.14 C 132.16 334.48 131.44 335.15 131.09 335.49 C 124.46 335.75 117.73 336.15 111.14 335.25 C 107.83 334.10 103.28 332.86 102.36 329.01 C 103.21 325.61 104.73 322.35 106.58 319.37 Z" />
<path fill="#fff" opacity="1.00" d=" M 257.56 467.98 C 257.72 465.50 256.93 461.57 260.10 460.76 C 264.48 460.42 269.13 459.87 273.33 461.52 C 274.07 466.01 275.64 470.39 275.51 475.00 C 275.77 479.95 274.06 484.68 273.20 489.50 C 268.28 489.71 263.34 489.49 258.42 489.45 C 256.85 482.40 257.89 475.13 257.56 467.98 Z" />
</svg>
