<?xml version="1.0" encoding="UTF-8" ?>
<!DOCTYPE svg PUBLIC "-//W3C//DTD SVG 1.1//EN" "http://www.w3.org/Graphics/SVG/1.1/DTD/svg11.dtd">
<svg width="416pt" height="566pt" viewBox="0 0 416 566" version="1.1" xmlns="http://www.w3.org/2000/svg">
<path fill="#1e479c" opacity="1.00" d=" M 70.73 0.00 L 344.34 0.00 C 361.45 0.78 378.15 7.76 390.82 19.25 C 406.47 33.22 415.73 54.05 415.54 75.04 C 415.57 213.37 415.55 351.69 415.55 490.01 C 415.85 507.51 409.79 525.06 398.61 538.54 C 385.52 554.80 365.29 565.02 344.44 566.00 L 70.94 566.00 C 51.28 564.83 32.21 555.58 19.24 540.74 C 7.64 527.70 0.80 510.46 0.50 493.00 C 0.49 370.99 0.51 248.98 0.49 126.97 C 0.02 122.61 3.30 118.40 7.62 117.76 C 12.82 116.82 17.70 121.84 17.34 126.97 C 17.37 248.65 17.34 370.34 17.36 492.03 C 17.17 506.88 23.49 521.55 33.93 532.04 C 44.57 543.07 59.78 549.26 75.04 549.43 C 163.02 549.43 251.00 549.43 338.99 549.44 C 347.20 549.64 355.43 547.97 363.05 544.91 C 380.17 537.87 393.52 522.16 397.38 504.01 C 399.10 497.14 398.59 490.01 398.69 483.01 C 398.68 347.02 398.71 211.04 398.68 75.06 C 399.02 61.23 393.89 47.46 384.89 37.00 C 374.33 24.48 358.31 16.99 341.98 16.59 C 252.32 16.63 162.65 16.58 72.99 16.61 C 61.55 17.25 50.17 20.96 40.96 27.87 C 27.58 37.61 18.58 53.30 17.46 69.87 C 17.15 77.60 17.55 85.33 17.28 93.06 C 17.14 98.32 11.18 102.97 6.12 100.78 C 2.50 99.56 0.11 95.80 0.49 92.00 C 0.75 81.75 -0.28 71.38 1.70 61.23 C 4.62 45.15 13.05 30.09 25.24 19.20 C 37.67 7.92 53.99 1.09 70.73 0.00 Z" />
<path fill="#1e479c" opacity="1.00" d=" M 202.00 33.85 C 208.45 32.37 215.57 33.26 221.19 36.90 C 228.27 41.34 233.18 49.52 232.72 58.00 C 233.47 71.29 221.19 83.47 207.95 82.85 C 197.96 83.24 188.46 76.44 184.86 67.25 C 182.88 62.76 183.12 57.68 183.60 52.90 C 185.47 43.75 192.90 36.02 202.00 33.85 M 205.27 50.31 C 203.01 51.18 201.11 52.93 200.26 55.22 C 198.51 59.02 200.82 63.82 204.55 65.42 C 208.93 68.00 214.84 64.73 216.03 60.04 C 217.93 54.16 210.93 47.74 205.27 50.31 Z" />
<path fill="#20dca5" opacity="1.00" d=" M 205.27 50.31 C 210.93 47.74 217.93 54.16 216.03 60.04 C 214.84 64.73 208.93 68.00 204.55 65.42 C 200.82 63.82 198.51 59.02 200.26 55.22 C 201.11 52.93 203.01 51.18 205.27 50.31 Z" />
<path fill="#1e479c" opacity="1.00" d=" M 94.08 68.84 C 97.95 67.64 101.88 66.33 105.98 66.38 C 117.97 66.27 129.97 66.32 141.97 66.33 C 144.79 66.23 147.53 66.92 150.21 67.72 C 159.66 71.33 166.66 80.74 166.54 90.98 C 166.35 95.52 170.48 99.72 175.04 99.47 C 197.02 99.50 219.01 99.50 241.00 99.47 C 245.99 99.73 249.99 94.87 249.52 90.03 C 249.70 77.65 260.64 66.78 272.95 66.36 C 284.29 66.32 295.63 66.37 306.97 66.34 C 318.92 65.93 330.80 71.37 338.65 80.33 C 343.48 85.47 346.36 92.08 348.26 98.79 C 348.50 102.53 349.43 106.21 349.33 109.97 C 349.25 208.65 349.40 307.33 349.26 406.00 C 348.54 409.96 345.29 413.76 340.99 413.54 C 336.42 413.94 332.19 409.63 332.48 405.09 C 332.46 306.07 332.50 207.05 332.47 108.03 C 332.57 99.39 327.83 90.92 320.40 86.53 C 315.83 83.65 310.31 82.81 305.00 82.84 C 294.99 82.90 284.98 82.80 274.98 82.87 C 271.55 82.81 268.25 84.77 266.77 87.87 C 266.16 90.90 265.95 94.00 265.43 97.04 C 262.98 107.68 252.96 115.88 242.02 116.12 C 219.68 116.28 197.33 116.19 174.98 116.17 C 165.62 116.18 156.46 110.70 152.47 102.16 C 150.07 97.96 150.08 93.03 149.36 88.38 C 148.08 84.56 143.84 82.57 139.98 82.83 C 128.67 83.01 117.33 82.48 106.04 83.13 C 93.95 83.93 83.74 94.91 83.59 106.99 C 83.56 222.33 83.58 337.68 83.57 453.02 C 83.60 456.82 83.30 460.70 84.36 464.41 C 86.56 473.27 94.07 480.60 103.05 482.41 C 107.98 483.48 113.05 483.11 118.06 483.16 C 177.70 483.16 237.35 483.16 297.00 483.16 C 303.73 483.08 310.77 483.78 317.15 481.13 C 325.69 477.64 331.85 469.08 332.39 459.86 C 332.68 452.25 332.25 444.61 332.59 437.00 C 333.29 431.52 340.09 428.38 344.82 431.15 C 348.35 433.05 349.48 437.29 349.33 441.04 C 349.10 451.76 350.36 462.91 346.31 473.12 C 340.53 488.62 324.65 499.86 308.04 499.66 C 241.02 499.64 174.00 499.67 106.99 499.65 C 89.89 499.39 73.84 487.15 68.89 470.80 C 66.83 465.47 67.25 459.67 67.20 454.07 C 67.21 338.39 67.19 222.72 67.21 107.04 C 66.76 90.28 78.53 74.54 94.08 68.84 Z" />
<path fill="#1e479c" opacity="1.00" d=" M 275.80 175.12 C 288.62 171.85 302.69 182.65 302.57 195.95 C 302.65 236.95 302.58 277.96 302.61 318.97 C 302.55 325.36 303.09 331.93 300.97 338.10 C 296.63 351.50 285.86 362.02 273.64 368.54 C 261.96 374.78 248.05 377.71 235.03 374.42 C 225.48 372.02 216.70 365.47 212.95 356.19 C 209.08 347.15 210.59 336.68 214.97 328.12 C 226.09 306.24 252.16 293.56 276.26 296.94 C 279.39 297.51 282.64 298.07 285.34 299.89 C 287.08 296.91 286.08 293.28 285.81 290.05 C 285.40 287.68 286.62 285.32 285.80 282.99 C 286.93 278.06 285.88 272.96 285.72 267.98 C 287.11 257.78 285.26 247.51 286.29 237.31 C 283.48 237.47 280.80 238.34 278.11 239.08 C 249.90 246.46 221.82 254.29 193.60 261.59 C 193.21 262.37 192.95 263.18 192.83 264.03 C 192.68 295.68 192.96 327.35 192.69 359.00 C 191.17 371.88 182.73 383.00 172.68 390.74 C 161.71 399.12 147.83 403.86 134.01 403.42 C 125.60 402.78 117.02 400.07 110.72 394.26 C 104.78 388.93 101.10 381.02 101.34 373.00 C 100.94 361.01 107.42 349.94 115.68 341.70 C 126.73 331.21 141.59 324.27 156.97 324.21 C 163.57 324.04 170.43 324.49 176.41 327.56 C 176.46 292.36 176.39 257.16 176.45 221.96 C 176.55 210.05 185.47 199.07 196.97 196.18 C 223.25 189.18 249.49 182.02 275.80 175.12 M 201.11 212.31 C 196.62 213.68 192.85 218.11 193.29 222.97 C 193.35 230.17 193.04 237.39 193.46 244.58 C 224.15 236.10 254.96 228.01 285.73 219.78 C 286.70 217.25 285.85 214.62 285.94 212.02 C 286.67 207.01 285.44 202.01 285.74 196.99 C 286.30 193.40 282.35 190.36 278.99 191.48 C 253.03 198.41 227.08 205.40 201.11 212.31 M 258.60 314.12 C 247.16 316.99 236.42 324.07 230.40 334.36 C 227.24 339.93 225.94 347.55 230.11 352.95 C 233.65 357.36 239.56 358.56 244.88 359.14 C 259.54 359.24 274.02 351.41 282.11 339.18 C 285.27 334.54 286.81 328.55 285.06 323.09 C 283.44 319.62 281.15 316.20 277.66 314.43 C 271.54 312.14 264.85 312.71 258.60 314.12 M 153.83 340.82 C 140.19 342.92 126.73 350.67 120.26 363.18 C 117.83 367.37 117.81 372.46 118.59 377.10 C 120.35 382.15 125.52 385.11 130.52 386.17 C 143.02 388.49 155.82 383.40 165.20 375.24 C 170.42 370.53 175.08 364.59 176.28 357.48 C 177.08 352.93 174.83 348.48 171.96 345.10 C 167.51 340.03 159.98 340.17 153.83 340.82 Z" />
<path fill="#20dca5" opacity="1.00" d=" M 201.11 212.31 C 227.08 205.40 253.03 198.41 278.99 191.48 C 282.35 190.36 286.30 193.40 285.74 196.99 C 285.44 202.01 286.67 207.01 285.94 212.02 C 285.85 214.62 286.70 217.25 285.73 219.78 C 254.96 228.01 224.15 236.10 193.46 244.58 C 193.04 237.39 193.35 230.17 193.29 222.97 C 192.85 218.11 196.62 213.68 201.11 212.31 Z" />
</svg>
