<?xml version="1.0" encoding="UTF-8" ?>
<!DOCTYPE svg PUBLIC "-//W3C//DTD SVG 1.1//EN" "http://www.w3.org/Graphics/SVG/1.1/DTD/svg11.dtd">
<svg width="512pt" height="484pt" viewBox="0 0 512 484" version="1.1" xmlns="http://www.w3.org/2000/svg">
<path fill="#1e479c" opacity="1.00" d=" M 53.85 0.00 L 151.16 0.00 C 155.24 0.66 158.43 4.65 157.57 8.81 C 157.01 12.84 152.98 15.35 149.10 15.11 C 131.46 15.20 113.81 15.12 96.17 15.13 C 107.62 25.83 114.63 41.20 114.61 56.94 C 114.64 179.99 114.63 303.05 114.62 426.10 C 114.76 442.02 107.62 457.49 96.13 468.38 C 171.29 468.37 246.44 468.35 321.60 468.39 C 319.27 464.20 317.02 459.83 316.26 455.04 C 315.24 448.75 315.82 442.35 315.69 436.01 C 315.84 427.64 315.05 419.14 316.93 410.89 C 319.91 397.29 326.92 384.86 335.68 374.15 C 331.27 368.02 328.36 360.68 328.58 353.04 C 328.58 340.30 336.59 327.95 348.37 323.00 C 356.24 319.20 365.20 320.51 373.64 320.31 C 372.54 285.62 375.55 250.69 384.05 216.98 C 392.34 183.76 406.25 151.75 426.50 124.04 C 426.48 101.69 426.54 79.35 426.48 57.00 C 426.42 45.18 421.09 33.54 412.22 25.74 C 404.81 19.11 394.99 15.16 385.02 15.15 C 317.33 15.13 249.63 15.16 181.94 15.13 C 178.30 15.35 174.23 13.69 173.16 9.92 C 171.58 5.67 174.55 1.19 178.71 0.00 L 387.10 0.00 C 408.37 0.91 428.33 14.74 436.70 34.30 C 440.00 41.72 441.58 49.85 441.56 57.97 C 441.58 73.83 441.56 89.69 441.56 105.55 C 448.20 98.48 455.07 91.62 462.49 85.35 C 466.92 81.32 472.47 78.41 478.48 77.76 C 492.59 75.95 506.87 86.77 508.75 100.91 C 510.78 116.95 511.71 133.12 512.00 149.28 L 512.00 163.59 C 511.69 171.43 511.44 179.27 510.77 187.10 C 510.00 197.07 504.42 206.66 495.86 211.93 C 487.54 216.85 479.07 221.50 470.63 226.22 C 475.40 230.58 480.94 234.00 485.58 238.50 C 494.48 247.28 497.17 261.29 492.97 272.95 C 485.60 293.69 469.96 310.08 453.52 324.10 C 461.74 329.15 468.25 337.30 469.96 346.93 C 471.98 356.44 469.19 366.42 463.48 374.15 C 473.61 384.47 480.46 397.95 482.72 412.23 C 483.95 420.43 483.37 428.73 483.50 436.98 C 483.38 444.79 484.25 452.89 481.46 460.36 C 477.89 470.55 469.29 478.82 458.93 481.89 C 452.83 483.87 446.34 483.41 440.02 483.45 C 312.35 483.43 184.67 483.46 57.00 483.44 C 40.05 483.44 23.35 475.38 12.78 462.14 C 5.22 452.91 0.83 441.28 0.00 429.41 L 0.00 353.52 C 0.77 340.14 6.10 327.06 15.07 317.08 C 26.06 304.73 42.42 297.14 59.01 297.36 C 72.52 297.35 86.03 297.36 99.53 297.36 C 99.61 260.33 99.52 223.30 99.58 186.28 C 86.04 186.23 72.50 186.33 58.96 186.24 C 43.98 185.95 29.06 180.18 18.33 169.63 C 7.51 159.49 1.03 145.12 0.00 130.37 L 0.00 53.80 C 0.98 40.21 6.72 26.96 16.35 17.26 C 26.13 7.09 39.79 0.95 53.85 0.00 M 27.48 27.45 C 19.68 35.18 15.10 46.03 15.03 57.02 C 14.95 79.34 15.04 101.66 14.99 123.98 C 14.93 129.64 15.45 135.38 17.32 140.76 C 21.87 154.68 33.77 165.88 47.95 169.54 C 52.52 170.69 57.25 171.15 61.96 171.23 C 74.46 171.22 86.97 171.20 99.47 171.24 C 99.68 137.16 99.50 103.08 99.56 69.00 C 99.46 60.78 100.26 52.31 97.51 44.40 C 92.46 28.27 76.97 15.96 60.02 15.19 C 48.06 14.29 35.90 18.94 27.48 27.45 M 467.81 100.80 C 435.77 129.36 413.94 168.08 401.96 209.03 C 391.36 245.04 387.47 282.85 388.78 320.30 C 404.27 320.31 419.76 320.25 435.25 320.34 C 450.70 308.58 464.93 294.60 474.48 277.55 C 477.41 271.79 480.73 265.54 479.75 258.86 C 479.06 253.98 476.13 249.62 472.16 246.78 C 465.59 241.68 458.97 236.66 452.48 231.48 C 449.17 229.10 448.25 224.03 450.90 220.83 C 452.98 218.51 455.92 217.26 458.56 215.72 C 467.96 210.43 477.37 205.15 486.74 199.80 C 492.03 196.86 495.57 191.16 495.81 185.11 C 497.83 158.08 497.12 130.84 493.95 103.93 C 493.43 97.15 486.62 91.85 479.93 92.83 C 474.91 93.57 471.46 97.67 467.81 100.80 M 30.22 323.30 C 20.58 331.62 14.91 344.24 15.02 356.97 C 14.98 379.64 15.00 402.32 15.01 424.99 C 14.90 433.42 17.20 441.90 21.84 448.97 C 28.10 458.68 38.45 465.69 49.86 467.67 C 62.93 470.17 77.00 465.79 86.52 456.54 C 94.75 448.69 99.59 437.43 99.56 426.06 C 99.58 388.18 99.54 350.31 99.58 312.43 C 86.06 312.42 72.54 312.42 59.02 312.43 C 48.50 312.28 38.13 316.44 30.22 323.30 M 359.41 335.48 C 351.45 336.26 344.67 343.17 343.79 351.08 C 342.59 359.17 347.71 367.55 355.36 370.35 C 359.05 371.86 363.10 371.49 367.00 371.52 C 390.67 371.47 414.35 371.54 438.02 371.49 C 444.80 371.43 451.10 366.95 453.89 360.86 C 456.35 355.55 455.99 349.04 452.93 344.05 C 449.71 338.57 443.38 335.05 437.01 335.36 C 411.15 335.46 385.27 335.20 359.41 335.48 M 331.30 414.87 C 368.20 414.82 405.11 414.88 442.01 414.84 C 444.50 414.88 447.26 415.07 449.20 416.85 C 452.37 419.47 452.62 424.76 449.70 427.67 C 447.56 430.24 443.95 430.10 440.93 430.14 C 427.96 429.61 414.98 430.04 402.02 430.03 C 392.00 429.47 381.98 430.40 371.96 429.91 C 358.20 429.97 344.44 429.63 330.68 430.17 C 330.82 437.10 330.40 444.06 330.91 450.98 C 331.79 460.46 340.49 468.31 350.00 468.33 C 382.31 468.43 414.63 468.32 446.95 468.39 C 450.33 468.41 453.81 468.03 456.90 466.56 C 463.66 463.53 468.37 456.44 468.40 449.00 C 468.50 440.35 468.40 431.69 468.44 423.04 C 468.54 408.26 462.04 393.76 451.51 383.49 C 447.26 385.34 442.72 386.67 438.03 386.58 C 412.35 386.58 386.68 386.59 361.00 386.58 C 356.33 386.65 351.82 385.29 347.57 383.48 C 339.48 392.24 333.41 403.06 331.30 414.87 Z" />
<path fill="#1e479c" opacity="1.00" d=" M 166.20 67.28 C 235.12 67.01 304.06 67.24 373.00 67.17 C 385.49 66.73 396.42 78.50 395.49 90.89 C 395.25 102.57 384.69 112.72 373.01 112.48 C 305.01 112.51 237.01 112.49 169.02 112.49 C 162.85 112.58 156.69 110.02 152.46 105.52 C 146.46 99.47 144.53 89.89 147.55 81.95 C 150.39 74.11 157.85 68.06 166.20 67.28 M 167.20 82.42 C 162.56 83.18 159.79 88.90 161.94 93.05 C 163.29 96.16 166.77 97.73 170.05 97.43 C 237.33 97.40 304.62 97.42 371.90 97.42 C 376.18 97.90 380.44 94.40 380.45 90.02 C 380.68 85.53 376.43 81.69 371.99 82.24 C 330.66 82.24 289.32 82.24 247.99 82.24 C 221.06 82.36 194.11 82.00 167.20 82.42 Z" />
<path fill="#20dca5" opacity="1.00" d=" M 467.81 100.80 C 471.46 97.67 474.91 93.57 479.93 92.83 C 486.62 91.85 493.43 97.15 493.95 103.93 C 497.12 130.84 497.83 158.08 495.81 185.11 C 495.57 191.16 492.03 196.86 486.74 199.80 C 477.37 205.15 467.96 210.43 458.56 215.72 C 455.92 217.26 452.98 218.51 450.90 220.83 C 448.25 224.03 449.17 229.10 452.48 231.48 C 458.97 236.66 465.59 241.68 472.16 246.78 C 476.13 249.62 479.06 253.98 479.75 258.86 C 480.73 265.54 477.41 271.79 474.48 277.55 C 464.93 294.60 450.70 308.58 435.25 320.34 C 419.76 320.25 404.27 320.31 388.78 320.30 C 387.47 282.85 391.36 245.04 401.96 209.03 C 413.94 168.08 435.77 129.36 467.81 100.80 Z" />
<path fill="#1e479c" opacity="1.00" d=" M 165.31 132.39 C 234.52 132.03 303.74 132.35 372.95 132.22 C 382.25 131.83 391.05 138.33 394.12 146.99 C 398.06 157.08 393.49 169.66 383.83 174.66 C 379.96 176.93 375.44 177.70 371.00 177.52 C 303.32 177.45 235.64 177.55 167.97 177.47 C 156.58 177.40 146.49 167.37 146.17 156.01 C 145.33 144.79 154.15 133.85 165.31 132.39 M 166.42 147.57 C 162.69 148.75 160.32 153.15 161.51 156.92 C 162.39 160.18 165.62 162.61 169.02 162.41 C 236.66 162.46 304.31 162.41 371.96 162.43 C 375.89 162.86 379.83 159.88 380.37 155.94 C 381.12 151.67 377.51 147.11 373.08 147.31 C 307.05 147.25 241.01 147.32 174.98 147.27 C 172.13 147.31 169.24 147.06 166.42 147.57 Z" />
<path fill="#1e479c" opacity="1.00" d=" M 164.32 197.55 C 167.53 197.12 170.78 197.30 174.01 197.28 C 211.71 197.30 249.40 197.27 287.09 197.29 C 294.47 197.14 301.39 201.57 305.33 207.64 C 309.55 214.12 310.04 222.79 306.64 229.73 C 302.96 237.48 294.62 242.79 286.01 242.54 C 247.02 242.54 208.02 242.53 169.03 242.54 C 162.59 242.68 156.18 239.82 151.93 234.99 C 146.80 229.40 144.91 221.15 146.93 213.86 C 149.10 205.77 156.08 199.15 164.32 197.55 M 167.28 212.46 C 163.08 212.97 160.24 217.92 161.50 221.89 C 162.37 225.14 165.56 227.65 168.97 227.45 C 207.99 227.48 247.01 227.49 286.03 227.45 C 289.71 227.69 293.10 224.76 293.69 221.18 C 294.65 216.73 290.70 211.83 286.05 212.35 C 246.47 212.41 206.86 212.19 167.28 212.46 Z" />
</svg>
