<svg width="29" height="29" viewBox="0 0 29 29" fill="none" xmlns="http://www.w3.org/2000/svg">
<path d="M14.5003 1.10693C7.13421 1.10693 1.10742 7.13372 1.10742 14.4998C1.10742 21.8659 7.13421 27.8926 14.5003 27.8926C21.8663 27.8926 27.8931 21.8659 27.8931 14.4998C27.8931 7.13372 21.8663 1.10693 14.5003 1.10693ZM14.5003 25.2141C8.60742 25.2141 3.78599 20.3926 3.78599 14.4998C3.78599 8.60693 8.60742 3.7855 14.5003 3.7855C20.3931 3.7855 25.2146 8.60693 25.2146 14.4998C25.2146 20.3926 20.3931 25.2141 14.5003 25.2141Z" fill="#7F4CFF" stroke="#F7F5FF" stroke-width="0.75"/>
<path d="M21.8664 19.0532C20.9289 18.1157 19.8574 17.446 18.6521 16.9103C19.5896 15.8389 20.2592 14.4996 20.2592 12.8925C20.2592 9.67819 17.7146 7.13354 14.5003 7.13354C11.286 7.13354 8.74135 9.67819 8.74135 12.8925C8.74135 14.4996 9.41099 15.8389 10.3485 16.9103C9.14314 17.446 8.07171 18.1157 7.13421 19.0532C6.59849 19.5889 6.59849 20.3925 7.13421 20.9282C7.40206 21.196 7.80385 21.33 8.07171 21.33C8.47349 21.33 8.74135 21.196 9.00921 20.9282C10.4824 19.455 12.3574 18.6514 14.5003 18.6514C16.5092 18.6514 18.5181 19.455 19.9914 20.9282C20.5271 21.4639 21.3306 21.4639 21.8664 20.9282C22.4021 20.3925 22.4021 19.5889 21.8664 19.0532ZM11.4199 12.8925C11.4199 11.1514 12.7592 9.81212 14.5003 9.81212C16.2414 9.81212 17.5806 11.1514 17.5806 12.8925C17.5806 14.6335 16.2414 15.9728 14.5003 15.9728C12.7592 15.9728 11.4199 14.6335 11.4199 12.8925Z" fill="#7F4CFF" stroke="#F7F5FF" stroke-width="0.75"/>
</svg>
