<svg width="36" height="36" viewBox="0 0 36 36" fill="none" xmlns="http://www.w3.org/2000/svg">
<path d="M8.08212 0.919128H28.8057C31.0556 1.21144 33.2605 2.37892 34.5008 4.27365C35.3698 5.45522 35.7448 6.90092 35.9359 8.32373V27.4348C35.7376 29.849 34.5603 32.272 32.433 33.6086C31.1295 34.5119 29.5484 34.8641 27.9908 35.0807H9.16202C6.58938 34.9116 3.91217 33.8498 2.4627 31.6751C1.58111 30.5305 1.19891 29.1165 0.960938 27.7254V8.1089C1.19891 6.76357 1.56849 5.39359 2.39599 4.26837C3.63814 2.38068 5.8376 1.22024 8.08212 0.919128ZM8.24077 2.60255C5.29855 2.78569 2.72591 5.42 2.73673 8.31493C2.72591 14.7088 2.72951 21.1044 2.73492 27.5C2.69887 30.5622 5.56897 33.3427 8.7059 33.267C15.2646 33.2687 21.8215 33.274 28.3784 33.2652C30.5959 33.2634 32.5718 31.8072 33.5868 29.9477C34.124 28.9316 34.1727 27.7588 34.1547 26.6389C34.1511 20.5902 34.1529 14.5397 34.1529 8.49102C34.2646 5.96588 32.3771 3.63092 29.9775 2.84732C28.9373 2.4969 27.8249 2.59903 26.7468 2.58671C20.5775 2.59727 14.4083 2.56381 8.24077 2.60255Z" fill="white"/>
<path d="M12.7298 7.11575C13.862 6.87627 15.0338 7.46793 15.7712 8.28852C16.6564 9.24469 17.7868 10.0741 18.2194 11.3437C18.5944 12.3492 18.0013 13.5026 17.0674 13.9903C16.4581 14.3425 15.6684 14.427 15.2105 15.0011C14.7778 15.3885 14.8734 16.0171 14.9347 16.5278C15.3043 17.4787 15.9947 18.2781 16.7357 18.979C17.666 19.8982 18.5944 20.9124 19.8582 21.3914C20.4009 21.4971 21.0715 21.571 21.5096 21.166C22.283 20.5867 22.2307 19.4808 22.914 18.8293C23.4963 18.3116 24.3364 17.9436 25.1243 18.1971C26.4728 18.5141 27.3111 19.6745 28.2991 20.5268C29.1915 21.2946 29.8784 22.4726 29.5863 23.6665C29.3663 24.4871 28.8057 25.1809 28.2017 25.7708C26.2871 27.7817 23.3954 28.8189 20.6064 28.6393C15.8343 28.155 11.421 25.1774 9.18365 21.0445C7.84595 18.6462 7.13383 15.7829 7.80629 13.0852C8.11097 11.6483 8.85914 10.3382 9.7894 9.1989C10.6115 8.33078 11.4823 7.35876 12.7298 7.11575ZM12.5495 8.89779C10.698 10.2431 9.33509 12.3439 9.29903 14.6454C9.0881 17.3519 10.1608 20.0267 11.8951 22.1046C13.7466 24.3233 16.2453 26.1494 19.1533 26.7534C21.0102 27.0844 23.0276 27.0827 24.7655 26.2779C25.8743 25.7902 26.718 24.9062 27.5275 24.0469C27.9764 23.6295 27.87 22.9604 27.7763 22.4251C27.3273 21.8211 26.6891 21.3844 26.1753 20.8367C25.6633 20.3208 25.0972 19.6587 24.2679 19.8172C23.6532 20.4617 23.5919 21.4213 23.0114 22.087C22.1226 22.8987 20.7993 23.4446 19.5986 23.0079C17.6714 22.4127 16.2471 20.9177 14.9149 19.509C14.1216 18.5581 13.2923 17.5016 13.2058 16.2302C13.0976 15.1948 13.5717 14.1453 14.3704 13.4691C15.041 12.962 15.9821 12.8933 16.5825 12.2787C16.6257 12.085 16.6456 11.8878 16.6456 11.6888C15.928 10.7432 15.0266 9.95961 14.2063 9.10382C13.8043 8.66359 13.0633 8.67592 12.5495 8.89779Z" fill="white"/>
</svg>
