<svg width="28" height="26" viewBox="0 0 28 26" fill="none" xmlns="http://www.w3.org/2000/svg">
<path d="M6.57234 0.0704888C6.96171 0.0168066 7.35551 0.00240416 7.74805 0.00109484C11.5677 0.0017495 15.3873 0.00109473 19.2076 0.00174939C19.7995 0.00633202 20.3928 -0.0185452 20.9835 0.0364464C22.7847 0.20273 24.5163 1.05772 25.7749 2.39977C27.0836 3.76278 27.8794 5.63184 27.9852 7.54869C28.013 8.02986 27.9801 8.51235 27.9845 8.99418C27.9877 11.8308 27.9795 14.6675 27.9883 17.5035C28.0624 18.9143 27.7838 20.346 27.157 21.6043C26.0731 23.8812 23.8705 25.5362 21.4425 25.9061C20.8511 26.0128 20.2484 26.0003 19.6507 25.9977C16.0844 25.9971 12.518 25.9977 8.95098 25.9977C7.9918 25.9866 7.02059 26.0553 6.07534 25.8452C4.19813 25.4766 2.50453 24.2818 1.45102 22.6386C0.480439 21.1539 0.00306533 19.3549 0.00179908 17.5702C-0.000100285 14.8207 0.00179905 12.0711 0.000532808 9.32151C0.00179905 8.65114 -0.014029 7.97749 0.063845 7.31039C0.27974 5.39551 1.07367 3.5271 2.40956 2.16606C3.52132 1.01451 5.01359 0.275398 6.57234 0.0704888ZM6.82242 2.15166C5.40803 2.34282 4.0886 3.15133 3.25225 4.34608C2.41906 5.50942 2.03285 6.96866 2.02779 8.40564C2.02526 11.4387 2.02779 14.4717 2.02652 17.5048C2.02462 18.3349 2.13732 19.1683 2.4007 19.9545C2.78754 21.1578 3.53905 22.2458 4.55775 22.9607C5.43335 23.582 6.49763 23.8969 7.55621 23.9028C11.5879 23.9021 15.619 23.9028 19.6507 23.9028C20.2592 23.9067 20.8752 23.9211 21.4716 23.7732C23.1348 23.4105 24.6049 22.2262 25.359 20.6517C25.8452 19.6652 26.0351 18.5398 25.9623 17.438C25.9585 14.2073 25.9522 10.9752 25.9674 7.74443C25.9212 6.71465 25.6072 5.69927 25.0734 4.82922C24.2643 3.50877 22.9322 2.54053 21.4494 2.22433C20.6302 2.03316 19.7856 2.11238 18.9543 2.09667C15.4297 2.09601 11.9051 2.09667 8.38117 2.09601C7.86138 2.09798 7.33842 2.07703 6.82242 2.15166Z" fill="white"/>
<path d="M6.13169 7.79222C6.44888 7.71039 6.78444 7.82037 7.03199 8.03183C8.95478 9.62396 10.8788 11.2128 12.8042 12.801C13.4924 13.3667 14.5402 13.3699 15.2284 12.8023C16.9973 11.3359 18.7612 9.86226 20.5276 8.39254C20.8283 8.15359 21.1069 7.82823 21.5039 7.77585C22.0319 7.69337 22.5739 8.11759 22.6353 8.6675C22.7011 9.05703 22.5106 9.44459 22.2136 9.67765C20.5048 11.0983 18.7992 12.5215 17.0898 13.9415C16.6649 14.2963 16.2502 14.6773 15.7501 14.9169C14.4224 15.586 12.7377 15.4105 11.5765 14.4619C9.64741 12.8796 7.72779 11.2842 5.8012 9.69925C5.54605 9.50023 5.34725 9.19974 5.34345 8.85997C5.31559 8.36963 5.66698 7.89435 6.13169 7.79222Z" fill="white"/>
</svg>
