<?xml version="1.0" encoding="UTF-8" ?>
<!DOCTYPE svg PUBLIC "-//W3C//DTD SVG 1.1//EN" "http://www.w3.org/Graphics/SVG/1.1/DTD/svg11.dtd">
<svg width="456pt" height="526pt" viewBox="0 0 456 526" version="1.1" xmlns="http://www.w3.org/2000/svg">
<path fill="#1e479c" opacity="1.00" d=" M 42.41 0.00 L 317.91 0.00 C 323.47 1.90 329.22 3.41 334.43 6.20 C 350.27 14.54 361.54 31.18 362.80 49.12 C 364.09 59.90 363.10 70.82 363.38 81.66 C 375.25 81.73 387.12 81.75 398.99 81.73 C 411.61 81.91 424.32 85.79 434.23 93.75 C 442.10 99.82 447.68 108.41 451.31 117.57 C 451.83 119.40 452.38 121.22 452.95 123.04 C 453.78 126.96 454.44 130.96 454.41 134.99 C 454.39 213.31 454.41 291.64 454.41 369.96 C 454.35 373.68 454.64 377.42 454.22 381.12 C 453.63 383.18 452.08 384.77 450.90 386.50 C 448.23 386.60 445.55 386.62 442.88 386.56 C 441.87 385.38 440.87 384.21 439.87 383.04 C 439.46 382.01 439.05 380.98 438.63 379.97 C 438.56 300.98 438.62 222.00 438.60 143.02 C 438.54 135.80 439.26 128.22 436.06 121.49 C 430.58 107.44 416.11 97.53 401.02 97.58 C 315.35 97.62 229.67 97.60 144.00 97.59 C 124.96 97.92 107.20 114.63 107.41 133.99 C 107.38 245.33 107.42 356.68 107.39 468.02 C 107.43 473.62 106.99 479.45 109.14 484.76 C 114.19 499.24 128.54 510.25 144.00 510.46 C 226.34 510.44 308.68 510.46 391.02 510.45 C 398.07 510.32 405.37 511.21 412.13 508.70 C 424.80 504.75 435.12 493.91 437.85 480.85 C 438.89 474.96 439.53 468.97 439.32 462.98 C 439.37 445.87 439.12 428.76 439.49 411.65 C 440.57 410.55 441.64 409.44 442.73 408.35 C 445.31 408.27 447.89 408.23 450.48 408.21 C 452.45 410.39 454.81 412.75 454.51 415.96 C 454.38 434.66 454.38 453.37 454.42 472.08 C 454.49 475.91 453.88 479.69 453.34 483.47 C 450.32 496.17 443.13 508.05 432.41 515.68 C 428.04 518.98 423.03 521.25 417.99 523.33 C 415.34 523.90 412.70 524.45 410.02 524.87 L 412.69 525.45 C 410.57 525.61 408.47 525.83 406.36 526.00 L 136.75 526.00 C 126.34 522.92 115.81 518.84 108.00 511.02 C 100.75 503.97 95.47 494.88 93.15 485.03 C 91.13 477.87 91.58 470.37 91.55 463.03 C 91.55 456.81 91.53 450.59 91.57 444.37 C 80.30 444.22 69.03 444.35 57.76 444.29 C 46.59 444.44 35.26 441.80 25.71 435.88 C 13.26 428.35 4.43 415.47 1.35 401.30 L 0.00 401.20 L 0.00 139.93 L 0.37 143.01 C 1.57 141.22 2.81 139.48 4.07 137.74 C 5.46 137.68 6.68 136.97 8.05 136.83 C 9.26 137.16 10.47 137.47 11.67 137.83 C 12.94 139.07 14.19 140.33 15.44 141.59 C 15.66 145.41 16.18 149.20 16.23 153.03 C 16.19 231.02 16.24 309.00 16.21 386.99 C 16.24 392.53 15.77 398.32 18.13 403.51 C 22.40 415.01 32.44 423.66 43.98 427.43 C 59.83 428.17 75.72 427.71 91.58 427.72 C 91.48 398.98 91.60 370.23 91.52 341.49 C 81.34 341.28 71.14 341.72 60.95 341.38 C 57.40 341.33 54.56 339.00 52.46 336.34 C 52.47 334.42 52.46 332.51 52.44 330.60 C 54.50 328.43 56.62 325.57 59.96 325.68 C 70.48 325.42 81.01 325.73 91.53 325.55 C 91.55 312.23 91.59 298.90 91.51 285.58 C 80.23 285.50 68.96 285.59 57.69 285.51 C 56.32 284.40 54.90 283.34 53.70 282.05 C 52.72 279.16 53.23 276.08 53.53 273.14 C 54.66 272.23 55.78 271.32 56.91 270.41 C 68.43 270.10 79.95 270.34 91.47 270.25 C 91.67 256.93 91.45 243.61 91.59 230.29 C 80.33 229.93 69.03 230.82 57.83 229.40 C 56.82 228.94 55.81 228.48 54.80 228.04 C 52.72 225.07 51.13 220.85 53.64 217.63 C 55.98 213.61 61.08 214.36 65.01 214.28 C 73.86 214.09 82.75 214.84 91.58 213.94 C 91.56 200.74 91.48 187.54 91.54 174.34 C 81.69 174.10 71.85 174.33 62.00 174.27 C 58.91 174.31 55.57 173.23 53.74 170.59 C 52.15 168.59 52.47 165.94 52.32 163.56 C 54.01 161.81 55.74 160.11 57.52 158.47 C 68.85 158.42 80.18 158.40 91.50 158.38 C 91.64 150.23 91.44 142.09 91.59 133.94 C 91.70 128.66 93.16 123.55 93.97 118.37 C 82.96 118.31 71.96 118.41 60.95 118.35 C 57.45 118.62 54.29 116.30 52.82 113.23 C 52.28 111.39 52.45 109.43 52.38 107.54 C 54.60 105.05 57.31 102.63 60.86 102.66 C 74.87 102.44 88.88 102.71 102.89 102.44 C 110.74 92.71 121.97 85.97 134.12 83.14 C 138.04 82.39 142.01 81.85 146.01 81.74 C 213.20 81.69 280.39 81.84 347.59 81.67 C 347.43 71.44 347.71 61.20 347.45 50.98 C 346.41 31.64 328.42 14.83 309.00 15.53 C 223.66 15.57 138.32 15.54 52.97 15.54 C 42.98 15.63 33.22 20.15 26.39 27.40 C 19.41 34.34 15.77 44.21 15.64 53.98 C 15.61 73.07 15.72 92.15 15.59 111.24 C 14.45 112.71 13.31 114.19 12.17 115.68 C 9.72 115.75 7.25 115.95 4.81 115.62 C 2.99 114.99 1.84 113.25 0.38 112.07 C 0.28 111.43 0.09 110.17 0.00 109.54 L 0.00 46.77 C 0.98 43.54 2.00 40.32 2.84 37.05 C 7.98 21.06 21.02 8.09 36.87 2.66 C 39.28 2.10 41.70 1.52 44.11 0.93 L 42.41 0.00 Z" />
<path fill="#20dca5" opacity="1.00" d=" M 161.58 185.82 C 162.16 185.47 163.32 184.77 163.90 184.43 C 236.92 184.02 309.95 184.40 382.97 184.24 C 385.55 184.14 388.17 184.38 390.51 185.55 L 390.45 186.12 C 390.81 186.47 391.53 187.17 391.89 187.52 L 392.45 187.50 C 393.82 190.16 393.86 193.16 393.58 196.08 C 393.22 196.66 392.52 197.83 392.17 198.41 L 391.89 198.49 C 391.53 198.84 390.82 199.54 390.46 199.89 L 390.48 200.69 C 389.99 200.62 389.03 200.47 388.54 200.40 L 388.64 201.63 C 315.44 201.91 242.23 201.64 169.02 201.76 C 166.91 201.69 164.58 202.00 162.75 200.70 L 161.52 200.66 L 161.55 199.89 C 161.19 199.54 160.47 198.83 160.11 198.48 L 159.35 198.49 C 159.40 198.01 159.49 197.04 159.53 196.56 L 158.34 196.60 C 158.32 194.20 158.32 191.80 158.34 189.41 L 159.53 189.44 C 159.49 188.96 159.40 187.99 159.36 187.51 L 160.11 187.54 C 160.46 187.19 161.16 186.47 161.52 186.12 L 161.58 185.82 Z" />
<path fill="#20dca5" opacity="1.00" d=" M 161.59 241.83 C 162.18 241.49 163.34 240.79 163.93 240.45 C 193.94 240.00 223.97 240.40 253.99 240.26 C 284.02 240.37 314.06 240.05 344.09 240.42 C 344.67 240.77 345.84 241.47 346.42 241.82 L 346.49 242.12 C 346.84 242.47 347.54 243.19 347.90 243.55 L 348.74 243.55 L 348.35 245.31 C 348.68 245.35 349.33 245.42 349.66 245.46 C 349.68 247.84 349.68 250.22 349.66 252.61 L 348.44 252.57 C 348.49 253.05 348.60 254.01 348.65 254.49 L 347.87 254.47 C 347.52 254.82 346.81 255.52 346.46 255.87 L 346.43 256.24 C 345.83 256.56 344.65 257.22 344.06 257.55 C 314.05 258.00 284.03 257.61 254.01 257.74 C 223.80 257.67 193.59 257.88 163.38 257.64 L 163.50 256.45 C 163.00 256.50 162.01 256.61 161.51 256.67 L 161.60 255.88 C 161.23 255.54 160.50 254.85 160.13 254.51 L 159.53 254.52 C 158.24 251.50 157.42 247.70 159.31 244.76 L 159.33 243.53 L 160.10 243.52 C 160.46 243.17 161.17 242.47 161.53 242.11 L 161.59 241.83 Z" />
<path fill="#1e479c" opacity="1.00" d=" M 211.81 296.34 C 221.88 296.19 231.96 296.46 242.03 296.19 C 247.68 295.26 253.36 296.62 259.05 296.19 C 262.97 295.50 267.02 295.50 270.95 296.17 C 276.33 296.68 281.66 295.30 287.04 295.84 C 289.35 296.06 291.68 296.27 294.02 296.18 C 295.33 296.08 296.64 296.07 297.96 296.15 C 326.67 296.51 355.39 296.25 384.10 296.42 C 386.18 296.25 387.79 297.70 389.50 298.62 C 389.96 299.90 390.41 301.16 390.86 302.46 L 391.83 302.47 C 391.30 304.65 390.70 306.81 390.10 308.97 C 388.79 309.81 387.48 310.63 386.21 311.53 C 372.81 311.90 359.38 311.29 346.00 311.98 C 343.32 311.74 340.63 311.69 337.95 311.82 C 335.97 312.15 333.96 312.32 331.96 312.31 C 300.97 312.29 269.98 312.33 238.99 312.29 C 231.69 311.30 224.35 312.78 217.04 311.87 C 214.02 311.69 210.99 311.67 207.97 311.88 C 206.65 311.93 205.34 311.93 204.03 311.89 C 192.01 311.49 179.98 311.83 167.95 311.66 C 165.46 311.93 163.57 310.14 161.60 308.95 C 161.13 305.19 160.67 301.10 162.97 297.80 C 168.91 296.72 174.98 297.37 180.99 297.17 C 186.54 297.48 192.02 296.00 197.58 296.48 L 197.31 296.05 C 202.12 296.66 206.97 296.27 211.81 296.34 Z" />
<path fill="#1e479c" opacity="1.00" d=" M 213.02 351.87 C 255.62 351.46 298.31 351.73 340.94 351.69 C 344.29 351.69 347.66 351.56 350.99 351.97 C 354.66 352.53 358.33 351.42 362.00 351.99 C 370.14 351.73 378.29 352.61 386.45 352.37 C 387.92 353.42 389.25 354.65 390.68 355.73 C 390.57 356.19 390.35 357.09 390.24 357.55 L 391.60 357.43 C 391.47 359.24 391.32 361.07 390.82 362.83 C 390.27 363.64 389.74 364.45 389.23 365.29 C 387.91 366.02 386.57 366.71 385.25 367.45 C 381.18 367.80 377.11 368.40 373.01 368.19 C 307.67 368.30 242.34 368.22 177.00 368.23 C 173.13 368.44 169.28 367.99 165.46 367.50 L 165.50 366.33 C 165.04 366.40 164.10 366.55 163.63 366.63 L 163.52 365.42 L 162.27 365.50 C 162.29 365.15 162.32 364.43 162.33 364.08 C 159.64 363.03 160.81 359.75 160.37 357.57 C 160.69 357.54 161.34 357.47 161.66 357.44 C 161.62 357.07 161.53 356.34 161.49 355.98 C 161.85 355.44 162.57 354.38 162.92 353.85 C 164.53 353.21 166.13 352.35 167.91 352.39 C 179.28 352.17 190.67 352.53 202.03 352.12 C 204.68 351.89 207.34 352.14 209.98 351.87 C 210.74 351.87 212.26 351.87 213.02 351.87 Z" />
<path fill="#1e479c" opacity="1.00" d=" M 168.96 407.71 C 186.30 407.67 203.64 407.59 220.98 407.61 L 219.48 406.72 C 235.97 406.97 252.47 406.54 268.97 406.74 C 272.94 406.86 277.00 406.29 280.90 407.37 C 293.61 407.66 306.34 407.56 319.06 407.67 C 321.14 407.63 323.16 408.19 325.16 408.70 C 326.31 410.42 327.43 412.18 328.50 413.96 C 328.17 415.99 327.77 418.02 327.34 420.04 C 325.87 421.25 324.41 422.61 322.39 422.72 L 322.54 423.37 C 270.50 423.77 218.45 423.54 166.40 423.51 L 166.49 422.81 C 164.02 422.56 162.43 420.65 161.05 418.81 C 160.51 418.10 159.95 417.40 159.39 416.71 L 160.67 416.78 C 160.59 415.94 160.42 414.27 160.34 413.44 L 161.10 413.48 C 161.80 409.87 165.42 407.59 168.96 407.71 Z" />
</svg>
