<svg width="38" height="37" viewBox="0 0 38 37" fill="none" xmlns="http://www.w3.org/2000/svg">
<path d="M6.10997 0.106082H22.9347C23.5652 0.157131 24.211 0.0839282 24.8319 0.233224C26.3511 0.543373 27.6882 1.6077 28.3321 3.0159C28.9925 4.41061 28.9433 6.1145 28.1943 7.4649C27.6149 8.55235 26.6104 9.38262 25.4594 9.81028C25.4777 11.6394 25.4835 13.4695 25.4565 15.2986C26.7242 14.8507 28.1885 14.9624 29.3289 15.6935C31.4121 17.0458 33.4905 18.4058 35.5689 19.7649C36.5657 20.4151 37.1528 21.6008 37.1209 22.7855V29.6801C37.1354 31.069 36.744 32.4647 35.9564 33.6138C34.9105 35.1741 33.2004 36.2674 31.3447 36.5679C30.1686 36.7846 28.9626 36.5659 27.7798 36.7075H26.996C25.552 36.5582 24.0925 36.7884 22.6542 36.5833C20.8592 36.3483 19.1452 35.5527 17.8024 34.34C15.2882 32.036 12.7693 29.7398 10.2542 27.4377C10.0335 27.2345 9.75775 27.0448 9.68931 26.7327C9.64882 26.4601 9.67196 26.1827 9.67292 25.9091C9.69509 24.7909 10.4393 23.7458 11.4592 23.3047C12.2902 22.9319 13.287 22.9666 14.0958 23.3817C15.668 24.159 17.25 24.918 18.8213 25.6982C18.8117 20.4969 18.8194 15.2947 18.8174 10.0935C14.3782 10.0915 9.93899 10.0944 5.49976 10.0925C3.94097 10.1031 2.4082 9.31905 1.4924 8.06112C0.628655 6.90625 0.315355 5.3661 0.654684 3.96561C0.99594 2.48229 2.06309 1.19064 3.45318 0.571305C4.27837 0.174469 5.20766 0.101266 6.10997 0.106082ZM5.34841 1.7936C3.63056 1.83887 2.1431 3.40021 2.18552 5.11759C2.14985 6.84942 3.67105 8.41172 5.40432 8.4281C9.8744 8.43195 14.3454 8.43002 18.8165 8.43002C18.7953 7.253 19.4903 6.14725 20.4871 5.55007C20.4688 4.29695 20.4803 3.04383 20.4813 1.79071C15.4367 1.7936 10.393 1.78686 5.34841 1.7936ZM22.1384 1.79264C22.1442 2.89261 22.1452 3.99258 22.1375 5.09255C22.8007 5.12915 23.4707 5.29771 24.0153 5.69262C24.7914 6.21756 25.3052 7.08733 25.4324 8.01103C26.2914 7.49187 26.9449 6.61632 27.0886 5.61267C27.3344 4.20833 26.5343 2.72116 25.2473 2.12013C24.2833 1.62793 23.1757 1.83309 22.1384 1.79264ZM20.4813 8.39439C20.4775 14.6234 20.4842 20.8533 20.4784 27.0823C20.462 27.6275 19.8152 28.0388 19.3197 27.7883C17.2905 26.8097 15.2738 25.8042 13.2465 24.8236C12.3779 24.4258 11.2491 25.1819 11.3204 26.1451C13.8499 28.477 16.3959 30.7935 18.937 33.1129C20.2798 34.339 22.097 35.0113 23.9122 35.0036C26.0648 35.0008 28.2165 35.0075 30.3691 34.9998C32.5236 34.9507 34.5663 33.4529 35.2045 31.3878C35.5168 30.4968 35.433 29.5433 35.4426 28.6167C35.4426 26.6238 35.4417 24.631 35.4436 22.6372C35.4532 22.0275 35.1072 21.4457 34.5991 21.1182C32.5603 19.789 30.5243 18.4559 28.4845 17.1286C27.8019 16.6904 26.9411 16.6557 26.1689 16.8301C25.6763 16.9476 25.3302 17.3569 24.8666 17.5361C24.3759 17.7008 23.8177 17.2914 23.8013 16.7809C23.7946 13.9828 23.8023 11.1848 23.7975 8.38668C23.8062 7.49476 22.9684 6.71842 22.0806 6.77525C21.2303 6.78488 20.4794 7.54485 20.4813 8.39439Z" fill="white"/>
</svg>
