<?xml version="1.0" encoding="UTF-8" ?>
<!DOCTYPE svg PUBLIC "-//W3C//DTD SVG 1.1//EN" "http://www.w3.org/Graphics/SVG/1.1/DTD/svg11.dtd">
<svg width="500pt" height="650pt" viewBox="0 0 500 650" version="1.1" xmlns="http://www.w3.org/2000/svg">
<path fill="#1e479c" opacity="1.00" d=" M 137.68 31.55 C 161.32 14.90 189.49 5.49 217.99 1.65 C 227.67 1.47 237.36 1.52 247.05 1.62 C 284.99 6.18 322.56 21.83 349.22 49.78 C 372.52 72.40 387.43 103.10 392.32 135.09 C 394.12 145.64 393.78 156.39 393.54 167.06 C 391.64 193.16 381.85 218.84 364.83 238.84 C 354.93 250.02 343.35 259.69 330.63 267.51 C 328.37 268.81 326.19 270.24 324.07 271.76 C 330.56 280.34 337.12 288.90 342.78 298.07 C 343.86 299.93 345.22 301.59 346.68 303.16 C 356.18 292.42 366.55 282.28 378.65 274.48 C 397.12 263.41 408.12 243.19 427.37 233.18 C 433.99 229.57 441.57 228.35 448.98 227.63 C 464.10 227.49 478.67 235.18 488.19 246.72 C 497.27 258.12 502.28 273.58 498.55 288.00 C 496.90 298.10 491.12 306.94 484.49 314.50 C 477.78 321.78 470.43 328.43 463.44 335.43 C 460.26 338.67 456.52 341.56 454.46 345.71 C 450.17 354.02 450.14 363.77 446.11 372.19 C 443.81 377.19 439.45 380.74 435.91 384.83 C 410.44 411.38 383.92 436.89 358.08 463.07 C 355.54 465.77 352.57 468.11 350.49 471.19 C 350.41 472.59 351.78 473.43 352.56 474.41 C 363.24 484.93 374.49 495.55 380.83 509.41 C 384.85 517.47 385.63 526.58 386.51 535.40 C 386.50 542.28 387.86 549.13 387.07 556.00 C 386.18 562.89 387.04 569.88 385.91 576.75 C 383.24 601.25 365.81 623.53 342.56 631.82 C 340.03 632.85 336.89 633.06 334.66 631.24 C 330.73 628.86 329.43 623.78 330.64 619.53 C 332.96 616.17 336.93 614.61 340.18 612.34 C 350.36 605.93 360.40 597.75 364.41 585.98 C 366.89 577.92 367.50 569.43 367.89 561.05 C 368.98 552.70 367.47 544.34 367.45 535.98 C 366.79 530.37 366.49 524.61 364.38 519.31 C 361.98 513.02 357.95 507.50 353.50 502.51 C 348.04 496.53 342.44 490.66 336.29 485.39 C 323.50 500.94 308.46 514.89 290.80 524.74 C 276.92 532.71 261.22 536.41 245.84 540.25 C 220.93 546.29 195.91 551.89 171.13 558.41 C 160.87 561.09 150.55 563.69 140.04 565.14 C 130.00 566.30 119.90 565.44 109.84 565.39 C 106.64 582.62 101.09 599.37 98.10 616.65 C 109.42 616.49 120.69 617.47 132.00 617.26 C 144.67 617.24 157.34 617.30 170.00 617.25 C 179.98 616.41 190.00 616.88 200.00 616.76 C 216.33 616.76 232.67 616.77 249.01 616.76 C 265.23 617.79 281.52 617.00 297.76 617.63 C 304.61 618.84 306.35 628.25 301.96 632.97 C 298.60 637.22 292.60 635.05 288.00 636.09 C 271.68 636.69 255.33 636.30 239.00 636.42 C 207.00 636.31 175.00 636.29 143.00 636.42 C 129.93 636.39 116.82 636.86 103.80 635.61 C 98.41 635.68 92.92 633.39 87.63 634.88 C 79.07 639.96 70.41 645.15 60.89 648.22 C 55.61 648.69 50.27 648.48 44.97 648.33 C 30.56 646.36 17.51 637.36 9.98 624.99 C 2.56 612.94 -0.88 597.74 3.54 583.99 C 6.67 572.45 15.53 563.90 23.33 555.33 C 38.01 538.70 55.25 524.59 70.38 508.41 C 71.84 506.65 72.07 504.24 72.34 502.07 C 73.06 488.49 75.72 475.12 76.82 461.59 C 78.32 449.75 79.53 437.88 81.25 426.06 C 82.16 413.29 84.54 400.68 85.57 387.91 C 87.00 378.05 87.96 368.12 89.53 358.28 C 91.77 342.83 92.18 326.85 97.85 312.11 C 104.18 295.25 114.81 280.18 127.85 267.84 C 128.75 266.94 130.67 265.17 128.94 264.14 C 96.29 243.88 76.00 206.92 72.49 169.07 C 71.23 160.07 71.07 150.86 72.36 141.85 C 73.58 126.19 77.89 110.81 84.63 96.64 C 85.99 93.69 87.92 90.42 91.45 89.89 C 95.78 89.29 100.08 92.01 102.29 95.65 C 102.92 98.05 102.62 100.62 101.68 102.91 C 96.50 116.41 93.08 130.61 91.66 145.01 C 91.23 153.64 91.13 162.31 91.73 170.93 C 93.28 183.46 96.71 195.92 102.96 206.95 C 114.38 191.23 127.95 177.29 141.07 163.02 C 142.50 161.83 142.65 160.04 142.31 158.33 C 140.70 148.45 141.92 138.20 145.07 128.74 C 150.38 112.94 164.84 100.95 181.05 97.66 C 186.69 97.02 192.39 97.29 198.05 97.35 C 203.52 97.29 208.56 99.75 213.87 100.60 C 217.05 99.51 219.57 97.05 222.42 95.32 C 246.95 79.24 272.84 64.88 300.60 55.19 C 306.54 53.18 312.44 50.84 318.69 49.96 C 319.02 46.54 315.07 45.69 312.87 44.02 C 285.19 26.99 252.19 17.84 219.65 21.11 C 210.44 22.39 201.16 23.54 192.22 26.21 C 165.88 33.92 142.06 49.39 123.40 69.41 C 119.22 73.89 111.45 71.12 108.77 66.22 C 106.72 63.85 107.62 60.55 109.40 58.33 C 117.10 47.77 127.08 39.11 137.68 31.55 M 322.84 68.57 C 288.45 77.49 256.71 94.61 227.75 114.88 C 225.72 115.71 226.63 117.90 226.92 119.51 C 230.91 135.17 232.56 151.96 228.37 167.75 C 225.81 176.53 221.58 185.48 213.88 190.87 C 206.62 195.84 197.66 196.89 189.14 197.84 C 187.42 198.30 187.64 200.47 187.13 201.80 C 185.34 210.80 183.52 219.80 181.29 228.70 C 180.19 233.32 178.54 237.83 178.15 242.59 C 187.47 242.72 196.70 241.17 206.03 241.43 C 216.97 240.14 228.01 240.52 239.00 240.51 C 261.69 241.18 285.12 245.12 304.71 257.28 C 307.27 259.50 310.00 256.70 312.45 255.68 C 331.77 245.77 349.12 231.25 360.33 212.47 C 368.33 198.97 372.75 183.56 374.46 168.02 C 374.83 160.68 374.78 153.32 374.49 145.97 C 371.88 118.78 361.07 92.35 343.59 71.33 C 341.88 69.25 340.29 66.97 338.01 65.47 C 332.84 65.81 327.87 67.45 322.84 68.57 M 185.40 115.71 C 181.21 116.48 177.35 118.50 173.90 120.94 C 161.69 129.40 157.16 147.05 163.61 160.40 C 169.69 173.51 185.72 181.02 199.62 176.77 C 204.12 175.14 206.69 170.75 208.73 166.70 C 213.06 158.19 211.68 148.31 211.39 139.13 C 210.29 132.35 210.03 124.39 204.52 119.49 C 199.43 114.75 191.87 114.82 185.40 115.71 M 151.06 179.94 C 138.79 193.41 126.66 207.05 115.47 221.44 C 114.39 222.65 113.59 224.68 114.99 225.99 C 118.04 229.59 121.57 232.75 124.94 236.05 C 132.47 243.41 141.48 248.96 150.21 254.76 C 161.73 239.03 164.28 219.05 167.76 200.39 C 168.11 197.59 169.68 194.09 167.22 191.83 C 163.43 187.55 158.77 184.18 154.32 180.63 C 153.44 180.03 151.99 178.72 151.06 179.94 M 442.98 247.69 C 431.31 250.97 422.58 260.04 414.79 268.84 C 410.35 274.02 404.90 278.27 400.83 283.77 C 410.88 294.17 421.29 304.24 431.40 314.59 C 435.64 318.97 439.34 323.88 443.91 327.95 C 451.52 320.55 458.96 312.98 466.55 305.55 C 472.31 300.06 476.78 293.22 479.64 285.81 C 484.14 271.64 475.38 255.52 461.94 250.00 C 456.00 247.56 449.32 245.72 442.98 247.69 M 205.56 260.26 C 200.42 260.79 195.22 260.33 190.08 260.95 C 152.25 263.75 119.26 294.68 112.19 331.67 C 109.98 345.11 108.70 358.70 106.82 372.20 C 102.34 410.25 97.57 448.26 92.96 486.30 C 92.46 490.30 91.64 494.23 90.69 498.14 C 90.09 502.72 90.23 507.39 90.56 511.99 C 93.10 526.91 103.55 540.70 118.05 545.73 C 125.42 548.51 133.62 547.91 141.06 545.69 C 179.80 536.77 218.41 527.30 257.01 517.75 C 302.06 506.07 337.40 464.40 341.56 418.06 C 342.78 391.43 338.41 365.06 335.91 338.65 C 332.05 301.89 302.65 269.39 266.34 262.24 C 257.00 260.41 247.46 260.73 238.04 259.64 C 227.22 259.72 216.33 259.01 205.56 260.26 M 361.45 315.42 C 358.96 318.25 356.00 320.64 353.59 323.55 C 353.28 325.27 353.49 327.04 353.62 328.78 C 355.22 343.84 357.36 358.84 358.83 373.92 C 359.90 380.05 359.15 386.32 360.30 392.44 C 361.19 406.95 360.52 421.53 358.37 435.90 C 364.90 429.93 370.65 423.16 377.06 417.06 C 393.19 400.85 409.44 384.77 425.54 368.55 C 429.54 364.36 431.81 358.68 432.38 352.97 C 432.92 345.71 428.62 339.24 423.54 334.47 C 411.21 320.64 397.62 308.01 384.10 295.37 C 374.87 299.87 368.16 307.91 361.45 315.42 M 29.49 576.51 C 23.57 582.30 20.35 590.67 20.69 598.93 C 21.39 607.66 25.09 616.40 31.93 622.08 C 38.98 627.90 48.71 631.11 57.75 628.64 C 64.86 626.71 71.60 623.07 76.98 618.02 C 79.24 614.67 79.32 610.36 80.34 606.54 C 84.41 589.25 89.23 572.15 93.53 554.91 C 86.71 547.42 80.85 539.17 75.10 530.87 C 59.77 545.94 44.54 561.14 29.49 576.51 Z" />
<path fill="#20dca5" opacity="1.00" d=" M 185.40 115.71 C 191.87 114.82 199.43 114.75 204.52 119.49 C 210.03 124.39 210.29 132.35 211.39 139.13 C 211.68 148.31 213.06 158.19 208.73 166.70 C 206.69 170.75 204.12 175.14 199.62 176.77 C 185.72 181.02 169.69 173.51 163.61 160.40 C 157.16 147.05 161.69 129.40 173.90 120.94 C 177.35 118.50 181.21 116.48 185.40 115.71 Z" />
<path fill="#1e479c" opacity="1.00" d=" M 324.74 128.93 C 328.92 126.52 332.82 123.66 336.99 121.24 C 340.57 124.01 345.96 126.74 345.69 132.00 C 345.76 134.12 345.77 136.53 343.99 138.03 C 332.83 151.74 310.46 154.78 296.59 143.46 C 293.51 140.58 288.78 137.88 289.28 133.02 C 288.61 128.88 291.33 125.09 294.97 123.40 C 300.51 122.35 305.08 126.19 309.76 128.46 C 314.19 131.15 320.23 131.79 324.74 128.93 Z" />
<path fill="#20dca5" opacity="1.00" d=" M 442.98 247.69 C 449.32 245.72 456.00 247.56 461.94 250.00 C 475.38 255.52 484.14 271.64 479.64 285.81 C 476.78 293.22 472.31 300.06 466.55 305.55 C 458.96 312.98 451.52 320.55 443.91 327.95 C 439.34 323.88 435.64 318.97 431.40 314.59 C 421.29 304.24 410.88 294.17 400.83 283.77 C 404.90 278.27 410.35 274.02 414.79 268.84 C 422.58 260.04 431.31 250.97 442.98 247.69 Z" />
</svg>
