<?xml version="1.0" encoding="UTF-8" ?>
<!DOCTYPE svg PUBLIC "-//W3C//DTD SVG 1.1//EN" "http://www.w3.org/Graphics/SVG/1.1/DTD/svg11.dtd">
<svg width="525pt" height="600pt" viewBox="0 0 525 600" version="1.1" xmlns="http://www.w3.org/2000/svg">
<path fill="#1e479c" opacity="1.00" d=" M 238.64 0.00 L 284.36 0.00 C 290.48 2.45 297.20 1.89 303.57 3.20 C 309.41 4.08 315.03 6.08 320.91 6.79 C 344.28 11.90 366.74 20.77 387.75 32.16 C 405.26 41.68 421.37 53.58 436.45 66.56 C 444.84 74.50 452.85 82.82 460.97 91.03 C 490.56 125.49 511.15 167.76 519.31 212.49 C 521.22 221.54 522.80 230.72 522.62 240.00 C 523.90 253.95 523.89 268.04 522.61 282.00 C 522.80 290.96 521.33 299.82 519.37 308.53 C 513.55 341.41 500.94 373.01 483.11 401.20 C 474.65 413.80 465.99 426.45 455.00 437.00 C 452.72 439.21 450.45 442.06 447.01 442.22 C 443.93 441.89 440.71 440.40 439.23 437.54 C 437.49 434.35 438.12 430.23 440.52 427.54 C 446.48 420.14 453.41 413.48 458.39 405.31 C 483.86 370.11 500.38 328.15 504.23 284.80 C 506.28 274.66 505.44 264.28 505.63 254.01 C 505.83 245.27 503.54 236.72 503.41 227.99 C 499.24 199.33 490.38 171.22 476.39 145.81 C 471.01 133.77 463.33 122.95 455.47 112.43 C 446.02 99.71 433.97 89.32 423.01 77.97 C 391.61 50.22 352.86 30.77 311.76 22.45 C 303.28 20.52 294.71 18.79 285.99 18.54 C 275.06 16.95 263.97 17.40 252.96 17.43 C 247.92 17.36 243.00 18.80 237.96 18.69 C 230.87 18.41 224.18 21.21 217.16 21.71 C 175.11 29.60 135.31 48.97 103.03 77.03 C 94.13 85.79 85.31 94.62 76.58 103.55 C 75.21 104.73 73.88 106.32 71.99 106.58 C 65.30 108.10 58.39 98.95 63.32 93.35 C 78.65 73.98 97.77 57.92 118.06 43.98 C 129.35 35.47 142.01 29.00 154.76 23.01 C 175.90 13.44 198.29 6.70 221.16 2.78 C 227.03 2.21 233.18 2.66 238.64 0.00 Z" />
<path fill="#1e479c" opacity="1.00" d=" M 42.19 124.86 C 47.20 122.88 54.42 127.33 53.68 133.01 C 53.83 136.40 51.46 139.08 50.06 141.96 C 37.72 164.86 28.22 189.47 23.60 215.11 C 23.38 219.18 22.08 223.07 21.62 227.10 C 21.29 233.53 20.53 239.95 18.81 246.15 C 18.69 256.05 18.70 265.96 18.81 275.85 C 20.54 281.75 21.04 287.92 21.49 294.05 C 26.53 330.30 39.54 365.63 60.07 396.02 C 62.81 400.46 66.32 404.33 69.60 408.36 C 92.53 438.77 122.87 463.59 157.26 479.95 C 162.12 482.47 167.97 483.94 171.27 488.65 C 183.63 504.92 196.15 521.09 208.44 537.42 C 211.66 542.83 215.65 547.69 219.40 552.72 C 226.46 562.05 233.56 572.52 244.95 576.87 C 258.04 582.70 273.95 581.77 286.03 573.96 C 290.11 571.51 293.07 567.72 296.49 564.50 C 300.87 560.48 303.86 555.29 307.55 550.68 C 320.69 533.75 333.47 516.54 346.55 499.55 C 351.01 494.66 354.15 488.36 359.81 484.70 C 376.98 476.53 393.74 467.30 408.96 455.84 C 410.84 454.57 412.72 453.07 415.00 452.59 C 419.27 453.75 423.70 457.21 423.68 462.00 C 423.91 464.84 421.89 467.15 420.05 469.06 C 414.53 474.39 407.59 477.85 401.44 482.37 C 394.51 486.92 387.09 490.68 379.81 494.65 C 375.14 497.28 369.29 498.46 366.00 503.04 C 361.83 508.49 357.99 514.20 353.18 519.12 C 338.42 538.37 323.92 557.83 308.93 576.91 C 294.06 593.71 269.47 601.79 247.69 595.74 C 234.81 592.82 223.38 585.07 215.00 574.96 C 196.32 550.93 178.10 526.55 159.40 502.54 C 156.44 498.57 151.51 497.10 147.31 494.88 C 120.87 481.29 96.03 464.10 75.49 442.50 C 52.42 418.87 34.20 390.62 21.61 360.11 C 14.30 342.03 8.55 323.22 5.78 303.89 C 3.76 298.09 4.87 291.89 3.57 285.96 C 1.50 274.76 2.60 263.32 2.35 252.00 C 1.94 244.28 3.62 236.69 4.35 229.06 C 4.04 222.07 5.95 215.30 7.35 208.53 C 12.59 182.75 21.96 157.84 34.67 134.83 C 36.77 131.28 38.24 126.81 42.19 124.86 Z" />
<path fill="#1e479c" opacity="1.00" d=" M 205.56 146.61 C 220.03 134.92 238.31 127.59 257.01 127.45 C 264.83 127.44 272.73 127.07 280.45 128.59 C 301.04 133.46 320.52 144.58 333.68 161.37 C 342.58 171.73 347.96 184.64 351.52 197.71 C 352.85 202.02 352.40 206.62 353.52 210.98 C 354.47 225.14 352.54 239.63 347.04 252.78 C 339.20 272.91 323.48 289.56 304.49 299.66 C 301.89 301.07 298.94 301.95 296.77 304.03 C 296.25 318.35 296.73 332.70 296.51 347.03 C 296.86 353.74 293.91 360.10 290.55 365.73 C 285.51 373.27 277.20 377.65 268.72 380.20 C 264.59 380.47 260.42 380.50 256.30 380.17 C 248.72 377.94 241.21 374.19 236.25 367.84 C 231.89 362.16 229.10 355.20 228.57 348.06 C 228.52 333.02 228.49 317.98 228.57 302.95 C 228.48 297.96 230.23 293.20 230.75 288.27 C 235.05 270.32 247.22 254.63 262.89 245.07 C 268.26 241.63 274.73 239.95 279.38 235.43 C 287.34 227.42 288.89 213.84 282.46 204.48 C 279.04 200.64 275.00 197.10 269.91 195.76 C 262.27 192.59 253.56 195.42 247.23 200.15 C 240.89 205.04 238.65 213.36 238.49 221.04 C 237.93 235.71 226.19 248.65 211.93 251.46 C 206.99 251.85 202.01 251.85 197.07 251.48 C 189.45 249.92 182.82 245.08 178.09 239.01 C 173.87 232.12 170.81 224.21 171.33 216.00 C 171.91 205.23 173.96 194.45 178.23 184.50 C 183.77 169.71 193.88 157.06 205.56 146.61 M 260.49 144.66 C 254.91 145.90 249.01 144.53 243.60 146.61 C 228.40 150.51 214.48 159.59 205.46 172.50 C 201.95 176.26 199.08 180.54 197.25 185.37 C 191.68 195.62 188.87 207.36 189.56 219.03 C 189.24 224.11 192.13 229.08 196.58 231.49 C 200.15 233.45 204.46 235.40 208.52 233.70 C 214.82 232.08 219.39 226.18 220.07 219.81 C 221.37 214.04 220.96 207.87 223.53 202.42 C 228.70 190.67 239.12 181.34 251.51 177.82 C 260.69 175.76 270.80 175.51 279.45 179.68 C 286.13 184.11 292.93 188.74 297.61 195.39 C 304.38 204.63 306.00 216.92 303.80 227.96 C 302.12 236.54 296.03 243.11 290.55 249.54 C 287.53 253.04 283.30 255.08 279.32 257.26 C 276.23 258.92 272.54 259.46 269.84 261.83 C 264.23 266.52 259.04 271.75 254.48 277.47 C 248.86 285.44 246.53 295.32 246.38 304.97 C 246.38 318.98 246.36 332.99 246.40 347.00 C 246.30 352.89 250.95 357.67 255.82 360.29 C 263.00 363.29 273.17 361.10 276.71 353.66 C 279.46 341.65 278.13 329.22 278.44 317.00 C 278.71 309.90 277.30 302.24 280.81 295.71 C 285.30 288.24 293.86 285.25 301.05 281.10 C 307.36 278.08 312.14 272.86 316.95 267.94 C 341.53 243.83 343.43 200.91 321.65 174.38 C 314.28 165.43 305.59 157.38 295.38 151.77 C 289.53 148.92 283.27 146.90 276.93 145.53 C 271.42 145.65 265.98 144.00 260.49 144.66 Z" />
<path fill="#20dca5" opacity="1.00" d=" M 260.49 144.66 C 265.98 144.00 271.42 145.65 276.93 145.53 C 283.27 146.90 289.53 148.92 295.38 151.77 C 305.59 157.38 314.28 165.43 321.65 174.38 C 343.43 200.91 341.53 243.83 316.95 267.94 C 312.14 272.86 307.36 278.08 301.05 281.10 C 293.86 285.25 285.30 288.24 280.81 295.71 C 277.30 302.24 278.71 309.90 278.44 317.00 C 278.13 329.22 279.46 341.65 276.71 353.66 C 273.17 361.10 263.00 363.29 255.82 360.29 C 250.95 357.67 246.30 352.89 246.40 347.00 C 246.36 332.99 246.38 318.98 246.38 304.97 C 246.53 295.32 248.86 285.44 254.48 277.47 C 259.04 271.75 264.23 266.52 269.84 261.83 C 272.54 259.46 276.23 258.92 279.32 257.26 C 283.30 255.08 287.53 253.04 290.55 249.54 C 296.03 243.11 302.12 236.54 303.80 227.96 C 306.00 216.92 304.38 204.63 297.61 195.39 C 292.93 188.74 286.13 184.11 279.45 179.68 C 270.80 175.51 260.69 175.76 251.51 177.82 C 239.12 181.34 228.70 190.67 223.53 202.42 C 220.96 207.87 221.37 214.04 220.07 219.81 C 219.39 226.18 214.82 232.08 208.52 233.70 C 204.46 235.40 200.15 233.45 196.58 231.49 C 192.13 229.08 189.24 224.11 189.56 219.03 C 188.87 207.36 191.68 195.62 197.25 185.37 C 199.08 180.54 201.95 176.26 205.46 172.50 C 214.48 159.59 228.40 150.51 243.60 146.61 C 249.01 144.53 254.91 145.90 260.49 144.66 Z" />
<path fill="#1e479c" opacity="1.00" d=" M 255.27 387.02 C 262.06 385.76 269.40 386.02 275.69 389.17 C 282.04 391.66 286.98 396.52 291.37 401.59 C 298.78 413.30 298.49 429.68 289.44 440.47 C 283.76 446.48 276.57 451.96 268.04 452.64 C 251.54 455.70 233.40 444.03 230.21 427.34 C 227.34 416.02 231.53 403.76 239.47 395.48 C 243.89 391.35 249.51 388.71 255.27 387.02 M 258.44 403.73 C 251.81 406.21 246.38 412.76 246.50 420.05 C 246.15 428.57 254.30 436.91 263.02 435.62 C 271.69 436.61 278.17 427.92 278.54 420.00 C 278.19 413.13 273.50 406.83 267.43 403.81 C 264.47 403.28 261.40 403.35 258.44 403.73 Z" />
</svg>
