<?xml version="1.0" encoding="UTF-8" ?>
<!DOCTYPE svg PUBLIC "-//W3C//DTD SVG 1.1//EN" "http://www.w3.org/Graphics/SVG/1.1/DTD/svg11.dtd">
<svg width="483pt" height="546pt" viewBox="0 0 483 546" version="1.1" xmlns="http://www.w3.org/2000/svg">
<path fill="#112859" opacity="0.48" d=" M 163.73 0.00 L 184.46 0.00 C 187.45 0.27 190.36 1.00 193.28 1.62 C 185.20 2.21 177.08 1.26 169.00 2.14 C 156.91 1.97 144.99 4.48 133.28 7.26 C 121.79 10.02 110.99 14.83 99.99 18.99 C 102.43 17.40 104.90 15.79 107.64 14.75 C 120.32 9.63 133.41 5.36 146.93 3.11 C 152.48 1.74 158.33 1.99 163.73 0.00 Z" />
<path fill="#1e479c" opacity="1.00" d=" M 133.28 7.26 C 144.99 4.48 156.91 1.97 169.00 2.14 C 177.08 1.26 185.20 2.21 193.28 1.62 C 209.98 2.36 226.13 7.08 241.90 12.31 C 252.75 16.52 263.08 21.96 272.99 28.03 C 278.30 32.05 285.09 34.91 288.24 41.12 C 288.65 45.03 286.71 50.33 282.07 50.40 C 276.16 51.45 271.82 46.58 267.27 43.71 C 251.43 33.15 233.59 25.68 215.13 21.12 C 206.58 19.00 197.75 18.64 189.04 17.55 C 174.44 16.99 159.66 17.06 145.37 20.43 C 142.74 21.11 140.04 21.51 137.32 21.47 C 137.76 21.80 138.20 22.14 138.64 22.49 C 128.76 23.51 119.77 28.04 110.71 31.76 C 104.04 34.87 97.25 37.87 91.30 42.25 C 78.73 51.10 66.17 60.29 56.25 72.17 C 50.40 79.49 44.86 87.06 39.86 94.99 C 34.09 103.17 29.92 112.34 26.50 121.71 C 24.42 129.03 20.75 135.96 20.48 143.72 C 20.14 143.25 19.79 142.78 19.45 142.32 C 19.54 146.48 18.70 150.56 17.90 154.62 C 14.49 180.49 18.04 206.54 17.49 232.49 C 17.69 228.63 18.21 224.78 18.57 220.93 C 17.72 233.67 20.18 246.32 19.40 259.05 C 19.67 255.67 20.24 252.32 20.58 248.96 C 19.79 259.68 22.21 270.31 21.39 281.04 C 21.72 277.98 22.17 274.93 22.60 271.93 C 21.79 282.31 24.15 292.61 23.44 302.99 C 23.56 299.94 24.44 296.98 24.55 293.93 C 23.85 304.99 26.13 315.96 25.47 327.03 C 25.66 323.65 26.44 320.34 26.56 316.96 C 25.69 334.71 28.73 352.30 28.87 370.01 C 30.23 386.93 28.36 403.98 30.41 420.85 C 30.88 431.40 34.68 441.38 38.00 451.29 C 41.25 460.53 47.51 468.18 52.74 476.33 C 56.30 481.64 61.06 485.94 65.56 490.42 C 69.90 494.25 67.84 502.45 61.98 503.51 C 56.47 504.98 52.94 499.81 49.45 496.55 C 41.18 488.60 34.90 478.95 28.80 469.32 C 25.47 462.82 22.43 456.17 19.88 449.33 C 16.85 439.45 14.88 429.29 13.61 419.05 C 13.13 406.04 13.43 393.01 13.14 380.00 C 12.42 372.36 12.98 364.66 12.15 357.03 C 11.12 349.72 11.70 342.31 10.75 334.99 C 10.50 325.95 9.11 317.01 8.64 307.99 C 8.28 297.30 5.90 286.69 6.65 275.96 C 6.23 277.99 5.90 280.04 5.51 282.08 C 6.04 270.33 3.54 258.73 3.41 247.01 C 3.06 236.97 0.96 227.06 1.37 216.99 C 0.17 194.85 -0.41 172.55 1.90 150.46 C 5.13 133.96 9.52 117.48 17.43 102.54 C 22.41 90.82 29.19 79.96 37.05 69.96 C 53.51 48.16 75.89 31.52 99.99 18.99 C 110.99 14.83 121.79 10.02 133.28 7.26 Z" />
<path fill="#1e479c" opacity="1.00" d=" M 299.83 68.00 C 299.64 61.74 309.33 57.75 313.25 62.80 C 320.78 71.41 326.96 81.09 333.22 90.63 C 338.19 100.00 342.96 109.58 346.28 119.66 C 352.34 135.04 354.92 151.58 356.41 167.98 C 356.62 176.99 356.65 186.01 356.39 195.01 C 355.78 202.00 354.52 208.95 354.44 215.99 C 352.38 232.94 348.62 249.75 342.59 265.75 C 338.50 276.24 333.14 286.17 327.60 295.95 C 327.78 296.29 328.12 296.96 328.29 297.30 C 335.41 297.47 342.38 299.02 349.26 300.79 C 365.96 304.80 381.86 311.73 396.60 320.49 C 403.71 325.63 411.43 330.08 417.50 336.51 C 421.70 340.94 426.37 344.93 430.23 349.67 C 437.91 360.52 444.90 372.12 448.67 384.97 C 452.47 399.57 452.51 415.03 449.62 429.80 C 446.53 440.17 442.64 450.48 436.45 459.43 C 432.37 465.86 427.04 471.35 422.17 477.17 C 421.29 478.25 420.19 479.42 420.45 480.97 C 420.92 486.31 423.30 491.31 423.51 496.71 C 423.82 496.24 424.14 495.78 424.46 495.33 C 425.06 505.82 433.69 514.29 432.66 525.03 C 432.53 530.88 429.13 536.09 425.11 540.10 C 421.35 542.05 417.41 544.13 413.06 544.10 C 399.87 544.28 387.31 539.75 374.86 536.00 C 368.62 533.24 362.44 530.15 357.09 525.86 C 353.81 523.32 350.93 520.06 347.01 518.50 C 341.90 517.98 337.05 520.05 332.06 520.72 C 324.74 521.76 317.40 522.77 309.99 522.59 C 298.09 522.46 286.10 523.24 274.29 521.32 C 254.71 518.93 235.83 512.56 217.95 504.40 C 209.04 510.84 199.98 517.30 189.97 521.98 C 183.83 523.62 178.08 526.41 171.92 528.00 C 162.51 530.53 152.87 532.63 143.08 532.62 C 133.50 532.67 123.80 533.03 114.40 530.77 C 106.73 529.66 99.59 526.49 92.01 524.99 C 89.64 523.71 86.93 522.44 85.64 519.94 C 84.75 516.35 85.36 512.53 87.87 509.73 C 91.42 509.31 95.13 508.96 98.45 510.60 C 111.24 515.90 125.13 517.76 138.88 518.12 C 145.78 517.31 152.83 517.44 159.60 515.68 C 168.90 513.70 177.94 510.56 186.50 506.44 C 188.44 505.47 190.13 504.10 191.84 502.79 C 195.00 500.75 198.17 498.63 201.71 497.29 C 201.24 496.31 201.29 495.35 201.85 494.42 C 191.04 488.75 182.37 479.80 174.15 470.91 C 168.18 464.27 163.92 456.36 159.63 448.59 C 155.77 439.46 151.57 430.06 151.43 419.97 C 151.21 411.30 151.09 402.61 151.69 393.96 C 152.95 385.84 155.38 377.87 159.05 370.51 C 152.21 370.58 145.27 371.07 138.55 369.48 C 129.72 368.07 121.76 363.58 114.71 358.26 C 108.93 353.29 103.13 347.79 100.49 340.44 C 93.65 339.42 86.84 342.31 80.07 341.04 C 73.57 339.52 72.21 329.28 78.26 326.37 C 84.39 324.45 91.17 325.58 97.19 323.10 C 106.33 319.45 114.19 313.02 120.31 305.38 C 126.95 295.74 128.85 283.40 127.14 271.96 C 125.72 261.97 119.66 253.31 112.58 246.43 C 107.23 241.12 100.11 238.19 93.00 236.10 C 88.32 234.75 83.39 234.97 78.61 234.30 C 75.62 232.00 73.31 227.87 74.80 224.09 C 75.72 221.95 77.43 219.63 79.96 219.48 C 83.69 219.22 87.45 219.26 91.19 219.42 C 92.27 211.65 93.49 203.86 93.42 195.99 C 93.66 186.67 92.99 177.28 94.43 168.03 C 94.85 161.40 95.90 154.80 98.41 148.62 C 103.33 132.76 112.67 118.13 125.83 107.89 C 132.26 103.63 138.10 98.32 145.39 95.51 C 153.03 92.54 160.72 89.26 169.00 88.74 C 185.16 87.69 202.23 87.44 217.09 94.78 C 232.90 101.34 246.74 112.77 255.67 127.41 C 260.48 134.44 264.34 142.16 266.68 150.37 C 269.82 158.87 269.93 168.10 269.62 177.04 C 269.36 183.40 259.89 185.67 256.30 180.70 C 252.21 174.60 254.34 166.91 252.60 160.17 C 250.43 151.04 246.34 142.45 241.47 134.48 C 231.83 121.40 218.06 111.28 202.46 106.54 C 192.95 103.47 182.82 104.35 172.99 104.45 C 154.18 106.17 137.16 116.95 125.39 131.41 C 121.10 136.48 118.56 142.69 115.23 148.39 C 112.88 153.96 111.72 160.00 110.75 165.95 C 110.15 176.30 110.54 186.69 110.26 197.05 C 109.75 202.39 108.57 207.67 108.60 213.06 C 108.69 216.73 107.22 220.26 107.54 223.92 C 110.40 226.10 113.87 227.23 116.86 229.19 C 122.47 232.78 127.14 237.67 131.08 243.00 C 136.23 250.04 140.79 257.76 142.60 266.39 C 146.72 283.59 142.09 301.91 132.26 316.32 C 127.48 321.81 122.34 327.05 116.59 331.53 C 115.82 332.32 113.99 333.45 115.10 334.71 C 116.99 338.37 120.10 341.16 123.09 343.91 C 126.63 347.15 130.51 350.15 135.06 351.82 C 142.00 354.74 149.68 353.38 156.99 353.63 C 163.48 353.87 170.49 351.92 174.83 346.84 C 178.82 342.20 182.94 337.64 187.58 333.65 C 191.54 330.25 196.49 328.01 199.88 323.96 C 202.84 319.71 204.25 314.63 206.11 309.85 C 210.69 298.79 212.69 286.85 214.14 275.03 C 214.84 263.38 214.67 251.68 214.53 240.02 C 214.49 229.00 211.28 218.23 206.73 208.29 C 201.64 197.35 192.05 188.65 180.69 184.60 C 176.76 183.29 172.48 183.76 168.57 182.40 C 164.32 179.44 164.15 172.06 168.22 168.89 C 174.64 167.55 181.26 168.74 187.70 169.43 C 187.26 169.76 186.83 170.10 186.39 170.43 C 194.18 171.61 200.58 176.65 206.46 181.54 C 214.80 188.65 220.10 198.48 224.47 208.36 C 227.47 216.14 229.42 224.34 230.14 232.66 C 231.79 244.70 232.29 256.99 230.59 269.05 C 229.93 276.80 229.53 284.60 228.01 292.25 C 227.14 298.56 224.43 304.41 223.45 310.70 C 229.94 309.05 235.90 305.40 242.65 304.43 C 242.20 304.12 241.75 303.82 241.30 303.53 C 247.12 302.93 252.57 300.66 258.28 299.54 C 274.41 295.60 291.14 294.96 307.67 295.54 C 313.61 288.82 317.19 280.55 321.73 272.91 C 325.84 265.56 327.92 257.34 330.71 249.46 C 335.67 233.09 339.25 216.16 339.52 198.99 C 339.73 186.67 339.89 174.34 339.42 162.02 C 339.07 153.51 336.66 145.30 334.88 137.03 C 332.03 126.24 327.69 115.91 323.12 105.75 C 318.68 96.95 312.82 88.95 307.15 80.91 C 304.45 76.82 299.59 73.38 299.83 68.00 M 236.27 323.21 C 229.17 326.79 221.47 329.25 214.98 333.95 C 201.31 341.68 189.47 352.62 180.58 365.54 C 176.41 370.45 174.39 376.67 171.56 382.37 C 166.33 393.87 167.23 406.72 167.45 419.02 C 168.45 429.48 172.78 439.24 177.70 448.40 C 184.68 460.30 195.23 469.48 205.72 478.17 C 212.91 482.41 219.53 487.75 227.38 490.76 C 234.79 493.84 242.03 497.49 249.84 499.50 C 255.87 501.18 261.94 503.74 268.28 503.44 C 268.39 503.71 268.62 504.24 268.73 504.51 C 272.18 504.53 275.62 505.40 279.10 505.53 C 290.31 507.21 301.70 506.50 313.00 506.53 C 320.68 506.19 328.28 504.65 335.97 504.48 C 334.31 504.14 332.67 503.76 331.03 503.37 C 338.67 504.00 346.35 500.79 353.94 502.85 C 357.29 504.77 359.71 507.90 362.89 510.08 C 375.89 520.85 392.51 526.36 409.02 528.68 C 412.69 529.67 417.80 526.32 416.25 522.25 C 414.77 518.53 414.44 514.10 411.67 511.06 C 411.21 508.02 410.04 505.06 408.88 502.20 C 406.37 495.01 404.79 487.52 403.54 480.03 C 402.74 475.52 405.30 471.40 408.42 468.41 C 416.35 460.47 423.30 451.47 428.23 441.38 C 429.29 438.49 431.32 435.77 431.36 432.69 C 431.65 432.59 432.23 432.39 432.52 432.30 C 432.54 428.15 434.57 424.23 434.72 420.05 C 435.99 411.47 435.67 402.75 434.34 394.20 C 431.74 382.49 426.67 371.26 419.02 361.98 C 414.81 356.89 410.35 352.01 405.51 347.50 C 401.20 342.58 395.27 339.66 390.09 335.82 C 381.64 330.21 372.42 325.89 363.11 321.97 C 349.10 317.43 334.83 312.85 320.01 312.17 C 312.07 310.97 304.00 311.58 296.00 311.42 C 275.58 311.54 255.21 315.59 236.27 323.21 Z" />
<path fill="#1e479c" opacity="1.00" d=" M 406.79 184.91 C 411.77 183.57 417.08 183.92 422.12 182.79 C 428.42 181.55 434.79 183.07 440.76 185.05 C 448.47 186.52 455.27 190.91 461.47 195.55 C 465.12 199.25 469.34 202.61 471.58 207.44 C 474.33 211.82 476.70 216.45 478.30 221.39 C 479.22 224.92 479.31 228.61 480.10 232.17 C 481.49 238.34 480.06 244.63 479.28 250.78 C 478.65 253.16 477.50 255.36 476.68 257.68 C 473.54 268.23 465.51 276.44 457.02 283.03 C 454.29 286.12 450.26 287.09 446.61 288.58 C 437.38 292.91 426.96 292.91 417.00 292.40 C 413.65 291.63 410.22 291.24 406.80 291.36 C 404.64 287.90 399.61 288.93 397.25 285.84 C 395.03 282.58 391.09 281.38 388.38 278.63 C 381.56 272.85 376.72 265.05 372.86 257.08 C 369.59 250.52 370.44 243.08 370.33 236.00 C 370.12 227.97 371.17 219.45 375.72 212.62 C 379.64 204.74 385.60 197.92 392.72 192.78 C 397.23 189.79 402.84 188.76 406.79 184.91 M 418.30 198.16 C 416.51 198.68 414.72 199.17 412.89 199.48 C 406.47 200.20 401.23 204.44 396.50 208.50 C 390.14 214.07 387.71 222.45 385.01 230.14 C 384.23 234.32 384.37 238.66 384.90 242.87 C 387.00 252.59 391.35 262.43 399.44 268.60 C 404.10 272.90 410.21 275.15 416.15 277.07 C 418.35 277.77 420.61 278.88 422.99 278.29 C 426.91 277.44 430.92 277.57 434.89 277.16 C 438.33 276.08 441.47 274.25 444.83 272.95 C 449.17 271.28 452.16 267.57 455.48 264.50 C 458.25 262.03 459.44 258.41 461.43 255.38 C 462.43 253.62 463.88 252.01 464.18 249.94 C 465.43 241.55 466.64 232.71 463.61 224.54 C 460.61 214.39 452.89 206.13 443.61 201.32 C 439.95 200.48 436.55 198.84 432.99 197.73 C 428.11 197.66 423.08 196.96 418.30 198.16 Z" />
<path fill="#20dca5" opacity="1.00" d=" M 418.30 198.16 C 423.08 196.96 428.11 197.66 432.99 197.73 C 436.55 198.84 439.95 200.48 443.61 201.32 C 452.89 206.13 460.61 214.39 463.61 224.54 C 466.64 232.71 465.43 241.55 464.18 249.94 C 463.88 252.01 462.43 253.62 461.43 255.38 C 459.44 258.41 458.25 262.03 455.48 264.50 C 452.16 267.57 449.17 271.28 444.83 272.95 C 441.47 274.25 438.33 276.08 434.89 277.16 C 430.92 277.57 426.91 277.44 422.99 278.29 C 420.61 278.88 418.35 277.77 416.15 277.07 C 410.21 275.15 404.10 272.90 399.44 268.60 C 391.35 262.43 387.00 252.59 384.90 242.87 C 384.37 238.66 384.23 234.32 385.01 230.14 C 387.71 222.45 390.14 214.07 396.50 208.50 C 401.23 204.44 406.47 200.20 412.89 199.48 C 414.72 199.17 416.51 198.68 418.30 198.16 Z" />
<path fill="#1e479c" opacity="1.00" d=" M 231.23 375.92 C 232.72 375.27 234.39 375.51 235.98 375.42 C 280.34 375.39 324.71 375.28 369.07 375.44 C 374.71 375.52 377.07 382.29 375.10 386.88 C 373.63 388.77 371.68 390.93 369.04 390.66 C 323.69 390.73 278.33 390.70 232.97 390.65 C 224.94 391.23 224.29 377.90 231.23 375.92 Z" />
<path fill="#1e479c" opacity="1.00" d=" M 249.22 430.11 C 251.04 426.08 256.38 426.96 260.00 426.69 C 288.68 426.65 317.37 426.60 346.05 426.68 C 350.33 426.46 353.72 430.06 354.50 434.01 C 355.20 437.94 351.50 441.75 347.89 442.44 C 317.91 442.26 287.93 442.33 257.95 442.35 C 255.01 442.34 251.60 441.78 249.87 439.12 C 248.09 436.43 248.85 433.08 249.22 430.11 Z" />
<path fill="#112859" opacity="0.48" d=" M 247.31 431.28 C 247.79 430.99 248.74 430.40 249.22 430.11 C 248.85 433.08 248.09 436.43 249.87 439.12 C 251.60 441.78 255.01 442.34 257.95 442.35 C 287.93 442.33 317.91 442.26 347.89 442.44 C 348.60 442.82 349.30 443.22 349.99 443.64 C 318.31 443.55 286.63 443.58 254.96 443.60 C 252.04 444.00 250.31 441.29 248.69 439.35 C 246.61 437.14 247.52 433.99 247.31 431.28 Z" />
<path fill="#112859" opacity="0.48" d=" M 173.57 510.58 C 179.88 508.52 185.70 505.28 191.84 502.79 C 190.13 504.10 188.44 505.47 186.50 506.44 C 177.94 510.56 168.90 513.70 159.60 515.68 C 152.83 517.44 145.78 517.31 138.88 518.12 C 125.13 517.76 111.24 515.90 98.45 510.60 C 95.13 508.96 91.42 509.31 87.87 509.73 C 91.17 507.00 95.79 508.31 99.38 509.71 C 105.89 512.45 112.80 514.00 119.70 515.37 C 129.03 517.11 138.59 516.63 148.03 516.34 C 156.75 515.65 165.29 513.35 173.57 510.58 Z" />
<path fill="#112859" opacity="0.48" d=" M 171.92 528.00 C 178.08 526.41 183.83 523.62 189.97 521.98 C 187.62 523.33 185.27 524.74 182.70 525.64 C 173.09 529.10 163.18 531.94 152.99 532.96 C 148.02 533.73 143.08 534.95 138.00 534.65 C 130.17 535.04 122.57 532.87 114.83 532.05 C 107.07 530.33 99.12 528.68 92.01 524.99 C 99.59 526.49 106.73 529.66 114.40 530.77 C 123.80 533.03 133.50 532.67 143.08 532.62 C 152.87 532.63 162.51 530.53 171.92 528.00 Z" />
<path fill="#112859" opacity="0.48" d=" M 374.86 536.00 C 387.31 539.75 399.87 544.28 413.06 544.10 C 417.41 544.13 421.35 542.05 425.11 540.10 C 422.48 542.88 418.94 544.49 415.50 546.00 L 407.58 546.00 C 396.68 542.72 384.80 542.03 374.86 536.00 Z" />
</svg>
