<?xml version="1.0" encoding="UTF-8" ?>
<!DOCTYPE svg PUBLIC "-//W3C//DTD SVG 1.1//EN" "http://www.w3.org/Graphics/SVG/1.1/DTD/svg11.dtd">
<svg width="583pt" height="531pt" viewBox="0 0 583 531" version="1.1" xmlns="http://www.w3.org/2000/svg">
<path fill="#fff" opacity="1.00" d=" M 286.68 2.17 C 290.84 2.19 294.83 3.36 298.74 4.66 C 299.84 11.05 299.07 17.58 300.27 23.96 C 300.69 34.97 300.53 46.02 300.31 57.04 C 299.04 64.13 299.92 71.39 298.42 78.46 C 295.38 78.91 292.20 79.91 289.18 78.84 C 286.20 78.03 283.10 75.46 283.46 72.07 C 283.41 64.71 283.46 57.35 283.28 50.00 C 281.59 34.06 281.73 17.56 286.68 2.17 Z" />
<path fill="#fff" opacity="1.00" d=" M 391.81 46.22 C 397.18 43.63 404.10 49.78 402.18 55.41 C 399.63 60.23 395.82 64.22 392.35 68.37 C 385.13 76.14 377.58 83.62 369.50 90.48 C 366.44 92.99 363.43 96.77 359.07 96.43 C 353.38 96.30 348.71 88.70 353.10 84.15 C 361.90 72.75 372.06 62.40 382.97 53.01 C 385.76 50.57 388.44 47.87 391.81 46.22 Z" />
<path fill="#fff" opacity="1.00" d=" M 185.46 46.87 C 188.09 46.38 191.25 45.70 193.45 47.68 C 206.59 57.32 217.60 69.50 228.37 81.64 C 229.80 83.50 231.77 85.43 231.56 87.98 C 231.72 92.37 227.64 96.88 223.10 96.42 C 221.33 96.44 219.89 95.29 218.49 94.38 C 210.24 88.47 203.25 81.05 196.09 73.91 C 191.66 69.37 187.00 64.96 183.41 59.70 C 180.86 56.37 181.09 51.85 181.90 47.96 C 183.05 47.50 184.26 47.18 185.46 46.87 Z" />
<path fill="#fff" opacity="1.00" d=" M 128.40 110.66 C 135.25 107.76 143.01 106.73 150.36 108.03 C 161.85 110.64 170.61 119.25 178.38 127.59 C 180.28 129.30 181.95 132.14 184.87 131.79 C 196.18 132.03 208.04 129.97 218.83 134.40 C 227.11 137.92 231.94 145.85 237.16 152.71 C 238.88 147.90 240.28 142.94 242.60 138.37 C 247.75 128.05 256.25 119.58 266.40 114.18 C 278.31 107.44 292.62 105.91 305.94 108.45 C 320.54 111.45 333.49 120.76 341.65 133.14 C 344.62 137.65 346.54 142.72 348.82 147.58 C 352.91 143.35 356.63 138.49 361.95 135.73 C 367.52 132.88 373.87 132.43 379.97 131.72 C 386.29 131.75 392.61 133.12 398.95 132.33 C 401.99 130.73 404.06 127.85 406.50 125.51 C 412.81 118.82 419.97 112.54 428.72 109.34 C 436.42 106.32 445.06 107.40 452.72 109.97 C 461.99 113.51 468.42 121.83 472.88 130.37 C 475.57 135.14 477.15 140.46 479.98 145.16 C 488.43 144.41 496.98 143.88 505.48 144.57 C 517.22 146.01 527.12 154.59 532.19 165.00 C 537.04 174.90 536.32 186.27 536.48 196.99 C 536.70 212.00 536.08 227.03 536.67 242.01 C 540.47 244.07 544.74 245.02 548.71 246.71 C 556.75 249.95 564.32 254.44 570.86 260.15 C 575.58 264.27 579.08 269.52 583.00 274.36 L 583.00 374.30 C 577.81 384.66 574.62 395.95 568.74 405.99 C 561.14 419.92 550.72 432.46 537.42 441.27 C 528.47 447.54 518.09 451.64 509.77 458.85 C 507.74 460.66 505.62 462.63 504.75 465.29 C 503.09 470.44 503.83 475.92 502.99 481.20 C 501.78 489.58 501.71 498.26 498.54 506.23 C 496.27 512.02 493.02 517.80 487.90 521.50 C 483.56 521.88 479.24 520.58 475.19 519.17 C 475.76 515.90 477.23 512.89 478.39 509.81 C 482.77 498.32 484.75 486.10 486.41 473.97 C 487.13 467.87 487.25 461.56 489.51 455.77 C 492.03 449.58 497.52 445.30 503.06 441.91 C 510.97 437.13 519.23 432.93 526.89 427.75 C 543.04 416.72 555.01 400.01 561.10 381.50 C 564.76 370.73 565.15 359.25 566.26 348.03 C 566.49 332.69 566.31 317.35 566.35 302.00 C 566.46 294.28 565.85 286.44 563.54 279.05 C 561.40 272.39 555.75 267.42 549.39 264.88 C 535.74 258.97 517.39 267.95 514.60 282.83 C 512.85 292.13 514.20 301.66 512.90 311.01 C 512.41 321.02 512.97 331.06 512.41 341.07 C 512.51 343.63 509.56 344.25 507.73 345.10 C 496.44 348.85 484.53 352.39 475.50 360.53 C 468.23 367.68 465.17 377.84 462.86 387.50 C 461.85 391.16 461.55 395.16 459.42 398.41 C 455.61 400.52 451.06 400.75 446.79 400.77 C 445.83 394.46 446.17 388.00 446.59 381.66 C 448.85 366.41 457.16 351.72 470.24 343.24 C 476.11 339.12 482.81 336.46 488.91 332.75 C 491.30 331.12 494.09 329.43 495.05 326.52 C 496.87 319.83 496.38 312.85 496.49 306.00 C 496.49 296.31 496.19 286.45 498.56 276.98 C 501.92 266.08 511.08 258.50 516.62 248.81 C 519.15 244.63 518.17 239.58 518.78 234.97 C 519.92 227.03 519.49 218.99 519.62 211.00 C 519.50 203.66 519.89 196.26 518.81 188.97 C 518.09 182.20 519.25 174.68 515.04 168.79 C 507.59 158.61 490.71 157.76 482.33 167.25 C 478.41 171.57 478.52 177.68 477.80 183.11 C 477.48 187.07 476.94 191.01 476.69 194.98 C 476.33 216.69 477.11 238.41 476.43 260.11 C 476.10 260.45 475.44 261.13 475.12 261.47 C 470.59 261.83 466.05 261.64 461.53 261.73 C 460.91 257.79 460.41 253.84 460.41 249.86 C 459.96 221.24 460.37 192.62 460.32 164.00 C 460.39 155.93 460.37 147.76 458.71 139.84 C 457.02 131.59 449.31 125.33 441.03 124.68 C 433.49 124.19 425.63 127.94 421.58 134.36 C 417.13 142.49 418.95 152.14 418.33 161.01 C 417.36 172.31 417.70 183.67 417.74 195.01 C 418.78 207.64 418.24 220.34 418.39 233.00 C 418.67 242.72 417.33 252.38 417.50 262.10 C 417.25 263.89 417.88 266.60 415.81 267.51 C 412.04 269.07 407.91 269.45 403.96 270.39 C 402.79 260.60 400.64 250.91 400.55 241.00 C 400.53 228.67 400.16 216.30 401.30 204.01 C 401.33 193.33 401.86 182.61 400.56 171.98 C 399.83 166.04 399.68 159.32 395.34 154.69 C 386.88 145.37 369.66 146.28 362.86 157.10 C 360.20 161.94 359.98 167.68 359.53 173.08 C 359.04 199.71 359.57 226.36 359.39 253.00 C 359.51 259.42 358.23 265.76 358.18 272.18 C 353.97 272.99 349.79 273.95 345.59 274.77 C 338.87 252.48 341.36 228.94 340.83 206.01 C 340.53 199.80 341.51 192.90 337.70 187.50 C 330.42 177.28 313.23 176.43 305.23 186.26 C 300.40 192.37 300.42 200.60 300.39 208.01 C 300.23 250.34 300.52 292.67 300.37 335.00 C 300.42 349.64 300.22 364.28 300.56 378.92 C 301.39 391.81 304.67 404.93 312.40 415.49 C 322.06 429.00 337.47 436.44 349.13 447.89 C 356.81 455.36 357.71 466.89 357.50 477.01 C 357.37 487.15 357.95 498.81 365.53 506.46 C 369.32 510.50 375.14 510.46 380.22 511.22 C 393.45 512.07 406.75 513.08 420.00 511.82 C 430.43 511.29 440.88 511.60 451.28 512.65 C 451.30 517.86 451.37 523.08 451.33 528.29 C 441.55 528.41 431.77 528.59 421.99 528.74 C 413.35 529.49 404.66 529.53 396.00 529.13 C 386.52 527.99 376.77 529.53 367.49 526.84 C 357.93 524.06 349.28 517.42 344.98 508.34 C 342.48 503.17 341.95 497.38 341.06 491.78 C 339.68 482.83 342.05 473.42 338.69 464.77 C 337.29 460.45 334.16 456.95 330.50 454.38 C 316.12 444.00 302.79 432.04 291.62 418.24 C 280.77 432.22 266.28 442.56 253.12 454.17 C 250.09 457.03 246.66 459.65 244.45 463.23 C 241.47 470.14 243.06 477.85 242.10 485.12 C 241.18 494.37 240.80 504.27 235.47 512.27 C 229.22 522.32 217.23 526.77 206.03 528.39 C 199.72 529.13 193.35 529.65 187.00 529.22 C 175.03 528.06 163.00 528.91 151.00 528.65 C 140.97 528.29 130.96 530.21 120.95 528.92 C 111.21 528.37 101.14 525.84 93.55 519.42 C 86.80 513.89 82.60 505.58 81.59 496.97 C 81.37 490.98 80.60 485.04 80.19 479.07 C 79.50 473.81 79.43 468.34 77.30 463.39 C 76.14 460.56 73.51 458.78 71.14 457.04 C 58.16 447.93 43.21 441.45 31.95 430.03 C 20.06 418.79 12.39 403.95 6.31 388.96 C 4.39 384.04 2.63 379.04 0.00 374.44 L 0.00 274.60 C 4.01 269.47 7.66 263.95 12.66 259.69 C 20.23 253.19 29.16 248.34 38.60 245.14 C 41.20 244.19 43.91 243.43 46.30 241.99 C 46.93 230.00 46.22 217.96 46.79 205.96 C 47.50 200.59 47.62 195.17 47.79 189.76 C 52.64 189.70 57.49 189.63 62.34 189.61 C 63.43 198.71 63.35 207.88 64.26 217.00 C 64.39 225.69 64.22 234.39 64.53 243.07 C 64.62 247.85 68.04 251.56 70.65 255.25 C 76.14 262.82 83.19 269.89 85.18 279.36 C 88.56 294.81 84.10 310.98 88.39 326.31 C 89.11 329.40 91.93 331.20 94.49 332.69 C 103.09 337.51 112.09 341.90 119.49 348.54 C 125.59 353.95 130.01 361.02 133.15 368.50 C 137.22 378.97 137.90 390.39 137.33 401.51 C 133.10 400.85 128.84 400.38 124.56 400.25 C 120.25 388.01 118.21 374.54 110.14 363.98 C 102.40 354.53 90.36 350.32 79.16 346.52 C 76.43 345.52 73.46 344.83 71.12 343.01 C 70.15 340.11 69.86 337.02 69.64 333.99 C 69.34 321.00 69.81 307.99 69.36 295.00 C 68.82 288.80 68.25 282.48 66.09 276.60 C 63.13 270.37 57.17 265.47 50.36 264.09 C 42.28 262.36 33.53 264.12 26.79 268.93 C 21.26 272.74 17.82 279.30 17.54 285.98 C 17.29 294.30 17.81 302.66 17.07 310.97 C 16.42 316.28 16.67 321.65 16.60 327.00 C 16.64 339.12 15.95 351.34 18.26 363.32 C 20.69 383.42 29.22 402.99 43.54 417.46 C 53.86 427.22 66.57 433.84 78.53 441.30 C 83.82 444.58 89.50 448.00 92.41 453.76 C 96.51 460.81 96.70 469.12 96.67 477.04 C 97.67 485.43 97.23 494.34 101.14 502.09 C 103.22 506.44 107.66 509.08 112.17 510.30 C 121.56 512.86 131.38 512.25 141.00 512.30 C 158.01 512.20 175.02 512.49 192.03 512.29 C 198.26 511.80 204.51 511.22 210.66 510.11 C 215.63 509.21 219.40 505.22 221.67 500.92 C 226.34 492.02 225.40 481.68 225.50 471.98 C 225.49 463.16 227.54 453.50 234.39 447.39 C 246.71 435.70 262.87 427.86 272.22 413.19 C 278.48 403.60 281.09 392.16 282.29 380.92 C 282.81 369.62 282.57 358.31 282.63 347.00 C 282.55 303.34 282.65 259.67 282.66 216.00 C 282.38 207.90 283.37 199.52 280.69 191.71 C 278.44 184.59 271.11 180.08 263.94 179.42 C 255.50 178.69 245.72 183.12 243.29 191.78 C 240.94 201.67 241.33 211.91 241.32 222.01 C 241.24 237.21 242.50 252.55 239.87 267.61 C 239.46 270.00 237.90 272.33 235.46 272.96 C 231.98 273.88 228.33 273.34 224.78 273.31 C 224.77 267.86 224.11 262.45 223.68 257.03 C 223.34 228.78 223.96 200.52 223.51 172.27 C 223.41 167.84 222.98 163.30 221.27 159.17 C 218.47 153.25 212.24 149.61 205.94 148.58 C 197.51 147.15 187.58 151.38 184.64 159.80 C 181.82 171.97 181.33 184.55 181.63 197.00 C 181.26 205.02 182.60 212.98 182.45 221.00 C 182.55 237.24 183.20 253.93 178.17 269.58 C 173.72 269.36 166.30 269.44 165.69 263.65 C 165.29 257.10 165.22 250.54 164.67 244.00 C 164.70 227.67 164.18 211.31 165.30 195.01 C 165.18 184.67 165.75 174.31 164.73 164.01 C 164.49 154.96 164.77 145.80 162.61 136.94 C 161.06 131.32 155.83 127.60 150.48 125.96 C 143.08 124.10 134.54 125.46 128.94 130.95 C 124.30 135.23 123.58 142.00 123.49 147.96 C 123.55 152.99 122.92 157.98 122.71 163.00 C 122.40 189.67 123.07 216.33 122.76 243.00 C 122.65 249.24 122.86 255.55 121.53 261.70 C 116.98 261.62 112.42 261.83 107.88 261.48 C 107.55 261.14 106.88 260.45 106.55 260.11 C 105.95 236.40 106.63 212.66 106.25 188.94 C 105.54 182.40 105.25 175.53 102.14 169.59 C 99.78 165.11 95.13 161.89 90.00 161.80 C 78.46 161.56 67.73 166.58 56.40 167.87 C 56.40 162.76 56.31 157.01 59.81 152.88 C 63.29 149.12 68.08 146.78 72.97 145.45 C 82.53 143.25 92.49 144.51 102.19 144.91 C 105.14 142.41 105.97 138.33 107.75 135.03 C 112.34 125.39 118.28 115.27 128.40 110.66 Z" />
</svg>
