<svg width="37" height="37" viewBox="0 0 37 37" fill="none" xmlns="http://www.w3.org/2000/svg">
<path d="M32.1702 29.8459L32.1701 29.8459L32.1691 29.8532C31.953 31.4306 31.7157 33.0323 30.7077 34.2107L30.7076 34.2106L30.7027 34.2168C29.9729 35.126 28.9202 35.6956 27.8299 36.2161H25.0655C23.7037 35.5222 22.4187 34.6934 21.1429 33.8301C20.7974 33.5963 20.4522 33.3597 20.1062 33.1226C19.1642 32.477 18.217 31.8278 17.246 31.223C17.0699 31.0972 16.88 30.9771 16.695 30.8601C16.6622 30.8394 16.6295 30.8187 16.5971 30.7982C16.3763 30.658 16.164 30.5196 15.9713 30.3683C15.6008 30.0773 15.3237 29.755 15.2182 29.3227C15.2733 29.061 15.3688 28.7831 15.5131 28.5664C15.6644 28.3394 15.8536 28.1998 16.0967 28.1815L16.1117 28.1804L16.1266 28.1774C16.6642 28.0707 17.1921 28.321 17.6905 28.6773L17.6935 28.6794C18.7177 29.3889 19.7551 30.0778 20.7909 30.7641L20.9748 30.8859C21.9497 31.5317 22.9225 32.1761 23.8843 32.8362L23.8868 32.8378C23.9207 32.8606 23.9551 32.8836 23.9898 32.9069C24.7106 33.3908 25.5812 33.9754 26.603 33.8821C28.0364 33.8783 29.2567 32.7308 29.5276 31.3791L29.5277 31.3792L29.529 31.3717C29.8169 29.6687 30.1043 27.9655 30.3918 26.2623C31.5048 19.6673 32.6179 13.0718 33.762 6.48239C34.0622 5.29037 33.4983 4.12593 32.6214 3.41221C31.7433 2.69755 30.4972 2.39175 29.3931 2.98794C24.5651 5.15764 19.7311 7.31445 14.8965 9.47157C11.451 11.0088 8.00524 12.5463 4.56101 14.0886C3.67783 14.4415 3.02592 15.2126 2.74274 16.0817C2.45829 16.9546 2.53871 17.9517 3.15922 18.7426L3.15912 18.7427L3.16445 18.7491C3.80437 19.5113 4.61888 20.0499 5.42285 20.5486C5.52355 20.6111 5.62399 20.6729 5.72396 20.7344C6.43191 21.1699 7.11599 21.5908 7.70175 22.1327L7.70168 22.1328L7.70712 22.1375C7.98369 22.3789 8.0779 22.7561 8.00178 23.1276C7.92533 23.5007 7.68485 23.8262 7.34648 23.9596L7.33671 23.9635L7.3273 23.9681C7.05068 24.105 6.76719 24.0851 6.46469 23.9726C6.16509 23.8613 5.87466 23.67 5.58633 23.4801C5.57661 23.4737 5.56689 23.4673 5.55716 23.4609C5.11715 23.1531 4.67791 22.8637 4.24199 22.5765C3.59881 22.1528 2.96287 21.7338 2.34233 21.2674C1.14328 20.3532 0.399331 18.9081 0.25 17.4041V16.628C0.438354 14.6639 1.64067 12.7925 3.45936 12.0127L3.45937 12.0127L3.4628 12.0112C6.46594 10.6699 9.46827 9.3273 12.4705 7.98476C17.5861 5.69713 22.7014 3.40965 27.8199 1.12893C28.5267 0.820173 29.2347 0.523523 29.9567 0.276123H31.374C32.8062 0.725954 34.226 1.3624 35.0618 2.57061C35.5819 3.33555 35.987 4.17626 36.1899 5.06453V6.97582C35.7678 8.3412 35.5173 9.74621 35.3334 11.15C35.2214 11.8093 35.1093 12.4686 34.9973 13.1279C34.0506 18.6992 33.1035 24.2725 32.1702 29.8459Z" fill="#1C1841" stroke="white" stroke-width="0.5"/>
<path d="M26.2897 9.70801L26.3136 9.71157L26.3377 9.71048C26.6245 9.69757 26.8605 9.82974 27.0446 10.054C27.2241 10.2725 27.3434 10.5684 27.3878 10.8551C27.2814 11.357 26.9048 11.751 26.4922 12.1828C26.4836 12.1919 26.4749 12.201 26.4662 12.2101C23.8542 14.7674 21.26 17.3463 18.6667 19.9243C17.0612 21.5203 15.4561 23.116 13.8473 24.7059L13.8463 24.7069C12.9746 25.5786 12.1815 26.7433 12.1702 28.0883C12.1478 29.1924 12.1565 30.2967 12.165 31.3969L12.1662 31.5482C12.1752 32.7003 12.1825 33.848 12.1531 34.9943L12.1528 35.004L12.1533 35.0138C12.1656 35.2483 12.0851 35.4625 11.9432 35.6744C11.8159 35.8645 11.6488 36.0393 11.4724 36.2157H10.2621C10.2197 36.1286 10.1757 36.0432 10.1331 35.9606L10.1239 35.9427C10.0535 35.8062 9.98724 35.6767 9.93008 35.5461C9.8162 35.2861 9.74715 35.0406 9.76433 34.7808L9.76488 34.7724L9.76487 34.764C9.76389 33.9404 9.76527 33.1153 9.76664 32.2896C9.76871 31.05 9.77078 29.8092 9.76489 28.5708L9.76483 28.5675C9.74116 27.2417 10.1414 25.9249 10.8115 24.7737C11.3654 23.8342 12.1447 23.0775 12.9471 22.2985C13.1483 22.1032 13.3509 21.9064 13.5519 21.705C17.3505 17.9532 21.1393 14.1915 24.9182 10.4199C25.1333 10.2135 25.3484 10.0144 25.5815 9.8756C25.8106 9.73925 26.041 9.67099 26.2897 9.70801Z" fill="#1C1841" stroke="white" stroke-width="0.5"/>
</svg>
