<?xml version="1.0" encoding="UTF-8" ?>
<!DOCTYPE svg PUBLIC "-//W3C//DTD SVG 1.1//EN" "http://www.w3.org/Graphics/SVG/1.1/DTD/svg11.dtd">
<svg width="456pt" height="526pt" viewBox="0 0 456 526" version="1.1" xmlns="http://www.w3.org/2000/svg">
<path fill="#1e479c" opacity="1.00" d=" M 43.42 0.00 L 319.63 0.00 C 326.33 2.94 333.48 5.06 339.51 9.34 C 348.85 15.99 356.67 25.19 360.21 36.23 C 364.98 50.91 363.03 66.50 363.40 81.65 C 374.27 81.71 385.13 81.78 395.99 81.72 C 406.92 81.49 418.17 83.55 427.61 89.26 C 444.34 98.69 454.86 117.88 454.43 137.00 C 454.35 217.70 454.47 298.41 454.37 379.11 C 454.81 384.32 448.53 389.41 443.77 386.46 C 440.16 384.87 438.55 380.81 438.60 377.07 C 438.61 296.70 438.58 216.33 438.61 135.96 C 439.73 115.73 421.07 97.31 401.03 97.58 C 319.36 97.62 237.68 97.59 156.00 97.59 C 148.35 97.66 140.43 96.90 133.12 99.63 C 118.09 104.64 106.50 119.89 107.38 135.97 C 107.42 248.33 107.40 360.69 107.39 473.05 C 106.69 492.62 124.52 510.39 143.95 510.46 C 227.30 510.45 310.65 510.45 394.00 510.46 C 400.05 510.41 406.31 510.95 412.11 508.85 C 425.89 504.39 437.22 491.68 438.47 477.04 C 438.72 457.34 438.57 437.62 438.58 417.92 C 438.54 414.71 439.34 411.15 441.98 409.07 C 444.88 406.68 449.57 407.12 452.06 409.92 C 454.32 411.91 454.45 415.12 454.44 417.92 C 454.38 433.28 454.41 448.64 454.41 464.00 C 454.37 469.69 454.69 475.42 453.70 481.06 C 451.40 496.15 442.11 509.92 429.12 517.90 C 423.83 521.27 417.76 523.07 412.24 526.00 L 137.67 526.00 C 124.52 522.92 111.50 516.64 103.21 505.64 C 95.78 496.11 91.49 484.12 91.56 472.01 C 91.53 462.79 91.54 453.57 91.57 444.36 C 80.71 444.23 69.86 444.36 59.00 444.30 C 51.08 443.95 42.99 443.55 35.52 440.62 C 20.75 435.23 8.52 423.11 3.43 408.19 C 2.14 404.26 0.93 400.29 0.00 396.26 L 0.00 142.75 C 1.87 140.51 3.61 137.14 7.00 137.37 C 10.79 136.63 14.73 139.20 15.45 143.00 C 15.89 146.98 15.60 151.00 15.65 155.00 C 15.64 233.69 15.65 312.38 15.64 391.06 C 15.70 409.97 32.13 427.23 50.96 428.37 C 64.47 428.47 78.00 428.36 91.52 428.40 C 91.50 399.18 91.70 369.95 91.41 340.73 C 80.95 340.70 70.48 340.85 60.01 340.69 C 57.41 340.83 54.83 339.62 53.53 337.31 C 50.42 333.22 53.70 326.15 58.90 326.26 C 69.98 326.05 81.07 326.31 92.15 326.15 C 92.23 312.88 92.11 299.60 92.22 286.32 C 81.28 284.55 70.12 286.16 59.11 285.43 C 55.41 285.06 52.20 281.66 52.36 277.89 C 51.93 273.77 55.89 270.07 59.92 270.29 C 70.44 270.17 80.97 270.31 91.49 270.26 C 91.60 256.70 91.55 243.15 91.52 229.60 C 81.00 229.54 70.48 229.80 59.96 229.54 C 55.02 229.64 50.92 223.98 52.77 219.33 C 54.02 216.55 56.79 214.29 59.95 214.39 C 70.46 214.26 80.98 214.41 91.50 214.35 C 91.64 201.03 91.47 187.70 91.54 174.38 C 80.75 172.93 69.84 174.13 59.00 173.63 C 55.22 173.60 52.07 169.73 52.36 166.05 C 52.18 161.78 56.18 158.39 60.27 158.29 C 70.66 157.20 81.14 158.16 91.56 157.71 C 91.73 144.58 90.52 131.25 93.96 118.41 C 82.95 118.24 71.94 118.45 60.93 118.34 C 57.47 118.51 54.27 116.40 52.78 113.33 C 51.81 110.41 52.31 106.84 54.80 104.81 C 58.44 101.64 63.60 102.77 68.01 102.58 C 79.32 102.43 90.65 102.81 101.95 102.37 C 104.97 100.69 107.00 97.75 109.65 95.58 C 119.34 87.19 132.06 81.91 144.97 82.24 C 212.48 82.29 280.00 82.24 347.51 82.27 C 347.60 73.17 347.52 64.07 347.56 54.98 C 348.86 34.48 330.44 15.46 310.05 15.54 C 224.35 15.57 138.65 15.52 52.95 15.56 C 33.62 15.69 16.29 32.59 15.71 51.92 C 15.55 70.64 15.70 89.37 15.65 108.10 C 16.15 113.04 11.04 117.68 6.14 116.31 C 3.61 115.35 1.92 113.09 0.00 111.29 L 0.00 43.48 C 3.06 37.51 4.61 30.84 8.32 25.21 C 12.67 18.48 18.47 12.65 25.18 8.29 C 30.79 4.56 37.39 2.87 43.42 0.00 Z" />
<path fill="#1e479c" opacity="1.00" d=" M 262.47 190.91 C 267.94 189.96 273.54 190.33 279.06 190.39 C 293.47 191.39 306.80 200.38 313.70 212.99 C 318.09 220.87 319.58 230.07 319.32 239.00 C 319.29 250.34 319.28 261.67 319.33 273.00 C 319.24 283.01 316.65 293.29 310.34 301.25 C 304.99 308.28 297.66 313.83 289.26 316.69 C 282.81 319.25 275.76 318.55 268.98 318.64 C 246.36 318.81 225.98 297.63 227.30 275.00 C 227.31 261.66 227.28 248.33 227.34 235.00 C 225.76 214.27 242.25 194.52 262.47 190.91 M 267.30 206.12 C 259.85 207.27 252.66 211.00 248.14 217.13 C 243.41 222.94 242.61 230.76 242.52 237.98 C 242.53 249.33 242.56 260.67 242.50 272.02 C 242.48 279.63 244.23 287.73 249.51 293.49 C 254.27 298.74 260.59 303.38 267.96 303.54 C 273.21 303.65 278.62 304.03 283.71 302.45 C 295.10 298.60 303.89 287.24 303.60 275.04 C 303.54 261.01 303.60 246.98 303.57 232.94 C 303.75 225.22 299.45 218.17 293.95 213.06 C 286.84 206.67 276.56 204.68 267.30 206.12 Z" />
<path fill="#20dca5" opacity="1.00" d=" M 267.30 206.12 C 276.56 204.68 286.84 206.67 293.95 213.06 C 299.45 218.17 303.75 225.22 303.57 232.94 C 303.60 246.98 303.54 261.01 303.60 275.04 C 303.89 287.24 295.10 298.60 283.71 302.45 C 278.62 304.03 273.21 303.65 267.96 303.54 C 260.59 303.38 254.27 298.74 249.51 293.49 C 244.23 287.73 242.48 279.63 242.50 272.02 C 242.56 260.67 242.53 249.33 242.52 237.98 C 242.61 230.76 243.41 222.94 248.14 217.13 C 252.66 211.00 259.85 207.27 267.30 206.12 Z" />
<path fill="#1e479c" opacity="1.00" d=" M 197.26 278.92 C 197.05 273.43 205.03 270.36 208.94 274.02 C 213.38 277.17 211.99 283.36 212.48 288.04 C 213.67 300.46 218.66 312.65 227.04 321.96 C 237.41 333.06 252.18 339.51 267.22 340.81 C 272.91 342.12 278.66 340.78 284.33 340.07 C 299.85 337.42 314.93 329.14 323.73 315.82 C 329.18 307.53 332.45 297.88 333.50 288.04 C 333.95 283.34 332.43 277.12 337.07 274.05 C 340.66 270.75 346.84 272.67 348.47 277.00 C 351.30 302.55 339.25 329.58 317.40 343.48 C 306.47 350.96 293.53 354.62 280.56 356.53 C 280.52 362.19 280.48 367.85 280.51 373.51 C 287.69 373.65 294.88 373.39 302.06 373.65 C 307.35 373.74 311.70 380.71 308.31 385.20 C 306.72 388.09 303.29 389.64 300.07 389.46 C 282.02 389.44 263.98 389.44 245.94 389.46 C 241.81 389.71 237.40 386.99 236.51 382.82 C 235.64 378.36 239.52 373.60 244.08 373.62 C 250.94 373.43 257.80 373.61 264.66 373.54 C 264.82 367.86 264.72 362.18 264.76 356.50 C 251.47 354.55 238.24 350.48 227.18 342.68 C 210.72 331.41 200.04 312.68 197.55 293.01 C 197.27 288.32 197.11 283.62 197.26 278.92 Z" />
</svg>
