<svg width="14" height="13" viewBox="0 0 14 13" fill="none" xmlns="http://www.w3.org/2000/svg">
<path d="M2.01029 9.7042C1.50018 9.84882 0.925435 9.42899 0.931056 8.89542C0.902951 6.22058 0.950729 3.54432 0.905761 0.869479C0.909977 0.601292 1.08704 0.347145 1.30907 0.201117C1.63508 -0.0417958 2.06087 0.0859813 2.43607 0.0691318C4.82499 0.0817688 7.21532 0.0705344 9.60564 0.0747467C10.0385 0.0354315 10.4755 0.327488 10.5654 0.759958C10.6975 1.26684 10.2759 1.8299 9.74757 1.82428C7.80131 1.83692 5.85363 1.83271 3.90596 1.82428C6.88227 4.77714 9.83751 7.75247 12.8096 10.7095C13.0007 10.9033 13.2073 11.1224 13.2171 11.4116C13.2761 11.9297 12.7927 12.4184 12.2728 12.3622C11.9791 12.3566 11.7571 12.146 11.5617 11.9508C8.60511 8.98248 5.62879 6.03242 2.67497 3.0599C2.68621 4.95968 2.67918 6.86085 2.68059 8.76063C2.71712 9.18467 2.43186 9.61293 2.01029 9.7042Z" fill="white"/>
</svg>
