<svg width="37" height="37" viewBox="0 0 37 37" fill="none" xmlns="http://www.w3.org/2000/svg">
<path d="M2.84492 3.31168L2.84493 3.31169L2.84654 3.30989C4.56316 1.39875 7.10855 0.273999 9.67674 0.252327C12.608 0.250131 15.5393 0.25068 18.4705 0.251229H18.4706C21.402 0.251779 24.3332 0.252328 27.2639 0.250133L27.2651 0.250127C29.7041 0.237279 32.1386 1.19957 33.8724 2.91194L33.8743 2.91378C35.5586 4.54258 36.5491 6.83069 36.6792 9.16921V27.6974C36.5209 29.8636 35.6521 31.9798 34.1609 33.5564L34.1591 33.5583C32.5216 35.326 30.1692 36.3765 27.7646 36.5088H9.26222C7.10044 36.3591 4.98619 35.499 3.40738 34.0183L3.40544 34.0165C1.49626 32.2634 0.401291 29.6812 0.420564 27.0908L0.420565 27.089C0.422763 21.3002 0.422763 15.5136 0.418376 9.72475L0.418357 9.72265C0.396938 7.38155 1.26291 5.03906 2.84492 3.31168ZM11.436 2.13023L11.4355 2.13024C11.274 2.13055 11.1108 2.12959 10.9463 2.12863C9.96544 2.12289 8.93822 2.11687 7.94723 2.37715C4.72639 3.13285 2.32093 6.225 2.31166 9.51731C2.29582 13.3105 2.29791 17.1042 2.29999 20.8972C2.30109 22.8926 2.30218 24.8878 2.30067 26.8826C2.27167 28.8265 2.96436 30.7927 4.30566 32.2278C5.72934 33.7785 7.82138 34.6376 9.91117 34.6265C13.5428 34.6321 17.1755 34.6314 20.8078 34.6308C22.883 34.6304 24.9581 34.6301 27.0327 34.6309C29.1287 34.671 31.2539 33.8584 32.71 32.3187C34.1128 30.872 34.837 28.8537 34.8013 26.8603C34.8005 24.822 34.8012 22.7832 34.8018 20.7443C34.8029 17.0735 34.804 13.4021 34.7969 9.73188C34.8036 7.69896 33.99 5.65915 32.5121 4.24221C31.0677 2.83248 29.047 2.09904 27.0509 2.13023C23.5807 2.12877 20.1114 2.12926 16.6419 2.12975C14.9067 2.12999 13.1714 2.13024 11.436 2.13023ZM11.436 2.38024C11.2708 2.38055 11.1052 2.37963 10.9394 2.37872C9.95589 2.37326 8.96482 2.36777 8.00755 2.61978L11.436 2.38024Z" fill="#1C1841" stroke="white" stroke-width="0.5"/>
<path d="M20.3418 9.31609L20.3418 9.31618L20.3479 9.31315C22.2197 8.37306 24.5915 8.6916 26.2164 10.0092L26.2965 10.0741L26.3991 10.0637C27.3165 9.97063 28.249 9.8228 29.1361 9.47163L29.1362 9.472L29.149 9.46607C29.4149 9.34307 29.7288 9.4017 29.9809 9.59221C30.2335 9.78308 30.3828 10.0758 30.3497 10.3648C30.2074 11.4627 29.7963 12.5217 29.1321 13.4052L29.1225 13.418L29.1146 13.4319C29.0352 13.5716 28.9388 13.7091 28.8328 13.8543C28.8098 13.8857 28.7863 13.9176 28.7624 13.9501C28.6786 14.064 28.5905 14.1836 28.5095 14.3047C28.3006 14.6175 28.1106 14.9802 28.0954 15.4207C27.8593 19.4022 25.7589 23.2488 22.4937 25.5505L22.4926 25.5513C18.0571 28.7146 11.6718 28.8104 7.12696 25.8152C6.89845 25.6598 6.77329 25.3866 6.7715 25.0927C6.76971 24.7977 6.89265 24.5164 7.11629 24.352L7.1236 24.3466L7.13051 24.3407C7.29118 24.2035 7.49015 24.159 7.74495 24.1555C7.86407 24.1538 7.98615 24.1611 8.11826 24.1689C8.12871 24.1696 8.13923 24.1702 8.14981 24.1708C8.28598 24.1788 8.4332 24.1868 8.57799 24.181C9.80422 24.2426 11.0043 23.9455 12.1128 23.5061L12.5332 23.3394L12.1685 23.072C9.97238 21.462 7.96078 19.263 7.68129 16.5212C7.58826 14.6097 7.70851 12.6795 8.1349 10.8203L8.13491 10.8203L8.13556 10.8173C8.19903 10.5243 8.29544 10.2218 8.44795 9.98865C8.59643 9.76166 8.78695 9.61495 9.0498 9.58664L9.06388 9.58513L9.0777 9.58203C9.46217 9.49588 9.83804 9.73544 10.1299 10.1059L10.1297 10.1061L10.1362 10.1136C11.8906 12.1672 14.383 13.5194 17.0219 13.9992L17.2931 14.0485L17.3158 13.7738C17.4715 11.8878 18.6285 10.1194 20.3418 9.31609ZM12.4153 25.9356C15.9308 26.5126 19.8009 25.6621 22.4508 23.1481C24.6932 21.0558 26.0889 18.0651 26.2214 14.9947L26.2219 14.9834L26.2214 14.9722C26.1977 14.471 26.4002 14.04 26.6977 13.596C26.8066 13.4336 26.923 13.2765 27.0434 13.1142C27.089 13.0526 27.1353 12.9902 27.1819 12.9265C27.3479 12.6995 27.5143 12.4608 27.6494 12.2071L27.8641 11.8039L27.4087 11.8404C27.2154 11.8559 27.0132 11.8916 26.8216 11.9255C26.809 11.9277 26.7964 11.9299 26.7839 11.9321C26.576 11.9687 26.3789 12.0021 26.1892 12.0143C25.8137 12.0384 25.5109 11.9771 25.2728 11.7231L25.2729 11.723L25.2672 11.7172C24.2244 10.6744 22.5381 10.3314 21.1913 11.0048C19.7759 11.6545 18.9402 13.3092 19.3069 14.84L19.3092 14.8499L19.3124 14.8595C19.4922 15.4092 19.0322 16.031 18.457 16.0175C15.4029 15.9442 12.4193 14.7135 10.0805 12.7487L9.69284 12.423L9.66995 12.9288C9.65546 13.249 9.62973 13.5731 9.60346 13.9041C9.59829 13.9692 9.5931 14.0346 9.58797 14.1002C9.55696 14.4973 9.52837 14.9026 9.52248 15.3072C9.51069 16.1165 9.58907 16.9396 9.9299 17.7251L9.92986 17.7251L9.93172 17.7292C10.9168 19.8927 12.8911 21.3606 14.8229 22.5042L14.8228 22.5043L14.8291 22.5078C15.0679 22.64 15.2134 22.9033 15.2352 23.1995C15.2571 23.4962 15.1513 23.7847 14.9398 23.9565L14.9398 23.9564L14.9354 23.9602C14.1826 24.6009 13.2785 25.0368 12.3517 25.4617L11.6071 25.803L12.4153 25.9356Z" fill="#1C1841" stroke="white" stroke-width="0.5"/>
</svg>
