<svg width="46" height="35" viewBox="0 0 46 35" fill="none" xmlns="http://www.w3.org/2000/svg">
<path d="M17.8823 0H29.4518C30.2529 0.315385 31.1298 0.371154 31.9195 0.732692C34.0804 1.56731 35.8114 3.40192 36.5878 5.60769C37.0632 6.88269 37.2393 8.25385 37.2336 9.61346C37.2355 14.8692 37.2355 20.125 37.2355 25.3827C37.2488 27.0769 36.9628 28.8 36.2034 30.3231C35.3133 32.1615 33.713 33.6212 31.8229 34.3327C31.0578 34.6558 30.2302 34.7538 29.4424 35H17.8217C16.0263 34.7788 14.2101 34.2404 12.7954 33.05C10.7008 31.3712 9.6649 28.6308 9.62513 25.9712C9.61187 20.4538 9.62513 14.9365 9.61945 9.41923C9.61377 8.05385 9.83535 6.67885 10.3353 5.40577C11.1629 3.22308 12.9469 1.44615 15.1192 0.665385C16.0055 0.301923 16.96 0.215385 17.8823 0ZM17.2119 2.82692C15.9051 3.05385 14.64 3.67115 13.767 4.7C12.6534 5.98269 12.2273 7.73462 12.2254 9.41154C12.2216 14.6077 12.2273 19.8058 12.2235 25.0038C12.1913 26.3365 12.322 27.7058 12.8769 28.9288C13.5246 30.4423 14.8768 31.6 16.4411 32.0308C17.6399 32.425 18.9107 32.2788 20.1473 32.3423C22.9256 32.3288 25.7058 32.3769 28.4841 32.3115C30.2075 32.3038 31.9896 31.6442 33.1221 30.2846C34.2622 28.9423 34.6429 27.1135 34.6296 25.3827C34.6296 20.0635 34.6372 14.7423 34.6258 9.42308C34.6182 7.62308 34.1277 5.72115 32.8323 4.425C31.6525 3.21731 29.9423 2.71154 28.3004 2.69615C25.2721 2.68654 22.2438 2.69615 19.2137 2.69038C18.5452 2.68846 17.8728 2.70769 17.2119 2.82692Z" fill="white"/>
<path d="M0.932371 5.49423C1.5081 5.30769 2.06679 5.62885 2.44366 6.05192C3.29968 6.90769 4.21251 7.70577 5.07043 8.56346C6.19916 9.72115 6.39802 11.6635 5.52874 13.0327C4.9265 13.9423 4.02124 14.5827 3.31104 15.3942C2.98151 15.7596 3.00992 16.3308 3.33756 16.6846C4.08563 17.5231 5.0496 18.1769 5.61964 19.1692C6.39044 20.5346 6.1556 22.3962 5.04391 23.5C4.17274 24.35 3.28832 25.1827 2.41147 26.0269C2.12171 26.2808 1.8149 26.5923 1.40962 26.6135C0.653975 26.7 -0.0959887 25.9692 0.0100668 25.1923C0.0157483 24.8231 0.258161 24.5173 0.510043 24.2769C1.39068 23.4462 2.26564 22.6077 3.1387 21.7654C3.57997 21.3942 3.64436 20.6808 3.25423 20.25C2.54593 19.4942 1.76756 18.8058 1.05168 18.0596C0.398306 16.9962 0.307401 15.5962 0.813058 14.4519C1.08009 13.7365 1.7846 13.3577 2.25428 12.7962C2.70122 12.2769 3.40763 11.8981 3.53073 11.1654C3.50043 10.8596 3.42089 10.5346 3.18794 10.3212C2.22966 9.36923 1.2013 8.48654 0.269524 7.50577C-0.306206 6.84038 0.108547 5.7 0.932371 5.49423Z" fill="white"/>
<path d="M44.2901 5.51154C45.3507 5.07692 46.4737 6.45192 45.7919 7.41154C44.864 8.44808 43.7826 9.33461 42.8034 10.3212C42.3944 10.7135 42.3584 11.4288 42.7731 11.8327C43.2693 12.3519 43.7939 12.8462 44.2996 13.3596C45.7124 14.4154 45.8222 16.6115 44.9454 18.0519C44.2314 18.8019 43.4511 19.4885 42.741 20.2442C42.3527 20.6692 42.4057 21.3788 42.8394 21.7519C43.7163 22.6 44.6007 23.4442 45.4889 24.2846C45.737 24.5231 45.9756 24.8269 45.9813 25.1923C46.0855 25.9692 45.3412 26.6981 44.5875 26.6135C44.1765 26.5942 43.8697 26.2788 43.5761 26.0231C42.6993 25.1788 41.8111 24.3442 40.9399 23.4923C39.8339 22.3865 39.6028 20.5288 40.3736 19.1654C40.9437 18.1731 41.9096 17.5212 42.6576 16.6808C42.9398 16.3615 43.0175 15.8673 42.7599 15.5058C42.0023 14.5462 40.8963 13.8769 40.3168 12.7692C39.6142 11.4269 39.8661 9.65962 40.9134 8.57308C41.7031 7.775 42.5516 7.03654 43.3489 6.24615C43.6386 5.975 43.9095 5.65192 44.2901 5.51154Z" fill="white"/>
<path d="M20.3879 7.16346C22.0639 6.99615 23.7722 7.13654 25.4615 7.09038C26.2171 7.00385 26.9387 7.68269 26.8838 8.45769C26.8819 9.19423 26.1944 9.78846 25.4842 9.73269C23.9597 9.74039 22.4332 9.73846 20.9087 9.73269C20.3424 9.76154 19.7743 9.40192 19.5962 8.84808C19.3481 8.18846 19.725 7.38077 20.3879 7.16346Z" fill="white"/>
<path d="M22.884 24.5538C23.8744 24.0288 25.1339 25.0596 24.8611 26.1519C24.6983 27.1808 23.3366 27.675 22.5715 26.9808C21.7571 26.3635 21.9465 24.9404 22.884 24.5538Z" fill="white"/>
</svg>
