<svg width="62" height="47" viewBox="0 0 62 47" fill="none" xmlns="http://www.w3.org/2000/svg">
<path fill-rule="evenodd" clip-rule="evenodd" d="M21.1912 21.9772L35.2071 46.2777C35.2981 46.3687 35.3892 46.4597 35.5712 46.4597C35.7532 46.4597 35.8443 46.3687 35.9353 46.2777L42.7613 34.446C43.8534 32.6257 43.8534 30.5324 42.7613 28.7122L35.5712 16.2434H24.5587C23.9216 16.2434 23.1935 16.4254 22.5564 16.7895C20.7361 17.8816 20.099 20.157 21.1912 21.9772Z" fill="#3CDBC0"/>
<path fill-rule="evenodd" clip-rule="evenodd" d="M21.191 21.9771C20.1899 20.1569 19.6438 18.1546 19.6438 16.2433C19.6438 14.332 20.0989 12.3297 21.191 10.5095L25.6506 2.8644C26.3787 1.68123 27.5619 0.953125 28.9271 0.953125H61.4188C61.6008 0.953125 61.6918 1.04414 61.7828 1.13515C61.8738 1.22616 61.8738 1.4082 61.7828 1.49921L54.9568 13.3309C53.8647 15.1511 52.1354 16.2433 49.9511 16.2433H24.6495C24.0124 16.2433 23.2843 16.4253 22.6472 16.7894C20.7359 17.8815 20.0989 20.1569 21.191 21.9771Z" fill="#3CDBC0"/>
<path fill-rule="evenodd" clip-rule="evenodd" d="M23.3753 25.7997L9.35932 1.4993C9.26831 1.40828 9.17727 1.31726 8.99525 1.31726C8.81322 1.31726 8.72224 1.40828 8.63123 1.4993L1.80526 13.331C0.713106 15.1512 0.713106 17.2445 1.80526 19.0648L17.4594 46.2776C17.5505 46.3687 17.6415 46.4597 17.8235 46.4597C18.0055 46.4597 18.0966 46.3687 18.1876 46.2776L23.3753 37.2674C25.4686 33.6269 25.4686 29.5313 23.3753 25.7997Z" fill="#3CDBC0"/>
<path fill-rule="evenodd" clip-rule="evenodd" d="M50.8605 42.7281L50.0414 44.3664L49.2222 42.7281H48.7672H48.0391V46.5507H48.7672V43.6383L49.7683 45.7316H50.2234L50.4054 45.2765L51.2245 43.6383V46.5507H51.9526V42.7281H51.2245H50.8605ZM44.3986 42.7281H47.402V43.4563H46.3098V46.4597H45.5817V43.4563H44.4896V42.7281H44.3986Z" fill="#7F4CFF"/>
<path fill-rule="evenodd" clip-rule="evenodd" d="M21.1912 21.9772L35.2071 46.2777C35.2981 46.3687 35.3892 46.4597 35.5712 46.4597C35.7532 46.4597 35.8443 46.3687 35.9353 46.2777L42.7613 34.446C43.8534 32.6257 43.8534 30.5324 42.7613 28.7122L35.5712 16.2434H24.5587C23.9216 16.2434 23.1935 16.4254 22.5564 16.7895C20.7361 17.8816 20.099 20.157 21.1912 21.9772Z" fill="#7F4CFF"/>
</svg>
