<svg width="37" height="38" viewBox="0 0 37 38" fill="none" xmlns="http://www.w3.org/2000/svg">
<path d="M19.0282 1.0302C19.5548 1.0347 20.0898 1.03927 20.619 1.01537L20.6399 1.22658C24.0363 1.35074 27.2816 2.86979 29.9314 4.98519L29.9326 4.98611C33.4343 7.74752 35.8111 11.8532 36.568 16.2432C36.9048 19.5484 36.7084 22.9417 35.3712 25.9919L35.371 25.9918L35.3669 26.0023C32.7551 32.7692 25.7242 37.6675 18.4265 37.3212L18.4145 37.3206L18.4024 37.3212C15.7491 37.451 13.1069 36.7777 10.7109 35.6302C8.41969 34.4599 5.33039 34.5169 3.28627 36.2487C3.12921 36.3636 2.98424 36.496 2.84929 36.6224C2.82561 36.6446 2.80229 36.6666 2.77924 36.6883C2.66537 36.7955 2.5581 36.8966 2.44611 36.9893C2.18016 37.2096 1.92468 37.3507 1.61097 37.3518H0.353516V17.6397L0.595379 17.6162C0.515874 15.2969 1.29945 13.0847 2.30875 10.9902C5.23017 5.22441 11.4128 1.33047 17.8549 1.03244C18.2372 1.02345 18.6303 1.0268 19.0282 1.0302ZM3.07245 33.3682C3.7191 33.2186 4.34986 32.9992 4.9445 32.69C5.24542 32.657 5.54503 32.6103 5.83906 32.5635C5.86222 32.5598 5.88534 32.5561 5.90843 32.5524C6.196 32.5066 6.47801 32.4616 6.75983 32.4281C7.36795 32.3557 7.95578 32.3394 8.53716 32.4811L8.55797 32.4862L8.57934 32.4876C9.62141 32.5588 10.5699 32.9553 11.5503 33.3976C11.6319 33.4344 11.7137 33.4715 11.7958 33.5088C12.683 33.9114 13.6057 34.3302 14.6102 34.5046C15.5547 34.8236 16.5253 34.9208 17.4878 34.941C17.9723 34.9511 18.4577 34.9418 18.9374 34.9305C18.9933 34.9292 19.0492 34.9279 19.1049 34.9266C19.5289 34.9165 19.9478 34.9065 20.3637 34.9083L20.3787 34.9084L20.3937 34.9067C23.9544 34.4923 27.3888 32.8327 29.8431 30.188C32.143 27.861 33.5219 24.795 34.1845 21.6469L34.1884 21.6285L34.1895 21.6098C34.2003 21.421 34.212 21.231 34.2237 21.0399C34.3411 19.1277 34.4649 17.1104 33.8743 15.2115C32.3226 8.72681 26.1739 3.69221 19.5204 3.41161C15.479 3.22312 11.3882 4.61421 8.29828 7.22621C4.75274 10.1486 2.69517 14.7285 2.7717 19.304C2.77068 20.98 2.77115 22.6553 2.77161 24.3303C2.77243 27.2622 2.77324 30.1929 2.76608 33.124L2.76531 33.4393L3.07245 33.3682Z" fill="#1C1841" stroke="white" stroke-width="0.5"/>
<path d="M16.3226 9.57183L16.3225 9.57191L16.3276 9.57687C17.0835 10.3049 17.7958 11.0785 18.5109 11.8582C19.4644 12.9223 19.5153 14.7556 18.4669 15.7281L18.4669 15.728L18.4623 15.7325C18.2028 15.9858 17.8695 16.1379 17.4923 16.3099C17.4065 16.3491 17.3184 16.3892 17.2284 16.4319C16.7653 16.6513 16.2694 16.9333 16.0017 17.5051L15.988 17.5344L15.9822 17.5662C15.8902 18.0702 16.0622 18.4963 16.2972 18.8531C16.4536 19.0905 16.6575 19.3225 16.8393 19.5294C16.9189 19.6199 16.9942 19.7056 17.0594 19.7849L17.0665 19.7934L17.0742 19.8013C17.166 19.8946 17.2583 19.9898 17.3515 20.086C17.9368 20.6902 18.5586 21.332 19.328 21.7685C19.6741 21.9832 20.0598 21.9859 20.394 21.8682C20.7259 21.7512 21.0191 21.5128 21.2057 21.2212L21.2059 21.2213L21.2114 21.2119C21.3354 20.9981 21.4399 20.7587 21.5371 20.536C21.5807 20.4359 21.623 20.3391 21.6648 20.2496C21.8072 19.9451 21.9605 19.6836 22.1902 19.4816L22.2041 19.4693L22.2161 19.4552C22.7122 18.8676 23.4534 18.6212 24.2173 18.6651C24.9836 18.7092 25.747 19.0455 26.2583 19.589L26.2582 19.5891L26.2631 19.594C26.5335 19.8658 26.8228 20.1266 27.1076 20.3832L27.1202 20.3946C27.4108 20.6565 27.6967 20.9146 27.9646 21.1847C28.495 21.7195 28.9395 22.2868 29.1825 22.979C29.3322 23.9589 29.276 24.9636 28.6936 25.7175L28.6931 25.7182C27.2461 27.6043 25.2041 29.1039 22.8709 29.5705L22.8629 29.5721L22.8551 29.5742C20.6652 30.1626 18.3215 29.7391 16.207 28.9172C12.7038 27.4229 9.8042 24.4432 8.67191 20.7929L8.67193 20.7929L8.67097 20.7899C7.62477 17.5602 7.99989 13.7425 10.2237 11.119C10.2442 11.0956 10.2646 11.0723 10.2851 11.0489C11.1486 10.0617 12.0264 9.05835 13.2371 8.74479C14.3313 8.4927 15.5427 8.77645 16.3226 9.57183ZM12.7374 11.9211L12.7284 11.9279L12.7201 11.9355C11.1148 13.3881 10.405 15.5841 10.457 17.6708L10.4575 17.6909L10.4612 17.7107C10.4887 17.8569 10.5171 18.001 10.5453 18.1436C10.6441 18.6436 10.7394 19.126 10.7756 19.6216L10.778 19.6553L10.7893 19.6871C11.4643 21.5868 12.4773 23.444 14.0625 24.786C15.936 26.3904 18.39 27.5229 20.9366 27.3701C23.0656 27.4387 25.0516 26.299 26.4084 24.7712C26.6469 24.5732 26.724 24.3148 26.7472 24.0802C26.7588 23.9624 26.7576 23.8444 26.7551 23.7393C26.7547 23.7186 26.7541 23.6985 26.7536 23.679C26.7515 23.5946 26.7495 23.5201 26.7521 23.4479L26.7562 23.333L26.6716 23.2551C25.9674 22.6068 25.2931 21.927 24.6174 21.2428L24.5464 21.1709L24.4454 21.1686L23.9613 21.1573L23.7563 21.1525L23.7116 21.3527C23.2625 23.3604 21.0229 24.7771 19.0405 24.1655C17.2064 23.5909 15.8238 22.0896 14.6023 20.5696L14.6023 20.5696L14.6004 20.5673C13.5244 19.2606 13.2207 17.2834 14.2035 15.8924L14.213 15.8791L14.2206 15.8646C14.4713 15.3884 14.8606 15.0438 15.3236 14.7512C15.6546 14.542 16.0061 14.3689 16.3655 14.1919C16.5181 14.1167 16.6722 14.0408 16.8267 13.9611L17.1283 13.8056L16.8904 13.5637C16.6591 13.3284 16.4289 13.0846 16.1965 12.8385C15.6281 12.2365 15.0466 11.6207 14.4049 11.0823L14.3583 11.0432L14.299 11.0299C13.8754 10.9346 13.5606 11.1296 13.3267 11.3408C13.2303 11.4278 13.1381 11.5263 13.0552 11.6149C13.0396 11.6315 13.0244 11.6477 13.0096 11.6635C12.9106 11.7686 12.8242 11.8558 12.7374 11.9211Z" fill="#1C1841" stroke="white" stroke-width="0.5"/>
</svg>
