<?xml version="1.0" encoding="UTF-8" ?>
<!DOCTYPE svg PUBLIC "-//W3C//DTD SVG 1.1//EN" "http://www.w3.org/Graphics/SVG/1.1/DTD/svg11.dtd">
<svg width="486pt" height="597pt" viewBox="0 0 486 597" version="1.1" xmlns="http://www.w3.org/2000/svg">
<path fill="#1e479c" opacity="1.00" d=" M 178.31 0.00 L 208.49 0.00 C 213.71 3.74 219.61 6.46 224.66 10.46 C 231.55 15.80 237.19 22.52 243.50 28.49 C 245.42 30.65 248.38 29.03 250.62 28.40 C 264.26 23.57 278.92 19.32 293.46 22.17 C 304.54 25.34 315.46 31.27 322.11 40.97 C 329.04 50.54 332.40 62.11 334.94 73.51 C 335.35 75.26 335.81 77.34 337.74 78.01 C 349.00 83.03 361.67 84.91 372.10 91.78 C 383.53 99.80 391.38 112.48 394.28 126.06 C 395.00 133.31 395.01 140.69 394.28 147.95 C 392.29 156.77 388.19 165.29 381.70 171.69 C 376.38 177.43 370.06 182.07 364.12 187.11 C 361.63 188.76 362.54 191.99 362.98 194.43 C 364.90 202.92 366.97 211.39 368.24 220.02 C 369.48 228.93 366.70 237.84 363.02 245.86 C 357.14 256.55 347.53 264.49 338.66 272.61 C 338.30 283.66 339.26 294.75 338.34 305.78 C 335.83 317.72 327.54 327.15 321.92 337.66 C 320.69 339.39 323.17 340.65 324.05 341.92 C 333.06 350.32 341.68 359.27 348.54 369.56 C 351.75 374.15 354.32 379.56 359.28 382.56 C 367.02 387.29 376.62 387.66 384.27 392.59 C 390.72 396.90 394.64 404.37 395.42 412.01 C 396.40 421.87 393.72 431.62 394.57 441.50 C 406.74 449.68 419.91 456.39 431.40 465.55 C 435.46 468.30 432.64 473.88 430.99 477.34 C 423.10 478.54 415.46 475.28 408.77 471.43 C 400.00 466.31 392.12 459.81 383.23 454.89 C 381.19 453.70 378.42 452.65 376.42 454.53 C 366.95 461.55 358.74 470.11 350.56 478.56 C 348.08 481.29 345.32 483.87 343.50 487.11 C 347.60 496.79 353.06 505.86 358.10 515.08 C 368.81 534.15 380.00 553.01 388.64 573.14 C 395.43 567.34 399.27 558.63 406.79 553.64 C 415.53 549.90 425.28 549.70 434.35 547.11 C 435.54 546.86 436.11 545.76 436.41 544.69 C 438.83 535.86 439.44 526.53 442.74 517.94 C 446.47 511.47 453.59 508.01 458.23 502.33 C 458.85 500.21 458.08 498.02 457.67 495.94 C 456.45 491.11 455.34 486.25 454.22 481.41 C 461.74 481.26 469.67 480.71 476.65 484.13 C 480.73 485.78 483.74 489.18 486.00 492.87 L 486.00 499.75 C 480.71 511.78 466.86 516.07 460.10 526.88 C 455.83 535.75 455.70 546.10 450.94 554.81 C 448.15 560.06 443.09 564.60 436.93 565.00 C 431.96 565.28 426.95 566.00 422.50 568.35 C 409.92 574.61 401.23 586.13 392.85 597.00 L 379.82 597.00 C 365.98 567.22 353.41 536.51 334.44 509.51 C 333.13 507.83 332.02 505.74 329.92 504.97 C 327.99 504.42 325.96 504.74 324.01 504.89 C 317.36 505.71 310.65 505.69 303.96 505.65 C 296.01 505.82 288.35 501.55 283.56 495.33 C 277.70 487.17 277.18 476.52 271.70 468.16 C 267.95 462.53 261.53 459.78 256.25 455.90 C 247.39 449.50 239.55 441.83 232.01 433.96 C 230.76 433.00 229.38 430.84 227.61 431.94 C 216.62 436.84 206.40 444.71 194.05 445.66 C 182.87 446.80 172.27 442.66 161.77 439.52 C 159.11 438.77 155.86 437.57 153.47 439.64 C 145.17 445.61 137.87 453.04 128.87 458.02 C 118.58 463.82 106.41 463.13 95.05 462.37 C 80.86 459.79 67.90 451.22 59.66 439.43 C 52.29 428.32 51.40 414.62 48.28 402.01 C 47.79 399.26 45.16 397.97 42.95 396.80 C 26.95 389.21 10.39 378.34 4.62 360.66 C 2.03 352.07 0.46 342.87 2.38 333.97 C 4.76 322.48 11.03 312.37 16.23 302.02 C 17.90 298.93 15.26 295.96 13.89 293.34 C 6.77 281.55 -0.09 268.25 2.17 254.01 C 1.56 242.72 7.85 232.79 14.06 223.92 C 16.52 220.22 19.85 217.06 21.70 212.98 C 21.51 211.54 20.89 210.21 20.29 208.91 C 15.64 199.83 12.18 190.05 10.67 179.95 C 10.48 171.49 9.44 162.59 12.88 154.59 C 14.97 149.66 17.42 144.36 22.04 141.31 C 26.36 140.52 30.96 142.38 33.47 145.99 C 31.12 158.40 25.69 170.76 28.03 183.61 C 32.81 200.15 49.72 212.71 67.06 211.61 C 80.67 211.19 93.78 202.35 98.80 189.59 C 101.92 182.52 102.29 174.64 101.54 167.04 C 100.18 157.74 95.03 148.90 87.00 143.82 C 77.80 137.69 66.41 137.20 55.83 135.56 C 53.51 135.00 50.64 135.06 48.98 133.08 C 48.10 130.46 48.26 127.27 50.08 125.06 C 54.08 119.88 60.41 116.16 62.10 109.45 C 64.79 98.45 66.42 87.01 71.50 76.76 C 75.03 69.32 81.53 63.95 87.68 58.74 C 99.28 50.35 114.35 50.50 128.05 50.41 C 131.24 50.17 135.69 50.66 137.20 47.09 C 141.38 39.15 144.60 30.70 149.18 22.97 C 152.21 18.24 156.40 14.35 160.82 10.94 C 166.35 6.81 172.88 4.29 178.31 0.00 M 188.17 18.37 C 180.41 19.31 172.87 22.77 167.34 28.35 C 154.28 41.59 152.55 64.84 164.82 79.17 C 171.50 86.50 180.69 92.83 190.99 92.64 C 208.27 93.83 225.47 81.55 230.09 64.87 C 230.84 61.30 230.53 57.62 230.61 54.01 C 231.38 42.36 224.29 31.39 215.06 24.82 C 207.39 19.11 197.56 17.25 188.17 18.37 M 274.53 38.13 C 267.02 39.52 259.52 42.57 254.07 48.08 C 250.59 51.62 248.69 56.36 247.74 61.17 C 246.41 68.44 243.91 75.55 243.64 82.99 C 244.16 93.45 251.20 102.68 259.98 107.93 C 265.74 111.23 272.25 113.84 279.00 113.53 C 281.75 113.37 284.95 114.12 287.20 112.10 C 296.83 104.86 304.65 95.60 313.41 87.40 C 317.62 83.46 317.75 77.28 317.42 71.93 C 315.25 51.77 294.77 35.10 274.53 38.13 M 116.26 66.83 C 111.25 67.89 106.09 68.83 101.59 71.41 C 90.66 77.27 83.01 88.70 81.37 100.94 C 81.02 107.89 80.79 116.44 86.81 121.21 C 95.42 128.48 103.43 137.11 114.25 141.06 C 118.41 142.03 122.78 141.78 127.00 141.39 C 145.78 137.46 159.24 117.04 155.09 98.24 C 150.75 86.91 143.27 76.23 132.45 70.30 C 127.45 68.02 121.83 65.94 116.26 66.83 M 338.32 98.82 C 332.18 99.74 325.92 101.02 320.59 104.37 C 302.69 115.21 297.56 142.16 310.01 158.90 C 315.44 165.55 322.62 171.17 331.09 173.22 C 336.02 173.90 341.05 173.78 346.01 173.38 C 357.76 171.09 368.70 163.63 374.12 152.81 C 377.62 146.11 377.99 138.40 377.38 131.01 C 374.61 112.58 356.79 98.30 338.32 98.82 M 209.86 107.22 C 198.50 110.86 186.47 109.50 174.75 109.46 C 170.82 119.63 168.08 130.54 161.50 139.43 C 157.07 144.81 151.82 149.71 145.49 152.76 C 137.65 156.52 129.15 158.54 120.81 160.87 C 120.24 164.21 119.47 167.54 119.56 170.95 C 119.75 177.96 118.26 184.86 116.93 191.70 C 114.05 201.12 107.05 208.39 100.90 215.78 C 99.64 217.43 97.55 219.30 98.64 221.58 C 103.55 231.02 109.72 240.24 111.31 250.98 C 111.60 255.98 111.77 261.03 111.28 266.02 C 109.32 276.34 104.21 285.71 98.59 294.46 C 97.43 296.47 95.35 298.89 96.91 301.27 C 106.12 316.56 113.04 333.86 113.60 351.87 C 116.43 354.39 119.95 355.86 123.45 357.19 C 128.99 359.29 134.52 362.19 140.63 361.66 C 146.06 355.80 151.56 349.88 158.09 345.23 C 164.96 340.49 172.80 336.88 181.12 335.74 C 186.65 335.57 192.21 335.36 197.74 335.79 C 207.55 337.70 216.19 343.20 224.30 348.81 C 226.11 349.90 227.78 351.64 230.01 351.71 C 235.65 347.94 240.28 342.83 244.79 337.82 C 246.22 336.29 244.77 334.33 243.94 332.93 C 238.89 325.18 234.15 317.09 231.42 308.21 C 228.43 299.78 229.34 290.65 230.81 282.02 C 233.86 268.47 243.22 257.26 254.08 249.05 C 256.23 247.16 259.13 245.78 260.30 243.03 C 260.89 237.33 259.43 231.69 259.53 225.99 C 259.59 218.83 258.74 211.40 261.21 204.51 C 263.63 197.76 266.68 190.97 271.88 185.88 C 277.75 179.47 285.24 174.93 292.56 170.39 C 291.38 159.07 286.93 148.36 285.31 137.11 C 285.00 134.91 284.24 132.12 281.67 131.69 C 270.72 129.24 258.86 128.44 249.43 121.72 C 241.47 115.90 235.41 107.97 229.37 100.29 C 222.70 102.10 216.71 105.91 209.86 107.22 M 302.20 185.74 C 297.99 186.78 294.39 189.34 290.90 191.80 C 287.55 194.16 284.44 197.00 282.47 200.64 C 279.31 206.26 276.50 212.42 276.43 218.99 C 276.37 223.70 276.17 228.56 277.68 233.10 C 278.36 235.13 280.14 236.66 282.27 236.97 C 297.56 240.32 312.29 246.31 325.45 254.81 C 327.47 256.47 330.13 255.55 332.12 254.36 C 348.86 245.08 355.47 222.03 347.26 204.97 C 344.60 199.74 340.49 194.87 334.83 192.84 C 324.50 188.67 313.65 183.48 302.20 185.74 M 30.92 230.91 C 15.69 245.18 15.75 271.87 30.53 286.44 C 31.76 287.57 33.37 288.39 35.07 288.30 C 50.21 288.44 65.35 288.49 80.49 288.41 C 93.03 277.97 98.22 259.24 91.62 244.13 C 89.20 238.07 84.94 232.14 78.70 229.68 C 65.09 228.88 51.62 226.05 37.94 226.35 C 34.89 226.27 33.01 229.12 30.92 230.91 M 276.68 257.33 C 270.44 259.19 264.11 261.72 259.48 266.48 C 251.10 274.11 246.45 285.70 247.37 297.01 C 246.83 304.76 250.35 312.13 254.92 318.19 C 260.27 325.79 269.84 329.77 278.98 329.51 C 284.99 329.51 291.01 329.53 297.02 329.43 C 300.12 329.43 302.85 327.71 305.47 326.25 C 313.86 321.22 318.68 312.06 321.53 302.99 C 322.73 298.44 322.33 293.65 322.17 289.00 C 320.54 278.43 313.99 268.94 305.08 263.14 C 296.64 258.07 286.50 254.90 276.68 257.33 M 51.25 304.78 C 44.44 306.19 37.66 308.69 32.46 313.45 C 18.34 325.32 14.94 348.24 25.67 363.39 C 31.91 370.91 40.14 377.53 50.04 379.12 C 68.92 382.06 89.74 369.21 93.47 350.02 C 93.81 344.69 93.90 339.31 93.47 333.99 C 89.35 315.64 69.97 301.80 51.25 304.78 M 275.48 345.71 C 256.54 347.13 239.71 362.36 236.57 381.09 C 236.36 390.44 235.31 400.24 239.23 409.04 C 242.34 417.15 246.34 425.22 252.99 431.03 C 260.04 438.73 268.74 445.00 278.62 448.53 C 282.93 449.96 286.90 446.61 290.00 444.00 C 300.98 433.66 311.22 422.55 322.10 412.10 C 328.38 405.80 335.20 399.67 339.34 391.67 C 338.64 383.76 334.05 376.73 329.56 370.37 C 324.42 362.87 316.82 357.64 309.18 352.95 C 299.04 347.18 287.10 344.56 275.48 345.71 M 183.21 353.69 C 169.07 355.78 156.46 366.48 152.94 380.45 C 150.04 389.36 151.36 399.19 155.23 407.60 C 160.08 417.41 169.55 424.61 180.08 427.33 C 185.01 428.04 190.05 427.84 195.02 427.55 C 202.79 426.13 210.25 422.50 215.79 416.80 C 217.54 414.93 219.79 412.89 219.48 410.07 C 219.60 397.69 219.64 385.31 219.53 372.92 C 219.78 369.07 216.62 366.32 214.29 363.71 C 206.41 355.54 194.30 352.11 183.21 353.69 M 108.19 371.65 C 105.42 372.33 103.38 374.43 101.22 376.14 C 93.42 382.78 85.23 388.98 76.48 394.31 C 73.79 396.01 70.73 397.44 68.85 400.13 C 67.72 407.64 67.93 415.62 71.10 422.67 C 75.90 434.98 87.93 443.85 100.96 445.42 C 112.41 446.62 124.17 442.36 132.53 434.54 C 135.47 431.17 138.51 427.38 139.53 422.99 C 138.12 409.67 134.30 396.75 131.67 383.65 C 131.34 380.95 129.44 378.92 127.16 377.65 C 121.51 374.18 115.06 370.61 108.19 371.65 M 358.54 402.77 C 355.07 404.31 352.33 407.04 349.43 409.42 C 339.07 418.00 329.97 427.97 320.46 437.45 C 313.33 444.67 306.25 451.93 298.95 458.97 C 294.79 462.74 293.50 468.61 293.43 474.01 C 293.25 481.02 298.80 488.00 305.96 488.54 C 311.26 488.87 316.95 487.58 321.02 484.01 C 324.52 480.86 327.76 477.43 331.09 474.09 C 343.04 461.70 355.50 449.83 367.56 437.56 C 371.09 433.97 374.10 429.90 376.68 425.60 C 378.24 422.89 379.69 419.69 378.70 416.53 C 377.26 410.92 374.09 405.05 368.45 402.80 C 365.23 402.04 361.75 402.00 358.54 402.77 Z" />
<path fill="#20dca5" opacity="1.00" d=" M 275.48 345.71 C 287.10 344.56 299.04 347.18 309.18 352.95 C 316.82 357.64 324.42 362.87 329.56 370.37 C 334.05 376.73 338.64 383.76 339.34 391.67 C 335.20 399.67 328.38 405.80 322.10 412.10 C 311.22 422.55 300.98 433.66 290.00 444.00 C 286.90 446.61 282.93 449.96 278.62 448.53 C 268.74 445.00 260.04 438.73 252.99 431.03 C 246.34 425.22 242.34 417.15 239.23 409.04 C 235.31 400.24 236.36 390.44 236.57 381.09 C 239.71 362.36 256.54 347.13 275.48 345.71 Z" />
<path fill="#20dca5" opacity="1.00" d=" M 358.54 402.77 C 361.75 402.00 365.23 402.04 368.45 402.80 C 374.09 405.05 377.26 410.92 378.70 416.53 C 379.69 419.69 378.24 422.89 376.68 425.60 C 374.10 429.90 371.09 433.97 367.56 437.56 C 355.50 449.83 343.04 461.70 331.09 474.09 C 327.76 477.43 324.52 480.86 321.02 484.01 C 316.95 487.58 311.26 488.87 305.96 488.54 C 298.80 488.00 293.25 481.02 293.43 474.01 C 293.50 468.61 294.79 462.74 298.95 458.97 C 306.25 451.93 313.33 444.67 320.46 437.45 C 329.97 427.97 339.07 418.00 349.43 409.42 C 352.33 407.04 355.07 404.31 358.54 402.77 Z" />
</svg>
