<?xml version="1.0" encoding="UTF-8" ?>
<!DOCTYPE svg PUBLIC "-//W3C//DTD SVG 1.1//EN" "http://www.w3.org/Graphics/SVG/1.1/DTD/svg11.dtd">
<svg width="633pt" height="525pt" viewBox="0 0 633 525" version="1.1" xmlns="http://www.w3.org/2000/svg">
<path fill="#1e479c" opacity="1.00" d=" M 307.59 2.40 C 310.49 0.87 313.86 1.64 317.00 1.45 C 319.81 1.57 322.82 0.98 325.41 2.40 C 325.68 19.26 325.34 36.16 326.29 53.00 C 325.33 62.97 325.86 73.01 325.27 83.00 C 325.02 86.26 323.25 89.81 319.78 90.52 C 316.80 90.88 313.22 91.33 310.78 89.17 C 308.33 87.27 307.78 83.97 307.63 81.06 C 307.29 71.38 307.47 61.67 306.67 52.01 C 307.56 35.50 307.41 18.94 307.59 2.40 Z" />
<path fill="#1e479c" opacity="1.00" d=" M 188.24 52.83 C 192.02 51.66 196.14 53.46 198.97 56.01 C 210.47 65.83 220.91 76.80 231.42 87.65 C 234.60 91.53 238.73 94.68 241.27 99.04 C 241.92 102.53 242.67 107.06 239.71 109.72 C 237.29 112.42 232.65 112.32 229.96 110.07 C 224.54 106.27 219.66 101.76 214.69 97.40 C 205.18 88.89 197.11 78.95 187.93 70.10 C 185.12 67.50 182.73 64.00 183.34 59.98 C 182.84 56.64 185.44 54.10 188.24 52.83 Z" />
<path fill="#1e479c" opacity="1.00" d=" M 436.20 54.17 C 441.43 49.62 451.31 55.00 449.76 61.96 C 449.90 64.30 448.11 66.02 446.81 67.74 C 435.04 81.92 421.83 94.88 407.92 106.95 C 406.88 107.83 405.81 108.71 404.57 109.31 C 399.84 110.00 395.07 110.53 390.29 110.55 C 391.34 103.87 392.34 96.44 397.53 91.54 C 410.26 78.93 422.42 65.66 436.20 54.17 Z" />
<path fill="#1e479c" opacity="1.00" d=" M 493.00 138.51 C 509.36 137.66 525.81 136.87 542.17 138.35 C 552.10 138.29 561.93 139.82 571.80 140.68 C 577.93 141.29 584.34 143.73 587.64 149.25 C 594.22 159.12 593.06 171.44 594.66 182.65 C 599.78 182.34 604.86 181.33 610.02 181.57 C 618.03 181.76 625.82 184.18 633.00 187.63 L 633.00 237.80 C 628.20 243.82 622.29 248.98 615.51 252.66 C 602.90 259.61 588.73 262.80 575.37 267.91 C 575.11 276.71 578.18 285.17 578.52 293.94 C 578.69 302.01 579.22 310.29 576.72 318.09 C 571.48 336.94 557.03 352.81 539.04 360.32 C 519.87 368.50 499.99 374.82 480.49 382.14 C 473.08 385.25 465.03 387.19 458.42 391.92 C 487.72 406.43 521.00 411.81 548.94 429.30 C 575.67 447.25 586.69 485.95 571.72 514.81 C 569.07 520.89 562.31 523.14 556.49 525.00 L 543.37 525.00 C 537.84 522.00 531.63 519.53 527.71 514.35 C 525.13 511.20 523.80 507.28 522.97 503.36 C 534.14 502.97 545.09 505.88 556.25 505.94 C 557.45 502.07 558.54 498.12 558.59 494.04 C 558.77 485.67 559.33 477.03 556.46 469.01 C 553.03 457.71 545.27 447.67 534.68 442.26 C 518.07 433.63 500.18 427.88 482.57 421.69 C 469.46 417.24 456.68 411.89 443.64 407.28 C 435.79 404.47 427.11 401.82 418.86 404.60 C 394.52 412.68 370.44 421.61 346.90 431.77 C 348.32 432.72 349.77 433.64 351.36 434.31 C 401.22 453.56 452.95 468.06 501.41 490.85 C 502.63 491.38 504.29 492.30 503.70 493.93 C 502.60 497.85 500.27 501.28 498.37 504.85 C 493.54 504.39 488.98 502.65 484.37 501.26 C 432.82 485.38 383.18 464.02 331.97 447.15 C 327.08 445.59 322.23 443.39 317.00 443.51 C 311.55 443.43 306.35 445.23 301.24 446.89 C 284.19 452.59 267.47 459.21 250.59 465.38 C 209.45 480.47 168.13 495.05 126.99 510.16 C 112.25 515.50 97.62 521.29 82.36 525.00 L 75.73 525.00 C 71.21 523.45 66.12 522.00 63.12 517.99 C 60.62 514.38 58.98 510.25 57.58 506.12 C 47.12 474.65 63.95 436.80 94.29 423.42 C 120.49 411.20 148.94 404.54 174.87 391.73 C 173.05 390.38 171.15 389.11 169.07 388.19 C 144.14 377.32 117.12 371.76 92.83 359.34 C 84.76 355.05 76.65 350.39 70.38 343.63 C 60.89 333.83 56.13 320.36 54.61 307.01 C 54.25 301.66 54.36 296.29 54.46 290.93 C 54.60 283.12 57.27 275.65 57.80 267.88 C 44.23 262.54 29.69 259.52 16.91 252.28 C 10.38 248.65 4.64 243.67 0.00 237.83 L 0.00 187.83 C 5.82 184.97 11.99 182.68 18.48 181.95 C 25.12 180.91 31.77 182.15 38.40 182.65 C 40.48 171.72 38.43 159.50 44.77 149.69 C 50.28 141.62 61.01 140.65 69.89 139.60 C 79.30 139.68 88.66 138.05 98.06 138.83 C 98.48 144.09 98.72 149.41 97.83 154.64 C 85.06 157.01 72.03 157.81 59.32 160.50 C 59.35 171.36 59.14 182.23 59.44 193.08 C 139.90 222.45 220.51 251.43 301.00 280.73 C 310.26 285.02 321.10 284.54 330.60 281.29 C 342.72 277.27 354.65 272.70 366.66 268.35 C 430.11 244.99 493.76 222.15 557.33 199.10 C 562.98 196.94 568.93 195.44 574.25 192.46 C 574.34 181.27 574.43 170.07 574.19 158.87 C 562.45 158.27 550.76 156.85 539.00 156.59 C 525.42 156.53 511.79 156.07 498.24 157.20 C 449.04 160.24 399.79 172.79 357.09 197.93 C 341.21 207.57 330.32 223.05 316.81 235.42 C 312.02 232.22 308.50 227.60 304.47 223.56 C 295.42 214.30 286.68 204.36 275.35 197.80 C 249.34 181.77 220.14 171.59 190.39 165.08 C 168.60 160.13 146.37 157.68 124.20 155.21 C 125.31 149.81 126.90 144.52 128.86 139.37 C 154.65 139.17 180.39 143.05 205.40 149.25 C 243.84 158.98 281.00 175.78 311.37 201.58 C 313.07 202.86 314.66 204.56 316.84 204.93 C 318.80 203.98 320.42 202.48 322.11 201.12 C 332.18 192.68 343.06 185.20 354.40 178.57 C 396.41 154.04 444.73 141.89 493.00 138.51 M 18.85 199.47 C 18.40 206.30 18.64 213.15 18.58 220.00 C 18.67 223.94 18.52 228.07 20.01 231.81 C 21.54 234.09 24.16 235.28 26.51 236.55 C 40.32 243.17 55.28 246.80 69.45 252.52 C 77.47 255.61 85.69 258.12 93.72 261.17 C 113.45 268.13 132.98 275.63 152.78 282.40 C 159.23 285.02 165.68 287.67 172.34 289.75 C 205.49 301.60 238.51 313.83 271.72 325.51 C 283.37 329.93 294.90 334.76 306.86 338.30 C 311.22 339.44 315.81 340.87 320.33 339.72 C 330.70 337.56 340.47 333.35 350.34 329.65 C 393.59 313.76 437.09 298.52 480.29 282.53 C 491.91 279.04 503.03 274.12 514.55 270.35 C 523.31 266.52 532.61 264.19 541.39 260.41 C 548.97 257.56 556.70 255.16 564.25 252.23 C 576.28 247.63 588.72 244.20 600.69 239.43 C 605.06 237.44 609.77 235.69 613.29 232.30 C 614.57 229.39 614.32 226.11 614.42 223.00 C 614.32 215.18 614.64 207.35 614.14 199.54 C 610.53 200.21 606.99 201.21 603.56 202.53 C 597.16 204.97 590.59 206.89 584.18 209.31 C 563.76 216.87 542.98 223.46 522.72 231.45 C 518.43 232.95 514.05 234.14 509.86 235.88 C 500.98 239.61 491.70 242.25 482.76 245.81 C 472.41 249.96 461.70 253.11 451.33 257.21 C 442.97 259.90 435.03 263.70 426.67 266.39 C 405.19 273.96 383.80 281.78 362.32 289.35 C 355.36 292.29 348.22 294.75 341.10 297.27 C 333.28 300.04 325.47 303.60 317.02 303.75 C 310.26 304.03 303.92 301.36 297.55 299.49 C 291.80 297.79 286.28 295.44 280.72 293.21 C 262.70 286.53 244.57 280.18 226.57 273.42 C 218.39 270.03 209.91 267.47 201.61 264.42 C 176.36 255.17 151.07 246.04 125.74 237.01 C 117.28 233.35 108.28 231.18 99.86 227.41 C 77.68 219.92 55.85 211.40 33.56 204.18 C 28.69 202.52 23.94 200.44 18.85 199.47 M 75.38 277.21 C 73.60 288.96 70.88 301.15 74.01 312.92 C 77.16 323.36 83.94 332.82 93.21 338.68 C 105.59 346.73 120.12 350.25 133.78 355.46 C 157.31 363.25 179.87 374.06 204.15 379.47 C 209.10 380.47 213.87 378.50 218.57 377.23 C 236.44 372.03 253.56 364.65 271.02 358.28 C 275.80 356.49 280.74 355.09 285.42 353.03 C 284.47 352.01 283.38 351.19 282.15 350.57 C 255.43 338.31 227.32 329.53 199.72 319.53 C 189.39 315.97 179.26 311.82 168.87 308.42 C 143.07 299.36 117.89 288.52 91.61 280.88 C 86.27 279.42 80.97 277.44 75.38 277.21 M 543.59 280.08 C 530.95 283.62 518.68 288.34 506.41 292.98 C 395.58 333.01 284.83 373.26 174.04 413.43 C 159.73 418.54 145.54 424.03 131.08 428.75 C 117.85 433.20 104.34 437.68 92.76 445.69 C 74.08 459.57 68.38 487.12 78.33 507.83 C 149.12 482.48 219.71 456.59 290.47 431.15 C 370.88 402.07 451.27 372.93 531.61 343.65 C 549.59 336.47 560.61 316.96 560.55 298.03 C 560.76 290.97 560.21 283.79 557.71 277.13 C 552.85 277.18 548.24 278.86 543.59 280.08 Z" />
<path fill="#1e479c" opacity="1.00" d=" M 157.47 187.43 C 170.58 186.84 183.63 189.12 196.33 192.22 C 217.54 197.54 237.62 206.93 255.75 219.09 C 258.73 221.14 262.14 223.96 261.63 228.00 C 262.39 232.15 259.64 235.82 256.09 237.62 C 250.05 236.57 244.44 233.76 239.14 230.76 C 231.77 226.39 224.20 222.35 216.40 218.80 C 198.62 211.18 179.64 206.86 160.60 203.77 C 158.99 203.81 157.85 202.56 157.81 200.99 C 157.43 196.48 157.55 191.95 157.47 187.43 Z" />
<path fill="#1e479c" opacity="1.00" d=" M 384.34 214.57 C 411.68 197.75 443.50 186.98 475.81 187.56 C 475.67 192.47 475.24 197.36 474.37 202.20 C 468.51 204.89 462.06 205.73 455.86 207.27 C 442.15 210.18 428.29 213.20 415.57 219.28 C 402.39 224.89 390.79 233.94 376.86 237.81 C 374.61 235.99 371.64 234.06 371.45 230.87 C 371.40 228.19 370.84 224.97 372.93 222.87 C 376.05 219.27 380.44 217.18 384.34 214.57 Z" />
<path fill="#20dca5" opacity="1.00" d=" M 18.85 199.47 C 23.94 200.44 28.69 202.52 33.56 204.18 C 55.85 211.40 77.68 219.92 99.86 227.41 C 108.28 231.18 117.28 233.35 125.74 237.01 C 151.07 246.04 176.36 255.17 201.61 264.42 C 209.91 267.47 218.39 270.03 226.57 273.42 C 244.57 280.18 262.70 286.53 280.72 293.21 C 286.28 295.44 291.80 297.79 297.55 299.49 C 303.92 301.36 310.26 304.03 317.02 303.75 C 325.47 303.60 333.28 300.04 341.10 297.27 C 348.22 294.75 355.36 292.29 362.32 289.35 C 383.80 281.78 405.19 273.96 426.67 266.39 C 435.03 263.70 442.97 259.90 451.33 257.21 C 461.70 253.11 472.41 249.96 482.76 245.81 C 491.70 242.25 500.98 239.61 509.86 235.88 C 514.05 234.14 518.43 232.95 522.72 231.45 C 542.98 223.46 563.76 216.87 584.18 209.31 C 590.59 206.89 597.16 204.97 603.56 202.53 C 606.99 201.21 610.53 200.21 614.14 199.54 C 614.64 207.35 614.32 215.18 614.42 223.00 C 614.32 226.11 614.57 229.39 613.29 232.30 C 609.77 235.69 605.06 237.44 600.69 239.43 C 588.72 244.20 576.28 247.63 564.25 252.23 C 556.70 255.16 548.97 257.56 541.39 260.41 C 532.61 264.19 523.31 266.52 514.55 270.35 C 503.03 274.12 491.91 279.04 480.29 282.53 C 437.09 298.52 393.59 313.76 350.34 329.65 C 340.47 333.35 330.70 337.56 320.33 339.72 C 315.81 340.87 311.22 339.44 306.86 338.30 C 294.90 334.76 283.37 329.93 271.72 325.51 C 238.51 313.83 205.49 301.60 172.34 289.75 C 165.68 287.67 159.23 285.02 152.78 282.40 C 132.98 275.63 113.45 268.13 93.72 261.17 C 85.69 258.12 77.47 255.61 69.45 252.52 C 55.28 246.80 40.32 243.17 26.51 236.55 C 24.16 235.28 21.54 234.09 20.01 231.81 C 18.52 228.07 18.67 223.94 18.58 220.00 C 18.64 213.15 18.40 206.30 18.85 199.47 Z" />
</svg>
