<svg width="29" height="26" viewBox="0 0 29 26" fill="none" xmlns="http://www.w3.org/2000/svg">
<g clip-path="url(#clip0_288_3833)">
<path d="M5.93368 20.8238C5.50762 20.8238 5.1543 20.4705 5.1543 20.0444V8.61345C5.1543 4.03068 6.54679 2.63818 11.1296 2.63818H18.4038C22.9866 2.63818 24.3791 4.03068 24.3791 8.61345V19.0052C24.3791 19.1715 24.3791 19.3274 24.3687 19.4936C24.3375 19.9197 23.953 20.2522 23.5373 20.2211C23.1113 20.1899 22.7787 19.8158 22.8099 19.3897C22.8203 19.265 22.8203 19.1299 22.8203 19.0052V8.61345C22.8203 4.90359 22.1241 4.19695 18.4038 4.19695H11.1296C7.40931 4.19695 6.71306 4.90359 6.71306 8.61345V20.0444C6.71306 20.4705 6.35974 20.8238 5.93368 20.8238Z" fill="white"/>
<path d="M19.9626 24.9805H9.5708C7.13912 24.9805 5.1543 22.9956 5.1543 20.564V19.8885C5.1543 17.8205 6.83776 16.1475 8.89533 16.1475H23.5997C24.0257 16.1475 24.3791 16.5008 24.3791 16.9268V20.564C24.3791 22.9956 22.3942 24.9805 19.9626 24.9805ZM8.89533 17.7062C7.68989 17.7062 6.71306 18.6831 6.71306 19.8885V20.564C6.71306 22.1435 7.99125 23.4217 9.5708 23.4217H19.9626C21.5421 23.4217 22.8203 22.1435 22.8203 20.564V17.7062H8.89533Z" fill="white"/>
<path d="M18.9229 9.39275H10.6095C10.1834 9.39275 9.83008 9.03943 9.83008 8.61337C9.83008 8.1873 10.1834 7.83398 10.6095 7.83398H18.9229C19.3489 7.83398 19.7023 8.1873 19.7023 8.61337C19.7023 9.03943 19.3489 9.39275 18.9229 9.39275Z" fill="white"/>
<path d="M15.8053 13.03H10.6095C10.1834 13.03 9.83008 12.6766 9.83008 12.2506C9.83008 11.8245 10.1834 11.4712 10.6095 11.4712H15.8053C16.2314 11.4712 16.5847 11.8245 16.5847 12.2506C16.5847 12.6766 16.2314 13.03 15.8053 13.03Z" fill="white"/>
</g>
<defs>
<clipPath id="clip0_288_3833">
<rect width="27.078" height="24.9402" fill="white" transform="translate(0.988281 0.94043)"/>
</clipPath>
</defs>
</svg>
