<?xml version="1.0" encoding="UTF-8" ?>
<!DOCTYPE svg PUBLIC "-//W3C//DTD SVG 1.1//EN" "http://www.w3.org/Graphics/SVG/1.1/DTD/svg11.dtd">
<svg width="511pt" height="613pt" viewBox="0 0 511 613" version="1.1" xmlns="http://www.w3.org/2000/svg">
<path fill="#183c81" opacity="0.83" d=" M 254.43 0.00 L 291.40 0.00 C 296.49 4.86 303.66 4.84 310.23 5.05 C 320.99 5.41 331.26 9.30 342.05 9.44 C 351.74 9.63 361.15 12.01 370.66 13.56 C 385.13 15.60 398.99 21.57 410.65 30.34 C 424.00 40.43 433.17 54.66 443.18 67.80 C 450.54 77.15 457.37 86.91 464.69 96.29 C 472.85 107.91 482.65 118.63 487.97 132.00 C 491.74 139.89 492.61 148.66 494.02 157.17 C 496.00 169.01 493.21 180.90 491.62 192.60 L 491.47 193.47 C 490.88 186.99 491.28 180.51 492.17 174.09 C 493.19 165.66 492.10 157.20 491.29 148.82 C 490.60 141.58 487.43 134.93 484.57 128.35 C 479.05 116.24 469.72 106.58 462.31 95.69 C 456.76 88.23 451.00 80.94 445.56 73.41 C 437.06 63.19 430.27 51.61 420.79 42.21 C 412.71 33.77 403.62 25.87 392.61 21.54 C 385.19 18.78 377.65 15.89 369.67 15.40 C 364.19 15.07 358.79 14.02 353.48 12.66 C 345.84 10.75 337.89 11.17 330.16 9.92 C 326.26 9.34 322.43 8.33 318.57 7.54 C 311.23 5.96 303.62 6.46 296.30 4.74 C 290.31 3.31 284.15 2.88 278.01 3.05 C 271.39 3.21 264.58 2.33 258.16 4.40 C 254.91 5.45 251.52 6.29 248.08 5.85 L 246.82 5.77 C 248.88 4.77 251.01 3.90 253.11 2.95 C 253.58 1.98 254.02 1.00 254.43 0.00 Z" />
<path fill="#15346e" opacity="0.71" d=" M 291.40 0.00 L 296.41 0.00 C 300.38 3.10 305.24 4.67 310.23 5.05 C 303.66 4.84 296.49 4.86 291.40 0.00 Z" />
<path fill="#0f234d" opacity="0.49" d=" M 296.41 0.00 L 311.18 0.00 C 314.70 3.83 319.91 3.69 324.68 3.79 C 333.83 4.03 342.52 7.38 351.64 7.91 C 357.50 8.48 363.50 8.27 369.17 10.11 C 375.91 12.33 383.22 12.39 389.75 15.31 C 400.50 19.76 410.77 25.71 419.24 33.76 C 426.90 40.88 432.71 49.61 439.14 57.79 C 453.78 77.16 468.39 96.56 482.72 116.15 C 488.72 125.06 493.25 135.03 495.22 145.62 C 498.24 155.44 497.79 165.80 497.44 175.94 C 496.83 184.05 494.11 191.87 493.75 200.02 C 493.49 206.36 493.35 212.77 491.55 218.90 C 488.34 229.75 489.84 241.31 486.85 252.20 C 483.80 262.25 484.86 272.87 482.61 283.07 C 481.37 287.40 485.26 290.37 487.97 293.04 C 497.71 301.99 504.57 313.80 508.37 326.41 C 509.03 326.89 510.34 327.85 511.00 328.34 L 511.00 342.22 C 506.03 336.81 506.97 329.02 504.28 322.61 C 502.23 317.65 500.46 312.56 498.05 307.77 C 493.93 300.51 486.49 296.11 481.09 289.94 C 477.87 286.49 479.77 281.47 480.36 277.40 C 483.01 266.45 482.72 255.07 485.13 244.07 C 487.58 232.80 487.39 221.14 489.95 209.88 C 491.26 204.21 491.73 198.41 491.62 192.60 C 493.21 180.90 496.00 169.01 494.02 157.17 C 492.61 148.66 491.74 139.89 487.97 132.00 C 482.65 118.63 472.85 107.91 464.69 96.29 C 457.37 86.91 450.54 77.15 443.18 67.80 C 433.17 54.66 424.00 40.43 410.65 30.34 C 398.99 21.57 385.13 15.60 370.66 13.56 C 361.15 12.01 351.74 9.63 342.05 9.44 C 331.26 9.30 320.99 5.41 310.23 5.05 C 305.24 4.67 300.38 3.10 296.41 0.00 Z" />
<path fill="#1e499c" opacity="1.00" d=" M 258.16 4.40 C 264.58 2.33 271.39 3.21 278.01 3.05 C 284.15 2.88 290.31 3.31 296.30 4.74 C 303.62 6.46 311.23 5.96 318.57 7.54 C 322.43 8.33 326.26 9.34 330.16 9.92 C 337.89 11.17 345.84 10.75 353.48 12.66 C 358.79 14.02 364.19 15.07 369.67 15.40 C 377.65 15.89 385.19 18.78 392.61 21.54 C 403.62 25.87 412.71 33.77 420.79 42.21 C 430.27 51.61 437.06 63.19 445.56 73.41 C 451.00 80.94 456.76 88.23 462.31 95.69 C 469.72 106.58 479.05 116.24 484.57 128.35 C 487.43 134.93 490.60 141.58 491.29 148.82 C 492.10 157.20 493.19 165.66 492.17 174.09 C 491.28 180.51 490.88 186.99 491.47 193.47 C 490.14 200.69 487.96 207.76 487.15 215.08 C 486.49 220.32 486.74 225.65 485.73 230.86 C 484.90 235.33 483.10 239.59 482.61 244.14 C 482.02 249.37 482.37 254.66 481.65 259.88 C 480.99 265.83 478.33 271.34 477.67 277.29 C 477.16 281.35 477.36 285.46 477.42 289.55 C 490.65 298.41 499.93 312.30 504.43 327.45 C 506.98 337.76 506.44 348.47 506.48 359.00 C 506.48 415.67 506.47 472.33 506.48 529.00 C 506.47 535.63 505.64 542.22 505.21 548.84 C 501.34 556.69 499.83 565.57 494.90 572.91 C 487.24 584.95 476.57 595.44 463.55 601.53 C 453.54 606.75 442.17 608.72 431.06 609.91 C 317.71 609.88 204.35 609.91 91.00 609.89 C 85.05 609.85 79.09 610.19 73.16 609.61 C 65.06 607.97 56.75 606.65 49.29 602.91 C 32.23 595.40 18.25 581.14 11.09 563.93 C 8.60 557.99 5.94 551.96 5.45 545.45 C 4.93 538.98 5.21 532.48 5.17 526.00 C 5.16 479.00 5.20 432.00 5.15 384.99 C 5.30 379.96 4.34 374.69 5.96 369.83 C 7.86 366.01 12.71 366.71 16.23 366.57 C 18.15 369.31 19.59 372.50 19.42 375.93 C 19.37 428.96 19.47 482.00 19.49 535.03 C 19.69 548.37 25.02 561.27 33.46 571.49 C 38.58 576.77 43.81 582.05 49.80 586.36 C 54.49 589.84 60.18 591.44 65.64 593.26 C 71.54 595.35 77.87 594.59 84.00 594.68 C 193.33 594.68 302.67 594.68 412.00 594.68 C 421.02 594.55 430.05 594.94 439.06 594.52 C 450.15 592.59 461.11 588.11 469.31 580.20 C 478.58 571.38 487.42 560.89 489.90 547.99 C 492.03 539.17 492.46 530.04 492.29 521.00 C 492.26 463.33 492.28 405.67 492.28 348.00 C 491.95 338.18 490.74 327.94 485.61 319.35 C 480.02 309.19 470.51 301.78 460.12 296.98 C 456.45 294.77 452.35 293.23 448.01 293.41 C 386.67 293.40 325.34 293.41 264.00 293.40 C 257.54 293.35 250.94 293.98 244.65 292.18 C 236.06 289.59 227.26 287.22 219.63 282.34 C 208.96 276.00 200.58 266.47 193.71 256.26 C 185.29 244.66 178.10 232.15 168.84 221.16 C 163.22 214.35 155.34 209.85 147.11 206.96 C 140.97 204.85 134.38 205.43 128.00 205.39 C 107.32 205.43 86.63 205.43 65.95 205.38 C 51.52 205.14 38.13 213.27 29.09 224.10 C 23.42 230.28 20.74 238.41 18.60 246.35 C 17.87 249.16 17.49 252.06 17.42 254.97 C 17.34 279.98 17.17 305.00 17.33 330.01 C 17.23 333.07 17.43 336.29 16.20 339.16 C 13.44 343.35 5.35 341.30 5.46 336.09 C 5.60 306.08 5.57 276.04 5.50 246.01 C 5.54 242.33 5.84 238.59 7.08 235.09 C 11.25 223.73 18.00 213.15 27.35 205.36 C 29.61 203.28 32.52 201.15 32.70 197.79 C 33.15 190.60 29.70 183.90 29.37 176.77 C 28.91 168.06 28.25 159.22 29.72 150.57 C 33.50 135.23 42.65 120.50 56.86 112.87 C 64.73 107.60 74.27 106.47 83.27 104.30 C 92.00 102.27 101.05 103.13 109.85 101.63 C 114.60 100.88 119.26 99.57 124.03 98.93 C 131.31 97.94 138.69 98.11 145.95 96.99 C 151.04 96.24 156.01 94.83 161.12 94.22 C 166.42 93.55 171.79 93.66 177.10 93.11 C 185.20 92.38 192.98 89.73 201.11 89.16 C 204.35 88.58 208.73 88.95 210.61 85.65 C 212.99 80.87 212.66 75.33 213.17 70.15 C 213.51 61.52 216.24 53.28 217.78 44.84 C 220.16 33.43 226.86 23.18 235.66 15.64 C 239.66 12.18 244.91 10.24 248.08 5.85 C 251.52 6.29 254.91 5.45 258.16 4.40 M 266.40 16.40 C 261.84 16.66 257.42 18.07 253.51 20.41 C 245.66 24.49 238.98 30.85 234.73 38.62 C 231.84 45.01 229.06 51.66 228.76 58.76 C 228.48 65.20 227.26 71.52 225.81 77.78 C 225.27 80.16 225.22 84.04 228.34 84.52 C 239.60 85.83 250.78 82.65 262.03 82.80 C 269.32 83.46 276.94 83.77 283.57 87.26 C 294.11 91.49 303.42 99.03 309.20 108.86 C 312.58 114.63 316.24 120.57 316.74 127.41 C 317.43 135.01 320.16 142.25 320.53 149.88 C 320.89 155.35 321.17 160.82 321.75 166.26 C 322.47 173.25 325.16 179.91 325.29 186.98 C 325.47 195.64 326.25 204.32 328.33 212.75 C 331.16 224.11 329.36 236.09 332.70 247.37 C 335.34 256.24 333.80 265.63 335.65 274.62 C 336.23 277.89 340.20 278.58 342.97 278.76 C 354.99 279.11 367.05 278.25 379.04 279.44 C 398.03 279.79 417.03 279.45 436.03 279.59 C 443.17 279.78 450.08 281.92 457.19 282.47 C 459.89 282.61 463.13 282.41 464.98 280.15 C 467.02 273.97 466.24 267.35 466.83 260.97 C 467.19 256.45 468.72 252.16 469.60 247.74 C 471.08 240.58 470.72 233.21 471.75 226.00 C 472.44 221.24 474.08 216.68 474.72 211.91 C 475.62 206.32 475.42 200.62 476.06 195.00 C 476.71 189.12 478.89 183.52 479.47 177.62 C 480.08 171.10 480.22 164.52 479.76 157.99 C 479.51 153.08 477.42 148.56 476.09 143.90 C 472.97 132.69 465.88 123.20 458.83 114.16 C 453.21 107.36 448.56 99.82 442.91 93.03 C 438.51 87.74 434.83 81.90 430.36 76.65 C 424.50 69.77 419.50 62.21 413.70 55.28 C 411.68 53.10 409.47 50.49 406.29 50.25 C 403.10 52.38 403.55 56.62 403.34 59.95 C 403.46 68.03 399.86 75.54 399.56 83.58 C 399.24 90.40 398.50 97.19 397.93 103.99 C 397.41 110.64 400.00 117.50 405.29 121.70 C 409.94 126.25 416.77 126.40 422.67 128.19 C 429.92 130.30 437.52 130.04 444.93 131.00 C 451.85 131.63 452.49 143.31 445.80 144.83 C 440.35 145.08 435.16 142.89 429.78 142.37 C 423.09 141.21 415.99 142.17 409.63 139.41 C 403.16 136.68 396.42 133.67 391.91 128.06 C 388.45 123.52 386.07 118.19 384.32 112.78 C 382.39 102.80 384.83 92.67 386.70 82.87 C 388.53 73.50 387.63 63.76 390.36 54.55 C 391.57 49.16 393.43 43.46 392.10 37.94 C 386.46 31.44 377.23 31.03 369.54 28.55 C 362.60 26.13 355.19 26.59 347.99 25.86 C 342.18 25.33 336.69 23.16 330.92 22.42 C 323.10 21.13 315.03 21.98 307.34 19.81 C 298.96 17.41 290.21 17.20 281.59 16.46 C 276.54 16.04 271.45 15.93 266.40 16.40 M 249.41 96.55 C 244.30 97.10 239.39 98.77 234.29 99.41 C 225.22 100.55 215.94 99.95 207.02 102.20 C 194.94 105.79 182.05 103.73 169.90 107.04 C 158.63 110.47 146.62 108.44 135.26 111.38 C 124.76 114.32 113.74 113.42 103.04 115.12 C 98.31 115.85 93.77 117.52 89.00 118.01 C 83.93 118.60 78.62 117.91 73.80 119.95 C 63.84 124.02 54.24 130.29 48.76 139.83 C 44.35 145.64 43.50 153.04 41.90 159.94 C 40.29 167.09 44.25 173.89 44.24 181.02 C 44.74 185.01 43.92 189.90 46.97 193.04 C 52.61 195.32 58.23 191.12 63.95 191.16 C 86.63 190.87 109.32 191.27 132.00 190.95 C 137.84 190.76 143.59 191.94 149.13 193.69 C 161.03 196.24 172.24 202.54 180.14 211.85 C 187.99 222.11 194.91 233.06 202.49 243.52 C 207.48 250.44 211.86 257.98 218.42 263.59 C 225.35 269.79 233.62 274.39 242.43 277.31 C 248.84 278.72 255.46 278.96 262.00 279.34 C 279.35 279.42 296.70 279.29 314.04 279.41 C 316.74 279.24 320.42 279.51 321.81 276.63 C 323.41 273.46 322.21 269.84 321.53 266.59 C 318.38 255.11 319.76 243.01 317.36 231.40 C 316.18 225.97 314.72 220.56 314.67 214.97 C 314.56 206.66 313.59 198.36 311.68 190.26 C 309.12 179.64 310.45 168.55 308.00 157.91 C 306.55 151.91 305.49 145.80 305.44 139.60 C 305.39 132.18 302.47 125.21 299.16 118.71 C 292.42 106.96 280.25 98.62 266.93 96.34 C 261.11 95.80 255.23 96.06 249.41 96.55 Z" />
<path fill="#15346e" opacity="0.71" d=" M 226.15 21.26 C 231.43 14.35 238.89 9.21 246.82 5.77 L 248.08 5.85 C 244.91 10.24 239.66 12.18 235.66 15.64 C 226.86 23.18 220.16 33.43 217.78 44.84 C 216.24 53.28 213.51 61.52 213.17 70.15 C 212.66 75.33 212.99 80.87 210.61 85.65 C 208.73 88.95 204.35 88.58 201.11 89.16 C 192.98 89.73 185.20 92.38 177.10 93.11 C 171.79 93.66 166.42 93.55 161.12 94.22 C 156.01 94.83 151.04 96.24 145.95 96.99 C 138.69 98.11 131.31 97.94 124.03 98.93 C 119.26 99.57 114.60 100.88 109.85 101.63 C 101.05 103.13 92.00 102.27 83.27 104.30 C 74.27 106.47 64.73 107.60 56.86 112.87 C 42.65 120.50 33.50 135.23 29.72 150.57 C 28.25 159.22 28.91 168.06 29.37 176.77 C 29.70 183.90 33.15 190.60 32.70 197.79 C 32.52 201.15 29.61 203.28 27.35 205.36 C 18.00 213.15 11.25 223.73 7.08 235.09 C 5.84 238.59 5.54 242.33 5.50 246.01 C 5.57 276.04 5.60 306.08 5.46 336.09 C 5.35 341.30 13.44 343.35 16.20 339.16 C 17.43 336.29 17.23 333.07 17.33 330.01 C 17.17 305.00 17.34 279.98 17.42 254.97 C 17.49 252.06 17.87 249.16 18.60 246.35 C 20.74 238.41 23.42 230.28 29.09 224.10 C 38.13 213.27 51.52 205.14 65.95 205.38 C 86.63 205.43 107.32 205.43 128.00 205.39 C 134.38 205.43 140.97 204.85 147.11 206.96 C 155.34 209.85 163.22 214.35 168.84 221.16 C 178.10 232.15 185.29 244.66 193.71 256.26 C 200.58 266.47 208.96 276.00 219.63 282.34 C 227.26 287.22 236.06 289.59 244.65 292.18 C 250.94 293.98 257.54 293.35 264.00 293.40 C 325.34 293.41 386.67 293.40 448.01 293.41 C 452.35 293.23 456.45 294.77 460.12 296.98 C 452.56 295.11 444.73 295.15 437.00 295.31 C 382.67 295.35 328.33 295.30 274.00 295.34 C 261.60 295.25 249.03 295.24 236.98 291.93 C 227.89 289.96 219.86 284.94 212.46 279.50 C 204.99 274.00 199.36 266.53 193.74 259.26 C 184.33 246.91 177.04 233.01 166.70 221.36 C 161.92 215.80 155.33 212.24 148.71 209.34 C 142.52 206.60 135.61 206.95 129.00 206.84 C 110.33 206.92 91.67 206.68 73.00 207.10 C 66.40 207.32 59.41 206.38 53.22 209.29 C 47.26 212.08 40.95 214.51 36.02 219.02 C 30.18 224.17 25.29 230.62 23.06 238.16 C 20.08 248.20 19.80 258.75 19.42 269.14 C 18.39 291.45 19.21 313.79 18.72 336.12 C 18.66 338.83 18.21 342.12 15.42 343.40 C 10.80 346.31 4.65 342.38 3.66 337.44 C 2.58 332.03 3.23 326.48 3.16 321.00 C 3.17 298.66 3.21 276.33 3.13 253.99 C 3.13 245.26 4.08 236.22 8.27 228.41 C 10.31 224.59 12.08 220.63 13.59 216.57 C 16.51 211.92 20.40 208.00 24.55 204.45 C 26.11 202.83 28.48 201.41 28.56 198.92 C 29.08 192.56 27.35 186.31 27.31 179.96 C 26.33 170.99 26.05 161.95 26.55 152.94 C 27.25 142.44 32.95 133.18 38.85 124.78 C 48.47 111.75 63.83 104.39 79.29 100.87 C 84.84 100.25 90.47 100.92 96.00 99.96 C 101.03 99.15 106.11 99.67 111.17 99.93 C 109.03 99.22 106.80 98.84 104.63 98.22 C 112.76 97.35 120.91 96.72 129.07 96.19 C 135.37 95.41 141.63 93.74 148.03 94.66 C 146.27 94.31 144.53 93.94 142.79 93.56 C 150.92 92.06 159.19 91.68 167.42 91.15 C 177.91 89.50 188.40 87.61 199.04 87.41 C 202.36 87.28 206.78 87.19 208.20 83.51 C 211.09 76.75 211.38 69.22 211.42 61.97 C 211.29 55.36 214.00 49.22 215.35 42.85 C 216.93 34.81 221.71 27.97 226.15 21.26 Z" />
<path fill="#15346e" opacity="0.71" d=" M 266.40 16.40 C 271.45 15.93 276.54 16.04 281.59 16.46 C 290.21 17.20 298.96 17.41 307.34 19.81 C 315.03 21.98 323.10 21.13 330.92 22.42 C 336.69 23.16 342.18 25.33 347.99 25.86 C 355.19 26.59 362.60 26.13 369.54 28.55 C 377.23 31.03 386.46 31.44 392.10 37.94 C 393.43 43.46 391.57 49.16 390.36 54.55 C 387.63 63.76 388.53 73.50 386.70 82.87 C 384.83 92.67 382.39 102.80 384.32 112.78 C 386.07 118.19 388.45 123.52 391.91 128.06 C 396.42 133.67 403.16 136.68 409.63 139.41 C 415.99 142.17 423.09 141.21 429.78 142.37 C 435.16 142.89 440.35 145.08 445.80 144.83 C 452.49 143.31 451.85 131.63 444.93 131.00 C 437.52 130.04 429.92 130.30 422.67 128.19 C 416.77 126.40 409.94 126.25 405.29 121.70 C 400.00 117.50 397.41 110.64 397.93 103.99 C 398.50 97.19 399.24 90.40 399.56 83.58 C 399.86 75.54 403.46 68.03 403.34 59.95 C 403.55 56.62 403.10 52.38 406.29 50.25 C 409.47 50.49 411.68 53.10 413.70 55.28 C 419.50 62.21 424.50 69.77 430.36 76.65 C 434.83 81.90 438.51 87.74 442.91 93.03 C 448.56 99.82 453.21 107.36 458.83 114.16 C 465.88 123.20 472.97 132.69 476.09 143.90 C 477.42 148.56 479.51 153.08 479.76 157.99 C 480.22 164.52 480.08 171.10 479.47 177.62 C 478.89 183.52 476.71 189.12 476.06 195.00 C 475.42 200.62 475.62 206.32 474.72 211.91 C 474.08 216.68 472.44 221.24 471.75 226.00 C 470.72 233.21 471.08 240.58 469.60 247.74 C 468.72 252.16 467.19 256.45 466.83 260.97 C 466.24 267.35 467.02 273.97 464.98 280.15 C 463.13 282.41 459.89 282.61 457.19 282.47 C 450.08 281.92 443.17 279.78 436.03 279.59 C 417.03 279.45 398.03 279.79 379.04 279.44 C 367.05 278.25 354.99 279.11 342.97 278.76 C 340.20 278.58 336.23 277.89 335.65 274.62 C 333.80 265.63 335.34 256.24 332.70 247.37 C 329.36 236.09 331.16 224.11 328.33 212.75 C 326.25 204.32 325.47 195.64 325.29 186.98 C 325.16 179.91 322.47 173.25 321.75 166.26 C 321.17 160.82 320.89 155.35 320.53 149.88 C 320.16 142.25 317.43 135.01 316.74 127.41 C 316.24 120.57 312.58 114.63 309.20 108.86 C 303.42 99.03 294.11 91.49 283.57 87.26 C 276.94 83.77 269.32 83.46 262.03 82.80 C 250.78 82.65 239.60 85.83 228.34 84.52 C 225.22 84.04 225.27 80.16 225.81 77.78 C 227.26 71.52 228.48 65.20 228.76 58.76 C 229.06 51.66 231.84 45.01 234.73 38.62 C 238.98 30.85 245.66 24.49 253.51 20.41 C 257.42 18.07 261.84 16.66 266.40 16.40 M 261.35 20.42 C 255.50 22.86 249.44 25.36 244.88 29.92 C 240.53 34.22 236.18 38.97 234.42 44.98 C 232.47 51.14 230.38 57.43 230.59 63.98 C 230.85 69.95 229.59 75.81 229.31 81.74 C 235.54 83.35 241.78 81.10 247.99 80.54 C 253.98 80.05 259.99 80.21 266.00 80.21 C 269.13 80.28 272.59 80.09 275.21 82.12 C 281.49 81.96 286.73 85.69 292.08 88.43 C 299.23 92.88 305.48 98.76 310.48 105.53 C 311.36 109.04 312.89 112.33 314.63 115.49 C 317.76 120.96 318.22 127.37 319.74 133.38 C 321.66 141.30 321.91 149.46 322.61 157.55 C 323.24 165.44 325.53 173.10 326.14 181.00 C 326.86 189.65 327.41 198.35 329.27 206.86 C 331.58 217.45 330.87 228.42 333.14 239.02 C 335.11 248.61 335.82 258.39 336.71 268.12 C 337.10 270.79 337.17 273.83 339.04 275.96 C 340.81 277.80 343.60 277.55 345.94 277.69 C 371.29 277.51 396.64 277.73 422.00 277.67 C 430.61 277.80 439.35 276.98 447.83 278.90 C 451.76 279.64 455.72 280.93 459.77 280.50 C 461.68 280.35 463.36 278.98 463.82 277.10 C 466.10 269.85 465.12 262.12 466.40 254.71 C 468.75 243.16 469.65 231.39 471.37 219.75 C 471.87 211.69 474.88 203.74 473.39 195.62 C 473.88 182.98 478.24 170.59 476.19 157.87 C 474.68 150.77 473.61 143.43 470.09 136.97 C 465.11 124.85 456.95 114.43 448.30 104.73 C 443.35 98.89 439.12 92.48 434.59 86.33 C 426.91 77.30 419.76 67.84 412.40 58.57 C 411.08 57.05 409.46 55.84 407.90 54.60 C 404.65 60.88 406.06 68.06 404.76 74.77 C 403.74 82.21 401.73 89.50 401.28 97.02 C 400.60 102.51 399.65 108.50 402.45 113.59 C 405.74 119.11 411.40 123.56 417.99 124.02 C 427.56 124.92 436.96 127.00 446.43 128.60 C 451.08 129.17 453.49 133.90 454.43 137.99 C 453.61 141.59 451.89 145.64 448.41 147.37 C 439.27 148.56 430.22 146.30 421.28 144.74 C 416.29 143.82 411.05 143.73 406.38 141.58 C 401.76 139.46 397.11 137.15 393.39 133.63 C 388.85 129.64 385.69 124.38 383.13 118.97 C 380.67 114.01 381.55 108.34 381.43 103.02 C 381.31 94.26 382.04 85.48 383.82 76.90 C 385.39 69.67 386.16 62.30 386.68 54.93 C 387.19 49.40 389.28 44.07 389.10 38.46 C 383.86 36.47 378.92 33.49 373.29 32.70 C 363.82 31.44 354.61 28.50 345.01 28.28 C 333.46 27.59 322.32 23.90 310.74 23.46 C 303.09 23.06 295.64 21.17 288.13 19.87 C 279.27 18.94 269.96 17.18 261.35 20.42 Z" />
<path fill="#15346e" opacity="0.71" d=" M 249.41 96.55 C 255.23 96.06 261.11 95.80 266.93 96.34 C 280.25 98.62 292.42 106.96 299.16 118.71 C 302.47 125.21 305.39 132.18 305.44 139.60 C 305.49 145.80 306.55 151.91 308.00 157.91 C 310.45 168.55 309.12 179.64 311.68 190.26 C 313.59 198.36 314.56 206.66 314.67 214.97 C 314.72 220.56 316.18 225.97 317.36 231.40 C 319.76 243.01 318.38 255.11 321.53 266.59 C 322.21 269.84 323.41 273.46 321.81 276.63 C 320.42 279.51 316.74 279.24 314.04 279.41 C 296.70 279.29 279.35 279.42 262.00 279.34 C 255.46 278.96 248.84 278.72 242.43 277.31 C 233.62 274.39 225.35 269.79 218.42 263.59 C 211.86 257.98 207.48 250.44 202.49 243.52 C 194.91 233.06 187.99 222.11 180.14 211.85 C 172.24 202.54 161.03 196.24 149.13 193.69 C 143.59 191.94 137.84 190.76 132.00 190.95 C 109.32 191.27 86.63 190.87 63.95 191.16 C 58.23 191.12 52.61 195.32 46.97 193.04 C 43.92 189.90 44.74 185.01 44.24 181.02 C 44.25 173.89 40.29 167.09 41.90 159.94 C 43.50 153.04 44.35 145.64 48.76 139.83 C 54.24 130.29 63.84 124.02 73.80 119.95 C 78.62 117.91 83.93 118.60 89.00 118.01 C 93.77 117.52 98.31 115.85 103.04 115.12 C 113.74 113.42 124.76 114.32 135.26 111.38 C 146.62 108.44 158.63 110.47 169.90 107.04 C 182.05 103.73 194.94 105.79 207.02 102.20 C 215.94 99.95 225.22 100.55 234.29 99.41 C 239.39 98.77 244.30 97.10 249.41 96.55 M 249.37 98.68 C 242.28 99.92 235.13 100.70 227.95 101.11 C 218.86 101.66 210.04 104.19 200.98 104.97 C 192.87 105.72 184.72 106.15 176.74 107.87 C 166.41 110.09 155.77 109.80 145.39 111.59 C 133.17 114.51 120.55 114.31 108.22 116.43 C 100.92 117.89 93.54 118.88 86.10 119.31 C 79.07 119.68 72.33 122.06 66.08 125.17 C 59.18 128.71 54.74 135.36 50.44 141.55 C 43.65 151.61 44.24 164.45 45.80 175.96 C 46.64 180.69 45.46 186.58 49.13 190.26 C 53.76 190.60 58.33 189.28 62.97 189.36 C 85.31 189.42 107.65 189.39 130.00 189.39 C 135.37 189.44 140.83 188.94 146.12 190.13 C 154.91 192.34 163.37 196.01 170.73 201.32 C 179.67 208.06 186.49 217.08 192.47 226.43 C 201.41 238.78 209.32 252.01 220.03 262.96 C 229.94 271.49 242.69 277.80 256.02 277.40 C 275.02 277.43 294.02 277.33 313.02 277.46 C 315.33 277.26 318.11 277.60 319.94 275.88 C 321.39 274.47 320.67 272.31 320.49 270.57 C 318.08 258.63 317.18 246.46 314.87 234.51 C 313.22 226.17 313.44 217.60 312.08 209.22 C 310.67 200.19 308.90 191.20 308.47 182.06 C 308.07 172.82 305.69 163.83 304.75 154.66 C 303.89 141.42 302.15 127.69 295.07 116.15 C 291.94 110.08 286.23 105.99 280.53 102.54 C 271.00 97.57 259.82 97.16 249.37 98.68 Z" />
<path fill="#0f234d" opacity="0.49" d=" M 249.37 98.68 C 259.82 97.16 271.00 97.57 280.53 102.54 C 286.23 105.99 291.94 110.08 295.07 116.15 C 302.15 127.69 303.89 141.42 304.75 154.66 C 305.69 163.83 308.07 172.82 308.47 182.06 C 308.90 191.20 310.67 200.19 312.08 209.22 C 313.44 217.60 313.22 226.17 314.87 234.51 C 317.18 246.46 318.08 258.63 320.49 270.57 C 320.67 272.31 321.39 274.47 319.94 275.88 C 318.11 277.60 315.33 277.26 313.02 277.46 C 294.02 277.33 275.02 277.43 256.02 277.40 C 242.69 277.80 229.94 271.49 220.03 262.96 C 209.32 252.01 201.41 238.78 192.47 226.43 C 186.49 217.08 179.67 208.06 170.73 201.32 C 163.37 196.01 154.91 192.34 146.12 190.13 C 140.83 188.94 135.37 189.44 130.00 189.39 C 107.65 189.39 85.31 189.42 62.97 189.36 C 58.33 189.28 53.76 190.60 49.13 190.26 C 45.46 186.58 46.64 180.69 45.80 175.96 C 44.24 164.45 43.65 151.61 50.44 141.55 C 54.74 135.36 59.18 128.71 66.08 125.17 C 72.33 122.06 79.07 119.68 86.10 119.31 C 93.54 118.88 100.92 117.89 108.22 116.43 C 120.55 114.31 133.17 114.51 145.39 111.59 C 155.77 109.80 166.41 110.09 176.74 107.87 C 184.72 106.15 192.87 105.72 200.98 104.97 C 210.04 104.19 218.86 101.66 227.95 101.11 C 235.13 100.70 242.28 99.92 249.37 98.68 M 251.38 101.22 C 242.80 102.66 233.97 102.02 225.51 104.21 C 216.17 106.49 206.53 107.19 196.96 107.54 C 191.20 107.89 185.75 110.12 180.00 110.57 C 171.20 111.82 162.21 111.29 153.52 113.36 C 144.22 115.86 134.53 116.16 124.97 116.64 C 118.95 117.14 113.23 119.33 107.22 119.93 C 101.17 120.57 95.10 121.13 89.02 121.42 C 82.79 121.59 76.97 124.08 71.11 125.93 C 61.16 129.95 52.95 138.15 49.06 148.18 C 44.60 158.32 47.36 169.46 47.55 180.06 C 47.66 183.00 48.28 186.55 51.19 188.01 C 54.79 188.14 58.37 187.49 61.98 187.54 C 88.00 187.55 114.02 187.55 140.05 187.54 C 144.12 187.51 148.25 187.91 152.11 189.29 C 164.65 194.02 176.58 201.34 184.75 212.16 C 193.63 224.06 201.92 236.39 210.37 248.60 C 216.33 255.98 222.87 263.23 231.23 267.93 C 235.43 270.50 240.30 271.53 244.84 273.33 C 248.38 274.76 252.15 275.61 255.98 275.51 C 274.33 275.52 292.68 275.44 311.03 275.55 C 313.20 275.39 315.84 275.87 317.40 273.95 C 317.35 268.95 316.21 264.02 316.49 259.00 C 316.81 250.82 314.25 242.97 313.17 234.94 C 311.83 225.69 311.96 216.25 310.04 207.08 C 308.51 199.81 307.70 192.40 307.44 184.98 C 307.23 178.42 305.77 172.01 304.54 165.59 C 302.81 156.83 303.44 147.75 301.16 139.08 C 300.17 135.36 299.28 131.62 298.40 127.87 C 296.74 119.76 290.47 113.74 284.49 108.50 C 275.50 100.67 262.71 99.70 251.38 101.22 Z" />
<path fill="#0f234d" opacity="0.49" d=" M 310.48 105.53 C 315.48 111.46 318.31 118.78 320.16 126.22 C 323.51 136.74 322.59 147.93 324.70 158.67 C 326.13 166.01 327.40 173.41 327.66 180.90 C 328.21 193.07 331.76 204.85 332.35 217.01 C 332.66 225.61 334.52 234.03 335.86 242.50 C 337.42 252.21 337.12 262.18 339.51 271.76 C 340.08 273.17 340.19 275.62 342.27 275.38 C 347.16 275.89 352.09 275.52 357.00 275.57 C 377.67 275.55 398.33 275.63 419.00 275.60 C 430.29 275.72 441.67 274.95 452.85 277.02 C 455.56 277.16 459.71 278.60 461.16 275.38 C 463.96 269.33 464.31 262.53 464.48 255.97 C 464.57 246.15 468.29 236.81 468.57 227.00 C 469.01 216.38 471.76 206.08 473.39 195.62 C 474.88 203.74 471.87 211.69 471.37 219.75 C 469.65 231.39 468.75 243.16 466.40 254.71 C 465.12 262.12 466.10 269.85 463.82 277.10 C 463.36 278.98 461.68 280.35 459.77 280.50 C 455.72 280.93 451.76 279.64 447.83 278.90 C 439.35 276.98 430.61 277.80 422.00 277.67 C 396.64 277.73 371.29 277.51 345.94 277.69 C 343.60 277.55 340.81 277.80 339.04 275.96 C 337.17 273.83 337.10 270.79 336.71 268.12 C 335.82 258.39 335.11 248.61 333.14 239.02 C 330.87 228.42 331.58 217.45 329.27 206.86 C 327.41 198.35 326.86 189.65 326.14 181.00 C 325.53 173.10 323.24 165.44 322.61 157.55 C 321.91 149.46 321.66 141.30 319.74 133.38 C 318.22 127.37 317.76 120.96 314.63 115.49 C 312.89 112.33 311.36 109.04 310.48 105.53 Z" />
<path fill="#15346e" opacity="0.71" d=" M 491.47 193.47 L 491.62 192.60 C 491.73 198.41 491.26 204.21 489.95 209.88 C 487.39 221.14 487.58 232.80 485.13 244.07 C 482.72 255.07 483.01 266.45 480.36 277.40 C 479.77 281.47 477.87 286.49 481.09 289.94 C 486.49 296.11 493.93 300.51 498.05 307.77 C 500.46 312.56 502.23 317.65 504.28 322.61 C 506.97 329.02 506.03 336.81 511.00 342.22 L 511.00 530.98 C 507.16 537.45 506.98 545.07 505.04 552.15 C 505.08 551.32 505.17 549.67 505.21 548.84 C 505.64 542.22 506.47 535.63 506.48 529.00 C 506.47 472.33 506.48 415.67 506.48 359.00 C 506.44 348.47 506.98 337.76 504.43 327.45 C 499.93 312.30 490.65 298.41 477.42 289.55 C 477.36 285.46 477.16 281.35 477.67 277.29 C 478.33 271.34 480.99 265.83 481.65 259.88 C 482.37 254.66 482.02 249.37 482.61 244.14 C 483.10 239.59 484.90 235.33 485.73 230.86 C 486.74 225.65 486.49 220.32 487.15 215.08 C 487.96 207.76 490.14 200.69 491.47 193.47 Z" />
<path fill="#0f234d" opacity="0.49" d=" M 53.22 209.29 C 59.41 206.38 66.40 207.32 73.00 207.10 C 91.67 206.68 110.33 206.92 129.00 206.84 C 135.61 206.95 142.52 206.60 148.71 209.34 C 155.33 212.24 161.92 215.80 166.70 221.36 C 177.04 233.01 184.33 246.91 193.74 259.26 C 199.36 266.53 204.99 274.00 212.46 279.50 C 219.86 284.94 227.89 289.96 236.98 291.93 C 249.03 295.24 261.60 295.25 274.00 295.34 C 328.33 295.30 382.67 295.35 437.00 295.31 C 444.73 295.15 452.56 295.11 460.12 296.98 C 470.51 301.78 480.02 309.19 485.61 319.35 C 490.74 327.94 491.95 338.18 492.28 348.00 C 492.28 405.67 492.26 463.33 492.29 521.00 C 492.46 530.04 492.03 539.17 489.90 547.99 C 487.42 560.89 478.58 571.38 469.31 580.20 C 461.11 588.11 450.15 592.59 439.06 594.52 C 430.05 594.94 421.02 594.55 412.00 594.68 C 302.67 594.68 193.33 594.68 84.00 594.68 C 77.87 594.59 71.54 595.35 65.64 593.26 C 60.18 591.44 54.49 589.84 49.80 586.36 C 43.81 582.05 38.58 576.77 33.46 571.49 C 25.02 561.27 19.69 548.37 19.49 535.03 C 19.47 482.00 19.37 428.96 19.42 375.93 C 19.59 372.50 18.15 369.31 16.23 366.57 C 13.35 365.37 9.88 364.41 7.01 366.18 C 3.64 368.12 3.19 372.42 3.09 375.93 C 3.27 423.95 3.11 471.98 3.18 520.00 C 3.29 529.72 2.43 539.58 4.61 549.15 C 7.06 561.30 13.16 572.26 19.64 582.67 C 23.20 588.25 28.28 592.72 33.95 596.08 C 42.39 601.08 50.94 606.49 60.73 608.35 C 64.33 608.88 67.54 610.62 70.26 613.00 L 59.69 613.00 C 54.14 608.72 47.19 607.14 41.25 603.58 C 27.23 595.56 15.47 583.34 8.62 568.65 C 5.29 562.46 4.35 555.18 0.00 549.52 L 0.00 369.54 C 3.55 366.82 7.04 362.83 11.95 363.21 C 16.13 363.01 19.34 366.29 21.38 369.58 C 24.21 374.20 23.32 379.85 23.43 385.01 C 23.27 434.00 23.47 483.00 23.39 532.00 C 23.41 539.29 22.97 546.93 26.12 553.72 C 29.45 561.02 33.30 568.27 38.94 574.06 C 50.06 585.10 65.34 591.68 80.97 592.45 C 194.31 592.42 307.66 592.40 421.00 592.46 C 435.11 592.95 449.83 590.55 461.91 582.87 C 469.59 578.07 476.00 571.27 480.30 563.30 C 483.27 557.72 486.26 551.98 487.34 545.69 C 488.23 540.85 488.53 535.93 488.52 531.02 C 488.50 472.35 488.51 413.67 488.52 355.00 C 488.38 345.90 489.35 336.46 486.13 327.74 C 481.43 316.25 472.79 305.88 461.06 301.19 C 454.61 299.03 447.83 297.72 441.03 297.53 C 387.68 297.60 334.34 297.54 281.00 297.56 C 268.51 297.83 256.02 297.20 243.59 296.06 C 236.91 294.87 230.64 292.10 224.46 289.42 C 212.82 283.87 203.16 274.84 195.33 264.71 C 186.64 254.44 180.48 242.37 172.31 231.71 C 166.97 224.81 161.50 217.24 153.16 213.80 C 145.78 210.90 138.05 208.25 130.01 208.52 C 110.66 208.86 91.28 207.96 71.97 209.34 C 62.47 208.80 52.93 211.00 44.53 215.43 C 38.01 218.98 32.91 224.60 28.69 230.62 C 26.50 233.73 24.63 237.16 24.03 240.96 C 22.37 251.52 22.69 262.24 21.68 272.86 C 20.85 292.58 21.83 312.33 21.16 332.06 C 20.74 336.86 20.47 343.19 15.38 345.48 C 9.74 348.10 4.67 342.91 0.00 340.45 L 0.00 244.13 C 2.00 240.84 3.57 237.31 4.50 233.57 C 6.14 227.26 9.71 221.72 13.59 216.57 C 12.08 220.63 10.31 224.59 8.27 228.41 C 4.08 236.22 3.13 245.26 3.13 253.99 C 3.21 276.33 3.17 298.66 3.16 321.00 C 3.23 326.48 2.58 332.03 3.66 337.44 C 4.65 342.38 10.80 346.31 15.42 343.40 C 18.21 342.12 18.66 338.83 18.72 336.12 C 19.21 313.79 18.39 291.45 19.42 269.14 C 19.80 258.75 20.08 248.20 23.06 238.16 C 25.29 230.62 30.18 224.17 36.02 219.02 C 40.95 214.51 47.26 212.08 53.22 209.29 Z" />
<path fill="#15346e" opacity="0.71" d=" M 7.01 366.18 C 9.88 364.41 13.35 365.37 16.23 366.57 C 12.71 366.71 7.86 366.01 5.96 369.83 C 4.34 374.69 5.30 379.96 5.15 384.99 C 5.20 432.00 5.16 479.00 5.17 526.00 C 5.21 532.48 4.93 538.98 5.45 545.45 C 5.94 551.96 8.60 557.99 11.09 563.93 C 18.25 581.14 32.23 595.40 49.29 602.91 C 56.75 606.65 65.06 607.97 73.16 609.61 C 73.46 610.73 73.76 611.86 74.06 613.00 L 70.26 613.00 C 67.54 610.62 64.33 608.88 60.73 608.35 C 50.94 606.49 42.39 601.08 33.95 596.08 C 28.28 592.72 23.20 588.25 19.64 582.67 C 13.16 572.26 7.06 561.30 4.61 549.15 C 2.43 539.58 3.29 529.72 3.18 520.00 C 3.11 471.98 3.27 423.95 3.09 375.93 C 3.19 372.42 3.64 368.12 7.01 366.18 Z" />
<path fill="#0f234d" opacity="0.49" d=" M 297.46 440.71 C 316.30 440.16 335.16 440.66 354.00 440.49 C 364.34 440.68 374.71 440.01 385.03 440.98 C 399.32 441.58 411.46 453.15 415.16 466.58 C 415.81 472.53 415.83 478.62 415.22 484.58 C 412.59 493.80 406.48 502.25 397.84 506.68 C 392.60 509.14 386.85 510.72 381.04 510.71 C 353.69 510.68 326.33 510.65 298.98 510.72 C 292.99 510.77 287.03 509.46 281.47 507.28 C 273.38 503.04 267.05 495.54 264.29 486.82 C 260.16 476.47 262.79 464.67 268.51 455.47 C 272.36 449.73 278.08 445.42 284.29 442.53 C 288.50 441.01 293.08 441.28 297.46 440.71 M 292.40 443.69 C 289.06 444.20 285.94 445.58 282.89 446.98 C 273.31 450.96 267.03 461.04 266.54 471.26 C 265.93 479.83 266.51 489.63 272.83 496.15 C 277.34 500.76 282.45 505.88 289.24 506.44 C 299.11 507.72 309.07 507.25 319.00 507.32 C 336.00 507.33 353.00 507.31 370.00 507.33 C 377.41 507.42 384.88 507.24 392.19 505.97 C 400.23 503.30 407.07 497.01 410.08 489.02 C 414.20 481.11 414.15 471.48 410.59 463.38 C 408.10 456.91 403.68 450.84 397.26 447.87 C 392.45 445.66 387.45 443.26 382.03 443.42 C 365.35 443.43 348.68 443.43 332.00 443.43 C 318.80 443.62 305.58 443.04 292.40 443.69 Z" />
<path fill="#1e499c" opacity="1.00" d=" M 292.40 443.69 C 305.58 443.04 318.80 443.62 332.00 443.43 C 348.68 443.43 365.35 443.43 382.03 443.42 C 387.45 443.26 392.45 445.66 397.26 447.87 C 403.68 450.84 408.10 456.91 410.59 463.38 C 414.15 471.48 414.20 481.11 410.08 489.02 C 407.07 497.01 400.23 503.30 392.19 505.97 C 384.88 507.24 377.41 507.42 370.00 507.33 C 353.00 507.31 336.00 507.33 319.00 507.32 C 309.07 507.25 299.11 507.72 289.24 506.44 C 282.45 505.88 277.34 500.76 272.83 496.15 C 266.51 489.63 265.93 479.83 266.54 471.26 C 267.03 461.04 273.31 450.96 282.89 446.98 C 285.94 445.58 289.06 444.20 292.40 443.69 M 296.38 459.50 C 291.32 459.83 286.25 462.18 283.77 466.79 C 276.81 476.39 285.05 492.22 296.96 491.72 C 304.31 491.80 311.65 491.56 319.00 491.71 C 334.30 492.92 349.67 492.13 365.00 492.35 C 371.26 492.11 377.61 493.02 383.79 491.74 C 389.43 490.32 395.05 486.38 396.39 480.43 C 397.42 474.65 396.90 467.88 392.34 463.67 C 388.10 459.34 381.66 459.19 376.01 459.29 C 349.47 459.47 322.91 459.03 296.38 459.50 M 289.91 505.52 C 322.85 505.63 355.80 505.64 388.75 505.52 C 355.82 505.33 322.85 505.35 289.91 505.52 Z" />
<path fill="#20dda5" opacity="1.00" d=" M 296.38 459.50 C 322.91 459.03 349.47 459.47 376.01 459.29 C 381.66 459.19 388.10 459.34 392.34 463.67 C 396.90 467.88 397.42 474.65 396.39 480.43 C 395.05 486.38 389.43 490.32 383.79 491.74 C 377.61 493.02 371.26 492.11 365.00 492.35 C 349.67 492.13 334.30 492.92 319.00 491.71 C 311.65 491.56 304.31 491.80 296.96 491.72 C 285.05 492.22 276.81 476.39 283.77 466.79 C 286.25 462.18 291.32 459.83 296.38 459.50 Z" />
<path fill="#0f234d" opacity="0.49" d=" M 289.91 505.52 C 322.85 505.35 355.82 505.33 388.75 505.52 C 355.80 505.64 322.85 505.63 289.91 505.52 Z" />
<path fill="#0f234d" opacity="0.49" d=" M 505.04 552.15 C 506.98 545.07 507.16 537.45 511.00 530.98 L 511.00 547.29 C 506.60 553.12 506.29 560.74 502.82 567.05 C 493.56 587.67 475.13 603.55 453.69 610.46 C 453.19 611.10 452.18 612.37 451.67 613.00 L 438.75 613.00 C 445.00 607.83 453.57 608.36 460.53 604.69 C 482.52 595.39 499.41 575.33 505.04 552.15 Z" />
<path fill="#183c81" opacity="0.83" d=" M 494.90 572.91 C 499.83 565.57 501.34 556.69 505.21 548.84 C 505.17 549.67 505.08 551.32 505.04 552.15 C 499.41 575.33 482.52 595.39 460.53 604.69 C 453.57 608.36 445.00 607.83 438.75 613.00 L 74.06 613.00 C 73.76 611.86 73.46 610.73 73.16 609.61 C 79.09 610.19 85.05 609.85 91.00 609.89 C 204.35 609.91 317.71 609.88 431.06 609.91 C 442.17 608.72 453.54 606.75 463.55 601.53 C 476.57 595.44 487.24 584.95 494.90 572.91 Z" />
</svg>
