<?xml version="1.0" encoding="UTF-8" ?>
<!DOCTYPE svg PUBLIC "-//W3C//DTD SVG 1.1//EN" "http://www.w3.org/Graphics/SVG/1.1/DTD/svg11.dtd">
<svg width="508pt" height="542pt" viewBox="0 0 508 542" version="1.1" xmlns="http://www.w3.org/2000/svg">
<path fill="#1e479c" opacity="1.00" d=" M 203.73 0.00 L 401.98 0.00 C 406.11 0.80 409.33 4.84 408.55 9.10 C 408.13 13.17 404.13 16.29 400.07 15.84 C 335.68 15.87 271.29 15.77 206.91 15.88 C 195.85 15.86 185.19 22.43 180.32 32.35 C 178.18 36.53 177.22 41.25 177.28 45.93 C 177.31 82.79 177.25 119.65 177.31 156.50 C 206.56 156.46 235.80 156.50 265.05 156.48 C 278.17 156.35 291.21 162.33 299.66 172.37 C 306.77 180.48 310.66 191.24 310.62 202.01 C 310.65 211.89 310.63 221.77 310.61 231.65 C 358.91 231.75 407.21 231.67 455.51 231.69 C 455.48 169.45 455.53 107.20 455.48 44.95 C 455.47 33.03 447.34 21.74 436.14 17.77 C 432.46 16.70 429.63 13.29 429.76 9.39 C 430.25 5.81 433.03 2.08 436.94 2.10 C 441.99 1.88 446.46 4.77 450.63 7.27 C 463.35 15.26 471.44 29.99 471.46 45.01 C 471.47 107.52 471.50 170.04 471.45 232.55 C 484.35 235.55 495.97 243.95 502.16 255.75 C 505.87 262.51 507.61 270.25 507.58 277.94 C 507.58 328.28 507.60 378.62 507.57 428.96 C 507.55 445.70 503.87 462.45 496.54 477.51 C 482.81 506.62 456.06 529.15 425.08 537.84 C 416.96 540.15 408.57 541.35 400.16 542.00 L 239.95 542.00 C 223.07 541.02 207.35 529.85 200.91 514.22 C 198.44 508.49 197.31 502.23 197.34 496.00 C 197.33 486.25 197.35 476.51 197.34 466.77 C 157.89 466.73 118.44 466.75 78.98 466.76 C 75.48 466.68 71.92 467.08 68.47 466.35 C 63.22 464.77 61.39 457.16 65.34 453.40 C 67.19 451.18 70.19 450.72 72.92 450.77 C 114.39 450.79 155.87 450.82 197.35 450.75 C 197.35 424.64 197.32 398.53 197.36 372.42 C 187.44 384.63 175.91 396.41 160.97 402.24 C 151.19 406.29 139.60 407.10 129.91 402.35 C 120.61 398.07 114.08 388.97 111.93 379.07 C 109.41 366.91 112.19 354.09 118.32 343.41 C 121.89 337.32 125.26 330.99 126.81 324.04 C 128.49 316.92 128.24 308.56 123.21 302.78 C 118.39 297.05 110.24 295.35 103.14 296.87 C 93.44 298.98 84.90 305.05 78.79 312.76 C 76.88 315.20 74.36 317.80 70.97 317.51 C 65.09 317.63 61.11 310.28 64.33 305.38 C 72.70 293.88 84.80 284.52 98.92 281.52 C 108.91 279.15 119.87 280.84 128.53 286.41 C 136.04 291.25 141.29 299.30 142.96 308.05 C 145.10 318.94 142.60 330.22 138.08 340.18 C 135.19 346.75 130.79 352.59 128.62 359.48 C 126.56 365.85 125.97 373.05 128.68 379.34 C 131.20 385.33 137.40 389.57 143.92 389.61 C 151.91 389.97 159.32 386.07 165.73 381.69 C 177.74 373.08 186.51 360.85 194.28 348.47 C 195.60 346.16 197.42 343.86 197.33 341.07 C 197.40 319.38 197.27 297.70 197.38 276.01 C 197.52 258.46 209.09 241.81 225.30 235.22 C 231.20 232.71 237.64 231.60 244.04 231.67 C 260.91 231.73 277.77 231.67 294.64 231.71 C 294.63 222.13 294.65 212.55 294.65 202.97 C 294.72 197.76 293.63 192.49 291.08 187.92 C 286.12 178.50 275.66 172.25 265.01 172.43 C 192.01 172.43 119.00 172.43 46.00 172.43 C 38.21 172.29 30.57 175.64 25.03 181.04 C 19.29 186.76 16.15 194.87 16.35 202.96 C 16.37 275.65 16.34 348.35 16.37 421.05 C 16.18 432.45 23.29 443.58 33.75 448.13 C 36.15 449.33 39.13 450.22 40.27 452.92 C 42.79 457.23 39.92 463.32 35.10 464.39 C 31.28 465.25 27.77 463.01 24.49 461.38 C 13.16 455.37 4.61 444.38 1.67 431.88 C 0.08 425.71 0.38 419.29 0.37 412.98 C 0.38 342.66 0.37 272.33 0.38 202.01 C 0.35 191.00 4.43 180.02 11.84 171.85 C 20.28 162.12 33.08 156.36 45.96 156.48 C 84.40 156.47 122.84 156.52 161.29 156.46 C 161.30 119.28 161.28 82.11 161.29 44.94 C 161.30 33.25 166.17 21.68 174.47 13.45 C 182.15 5.58 192.78 0.79 203.73 0.00 M 235.40 248.64 C 222.79 251.71 213.16 263.95 213.35 276.96 C 213.30 349.96 213.33 422.95 213.33 495.95 C 212.94 506.75 219.24 517.19 228.62 522.39 C 233.57 525.22 239.35 526.15 244.99 526.17 C 281.02 526.13 317.04 526.17 353.06 526.15 C 365.76 525.77 379.40 523.78 389.45 515.33 C 398.37 508.04 402.35 496.26 402.49 485.02 C 402.46 478.50 403.29 471.91 405.77 465.85 C 412.26 449.31 429.12 437.08 447.03 437.16 C 458.23 436.96 470.24 434.61 478.49 426.46 C 488.42 416.81 491.36 402.36 491.58 389.01 C 491.66 351.99 491.59 314.98 491.61 277.96 C 491.82 269.17 487.92 260.42 481.19 254.76 C 475.92 250.18 468.94 247.70 461.98 247.64 C 391.30 247.67 320.63 247.65 249.96 247.65 C 245.10 247.69 240.14 247.28 235.40 248.64 M 448.93 452.92 C 437.00 452.64 425.43 460.06 420.90 471.12 C 417.42 478.66 419.18 487.17 417.53 495.10 C 415.79 506.65 410.29 517.51 402.00 525.74 C 427.84 523.95 452.57 510.96 469.04 491.02 C 481.97 475.68 489.84 456.26 491.37 436.26 C 480.48 447.73 464.52 453.10 448.93 452.92 Z" />
<path fill="#1e479c" opacity="1.00" d=" M 332.51 84.51 C 340.91 75.15 353.61 70.37 366.05 70.44 C 377.52 70.93 389.15 75.28 397.00 83.90 C 407.73 94.05 411.62 109.74 409.25 124.05 C 407.26 132.86 403.14 141.31 396.46 147.50 C 388.52 155.67 377.24 159.91 365.99 160.43 C 352.86 160.51 339.71 154.94 331.18 144.85 C 316.20 128.30 316.76 100.36 332.51 84.51 M 358.43 84.78 C 348.99 86.94 340.75 93.66 336.68 102.44 C 333.40 109.08 333.14 116.90 334.98 123.98 C 337.74 133.11 344.77 140.88 353.62 144.47 C 359.06 146.80 365.21 146.99 371.00 146.11 C 385.71 143.43 397.43 128.97 396.35 113.93 C 396.01 102.13 388.00 91.10 377.17 86.61 C 371.36 83.82 364.67 83.97 358.43 84.78 Z" />
<path fill="#20dca5" opacity="1.00" d=" M 358.43 84.78 C 364.67 83.97 371.36 83.82 377.17 86.61 C 388.00 91.10 396.01 102.13 396.35 113.93 C 397.43 128.97 385.71 143.43 371.00 146.11 C 365.21 146.99 359.06 146.80 353.62 144.47 C 344.77 140.88 337.74 133.11 334.98 123.98 C 333.14 116.90 333.40 109.08 336.68 102.44 C 340.75 93.66 348.99 86.94 358.43 84.78 Z" />
<path fill="#1e479c" opacity="1.00" d=" M 62.35 228.39 C 63.73 227.45 65.44 227.59 67.02 227.54 C 87.68 227.59 108.34 227.52 129.00 227.57 C 132.87 227.42 136.76 230.98 136.67 234.93 C 137.39 239.70 132.63 244.05 127.99 243.48 C 107.33 243.45 86.67 243.51 66.02 243.46 C 63.03 243.61 60.24 241.69 58.84 239.12 C 56.99 235.34 58.41 230.21 62.35 228.39 Z" />
<path fill="#1e479c" opacity="1.00" d=" M 264.43 320.48 C 267.95 315.60 274.78 316.78 280.00 316.98 C 284.99 316.63 290.01 316.62 295.00 316.99 C 309.65 316.60 324.35 316.62 339.00 316.98 C 370.65 316.46 402.35 316.92 434.01 316.75 C 437.62 317.35 441.52 319.89 441.64 323.89 C 442.53 328.38 438.65 333.18 434.00 332.71 C 379.65 332.76 325.29 332.75 270.94 332.72 C 264.69 333.39 260.94 325.26 264.43 320.48 Z" />
<path fill="#1e479c" opacity="1.00" d=" M 268.18 386.30 C 270.63 385.31 273.34 385.72 275.92 385.63 C 328.28 385.68 380.64 385.63 433.00 385.66 C 437.56 385.32 442.22 389.30 441.69 394.04 C 441.91 398.61 437.41 402.19 433.01 401.64 C 378.69 401.58 324.36 401.74 270.04 401.56 C 261.98 401.33 260.71 388.67 268.18 386.30 Z" />
</svg>
