<?xml version="1.0" encoding="UTF-8" ?>
<!DOCTYPE svg PUBLIC "-//W3C//DTD SVG 1.1//EN" "http://www.w3.org/Graphics/SVG/1.1/DTD/svg11.dtd">
<svg width="604pt" height="604pt" viewBox="0 0 604 604" version="1.1" xmlns="http://www.w3.org/2000/svg">
<path fill="#1e479c" opacity="1.00" d=" M 238.28 33.28 C 252.90 18.69 270.22 5.10 291.12 1.58 C 298.69 1.31 306.30 1.25 313.87 1.63 C 331.90 4.50 347.71 14.92 360.88 27.13 C 373.15 38.52 384.14 51.19 396.07 62.93 C 398.07 64.73 400.10 66.99 402.96 67.23 C 409.97 67.71 416.99 67.22 423.99 66.72 C 443.88 66.55 464.14 65.38 483.55 70.70 C 499.95 74.79 514.06 85.58 523.98 99.06 C 533.55 112.36 537.42 128.85 538.54 144.96 C 539.10 163.33 538.44 181.70 538.39 200.06 C 538.42 202.42 538.19 205.14 540.14 206.88 C 559.32 227.29 582.98 244.37 596.38 269.56 C 599.63 275.40 601.21 281.95 604.00 288.00 L 604.00 313.51 C 601.22 328.79 593.77 342.93 583.63 354.61 C 570.59 370.20 554.77 383.13 540.87 397.90 C 539.52 399.28 538.26 400.92 538.52 402.98 C 538.42 421.99 538.80 441.00 538.41 460.00 C 537.80 467.29 537.56 474.68 535.54 481.76 C 529.16 504.59 511.83 524.27 489.63 532.81 C 486.84 533.82 483.10 534.59 480.81 532.17 C 477.93 529.07 477.38 524.65 476.16 520.77 C 482.22 517.33 488.54 514.29 494.18 510.16 C 505.44 502.35 514.95 491.05 518.13 477.48 C 520.42 468.50 520.44 459.19 521.27 450.01 C 521.51 445.00 521.26 439.99 520.79 435.00 C 520.43 428.01 520.52 421.00 520.44 414.00 C 520.52 407.46 520.25 400.83 521.76 394.42 C 522.85 391.56 525.02 389.29 526.93 386.95 C 534.50 377.88 543.45 370.12 552.00 362.00 C 563.94 350.70 576.19 338.74 582.28 323.12 C 586.30 313.62 586.24 303.03 585.24 292.94 C 582.44 276.37 571.62 262.56 559.95 251.04 C 547.88 238.77 534.09 228.08 523.69 214.24 C 520.91 210.81 520.97 206.16 520.58 201.99 C 520.24 189.67 520.24 177.30 521.30 165.01 C 521.65 153.61 520.98 142.12 518.70 130.94 C 515.83 118.78 509.37 107.34 499.69 99.31 C 488.26 89.20 472.82 85.16 457.86 84.47 C 437.89 83.81 417.89 85.62 397.94 84.30 C 393.65 84.30 390.39 81.34 387.33 78.74 C 372.85 66.56 361.27 51.43 347.33 38.70 C 335.24 27.70 319.78 18.99 303.00 19.36 C 289.17 18.91 275.82 24.69 265.05 33.05 C 246.57 47.48 233.20 67.32 214.61 81.62 C 212.49 83.39 209.82 84.33 207.06 84.37 C 186.44 85.39 165.79 83.75 145.18 84.67 C 134.71 85.76 123.72 86.93 114.59 92.65 C 102.64 99.91 94.48 111.74 87.43 123.52 C 85.77 126.66 82.11 129.46 78.44 127.94 C 74.14 126.75 70.05 121.95 71.97 117.37 C 79.24 96.63 96.29 79.79 116.74 71.95 C 122.87 69.69 129.37 68.77 135.81 67.91 C 145.90 67.84 155.96 66.42 166.05 67.05 C 176.37 67.67 186.70 67.71 197.03 67.80 C 200.49 67.72 204.58 68.20 207.07 65.23 C 217.70 54.80 227.80 43.86 238.28 33.28 Z" />
<path fill="#1e479c" opacity="1.00" d=" M 295.32 48.17 C 305.15 46.06 316.17 48.37 323.60 55.38 C 342.46 72.51 359.07 91.96 378.08 108.94 C 380.34 110.84 383.18 111.98 386.10 112.37 C 412.71 113.60 439.40 111.61 465.99 113.47 C 475.51 114.63 484.22 120.86 488.72 129.28 C 493.69 138.73 492.24 149.73 492.60 160.00 C 492.96 180.97 491.20 202.06 493.92 222.92 C 494.98 225.65 497.22 227.71 499.04 229.95 C 512.90 245.74 528.86 259.47 543.38 274.61 C 549.17 280.64 555.40 286.96 557.27 295.41 C 558.38 303.70 558.22 312.87 552.84 319.77 C 544.25 330.77 533.83 340.14 524.01 350.00 C 515.42 358.39 506.80 366.78 498.71 375.67 C 497.07 377.73 494.97 379.59 494.10 382.14 C 491.83 395.63 492.49 409.37 492.51 423.00 C 492.60 436.57 492.93 450.17 492.27 463.73 C 491.52 474.45 484.66 484.17 475.21 489.07 C 468.69 492.45 461.17 492.59 453.99 492.59 C 434.99 492.88 415.99 492.20 396.99 492.52 C 392.62 492.56 388.31 493.42 383.96 493.77 C 380.51 493.93 378.17 496.70 375.67 498.72 C 358.44 514.45 342.95 531.97 325.92 547.91 C 321.53 552.03 316.47 555.67 310.56 557.16 C 301.77 558.55 291.94 558.20 284.76 552.26 C 265.63 536.46 250.09 516.88 231.55 500.43 C 228.83 498.10 226.36 495.16 222.90 493.96 C 200.72 491.07 178.30 493.11 156.01 492.58 C 146.41 492.43 135.91 493.18 127.51 487.64 C 119.20 482.44 113.36 473.04 113.37 463.11 C 112.26 450.77 112.70 438.37 112.74 426.00 C 112.67 419.66 113.60 413.34 113.10 407.00 C 112.32 398.56 113.25 389.93 111.18 381.64 C 108.93 377.76 105.59 374.69 102.63 371.38 C 87.08 354.24 69.03 339.52 54.08 321.82 C 44.87 310.90 45.27 293.33 54.78 282.72 C 72.12 263.10 92.46 246.35 109.49 226.44 C 112.06 223.97 111.96 220.17 112.39 216.88 C 112.67 206.59 113.83 196.29 112.84 186.00 C 112.72 170.10 111.87 154.11 113.81 138.28 C 115.69 125.98 125.99 115.65 138.24 113.65 C 157.43 111.72 176.77 112.71 195.99 113.17 C 205.21 112.38 214.57 113.26 223.67 111.28 C 225.19 110.80 226.34 109.59 227.57 108.63 C 246.06 92.83 261.30 73.65 279.70 57.75 C 284.55 54.08 289.10 49.37 295.32 48.17 M 294.37 68.42 C 273.40 86.03 256.82 108.34 235.05 125.05 C 231.43 128.20 226.52 128.72 221.96 129.34 C 218.64 129.68 215.36 130.33 212.03 130.43 C 189.78 131.11 167.51 129.74 145.27 130.70 C 139.69 130.80 134.20 133.65 131.88 138.89 C 129.68 144.33 130.30 150.27 130.23 155.99 C 130.12 173.33 130.41 190.67 130.23 208.01 C 130.27 216.11 128.54 224.06 127.21 232.02 C 110.43 255.97 85.78 272.80 67.64 295.58 C 64.79 298.65 65.38 303.13 65.81 306.94 C 73.84 318.42 84.15 328.10 94.36 337.63 C 105.60 348.73 117.34 359.48 126.64 372.33 C 129.36 376.93 128.97 382.56 130.13 387.65 C 130.56 410.78 129.99 433.92 130.21 457.06 C 130.19 460.13 130.78 463.18 131.82 466.08 C 133.86 470.84 138.70 474.56 143.99 474.54 C 149.09 474.57 154.15 475.25 159.25 475.21 C 159.41 449.13 159.34 423.05 159.29 396.98 C 158.51 390.79 158.85 384.56 158.57 378.35 C 156.04 375.69 152.32 374.69 149.19 372.95 C 143.95 370.36 138.32 366.72 136.67 360.75 C 134.33 349.66 134.02 338.22 134.89 326.94 C 135.93 320.64 135.57 313.29 140.46 308.45 C 146.11 302.94 154.06 301.01 161.17 298.09 C 166.57 276.20 173.11 253.98 186.20 235.31 C 196.60 219.42 210.14 205.87 224.42 193.48 C 241.09 178.66 259.31 165.73 276.13 151.09 C 281.86 146.40 287.55 141.20 294.72 138.85 C 299.02 137.83 303.82 137.92 307.77 140.11 C 318.51 145.59 326.75 154.63 336.26 161.83 C 350.82 173.92 366.15 185.09 380.05 197.96 C 395.99 211.87 409.83 228.32 420.20 246.80 C 426.44 258.49 431.04 271.01 434.40 283.81 C 435.72 288.23 436.44 292.82 437.98 297.17 C 441.14 299.95 445.49 300.74 449.25 302.45 C 455.56 304.72 461.91 309.45 463.15 316.43 C 465.05 330.52 465.52 344.98 462.98 359.02 C 462.26 363.76 459.05 367.69 455.03 370.12 C 450.54 373.46 444.74 374.70 440.56 378.39 C 440.28 410.61 440.52 442.85 440.44 475.08 C 444.95 475.44 449.50 475.37 454.00 474.88 C 458.42 474.37 463.09 474.93 467.27 473.14 C 471.12 471.11 474.09 467.18 474.40 462.77 C 475.52 436.63 473.79 410.44 475.34 384.32 C 475.54 379.71 476.91 375.13 479.27 371.17 C 482.12 366.82 485.90 363.21 489.45 359.44 C 505.31 342.62 523.23 327.73 537.83 309.72 C 540.42 307.13 539.58 303.25 539.67 299.96 C 539.82 297.12 537.32 295.25 535.80 293.17 C 518.01 271.44 494.27 255.18 478.15 232.00 C 477.63 231.06 477.26 230.07 477.05 229.02 C 473.38 209.57 474.49 189.66 475.25 170.01 C 475.27 163.66 475.44 157.30 474.76 150.99 C 474.34 145.80 475.06 139.81 471.35 135.60 C 468.15 131.64 462.77 130.84 458.00 130.56 C 436.34 129.89 414.67 130.98 393.01 130.45 C 389.14 130.40 385.34 129.65 381.52 129.23 C 378.38 128.73 374.99 128.55 372.35 126.57 C 351.27 111.25 335.62 90.05 316.16 72.92 C 312.52 69.38 308.53 65.05 303.00 65.24 C 299.73 64.77 296.66 66.14 294.37 68.42 M 297.57 155.56 C 269.53 178.76 239.13 199.40 214.23 226.17 C 198.29 243.28 187.10 264.56 181.13 287.12 C 178.74 291.24 178.32 296.09 177.99 300.75 C 236.65 301.47 295.33 301.08 354.00 301.17 C 376.36 301.34 398.72 300.85 421.09 300.75 C 421.16 300.19 421.30 299.09 421.37 298.54 C 418.24 287.30 415.62 275.83 410.67 265.20 C 404.72 251.41 396.10 238.97 386.32 227.64 C 361.72 199.90 329.93 180.16 302.61 155.40 C 301.26 153.50 298.99 154.10 297.57 155.56 M 152.60 317.49 C 151.38 327.91 150.92 338.45 151.50 348.92 C 152.06 352.80 153.03 358.88 158.20 358.44 C 170.47 358.51 182.73 359.57 194.99 358.79 C 276.00 358.12 357.02 359.47 438.02 358.27 C 440.87 358.04 444.97 358.50 446.04 355.07 C 448.22 349.38 448.79 343.09 448.01 337.06 C 447.15 330.52 447.59 323.89 446.72 317.35 C 428.48 317.40 410.24 317.18 392.00 317.16 C 367.34 316.51 342.67 316.90 318.00 316.70 C 280.34 316.79 242.66 316.45 205.00 317.17 C 187.54 317.26 170.07 317.32 152.60 317.49 M 175.44 375.40 C 175.41 408.52 175.58 441.65 175.54 474.78 L 176.33 474.74 L 176.33 475.57 C 190.73 475.22 205.17 475.98 219.54 475.17 C 225.56 475.13 231.56 476.80 236.29 480.63 C 257.34 498.21 274.08 520.33 295.45 537.56 C 298.57 540.66 303.53 539.85 307.45 539.31 C 313.95 535.03 319.54 529.51 325.12 524.12 C 338.20 511.23 350.35 497.37 364.16 485.23 C 368.31 482.10 372.07 477.82 377.44 476.91 C 392.66 474.07 408.20 474.58 423.62 474.71 C 423.60 441.59 423.71 408.46 423.68 375.34 C 340.94 375.38 258.19 375.31 175.44 375.40 Z" />
<path fill="#122c62" opacity="0.46" d=" M 193.00 66.55 C 197.71 66.58 202.54 66.77 207.07 65.23 C 204.58 68.20 200.49 67.72 197.03 67.80 C 186.70 67.71 176.37 67.67 166.05 67.05 C 155.96 66.42 145.90 67.84 135.81 67.91 C 139.81 67.05 143.85 66.28 147.96 66.33 C 162.97 66.31 177.99 66.37 193.00 66.55 Z" />
<path fill="#122c62" opacity="0.46" d=" M 130.23 155.99 C 130.30 150.27 129.68 144.33 131.88 138.89 C 130.61 151.56 130.19 164.30 130.81 177.03 C 132.07 191.74 131.79 206.57 130.08 221.24 C 129.56 224.92 128.94 228.67 127.21 232.02 C 128.54 224.06 130.27 216.11 130.23 208.01 C 130.41 190.67 130.12 173.33 130.23 155.99 Z" />
<path fill="#1e479c" opacity="1.00" d=" M 69.99 153.04 C 74.56 149.81 83.48 151.45 83.77 157.96 C 85.26 172.57 84.82 187.31 84.52 201.98 C 84.29 206.29 84.74 211.19 81.66 214.66 C 67.49 232.72 48.30 246.03 33.91 263.90 C 24.90 275.18 18.65 289.33 19.37 304.00 C 19.32 322.19 29.80 338.30 42.05 350.92 C 55.12 364.55 70.34 376.16 81.79 391.30 C 83.43 393.31 84.21 395.83 84.35 398.40 C 84.71 405.26 85.72 412.11 85.27 419.01 C 84.20 430.63 84.36 442.33 84.37 453.99 C 84.65 470.62 88.55 488.26 100.24 500.74 C 111.12 513.20 127.55 519.77 143.86 520.55 C 153.87 521.72 163.98 521.61 174.00 520.66 C 185.34 520.53 196.77 519.78 208.06 521.24 C 212.67 521.45 215.85 525.12 219.13 527.89 C 237.67 543.58 251.88 564.04 272.23 577.64 C 285.34 586.03 301.75 587.38 316.74 584.48 C 331.02 581.38 342.34 571.43 352.51 561.51 C 365.53 548.87 377.19 534.78 391.46 523.46 C 394.64 520.71 399.13 521.36 403.01 520.74 C 418.14 520.08 433.36 520.11 448.42 521.82 C 454.22 523.54 455.32 532.36 450.93 536.08 C 447.92 537.83 444.28 537.82 440.92 538.31 C 428.72 538.97 416.47 538.01 404.27 538.73 C 401.27 538.89 398.98 541.03 396.77 542.81 C 376.45 560.39 360.29 583.12 336.41 596.32 C 330.61 599.63 324.06 601.19 318.04 604.00 L 291.52 604.00 C 275.53 600.97 261.04 592.73 248.89 582.09 C 234.35 569.66 222.23 554.75 208.40 541.59 C 206.63 539.94 204.64 538.09 202.02 538.41 C 183.35 538.29 164.67 539.11 146.00 538.55 C 130.29 537.39 114.13 534.19 100.86 525.23 C 86.26 515.12 74.69 500.11 70.47 482.70 C 65.83 465.18 66.40 446.95 66.61 428.99 C 66.41 420.30 67.96 411.65 67.22 402.97 C 66.96 400.11 64.68 398.11 62.89 396.10 C 53.74 386.59 43.80 377.87 34.53 368.47 C 19.54 353.67 5.55 336.13 1.65 314.88 C 1.20 307.27 1.38 299.63 1.54 292.01 C 3.30 279.46 8.87 267.61 16.47 257.54 C 28.00 241.89 43.19 229.54 56.53 215.53 C 59.69 212.04 63.51 208.88 65.45 204.49 C 69.72 190.66 64.96 176.18 67.30 162.14 C 67.85 159.05 67.97 155.60 69.99 153.04 Z" />
<path fill="#1e479c" opacity="1.00" d=" M 234.48 244.84 C 237.21 244.22 240.72 243.81 242.68 246.30 C 247.21 251.35 246.60 258.68 246.50 264.99 C 246.19 268.56 246.45 272.91 243.51 275.50 C 240.47 278.47 234.60 278.67 231.94 275.11 C 229.97 272.93 230.02 269.74 229.58 267.01 C 229.33 260.20 228.72 252.96 231.75 246.63 C 232.24 245.57 233.51 245.29 234.48 244.84 Z" />
<path fill="#1e479c" opacity="1.00" d=" M 295.39 245.48 C 299.16 243.58 304.15 244.97 306.21 248.70 C 309.60 254.42 308.66 261.41 308.21 267.73 C 307.22 271.08 307.01 276.03 302.96 277.09 C 300.34 277.87 297.08 277.98 294.97 275.97 C 292.18 273.50 291.19 269.63 291.27 266.03 C 291.31 259.93 290.77 253.60 292.87 247.76 C 293.20 246.56 294.25 245.83 295.39 245.48 Z" />
<path fill="#1e479c" opacity="1.00" d=" M 355.44 246.51 C 357.85 245.76 360.30 244.15 362.90 244.79 C 367.13 246.36 369.54 250.70 370.33 254.93 C 371.12 262.11 370.98 270.24 365.90 275.94 C 364.30 278.18 361.04 278.04 358.74 277.14 C 353.71 274.48 352.25 268.21 352.55 262.95 C 352.99 257.40 353.82 251.84 355.44 246.51 Z" />
<path fill="#122c62" opacity="0.46" d=" M 177.99 300.75 C 178.32 296.09 178.74 291.24 181.13 287.12 C 180.35 291.20 179.62 295.29 178.81 299.37 C 187.87 299.82 196.94 299.47 206.01 299.58 C 275.35 299.63 344.70 299.57 414.05 299.61 C 416.52 299.54 418.95 299.07 421.37 298.54 C 421.30 299.09 421.16 300.19 421.09 300.75 C 398.72 300.85 376.36 301.34 354.00 301.17 C 295.33 301.08 236.65 301.47 177.99 300.75 Z" />
<path fill="#20dca5" opacity="1.00" d=" M 152.60 317.49 C 170.07 317.32 187.54 317.26 205.00 317.17 C 242.66 316.45 280.34 316.79 318.00 316.70 C 342.67 316.90 367.34 316.51 392.00 317.16 C 410.24 317.18 428.48 317.40 446.72 317.35 C 447.59 323.89 447.15 330.52 448.01 337.06 C 448.79 343.09 448.22 349.38 446.04 355.07 C 444.97 358.50 440.87 358.04 438.02 358.27 C 357.02 359.47 276.00 358.12 194.99 358.79 C 182.73 359.57 170.47 358.51 158.20 358.44 C 153.03 358.88 152.06 352.80 151.50 348.92 C 150.92 338.45 151.38 327.91 152.60 317.49 Z" />
<path fill="#122c62" opacity="0.46" d=" M 130.13 387.65 C 132.35 401.31 131.71 415.23 130.70 428.97 C 130.37 441.35 130.51 453.75 131.82 466.08 C 130.78 463.18 130.19 460.13 130.21 457.06 C 129.99 433.92 130.56 410.78 130.13 387.65 Z" />
<path fill="#1e479c" opacity="1.00" d=" M 284.88 399.14 C 291.78 395.94 299.90 393.72 307.32 396.52 C 322.08 401.43 335.88 412.13 341.11 427.21 C 342.61 430.95 342.74 435.02 342.74 439.01 C 342.78 448.14 342.84 457.27 342.75 466.40 C 337.28 466.35 331.79 466.69 326.34 466.17 C 326.15 454.70 327.48 443.02 325.09 431.72 C 320.36 421.34 310.20 413.59 298.96 411.64 C 296.79 411.56 294.91 413.03 292.97 413.85 C 284.87 417.98 276.72 424.00 273.72 432.95 C 272.90 443.90 273.26 454.92 273.39 465.90 C 267.73 466.85 261.94 466.47 256.24 466.21 C 257.02 451.70 254.41 436.52 259.90 422.65 C 265.64 412.60 274.48 404.24 284.88 399.14 Z" />
<path fill="#122c62" opacity="0.46" d=" M 176.33 474.74 C 176.42 461.11 176.13 447.47 176.53 433.84 C 176.84 447.35 176.48 460.87 176.75 474.39 C 191.01 475.06 205.34 473.54 219.54 475.17 C 205.17 475.98 190.73 475.22 176.33 475.57 L 176.33 474.74 Z" />
</svg>
