<?xml version="1.0" encoding="UTF-8" ?>
<!DOCTYPE svg PUBLIC "-//W3C//DTD SVG 1.1//EN" "http://www.w3.org/Graphics/SVG/1.1/DTD/svg11.dtd">
<svg width="466pt" height="562pt" viewBox="0 0 466 562" version="1.1" xmlns="http://www.w3.org/2000/svg">
<path fill="#1e479c" opacity="1.00" d=" M 61.79 0.00 L 156.75 0.00 C 159.49 1.85 162.82 4.29 162.65 8.00 C 162.98 12.62 158.62 16.66 154.08 16.39 C 136.89 16.43 119.69 16.39 102.50 16.40 C 102.81 20.59 102.69 24.80 102.70 29.00 C 102.70 153.34 102.70 277.68 102.71 402.02 C 102.70 404.06 102.59 406.10 102.53 408.14 C 104.34 408.26 106.15 408.41 107.97 408.51 C 176.32 408.50 244.67 408.53 313.01 408.50 C 317.58 408.20 321.87 412.40 321.58 416.98 C 321.55 421.34 317.43 425.14 313.04 424.69 C 240.34 424.68 167.62 424.70 94.91 424.67 C 85.18 425.09 75.39 429.58 69.49 437.48 C 64.57 443.44 62.50 451.35 62.70 458.97 C 63.45 466.49 66.54 473.78 71.55 479.45 C 75.37 483.46 80.24 486.42 85.47 488.25 C 90.46 489.96 95.82 489.37 101.00 489.48 C 198.02 489.45 295.04 489.47 392.05 489.46 C 406.73 489.17 421.25 483.08 431.46 472.47 C 441.40 462.58 447.05 448.90 448.28 435.05 C 448.40 422.63 448.33 410.21 448.31 397.80 C 445.68 400.01 443.45 402.62 441.14 405.15 C 428.77 416.94 412.07 424.03 394.99 424.66 C 379.32 424.74 363.65 424.63 347.98 424.73 C 345.82 424.62 343.43 424.83 341.58 423.49 C 335.48 420.05 337.81 408.73 345.08 408.57 C 360.72 408.37 376.37 408.61 392.01 408.49 C 405.06 408.24 418.19 403.76 427.96 394.96 C 439.86 384.80 447.31 369.66 448.32 354.07 C 448.35 265.38 448.32 176.69 448.33 88.00 C 448.15 78.25 449.29 68.24 446.11 58.82 C 440.55 36.37 419.83 18.80 396.87 16.58 C 392.25 16.29 387.62 16.41 383.00 16.40 C 317.98 16.40 252.96 16.40 187.94 16.40 C 183.43 16.63 178.56 12.87 179.18 8.05 C 178.67 4.12 182.11 1.46 185.29 0.00 L 403.10 0.00 C 406.83 1.48 410.70 2.57 414.55 3.70 C 432.66 9.74 447.89 23.38 456.62 40.27 C 462.09 50.62 464.24 62.40 464.60 74.00 C 464.59 212.00 464.59 350.01 464.60 488.01 C 464.46 495.06 463.34 502.10 461.65 508.95 C 457.29 522.55 449.38 535.17 438.46 544.46 C 432.44 549.29 425.92 553.55 418.83 556.64 C 413.79 558.91 408.13 559.44 403.20 562.00 L 67.56 562.00 C 58.55 560.02 49.22 558.57 41.14 553.85 C 33.30 550.15 26.66 544.46 20.55 538.40 C 9.09 526.09 2.55 509.65 1.21 492.97 C 0.11 482.69 0.90 472.32 0.67 462.00 C 0.67 333.33 0.66 204.67 0.67 76.00 C 1.11 67.93 1.89 59.80 4.17 52.02 C 10.33 32.67 24.26 15.59 42.89 7.10 C 48.95 4.11 55.62 2.75 61.79 0.00 M 67.30 16.94 C 54.93 18.69 42.85 24.05 34.04 33.04 C 23.88 43.71 17.14 58.10 17.45 73.00 C 17.43 211.00 17.45 349.00 17.44 487.00 C 16.76 502.04 23.20 516.79 33.08 527.93 C 43.81 538.77 58.73 545.25 74.00 545.52 C 178.00 545.54 282.00 545.52 386.00 545.53 C 394.06 545.78 402.22 544.89 409.86 542.23 C 423.65 537.66 434.94 527.25 441.66 514.50 C 447.64 503.98 448.58 491.49 448.16 479.65 C 445.64 481.24 443.66 483.49 441.59 485.60 C 428.58 497.91 410.98 505.56 392.99 505.69 C 293.33 505.69 193.67 505.69 94.00 505.69 C 70.72 506.31 49.51 486.71 46.63 463.91 C 46.36 458.76 46.23 453.57 46.86 448.45 C 49.95 436.73 55.81 425.03 66.08 418.06 C 72.11 413.88 78.79 410.33 86.18 409.43 C 86.37 407.63 86.50 405.82 86.53 404.02 C 86.43 274.85 86.59 145.68 86.45 16.51 C 80.07 16.49 73.63 16.00 67.30 16.94 Z" />
<path fill="#1e479c" opacity="1.00" d=" M 254.24 103.83 C 264.90 102.72 276.35 102.54 286.03 107.85 C 296.51 112.92 304.28 122.38 308.77 132.97 C 310.92 138.71 310.90 144.92 311.73 150.91 C 312.89 152.61 314.83 153.82 316.95 153.58 C 326.99 153.62 337.03 153.57 347.07 153.56 C 353.15 153.25 358.12 157.88 361.36 162.56 C 362.80 164.38 362.50 166.80 362.59 168.96 C 362.52 207.66 362.63 246.36 362.54 285.06 C 362.68 288.09 360.55 290.54 358.60 292.62 C 355.56 295.69 351.62 298.62 347.07 298.36 C 336.70 298.36 326.34 298.24 315.97 298.38 C 314.14 298.25 312.23 299.23 311.64 301.05 C 311.15 303.76 311.41 306.55 310.93 309.27 C 309.33 323.85 299.56 336.70 287.02 343.89 C 278.70 347.98 269.24 350.10 259.96 349.35 C 252.07 348.17 244.13 346.08 237.46 341.51 C 228.06 334.64 220.25 324.86 218.02 313.19 C 216.61 308.80 218.95 303.24 215.26 299.73 C 214.28 298.34 212.56 298.41 211.05 298.37 C 200.48 298.25 189.90 298.58 179.34 298.25 C 172.09 296.40 164.93 290.00 165.39 281.98 C 165.41 244.66 165.41 207.33 165.39 170.01 C 164.83 162.27 171.46 155.98 178.28 153.74 C 189.53 153.30 200.81 153.79 212.07 153.54 C 215.27 153.53 217.63 150.07 217.38 147.05 C 216.81 136.47 221.86 126.43 228.50 118.51 C 235.07 110.84 244.26 105.53 254.24 103.83 M 251.94 120.87 C 244.28 124.34 238.03 130.86 234.64 138.53 C 232.78 142.39 233.73 146.77 232.91 150.85 C 232.24 154.23 231.49 157.72 229.69 160.69 C 226.39 165.21 221.40 168.65 215.81 169.50 C 204.44 170.79 192.83 168.64 181.55 170.67 C 181.59 202.11 181.56 233.56 181.57 265.00 C 181.63 270.66 181.35 276.32 181.82 281.97 C 192.22 282.45 202.63 281.92 213.04 282.25 C 220.13 282.33 226.67 286.70 230.45 292.54 C 233.90 298.23 232.80 305.10 233.87 311.35 C 237.79 322.67 248.44 332.70 260.94 332.56 C 267.67 332.84 274.99 332.81 280.68 328.66 C 286.41 324.41 291.75 318.96 293.95 311.99 C 295.83 307.31 295.27 302.19 296.23 297.33 C 297.18 292.69 300.31 288.81 303.98 285.98 C 308.88 282.43 315.16 282.03 321.00 281.86 C 329.57 281.82 338.13 281.92 346.69 281.81 C 346.60 244.58 346.56 207.35 346.71 170.12 C 336.47 169.51 326.20 170.09 315.96 169.80 C 309.23 169.39 302.28 166.26 298.59 160.43 C 294.87 155.05 294.96 148.25 294.17 142.03 C 293.55 136.42 290.13 131.64 286.27 127.73 C 281.22 122.11 273.58 118.76 266.01 119.18 C 261.30 119.28 256.31 118.72 251.94 120.87 Z" />
<path fill="#20dca5" opacity="1.00" d=" M 251.94 120.87 C 256.31 118.72 261.30 119.28 266.01 119.18 C 273.58 118.76 281.22 122.11 286.27 127.73 C 290.13 131.64 293.55 136.42 294.17 142.03 C 294.96 148.25 294.87 155.05 298.59 160.43 C 302.28 166.26 309.23 169.39 315.96 169.80 C 326.20 170.09 336.47 169.51 346.71 170.12 C 346.56 207.35 346.60 244.58 346.69 281.81 C 338.13 281.92 329.57 281.82 321.00 281.86 C 315.16 282.03 308.88 282.43 303.98 285.98 C 300.31 288.81 297.18 292.69 296.23 297.33 C 295.27 302.19 295.83 307.31 293.95 311.99 C 291.75 318.96 286.41 324.41 280.68 328.66 C 274.99 332.81 267.67 332.84 260.94 332.56 C 248.44 332.70 237.79 322.67 233.87 311.35 C 232.80 305.10 233.90 298.23 230.45 292.54 C 226.67 286.70 220.13 282.33 213.04 282.25 C 202.63 281.92 192.22 282.45 181.82 281.97 C 181.35 276.32 181.63 270.66 181.57 265.00 C 181.56 233.56 181.59 202.11 181.55 170.67 C 192.83 168.64 204.44 170.79 215.81 169.50 C 221.40 168.65 226.39 165.21 229.69 160.69 C 231.49 157.72 232.24 154.23 232.91 150.85 C 233.73 146.77 232.78 142.39 234.64 138.53 C 238.03 130.86 244.28 124.34 251.94 120.87 Z" />
</svg>
