<?xml version="1.0" encoding="UTF-8" ?>
<!DOCTYPE svg PUBLIC "-//W3C//DTD SVG 1.1//EN" "http://www.w3.org/Graphics/SVG/1.1/DTD/svg11.dtd">
<svg width="570pt" height="527pt" viewBox="0 0 570 527" version="1.1" xmlns="http://www.w3.org/2000/svg">
<path fill="#1e499c" opacity="1.00" d=" M 52.85 2.11 C 61.37 -0.20 70.26 0.59 78.98 0.54 C 172.31 0.53 265.64 0.56 358.97 0.53 C 380.40 1.35 400.24 14.51 411.60 32.35 C 419.06 43.79 422.81 57.37 422.99 70.98 C 423.02 198.99 422.98 327.00 423.01 455.01 C 422.54 471.15 417.79 487.67 407.20 500.14 C 405.32 502.56 402.20 504.37 402.05 507.75 C 407.70 508.05 413.34 507.58 418.99 507.53 C 439.99 507.13 460.99 507.68 481.99 507.47 C 495.28 507.48 509.33 508.50 521.64 502.54 C 528.57 498.88 534.81 493.79 539.61 487.57 C 547.77 476.94 551.31 463.24 550.63 449.96 C 550.60 322.64 550.81 195.31 550.39 67.99 C 549.62 47.42 534.93 28.24 515.53 21.60 C 508.32 18.97 500.55 19.54 493.03 19.39 C 472.70 19.29 452.36 20.41 432.05 19.23 C 428.96 18.86 424.98 19.11 423.11 16.10 C 420.36 11.81 421.39 6.46 421.58 1.66 C 430.68 0.61 439.84 0.37 449.00 0.45 C 465.99 0.63 482.99 0.76 499.98 0.41 C 515.54 -0.38 530.94 5.31 542.91 15.13 C 557.48 26.96 566.65 44.53 570.00 62.84 L 570.00 462.34 C 567.08 480.55 558.60 498.37 544.22 510.27 C 532.62 520.38 517.49 525.93 502.23 527.00 L 75.78 527.00 C 64.40 526.41 52.79 525.27 42.23 520.66 C 30.29 515.17 19.59 506.62 12.57 495.41 C 5.37 484.32 1.21 471.38 0.00 458.25 L 0.00 113.50 C 0.71 108.37 0.72 103.11 2.14 98.11 C 4.77 90.77 17.99 92.20 18.86 100.02 C 20.71 110.24 19.83 120.66 19.91 130.98 C 19.94 237.98 19.77 344.99 19.86 451.99 C 19.87 461.45 20.76 471.26 25.35 479.72 C 32.32 492.65 44.75 502.79 59.13 506.18 C 66.62 508.08 74.40 507.28 82.04 507.44 C 170.38 507.39 258.71 507.58 347.04 507.25 C 353.03 507.28 359.12 507.54 364.97 505.98 C 387.26 500.68 404.28 478.80 403.62 455.82 C 403.66 326.23 403.62 196.63 403.47 67.03 C 402.98 48.31 390.03 31.58 373.61 23.49 C 366.33 19.79 358.02 19.16 349.99 19.15 C 259.00 19.25 168.01 19.21 77.03 19.22 C 71.32 19.27 65.54 18.88 59.93 20.18 C 45.35 23.35 32.77 33.50 25.49 46.39 C 19.97 56.15 21.53 68.00 17.14 78.13 C 12.86 84.84 0.29 81.18 0.68 73.01 C -1.13 41.16 21.96 9.95 52.85 2.11 Z" />
<path fill="#1e499c" opacity="1.00" d=" M 188.87 170.14 C 221.80 162.77 257.15 174.86 281.47 197.57 C 292.45 207.90 300.85 220.85 306.14 234.95 C 320.08 268.53 313.07 308.67 291.47 337.41 C 276.40 357.38 253.51 370.87 229.13 375.91 C 201.69 381.52 172.05 375.01 149.43 358.53 C 146.81 356.22 144.22 352.44 145.85 348.87 C 147.14 345.12 151.19 343.73 154.44 342.15 C 164.98 348.11 175.71 354.04 187.40 357.41 C 204.84 362.03 223.80 361.16 240.54 354.31 C 263.62 344.97 282.77 325.69 290.96 302.07 C 295.57 289.03 296.49 274.89 294.80 261.22 C 292.01 238.30 279.43 216.84 260.96 203.04 C 234.24 182.81 195.34 180.30 166.43 197.36 C 147.21 208.67 132.10 227.31 126.19 248.93 C 121.03 267.08 121.77 286.90 128.48 304.56 C 131.82 313.15 137.58 320.57 140.81 329.20 C 140.99 335.02 133.99 339.30 128.71 337.30 C 126.94 336.57 125.79 334.96 124.68 333.49 C 108.06 310.98 101.77 281.34 107.12 253.94 C 109.85 240.33 114.64 226.98 122.33 215.36 C 137.37 192.26 162.04 175.97 188.87 170.14 Z" />
<path fill="#1e499c" opacity="1.00" d=" M 188.24 214.25 C 197.79 212.14 206.93 217.45 214.76 222.30 C 229.04 232.09 244.17 240.59 258.12 250.84 C 271.66 261.38 271.54 284.60 258.10 295.18 C 244.85 305.16 230.26 313.17 216.60 322.57 C 208.32 328.11 198.58 333.99 188.20 331.75 C 175.38 329.46 164.48 318.17 163.89 304.97 C 163.49 284.31 163.58 263.64 163.83 242.98 C 163.87 235.14 167.35 227.46 172.97 222.05 C 177.19 218.04 182.62 215.56 188.24 214.25 M 189.26 232.24 C 184.30 233.66 181.16 238.83 181.37 243.87 C 181.36 263.59 181.23 283.33 181.49 303.06 C 181.18 310.76 190.43 317.25 197.42 313.45 C 213.14 304.41 228.01 293.99 243.44 284.47 C 248.03 281.64 251.77 276.44 250.90 270.83 C 250.36 267.67 247.68 265.57 245.34 263.66 C 233.25 254.06 219.43 247.01 206.83 238.14 C 201.70 234.68 195.85 230.09 189.26 232.24 Z" />
<path fill="#20dca5" opacity="1.00" d=" M 189.26 232.24 C 195.85 230.09 201.70 234.68 206.83 238.14 C 219.43 247.01 233.25 254.06 245.34 263.66 C 247.68 265.57 250.36 267.67 250.90 270.83 C 251.77 276.44 248.03 281.64 243.44 284.47 C 228.01 293.99 213.14 304.41 197.42 313.45 C 190.43 317.25 181.18 310.76 181.49 303.06 C 181.23 283.33 181.36 263.59 181.37 243.87 C 181.16 238.83 184.30 233.66 189.26 232.24 Z" />
</svg>
