<?xml version="1.0" encoding="UTF-8" ?>
<!DOCTYPE svg PUBLIC "-//W3C//DTD SVG 1.1//EN" "http://www.w3.org/Graphics/SVG/1.1/DTD/svg11.dtd">
<svg width="538pt" height="579pt" viewBox="0 0 538 579" version="1.1" xmlns="http://www.w3.org/2000/svg">
<path fill="#1e479c" opacity="1.00" d=" M 164.48 0.00 L 165.44 0.00 C 182.68 0.13 199.58 6.48 213.20 16.91 C 232.62 31.91 245.74 54.52 250.03 78.60 C 260.19 78.91 270.36 78.64 280.53 78.76 C 284.37 60.70 292.01 43.21 304.39 29.34 C 319.35 11.94 341.48 0.41 364.61 0.00 L 366.43 0.00 C 385.57 0.04 404.30 7.74 418.69 20.23 C 436.18 35.20 447.41 56.65 451.72 79.12 C 471.73 80.29 491.23 88.45 506.22 101.74 C 525.45 118.53 537.18 143.73 537.20 169.30 C 536.56 174.18 536.79 179.11 536.80 184.01 C 536.80 281.01 536.80 378.01 536.80 475.01 C 536.79 479.83 536.59 484.66 537.17 489.46 C 536.92 522.03 517.36 553.34 488.53 568.36 C 476.11 574.89 462.25 578.62 448.22 579.00 L 89.10 579.00 C 70.91 578.50 52.95 572.41 38.18 561.81 C 23.20 551.04 11.54 535.69 5.40 518.27 C 2.69 511.46 1.76 504.16 0.00 497.10 L 0.00 168.02 C 0.61 138.10 17.08 109.21 42.36 93.26 C 53.41 86.02 66.14 81.74 79.11 79.56 C 80.96 69.36 84.36 59.47 88.89 50.15 C 90.47 47.12 92.16 43.53 95.67 42.38 C 100.26 40.45 106.16 44.01 106.59 48.97 C 107.10 53.01 104.68 56.52 103.12 60.04 C 93.98 79.07 92.18 101.26 96.70 121.76 C 100.97 140.11 110.90 157.44 125.86 169.11 C 137.21 177.85 151.46 183.50 165.94 182.61 C 173.55 182.30 178.74 172.84 174.89 166.25 C 172.67 161.33 167.04 159.65 162.05 159.55 C 149.40 158.99 138.34 151.05 130.74 141.39 C 120.76 128.25 116.58 111.29 117.60 94.96 C 118.76 79.70 124.30 64.29 135.31 53.36 C 143.00 45.43 153.67 39.83 164.93 40.30 C 177.82 40.16 189.86 47.28 197.77 57.15 C 203.06 63.43 206.22 71.06 209.29 78.57 C 217.15 79.02 225.05 78.62 232.93 78.72 C 230.15 68.47 226.46 58.30 220.40 49.50 C 210.95 34.86 196.29 23.31 179.35 18.80 C 163.05 14.83 145.16 17.87 131.19 27.21 C 127.50 29.52 123.17 33.15 118.60 30.87 C 113.28 28.77 111.60 20.98 116.03 17.16 C 129.75 6.37 147.03 0.30 164.48 0.00 M 347.13 20.04 C 327.25 26.72 311.63 43.06 303.46 62.11 C 293.46 84.85 292.99 111.63 302.20 134.71 C 307.76 149.12 317.34 162.08 329.95 171.08 C 340.92 178.78 354.38 183.57 367.89 182.55 C 375.77 181.85 380.41 171.64 375.75 165.23 C 372.55 159.61 365.44 159.70 359.83 159.20 C 340.73 155.80 327.08 138.76 321.88 120.90 C 316.47 102.24 318.31 81.28 328.22 64.41 C 334.66 53.30 345.18 43.94 357.91 41.05 C 367.95 39.06 378.77 40.89 387.40 46.48 C 398.98 53.76 406.48 65.95 410.57 78.77 C 418.44 78.70 426.32 78.77 434.20 78.73 C 429.02 55.83 414.69 34.11 393.23 23.65 C 379.28 16.02 362.14 15.29 347.13 20.04 M 152.77 60.70 C 145.97 64.78 141.80 71.77 138.44 78.72 C 156.00 78.74 173.55 78.77 191.11 78.71 C 188.08 71.45 183.27 64.65 176.47 60.50 C 169.38 56.07 159.79 56.18 152.77 60.70 M 354.42 60.55 C 347.53 64.63 343.26 71.66 339.92 78.71 C 357.47 78.76 375.03 78.76 392.59 78.71 C 389.37 71.43 384.54 64.59 377.64 60.41 C 370.67 56.15 361.32 56.17 354.42 60.55 M 137.29 118.85 C 140.90 129.27 148.75 138.99 159.68 142.10 C 162.79 142.67 165.97 142.81 169.09 143.35 C 181.02 144.89 191.20 155.07 192.77 167.00 C 195.63 181.93 184.02 197.66 168.94 199.45 C 154.18 200.68 139.21 197.10 126.20 190.10 C 106.11 179.43 91.36 160.35 83.84 139.09 C 79.12 125.65 77.14 111.38 77.36 97.17 C 62.42 100.16 48.35 107.78 37.93 118.92 C 30.73 125.91 25.73 134.79 21.82 143.96 C 21.46 144.91 21.09 145.87 20.72 146.82 C 15.79 161.03 17.02 176.25 16.86 191.02 C 16.95 204.19 16.67 217.38 17.01 230.55 C 175.02 230.51 333.03 230.55 491.03 230.53 C 495.84 229.96 501.21 233.96 500.73 239.06 C 501.09 243.77 496.37 247.65 491.87 247.50 C 333.53 247.57 175.18 247.41 16.84 247.57 C 16.89 323.06 16.84 398.54 16.86 474.03 C 16.84 483.40 16.68 492.87 18.41 502.12 C 23.25 527.22 42.01 549.00 66.10 557.56 C 76.87 561.75 88.58 562.21 100.01 562.14 C 211.35 562.12 322.69 562.14 434.03 562.13 C 443.51 562.14 453.12 562.25 462.42 560.17 C 479.63 556.19 495.36 545.95 505.77 531.65 C 515.32 518.88 520.40 502.95 520.37 487.03 C 520.39 385.69 520.38 284.35 520.38 183.01 C 520.33 174.97 520.72 166.89 519.44 158.92 C 517.51 146.18 512.10 133.98 504.05 123.92 C 494.02 111.15 479.62 102.08 463.95 98.00 C 456.11 96.09 447.99 95.62 439.95 95.72 C 405.21 95.74 370.48 95.71 335.75 95.73 C 335.55 100.79 335.12 105.93 336.28 110.92 C 338.59 122.87 345.59 134.57 356.66 140.24 C 363.07 143.83 370.91 142.09 377.47 145.28 C 388.21 149.74 395.33 161.40 394.52 172.97 C 394.00 186.15 383.09 198.12 369.92 199.51 C 350.58 200.95 331.22 193.95 316.09 182.09 C 298.02 168.10 285.83 147.22 281.11 124.98 C 278.86 115.40 278.45 105.51 278.61 95.71 C 230.58 95.73 182.55 95.74 134.52 95.70 C 134.07 103.51 134.38 111.50 137.29 118.85 Z" />
<path fill="#132f67" opacity="0.46" d=" M 537.20 169.30 L 538.00 167.39 L 538.00 491.46 L 537.17 489.46 C 536.59 484.66 536.79 479.83 536.80 475.01 C 536.80 378.01 536.80 281.01 536.80 184.01 C 536.79 179.11 536.56 174.18 537.20 169.30 Z" />
<path fill="#1e479c" opacity="1.00" d=" M 206.02 282.95 C 209.35 278.67 214.50 275.66 220.06 276.16 C 225.86 275.66 230.47 279.64 235.29 282.19 C 243.64 286.17 253.02 286.64 262.02 287.70 C 267.83 286.74 273.73 286.54 279.49 285.21 C 286.24 283.67 292.03 279.88 297.99 276.56 C 301.63 276.10 305.32 276.11 308.96 276.58 C 310.89 277.78 313.07 278.64 314.74 280.22 C 316.60 282.42 318.32 284.74 320.27 286.88 C 321.01 291.07 321.00 296.15 324.56 299.10 C 324.64 300.07 324.72 301.06 324.81 302.04 C 326.44 304.66 328.07 307.30 329.11 310.22 C 329.59 310.38 330.54 310.71 331.01 310.88 C 332.21 314.40 334.74 317.06 337.56 319.37 C 340.06 322.67 343.92 324.39 346.91 327.15 C 349.38 328.86 352.11 330.16 354.99 331.03 C 357.44 333.33 360.67 334.29 363.87 335.02 C 366.00 335.53 368.11 336.12 370.25 336.62 C 371.71 337.56 373.10 338.63 374.04 340.13 C 374.78 340.66 375.52 341.19 376.28 341.73 C 377.27 343.51 378.27 345.29 379.36 347.03 C 380.18 353.12 380.51 360.13 375.79 364.82 C 375.69 365.33 375.50 366.36 375.40 366.87 C 371.95 371.45 370.64 377.32 370.05 382.93 C 368.65 387.12 369.47 391.61 369.26 395.94 C 368.90 402.35 370.05 408.72 371.64 414.91 C 373.17 420.74 377.76 425.16 379.38 430.96 C 380.17 435.01 379.73 439.16 379.33 443.23 C 377.26 446.10 375.19 448.99 372.57 451.39 C 367.73 453.58 362.08 453.84 357.69 456.96 C 354.00 458.27 350.07 459.37 347.14 462.12 C 345.05 464.12 342.16 465.06 340.23 467.23 C 338.08 469.87 334.86 471.51 333.27 474.64 C 331.16 476.81 329.11 479.11 327.93 481.95 C 326.03 484.91 324.86 488.26 323.05 491.27 C 320.94 496.48 320.72 502.53 317.00 507.00 C 313.87 510.37 309.38 512.02 305.07 513.29 C 304.27 513.30 302.67 513.31 301.87 513.32 C 296.32 511.84 291.43 508.67 285.94 507.00 C 284.75 506.19 283.58 505.36 282.31 504.71 C 272.32 501.32 261.39 500.12 250.99 502.23 C 245.27 502.85 239.65 504.46 234.85 507.72 C 233.93 508.24 233.01 508.77 232.09 509.29 C 231.57 509.41 230.53 509.65 230.02 509.77 C 227.48 511.20 224.79 512.34 222.03 513.28 C 221.24 513.29 219.66 513.31 218.87 513.31 C 214.22 512.24 209.34 510.51 206.12 506.80 C 202.73 502.41 202.15 496.74 200.40 491.64 C 199.92 491.31 198.96 490.64 198.49 490.30 C 198.44 489.17 198.40 488.03 198.35 486.91 C 194.46 480.41 190.63 473.42 184.33 468.95 C 182.57 465.14 178.07 464.54 175.23 461.90 C 173.25 459.83 170.52 458.85 168.02 457.62 C 167.45 457.56 166.30 457.45 165.73 457.39 C 165.34 456.96 164.55 456.10 164.16 455.66 C 159.62 454.37 155.10 453.01 150.69 451.33 C 149.36 450.01 148.04 448.70 146.72 447.38 C 143.97 442.71 142.36 437.39 143.77 431.98 C 145.38 426.26 148.91 421.47 151.37 416.14 C 152.57 412.13 152.92 407.93 154.18 403.95 C 154.86 392.53 154.53 380.72 149.93 370.06 C 149.35 368.86 148.57 367.78 147.81 366.70 C 147.67 366.16 147.38 365.09 147.23 364.55 C 143.76 359.64 142.06 352.95 144.31 347.18 C 145.00 345.31 145.95 343.56 146.83 341.78 C 147.62 341.27 148.41 340.77 149.20 340.28 C 149.71 339.46 150.23 338.65 150.74 337.84 C 156.34 334.98 163.21 335.19 168.19 331.12 C 171.05 330.12 173.78 328.79 176.43 327.33 C 176.76 326.94 177.40 326.18 177.72 325.79 C 186.80 320.34 193.26 311.53 198.23 302.34 C 197.91 299.00 201.27 297.17 201.65 294.04 C 202.67 290.20 202.49 285.58 206.02 282.95 M 219.47 292.14 C 216.06 297.14 215.29 303.32 212.34 308.56 C 203.56 327.41 186.78 342.20 167.10 348.84 C 164.38 349.71 161.64 350.64 159.34 352.38 C 159.44 353.26 159.64 355.04 159.75 355.93 C 161.80 358.83 163.50 361.98 164.74 365.31 C 169.89 378.46 172.37 393.01 169.56 407.00 C 167.74 416.39 165.01 425.88 159.52 433.83 C 159.52 434.70 159.52 436.44 159.53 437.30 C 164.76 440.14 170.72 441.28 175.96 444.12 C 194.65 452.99 209.29 469.69 215.84 489.28 C 216.67 491.64 217.19 494.30 219.05 496.12 C 223.08 497.82 226.31 493.96 229.82 492.66 C 243.61 486.73 259.18 483.74 274.06 486.80 C 283.09 488.54 292.24 491.10 299.91 496.37 C 301.34 496.41 302.78 496.47 304.21 496.53 C 307.39 490.74 308.72 484.16 312.05 478.43 C 321.13 460.32 337.80 446.48 356.99 440.19 C 359.29 439.48 361.50 438.53 363.64 437.41 C 363.61 436.00 363.58 434.60 363.56 433.20 C 358.82 426.98 356.59 419.29 354.65 411.83 C 353.14 404.01 351.62 395.97 352.93 388.01 C 354.31 376.85 357.00 365.39 363.51 356.03 C 363.52 354.60 363.55 353.17 363.57 351.75 C 357.23 348.96 350.44 347.20 344.40 343.72 C 326.72 334.44 313.15 317.94 307.04 298.97 C 306.33 296.49 305.02 294.25 303.65 292.09 C 302.00 292.50 300.35 292.97 298.88 293.84 C 290.40 298.75 280.82 301.55 271.18 303.01 C 254.86 305.13 237.95 301.59 223.67 293.47 C 222.37 292.76 220.90 292.49 219.47 292.14 Z" />
<path fill="#20dca5" opacity="1.00" d=" M 219.47 292.14 C 220.90 292.49 222.37 292.76 223.67 293.47 C 237.95 301.59 254.86 305.13 271.18 303.01 C 280.82 301.55 290.40 298.75 298.88 293.84 C 300.35 292.97 302.00 292.50 303.65 292.09 C 305.02 294.25 306.33 296.49 307.04 298.97 C 313.15 317.94 326.72 334.44 344.40 343.72 C 350.44 347.20 357.23 348.96 363.57 351.75 C 363.55 353.17 363.52 354.60 363.51 356.03 C 357.00 365.39 354.31 376.85 352.93 388.01 C 351.62 395.97 353.14 404.01 354.65 411.83 C 356.59 419.29 358.82 426.98 363.56 433.20 C 363.58 434.60 363.61 436.00 363.64 437.41 C 361.50 438.53 359.29 439.48 356.99 440.19 C 337.80 446.48 321.13 460.32 312.05 478.43 C 308.72 484.16 307.39 490.74 304.21 496.53 C 302.78 496.47 301.34 496.41 299.91 496.37 C 292.24 491.10 283.09 488.54 274.06 486.80 C 259.18 483.74 243.61 486.73 229.82 492.66 C 226.31 493.96 223.08 497.82 219.05 496.12 C 217.19 494.30 216.67 491.64 215.84 489.28 C 209.29 469.69 194.65 452.99 175.96 444.12 C 170.72 441.28 164.76 440.14 159.53 437.30 C 159.52 436.44 159.52 434.70 159.52 433.83 C 165.01 425.88 167.74 416.39 169.56 407.00 C 172.37 393.01 169.89 378.46 164.74 365.31 C 163.50 361.98 161.80 358.83 159.75 355.93 C 159.64 355.04 159.44 353.26 159.34 352.38 C 161.64 350.64 164.38 349.71 167.10 348.84 C 186.78 342.20 203.56 327.41 212.34 308.56 C 215.29 303.32 216.06 297.14 219.47 292.14 M 251.56 321.87 C 230.78 325.08 211.31 337.09 200.06 354.99 C 189.41 371.47 185.42 392.32 190.27 411.43 C 193.43 424.55 200.28 436.71 209.62 446.42 C 223.91 460.51 243.94 468.58 264.00 468.27 C 277.65 467.37 291.10 463.14 302.46 455.45 C 317.75 445.54 328.43 429.34 332.89 411.80 C 340.87 382.13 326.54 348.43 300.45 332.54 C 286.01 323.54 268.46 319.41 251.56 321.87 Z" />
<path fill="#1e479c" opacity="1.00" d=" M 251.56 321.87 C 268.46 319.41 286.01 323.54 300.45 332.54 C 326.54 348.43 340.87 382.13 332.89 411.80 C 328.43 429.34 317.75 445.54 302.46 455.45 C 291.10 463.14 277.65 467.37 264.00 468.27 C 243.94 468.58 223.91 460.51 209.62 446.42 C 200.28 436.71 193.43 424.55 190.27 411.43 C 185.42 392.32 189.41 371.47 200.06 354.99 C 211.31 337.09 230.78 325.08 251.56 321.87 M 240.90 340.25 C 239.82 340.56 239.02 341.24 238.51 342.26 C 225.97 347.08 215.61 357.15 210.27 369.46 C 209.92 369.87 209.23 370.69 208.88 371.10 C 207.82 374.34 206.44 377.50 205.99 380.91 C 205.31 387.51 202.87 394.39 205.13 400.92 C 205.26 405.28 205.96 409.60 207.21 413.78 C 208.31 417.89 211.12 421.21 212.86 425.03 C 214.70 429.28 218.31 432.32 221.11 435.90 C 225.43 439.37 229.35 443.82 235.00 445.08 C 239.23 449.16 245.38 449.84 250.90 450.91 C 256.99 452.44 263.42 451.41 269.65 451.51 C 273.34 450.17 277.39 450.36 281.10 448.99 C 284.59 448.27 287.22 445.70 290.45 444.38 C 294.94 442.63 298.26 439.04 301.94 436.08 C 306.48 431.02 311.42 425.80 312.90 418.91 C 313.62 418.30 314.35 417.70 315.08 417.10 C 317.48 408.65 319.54 399.85 319.22 391.05 C 318.71 389.79 318.40 388.46 318.32 387.11 C 317.87 381.55 316.38 376.12 314.20 370.99 C 311.88 367.47 310.37 363.47 307.78 360.13 C 304.02 355.77 300.60 350.97 295.42 348.18 C 294.09 347.07 292.82 345.82 291.17 345.23 C 282.78 339.20 272.28 336.62 262.03 337.09 C 254.85 336.73 247.67 337.86 240.90 340.25 Z" />
<path fill="#132f67" opacity="0.46" d=" M 240.90 340.25 C 247.67 337.86 254.85 336.73 262.03 337.09 C 272.28 336.62 282.78 339.20 291.17 345.23 C 287.92 344.10 284.82 342.63 281.75 341.12 C 273.97 337.63 265.27 338.06 256.96 338.12 C 250.59 338.11 244.29 339.64 238.51 342.26 C 239.02 341.24 239.82 340.56 240.90 340.25 Z" />
<path fill="#132f67" opacity="0.46" d=" M 250.99 502.23 C 261.39 500.12 272.32 501.32 282.31 504.71 C 273.26 503.83 264.21 500.85 255.09 502.62 C 249.79 503.62 244.10 503.49 239.30 506.24 C 237.93 507.04 236.40 507.46 234.85 507.72 C 239.65 504.46 245.27 502.85 250.99 502.23 Z" />
</svg>
