<?xml version="1.0" encoding="UTF-8" ?>
<!DOCTYPE svg PUBLIC "-//W3C//DTD SVG 1.1//EN" "http://www.w3.org/Graphics/SVG/1.1/DTD/svg11.dtd">
<svg width="567pt" height="504pt" viewBox="0 0 567 504" version="1.1" xmlns="http://www.w3.org/2000/svg">
<path fill="#0d1f45" opacity="0.45" d=" M 52.45 0.00 L 247.68 0.00 L 248.60 0.63 C 187.41 0.35 126.22 0.62 65.03 0.49 C 57.67 0.27 50.52 2.17 43.32 3.39 C 46.30 2.08 49.31 0.85 52.45 0.00 Z" />
<path fill="#0b1b3b" opacity="0.38" d=" M 280.61 0.00 L 368.68 0.00 C 374.76 1.92 381.27 3.13 386.57 6.89 C 377.69 3.63 368.55 0.58 358.99 0.47 C 332.41 0.43 305.84 0.49 279.26 0.44 L 280.61 0.00 Z" />
<path fill="#1e479c" opacity="1.00" d=" M 43.32 3.39 C 50.52 2.17 57.67 0.27 65.03 0.49 C 126.22 0.62 187.41 0.35 248.60 0.63 C 250.81 2.56 253.78 4.67 253.56 7.97 C 254.20 11.72 251.16 14.44 248.42 16.39 C 188.95 16.40 129.48 16.41 70.01 16.39 C 63.21 16.47 56.12 15.89 49.75 18.76 C 40.45 21.65 32.14 27.43 26.20 35.15 C 19.79 43.33 16.78 53.69 16.58 64.00 C 16.55 184.66 16.59 305.32 16.56 425.97 C 16.64 438.48 20.46 451.00 27.76 461.19 C 37.82 475.67 54.47 485.44 72.07 486.85 C 78.69 487.72 85.38 487.24 92.03 487.35 C 205.88 487.33 319.73 487.40 433.57 487.31 C 432.48 485.79 431.31 484.33 429.92 483.07 C 415.85 470.63 406.91 452.64 405.14 433.97 C 404.22 427.03 404.62 420.02 404.55 413.05 C 404.53 296.35 404.59 179.65 404.52 62.95 C 404.71 46.07 394.55 29.81 379.61 22.10 C 371.80 16.96 362.11 16.12 353.00 16.37 C 328.44 16.45 303.87 16.27 279.31 16.48 C 276.58 15.45 273.94 13.13 273.50 10.14 C 272.48 5.93 275.43 1.88 279.26 0.44 C 305.84 0.49 332.41 0.43 358.99 0.47 C 368.55 0.58 377.69 3.63 386.57 6.89 C 402.77 15.24 415.35 30.55 419.46 48.39 C 422.10 59.42 421.25 70.80 421.37 82.03 C 421.39 197.34 421.34 312.66 421.40 427.97 C 421.49 455.14 442.65 479.97 468.98 485.71 C 493.29 490.64 519.20 479.72 534.48 460.58 C 544.49 448.38 550.07 432.78 550.43 417.03 C 550.44 336.03 550.42 255.03 550.43 174.02 C 550.49 168.00 548.97 162.10 547.10 156.42 C 542.08 142.09 530.58 130.40 516.59 124.63 C 510.49 121.61 503.68 120.32 496.91 120.37 C 480.76 120.33 464.62 120.30 448.48 120.41 C 445.91 119.69 443.49 118.13 442.50 115.56 C 439.86 110.72 444.42 103.77 449.94 104.36 C 466.99 104.33 484.04 104.26 501.09 104.41 C 524.61 105.37 546.38 119.84 558.04 140.04 C 562.64 149.87 566.00 160.31 566.84 171.19 C 566.49 173.44 566.07 175.68 565.99 177.96 C 566.02 252.98 565.99 328.02 566.01 403.05 C 566.06 408.28 565.50 413.57 566.60 418.73 C 566.10 428.79 564.24 438.67 562.25 448.52 C 557.62 462.26 549.54 475.06 538.02 484.03 C 530.28 490.41 521.18 494.91 511.80 498.33 C 503.57 499.95 495.51 502.34 487.14 503.22 C 480.09 502.57 473.02 502.91 465.95 502.85 C 340.31 502.84 214.67 502.85 89.03 502.84 C 84.48 502.82 79.90 502.59 75.38 503.33 C 70.21 502.96 65.05 502.32 59.99 501.16 C 54.30 499.90 49.00 497.43 43.42 495.80 C 28.75 488.38 16.31 476.48 8.78 461.83 C 6.89 458.20 5.41 454.38 3.79 450.64 C 2.57 444.06 0.82 437.56 0.21 430.88 C 0.51 428.90 0.89 426.95 1.01 424.96 C 0.99 308.97 0.99 192.97 1.01 76.98 C 0.99 71.10 1.44 65.16 0.21 59.35 C 0.99 51.18 3.39 43.29 6.24 35.63 C 13.80 20.56 27.27 8.65 43.32 3.39 Z" />
<path fill="#0c1d41" opacity="0.42" d=" M 49.75 18.76 C 56.12 15.89 63.21 16.47 70.01 16.39 C 129.48 16.41 188.95 16.40 248.42 16.39 C 246.68 16.99 244.86 17.43 243.01 17.44 C 184.34 17.38 125.66 17.46 66.99 17.40 C 61.21 17.40 55.48 18.20 49.75 18.76 Z" />
<path fill="#0c1e43" opacity="0.43" d=" M 279.31 16.48 C 303.87 16.27 328.44 16.45 353.00 16.37 C 362.11 16.12 371.80 16.96 379.61 22.10 C 375.53 20.91 371.55 19.34 367.40 18.42 C 362.64 17.55 357.79 17.41 352.96 17.39 C 332.63 17.44 312.30 17.38 291.97 17.42 C 287.74 17.39 283.38 17.87 279.31 16.48 Z" />
<path fill="#091733" opacity="0.33" d=" M 0.00 51.05 C 1.77 45.80 2.88 40.17 6.24 35.63 C 3.39 43.29 0.99 51.18 0.21 59.35 L 0.00 61.01 L 0.00 51.05 Z" />
<path fill="#1e479c" opacity="1.00" d=" M 59.69 53.84 C 63.82 50.36 68.93 48.46 73.97 46.74 C 77.62 46.39 81.29 46.19 84.96 46.19 C 169.29 46.22 253.63 46.17 337.97 46.22 C 343.15 46.05 348.29 46.98 353.03 49.10 C 359.40 51.90 364.75 56.71 368.66 62.42 C 371.43 66.52 372.80 71.28 374.25 75.95 C 374.44 78.64 374.55 81.34 374.57 84.04 C 374.56 110.69 374.56 137.35 374.57 164.00 C 374.57 166.69 374.45 169.38 374.26 172.07 C 373.86 173.40 373.49 174.75 373.16 176.10 C 370.31 186.34 362.69 194.87 353.11 199.35 C 347.94 201.23 342.51 202.65 336.97 202.50 C 266.93 202.42 196.89 202.61 126.85 202.40 C 124.79 200.96 122.29 199.59 121.51 197.03 C 121.13 194.93 121.38 192.79 121.45 190.68 C 123.48 187.90 126.41 186.12 129.85 185.75 C 141.90 185.90 153.96 185.50 166.00 185.95 C 179.67 185.59 193.37 185.71 207.04 185.89 C 250.03 185.65 293.03 185.78 336.01 185.80 C 339.47 185.83 342.96 185.62 346.23 184.39 C 350.92 181.90 355.10 177.96 356.86 172.84 C 359.48 164.74 356.97 156.24 358.16 147.99 C 357.19 142.71 358.55 137.33 357.75 132.01 C 358.40 123.94 357.60 115.87 357.91 107.79 C 358.86 98.19 357.74 88.57 357.62 78.95 C 356.51 69.58 347.37 62.18 338.02 62.42 C 254.67 62.41 171.31 62.43 87.96 62.41 C 83.95 62.48 79.78 62.02 75.97 63.52 C 71.61 64.87 68.16 68.09 65.47 71.67 C 62.99 74.89 62.13 78.99 62.24 82.99 C 62.26 110.65 62.22 138.32 62.26 165.99 C 62.15 169.72 63.08 173.46 65.31 176.50 C 68.85 182.14 75.33 186.02 82.07 185.76 C 86.68 185.90 91.41 185.26 95.92 186.58 C 99.96 188.02 102.72 192.97 100.93 197.09 C 100.07 199.74 97.53 201.15 95.25 202.44 C 89.15 202.48 83.05 202.64 76.96 202.22 C 60.19 199.59 45.61 184.38 46.25 166.98 C 46.16 139.98 46.25 112.99 46.21 85.99 C 46.28 80.94 46.02 75.74 47.75 70.90 C 48.09 69.87 48.43 68.84 48.77 67.81 C 51.52 62.55 54.84 57.40 59.69 53.84 Z" />
<path fill="#1a3e8a" opacity="0.89" d=" M 0.00 61.01 L 0.21 59.35 C 1.44 65.16 0.99 71.10 1.01 76.98 C 0.99 192.97 0.99 308.97 1.01 424.96 C 0.89 426.95 0.51 428.90 0.21 430.88 L 0.00 429.39 L 0.00 61.01 Z" />
<path fill="#091631" opacity="0.32" d=" M 62.24 82.99 C 62.13 78.99 62.99 74.89 65.47 71.67 C 64.47 75.72 63.18 79.78 63.30 84.00 C 63.30 110.67 63.32 137.35 63.29 164.02 C 63.16 168.28 64.39 172.39 65.31 176.50 C 63.08 173.46 62.15 169.72 62.26 165.99 C 62.22 138.32 62.26 110.65 62.24 82.99 Z" />
<path fill="#0b1939" opacity="0.36" d=" M 448.48 120.41 C 464.62 120.30 480.76 120.33 496.91 120.37 C 503.68 120.32 510.49 121.61 516.59 124.63 C 513.41 124.17 510.29 123.42 507.20 122.58 C 501.59 121.09 495.74 121.39 490.00 121.37 C 476.15 121.37 462.30 121.39 448.45 121.36 C 448.46 121.12 448.47 120.65 448.48 120.41 Z" />
<path fill="#091732" opacity="0.33" d=" M 558.04 140.04 C 562.95 146.10 564.37 153.95 567.00 161.09 L 567.00 172.58 L 566.84 171.19 C 566.00 160.31 562.64 149.87 558.04 140.04 Z" />
<path fill="#1a3e8a" opacity="0.89" d=" M 566.84 171.19 L 567.00 172.58 L 567.00 420.12 L 566.60 418.73 C 565.50 413.57 566.06 408.28 566.01 403.05 C 565.99 328.02 566.02 252.98 565.99 177.96 C 566.07 175.68 566.49 173.44 566.84 171.19 Z" />
<path fill="#1e479c" opacity="1.00" d=" M 60.78 227.53 C 90.19 227.11 119.61 227.46 149.02 227.35 C 212.02 227.35 275.01 227.35 338.01 227.35 C 346.08 227.42 354.15 227.17 362.21 227.52 C 364.90 229.54 367.90 232.28 367.52 235.99 C 367.35 239.33 364.55 241.60 362.14 243.53 C 361.74 243.52 360.94 243.51 360.54 243.51 C 266.67 243.27 172.80 243.48 78.93 243.40 C 72.37 243.33 65.74 243.91 59.28 242.47 L 58.98 242.42 C 57.39 240.20 55.10 237.93 55.52 234.95 C 55.69 231.67 58.40 229.41 60.78 227.53 Z" />
<path fill="#0c1c3e" opacity="0.40" d=" M 59.28 242.47 C 65.74 243.91 72.37 243.33 78.93 243.40 C 172.80 243.48 266.67 243.27 360.54 243.51 C 359.45 244.07 358.25 244.44 357.01 244.40 C 259.66 244.34 162.31 244.41 64.96 244.36 C 62.95 244.27 60.63 244.22 59.28 242.47 Z" />
<path fill="#1e479c" opacity="1.00" d=" M 61.63 278.69 C 64.38 278.20 67.20 278.46 69.98 278.41 C 166.33 278.44 262.69 278.39 359.04 278.44 C 364.04 278.21 368.61 283.54 367.30 288.45 C 366.58 291.04 364.41 292.75 362.51 294.49 C 357.99 294.82 353.47 294.73 348.96 294.73 C 261.65 294.73 174.34 294.73 87.04 294.73 C 78.23 294.63 69.42 294.94 60.62 294.53 C 57.48 292.29 54.96 288.89 55.48 284.85 C 56.81 282.22 58.64 279.55 61.63 278.69 Z" />
<path fill="#1e479c" opacity="1.00" d=" M 76.00 323.88 C 77.32 323.52 78.62 323.14 79.93 322.73 C 82.63 322.53 85.33 322.40 88.04 322.41 C 111.05 322.42 134.05 322.41 157.06 322.41 C 159.72 322.42 162.37 322.54 165.03 322.75 C 178.26 325.66 189.77 335.60 193.33 348.86 C 195.15 355.06 194.56 361.59 194.65 367.97 C 194.46 381.67 195.08 395.38 194.27 409.06 C 193.79 410.67 193.32 412.29 192.86 413.92 C 189.63 424.43 181.08 432.95 170.88 436.85 C 166.15 438.71 161.03 438.79 156.02 438.81 C 133.67 438.81 111.31 438.80 88.96 438.82 C 84.23 438.76 79.40 438.82 74.88 437.23 C 73.89 436.86 72.89 436.52 71.88 436.18 C 63.39 432.39 56.63 425.53 52.63 417.17 C 52.59 416.92 52.51 416.43 52.47 416.18 C 51.86 412.09 50.97 408.05 49.88 404.07 C 49.57 388.42 49.63 372.73 49.86 357.07 L 50.08 356.39 C 51.06 353.81 51.28 351.06 51.54 348.36 C 51.66 347.59 51.80 346.83 51.97 346.08 C 56.16 335.58 65.03 326.95 76.00 323.88 M 159.02 339.19 C 134.68 339.18 110.33 339.20 85.99 339.18 C 83.18 339.06 80.43 339.67 77.79 340.60 C 71.38 343.95 66.49 350.59 66.47 357.97 C 66.42 372.65 66.49 387.33 66.44 402.00 C 66.32 404.79 66.99 407.50 67.74 410.16 C 69.99 415.03 73.94 419.06 78.88 421.22 C 80.22 421.52 81.57 421.86 82.89 422.30 C 87.93 422.76 92.98 422.50 98.03 422.56 C 119.38 422.41 140.74 422.87 162.08 422.32 C 169.74 420.55 176.99 414.26 177.50 406.06 C 177.72 406.29 178.17 406.74 178.39 406.96 C 178.72 389.62 178.62 372.27 178.44 354.93 C 178.22 355.18 177.78 355.70 177.56 355.95 C 177.21 346.75 168.19 338.75 159.02 339.19 Z" />
<path fill="#1e479c" opacity="1.00" d=" M 233.47 330.47 C 235.67 330.29 237.86 330.12 240.07 330.11 C 279.04 330.13 318.01 330.11 356.98 330.12 C 359.09 330.14 361.19 330.29 363.30 330.42 C 364.96 332.03 366.43 333.84 367.55 335.88 C 368.07 339.90 365.83 343.45 362.47 345.46 C 361.32 345.70 360.17 345.95 359.02 346.23 C 318.66 346.41 278.29 346.24 237.92 346.32 C 234.24 345.78 231.06 343.59 229.59 340.13 C 229.57 338.68 229.55 337.24 229.52 335.80 C 230.60 333.85 231.92 332.06 233.47 330.47 Z" />
<path fill="#0f2450" opacity="0.51" d=" M 51.54 348.36 C 51.28 351.06 51.06 353.81 50.08 356.39 C 49.14 353.62 49.90 350.69 51.54 348.36 Z" />
<path fill="#0d1f46" opacity="0.45" d=" M 177.56 355.95 C 177.78 355.70 178.22 355.18 178.44 354.93 C 178.62 372.27 178.72 389.62 178.39 406.96 C 178.17 406.74 177.72 406.29 177.50 406.06 C 177.70 389.36 177.58 372.66 177.56 355.95 Z" />
<path fill="#1e479c" opacity="1.00" d=" M 233.84 381.47 C 253.86 380.86 273.91 381.37 293.94 381.20 C 315.96 381.24 337.98 381.13 359.99 381.25 C 363.31 380.80 365.41 383.60 367.11 385.96 C 368.77 390.71 365.41 397.04 360.01 396.77 C 326.35 396.92 292.68 396.79 259.02 396.83 C 250.61 396.71 242.19 397.12 233.79 396.55 C 230.78 394.20 228.80 390.71 229.53 386.80 C 230.63 384.77 232.11 382.99 233.84 381.47 Z" />
<path fill="#0f234e" opacity="0.50" d=" M 52.47 416.18 C 50.19 412.64 49.25 408.24 49.88 404.07 C 50.97 408.05 51.86 412.09 52.47 416.18 Z" />
<path fill="#0d1f45" opacity="0.45" d=" M 566.60 418.73 L 567.00 420.12 L 567.00 432.18 C 565.09 437.55 564.95 443.43 562.25 448.52 C 564.24 438.67 566.10 428.79 566.60 418.73 Z" />
<path fill="#071228" opacity="0.26" d=" M 0.00 429.39 L 0.21 430.88 C 0.82 437.56 2.57 444.06 3.79 450.64 C 2.18 447.32 0.84 443.86 0.00 440.26 L 0.00 429.39 Z" />
<path fill="#1e479c" opacity="1.00" d=" M 229.59 437.87 C 231.15 434.46 234.19 432.24 237.88 431.67 C 278.30 431.70 318.71 431.70 359.13 431.67 C 364.15 432.34 368.27 436.94 367.55 442.13 C 366.18 444.91 364.08 447.23 361.19 448.45 C 319.40 448.52 277.61 448.52 235.83 448.45 C 232.98 447.24 230.71 445.08 229.51 442.22 C 229.54 440.76 229.57 439.31 229.59 437.87 Z" />
<path fill="#0e214a" opacity="0.47" d=" M 43.42 495.80 C 49.00 497.43 54.30 499.90 59.99 501.16 C 65.05 502.32 70.21 502.96 75.38 503.33 L 73.86 504.00 L 66.79 504.00 C 58.85 501.78 50.42 500.41 43.42 495.80 Z" />
<path fill="#0b1b3b" opacity="0.38" d=" M 487.14 503.22 C 495.51 502.34 503.57 499.95 511.80 498.33 C 505.86 501.33 499.14 501.96 492.87 504.00 L 485.45 504.00 L 487.14 503.22 Z" />
<path fill="#15326f" opacity="0.72" d=" M 75.38 503.33 C 79.90 502.59 84.48 502.82 89.03 502.84 C 214.67 502.85 340.31 502.84 465.95 502.85 C 473.02 502.91 480.09 502.57 487.14 503.22 L 485.45 504.00 L 73.86 504.00 L 75.38 503.33 Z" />
</svg>
