<?xml version="1.0" encoding="UTF-8" ?>
<!DOCTYPE svg PUBLIC "-//W3C//DTD SVG 1.1//EN" "http://www.w3.org/Graphics/SVG/1.1/DTD/svg11.dtd">
<svg width="450pt" height="688pt" viewBox="0 0 450 688" version="1.1" xmlns="http://www.w3.org/2000/svg">
<path fill="#183b83" opacity="0.84" d=" M 215.18 0.00 L 233.04 0.00 C 234.09 0.94 235.11 1.91 236.20 2.82 C 229.01 1.43 221.66 2.16 214.41 1.56 C 214.60 1.17 214.99 0.39 215.18 0.00 Z" />
<path fill="#102655" opacity="0.55" d=" M 233.04 0.00 L 236.01 0.00 C 238.09 1.34 240.20 2.63 242.47 3.63 C 252.54 7.99 261.78 15.13 267.09 24.88 C 269.66 29.95 272.26 35.21 272.91 40.94 C 273.70 48.65 273.04 56.52 270.99 64.00 C 269.76 69.26 267.59 74.31 267.10 79.74 C 278.96 88.05 291.42 95.46 303.42 103.56 C 334.14 123.53 364.79 143.62 395.64 163.38 C 406.65 170.36 417.64 177.81 426.06 187.91 C 433.21 196.60 436.77 207.71 437.44 218.83 C 436.23 228.49 433.70 237.99 429.85 246.94 C 427.62 252.64 424.67 258.04 422.72 263.85 C 428.73 270.96 435.38 277.53 441.11 284.88 C 444.20 289.05 447.03 293.62 448.03 298.79 C 448.67 303.27 448.67 307.82 448.20 312.33 C 443.81 323.86 435.48 333.26 426.60 341.60 C 420.89 346.88 414.85 351.83 409.49 357.47 C 407.98 358.89 407.46 360.93 407.55 362.94 C 407.60 430.63 407.61 498.31 407.60 566.00 C 407.67 569.95 407.22 573.96 407.89 577.89 C 411.23 583.15 416.88 586.39 421.28 590.70 C 432.16 600.45 444.86 610.62 447.94 625.71 C 447.86 630.20 447.89 634.69 447.95 639.19 C 439.03 658.82 423.29 675.68 403.41 684.39 C 401.70 684.92 399.62 686.38 397.94 685.07 C 395.06 682.98 392.51 680.49 389.82 678.19 C 388.67 677.03 387.11 675.90 387.08 674.11 C 387.94 672.11 389.82 670.82 391.40 669.41 C 404.36 658.82 417.93 648.26 426.95 633.90 C 422.20 620.23 412.58 608.08 399.73 601.24 C 395.81 599.28 391.48 598.25 387.74 595.92 C 393.70 595.96 398.92 599.11 403.82 602.14 C 414.04 608.55 421.93 618.32 426.76 629.31 C 427.61 631.42 428.55 634.01 427.10 636.11 C 422.42 643.85 415.61 649.94 409.23 656.24 C 402.57 662.71 394.87 667.95 388.06 674.23 C 391.16 678.10 395.07 681.18 399.09 684.04 C 416.27 678.78 430.19 665.73 439.94 650.98 C 443.58 644.88 448.19 638.45 447.36 630.96 C 446.77 619.34 439.38 609.48 431.31 601.69 C 424.56 594.72 416.72 588.97 409.65 582.34 C 407.65 580.33 405.01 578.19 405.35 575.03 C 405.46 507.02 405.32 439.01 405.35 371.00 C 405.44 366.84 404.93 362.62 405.68 358.50 C 407.76 355.32 411.33 353.56 414.10 351.06 C 426.37 340.03 439.89 329.07 446.29 313.37 C 448.44 306.38 447.81 298.35 444.04 292.01 C 438.70 282.07 429.85 274.80 422.88 266.11 C 420.88 264.11 422.16 261.22 423.03 259.01 C 426.27 251.76 429.86 244.59 431.81 236.85 C 433.00 231.96 435.09 227.17 434.72 222.03 C 434.40 215.69 435.66 208.99 432.94 203.02 C 430.33 196.74 426.95 190.70 422.29 185.71 C 413.24 175.77 401.57 168.86 390.39 161.63 C 349.92 135.89 310.08 109.19 269.65 83.38 C 268.09 82.29 266.46 81.19 265.36 79.60 C 265.73 74.51 267.93 69.77 268.82 64.77 C 270.12 57.29 272.57 49.73 271.12 42.08 C 269.73 35.13 268.13 27.94 263.84 22.13 C 257.18 12.83 247.10 6.10 236.20 2.82 C 235.11 1.91 234.09 0.94 233.04 0.00 Z" />
<path fill="#1e479c" opacity="1.00" d=" M 197.72 8.93 C 202.91 5.76 208.38 2.74 214.41 1.56 C 221.66 2.16 229.01 1.43 236.20 2.82 C 247.10 6.10 257.18 12.83 263.84 22.13 C 268.13 27.94 269.73 35.13 271.12 42.08 C 272.57 49.73 270.12 57.29 268.82 64.77 C 267.93 69.77 265.73 74.51 265.36 79.60 C 266.46 81.19 268.09 82.29 269.65 83.38 C 310.08 109.19 349.92 135.89 390.39 161.63 C 401.57 168.86 413.24 175.77 422.29 185.71 C 426.95 190.70 430.33 196.74 432.94 203.02 C 435.66 208.99 434.40 215.69 434.72 222.03 C 435.09 227.17 433.00 231.96 431.81 236.85 C 429.86 244.59 426.27 251.76 423.03 259.01 C 422.16 261.22 420.88 264.11 422.88 266.11 C 429.85 274.80 438.70 282.07 444.04 292.01 C 447.81 298.35 448.44 306.38 446.29 313.37 C 439.89 329.07 426.37 340.03 414.10 351.06 C 411.33 353.56 407.76 355.32 405.68 358.50 C 404.93 362.62 405.44 366.84 405.35 371.00 C 405.32 439.01 405.46 507.02 405.35 575.03 C 405.01 578.19 407.65 580.33 409.65 582.34 C 416.72 588.97 424.56 594.72 431.31 601.69 C 439.38 609.48 446.77 619.34 447.36 630.96 C 448.19 638.45 443.58 644.88 439.94 650.98 C 430.19 665.73 416.27 678.78 399.09 684.04 C 395.07 681.18 391.16 678.10 388.06 674.23 C 394.87 667.95 402.57 662.71 409.23 656.24 C 415.61 649.94 422.42 643.85 427.10 636.11 C 428.55 634.01 427.61 631.42 426.76 629.31 C 421.93 618.32 414.04 608.55 403.82 602.14 C 398.92 599.11 393.70 595.96 387.74 595.92 C 373.85 595.16 359.91 595.85 346.00 595.62 C 260.67 595.65 175.33 595.56 90.00 595.67 C 78.83 595.82 67.56 595.08 56.49 596.88 C 42.14 602.16 32.00 614.42 23.55 626.62 C 22.34 628.08 22.10 630.07 22.73 631.85 C 27.25 646.38 38.90 658.04 52.69 664.09 C 58.03 667.81 64.77 667.77 71.00 668.25 C 80.67 668.30 90.35 668.54 99.99 667.70 C 177.66 667.68 255.33 667.69 333.00 667.62 C 340.01 667.47 346.97 668.53 353.99 668.50 C 355.98 668.30 357.86 669.34 358.76 671.14 C 361.30 676.36 363.05 682.13 362.68 688.00 L 51.33 688.00 C 46.93 683.55 40.60 682.13 35.71 678.39 C 29.17 674.08 23.27 668.89 17.83 663.28 C 13.65 656.78 8.49 650.97 4.81 644.14 C 1.29 639.21 2.30 632.87 2.48 627.21 C 3.30 617.99 10.21 611.22 14.80 603.70 C 21.07 597.31 28.05 591.69 34.69 585.70 C 37.36 583.26 40.30 581.00 42.26 577.92 C 42.83 573.97 42.42 569.97 42.51 566.01 C 42.49 501.01 42.56 436.00 42.54 371.00 C 42.47 367.02 42.80 363.01 42.36 359.04 C 40.54 355.85 37.23 353.88 34.66 351.33 C 28.91 345.73 22.15 341.23 16.93 335.07 C 12.02 329.27 6.53 323.76 3.39 316.72 C 2.08 310.46 2.05 304.06 2.06 297.70 C 6.06 284.19 18.22 275.67 26.40 264.89 C 26.86 261.60 25.46 258.21 24.03 255.28 C 20.99 251.28 20.07 246.25 18.07 241.74 C 17.08 239.41 16.55 236.92 16.55 234.39 C 16.16 234.81 15.76 235.23 15.37 235.65 C 14.62 230.11 13.26 224.62 13.34 219.00 C 13.12 213.04 14.75 207.26 15.46 201.38 C 15.81 201.78 16.15 202.17 16.49 202.57 C 17.05 199.75 17.72 196.88 19.36 194.47 C 23.71 187.65 28.79 181.07 35.45 176.36 C 38.72 173.98 41.66 171.15 45.20 169.15 C 50.41 166.25 55.76 162.50 62.06 163.29 C 67.48 162.75 70.40 168.01 72.64 172.05 C 67.63 179.29 59.74 183.57 53.19 189.20 C 46.60 194.86 39.10 200.21 35.37 208.32 C 33.70 213.70 34.46 219.48 34.61 225.02 C 34.58 229.42 37.69 233.09 37.49 237.50 C 37.97 237.17 38.45 236.84 38.93 236.51 C 39.62 241.31 40.87 246.04 43.00 250.43 C 52.34 250.72 61.70 250.59 70.99 249.60 C 129.66 248.94 188.33 249.31 247.00 249.36 C 292.33 249.45 337.67 249.01 383.00 249.47 C 390.33 249.37 397.64 251.40 404.97 250.30 C 407.61 248.92 407.61 245.38 408.74 242.92 C 410.35 236.51 414.40 230.80 414.60 224.04 C 414.69 219.06 415.17 213.96 414.09 209.06 C 411.34 201.23 404.59 195.75 398.34 190.70 C 380.54 178.37 361.94 167.23 344.02 155.07 C 338.27 151.50 332.36 148.16 326.99 144.02 C 321.84 140.00 315.78 137.41 310.54 133.53 C 294.38 122.98 278.38 112.19 262.07 101.88 C 258.45 99.59 255.04 96.83 250.97 95.40 C 246.27 95.42 241.70 96.94 237.01 97.20 C 224.95 97.97 212.75 97.86 200.85 95.57 C 198.50 94.98 196.34 96.23 194.44 97.44 C 185.59 103.32 176.30 108.52 167.64 114.67 C 154.75 122.76 142.60 131.99 129.35 139.51 C 127.89 141.83 125.02 142.43 122.84 143.85 C 116.67 147.72 110.34 151.37 103.76 154.51 C 103.99 155.03 104.21 155.54 104.44 156.06 C 102.63 156.23 100.82 156.41 99.01 156.34 C 92.92 155.71 87.79 149.21 89.80 143.12 C 91.94 140.07 95.55 138.63 98.41 136.39 C 103.08 132.79 108.00 129.53 112.71 125.98 C 118.40 121.51 124.95 118.32 130.71 113.97 C 139.41 108.59 147.87 102.84 156.66 97.63 C 165.40 92.27 173.76 86.31 182.51 80.98 C 182.70 77.34 182.21 73.71 181.52 70.14 C 181.17 71.04 180.82 71.95 180.49 72.85 C 180.29 69.25 179.69 65.69 179.47 62.09 C 179.15 63.01 178.83 63.93 178.52 64.86 C 177.39 56.61 177.12 48.27 177.46 39.95 C 177.64 35.73 179.47 31.84 181.05 28.00 C 184.25 19.95 191.02 14.09 197.72 8.93 M 217.38 21.42 C 210.89 23.44 205.21 27.70 201.25 33.19 C 197.01 40.02 197.02 48.30 197.62 56.05 C 199.17 62.17 201.60 68.30 206.71 72.33 C 214.71 79.73 227.39 80.61 236.95 75.86 C 243.27 72.07 248.49 66.20 251.16 59.30 C 252.89 55.07 252.51 50.41 252.41 45.95 C 251.72 36.76 245.32 29.17 237.95 24.22 C 231.80 20.79 224.19 19.25 217.38 21.42 M 61.23 268.25 C 55.83 270.36 50.19 272.07 45.42 275.48 C 34.18 283.23 25.52 294.50 20.12 306.98 C 28.28 318.19 36.82 329.84 48.83 337.18 C 55.97 341.74 64.70 342.77 73.00 342.37 C 174.00 342.35 275.00 342.36 376.00 342.37 C 383.35 342.69 391.03 342.10 397.68 338.71 C 410.94 331.80 419.38 318.95 429.22 308.18 C 431.27 306.56 429.69 304.11 428.44 302.58 C 420.65 293.11 413.85 282.44 403.60 275.36 C 398.99 271.88 393.52 269.87 388.08 268.08 C 384.16 266.91 380.02 267.55 376.00 267.44 C 275.00 267.41 174.00 267.44 73.01 267.42 C 69.09 267.57 64.97 266.74 61.23 268.25 M 178.21 360.34 C 177.19 362.40 176.68 364.67 176.77 366.98 C 176.82 385.66 176.84 404.35 176.76 423.04 C 176.78 424.62 177.10 426.17 177.43 427.72 C 178.91 427.76 180.47 427.66 181.64 426.63 C 194.55 417.69 207.70 407.08 223.99 405.81 C 228.86 406.12 233.71 407.15 238.36 408.65 C 248.14 412.56 256.57 419.01 265.38 424.65 C 267.58 425.96 269.92 428.57 272.63 426.88 C 272.62 405.90 272.60 384.92 272.64 363.94 C 272.62 362.62 272.79 360.30 270.82 360.46 C 239.96 360.25 209.08 360.48 178.21 360.34 M 293.01 361.36 C 291.89 365.82 292.61 370.45 292.43 375.00 C 292.64 392.21 292.15 409.44 292.61 426.65 C 298.08 425.13 302.11 420.55 307.47 418.61 C 307.17 418.26 306.87 417.93 306.58 417.60 C 314.62 414.56 321.20 408.05 329.87 406.64 C 337.22 404.59 345.31 404.89 352.39 407.81 C 357.00 409.99 361.94 411.67 366.02 414.82 C 372.14 418.58 378.13 422.56 384.01 426.67 C 384.38 426.28 385.12 425.51 385.49 425.13 C 385.64 405.75 385.47 386.37 385.63 366.99 C 385.68 365.09 385.49 363.20 384.98 361.38 C 354.32 361.51 323.66 361.53 293.01 361.36 M 63.38 362.19 C 63.32 375.46 63.40 388.73 63.35 402.00 C 62.71 410.26 62.07 418.65 63.24 426.88 C 66.57 426.81 68.91 424.37 71.45 422.57 C 80.00 417.02 88.36 410.87 97.94 407.21 C 107.29 403.71 117.33 405.69 126.65 408.16 C 126.23 408.61 125.81 409.06 125.40 409.52 C 127.62 409.53 129.82 410.11 131.69 411.35 C 135.94 414.05 140.32 416.54 144.43 419.46 C 148.42 421.83 151.81 425.18 156.24 426.80 C 157.12 425.70 157.52 424.44 157.44 423.04 C 157.38 404.01 157.40 384.99 157.43 365.96 C 157.58 364.34 157.05 362.81 156.15 361.49 C 126.75 361.53 97.36 361.46 67.96 361.54 C 66.41 361.54 64.88 361.82 63.38 362.19 M 102.75 427.97 C 100.25 429.76 96.97 429.87 94.51 431.72 C 86.14 436.82 78.41 442.87 70.24 448.27 C 68.08 449.76 65.61 450.84 63.71 452.68 C 62.35 455.24 62.72 458.22 62.67 461.01 C 62.79 467.69 62.58 474.37 62.73 481.05 C 62.75 483.17 64.12 484.99 65.94 485.97 C 78.85 493.75 90.10 504.59 104.52 509.62 C 111.89 512.44 119.49 508.56 125.84 504.98 C 135.92 499.61 144.40 491.68 154.57 486.49 C 157.00 484.99 157.42 481.64 157.39 479.03 C 157.19 470.37 157.73 461.69 157.24 453.06 C 152.02 448.75 145.82 445.73 140.66 441.30 C 137.42 438.32 133.19 436.84 129.68 434.25 C 126.01 431.43 121.54 430.02 117.59 427.67 C 112.95 425.73 107.32 425.88 102.75 427.97 M 215.67 428.60 C 212.59 430.28 209.08 431.13 206.29 433.35 C 197.02 439.25 188.23 445.88 179.18 452.11 C 176.88 453.19 177.61 455.95 177.49 457.99 C 177.66 466.01 177.45 474.04 177.73 482.06 C 177.83 485.78 181.66 487.04 184.33 488.67 C 193.39 494.10 201.41 501.19 210.89 505.94 C 216.85 509.59 224.42 512.02 231.22 509.37 C 234.03 508.57 236.34 506.47 239.35 506.27 C 239.48 505.74 239.60 505.22 239.73 504.71 C 248.27 502.16 254.17 494.78 262.18 491.20 C 262.41 490.71 262.64 490.23 262.87 489.76 C 265.83 487.35 271.30 486.67 271.43 482.06 C 271.51 473.02 271.53 463.99 271.55 454.95 C 271.98 452.77 269.99 451.56 268.44 450.55 C 258.41 444.24 249.13 436.81 238.94 430.77 C 235.85 429.71 232.83 428.55 229.96 426.98 C 225.26 425.84 219.86 425.91 215.67 428.60 M 330.01 429.24 C 327.53 429.78 325.14 430.70 322.99 432.05 C 312.42 438.41 302.76 446.12 292.50 452.93 C 292.36 463.30 292.39 473.69 292.55 484.07 C 296.21 487.31 300.69 489.38 304.48 492.45 C 314.65 499.03 324.36 506.82 336.12 510.35 C 342.52 511.82 348.30 507.87 354.25 506.27 C 354.39 505.77 354.54 505.27 354.69 504.78 C 363.98 501.15 371.06 493.71 379.45 488.51 C 381.66 486.61 385.78 485.52 385.61 482.05 C 385.71 474.03 385.49 466.01 385.62 457.99 C 385.48 455.64 386.20 452.65 383.79 451.21 C 374.57 445.95 366.72 438.55 357.23 433.68 C 354.01 432.22 351.47 429.05 347.64 429.39 C 347.56 428.81 347.49 428.24 347.42 427.67 C 341.84 426.49 334.52 424.72 330.01 429.24 M 153.48 510.34 L 154.17 511.07 C 145.95 515.74 138.78 522.21 130.05 526.04 C 122.00 530.94 112.23 532.66 102.97 531.04 C 91.96 528.41 82.69 521.66 73.32 515.66 C 71.46 514.38 69.25 513.42 68.02 511.43 C 67.58 511.35 66.70 511.20 66.26 511.12 C 65.14 508.92 62.43 509.39 62.61 511.97 C 62.56 531.99 62.53 552.02 62.55 572.04 C 62.36 574.06 63.62 576.62 65.99 576.29 C 95.00 576.50 124.03 576.28 153.05 576.29 C 154.56 576.24 156.03 575.86 157.50 575.51 C 158.08 569.02 157.65 562.50 157.77 556.00 C 157.69 540.35 157.94 524.70 157.65 509.06 C 156.20 509.29 154.80 509.71 153.48 510.34 M 177.36 509.02 C 176.66 514.65 176.85 520.33 176.81 526.00 C 176.79 540.33 176.86 554.66 176.77 569.00 C 176.73 571.49 177.06 573.98 177.59 576.42 C 207.74 576.84 237.91 576.41 268.06 576.63 C 269.39 576.47 270.92 576.87 272.11 576.12 C 272.93 574.96 272.51 573.38 272.68 572.06 C 272.54 551.09 272.64 530.11 272.64 509.13 C 271.07 509.33 269.31 509.10 267.93 510.03 C 259.12 516.35 250.27 522.84 240.36 527.37 C 233.62 529.71 226.39 532.36 219.18 530.67 C 208.25 528.00 198.37 522.26 189.33 515.73 C 185.31 513.55 181.89 510.10 177.36 509.02 M 381.65 511.71 C 378.74 515.07 374.28 516.24 370.90 518.98 C 365.58 523.37 359.07 525.91 352.89 528.82 C 348.24 531.01 343.12 531.88 338.00 531.53 C 328.60 531.87 320.39 526.73 312.35 522.57 C 306.54 518.67 300.99 514.32 294.87 510.87 C 294.33 510.76 293.24 510.55 292.70 510.44 C 292.27 526.94 292.40 543.48 292.42 560.00 C 292.64 564.80 291.93 569.77 293.56 574.40 C 295.67 574.88 297.79 575.41 299.97 575.41 C 326.99 575.71 354.01 575.39 381.03 575.54 C 382.58 575.57 384.11 575.32 385.62 574.95 C 385.95 572.98 386.42 571.01 386.32 569.02 C 384.98 559.40 385.89 549.67 385.62 540.00 C 385.15 530.05 387.62 520.05 385.68 510.16 C 384.26 510.45 382.59 510.41 381.65 511.71 Z" />
<path fill="#11295b" opacity="0.59" d=" M 61.23 268.25 C 64.97 266.74 69.09 267.57 73.01 267.42 C 174.00 267.44 275.00 267.41 376.00 267.44 C 380.02 267.55 384.16 266.91 388.08 268.08 C 393.52 269.87 398.99 271.88 403.60 275.36 C 413.85 282.44 420.65 293.11 428.44 302.58 C 429.69 304.11 431.27 306.56 429.22 308.18 C 419.38 318.95 410.94 331.80 397.68 338.71 C 391.03 342.10 383.35 342.69 376.00 342.37 C 275.00 342.36 174.00 342.35 73.00 342.37 C 64.70 342.77 55.97 341.74 48.83 337.18 C 36.82 329.84 28.28 318.19 20.12 306.98 C 25.52 294.50 34.18 283.23 45.42 275.48 C 50.19 272.07 55.83 270.36 61.23 268.25 M 62.11 269.66 C 43.99 274.23 30.16 288.86 22.41 305.33 C 21.82 307.81 24.03 309.80 25.27 311.71 C 33.44 322.39 42.29 333.82 55.27 338.77 C 58.97 340.31 63.05 340.35 67.00 340.38 C 173.68 340.30 280.37 340.51 387.05 340.27 C 399.21 339.12 408.60 330.01 416.18 321.17 C 420.37 316.03 424.97 311.24 429.11 306.06 C 426.05 301.48 422.36 297.37 419.07 292.96 C 411.25 282.56 401.30 272.64 388.17 269.69 C 385.51 268.89 382.72 269.23 379.99 269.24 C 274.33 269.49 168.65 269.35 62.99 269.37 C 62.77 269.44 62.33 269.59 62.11 269.66 Z" />
<path fill="#1e479c" opacity="1.00" d=" M 62.11 269.66 C 62.33 269.59 62.77 269.44 62.99 269.37 C 168.65 269.35 274.33 269.49 379.99 269.24 C 382.72 269.23 385.51 268.89 388.17 269.69 C 364.12 269.27 340.06 269.64 316.00 269.51 C 256.00 269.51 196.00 269.51 136.00 269.51 C 111.37 269.63 86.73 269.28 62.11 269.66 Z" />
<path fill="#132e65" opacity="0.65" d=" M 0.00 298.53 C 0.51 298.32 1.54 297.90 2.06 297.70 C 2.05 304.06 2.08 310.46 3.39 316.72 C 2.30 315.20 1.12 313.75 0.00 312.26 L 0.00 298.53 Z" />
<path fill="#08142d" opacity="0.29" d=" M 448.03 298.79 C 448.53 299.20 449.51 300.01 450.00 300.42 L 450.00 310.38 C 449.55 310.87 448.65 311.84 448.20 312.33 C 448.67 307.82 448.67 303.27 448.03 298.79 Z" />
<path fill="#0e214a" opacity="0.47" d=" M 178.21 360.34 C 209.08 360.48 239.96 360.25 270.82 360.46 C 272.79 360.30 272.62 362.62 272.64 363.94 C 272.60 384.92 272.62 405.90 272.63 426.88 C 269.92 428.57 267.58 425.96 265.38 424.65 C 256.57 419.01 248.14 412.56 238.36 408.65 C 233.71 407.15 228.86 406.12 223.99 405.81 C 207.70 407.08 194.55 417.69 181.64 426.63 C 180.47 427.66 178.91 427.76 177.43 427.72 C 177.10 426.17 176.78 424.62 176.76 423.04 C 176.84 404.35 176.82 385.66 176.77 366.98 C 176.68 364.67 177.19 362.40 178.21 360.34 M 178.78 362.80 C 178.55 365.86 178.51 368.93 178.55 372.00 C 178.75 389.83 178.29 407.68 178.78 425.50 C 182.49 424.94 185.34 422.38 188.30 420.31 C 195.80 414.90 203.82 410.24 212.24 406.42 C 218.30 403.44 225.28 404.26 231.79 404.58 C 238.99 407.19 246.10 410.30 252.56 414.48 C 258.66 418.16 264.16 422.86 270.61 425.96 C 270.66 405.01 270.56 384.06 270.66 363.12 C 264.83 362.10 258.88 362.79 253.00 362.61 C 228.26 362.74 203.51 362.35 178.78 362.80 Z" />
<path fill="#0b1b3c" opacity="0.39" d=" M 153.48 510.34 C 154.80 509.71 156.20 509.29 157.65 509.06 C 157.94 524.70 157.69 540.35 157.77 556.00 C 157.65 562.50 158.08 569.02 157.50 575.51 C 156.03 575.86 154.56 576.24 153.05 576.29 C 124.03 576.28 95.00 576.50 65.99 576.29 C 63.62 576.62 62.36 574.06 62.55 572.04 C 62.53 552.02 62.56 531.99 62.61 511.97 C 62.43 509.39 65.14 508.92 66.26 511.12 C 65.79 511.19 64.83 511.32 64.35 511.39 C 63.86 522.91 64.56 534.47 63.96 546.00 C 63.97 555.31 63.61 564.64 64.12 573.94 C 68.06 574.45 72.04 574.46 76.00 574.37 C 102.68 574.27 129.37 574.54 156.03 573.97 C 156.80 556.00 156.05 537.99 156.41 520.00 C 156.25 516.91 157.18 513.08 154.17 511.07 L 153.48 510.34 Z" />
<path fill="#0e2149" opacity="0.47" d=" M 177.36 509.02 C 181.89 510.10 185.31 513.55 189.33 515.73 C 198.37 522.26 208.25 528.00 219.18 530.67 C 226.39 532.36 233.62 529.71 240.36 527.37 C 250.27 522.84 259.12 516.35 267.93 510.03 C 269.31 509.10 271.07 509.33 272.64 509.13 C 272.64 530.11 272.54 551.09 272.68 572.06 C 272.51 573.38 272.93 574.96 272.11 576.12 C 270.92 576.87 269.39 576.47 268.06 576.63 C 237.91 576.41 207.74 576.84 177.59 576.42 C 177.06 573.98 176.73 571.49 176.77 569.00 C 176.86 554.66 176.79 540.33 176.81 526.00 C 176.85 520.33 176.66 514.65 177.36 509.02 M 266.74 512.73 C 261.40 516.84 255.59 520.28 249.92 523.91 C 242.36 528.39 234.05 532.66 225.00 532.20 C 215.41 532.77 206.62 528.12 198.60 523.43 C 191.94 519.66 186.14 514.31 178.89 511.65 C 178.40 516.41 178.59 521.21 178.58 526.00 C 178.74 542.05 178.24 558.13 178.83 574.17 C 206.87 574.72 234.94 574.18 262.99 574.44 C 265.57 574.49 268.14 574.35 270.69 573.94 C 270.52 552.96 270.68 531.99 270.61 511.01 C 269.26 511.43 267.86 511.82 266.74 512.73 Z" />
<path fill="#0e224b" opacity="0.48" d=" M 0.00 625.99 C 4.24 618.17 7.22 609.08 14.80 603.70 C 10.21 611.22 3.30 617.99 2.48 627.21 C 2.30 632.87 1.29 639.21 4.81 644.14 C 8.49 650.97 13.65 656.78 17.83 663.28 C 9.69 657.14 5.96 647.32 0.00 639.38 L 0.00 625.99 Z" />
<path fill="#08142b" opacity="0.28" d=" M 447.94 625.71 C 448.46 626.15 449.49 627.04 450.00 627.48 L 450.00 637.55 C 449.49 637.96 448.46 638.78 447.95 639.19 C 447.89 634.69 447.86 630.20 447.94 625.71 Z" />
</svg>
