<?xml version="1.0" encoding="UTF-8" ?>
<!DOCTYPE svg PUBLIC "-//W3C//DTD SVG 1.1//EN" "http://www.w3.org/Graphics/SVG/1.1/DTD/svg11.dtd">
<svg width="654pt" height="654pt" viewBox="0 0 654 654" version="1.1" xmlns="http://www.w3.org/2000/svg">
<path fill="#0d2148" opacity="0.47" d=" M 313.64 0.00 L 340.35 0.00 C 347.83 2.85 355.82 4.86 362.22 9.90 C 354.64 6.75 347.26 2.74 338.99 1.74 C 331.40 0.17 323.56 -0.06 315.97 1.60 C 307.38 2.62 299.68 6.69 291.78 9.89 C 298.22 4.94 306.21 2.97 313.64 0.00 Z" />
<path fill="#1e479c" opacity="1.00" d=" M 315.97 1.60 C 323.56 -0.06 331.40 0.17 338.99 1.74 C 347.26 2.74 354.64 6.75 362.22 9.90 C 371.54 15.62 378.68 24.01 386.45 31.55 C 401.20 46.15 415.68 61.05 430.56 75.51 C 432.15 76.52 434.06 76.76 435.92 76.74 C 461.28 76.59 486.64 76.67 512.00 76.69 C 520.99 76.59 529.60 79.41 538.11 81.94 C 560.94 92.10 577.52 115.81 577.61 141.01 C 577.66 167.35 577.64 193.68 577.61 220.02 C 577.37 222.04 578.47 223.75 579.86 225.11 C 598.24 243.40 616.61 261.71 634.86 280.13 C 642.41 287.61 647.66 297.02 650.99 307.05 C 652.08 315.58 654.57 324.14 653.19 332.79 C 652.45 337.51 651.75 342.23 650.99 346.94 C 648.65 353.30 646.07 359.66 642.10 365.20 C 637.40 372.01 631.23 377.59 625.45 383.45 C 610.12 398.79 594.76 414.11 579.44 429.46 C 576.94 431.59 577.70 435.07 577.59 437.96 C 577.59 448.33 577.79 458.70 577.54 469.06 C 577.11 476.13 568.00 479.07 562.60 475.39 C 559.62 473.33 558.49 469.52 558.57 466.06 C 558.62 418.37 558.56 370.69 558.60 323.00 C 558.53 319.51 558.88 315.99 558.35 312.53 C 556.52 309.80 553.90 307.72 551.62 305.38 C 544.42 298.24 537.28 291.05 530.10 283.90 C 526.99 280.79 524.27 277.21 520.52 274.82 C 520.36 350.54 520.48 426.27 520.46 502.00 C 520.25 507.01 521.52 512.81 518.02 517.01 C 514.90 521.01 508.56 521.65 504.82 518.15 C 501.61 515.84 501.50 511.67 501.11 508.12 C 497.06 511.02 493.99 515.00 490.42 518.43 C 478.53 530.19 466.82 542.14 454.85 553.82 C 453.45 555.22 452.17 556.73 451.10 558.40 C 470.72 558.86 490.36 558.44 509.99 558.60 C 520.26 559.06 530.35 555.35 538.78 549.68 C 550.87 540.80 559.08 526.18 558.55 510.98 C 558.41 506.79 558.26 501.84 561.96 498.99 C 566.58 494.28 575.62 496.60 577.30 503.02 C 578.65 515.60 576.82 528.67 571.09 540.03 C 561.47 560.09 541.40 574.58 519.32 577.41 C 491.52 577.20 463.71 577.49 435.91 577.26 C 434.06 577.24 432.16 577.47 430.57 578.50 C 416.00 592.59 401.88 607.19 387.45 621.45 C 379.33 629.30 371.92 638.10 362.21 644.10 C 354.11 647.64 346.02 651.66 337.09 652.57 C 327.52 654.65 317.67 653.16 308.32 650.74 C 302.62 649.02 297.31 646.27 291.78 644.11 C 286.21 640.53 281.25 636.09 276.60 631.40 C 260.48 615.19 244.17 599.16 228.16 582.84 C 225.79 580.70 223.63 577.30 220.02 577.62 C 194.68 577.65 169.34 577.63 144.00 577.64 C 126.20 578.23 108.29 570.87 95.92 558.09 C 83.35 545.97 75.99 528.47 76.37 510.99 C 76.36 485.33 76.35 459.67 76.38 434.01 C 76.67 431.70 75.12 429.91 73.61 428.41 C 59.03 413.99 44.58 399.42 30.06 384.94 C 23.64 378.38 16.68 372.25 11.49 364.61 C 7.72 359.22 5.27 353.07 3.00 346.95 C 1.94 338.41 -0.57 329.86 0.81 321.21 C 1.55 316.49 2.26 311.77 3.00 307.05 C 5.27 300.93 7.70 294.77 11.48 289.39 C 17.03 281.43 24.35 274.99 31.11 268.11 C 45.32 253.98 59.36 239.66 73.67 225.63 C 74.87 224.28 76.47 222.88 76.34 220.90 C 76.59 208.58 76.03 196.24 76.56 183.94 C 77.90 176.46 89.11 174.62 93.37 180.54 C 96.02 184.14 95.38 188.81 95.45 193.01 C 95.37 239.33 95.46 285.66 95.40 331.99 C 95.45 335.17 95.14 338.39 95.65 341.55 C 97.82 344.89 101.10 347.30 103.84 350.15 C 112.11 358.55 120.63 366.71 128.74 375.27 C 130.19 376.72 131.76 378.06 133.48 379.17 C 133.66 300.76 133.49 222.34 133.56 143.93 C 133.50 139.93 135.80 135.37 139.93 134.41 C 143.22 134.09 147.25 133.59 149.72 136.30 C 152.51 138.67 152.44 142.55 152.89 145.87 C 156.77 143.15 159.70 139.35 163.08 136.08 C 175.31 124.00 187.35 111.74 199.61 99.68 C 200.82 98.43 201.96 97.08 202.89 95.60 C 182.61 95.16 162.30 95.54 142.01 95.41 C 135.69 95.22 129.52 97.00 123.80 99.54 C 109.63 105.51 99.15 119.03 96.13 134.03 C 95.01 138.91 95.70 143.95 95.32 148.90 C 95.03 152.58 92.18 155.66 88.84 156.97 C 84.06 158.75 78.09 155.98 76.70 150.99 C 74.96 135.90 78.24 120.20 86.55 107.40 C 98.23 89.08 119.08 76.45 141.01 76.38 C 165.68 76.36 190.35 76.33 215.01 76.40 C 218.45 76.30 222.61 77.19 225.07 74.09 C 242.69 56.38 260.41 38.75 278.06 21.05 C 282.21 16.85 286.81 13.09 291.78 9.89 C 299.68 6.69 307.38 2.62 315.97 1.60 M 293.61 32.62 C 247.38 78.70 201.29 124.94 155.09 171.06 C 153.85 172.41 152.35 173.90 152.62 175.92 C 152.69 192.73 152.44 209.55 152.75 226.36 L 153.89 226.56 C 156.84 224.31 159.21 221.43 161.87 218.87 C 214.72 166.04 267.51 113.16 320.40 60.38 C 325.47 54.36 335.81 58.56 336.53 65.95 C 337.23 69.49 334.53 72.16 333.16 75.12 C 333.37 75.42 333.79 76.03 334.00 76.33 C 356.78 76.34 379.58 76.51 402.35 76.24 L 402.61 75.11 C 400.85 72.66 398.52 70.72 396.42 68.58 C 384.91 57.08 373.41 45.58 361.92 34.07 C 357.31 29.48 351.98 25.52 345.92 23.06 C 328.66 15.40 307.08 19.35 293.61 32.62 M 310.35 97.39 C 299.19 108.54 288.18 119.86 276.80 130.79 C 275.99 131.56 275.44 132.54 274.96 133.54 C 353.32 133.56 431.68 133.55 510.04 133.54 C 513.88 133.36 517.77 135.52 519.42 139.03 C 519.97 142.78 520.62 147.57 517.19 150.19 C 514.86 152.77 511.26 152.51 508.12 152.76 C 510.02 156.12 513.29 158.34 515.92 161.08 C 528.84 174.13 541.98 186.97 554.81 200.11 C 555.90 201.16 557.01 202.27 558.49 202.80 C 558.72 183.20 558.51 163.60 558.58 144.00 C 559.40 125.28 547.48 106.77 530.21 99.57 C 524.77 97.23 518.99 95.24 512.99 95.44 C 446.63 95.39 380.27 95.41 313.91 95.43 C 312.38 95.22 311.35 96.49 310.35 97.39 M 255.22 153.07 C 252.40 154.89 250.30 157.59 247.90 159.90 C 216.89 190.90 185.91 221.93 154.88 252.90 C 153.71 253.95 152.91 255.31 153.20 256.93 C 153.31 304.31 153.08 351.69 153.31 399.05 C 155.59 402.55 158.95 405.17 161.83 408.16 C 189.51 435.81 217.16 463.51 244.84 491.17 C 248.29 494.46 251.32 498.25 255.20 501.06 C 257.74 501.70 260.41 501.30 263.01 501.40 C 305.34 501.37 347.67 501.38 390.00 501.39 C 392.92 501.29 395.93 501.72 398.81 501.07 C 401.59 499.15 403.79 496.54 406.20 494.20 C 437.03 463.37 467.85 432.52 498.71 401.72 C 500.04 400.50 501.08 398.93 500.79 397.04 C 500.70 349.67 500.91 302.29 500.69 254.93 C 498.79 252.03 495.98 249.88 493.61 247.39 C 463.79 217.54 433.91 187.75 404.13 157.87 C 401.75 155.77 399.67 152.26 396.06 152.60 C 350.70 152.61 305.34 152.65 259.97 152.58 C 258.40 152.72 256.67 152.30 255.22 153.07 M 427.24 153.71 C 482.17 208.14 536.60 263.06 591.40 317.62 C 593.64 319.99 596.20 322.62 596.47 326.04 C 597.22 331.75 591.64 337.26 585.96 336.53 C 583.17 336.32 581.11 334.12 578.77 332.85 C 578.50 333.15 577.97 333.75 577.71 334.05 C 577.55 356.39 577.64 378.74 577.66 401.08 C 577.94 401.52 578.48 402.41 578.75 402.85 C 592.73 389.15 606.48 375.18 620.34 361.34 C 629.74 352.24 635.29 339.13 634.69 326.00 C 634.87 313.50 629.21 301.33 620.42 292.59 C 574.60 246.75 528.75 200.94 482.95 155.09 C 481.57 153.87 480.08 152.39 478.08 152.63 C 461.71 152.64 445.34 152.54 428.97 152.67 C 428.54 152.93 427.67 153.45 427.24 153.71 M 72.50 253.59 C 60.08 266.14 47.56 278.59 35.08 291.07 C 29.15 296.79 24.17 303.69 21.68 311.62 C 15.97 328.24 20.26 347.82 32.61 360.39 C 78.72 406.60 124.95 452.70 171.06 498.91 C 172.43 500.13 173.92 501.60 175.92 501.37 C 192.73 501.32 209.56 501.54 226.36 501.26 L 226.57 500.12 C 224.16 497.00 221.09 494.47 218.37 491.64 C 166.03 439.31 113.72 386.95 61.35 334.65 C 59.61 332.78 57.63 330.69 57.52 328.00 C 56.80 322.32 62.35 316.71 68.05 317.46 C 70.84 317.67 72.89 319.88 75.24 321.16 C 75.50 320.86 76.03 320.25 76.29 319.95 C 76.40 297.18 76.47 274.39 76.25 251.63 C 74.62 250.74 73.65 252.83 72.50 253.59 M 497.56 429.66 C 444.34 483.07 390.91 536.28 337.66 589.66 C 335.02 592.17 332.60 595.32 328.95 596.38 C 322.59 597.80 316.09 591.33 317.56 584.96 C 318.39 582.74 319.89 580.89 320.98 578.81 C 320.73 578.53 320.23 577.96 319.98 577.68 C 298.65 577.53 277.32 577.73 255.99 577.59 C 254.43 577.81 252.10 577.00 251.23 578.80 C 264.87 592.80 278.88 606.46 292.68 620.32 C 301.56 629.44 314.19 635.12 327.00 634.69 C 339.80 635.03 352.43 629.45 361.41 620.43 C 407.25 574.60 453.05 528.75 498.92 482.95 C 500.16 481.59 501.65 480.10 501.38 478.08 C 501.27 461.30 501.63 444.49 501.20 427.72 C 499.60 426.72 498.69 428.95 497.56 429.66 M 95.50 451.18 C 95.30 471.45 95.47 491.73 95.43 511.99 C 95.13 520.11 98.13 527.96 101.96 534.98 C 109.68 548.50 124.50 557.58 139.99 558.54 C 206.01 558.68 272.03 558.51 338.04 558.62 C 339.54 558.49 341.38 558.93 342.52 557.64 C 354.22 546.28 365.39 534.36 377.32 523.24 C 378.15 522.49 378.61 521.47 378.99 520.45 C 300.65 520.45 222.30 520.45 143.96 520.46 C 139.65 520.62 134.53 517.73 134.28 513.04 C 134.15 510.04 133.73 506.42 136.31 504.27 C 138.64 501.35 142.50 501.40 145.88 501.24 C 145.39 500.40 144.86 499.58 144.22 498.86 C 128.94 483.82 113.76 468.67 98.70 453.40 C 97.78 452.44 96.72 451.70 95.50 451.18 Z" />
<path fill="#0d2046" opacity="0.45" d=" M 430.56 75.51 C 456.04 75.22 481.52 75.49 507.00 75.36 C 517.62 75.43 528.75 76.50 538.11 81.94 C 529.60 79.41 520.99 76.59 512.00 76.69 C 486.64 76.67 461.28 76.59 435.92 76.74 C 434.06 76.76 432.15 76.52 430.56 75.51 Z" />
<path fill="#1e479c" opacity="1.00" d=" M 302.45 173.90 C 315.16 171.50 328.16 172.36 341.01 172.50 C 356.09 174.03 371.03 177.52 385.12 183.15 C 417.34 196.38 444.98 220.60 462.09 250.97 C 472.90 269.58 478.92 290.70 481.44 311.99 C 481.84 321.65 481.78 331.34 481.50 341.01 C 479.66 359.11 474.84 376.92 467.17 393.43 C 450.61 427.94 421.05 456.09 385.60 470.61 C 371.37 476.37 356.30 480.05 341.01 481.50 C 331.34 481.79 321.66 481.84 311.99 481.43 C 293.94 479.34 276.01 474.75 259.75 466.51 C 218.62 447.03 187.00 408.36 176.48 364.04 C 174.72 356.45 173.18 348.78 172.49 341.01 C 172.21 331.34 172.16 321.66 172.55 311.99 C 175.11 289.00 182.12 266.25 194.53 246.62 C 209.61 221.36 232.42 201.09 258.55 187.78 C 272.40 181.02 287.26 176.40 302.45 173.90 M 309.37 192.25 C 281.82 195.81 255.44 208.14 235.08 227.05 C 206.67 252.92 189.83 291.48 191.35 330.00 C 191.06 343.92 194.13 357.67 198.33 370.87 C 202.12 380.57 206.00 390.36 211.89 399.01 C 236.14 438.76 282.38 464.18 329.00 462.65 C 359.29 462.93 389.05 451.30 412.62 432.57 C 441.01 409.41 459.66 374.58 462.47 338.00 C 462.99 323.87 462.90 309.54 459.23 295.79 C 454.00 273.71 443.19 252.91 427.91 236.12 C 415.26 221.56 399.03 210.50 381.55 202.55 C 364.72 195.27 346.40 190.94 328.00 191.34 C 321.78 191.41 315.52 191.16 309.37 192.25 Z" />
<path fill="#1e479c" opacity="1.00" d=" M 306.47 231.63 C 317.45 229.22 328.84 230.20 340.00 230.39 C 362.05 232.94 382.62 244.19 397.98 260.04 C 410.64 273.53 419.39 290.67 422.87 308.84 C 426.73 328.86 423.98 350.05 415.35 368.51 C 411.17 376.61 406.39 384.48 400.38 391.36 C 390.27 402.43 377.92 411.58 363.98 417.20 C 345.55 425.06 324.57 426.59 305.10 422.05 C 284.81 417.51 266.45 405.85 252.74 390.35 C 240.93 376.02 232.52 358.55 230.38 340.00 C 230.03 330.67 229.84 321.29 230.58 311.97 C 234.18 289.16 246.10 267.74 263.65 252.73 C 276.02 242.50 290.73 234.98 306.47 231.63 M 308.61 250.75 C 296.96 253.66 286.07 259.33 276.69 266.79 C 262.59 278.75 252.82 295.80 249.60 314.01 C 248.93 322.64 248.94 331.36 249.60 340.00 C 252.80 358.21 262.59 375.25 276.70 387.21 C 285.90 394.52 296.54 400.13 307.96 403.06 C 338.72 411.39 373.83 397.99 391.42 371.47 C 402.01 356.32 407.07 337.37 405.09 318.96 C 403.02 299.81 393.57 281.59 379.39 268.61 C 367.41 258.50 352.75 250.87 336.99 249.34 C 327.54 249.26 317.85 248.33 308.61 250.75 Z" />
<path fill="#0e2149" opacity="0.47" d=" M 0.00 313.55 C 0.97 311.37 2.03 309.23 3.00 307.05 C 2.26 311.77 1.55 316.49 0.81 321.21 C -0.57 329.86 1.94 338.41 3.00 346.95 C 2.03 344.77 0.98 342.63 0.00 340.47 L 0.00 313.55 Z" />
<path fill="#0d2047" opacity="0.46" d=" M 650.99 307.05 C 651.97 309.22 653.02 311.35 654.00 313.52 L 654.00 340.45 C 653.02 342.63 651.97 344.77 650.99 346.94 C 651.75 342.23 652.45 337.51 653.19 332.79 C 654.57 324.14 652.08 315.58 650.99 307.05 Z" />
<path fill="#0d1f45" opacity="0.44" d=" M 430.57 578.50 C 432.16 577.47 434.06 577.24 435.91 577.26 C 463.71 577.49 491.52 577.20 519.32 577.41 C 511.68 579.28 503.78 578.53 496.00 578.61 C 474.19 578.57 452.38 578.75 430.57 578.50 Z" />
<path fill="#0d2048" opacity="0.46" d=" M 291.78 644.11 C 297.31 646.27 302.62 649.02 308.32 650.74 C 317.67 653.16 327.52 654.65 337.09 652.57 C 346.02 651.66 354.11 647.64 362.21 644.10 C 355.86 649.22 347.81 651.08 340.37 654.00 L 313.65 654.00 C 306.23 651.03 298.24 649.04 291.78 644.11 Z" />
</svg>
