<?xml version="1.0" encoding="UTF-8" ?>
<!DOCTYPE svg PUBLIC "-//W3C//DTD SVG 1.1//EN" "http://www.w3.org/Graphics/SVG/1.1/DTD/svg11.dtd">
<svg width="596pt" height="679pt" viewBox="0 0 596 679" version="1.1" xmlns="http://www.w3.org/2000/svg">
<path fill="#091631" opacity="0.32" d=" M 262.38 0.00 L 271.58 0.00 C 268.40 2.16 264.56 2.46 260.84 2.28 C 261.23 1.71 262.00 0.57 262.38 0.00 Z" />
<path fill="#14306b" opacity="0.69" d=" M 271.58 0.00 L 293.53 0.00 C 279.89 3.34 265.57 1.33 252.00 4.99 C 241.10 5.72 230.79 10.03 219.88 10.44 C 219.45 10.17 218.59 9.62 218.16 9.35 C 220.72 9.13 223.58 9.80 225.90 8.41 C 229.10 6.21 233.37 7.86 236.69 5.91 C 240.07 3.96 244.28 5.63 247.68 3.83 C 251.65 1.53 256.47 2.64 260.84 2.28 C 264.56 2.46 268.40 2.16 271.58 0.00 Z" />
<path fill="#1e479c" opacity="1.00" d=" M 293.53 0.00 L 310.27 0.00 C 314.12 2.68 318.99 2.07 323.42 2.51 C 331.00 2.70 338.56 3.80 346.14 3.15 L 347.01 3.43 C 345.56 4.53 343.68 4.37 341.99 4.67 C 351.29 3.97 360.57 5.75 369.39 8.55 C 372.55 9.95 376.03 10.17 379.43 10.33 C 379.12 10.80 378.82 11.28 378.51 11.75 C 381.15 12.07 383.81 12.25 386.47 12.32 C 386.16 12.77 385.85 13.23 385.54 13.69 C 392.78 14.02 399.01 17.98 405.87 19.85 C 411.76 22.93 418.22 24.67 424.04 27.89 C 432.67 32.20 441.26 36.59 449.58 41.48 C 454.13 44.69 459.36 46.83 463.59 50.49 C 470.64 54.52 476.82 59.83 483.21 64.80 C 496.94 75.24 508.81 87.87 520.67 100.33 C 527.41 108.62 534.57 116.62 540.40 125.60 C 541.81 127.79 543.46 129.81 545.09 131.85 C 547.70 135.10 549.26 139.01 551.57 142.47 C 555.44 148.78 559.37 155.09 562.21 161.94 C 564.97 165.27 565.72 169.64 567.91 173.30 C 572.12 181.10 574.35 189.72 578.04 197.74 C 579.85 206.21 584.68 214.03 584.42 222.93 C 584.85 222.01 585.20 221.05 585.57 220.10 C 585.79 224.66 587.09 229.22 586.12 233.78 C 586.77 232.80 587.46 231.84 588.30 231.00 C 587.95 237.20 590.93 242.86 590.77 249.04 C 594.53 266.77 593.32 284.99 593.51 302.99 C 593.67 316.04 593.40 329.18 590.76 341.99 C 590.72 346.79 588.83 351.26 588.41 356.00 C 586.93 363.32 583.58 370.36 583.57 377.93 C 583.15 377.00 582.77 376.06 582.39 375.13 C 582.25 377.45 582.01 379.77 581.67 382.08 C 581.60 384.01 579.74 385.19 579.47 387.07 C 578.51 391.54 576.89 395.84 575.88 400.30 C 575.39 400.11 574.92 399.92 574.45 399.74 C 573.67 404.13 572.46 408.53 570.18 412.40 C 569.30 413.87 569.12 415.61 568.67 417.24 C 568.25 417.08 567.84 416.93 567.44 416.79 C 566.28 422.99 562.96 428.44 559.80 433.79 C 556.30 441.33 551.89 448.41 547.25 455.29 C 538.90 467.73 530.14 479.94 519.94 490.93 C 516.80 494.17 514.30 498.43 509.99 500.21 C 505.97 500.97 500.96 500.19 498.73 496.38 C 496.82 492.63 496.78 487.73 499.33 484.26 C 501.39 481.38 503.99 478.94 506.19 476.17 C 521.42 459.16 533.96 439.90 544.68 419.80 C 548.75 409.07 555.25 399.18 557.45 387.79 C 557.93 387.95 558.42 388.12 558.91 388.29 C 559.78 379.87 565.35 372.34 564.26 363.72 C 564.90 363.94 565.55 364.14 566.23 364.28 C 566.98 359.55 567.68 354.78 567.38 349.99 C 567.72 352.00 568.07 354.01 568.44 356.02 C 568.86 350.01 569.89 344.03 569.38 337.99 C 569.58 339.93 569.73 341.89 570.05 343.83 C 570.99 343.43 571.41 342.73 571.32 341.72 C 571.50 331.77 573.75 321.97 573.60 312.00 C 573.67 298.67 573.80 285.33 573.43 272.00 C 572.34 262.51 571.46 252.98 569.37 243.64 C 569.23 238.40 566.86 233.69 566.33 228.54 C 564.77 225.74 564.55 222.57 564.18 219.45 C 562.40 216.78 561.54 213.72 561.68 210.49 C 561.22 210.82 560.76 211.15 560.32 211.48 C 560.16 208.54 559.71 205.60 558.12 203.07 C 553.98 191.19 549.11 179.59 543.33 168.40 C 539.89 161.88 535.29 155.99 532.59 149.11 C 532.18 149.04 531.78 148.97 531.39 148.90 C 526.08 138.60 518.38 129.74 511.44 120.51 C 494.15 100.19 474.45 81.76 452.18 67.00 C 437.05 56.26 420.09 48.37 403.23 40.76 C 395.80 38.16 388.71 33.73 380.64 33.63 C 380.90 33.11 381.16 32.60 381.43 32.08 C 371.27 30.37 361.53 25.31 351.00 26.70 C 352.23 26.45 353.46 26.21 354.68 25.88 C 354.38 24.07 352.30 24.81 351.02 24.55 C 344.20 24.72 337.90 21.26 331.06 21.56 C 325.34 21.80 319.70 20.93 314.05 20.32 C 306.08 19.17 298.01 19.57 289.99 19.57 C 283.60 19.53 277.40 21.35 271.04 21.60 C 262.84 21.88 254.75 23.42 246.69 24.86 C 241.58 26.29 236.31 27.03 231.04 27.57 C 232.34 27.96 233.65 28.31 234.97 28.65 C 228.82 28.23 222.65 29.59 217.10 32.21 C 212.78 34.23 207.88 34.48 203.59 36.56 C 195.69 40.14 187.21 42.30 179.71 46.76 C 171.73 50.15 164.45 54.85 156.71 58.73 C 150.95 61.79 146.00 66.10 140.40 69.41 C 132.67 74.17 126.11 80.46 118.87 85.86 C 111.65 92.64 103.94 98.94 97.39 106.41 C 93.36 110.69 89.76 115.48 85.05 119.07 C 79.61 123.28 70.19 119.21 70.39 112.04 C 69.38 105.81 74.88 101.66 78.36 97.35 C 88.01 87.33 97.49 77.01 108.66 68.64 C 113.96 64.24 119.23 59.78 124.94 55.90 C 148.65 39.05 174.52 24.94 202.29 16.05 C 208.25 14.06 214.21 11.42 220.62 11.53 C 220.43 11.26 220.06 10.72 219.88 10.44 C 230.79 10.03 241.10 5.72 252.00 4.99 C 265.57 1.33 279.89 3.34 293.53 0.00 Z" />
<path fill="#15326e" opacity="0.71" d=" M 310.27 0.00 L 323.29 0.00 C 326.68 2.68 331.12 2.27 335.17 2.28 C 338.82 2.49 342.63 1.88 346.14 3.15 C 338.56 3.80 331.00 2.70 323.42 2.51 C 318.99 2.07 314.12 2.68 310.27 0.00 Z" />
<path fill="#0a1835" opacity="0.34" d=" M 323.29 0.00 L 333.59 0.00 C 333.99 0.57 334.77 1.71 335.17 2.28 C 331.12 2.27 326.68 2.68 323.29 0.00 Z" />
<path fill="#1e479c" opacity="1.00" d=" M 45.43 142.44 C 51.92 136.72 64.34 144.39 61.07 152.94 C 56.39 162.78 51.12 172.34 46.31 182.11 C 44.00 188.78 41.13 195.24 38.71 201.86 C 36.47 204.96 36.03 208.74 35.69 212.45 C 35.25 212.15 34.81 211.85 34.37 211.55 C 34.27 213.78 33.91 216.01 32.94 218.05 C 31.34 221.28 31.46 224.99 30.31 228.36 C 29.25 231.50 28.79 234.78 28.53 238.07 C 28.35 241.13 26.65 243.87 26.56 246.95 C 26.26 250.94 26.88 255.13 25.24 258.92 C 25.02 256.76 24.82 254.60 24.46 252.47 C 24.98 261.39 22.47 270.10 22.45 278.99 C 22.32 290.67 22.28 302.35 22.52 314.02 C 23.01 320.71 24.42 327.32 24.48 334.05 C 24.65 336.70 24.24 339.61 25.82 341.95 C 26.16 339.96 26.39 337.96 26.62 335.96 C 26.07 342.01 27.32 347.97 27.52 353.99 C 27.89 352.00 28.21 349.99 28.58 348.00 C 28.35 352.69 29.12 357.33 29.62 361.98 C 30.04 360.73 30.41 359.47 30.78 358.21 C 31.69 362.69 30.86 367.55 32.99 371.74 C 34.76 376.40 34.92 381.62 37.51 385.98 C 38.88 388.19 38.92 390.86 39.34 393.35 C 39.78 393.12 40.21 392.89 40.65 392.67 C 41.25 395.79 41.67 399.03 43.39 401.78 C 45.67 405.39 46.21 409.79 48.72 413.29 C 53.98 424.57 59.97 435.58 67.14 445.78 C 74.02 456.66 81.77 467.02 90.44 476.54 C 101.68 490.29 115.35 501.72 128.89 513.11 C 135.17 518.20 142.32 522.09 148.65 527.11 C 153.76 530.15 158.65 533.58 164.12 536.01 C 171.76 540.23 179.42 544.50 187.65 547.50 C 192.39 549.10 194.46 554.01 197.42 557.61 C 203.59 565.15 209.03 573.25 215.32 580.70 C 229.98 600.33 245.17 619.54 259.95 639.08 C 264.87 645.34 271.78 649.64 278.85 653.11 C 284.15 655.73 290.23 655.60 296.01 655.70 C 302.93 655.65 310.11 656.09 316.70 653.55 C 320.81 652.10 324.09 649.14 327.71 646.84 C 334.98 642.14 339.86 634.81 345.04 628.06 C 353.59 616.34 362.75 605.09 371.50 593.52 C 382.69 578.77 393.64 563.81 405.73 549.76 C 409.84 546.61 415.06 545.30 419.46 542.58 C 425.30 540.35 430.32 536.56 435.99 533.99 C 443.68 529.83 450.74 524.65 458.18 520.09 C 461.80 517.62 464.79 514.10 469.03 512.64 C 475.54 511.20 481.75 517.60 481.39 523.95 C 479.90 530.22 473.54 533.25 468.78 536.79 C 461.27 542.35 453.40 547.41 445.26 552.01 C 438.91 554.97 432.90 558.57 426.55 561.55 C 422.94 563.49 418.54 564.50 416.00 567.98 C 413.71 571.02 411.50 574.11 409.12 577.07 C 400.43 589.63 390.25 601.06 381.62 613.65 C 376.28 620.05 371.23 626.68 366.43 633.50 C 360.27 640.69 354.92 648.55 348.64 655.64 C 344.35 659.72 339.68 663.49 334.65 666.63 C 330.03 668.74 325.81 672.08 320.55 672.36 C 320.84 672.77 321.13 673.19 321.43 673.61 C 318.71 673.92 316.01 674.39 313.36 675.09 C 305.73 677.06 297.76 676.51 289.96 676.34 C 277.16 674.51 264.38 670.05 254.44 661.55 C 244.30 653.21 237.19 642.02 229.13 631.83 C 212.14 610.14 195.85 587.91 178.54 566.49 C 174.77 563.13 169.56 562.25 165.35 559.60 C 161.98 557.45 158.26 555.97 154.76 554.08 C 142.48 546.55 130.21 538.96 118.60 530.42 C 107.15 522.02 96.69 512.36 86.74 502.25 C 72.04 487.08 58.57 470.63 47.41 452.66 C 42.75 443.71 36.49 435.60 32.74 426.18 C 28.59 418.97 25.22 411.30 22.55 403.42 C 20.18 397.30 17.80 391.14 16.57 384.68 C 16.16 384.89 15.75 385.11 15.34 385.34 C 14.84 382.71 15.00 379.79 13.30 377.57 C 11.62 375.22 13.14 371.86 11.20 369.60 C 8.95 366.92 10.05 363.24 9.05 360.14 C 7.09 355.22 7.49 349.81 5.73 344.83 C 5.68 338.55 3.75 332.55 3.25 326.32 C 3.68 320.86 2.59 315.46 2.61 310.00 C 2.54 300.33 2.55 290.66 2.61 280.99 C 2.59 272.86 3.97 264.82 4.79 256.74 C 5.73 250.42 7.72 244.19 7.27 237.72 C 7.64 233.74 9.20 229.99 9.54 226.01 C 9.74 224.77 9.62 223.37 10.43 222.32 C 10.86 223.16 11.27 224.01 11.68 224.87 C 11.25 214.06 16.98 204.49 19.63 194.32 C 23.97 184.21 27.48 173.70 32.98 164.14 C 36.23 156.44 40.66 149.28 45.43 142.44 Z" />
<path fill="#1e479c" opacity="1.00" d=" M 273.30 145.22 C 278.55 146.18 283.74 144.27 289.01 144.48 C 301.98 144.49 315.30 143.54 327.81 147.56 C 329.94 147.43 330.71 149.94 332.85 149.85 C 339.37 150.88 344.57 155.16 350.57 157.51 C 355.39 160.63 360.06 163.99 364.65 167.46 C 372.18 173.93 378.71 181.47 384.57 189.45 C 385.68 192.69 388.52 194.87 389.86 197.98 C 391.20 200.94 392.67 203.83 394.06 206.76 C 395.88 211.42 396.65 216.45 398.87 220.97 C 402.28 233.33 401.77 246.32 401.43 259.03 C 400.74 263.54 399.70 268.00 399.20 272.54 C 397.51 275.66 397.63 279.49 395.51 282.37 C 394.47 286.10 393.39 289.88 391.21 293.15 C 382.99 310.14 369.49 324.35 353.76 334.71 C 349.99 337.88 344.89 338.66 341.01 341.67 C 339.68 342.82 337.55 342.99 336.58 344.46 C 336.39 358.63 336.58 372.82 336.48 387.00 C 336.55 393.90 336.22 401.01 333.76 407.54 C 333.27 407.18 332.80 406.82 332.35 406.44 C 332.88 409.88 330.40 412.17 328.78 414.81 C 322.86 422.25 314.48 427.80 305.05 429.40 C 296.85 430.05 288.21 429.95 280.72 426.13 C 272.41 421.18 264.90 413.91 261.83 404.53 C 260.82 400.09 260.30 395.55 260.37 391.00 C 260.39 374.67 260.25 358.33 260.43 342.00 C 260.37 336.70 261.62 331.51 261.69 326.22 C 263.80 320.10 266.71 314.27 269.36 308.36 C 271.55 303.23 275.42 299.09 278.60 294.57 C 282.11 289.45 287.41 286.07 292.06 282.11 C 294.62 279.89 297.67 278.39 300.35 276.34 C 301.81 275.27 303.92 275.26 304.96 273.63 C 308.22 273.46 310.31 271.04 313.31 270.17 C 318.03 267.14 321.24 262.20 323.22 257.05 C 325.45 252.71 324.40 247.68 324.62 242.99 C 324.78 235.49 319.82 229.08 313.95 224.94 C 308.29 219.80 300.09 220.10 292.97 220.56 C 289.84 221.34 286.30 221.85 283.93 224.21 C 279.10 226.46 275.44 230.82 273.44 235.70 C 270.27 241.49 271.14 248.39 270.32 254.75 C 268.10 264.72 261.88 273.81 253.13 279.16 C 251.45 280.37 248.91 279.98 247.83 282.00 C 240.68 285.31 232.62 284.80 224.95 284.45 C 219.57 283.50 214.15 281.66 209.97 278.02 C 206.61 275.06 202.98 272.23 200.62 268.35 C 197.68 263.71 195.67 258.46 194.70 253.05 C 193.93 244.33 194.60 235.57 196.22 226.98 C 196.05 222.11 199.55 218.22 199.41 213.34 C 199.81 213.77 200.22 214.21 200.62 214.65 C 200.76 212.38 200.94 210.09 201.59 207.90 C 202.08 207.58 202.56 207.26 203.06 206.94 C 203.65 205.20 203.81 203.25 205.27 201.98 C 207.75 195.17 211.77 189.00 216.45 183.49 C 224.55 172.25 235.76 163.58 247.63 156.62 C 253.44 154.14 258.67 150.09 265.15 149.39 C 265.46 148.89 265.77 148.38 266.08 147.88 C 268.94 147.26 271.93 147.41 274.80 146.74 C 274.31 146.21 273.81 145.71 273.30 145.22 M 278.69 166.45 C 274.63 166.43 270.85 167.99 267.07 169.28 C 263.03 170.64 259.77 173.77 255.47 174.45 C 255.81 174.82 256.15 175.20 256.50 175.58 C 252.39 176.01 249.86 179.57 246.44 181.48 C 240.15 186.82 234.19 192.70 229.50 199.53 C 227.48 201.96 225.65 204.55 224.69 207.59 C 223.05 208.97 222.84 211.08 222.33 213.03 C 219.55 215.51 219.41 219.75 218.06 223.07 C 214.68 229.76 215.66 237.68 215.41 245.00 C 215.70 248.92 214.45 253.46 217.28 256.72 C 221.58 264.01 231.48 267.62 239.33 264.21 C 244.47 261.61 249.25 257.16 250.07 251.19 C 252.38 245.72 250.94 239.69 252.35 234.04 C 257.26 216.95 272.53 203.45 289.97 200.64 C 294.63 200.36 299.32 200.46 303.99 200.47 C 310.84 200.39 317.30 203.28 322.92 207.00 C 328.40 209.56 332.49 214.10 336.27 218.68 C 346.40 232.11 347.89 250.79 342.14 266.31 C 339.04 271.37 335.93 276.50 331.78 280.78 C 329.43 282.80 326.85 284.52 324.37 286.37 C 320.08 289.59 314.73 291.07 310.58 294.46 C 303.46 296.66 298.79 302.70 293.77 307.80 C 290.01 312.59 286.44 317.68 284.46 323.48 C 281.75 328.58 280.70 334.27 280.57 340.00 C 280.27 356.67 280.49 373.34 280.41 390.00 C 280.51 393.35 280.33 396.91 281.70 400.03 C 284.20 402.88 286.42 406.10 289.63 408.23 C 296.34 410.16 305.01 410.83 310.21 405.24 C 313.15 402.15 316.55 398.58 316.49 394.02 C 316.69 380.01 316.66 366.00 316.61 352.00 C 316.53 347.05 317.34 342.15 317.57 337.21 C 318.63 332.44 323.10 329.61 326.65 326.71 C 331.59 323.89 336.49 321.03 341.68 318.68 C 353.86 311.17 364.58 300.68 370.97 287.77 C 372.70 286.26 373.27 284.16 373.71 281.98 C 377.64 278.44 376.85 272.32 380.14 268.32 C 380.54 261.56 381.84 254.82 381.56 248.00 C 381.81 240.41 380.78 232.87 379.91 225.37 C 379.37 225.76 378.85 226.17 378.33 226.58 C 378.49 223.25 378.22 219.74 376.13 217.03 C 372.26 207.54 367.18 198.40 359.88 191.11 C 352.12 182.85 343.25 175.15 332.42 171.29 C 329.10 168.72 324.87 168.16 321.02 166.74 C 311.39 163.30 301.01 164.75 291.00 164.48 C 286.92 164.84 282.04 163.66 278.69 166.45 Z" />
<path fill="#060f21" opacity="0.22" d=" M 2.61 261.54 C 4.78 253.68 3.36 245.15 7.27 237.72 C 7.72 244.19 5.73 250.42 4.79 256.74 C 3.97 264.82 2.59 272.86 2.61 280.99 C 2.55 290.66 2.54 300.33 2.61 310.00 C 2.59 315.46 3.68 320.86 3.25 326.32 C 0.96 320.94 2.60 314.78 0.00 309.46 L 0.00 280.53 C 3.00 274.58 1.26 267.82 2.61 261.54 Z" />
<path fill="#09152e" opacity="0.30" d=" M 594.17 275.07 C 594.79 275.77 595.40 276.49 596.00 277.23 L 596.00 314.18 C 595.52 314.28 594.56 314.48 594.08 314.58 C 593.36 301.43 593.35 288.21 594.17 275.07 Z" />
<path fill="#1e479c" opacity="1.00" d=" M 286.31 438.30 C 292.80 437.01 299.51 437.37 306.09 437.67 C 311.42 439.27 316.83 441.32 321.34 444.66 C 325.36 448.62 329.77 452.39 332.43 457.46 C 334.72 461.22 335.19 465.71 335.60 470.00 C 335.75 476.88 336.22 484.10 333.45 490.57 C 329.85 497.79 324.19 503.89 317.60 508.48 C 314.31 510.26 310.63 511.27 307.03 512.24 C 297.55 512.94 287.23 513.35 278.87 508.08 C 270.40 502.10 261.87 493.92 260.91 483.01 C 259.97 475.73 260.09 468.14 262.27 461.10 C 264.69 456.73 266.62 451.84 270.72 448.71 C 275.30 444.31 280.82 438.98 287.66 439.69 C 287.20 439.23 286.75 438.77 286.31 438.30 M 290.41 458.51 C 286.62 460.46 283.77 463.95 281.70 467.60 C 279.94 471.81 280.28 476.62 280.91 481.04 C 283.23 488.15 290.37 493.34 297.99 492.65 C 304.50 493.45 310.57 489.46 314.22 484.35 C 316.15 479.82 315.74 474.73 315.38 469.94 C 314.66 464.80 309.94 461.88 306.29 458.80 C 301.44 456.56 295.38 456.75 290.41 458.51 Z" />
</svg>
