<?xml version="1.0" encoding="UTF-8" ?>
<!DOCTYPE svg PUBLIC "-//W3C//DTD SVG 1.1//EN" "http://www.w3.org/Graphics/SVG/1.1/DTD/svg11.dtd">
<svg width="437pt" height="608pt" viewBox="0 0 437 608" version="1.1" xmlns="http://www.w3.org/2000/svg">
<path fill="#1e479c" opacity="1.00" d=" M 54.76 8.04 C 62.88 4.05 72.06 2.75 81.00 2.39 C 163.00 2.27 245.00 2.43 327.00 2.36 C 330.33 2.39 333.69 2.14 337.00 2.63 C 342.91 4.98 344.21 13.47 339.86 17.89 C 338.58 19.86 336.08 19.41 334.07 19.54 C 251.71 19.52 169.35 19.55 86.99 19.52 C 80.85 19.78 74.73 20.71 68.75 22.12 C 59.47 25.24 49.93 28.77 42.71 35.63 C 33.25 43.25 26.15 53.57 22.18 65.03 C 18.18 73.41 18.35 82.93 18.33 92.00 C 18.41 193.29 18.20 294.59 18.43 395.87 C 24.60 394.71 30.63 392.49 36.99 392.57 C 139.99 392.60 243.00 392.57 346.00 392.58 C 356.41 393.18 366.89 394.53 376.59 398.55 C 390.32 404.31 403.45 412.35 413.21 423.77 C 414.69 425.47 416.44 426.90 418.45 427.96 C 418.84 387.64 418.50 347.32 418.61 307.00 C 418.61 233.66 418.61 160.33 418.62 87.00 C 418.57 80.04 418.24 72.86 415.50 66.37 C 409.75 49.32 396.96 34.70 380.86 26.69 C 376.25 24.26 369.63 24.01 367.43 18.48 C 364.79 13.95 367.53 7.16 372.93 6.50 C 381.90 5.34 389.20 11.65 396.93 15.09 C 404.68 20.08 411.52 26.48 417.50 33.49 C 422.72 39.93 426.73 47.26 430.34 54.70 C 432.60 60.16 434.91 65.88 434.72 71.90 C 434.59 77.61 435.09 83.30 435.30 88.99 C 435.31 220.33 435.28 351.67 435.31 483.01 C 435.17 489.41 434.48 495.79 434.79 502.20 C 435.21 509.02 431.59 515.04 429.44 521.28 C 422.98 537.44 411.40 551.23 397.30 561.30 C 390.97 566.08 383.79 569.59 376.32 572.18 C 366.74 576.09 356.36 578.13 346.00 577.61 C 336.87 577.96 327.64 576.89 318.58 578.22 C 318.92 586.45 314.12 593.89 308.37 599.37 C 304.51 603.24 299.09 604.78 294.77 608.00 L 281.62 608.00 C 276.26 605.43 270.35 603.98 265.41 600.56 C 260.31 597.47 255.38 592.86 249.09 592.85 C 241.23 594.73 235.21 600.63 228.02 604.00 C 224.17 605.44 220.09 606.22 216.35 608.00 L 205.24 608.00 C 201.04 605.02 195.97 603.40 192.14 599.89 C 185.88 594.35 181.31 586.65 180.38 578.27 C 178.28 577.90 176.15 577.64 174.02 577.65 C 145.66 577.69 117.30 577.68 88.95 577.66 C 80.52 578.41 78.32 564.54 85.42 561.28 C 87.73 560.04 90.48 560.47 93.00 560.34 C 121.84 560.56 150.69 560.10 179.52 560.58 C 179.75 548.91 179.79 537.24 179.52 525.58 C 131.34 525.41 83.16 525.60 34.98 525.48 C 30.12 525.31 24.91 527.07 22.23 531.36 C 17.80 536.52 17.12 544.16 19.79 550.29 C 22.31 554.94 26.65 559.09 32.11 559.72 C 38.75 561.13 45.63 559.56 52.26 560.86 C 58.29 564.40 57.95 575.19 51.00 577.41 C 45.02 577.93 39.00 577.57 33.00 577.64 C 23.71 577.83 15.00 572.93 8.95 566.12 C 4.93 560.01 2.79 553.06 0.00 546.38 L 0.00 533.36 C 1.75 530.83 3.03 528.05 4.49 525.36 C 9.18 517.31 17.06 511.37 25.90 508.58 C 28.08 508.23 28.65 505.96 28.50 504.09 C 28.52 490.67 28.45 477.26 28.51 463.85 C 22.61 461.29 16.40 458.89 11.68 454.37 C 8.27 451.08 5.01 447.42 3.39 442.89 C 2.94 437.25 2.02 431.65 1.72 426.00 C 1.70 314.33 1.74 202.66 1.71 90.99 C 1.89 83.97 2.49 76.96 2.32 69.92 C 2.32 64.10 5.30 58.96 7.41 53.70 C 10.00 46.99 13.84 40.82 18.16 35.10 C 21.97 30.62 26.32 26.64 30.46 22.47 C 37.31 15.79 46.12 11.81 54.76 8.04 M 18.34 429.00 C 17.88 435.50 22.67 440.86 27.88 444.01 C 30.57 445.86 33.90 445.53 36.99 445.58 C 139.66 445.55 242.33 445.49 345.00 445.55 C 350.43 445.27 355.46 447.60 360.69 448.62 C 360.24 448.85 359.80 449.09 359.36 449.33 C 361.68 449.94 364.00 450.70 366.01 452.07 C 375.26 458.45 382.65 468.53 383.43 480.01 C 383.71 485.35 383.76 490.78 382.60 496.04 C 379.15 509.00 368.40 519.38 355.74 523.43 C 344.06 526.61 331.90 525.25 319.97 525.37 C 319.25 528.53 319.53 531.79 319.49 535.00 C 319.58 542.67 319.39 550.34 319.55 558.02 C 319.34 559.77 321.58 560.42 322.98 560.32 C 336.81 560.38 350.82 560.88 364.41 557.89 C 370.58 554.78 377.38 552.93 383.17 549.06 C 390.20 544.31 397.10 539.06 402.26 532.23 C 407.01 526.07 411.83 519.47 413.67 511.80 C 414.07 511.49 414.47 511.20 414.88 510.91 C 419.35 497.23 419.50 482.43 417.20 468.32 C 416.33 465.00 415.09 461.77 414.57 458.37 C 414.23 458.79 413.91 459.22 413.58 459.66 C 412.41 451.86 407.25 445.44 402.79 439.19 C 393.69 427.35 380.72 418.42 366.34 414.39 C 366.80 414.09 367.27 413.80 367.74 413.52 C 362.37 413.61 357.38 410.97 351.99 411.33 C 245.98 411.27 139.98 411.34 33.98 411.29 C 24.79 410.72 17.44 420.28 18.34 429.00 M 45.34 463.18 C 45.44 477.69 45.49 492.22 45.31 506.73 C 49.18 508.96 53.75 508.23 58.00 508.30 C 97.35 508.28 136.70 508.28 176.06 508.31 C 178.27 508.50 181.20 507.70 181.21 504.99 C 181.73 494.00 180.95 483.00 181.19 472.01 C 181.15 468.91 181.48 465.66 180.29 462.72 C 179.22 462.49 178.14 462.37 177.05 462.36 C 134.69 462.44 92.33 462.38 49.97 462.41 C 48.40 462.45 46.86 462.77 45.34 463.18 M 198.57 463.55 C 198.46 500.70 198.49 537.85 198.55 575.00 C 197.90 583.38 206.25 589.99 214.01 590.49 C 221.33 589.02 227.19 584.09 233.57 580.54 C 239.74 576.28 247.69 574.62 255.05 576.00 C 265.66 577.49 272.85 586.90 282.97 589.61 C 291.29 591.52 301.41 585.09 300.69 576.00 C 300.62 538.48 300.80 500.95 300.60 463.42 C 266.59 463.40 232.57 463.15 198.57 463.55 M 319.59 463.59 C 319.45 477.87 319.44 492.15 319.59 506.43 C 328.39 506.78 337.20 506.69 346.00 506.58 C 355.06 507.02 363.15 499.55 365.29 491.08 C 365.78 485.51 366.35 479.42 363.42 474.38 C 358.85 467.78 351.14 463.31 343.02 463.36 C 335.21 463.31 327.39 463.26 319.59 463.59 Z" />
<path fill="#1b408d" opacity="0.91" d=" M 0.00 71.87 C 0.58 71.39 1.74 70.41 2.32 69.92 C 2.49 76.96 1.89 83.97 1.71 90.99 C 1.74 202.66 1.70 314.33 1.72 426.00 C 2.02 431.65 2.94 437.25 3.39 442.89 C 2.38 441.13 1.18 439.48 0.00 437.82 L 0.00 71.87 Z" />
<path fill="#193c85" opacity="0.85" d=" M 434.72 71.90 C 435.29 72.27 436.43 73.00 437.00 73.36 L 437.00 499.49 C 436.27 500.40 435.54 501.31 434.79 502.20 C 434.48 495.79 435.17 489.41 435.31 483.01 C 435.28 351.67 435.31 220.33 435.30 88.99 C 435.09 83.30 434.59 77.61 434.72 71.90 Z" />
<path fill="#1e479c" opacity="1.00" d=" M 160.40 237.44 C 162.37 236.20 164.76 236.34 167.00 236.27 C 191.68 236.35 216.37 236.21 241.05 236.40 C 243.25 236.35 245.59 237.21 246.97 238.98 C 249.56 242.03 248.70 246.37 248.58 250.05 C 246.86 253.05 243.22 253.91 240.00 253.68 C 213.98 253.57 187.95 253.84 161.93 253.55 C 153.98 252.88 153.28 240.06 160.40 237.44 Z" />
<path fill="#1e479c" opacity="1.00" d=" M 142.26 281.08 C 143.63 280.14 145.42 280.50 146.99 280.36 C 185.00 280.49 223.03 280.22 261.04 280.53 C 269.21 281.26 269.98 294.93 262.58 297.34 C 257.40 297.76 252.22 298.49 247.01 298.40 C 215.00 298.56 183.00 298.32 151.00 298.47 C 146.70 298.60 141.90 297.74 138.92 294.38 C 136.02 290.02 137.66 283.57 142.26 281.08 Z" />
<path fill="#0f2450" opacity="0.51" d=" M 45.34 463.18 C 46.86 462.77 48.40 462.45 49.97 462.41 C 92.33 462.38 134.69 462.44 177.05 462.36 C 178.14 462.37 179.22 462.49 180.29 462.72 C 181.48 465.66 181.15 468.91 181.19 472.01 C 180.95 483.00 181.73 494.00 181.21 504.99 C 181.20 507.70 178.27 508.50 176.06 508.31 C 136.70 508.28 97.35 508.28 58.00 508.30 C 53.75 508.23 49.18 508.96 45.31 506.73 C 45.49 492.22 45.44 477.69 45.34 463.18 M 47.28 464.10 C 47.43 478.06 47.49 492.03 47.25 505.98 C 49.48 506.29 51.74 506.44 54.01 506.42 C 95.74 506.19 137.49 506.62 179.22 506.21 C 179.55 492.08 179.44 477.93 179.22 463.80 C 140.48 463.47 101.74 463.72 63.00 463.77 C 57.76 463.81 52.50 463.48 47.28 464.10 Z" />
<path fill="#102755" opacity="0.55" d=" M 0.00 546.38 C 2.79 553.06 4.93 560.01 8.95 566.12 C 4.70 562.39 2.78 556.96 0.00 552.19 L 0.00 546.38 Z" />
<path fill="#0f234e" opacity="0.50" d=" M 228.02 604.00 C 235.21 600.63 241.23 594.73 249.09 592.85 C 255.38 592.86 260.31 597.47 265.41 600.56 C 270.35 603.98 276.26 605.43 281.62 608.00 L 276.73 608.00 C 271.55 605.34 266.29 602.77 261.49 599.45 C 258.29 597.32 254.99 594.91 251.03 594.62 C 247.08 594.15 243.45 596.14 240.21 598.14 C 234.93 601.51 229.44 604.55 224.21 608.00 L 216.35 608.00 C 220.09 606.22 224.17 605.44 228.02 604.00 Z" />
</svg>
