<?xml version="1.0" encoding="UTF-8" ?>
<!DOCTYPE svg PUBLIC "-//W3C//DTD SVG 1.1//EN" "http://www.w3.org/Graphics/SVG/1.1/DTD/svg11.dtd">
<svg width="602pt" height="604pt" viewBox="0 0 602 604" version="1.1" xmlns="http://www.w3.org/2000/svg">
<path fill="#1e479c" opacity="1.00" d=" M 373.21 2.67 C 380.61 2.29 388.32 1.50 395.42 4.11 C 400.19 4.98 404.73 8.88 404.67 14.01 C 405.01 19.00 400.81 23.49 395.98 24.11 C 392.38 25.03 389.21 22.33 385.67 22.34 C 382.77 22.24 379.87 22.18 376.98 22.46 C 373.03 23.02 369.54 25.04 366.02 26.79 C 352.65 39.13 340.13 52.37 327.05 65.02 C 325.70 66.20 324.59 67.62 323.89 69.27 C 325.42 69.15 326.77 69.51 327.94 70.36 C 328.44 70.40 329.44 70.47 329.93 70.51 C 333.35 72.56 337.20 73.82 340.46 76.17 C 350.40 83.27 358.47 93.28 362.29 104.99 C 363.44 109.59 364.60 114.26 364.52 119.04 C 364.48 122.48 365.19 126.41 367.89 128.78 C 371.03 130.60 374.78 130.88 378.14 132.15 C 384.63 133.02 391.14 134.31 397.22 136.84 C 405.10 140.92 411.90 147.59 415.30 155.88 C 419.60 167.07 417.99 179.24 417.99 190.93 C 418.21 192.80 417.82 195.14 419.50 196.46 C 440.47 217.53 461.48 238.56 482.38 259.69 C 486.05 263.41 491.34 267.16 490.85 273.04 C 491.08 277.39 487.93 281.10 483.97 282.50 C 482.23 282.50 480.49 282.50 478.76 282.51 C 473.78 280.41 470.73 275.69 466.75 272.25 C 455.44 260.58 443.89 249.14 432.48 237.57 C 427.80 232.74 422.77 228.25 418.43 223.11 C 417.04 233.38 418.52 243.80 417.39 254.09 C 416.74 258.36 415.18 262.45 413.08 266.21 C 412.34 267.36 412.21 268.72 412.32 270.05 C 419.07 275.46 424.45 282.37 430.87 288.16 C 436.46 294.55 443.02 300.00 448.55 306.44 C 451.95 310.32 451.21 316.44 447.93 320.18 C 446.46 320.77 445.06 321.52 443.73 322.38 C 442.18 322.45 440.63 322.50 439.09 322.50 C 438.09 321.94 437.04 321.56 435.92 321.37 C 422.71 308.58 409.92 295.34 397.01 282.28 C 394.48 282.31 392.25 283.70 389.74 283.80 C 386.34 285.32 382.42 285.04 378.97 286.42 C 377.74 286.55 376.53 286.68 375.31 286.82 C 373.98 287.30 372.64 287.73 371.30 288.18 C 364.58 288.84 363.27 296.71 364.44 302.14 C 372.49 309.22 379.42 317.45 387.25 324.77 C 394.12 332.22 401.65 339.05 408.50 346.52 C 412.12 350.72 410.96 358.30 405.97 360.87 C 404.88 361.64 403.59 361.82 402.30 361.75 L 402.43 362.67 C 401.60 362.60 399.94 362.46 399.11 362.39 C 398.16 361.79 397.12 361.49 396.00 361.47 C 385.75 351.78 375.74 341.75 366.06 331.48 C 365.51 331.36 364.40 331.11 363.84 330.98 C 363.62 360.67 363.67 390.36 363.54 420.05 C 363.61 430.08 363.27 440.11 363.62 450.14 C 392.42 421.42 421.28 392.76 450.08 364.05 C 488.91 325.58 527.84 287.22 566.49 248.57 C 570.58 244.25 575.51 240.49 578.12 235.00 C 583.65 224.26 581.11 209.95 572.01 201.94 C 552.09 182.17 532.48 162.10 512.62 142.29 C 508.32 136.95 502.65 132.94 498.32 127.64 C 474.89 104.08 451.48 80.49 428.02 56.95 C 424.97 53.88 420.81 50.80 421.17 45.94 C 420.67 41.69 423.83 38.46 427.08 36.30 C 430.02 36.17 432.98 36.23 435.90 36.71 C 454.79 55.95 474.00 74.88 492.86 94.15 C 499.30 100.07 504.92 106.80 511.47 112.62 C 516.31 118.73 522.72 123.29 527.65 129.32 C 531.03 133.28 535.36 136.29 538.71 140.27 C 543.24 145.71 548.96 149.98 553.51 155.40 C 565.77 167.51 577.79 179.86 590.03 192.00 C 596.55 200.55 601.22 211.08 600.82 222.02 C 601.28 233.90 596.45 245.67 588.58 254.46 C 539.16 304.08 489.18 353.14 439.52 402.52 C 437.78 403.83 438.31 406.17 438.20 408.05 C 438.28 425.69 438.17 443.32 437.91 460.95 C 437.56 490.62 437.85 520.29 437.48 549.96 C 437.10 568.63 425.69 585.81 409.94 595.31 C 409.51 595.37 408.67 595.49 408.24 595.55 C 407.74 595.96 406.74 596.79 406.24 597.20 C 405.11 597.45 404.02 597.84 402.99 598.35 C 401.57 598.80 400.16 599.26 398.75 599.74 C 397.41 600.28 395.99 600.55 394.56 600.63 C 394.56 600.81 394.56 601.18 394.56 601.36 C 392.71 601.29 390.85 601.37 389.04 601.70 C 388.07 602.03 387.09 602.21 386.08 602.25 C 370.53 602.40 354.96 602.07 339.41 602.33 L 339.24 601.58 C 322.19 601.81 305.14 601.51 288.10 601.62 C 285.34 601.55 282.16 601.91 280.01 599.80 C 276.06 597.62 274.49 592.31 276.23 588.20 C 277.02 585.79 279.08 584.17 280.87 582.51 C 282.85 582.30 284.85 582.16 286.83 582.40 L 286.63 581.47 C 291.52 582.20 296.69 580.80 301.41 582.33 C 302.63 581.49 304.16 581.69 305.57 581.71 C 310.35 581.82 315.26 581.51 319.76 579.81 C 333.47 575.99 343.06 562.08 343.24 548.04 C 343.38 520.21 343.51 492.38 343.47 464.55 C 291.95 464.50 240.43 464.32 188.90 464.27 C 183.75 464.05 178.54 464.73 173.45 463.74 C 122.57 463.62 71.67 463.57 20.79 463.45 C 20.55 483.94 20.61 504.44 20.59 524.94 C 20.46 532.20 22.20 539.37 24.78 546.13 C 28.50 555.23 34.85 563.10 42.44 569.28 C 45.98 571.44 49.13 574.38 53.09 575.75 C 59.08 579.28 66.19 579.73 72.77 581.19 C 77.03 581.34 81.28 581.23 85.54 581.32 C 87.19 580.05 89.08 581.16 90.88 581.32 C 93.66 581.40 96.45 581.11 99.22 581.54 C 99.26 581.29 99.33 580.80 99.37 580.55 C 100.62 580.84 101.90 580.87 103.18 580.82 C 105.03 581.66 107.09 581.30 109.06 581.35 C 151.70 581.43 194.35 581.48 236.99 581.54 C 240.46 581.53 244.37 582.39 246.46 585.44 C 250.33 589.95 248.66 597.63 243.46 600.36 C 240.55 601.90 237.15 601.42 233.98 601.50 C 195.99 601.40 157.99 601.37 120.00 601.29 C 117.21 601.22 114.35 601.67 111.66 600.76 C 110.31 601.25 108.82 601.29 107.47 600.82 C 96.28 600.63 85.09 600.74 73.90 600.64 C 66.89 600.74 59.99 599.10 53.35 596.97 C 51.88 596.38 49.75 596.71 49.10 594.97 C 42.07 593.55 36.34 589.04 30.50 585.21 C 25.33 581.86 21.68 576.85 17.49 572.46 C 7.04 559.33 1.03 542.71 0.55 525.95 C 0.64 491.31 0.75 456.67 0.85 422.03 C 1.40 393.69 1.13 365.33 1.31 336.99 C 1.51 275.64 1.68 214.30 1.87 152.96 C 2.42 145.06 1.69 137.05 3.26 129.24 C 6.61 110.20 17.41 92.50 33.08 81.14 C 41.86 74.55 52.17 70.07 62.86 67.75 C 64.47 67.51 66.20 67.62 67.63 66.73 C 74.08 66.32 80.54 66.39 87.00 66.40 C 143.01 66.50 199.02 66.60 255.03 66.70 C 258.25 66.74 261.51 66.41 264.68 67.18 C 267.18 66.19 269.77 66.98 272.32 67.23 L 273.12 66.06 L 273.81 67.17 C 278.57 67.15 283.51 67.87 288.17 66.75 C 290.95 67.52 293.85 67.26 296.71 67.34 C 314.17 49.93 331.63 32.52 349.19 15.22 C 355.60 8.55 364.48 4.90 373.21 2.67 M 79.05 86.34 C 73.30 86.10 67.57 86.91 62.08 88.62 C 60.77 89.10 59.47 89.60 58.18 90.12 C 42.69 95.39 30.40 108.50 25.13 123.90 C 22.06 132.24 21.82 141.25 21.80 150.04 C 21.68 231.70 21.34 313.36 21.19 395.03 C 21.01 399.35 20.56 403.67 20.95 408.00 C 20.63 417.01 20.87 426.04 20.77 435.06 C 20.81 437.90 20.37 440.83 21.36 443.57 C 62.88 443.36 104.41 443.81 145.93 443.68 C 147.38 443.59 148.80 443.77 150.18 444.21 C 152.60 444.28 155.02 444.28 157.44 444.41 L 157.48 443.48 C 161.89 444.68 166.47 444.22 170.98 444.31 C 228.49 444.37 285.99 444.57 343.49 444.56 C 343.60 442.37 343.65 440.17 343.65 437.99 C 343.63 390.65 344.12 343.31 344.26 295.98 C 344.39 282.46 355.46 269.52 369.09 268.27 C 371.74 267.17 374.70 267.02 377.51 266.55 L 377.28 265.75 C 385.68 266.27 394.86 261.69 397.25 253.16 C 398.70 245.87 397.35 238.38 398.18 231.02 C 398.22 210.33 398.38 189.64 398.23 168.95 C 397.79 160.32 390.09 153.69 381.81 152.74 C 378.80 152.52 375.79 151.94 373.02 150.76 C 367.24 150.46 361.76 148.23 356.88 145.30 C 349.21 139.75 344.83 130.35 344.78 120.95 C 344.81 106.96 335.25 93.45 321.92 89.11 C 311.50 85.32 300.15 88.59 289.43 86.75 C 270.86 86.52 252.25 86.99 233.70 86.40 C 233.68 86.81 233.65 87.63 233.64 88.03 L 232.82 86.72 C 181.57 86.46 130.30 86.45 79.05 86.34 M 363.55 477.87 C 363.06 499.56 363.36 521.27 363.22 542.97 C 363.48 552.98 361.76 563.16 357.13 572.11 C 355.44 575.75 352.76 578.81 351.05 582.43 C 362.44 582.01 373.86 582.60 385.26 582.27 C 387.56 581.68 389.91 581.41 392.27 581.21 C 393.19 580.70 394.16 580.36 395.20 580.17 C 408.59 575.12 418.14 561.42 417.71 547.04 C 417.64 506.01 418.31 464.99 418.17 423.97 C 399.81 441.77 381.99 460.14 363.55 477.87 Z" />
<path fill="#1e479c" opacity="1.00" d=" M 178.62 200.54 C 184.34 200.80 190.29 199.68 195.86 201.15 C 209.91 202.09 223.04 208.45 234.15 216.82 C 245.38 225.49 253.24 237.93 258.37 251.00 C 263.41 266.82 263.60 284.23 258.23 299.99 C 253.08 313.29 244.98 325.81 233.48 334.45 C 227.67 338.73 221.37 342.58 214.62 345.24 C 208.77 348.25 202.08 348.74 195.74 350.18 C 189.50 350.62 183.21 350.47 176.97 350.12 C 175.39 349.59 173.79 349.14 172.20 348.68 C 168.56 348.81 165.40 346.86 161.91 346.33 C 157.11 344.20 152.41 341.84 147.88 339.26 C 126.66 326.19 112.47 302.05 112.26 277.01 C 111.36 250.35 126.22 223.46 149.74 210.69 C 151.29 209.70 152.73 208.44 154.62 208.16 C 157.38 205.91 161.02 205.37 164.23 204.02 C 168.87 202.55 173.71 201.19 178.62 201.30 L 178.62 200.54 M 188.58 219.75 C 185.21 220.99 181.55 220.11 178.06 220.58 C 176.61 221.44 174.92 221.61 173.28 221.71 C 171.92 222.16 170.58 222.63 169.25 223.15 C 166.28 223.75 163.77 225.48 160.98 226.57 C 158.18 227.76 155.63 229.47 153.45 231.60 C 146.42 237.16 140.28 244.15 136.74 252.47 C 130.85 265.28 130.84 280.21 134.86 293.57 C 138.61 305.88 148.05 315.41 158.16 322.87 C 158.72 323.06 159.84 323.46 160.40 323.65 L 160.60 324.33 C 162.07 324.59 163.41 325.25 164.53 326.25 C 169.03 327.64 173.49 329.32 178.20 329.86 C 184.02 331.14 190.25 330.48 196.21 330.22 C 200.05 328.81 204.20 328.53 207.91 326.73 C 218.61 322.93 227.14 314.79 233.75 305.76 C 243.14 291.14 245.20 272.09 239.13 255.81 C 233.38 240.51 220.44 227.99 204.97 222.74 C 199.61 221.13 194.06 220.60 188.58 219.75 Z" />
</svg>
