<?xml version="1.0" encoding="UTF-8" ?>
<!DOCTYPE svg PUBLIC "-//W3C//DTD SVG 1.1//EN" "http://www.w3.org/Graphics/SVG/1.1/DTD/svg11.dtd">
<svg width="694pt" height="572pt" viewBox="0 0 694 572" version="1.1" xmlns="http://www.w3.org/2000/svg">
<path fill="#1e499c" opacity="1.00" d=" M 111.45 7.58 C 113.04 3.90 117.06 1.82 120.95 1.71 C 182.22 -0.81 243.66 -0.35 304.83 4.19 C 322.34 5.89 339.34 12.93 352.77 24.33 C 367.38 36.48 377.51 53.63 381.88 72.06 C 400.41 57.42 419.30 43.24 438.68 29.75 C 448.10 23.25 459.50 19.41 471.01 19.88 C 488.57 20.41 505.87 29.85 515.09 44.94 C 516.83 47.68 517.94 50.75 519.39 53.64 C 521.27 57.26 524.63 59.75 527.70 62.30 C 579.42 106.04 627.77 153.74 672.17 204.89 C 685.01 219.84 692.41 239.08 694.00 258.66 L 694.00 269.21 C 692.73 286.57 687.06 303.68 676.80 317.82 C 632.05 379.09 581.33 436.15 524.49 486.48 C 521.82 489.00 517.77 489.59 514.38 488.37 C 509.50 486.81 506.48 481.08 508.08 476.18 C 509.17 472.07 512.90 469.62 515.84 466.87 C 566.63 421.15 612.44 370.02 653.32 315.29 C 656.13 311.44 659.08 307.70 661.73 303.74 C 671.51 288.94 675.41 270.42 672.57 252.93 C 670.51 239.98 664.79 227.66 656.26 217.71 C 631.99 190.09 606.97 163.08 580.45 137.60 C 563.07 120.81 545.07 104.67 526.96 88.68 C 534.43 140.08 534.56 192.51 527.77 243.99 C 550.53 244.04 573.29 243.90 596.04 244.14 C 602.21 243.71 607.53 250.04 606.24 256.04 C 605.53 260.89 600.84 264.50 596.02 264.41 C 572.17 264.49 548.32 264.41 524.48 264.44 C 520.20 286.07 514.88 307.63 506.09 327.91 C 500.12 341.39 492.80 354.72 481.74 364.73 C 471.07 374.19 458.24 380.83 445.09 386.14 C 426.27 393.65 406.49 398.43 386.63 402.29 C 386.60 424.86 386.63 447.42 386.70 469.99 C 386.65 473.71 386.74 477.99 383.98 480.88 C 380.10 485.35 372.22 485.22 368.57 480.52 C 365.87 477.33 366.24 472.88 366.18 468.99 C 366.33 449.09 366.20 429.19 366.25 409.28 C 353.75 425.35 335.76 437.18 315.84 441.63 C 308.69 443.33 301.32 443.56 294.02 444.15 C 278.90 445.21 263.76 445.92 248.62 446.54 C 274.14 473.67 300.93 499.60 328.86 524.25 C 336.82 531.37 344.63 538.99 354.35 543.70 C 373.32 553.29 396.59 553.77 415.96 545.02 C 425.77 540.74 433.89 533.63 442.44 527.37 C 453.52 519.19 464.11 510.36 475.02 501.97 C 478.64 498.97 484.29 499.23 487.84 502.22 C 492.59 506.00 492.45 513.98 487.76 517.76 C 477.83 525.84 467.78 533.79 457.57 541.51 C 445.90 550.15 434.68 559.88 420.94 565.11 C 400.23 573.46 376.44 574.01 355.43 566.38 C 341.85 561.67 329.96 553.13 319.55 543.38 C 285.25 513.10 252.30 481.26 221.62 447.31 C 182.13 447.60 142.61 447.31 103.19 444.84 C 88.09 443.84 72.50 443.63 58.29 437.79 C 27.66 426.16 4.96 395.82 3.05 363.03 C 1.17 323.93 0.54 284.78 0.00 245.65 L 0.00 165.76 C 1.72 138.17 1.38 110.50 3.18 82.92 C 5.94 46.29 34.89 13.26 70.95 6.04 C 78.13 4.00 85.11 12.07 82.63 18.93 C 81.36 23.82 76.15 25.78 71.74 26.84 C 45.01 33.91 24.57 59.35 23.30 86.96 C 19.46 177.94 19.48 269.08 23.25 360.06 C 24.03 375.77 30.63 391.11 41.50 402.47 C 52.80 414.50 68.73 421.94 85.15 423.20 C 157.15 428.30 229.50 428.29 301.50 423.20 C 315.39 422.08 328.97 416.67 339.62 407.63 C 351.60 397.60 359.83 383.23 362.46 367.82 C 363.45 362.26 363.41 356.60 363.65 350.97 C 367.13 263.02 366.95 174.93 363.30 86.98 C 362.43 72.11 356.38 57.60 346.42 46.53 C 335.17 33.87 318.94 25.79 302.06 24.45 C 242.48 20.05 182.64 19.64 122.96 22.03 C 120.41 21.99 117.63 22.12 115.40 20.67 C 111.10 18.09 109.15 12.12 111.45 7.58 M 452.32 45.24 C 428.85 61.22 406.37 78.61 384.18 96.32 C 387.09 177.20 387.43 258.18 384.56 339.06 C 383.98 353.69 384.32 368.62 379.96 382.76 C 394.83 379.99 409.62 376.63 424.00 371.91 C 438.01 367.24 452.03 361.73 464.00 352.91 C 472.39 346.82 478.29 338.04 483.07 328.98 C 489.42 316.76 493.88 303.66 497.60 290.43 C 504.50 265.43 508.32 239.68 510.47 213.86 C 514.62 164.54 512.26 114.54 502.02 66.07 C 500.53 59.53 496.99 53.48 492.08 48.93 C 481.60 39.04 464.43 37.41 452.32 45.24 Z" />
<path fill="#1e499c" opacity="1.00" d=" M 183.59 55.76 C 205.63 53.58 228.35 58.96 246.98 70.95 C 268.03 84.38 283.81 105.87 290.01 130.08 C 296.28 154.10 293.24 180.45 281.40 202.30 C 269.76 224.12 249.77 241.36 226.39 249.49 C 202.36 258.04 175.07 256.81 151.90 246.16 C 129.25 235.87 110.73 216.82 101.14 193.85 C 91.89 171.98 90.89 146.76 98.29 124.20 C 109.92 87.24 144.94 59.02 183.59 55.76 M 180.53 76.71 C 150.66 81.37 124.62 104.54 116.74 133.76 C 110.76 154.69 114.00 178.04 125.44 196.55 C 140.29 221.21 169.28 236.66 198.07 234.63 C 215.10 233.48 231.68 226.72 244.75 215.75 C 260.62 202.50 270.68 182.69 272.49 162.14 C 275.34 133.39 260.72 103.93 236.39 88.47 C 220.07 77.85 199.75 73.52 180.53 76.71 Z" />
<path fill="#1e499c" opacity="1.00" d=" M 218.79 129.73 C 220.99 127.48 223.73 125.40 227.03 125.43 C 232.70 125.09 237.94 130.34 237.54 136.01 C 237.52 139.29 235.47 142.06 233.23 144.26 C 218.89 158.57 204.51 172.84 190.23 187.20 C 187.87 189.73 184.50 191.64 180.93 191.18 C 177.29 190.95 174.62 188.21 172.20 185.80 C 165.46 178.86 158.48 172.17 151.78 165.20 C 147.87 161.29 148.31 154.13 152.55 150.63 C 156.26 147.32 162.51 147.35 166.09 150.86 C 171.51 155.95 176.62 161.38 181.93 166.59 C 194.23 154.31 206.51 142.02 218.79 129.73 Z" />
<path fill="#1e499c" opacity="1.00" d=" M 115.27 286.49 C 167.19 286.26 219.12 286.48 271.04 286.51 C 276.92 286.28 281.83 292.33 280.80 298.03 C 280.21 303.19 275.16 307.02 270.08 306.79 C 219.03 306.85 167.98 306.79 116.94 306.82 C 112.09 307.13 107.08 303.92 105.99 299.07 C 104.34 293.19 109.06 286.46 115.27 286.49 Z" />
<path fill="#1e499c" opacity="1.00" d=" M 112.40 350.64 C 114.54 349.98 116.81 350.05 119.03 349.99 C 169.36 349.99 219.69 350.06 270.02 350.09 C 276.73 349.28 282.53 356.51 280.57 362.90 C 279.38 367.50 274.70 370.64 270.01 370.43 C 218.69 370.44 167.36 370.45 116.03 370.43 C 111.14 370.59 106.67 366.70 105.80 361.95 C 104.93 357.25 107.85 352.17 112.40 350.64 Z" />
</svg>
