<?xml version="1.0" encoding="UTF-8" ?>
<!DOCTYPE svg PUBLIC "-//W3C//DTD SVG 1.1//EN" "http://www.w3.org/Graphics/SVG/1.1/DTD/svg11.dtd">
<svg width="604pt" height="592pt" viewBox="0 0 604 592" version="1.1" xmlns="http://www.w3.org/2000/svg">
<path fill="#102858" opacity="0.56" d=" M 159.73 0.00 L 166.68 0.00 C 158.95 1.44 151.25 3.00 143.60 4.85 C 148.66 2.28 154.32 1.50 159.73 0.00 Z" />
<path fill="#1e479c" opacity="1.00" d=" M 166.68 0.00 L 389.06 0.00 C 405.39 1.14 421.30 8.46 432.57 20.38 C 445.30 33.10 452.22 51.10 452.30 69.01 C 452.28 129.16 452.30 189.32 452.28 249.47 C 484.84 264.80 510.36 294.08 521.39 328.30 C 527.89 347.12 528.85 367.32 527.26 387.03 C 526.60 392.19 525.80 397.34 524.51 402.38 C 531.67 410.31 540.43 417.14 545.17 426.96 C 552.69 441.46 552.67 459.56 545.12 474.04 C 541.10 482.25 534.25 488.49 527.93 494.90 C 521.35 501.60 514.69 508.23 508.17 514.99 C 521.69 528.75 535.30 542.41 548.61 556.35 C 553.49 561.62 560.81 564.30 567.94 563.71 C 573.97 563.53 579.41 559.80 582.65 554.87 C 586.53 548.99 586.39 541.26 584.18 534.79 C 582.64 529.86 578.77 526.28 575.29 522.68 C 569.23 516.41 563.09 510.22 556.98 504.01 C 553.10 500.57 553.17 493.44 557.31 490.23 C 560.51 487.25 566.18 487.56 569.09 490.83 C 576.75 498.54 584.31 506.35 591.99 514.05 C 599.41 521.46 604.07 531.75 604.00 542.31 L 604.00 543.67 C 604.03 555.16 598.42 566.30 589.72 573.69 C 583.52 579.23 575.50 583.26 567.01 582.91 C 555.43 583.59 544.32 577.81 536.52 569.56 C 521.80 554.73 507.39 539.60 492.72 524.73 C 479.98 531.08 464.83 528.87 452.40 522.90 C 451.96 537.96 447.22 552.99 437.91 564.93 C 425.83 581.03 406.16 591.11 386.03 591.50 C 280.70 591.51 175.37 591.48 70.04 591.51 C 56.39 591.93 42.60 588.15 31.18 580.64 C 12.97 568.85 1.10 548.07 0.00 526.42 L 0.00 170.36 C 1.16 165.42 1.89 160.39 2.25 155.33 C 5.56 141.24 12.69 128.14 22.54 117.56 C 52.51 86.87 82.54 56.25 112.49 25.55 C 121.18 16.49 131.80 9.21 143.60 4.85 C 151.25 3.00 158.95 1.44 166.68 0.00 M 150.23 21.82 C 150.38 48.87 150.23 75.91 150.31 102.96 C 150.41 109.41 149.76 115.95 147.56 122.06 C 143.39 134.36 133.83 144.72 121.90 149.87 C 116.26 152.30 110.10 153.55 103.96 153.47 C 87.97 153.42 71.98 153.51 55.99 153.43 C 51.10 153.55 46.97 148.76 47.39 143.97 C 47.43 139.51 51.45 135.30 55.98 135.41 C 72.65 135.23 89.33 135.51 106.00 135.28 C 120.38 134.53 132.42 121.37 132.39 107.06 C 132.36 82.01 132.51 56.96 132.31 31.91 C 129.68 34.07 127.17 36.37 124.82 38.83 C 112.36 51.69 99.65 64.31 87.18 77.17 C 70.12 95.12 52.35 112.38 35.32 130.35 C 23.45 142.69 17.32 159.95 17.68 176.98 C 17.70 291.33 17.70 405.68 17.68 520.03 C 17.20 533.44 21.87 547.09 31.01 556.99 C 38.81 565.60 49.77 571.63 61.38 572.72 C 62.84 573.25 64.36 573.62 65.92 573.59 C 172.63 573.59 279.35 573.60 386.07 573.59 C 387.92 573.60 389.77 573.29 391.51 572.65 C 412.01 570.39 429.34 553.21 433.32 533.18 C 435.12 524.85 434.15 516.30 434.42 507.86 C 432.35 505.64 430.23 503.48 428.12 501.31 C 401.60 507.63 373.08 505.76 347.85 495.23 C 322.91 484.94 301.52 466.55 287.45 443.54 C 278.18 429.17 272.31 412.85 268.87 396.16 C 268.57 390.05 267.43 384.02 267.14 377.91 C 265.95 367.11 268.17 356.38 268.78 345.63 C 269.95 340.34 271.30 335.10 272.80 329.89 C 274.73 324.20 276.86 318.58 279.24 313.07 C 284.72 300.41 293.04 289.26 302.06 278.93 C 307.04 272.32 313.60 267.15 319.98 261.98 C 322.76 259.54 326.39 258.50 329.40 256.42 C 336.36 251.86 344.01 248.51 351.67 245.32 C 356.53 244.55 361.04 242.45 365.83 241.36 C 383.51 237.01 402.12 236.41 420.05 239.59 C 421.79 239.89 423.54 240.07 425.31 240.18 C 428.33 241.02 431.38 241.73 434.40 242.55 C 434.40 184.36 434.40 126.18 434.40 67.99 C 434.33 54.11 428.12 40.48 417.95 31.08 C 409.01 23.06 397.16 17.95 385.05 18.22 C 313.37 18.24 241.68 18.22 170.00 18.23 C 163.25 18.15 156.54 19.48 150.23 21.82 M 347.88 266.75 C 331.82 274.76 317.60 286.50 306.97 300.98 C 296.31 315.07 289.39 331.72 285.84 348.98 C 283.72 360.19 284.06 371.65 284.44 383.01 C 286.78 405.53 295.58 427.41 309.93 444.97 C 321.42 459.17 336.37 470.61 353.19 477.77 C 382.66 490.64 417.78 489.70 446.53 475.27 C 479.56 459.20 503.41 426.18 508.89 389.92 C 511.78 373.30 510.67 356.08 506.22 339.82 C 497.22 305.78 471.68 276.46 438.90 263.42 C 409.90 251.58 375.94 252.83 347.88 266.75 M 518.08 422.25 C 505.59 454.71 479.20 481.63 447.03 494.87 C 453.50 503.42 463.00 510.70 474.05 511.37 C 483.58 511.74 492.06 506.11 498.35 499.43 C 506.89 490.61 515.38 481.75 524.04 473.05 C 529.79 467.24 534.23 459.44 533.81 451.04 C 534.18 442.32 529.74 434.28 524.22 427.86 C 522.36 425.80 520.68 423.42 518.08 422.25 Z" />
<path fill="#11295a" opacity="0.58" d=" M 0.00 163.16 C 0.67 160.52 1.45 157.93 2.25 155.33 C 1.89 160.39 1.16 165.42 0.00 170.36 L 0.00 163.16 Z" />
<path fill="#1e479c" opacity="1.00" d=" M 74.87 180.72 C 78.35 179.14 82.24 179.12 85.98 179.10 C 179.98 179.12 273.98 179.08 367.98 179.12 C 380.42 178.50 391.60 188.89 393.68 200.84 C 395.69 210.26 392.12 220.50 384.97 226.89 C 380.02 231.12 373.59 233.75 367.04 233.60 C 273.01 233.61 178.99 233.62 84.97 233.60 C 81.12 233.72 77.41 232.63 73.86 231.29 C 65.87 227.45 59.72 219.77 58.44 210.92 C 55.94 198.67 63.22 185.28 74.87 180.72 M 81.83 197.50 L 80.90 197.51 C 78.96 199.09 76.94 200.79 76.21 203.29 C 73.74 209.28 79.72 216.20 85.96 215.51 C 177.97 215.51 269.98 215.49 362.00 215.52 C 365.79 215.47 370.20 216.11 373.15 213.15 C 375.95 210.92 376.69 207.26 376.41 203.86 C 375.24 201.34 373.53 199.15 371.27 197.52 C 370.96 197.52 370.36 197.50 370.05 197.50 C 368.25 195.64 365.32 196.75 363.03 196.44 C 270.33 196.49 177.62 196.43 84.92 196.47 C 83.77 196.36 82.77 196.90 81.83 197.50 Z" />
<path fill="#0d1f44" opacity="0.44" d=" M 81.83 197.50 C 82.77 196.90 83.77 196.36 84.92 196.47 C 177.62 196.43 270.33 196.49 363.03 196.44 C 365.32 196.75 368.25 195.64 370.05 197.50 C 319.04 197.29 268.03 197.47 217.02 197.41 C 171.96 197.47 126.89 197.30 81.83 197.50 Z" />
<path fill="#0d1f45" opacity="0.44" d=" M 382.09 237.47 C 396.47 236.31 411.38 235.93 425.31 240.18 C 423.54 240.07 421.79 239.89 420.05 239.59 C 402.12 236.41 383.51 237.01 365.83 241.36 C 361.04 242.45 356.53 244.55 351.67 245.32 C 361.18 240.80 371.76 239.06 382.09 237.47 Z" />
<path fill="#1e479c" opacity="1.00" d=" M 159.30 258.47 C 183.52 257.95 207.78 258.55 232.01 258.34 C 241.23 257.83 250.15 262.90 255.19 270.49 C 262.20 280.94 260.87 296.03 251.99 304.99 C 247.12 310.23 240.08 312.83 233.05 313.30 C 185.69 313.52 138.32 313.63 90.95 313.56 C 86.29 313.43 81.45 314.09 76.99 312.40 C 69.44 310.18 63.22 304.30 60.15 297.11 C 56.70 288.85 57.42 278.98 62.22 271.41 C 65.93 265.81 71.52 261.29 78.10 259.64 C 84.63 258.05 91.38 258.85 98.03 258.67 C 118.45 258.53 138.89 258.93 159.30 258.47 M 186.99 277.28 C 176.07 277.10 165.13 277.59 154.23 276.83 C 148.83 276.88 143.37 276.35 138.00 277.12 C 131.05 276.52 123.95 276.53 117.00 277.12 C 111.05 276.53 104.95 276.51 99.00 277.12 C 94.67 276.36 90.25 276.91 85.88 276.78 C 82.09 277.05 78.01 278.57 76.58 282.43 C 73.42 288.07 78.66 295.77 84.96 295.44 C 134.03 295.59 183.09 295.14 232.15 295.25 C 235.13 294.68 238.37 293.89 240.14 291.19 C 244.31 285.98 240.65 277.00 233.89 276.53 C 221.25 276.32 208.60 276.54 195.96 276.42 C 192.93 276.34 190.02 277.49 186.99 277.28 Z" />
<path fill="#1e479c" opacity="1.00" d=" M 334.59 308.50 C 349.07 293.41 369.08 283.58 389.99 282.01 C 407.50 280.37 425.43 284.63 440.61 293.45 C 455.91 302.40 468.34 316.11 475.96 332.10 C 483.17 347.54 486.07 365.01 483.96 381.93 C 481.80 400.74 473.56 418.86 460.54 432.64 C 442.88 452.01 416.04 462.20 389.99 460.17 C 381.45 459.07 372.89 457.50 364.88 454.22 C 359.46 451.77 353.95 449.35 349.20 445.71 C 344.05 441.65 345.69 431.92 352.17 430.16 C 355.23 428.74 358.48 430.29 361.06 431.98 C 372.04 438.85 385.02 442.46 398.00 441.87 C 416.91 442.37 435.04 433.38 448.14 420.11 C 457.93 411.05 465.27 399.17 468.02 386.04 C 471.57 371.03 468.83 354.85 461.30 341.47 C 457.40 334.37 452.82 327.60 447.36 321.61 C 436.50 310.10 421.65 302.40 405.94 300.40 C 399.99 300.07 394.01 300.03 388.06 300.44 C 372.41 302.54 357.56 310.21 346.86 321.84 C 327.88 341.66 322.29 372.84 332.73 398.16 C 334.07 401.81 336.33 405.11 337.20 408.94 C 337.59 413.90 333.24 419.31 327.95 418.62 C 325.14 418.87 322.58 417.21 321.04 414.96 C 316.60 407.58 313.98 399.30 311.84 391.01 C 309.54 381.19 310.14 371.04 310.35 361.04 C 312.42 341.51 321.04 322.74 334.59 308.50 Z" />
<path fill="#1e479c" opacity="1.00" d=" M 61.24 353.18 C 65.79 344.52 75.16 338.78 84.96 338.76 C 120.65 338.85 156.34 338.60 192.03 338.87 C 206.56 339.80 221.19 338.84 235.76 339.35 C 245.59 340.09 254.39 347.26 257.78 356.42 C 261.87 366.49 259.23 378.81 251.41 386.36 C 247.13 390.42 241.57 393.36 235.60 393.67 C 212.06 393.62 188.52 393.85 164.98 393.87 C 159.30 393.70 153.63 393.18 147.95 393.39 C 125.54 393.40 103.14 393.39 80.73 393.39 C 73.55 392.31 66.94 388.06 62.89 382.05 C 56.97 373.74 56.41 362.12 61.24 353.18 M 79.60 358.69 C 76.39 361.14 74.46 365.92 76.42 369.72 C 77.86 373.05 81.23 375.71 84.99 375.47 C 112.65 375.45 140.32 375.59 167.98 375.36 C 177.31 375.45 186.66 375.11 195.99 375.70 C 208.34 375.67 220.69 375.76 233.05 375.66 C 237.60 375.78 241.91 371.62 241.81 367.04 C 242.45 362.10 238.03 357.25 233.08 357.36 C 209.39 357.23 185.69 357.47 162.00 357.40 C 157.65 357.00 153.29 356.59 148.92 357.15 C 135.60 356.91 122.30 357.33 108.99 356.80 C 103.66 356.72 98.34 357.46 93.00 357.08 C 88.56 357.36 83.57 356.08 79.60 358.69 Z" />
<path fill="#0c1e43" opacity="0.43" d=" M 266.30 371.06 C 266.17 362.54 266.38 353.86 268.78 345.63 C 268.17 356.38 265.95 367.11 267.14 377.91 C 267.43 384.02 268.57 390.05 268.87 396.16 C 266.46 388.03 266.14 379.47 266.30 371.06 Z" />
<path fill="#091630" opacity="0.31" d=" M 80.73 393.39 C 103.14 393.39 125.54 393.40 147.95 393.39 C 153.63 393.18 159.30 393.70 164.98 393.87 C 188.52 393.85 212.06 393.62 235.60 393.67 C 235.99 393.84 236.75 394.18 237.14 394.35 C 228.44 395.04 219.70 394.55 210.99 394.69 C 191.99 394.50 172.97 395.44 153.98 394.36 C 130.97 394.41 107.96 394.34 84.94 394.40 C 83.47 394.40 81.91 394.41 80.73 393.39 Z" />
<path fill="#1e479c" opacity="1.00" d=" M 153.94 418.70 C 173.98 418.16 194.03 418.68 214.07 418.57 C 221.41 418.65 228.77 418.37 236.11 418.73 C 243.03 419.99 249.62 423.34 253.91 429.05 C 260.20 437.06 261.44 448.61 257.11 457.82 C 254.07 464.60 248.03 469.73 241.12 472.29 C 233.94 474.39 226.41 473.31 219.05 473.57 C 174.38 473.82 129.70 473.70 85.02 473.72 C 81.90 473.79 78.83 473.21 75.86 472.30 C 66.56 468.75 59.36 460.07 58.27 450.09 C 56.08 436.93 65.02 423.40 77.76 419.74 C 80.86 419.41 83.91 418.69 87.03 418.67 C 109.34 418.72 131.64 418.67 153.94 418.70 M 189.05 437.44 C 154.05 437.33 119.04 437.17 84.04 437.35 C 79.69 437.17 76.90 441.08 75.64 444.77 C 75.65 445.88 75.66 446.99 75.67 448.12 C 77.06 452.04 80.46 455.81 84.94 455.59 C 107.94 455.65 130.95 455.59 153.95 455.62 C 180.31 455.06 206.68 455.73 233.04 455.41 C 237.85 455.22 242.28 450.93 241.82 445.97 C 242.22 441.28 238.19 437.90 234.09 436.68 C 220.37 436.70 206.66 436.52 192.95 436.77 C 191.74 437.39 190.38 437.46 189.05 437.44 Z" />
<path fill="#0c1c3e" opacity="0.40" d=" M 61.38 572.72 C 171.42 572.51 281.47 572.65 391.51 572.65 C 389.77 573.29 387.92 573.60 386.07 573.59 C 279.35 573.60 172.63 573.59 65.92 573.59 C 64.36 573.62 62.84 573.25 61.38 572.72 Z" />
</svg>
