<?xml version="1.0" encoding="UTF-8" ?>
<!DOCTYPE svg PUBLIC "-//W3C//DTD SVG 1.1//EN" "http://www.w3.org/Graphics/SVG/1.1/DTD/svg11.dtd">
<svg width="583pt" height="550pt" viewBox="0 0 583 550" version="1.1" xmlns="http://www.w3.org/2000/svg">
<path fill="#1e479c" opacity="1.00" d=" M 54.47 0.00 L 172.25 0.00 C 177.58 0.76 181.25 6.95 178.90 11.91 C 177.53 15.45 173.65 17.26 170.03 17.19 C 149.86 17.32 129.68 17.04 109.51 17.33 C 122.69 29.42 130.63 47.09 130.54 65.01 C 130.55 204.01 130.53 343.01 130.55 482.02 C 131.02 497.22 125.96 512.53 116.49 524.45 C 114.39 527.13 111.87 529.46 109.90 532.26 C 195.25 532.37 280.59 532.30 365.93 532.30 C 362.96 526.21 359.84 519.96 359.61 513.03 C 359.39 503.38 359.59 493.71 359.51 484.05 C 358.48 462.27 368.63 441.44 382.42 425.15 C 372.40 412.95 371.51 394.36 380.11 381.16 C 385.38 372.68 394.32 366.78 404.00 364.62 C 411.07 363.77 418.22 364.31 425.33 364.17 C 425.51 347.46 424.97 330.71 426.50 314.04 C 431.09 253.37 448.51 192.28 484.54 142.57 C 485.36 141.58 485.68 140.34 485.59 139.07 C 485.55 114.36 485.59 89.66 485.57 64.96 C 485.66 53.22 481.02 41.57 473.09 32.96 C 464.28 23.19 451.28 17.04 438.06 17.21 C 360.69 17.20 283.32 17.25 205.95 17.18 C 201.66 17.39 197.55 14.23 196.80 9.98 C 195.90 5.31 199.64 0.45 204.35 0.00 L 441.64 0.00 C 447.92 1.48 454.27 2.60 460.52 4.25 C 484.96 13.04 502.77 37.89 502.64 63.96 C 502.67 82.27 502.72 100.57 502.62 118.88 C 503.06 118.79 503.96 118.62 504.40 118.53 C 511.84 109.91 520.38 102.32 529.07 95.00 C 540.29 85.62 558.13 86.31 568.94 96.00 C 571.87 98.42 574.08 101.55 576.06 104.76 C 580.28 114.61 579.96 125.50 581.17 135.96 C 582.77 154.08 583.05 172.29 582.88 190.48 C 582.43 199.38 582.34 208.35 581.01 217.18 C 579.57 223.99 576.12 230.31 571.40 235.40 C 567.22 239.76 561.79 242.59 556.58 245.50 C 549.68 249.26 542.96 253.33 536.00 256.99 C 542.45 263.59 551.34 267.65 556.65 275.41 C 563.91 285.53 565.61 299.24 561.06 310.84 C 552.57 334.13 534.94 352.60 516.31 368.31 C 525.16 373.50 532.18 382.01 534.64 392.07 C 537.05 402.32 535.62 413.80 529.40 422.49 C 528.38 423.69 527.56 425.63 529.18 426.76 C 538.26 436.22 544.62 448.14 548.07 460.76 C 551.44 472.55 550.35 484.89 550.52 496.99 C 550.39 506.53 551.52 516.58 547.31 525.50 C 541.83 538.56 528.91 547.78 514.89 549.26 C 511.26 548.71 507.60 548.79 503.95 548.84 C 366.66 548.84 229.36 548.84 92.07 548.84 C 81.42 549.08 70.71 548.32 60.09 549.26 C 37.26 547.45 16.00 532.89 6.30 512.11 C 4.79 506.71 2.37 501.57 1.54 495.99 C 1.16 493.42 0.65 490.87 0.00 488.35 L 0.00 400.94 C 1.28 381.94 10.93 363.63 26.06 352.02 C 37.37 343.07 51.65 338.16 66.04 337.72 C 81.84 337.56 97.66 337.80 113.46 337.61 C 113.42 295.61 113.45 253.61 113.45 211.60 C 98.63 211.51 83.81 211.58 68.99 211.57 C 53.76 211.92 38.46 206.88 26.41 197.57 C 16.10 189.80 8.41 178.89 3.86 166.87 C 2.27 160.77 0.87 154.64 0.00 148.39 L 0.00 60.87 C 1.21 44.09 9.10 27.88 21.64 16.65 C 31.68 7.97 44.30 1.40 57.75 0.84 L 54.47 0.00 M 34.39 28.40 C 23.72 37.30 16.96 51.00 17.18 64.98 C 17.14 91.33 17.15 117.68 17.18 144.02 C 16.90 159.24 24.41 174.24 36.37 183.54 C 45.75 191.12 57.99 194.81 69.98 194.46 C 84.46 194.43 98.94 194.50 113.42 194.43 C 113.47 150.95 113.44 107.46 113.44 63.98 C 113.03 44.75 100.03 26.55 81.87 20.13 C 66.10 14.06 47.18 17.33 34.39 28.40 M 539.55 108.60 C 527.24 118.92 515.89 130.41 505.86 142.97 C 478.53 177.07 461.08 218.28 451.69 260.76 C 444.19 294.47 441.55 329.12 442.64 363.61 C 460.43 363.67 478.23 363.76 496.01 363.58 C 504.01 357.86 511.29 351.15 518.25 344.22 C 529.63 332.32 540.38 319.02 545.54 303.15 C 547.20 298.87 546.59 294.19 545.23 289.93 C 543.61 286.46 541.43 283.14 538.24 280.92 C 530.32 274.76 522.33 268.68 514.48 262.43 C 510.10 258.93 510.96 251.47 515.78 248.78 C 527.72 242.05 539.64 235.27 551.62 228.60 C 557.34 225.71 562.89 220.76 563.81 214.11 C 565.28 213.30 564.64 211.36 564.93 210.02 C 567.01 180.34 566.32 150.49 563.18 120.90 C 562.73 118.15 562.88 114.94 560.74 112.83 C 557.06 105.26 545.89 103.05 539.55 108.60 M 52.21 357.28 C 32.32 363.49 17.28 383.03 17.20 403.99 C 17.13 431.00 17.14 458.02 17.20 485.03 C 17.16 504.62 30.75 523.10 49.20 529.43 C 56.43 532.40 64.37 531.99 72.01 531.69 C 92.38 529.10 110.06 511.87 112.67 491.44 C 114.33 486.48 113.42 481.13 113.66 476.00 C 113.61 435.61 113.76 395.22 113.58 354.83 L 112.72 355.80 L 112.72 354.70 C 98.14 354.86 83.56 354.70 68.98 354.78 C 63.34 355.28 57.58 355.25 52.21 357.28 M 405.06 382.12 C 394.31 385.60 388.38 398.65 392.74 409.05 C 395.59 416.97 403.73 422.04 411.97 422.30 C 439.31 422.31 466.65 422.29 493.99 422.31 C 499.08 422.52 504.43 421.79 508.83 419.07 C 515.06 415.42 519.02 408.16 518.60 400.94 C 518.71 390.60 509.42 380.96 498.99 381.25 C 470.00 381.21 441.02 381.24 412.03 381.23 C 409.69 381.31 407.26 381.17 405.06 382.12 M 394.90 436.79 C 386.09 446.48 379.53 458.48 377.24 471.44 C 420.86 471.64 464.48 471.23 508.10 471.64 C 510.52 472.81 513.06 474.35 513.89 477.11 C 516.27 482.26 511.65 488.87 506.05 488.57 C 462.89 488.59 419.73 488.56 376.58 488.59 C 376.65 496.39 376.38 504.21 376.71 512.01 C 377.58 523.16 387.87 532.32 398.99 532.29 C 436.32 532.33 473.66 532.33 510.99 532.29 C 522.46 532.35 532.97 522.57 533.38 511.06 C 533.50 501.05 533.38 491.03 533.43 481.02 C 533.58 464.60 526.56 448.43 515.12 436.75 C 514.16 435.52 512.69 436.43 511.54 436.75 C 506.63 438.63 501.32 439.56 496.06 439.40 C 467.37 439.36 438.68 439.42 410.00 439.37 C 406.05 438.91 402.08 438.28 398.40 436.73 C 397.28 436.42 395.76 435.53 394.90 436.79 Z" />
<path fill="#122b60" opacity="0.62" d=" M 441.64 0.00 L 446.91 0.00 C 451.44 1.42 456.40 1.71 460.52 4.25 C 454.27 2.60 447.92 1.48 441.64 0.00 Z" />
<path fill="#1e479c" opacity="1.00" d=" M 186.87 76.68 C 188.92 76.43 190.98 76.30 193.05 76.32 C 270.72 76.35 348.38 76.29 426.04 76.35 C 439.27 76.72 450.64 88.80 450.45 102.00 C 450.70 115.52 438.72 128.20 425.02 127.69 C 349.00 127.71 272.99 127.69 196.97 127.70 C 193.30 127.69 189.62 127.83 185.98 127.26 C 179.29 125.31 173.26 120.99 169.82 114.86 C 165.28 107.24 165.18 97.20 169.69 89.53 C 173.20 82.98 179.75 78.50 186.87 76.68 M 184.09 99.08 C 181.71 104.25 186.36 110.86 191.97 110.59 C 269.61 110.63 347.25 110.63 424.89 110.59 C 429.91 110.80 434.09 105.54 433.20 100.70 C 432.58 97.40 430.01 95.05 427.15 93.59 C 394.43 93.23 361.71 93.53 329.00 93.43 C 283.31 93.44 237.63 93.41 191.95 93.45 C 188.49 93.37 185.26 95.89 184.09 99.08 Z" />
<path fill="#091733" opacity="0.33" d=" M 576.06 104.76 C 581.42 111.86 580.18 121.36 581.43 129.69 C 582.38 134.41 581.63 139.32 583.00 143.96 L 583.00 189.36 L 582.88 190.48 C 583.05 172.29 582.77 154.08 581.17 135.96 C 579.96 125.50 580.28 114.61 576.06 104.76 Z" />
<path fill="#0c1c3e" opacity="0.40" d=" M 560.74 112.83 C 562.88 114.94 562.73 118.15 563.18 120.90 C 566.32 150.49 567.01 180.34 564.93 210.02 C 564.64 211.36 565.28 213.30 563.81 214.11 C 565.98 187.82 566.08 161.35 563.58 135.08 C 562.86 127.65 562.58 120.10 560.74 112.83 Z" />
<path fill="#091733" opacity="0.33" d=" M 0.00 148.39 C 0.87 154.64 2.27 160.77 3.86 166.87 C 1.79 163.24 1.18 159.07 0.00 155.11 L 0.00 148.39 Z" />
<path fill="#1e479c" opacity="1.00" d=" M 185.71 150.93 C 188.74 150.07 191.94 150.33 195.06 150.28 C 272.06 150.30 349.06 150.27 426.07 150.30 C 440.77 150.49 452.88 165.58 450.08 179.99 C 448.40 192.00 437.18 201.89 425.01 201.64 C 348.68 201.66 272.36 201.64 196.03 201.65 C 192.09 201.59 188.00 201.98 184.26 200.47 C 173.90 197.27 166.23 186.90 166.38 176.03 C 166.11 164.55 174.66 153.76 185.71 150.93 M 189.50 167.69 C 187.06 168.62 184.95 170.54 184.06 173.03 C 181.77 178.18 186.38 184.77 191.97 184.53 C 269.31 184.57 346.66 184.53 424.01 184.55 C 427.76 184.97 431.41 182.35 432.69 178.88 C 435.15 173.45 429.88 166.59 424.00 167.37 C 347.01 167.38 270.02 167.38 193.03 167.36 C 191.83 167.31 190.66 167.42 189.50 167.69 Z" />
<path fill="#1e479c" opacity="1.00" d=" M 188.30 224.35 C 234.19 224.10 280.09 224.32 325.99 224.24 C 335.96 223.61 345.35 230.33 349.47 239.17 C 352.82 246.55 352.51 255.58 348.35 262.58 C 343.73 270.75 334.40 276.12 324.98 275.60 C 280.30 275.57 235.62 275.62 190.94 275.57 C 178.05 275.34 166.73 263.82 166.40 250.98 C 165.53 238.27 175.69 225.96 188.30 224.35 M 184.28 253.18 C 185.15 255.78 187.60 257.21 189.90 258.37 C 235.97 258.58 282.06 258.55 328.13 258.39 C 330.49 257.23 332.97 255.77 333.94 253.16 C 336.48 247.94 331.84 240.80 326.00 241.33 C 281.33 241.33 236.66 241.32 191.98 241.34 C 186.23 240.93 181.50 248.04 184.28 253.18 Z" />
<path fill="#091732" opacity="0.33" d=" M 112.72 355.80 L 113.58 354.83 C 113.76 395.22 113.61 435.61 113.66 476.00 C 113.42 481.13 114.33 486.48 112.67 491.44 C 112.78 446.23 112.69 401.01 112.72 355.80 Z" />
<path fill="#102755" opacity="0.55" d=" M 0.00 488.35 C 0.65 490.87 1.16 493.42 1.54 495.99 C 2.37 501.57 4.79 506.71 6.30 512.11 C 2.72 506.80 1.93 500.33 0.00 494.37 L 0.00 488.35 Z" />
<path fill="#0d1f45" opacity="0.45" d=" M 60.09 549.26 C 70.71 548.32 81.42 549.08 92.07 548.84 C 229.36 548.84 366.66 548.84 503.95 548.84 C 507.60 548.79 511.26 548.71 514.89 549.26 L 513.60 550.00 L 61.32 550.00 L 60.09 549.26 Z" />
</svg>
