<?xml version="1.0" encoding="UTF-8" ?>
<!DOCTYPE svg PUBLIC "-//W3C//DTD SVG 1.1//EN" "http://www.w3.org/Graphics/SVG/1.1/DTD/svg11.dtd">
<svg width="579pt" height="429pt" viewBox="0 0 579 429" version="1.1" xmlns="http://www.w3.org/2000/svg">
<path fill="#1e479c" opacity="1.00" d=" M 95.95 16.97 C 106.27 6.87 120.51 0.81 134.98 0.67 C 169.99 0.60 205.00 0.60 240.01 0.61 C 248.78 0.64 257.64 2.29 265.55 6.18 C 279.49 12.57 290.64 24.98 295.17 39.66 C 297.58 46.98 298.12 54.74 298.44 62.39 C 327.28 62.11 356.11 62.94 384.96 62.70 C 423.29 62.70 461.63 62.70 499.96 62.70 C 527.80 64.99 553.74 82.03 567.63 106.18 C 573.44 116.83 577.93 128.58 578.24 140.84 L 579.00 136.01 L 579.00 346.91 C 577.52 366.25 569.61 385.13 556.47 399.45 C 539.75 417.72 514.94 429.01 490.03 427.82 C 457.02 427.81 424.01 427.82 391.00 427.81 C 375.99 427.98 360.97 427.39 345.99 428.28 C 314.33 428.28 282.67 428.28 251.01 428.28 C 235.01 427.37 218.98 428.00 202.97 427.81 C 164.64 427.82 126.31 427.81 87.98 427.82 C 70.56 428.67 53.24 422.81 38.77 413.34 C 22.50 402.63 10.03 386.28 4.13 367.71 C 2.08 361.89 0.88 355.80 0.76 349.62 L 0.00 354.50 L 0.00 135.91 L 0.77 140.53 C 0.89 131.36 3.77 122.54 7.37 114.20 C 11.10 105.56 16.38 97.62 22.74 90.69 C 37.21 74.67 57.84 64.86 79.19 62.43 C 79.18 60.28 79.16 58.13 79.19 55.97 C 79.09 41.40 85.47 27.02 95.95 16.97 M 130.09 18.01 C 119.82 19.29 110.41 25.10 104.09 33.20 C 97.63 41.44 95.26 52.17 96.28 62.47 C 112.98 62.26 129.68 62.43 146.38 62.36 C 146.46 47.44 146.26 32.53 146.42 17.61 C 140.98 17.64 135.50 17.32 130.09 18.01 M 163.51 62.38 C 180.20 62.38 196.89 62.34 213.58 62.40 C 213.73 47.46 213.64 32.51 213.63 17.57 C 196.91 17.61 180.19 17.57 163.47 17.58 C 163.47 32.52 163.39 47.45 163.51 62.38 M 230.68 17.58 C 230.67 32.51 230.64 47.45 230.70 62.38 C 247.37 62.37 264.04 62.34 280.70 62.40 C 280.72 56.60 281.14 50.58 279.09 45.04 C 274.76 31.10 262.00 20.22 247.57 18.10 C 241.98 17.25 236.31 17.69 230.68 17.58 M 47.58 91.52 C 32.18 101.94 21.26 118.71 18.00 137.02 C 16.81 143.59 17.16 150.29 17.11 156.93 C 17.11 210.94 17.16 264.98 17.08 318.99 C 17.29 328.25 16.93 337.53 17.27 346.80 C 18.26 362.27 25.19 377.09 35.54 388.53 C 48.70 402.57 67.62 411.23 86.94 411.26 C 220.96 411.23 354.97 411.27 488.99 411.31 C 497.85 411.45 506.69 410.04 515.11 407.29 L 515.80 406.87 C 538.74 398.81 556.43 377.89 560.84 354.02 C 562.22 347.09 561.75 340.00 561.89 333.00 C 561.88 271.68 561.85 210.37 561.89 149.06 C 562.08 132.39 555.76 115.80 544.72 103.34 C 532.77 89.61 515.35 80.72 497.17 79.42 C 485.46 79.17 473.73 79.35 462.02 79.30 C 337.36 79.30 212.71 79.29 88.05 79.30 C 73.71 78.83 59.35 83.38 47.58 91.52 Z" />
<path fill="#1e479c" opacity="1.00" d=" M 144.50 147.67 C 163.22 138.52 184.45 135.18 205.14 136.83 C 217.41 138.41 229.67 141.04 240.90 146.40 C 268.58 146.89 296.29 146.48 323.98 146.61 C 360.31 146.60 396.65 146.64 432.98 146.57 C 450.42 146.51 467.76 153.56 480.04 165.96 C 492.35 177.92 499.15 194.94 499.38 212.02 C 499.34 236.67 499.48 261.32 499.42 285.98 C 499.32 293.12 498.29 300.25 496.22 307.10 C 491.20 322.39 480.45 335.68 466.52 343.75 C 456.38 349.50 444.78 352.89 433.08 352.69 C 370.37 352.67 307.67 352.71 244.97 352.67 C 242.13 352.54 239.43 353.52 236.85 354.57 C 211.09 365.33 181.26 365.68 155.11 356.02 C 129.60 346.88 107.48 328.39 94.14 304.78 C 84.54 288.25 79.91 269.11 79.61 250.07 C 79.70 223.92 88.90 197.76 105.76 177.71 C 107.82 175.28 111.05 174.52 114.10 174.58 C 117.16 175.99 120.31 178.27 120.64 181.91 C 121.37 185.43 118.98 188.33 116.98 190.91 C 107.16 203.36 100.72 218.36 98.01 233.96 C 95.62 247.93 96.48 262.42 100.51 276.01 C 106.79 298.69 122.14 318.47 141.98 330.99 C 157.43 340.76 175.67 346.21 194.00 345.90 C 219.01 346.33 243.90 336.12 261.73 318.65 C 274.41 306.61 283.50 290.99 288.15 274.17 C 289.42 268.75 290.81 263.30 290.76 257.69 L 291.27 257.07 C 291.91 246.29 290.82 235.42 288.12 224.96 C 281.87 202.07 267.02 181.66 247.01 168.87 C 217.48 149.49 177.23 148.07 146.55 165.65 C 143.06 167.48 139.29 170.39 135.14 168.92 C 129.60 167.42 127.24 159.47 131.40 155.40 C 135.14 151.90 140.00 149.98 144.50 147.67 M 268.43 163.56 C 275.49 169.91 282.07 176.80 287.69 184.46 C 336.11 184.48 384.54 184.44 432.96 184.52 C 437.53 184.23 442.08 188.36 441.65 193.06 C 441.78 196.04 439.87 198.79 437.36 200.24 C 434.15 201.93 430.42 201.29 426.95 201.41 C 383.91 201.41 340.86 201.36 297.82 201.43 C 299.94 207.28 302.55 212.95 304.05 219.02 C 304.45 220.40 304.82 222.92 306.94 222.37 C 348.96 222.37 391.00 222.34 433.02 222.38 C 437.64 222.17 442.17 226.33 441.69 231.08 C 441.73 236.02 436.80 239.74 432.06 239.32 C 390.77 239.30 349.47 239.31 308.18 239.31 C 308.12 246.00 309.36 252.95 307.50 259.46 C 310.51 260.65 313.78 260.19 316.94 260.25 C 355.30 260.23 393.65 260.26 432.01 260.23 C 434.64 260.11 437.41 260.72 439.27 262.71 C 442.90 266.01 442.32 272.40 438.45 275.27 C 436.41 277.15 433.48 276.68 430.96 276.78 C 415.61 276.67 400.27 276.82 384.93 276.85 C 377.56 277.06 370.19 276.68 362.82 276.76 L 362.11 277.29 C 355.40 276.81 348.68 276.75 341.95 276.86 C 333.32 278.01 324.64 276.30 316.00 277.03 C 312.26 276.73 308.39 276.32 304.75 277.51 C 303.21 284.55 300.57 291.30 297.55 297.82 C 325.71 297.80 353.85 298.26 382.00 297.89 C 395.65 298.55 409.31 297.49 422.96 298.13 C 427.79 298.29 433.00 296.94 437.51 299.22 C 442.00 301.42 443.07 308.09 439.80 311.77 C 438.20 313.84 435.64 314.99 433.03 314.74 C 384.63 314.70 336.23 314.81 287.83 314.73 C 281.96 322.22 275.84 329.62 268.42 335.65 C 323.62 335.90 378.82 335.70 434.02 335.75 C 456.26 335.92 476.82 318.84 481.27 297.13 C 481.76 293.45 482.42 289.78 482.36 286.07 C 482.33 264.72 482.36 243.37 482.35 222.02 C 482.28 216.69 482.66 211.32 481.81 206.03 C 480.48 195.50 475.65 185.37 468.03 177.93 C 458.72 168.40 445.28 163.14 431.99 163.48 C 377.47 163.55 322.95 163.40 268.43 163.56 Z" />
<path fill="#1e479c" opacity="1.00" d=" M 169.24 203.18 C 184.40 194.93 203.68 195.11 218.88 203.16 C 231.47 209.66 241.08 221.48 245.14 235.03 C 247.80 244.55 247.86 254.60 245.17 264.13 C 240.06 281.52 225.60 295.93 207.95 300.39 C 198.86 302.99 189.20 302.89 180.11 300.41 C 162.55 295.80 147.80 281.52 142.98 263.97 C 140.82 257.55 141.14 250.70 141.32 244.03 C 142.78 226.80 153.97 211.07 169.24 203.18 M 160.41 236.77 C 157.75 242.86 157.96 249.68 158.55 256.17 C 160.64 267.72 168.92 277.96 179.81 282.39 C 188.73 286.36 199.24 286.55 208.18 282.52 C 225.11 275.83 234.57 254.95 228.23 237.82 C 224.06 226.37 213.83 217.47 201.96 214.78 C 185.22 210.53 166.40 220.62 160.41 236.77 Z" />
</svg>
