<?xml version="1.0" encoding="UTF-8" ?>
<!DOCTYPE svg PUBLIC "-//W3C//DTD SVG 1.1//EN" "http://www.w3.org/Graphics/SVG/1.1/DTD/svg11.dtd">
<svg width="583pt" height="579pt" viewBox="0 0 583 579" version="1.1" xmlns="http://www.w3.org/2000/svg">
<path fill="#1e479c" opacity="1.00" d=" M 243.57 0.00 L 257.41 0.00 C 266.36 2.55 275.67 4.49 283.77 9.30 C 294.34 15.64 303.19 24.93 308.84 35.90 C 311.76 35.10 314.14 33.16 316.56 31.44 C 321.67 27.63 327.33 24.66 333.04 21.89 C 352.55 11.49 374.37 5.69 396.36 3.90 C 418.22 2.34 440.32 5.32 461.13 12.13 C 498.41 24.84 530.91 50.87 551.65 84.34 C 567.88 110.51 577.21 141.17 577.48 172.01 C 578.93 214.35 563.93 257.14 536.15 289.17 C 543.71 294.42 550.24 301.23 554.67 309.34 C 558.21 315.77 559.91 322.96 562.55 329.76 C 566.31 340.77 570.19 351.74 573.99 362.74 C 576.96 371.09 579.05 379.78 583.00 387.75 L 583.00 403.10 C 580.16 408.75 578.20 415.04 573.65 419.64 C 567.27 426.87 557.82 430.71 548.36 431.64 C 548.19 460.42 548.33 489.21 548.29 518.00 C 548.10 524.91 548.74 531.88 547.83 538.75 C 546.16 546.03 543.88 553.34 539.49 559.48 C 535.61 565.22 530.19 569.79 524.19 573.19 C 518.94 575.96 513.12 577.39 507.44 579.00 L 75.57 579.00 C 67.46 576.60 59.16 573.88 52.52 568.45 C 42.58 560.32 36.26 547.81 35.53 535.01 C 35.42 500.55 35.54 466.09 35.47 431.63 C 25.42 431.16 15.45 426.84 8.87 419.11 C 4.33 414.16 2.11 407.68 0.00 401.43 L 0.00 386.98 C 3.24 381.27 5.03 374.93 7.00 368.71 C 11.30 355.66 16.10 342.79 20.47 329.76 C 23.33 321.81 25.46 313.46 30.10 306.29 C 40.08 291.04 57.47 279.84 76.07 280.32 C 77.67 280.27 79.75 280.32 80.40 278.49 C 83.42 272.39 85.61 265.90 89.02 259.99 C 90.14 257.47 92.67 254.76 91.11 251.89 C 89.08 247.58 87.78 242.85 85.10 238.90 C 80.76 237.37 76.08 237.11 71.75 235.52 C 44.28 226.85 24.19 198.85 25.29 170.00 C 24.58 152.29 32.20 134.96 44.07 122.07 C 54.64 111.47 68.54 103.86 83.47 101.91 C 91.46 100.87 99.49 101.70 107.43 102.71 C 124.64 80.30 149.21 63.71 176.23 55.58 C 179.27 54.35 184.17 54.77 184.91 50.69 C 187.22 43.00 190.49 35.57 194.99 28.91 C 200.74 20.78 208.40 14.02 217.04 9.10 C 225.26 4.45 234.53 2.40 243.57 0.00 M 224.07 24.99 C 214.45 30.74 206.80 39.92 203.06 50.48 C 210.38 50.28 217.70 50.15 225.02 50.46 C 235.76 51.10 246.24 53.75 256.59 56.58 C 266.05 59.28 274.75 64.04 283.43 68.57 C 289.11 71.49 293.78 75.96 299.34 79.05 C 300.30 74.32 300.83 69.46 299.93 64.68 C 298.97 43.72 283.01 24.61 262.82 19.28 C 249.83 15.29 235.66 18.43 224.07 24.99 M 368.30 26.73 C 350.90 30.72 335.07 39.52 320.44 49.49 C 318.87 50.87 316.44 51.84 316.01 54.09 C 316.43 59.40 317.75 64.64 317.49 70.01 C 317.24 77.47 315.79 84.89 313.51 92.00 C 322.45 102.12 330.82 112.89 336.91 125.01 C 338.33 127.67 339.20 130.66 341.05 133.08 C 341.40 132.93 342.09 132.64 342.44 132.49 C 350.20 118.01 359.44 104.37 369.05 91.07 C 386.09 68.73 404.78 47.45 426.44 29.46 C 428.73 27.44 431.33 25.69 433.15 23.19 C 411.62 19.90 389.27 20.56 368.30 26.73 M 402.93 76.88 C 392.89 87.36 384.61 99.31 375.96 110.91 C 366.36 125.25 357.28 139.99 349.64 155.47 C 348.64 158.88 350.02 162.35 350.64 165.69 C 352.58 174.65 352.75 183.86 352.63 192.99 C 352.80 206.48 350.41 219.90 346.51 232.78 C 345.47 236.38 343.63 239.77 343.15 243.52 C 355.46 251.01 362.65 265.55 362.59 279.80 C 367.71 280.77 372.95 280.23 378.12 280.13 C 378.77 246.88 388.56 214.39 402.86 184.57 C 412.56 165.75 423.43 147.33 437.16 131.14 C 439.35 128.04 443.26 128.18 446.64 128.50 C 448.74 130.66 451.67 132.77 451.66 136.11 C 452.27 140.60 448.55 143.80 446.18 147.12 C 433.11 164.44 422.10 183.31 413.23 203.11 C 410.45 209.74 408.17 216.56 405.60 223.27 C 401.31 235.87 398.73 249.00 396.75 262.15 C 396.11 268.20 395.02 274.23 395.43 280.34 C 433.30 280.29 471.17 280.30 509.04 280.33 C 512.72 280.10 516.24 281.57 519.90 281.45 C 529.12 272.48 535.83 261.36 542.13 250.24 C 553.31 230.34 558.47 207.62 560.30 185.04 C 562.16 148.24 551.34 110.64 528.72 81.37 C 527.23 79.80 526.17 77.12 524.10 76.51 C 507.82 86.24 492.64 97.85 478.89 110.93 C 476.16 113.51 473.77 116.52 470.60 118.60 C 468.39 120.09 465.51 119.88 463.02 119.41 C 458.32 117.42 455.59 111.04 458.75 106.64 C 461.73 103.02 465.33 99.96 468.62 96.62 C 482.00 84.67 495.92 73.06 511.57 64.22 C 511.54 63.40 511.50 62.58 511.47 61.76 C 503.89 55.56 496.41 49.15 488.05 44.01 C 477.70 37.53 466.47 32.65 455.02 28.51 C 435.95 42.66 418.58 59.04 402.93 76.88 M 170.34 76.25 C 161.19 79.87 152.44 84.58 144.65 90.61 C 134.77 97.25 126.58 106.04 119.30 115.38 C 108.96 129.25 101.20 145.17 97.70 162.16 C 91.20 188.68 94.37 217.17 105.24 242.09 C 115.53 236.42 128.00 234.58 139.33 237.98 C 146.97 240.81 154.37 245.04 159.55 251.46 C 166.33 259.33 170.14 269.73 169.92 280.13 C 202.28 280.57 234.66 280.15 267.03 280.35 C 269.18 280.23 272.37 280.90 273.31 278.29 C 276.57 271.71 278.96 264.72 282.37 258.22 C 285.07 253.21 289.31 249.29 293.43 245.46 C 297.61 241.46 303.19 239.51 308.58 237.71 C 314.60 235.70 321.02 236.54 327.24 236.50 C 328.46 231.59 330.40 226.90 331.71 222.02 C 335.80 208.07 336.05 193.42 335.37 179.01 C 333.66 160.06 327.00 141.80 317.56 125.37 C 307.87 108.95 293.64 95.68 277.81 85.27 C 259.00 73.84 237.11 66.99 215.00 67.49 C 199.72 67.13 184.31 69.96 170.34 76.25 M 45.24 152.53 C 41.78 160.83 42.02 169.97 42.68 178.75 C 44.51 189.54 50.07 199.55 57.58 207.42 C 64.17 213.17 71.91 218.13 80.59 219.84 C 79.68 216.96 79.03 213.99 78.67 210.99 C 75.08 184.62 78.20 157.01 89.39 132.73 C 91.18 127.84 94.38 123.59 95.97 118.62 C 74.09 117.24 52.21 131.65 45.24 152.53 M 122.28 254.09 C 114.32 255.75 106.95 261.07 103.69 268.64 C 98.30 280.96 92.52 293.10 87.29 305.49 C 84.49 311.96 85.03 319.61 88.31 325.80 C 91.39 332.92 98.21 337.85 105.43 340.16 C 111.31 341.01 117.73 341.15 123.04 338.07 C 128.96 335.28 133.04 329.83 135.81 324.08 C 139.74 315.80 143.01 307.24 146.97 298.99 C 148.91 294.77 151.11 290.60 152.24 286.06 C 152.81 282.40 152.69 278.65 152.39 274.96 C 150.77 261.16 135.70 251.01 122.28 254.09 M 315.28 254.06 C 308.50 255.57 301.91 259.37 298.27 265.43 C 293.34 274.24 289.82 283.72 285.57 292.84 C 282.76 299.35 278.54 305.64 278.48 312.97 C 277.49 326.96 289.52 341.31 303.98 340.63 C 310.61 341.16 317.10 338.33 321.92 333.90 C 325.77 330.19 328.02 325.24 330.21 320.46 C 334.25 311.47 338.20 302.44 342.23 293.45 C 345.03 287.32 346.67 280.29 344.74 273.65 C 342.09 260.80 328.17 251.33 315.28 254.06 M 164.19 302.21 C 159.65 312.28 155.22 322.40 150.67 332.47 C 142.76 351.26 119.89 362.93 100.19 356.68 C 88.45 353.37 78.42 344.77 73.20 333.76 C 67.73 322.77 67.28 309.59 71.83 298.21 C 64.43 298.60 57.64 302.43 51.98 306.98 C 45.17 312.70 41.09 320.90 38.58 329.28 C 33.01 346.60 26.42 363.57 21.03 380.95 C 18.70 387.20 15.99 393.79 17.72 400.59 C 19.94 407.95 27.00 414.21 35.01 413.62 C 54.01 413.59 73.01 413.63 92.02 413.59 C 94.28 413.40 96.46 414.36 98.08 415.90 C 102.56 419.62 101.67 428.30 96.01 430.45 C 92.71 431.02 89.34 430.74 86.00 430.79 C 74.86 430.66 63.71 431.01 52.59 430.61 C 52.52 464.42 52.60 498.24 52.54 532.05 C 52.40 537.88 54.41 543.61 57.50 548.50 C 62.81 557.00 73.06 561.90 82.99 561.40 C 148.02 561.34 213.05 561.40 278.07 561.38 C 292.32 560.88 305.59 548.52 305.62 533.99 C 305.65 475.43 305.65 416.88 305.62 358.32 C 303.70 358.28 301.78 358.14 299.89 358.47 C 295.52 367.51 293.61 377.53 289.86 386.82 C 287.36 393.07 286.14 399.87 282.48 405.61 C 275.84 416.51 265.46 425.36 253.12 429.04 C 245.09 432.15 236.40 431.31 228.00 431.39 C 194.32 431.40 160.64 431.37 126.97 431.40 C 123.45 431.68 120.67 428.83 118.99 426.06 C 116.13 420.28 121.65 412.85 127.94 413.57 C 164.96 413.65 201.98 413.59 239.01 413.61 C 249.54 413.89 259.56 408.11 265.81 399.84 C 270.20 393.96 271.53 386.58 274.10 379.86 C 276.63 371.85 279.92 364.12 282.30 356.06 C 282.62 354.91 282.93 353.69 282.62 352.51 C 279.92 350.16 276.80 348.29 274.35 345.65 C 265.63 337.24 261.17 324.97 261.46 312.96 C 261.45 307.63 263.32 302.57 264.21 297.37 C 232.15 297.68 200.09 297.39 168.03 297.51 C 165.36 297.13 165.19 300.53 164.19 302.21 M 359.25 297.46 C 353.05 311.00 347.26 324.74 340.71 338.11 C 345.24 355.25 352.27 371.72 357.48 388.70 C 361.38 402.08 373.62 413.31 387.95 413.56 C 440.97 413.68 494.00 413.56 547.02 413.62 C 553.36 413.99 559.77 410.61 563.11 405.22 C 566.80 399.52 566.32 392.02 563.86 385.94 C 560.48 377.35 558.08 368.42 554.90 359.76 C 552.52 352.32 549.57 345.08 547.19 337.64 C 544.52 330.45 543.02 322.71 538.82 316.18 C 532.42 305.95 521.18 298.47 509.05 297.53 C 459.12 297.43 409.18 297.57 359.25 297.46 M 322.69 355.23 C 322.66 414.82 322.70 474.41 322.67 533.99 C 322.70 540.41 320.94 546.72 318.42 552.58 C 317.15 555.83 314.45 558.24 313.08 561.43 C 377.06 561.27 441.04 561.48 505.02 561.33 C 515.38 559.98 525.04 552.99 529.07 543.26 C 531.36 537.80 530.60 531.76 530.74 526.00 C 530.71 494.47 530.78 462.93 530.70 431.40 C 482.78 431.34 434.85 431.46 386.92 431.34 C 379.40 430.67 372.04 428.16 365.35 424.69 C 356.86 419.48 349.50 412.13 344.92 403.23 C 340.77 394.07 338.02 384.37 334.86 374.86 C 331.88 367.27 329.70 359.42 326.92 351.78 C 325.46 352.71 322.72 353.07 322.69 355.23 Z" />
<path fill="#1e479c" opacity="1.00" d=" M 240.45 106.66 C 242.36 106.34 244.38 106.31 246.26 106.86 C 249.76 108.99 251.53 112.87 253.73 116.17 C 255.53 119.19 258.12 122.22 257.73 125.98 C 258.12 132.13 250.09 136.70 245.06 132.99 C 240.70 129.84 239.08 124.30 235.93 120.10 C 232.40 115.47 235.07 108.38 240.45 106.66 Z" />
<path fill="#1e479c" opacity="1.00" d=" M 220.51 142.58 C 223.76 140.43 228.28 141.37 230.70 144.33 C 238.07 153.14 236.82 167.59 228.14 175.11 C 223.46 180.04 216.74 181.99 210.10 181.74 C 207.50 185.52 205.43 189.80 201.61 192.59 C 194.34 198.52 183.05 199.41 175.28 193.87 C 171.54 191.12 167.67 187.76 166.66 183.00 C 166.28 179.99 167.87 177.03 170.02 175.02 C 172.18 172.77 175.69 173.18 178.49 173.67 C 181.91 175.55 183.62 180.27 187.99 180.33 C 190.59 179.70 193.49 177.84 193.60 174.89 C 194.03 171.36 191.14 168.46 191.44 164.96 C 191.98 160.51 196.29 156.62 200.90 157.41 C 205.85 157.32 207.34 163.75 212.05 164.36 C 215.24 164.56 217.64 161.75 218.47 158.93 C 218.62 155.81 216.06 153.23 216.32 150.06 C 215.96 146.93 217.96 144.16 220.51 142.58 Z" />
<path fill="#1e479c" opacity="1.00" d=" M 132.50 175.67 C 135.94 174.88 140.65 174.68 142.71 178.17 C 145.27 182.12 147.71 186.16 150.04 190.25 C 152.62 195.34 149.28 203.20 142.98 202.69 C 138.82 203.46 135.83 200.14 134.08 196.84 C 132.11 193.42 129.81 190.17 128.20 186.55 C 126.23 182.53 128.92 177.73 132.50 175.67 Z" />
</svg>
