<?xml version="1.0" encoding="UTF-8" ?>
<!DOCTYPE svg PUBLIC "-//W3C//DTD SVG 1.1//EN" "http://www.w3.org/Graphics/SVG/1.1/DTD/svg11.dtd">
<svg width="571pt" height="450pt" viewBox="0 0 571 450" version="1.1" xmlns="http://www.w3.org/2000/svg">
<path fill="#1e479c" opacity="1.00" d=" M 34.85 4.86 C 43.75 1.14 53.54 0.62 63.07 0.77 C 212.74 0.78 362.41 0.75 512.07 0.78 C 524.27 0.80 536.47 4.45 546.35 11.66 C 560.99 22.13 570.28 39.96 569.84 58.02 C 569.83 166.67 569.84 275.32 569.83 383.96 C 569.84 392.00 570.25 400.21 567.75 407.97 C 562.63 426.08 548.06 441.04 530.07 446.59 C 519.69 450.00 508.66 449.14 497.91 449.23 C 353.94 449.23 209.96 449.23 65.99 449.23 C 56.28 449.36 46.30 449.45 37.06 446.03 C 18.41 439.66 3.64 422.98 0.00 403.57 L 0.00 46.47 C 3.52 27.86 17.22 11.69 34.85 4.86 M 26.46 30.47 C 18.95 38.26 15.31 49.25 15.62 59.97 C 15.61 72.81 15.66 85.66 15.59 98.51 C 160.74 98.60 305.89 98.49 451.03 98.56 C 455.48 98.46 459.61 102.53 459.40 107.01 C 459.62 111.47 455.46 115.63 450.99 115.39 C 305.86 115.45 160.74 115.39 15.61 115.42 C 15.64 207.96 15.61 300.49 15.62 393.02 C 15.90 407.87 24.93 422.10 38.43 428.39 C 46.31 432.38 55.33 432.53 63.96 432.31 C 213.63 432.31 363.29 432.32 512.96 432.31 C 525.92 432.35 538.79 425.81 546.01 414.99 C 551.67 407.25 553.53 397.41 553.19 387.99 C 553.23 297.18 553.09 206.37 553.26 115.57 C 533.52 115.22 513.77 115.50 494.03 115.42 C 491.22 115.28 488.08 115.93 485.62 114.23 C 483.16 112.73 481.32 109.97 481.52 107.02 C 481.27 103.08 484.41 99.91 487.88 98.62 C 509.67 98.34 531.47 98.79 553.26 98.40 C 553.01 84.24 553.38 70.06 553.08 55.90 C 552.51 43.69 546.13 31.82 535.95 24.97 C 529.34 20.10 521.09 17.92 512.97 17.74 C 360.64 17.73 208.31 17.74 55.99 17.74 C 44.94 17.72 33.94 22.29 26.46 30.47 Z" />
<path fill="#1e479c" opacity="1.00" d=" M 48.20 56.97 C 48.33 45.86 57.12 35.77 67.90 33.55 C 73.66 32.89 79.83 32.90 84.98 35.93 C 92.05 39.37 96.57 46.50 98.18 54.02 C 99.42 62.85 96.06 72.40 88.89 77.88 C 82.13 83.40 72.37 84.96 64.25 81.72 C 54.44 77.92 47.29 67.63 48.20 56.97 M 71.04 50.11 C 67.44 51.05 65.30 54.54 64.63 58.00 C 65.29 60.94 66.39 64.17 69.35 65.53 C 74.24 68.49 81.15 64.59 81.55 59.03 C 82.42 53.52 76.34 48.24 71.04 50.11 Z" />
<path fill="#1e479c" opacity="1.00" d=" M 130.05 35.19 C 135.28 32.52 141.40 33.09 147.04 33.76 C 156.30 36.51 163.41 44.42 165.24 53.89 C 166.35 61.87 163.86 70.40 158.02 76.05 C 152.36 81.75 143.85 84.51 135.94 83.01 C 124.64 81.12 115.20 70.59 115.22 59.01 C 114.60 49.01 120.92 39.17 130.05 35.19 M 138.70 49.95 C 132.54 50.97 129.87 59.36 134.20 63.81 C 137.87 68.18 145.43 66.92 147.80 61.83 C 151.10 56.06 145.05 48.30 138.70 49.95 Z" />
<path fill="#1e479c" opacity="1.00" d=" M 200.74 33.70 C 206.55 33.05 212.85 32.57 218.18 35.47 C 224.30 38.22 229.01 43.67 231.13 50.01 C 234.57 59.35 231.51 70.56 224.00 77.04 C 218.16 82.31 209.69 84.60 202.01 82.80 C 196.24 81.62 191.09 78.12 187.48 73.51 C 181.54 66.16 180.54 55.24 184.90 46.88 C 187.98 40.41 194.05 35.92 200.74 33.70 M 205.69 49.97 C 199.00 51.06 196.71 60.80 202.26 64.70 C 206.95 68.96 215.31 65.19 215.64 59.04 C 216.50 53.70 210.90 48.60 205.69 49.97 Z" />
<path fill="#1e479c" opacity="1.00" d=" M 247.62 151.87 C 254.76 150.94 262.20 152.84 268.18 156.83 C 290.36 170.92 312.47 185.11 334.63 199.24 C 341.10 203.59 345.91 210.38 347.56 218.03 C 350.82 230.19 345.13 243.81 334.76 250.73 C 311.77 265.34 288.91 280.17 265.82 294.64 C 252.48 302.87 233.73 297.27 225.46 284.44 C 222.01 279.33 220.22 273.14 220.35 266.98 C 220.38 238.30 220.26 209.62 220.41 180.95 C 220.80 166.26 233.18 153.56 247.62 151.87 M 248.66 168.91 C 242.09 169.94 236.87 176.24 237.26 182.92 C 237.27 211.29 237.21 239.67 237.29 268.05 C 237.26 275.59 244.48 281.95 251.92 281.46 C 256.32 281.40 259.89 278.54 263.43 276.29 C 283.79 263.27 304.18 250.31 324.52 237.26 C 328.69 234.65 331.85 230.09 331.62 225.02 C 331.86 219.91 328.62 215.36 324.44 212.73 C 302.82 198.89 281.16 185.12 259.55 171.26 C 256.35 169.24 252.42 168.18 248.66 168.91 Z" />
<path fill="#1e479c" opacity="1.00" d=" M 190.19 334.58 C 198.36 324.13 211.70 317.85 224.98 318.34 C 237.35 318.32 249.41 324.28 257.39 333.65 C 258.01 334.50 258.87 334.84 259.96 334.64 C 337.98 334.61 416.00 334.66 494.02 334.62 C 501.74 334.35 509.79 337.12 515.08 342.90 C 520.95 348.55 523.68 356.98 522.76 365.03 C 521.72 378.40 509.37 389.36 496.08 389.50 C 416.73 389.57 337.38 389.41 258.03 389.58 C 250.16 399.45 237.74 405.75 225.05 405.65 C 215.14 406.02 205.09 402.82 197.36 396.59 C 183.81 386.43 177.45 367.89 181.70 351.50 C 145.43 351.41 109.16 351.46 72.89 351.47 C 66.02 351.36 60.37 359.40 63.30 365.76 C 64.77 369.67 68.64 372.64 72.88 372.61 C 100.59 372.66 128.30 372.62 156.01 372.63 C 160.57 372.28 165.25 376.27 164.76 381.01 C 165.25 385.74 160.58 389.75 156.04 389.51 C 128.68 389.50 101.33 389.51 73.97 389.51 C 65.78 389.69 57.53 386.01 52.28 379.71 C 46.52 373.05 44.38 363.44 46.77 354.97 C 49.27 344.57 58.58 336.67 68.97 334.82 C 109.37 334.35 149.79 334.83 190.19 334.58 M 217.15 336.03 C 206.06 338.87 197.43 349.50 197.38 361.01 C 196.79 370.26 201.62 379.55 209.41 384.54 C 219.79 391.53 235.14 389.88 243.57 380.53 C 250.35 373.79 252.28 363.32 249.83 354.28 C 247.61 346.83 242.03 340.43 234.86 337.38 C 229.35 334.88 222.98 334.77 217.15 336.03 M 266.50 351.54 C 268.87 358.35 268.43 365.70 266.48 372.55 C 342.66 372.74 418.84 372.57 495.02 372.64 C 501.89 373.26 507.95 365.79 505.78 359.22 C 504.86 355.52 501.68 353.06 498.35 351.60 C 483.89 351.27 469.43 351.55 454.96 351.46 C 392.14 351.51 329.32 351.35 266.50 351.54 Z" />
</svg>
