<?xml version="1.0" encoding="UTF-8" ?>
<!DOCTYPE svg PUBLIC "-//W3C//DTD SVG 1.1//EN" "http://www.w3.org/Graphics/SVG/1.1/DTD/svg11.dtd">
<svg width="542pt" height="375pt" viewBox="0 0 542 375" version="1.1" xmlns="http://www.w3.org/2000/svg">
<path fill="#1e479c" opacity="1.00" d=" M 67.45 0.00 L 469.23 0.00 C 477.79 1.92 486.55 3.48 494.57 7.20 C 512.43 14.92 527.16 29.60 534.73 47.54 C 538.63 55.84 540.11 64.93 542.00 73.82 L 542.00 301.09 C 540.13 310.01 538.64 319.13 534.73 327.46 C 527.14 345.41 512.40 360.15 494.49 367.82 C 486.21 371.59 477.22 373.30 468.34 375.00 L 72.77 375.00 C 68.59 374.11 64.42 373.14 60.26 372.18 C 39.17 367.05 20.37 352.82 10.22 333.57 C 4.60 323.58 2.08 312.33 0.00 301.18 L 0.00 73.91 C 2.06 62.99 4.42 51.95 9.85 42.13 C 18.03 26.28 32.04 13.67 48.37 6.63 C 54.54 3.86 61.33 2.88 67.45 0.00 M 32.94 36.93 C 22.36 48.56 16.17 64.24 16.49 80.00 C 16.52 152.68 16.47 225.35 16.51 298.02 C 17.02 313.68 23.80 329.05 34.91 340.09 C 46.49 352.14 63.30 359.01 80.01 358.47 C 192.64 358.44 305.29 358.49 417.92 358.45 C 418.06 358.08 418.33 357.36 418.46 356.99 C 413.72 349.89 409.43 342.49 404.95 335.22 C 401.03 328.88 397.71 321.90 391.90 317.01 C 384.07 309.88 373.68 305.34 363.03 305.43 C 301.34 305.46 239.65 305.43 177.96 305.44 C 167.65 305.63 157.68 310.11 150.10 317.01 C 142.64 323.35 139.27 332.86 133.58 340.57 C 131.55 343.23 127.78 345.63 124.48 343.75 C 121.91 342.49 119.08 340.19 119.36 337.03 C 118.95 334.33 120.24 331.91 121.66 329.73 C 126.51 322.30 130.31 314.04 136.81 307.81 C 148.23 295.49 165.24 288.60 182.00 289.36 C 243.02 289.39 304.04 289.33 365.06 289.39 C 384.49 290.09 402.92 301.44 413.09 317.89 C 418.22 326.43 423.52 334.86 428.61 343.43 C 431.87 348.42 434.50 353.84 438.21 358.54 C 446.14 358.39 454.07 358.49 461.99 358.47 C 478.70 359.00 495.51 352.15 507.08 340.08 C 519.11 328.49 526.04 311.70 525.51 295.00 C 525.48 221.98 525.54 148.97 525.47 75.95 C 524.73 48.74 503.59 24.10 477.17 18.23 C 468.63 15.90 459.74 16.63 451.00 16.54 C 326.67 16.53 202.33 16.54 78.00 16.53 C 61.03 16.76 44.37 24.40 32.94 36.93 Z" />
<path fill="#1e479c" opacity="1.00" d=" M 103.27 45.87 C 105.82 45.39 108.42 45.42 111.00 45.38 C 218.33 45.39 325.66 45.38 432.99 45.38 C 456.66 44.73 478.03 66.45 477.62 90.00 C 477.63 113.33 477.61 136.66 477.64 159.99 C 477.60 162.98 477.80 165.98 477.34 168.94 C 475.87 171.52 473.13 173.90 469.99 173.69 C 465.98 173.97 462.00 170.13 462.29 166.08 C 462.24 140.70 462.35 115.32 462.25 89.94 C 461.67 74.84 448.21 61.36 433.04 61.34 C 326.02 61.34 219.00 61.36 111.98 61.33 C 96.22 60.61 81.18 75.06 82.20 91.00 C 82.21 132.33 82.20 173.67 82.20 215.00 C 81.39 230.52 95.53 244.65 110.94 244.57 C 218.31 244.57 325.68 244.57 433.06 244.57 C 446.52 244.43 458.57 233.94 461.48 220.94 C 463.22 213.42 461.66 205.65 462.49 198.05 C 464.29 192.45 472.74 191.24 476.14 195.89 C 478.34 197.99 477.42 201.30 477.65 204.00 C 477.34 212.08 478.60 220.45 475.76 228.22 C 470.46 246.27 452.91 260.15 434.02 260.54 C 326.01 260.54 217.99 260.53 109.98 260.54 C 97.67 260.36 85.89 254.29 77.56 245.39 C 70.05 237.16 66.03 226.12 65.65 215.06 C 65.67 173.69 65.67 132.32 65.64 90.95 C 65.99 81.07 69.06 71.14 75.24 63.32 C 82.01 54.32 92.24 48.06 103.27 45.87 Z" />
<path fill="#1e479c" opacity="1.00" d=" M 153.55 154.29 C 155.33 153.95 157.13 153.65 158.95 153.64 C 234.32 153.66 309.69 153.64 385.06 153.65 C 397.32 154.22 409.31 160.48 416.35 170.61 C 423.99 181.26 425.93 195.70 421.33 207.97 C 418.51 216.06 412.64 222.72 405.78 227.69 C 398.26 232.77 388.97 234.74 379.99 234.36 C 310.99 234.32 242.00 234.35 173.00 234.34 C 164.46 234.22 155.67 235.16 147.45 232.23 C 134.59 228.27 124.57 217.16 121.14 204.25 C 118.43 195.37 119.60 185.66 123.56 177.34 C 128.81 165.24 140.60 156.43 153.55 154.29 M 155.56 170.26 C 146.77 171.89 139.28 178.78 136.73 187.32 C 132.27 200.14 141.89 215.32 155.10 217.57 C 159.43 217.80 164.05 218.27 168.14 216.46 C 177.38 212.79 184.19 203.07 183.55 193.01 C 183.27 179.31 169.13 167.33 155.56 170.26 M 310.71 171.78 C 305.89 186.84 306.74 203.15 310.94 218.25 C 324.61 218.44 338.28 218.29 351.95 218.33 C 348.05 210.75 343.80 202.80 344.40 193.98 C 343.93 185.22 347.91 177.20 351.97 169.72 C 339.64 169.72 327.31 169.73 314.98 169.70 C 313.33 169.61 311.28 169.97 310.71 171.78 M 192.22 170.37 C 195.01 175.52 197.71 180.82 198.79 186.63 C 201.25 197.35 197.86 208.54 191.99 217.57 C 193.94 218.11 195.95 218.46 197.99 218.38 C 208.36 218.29 218.72 218.37 229.09 218.35 C 230.54 218.47 231.91 217.95 233.02 217.04 C 237.44 201.86 237.85 185.28 232.41 170.30 C 219.01 170.35 205.61 170.20 192.22 170.37 M 249.28 170.42 C 252.19 180.98 253.14 192.02 252.14 202.92 C 251.38 207.85 250.32 212.74 250.03 217.74 C 264.88 217.71 279.73 217.92 294.57 217.63 C 291.26 206.81 290.95 195.39 291.78 184.18 C 292.49 179.57 293.57 175.01 293.93 170.34 C 279.05 170.33 264.16 170.19 249.28 170.42 M 378.20 170.76 C 369.89 173.11 362.94 179.96 360.84 188.40 C 359.64 194.72 360.35 201.57 364.04 207.00 C 369.60 216.43 382.12 220.16 392.23 216.59 C 401.15 213.01 408.34 203.91 407.66 194.00 C 408.27 184.66 401.88 175.88 393.56 172.13 C 388.84 169.73 383.29 170.01 378.20 170.76 Z" />
<path fill="#1e479c" opacity="1.00" d=" M 57.21 287.66 C 63.17 286.79 69.55 287.17 74.82 290.35 C 82.19 294.91 87.71 303.12 87.58 311.98 C 88.28 325.64 75.71 338.39 61.99 337.62 C 48.28 337.78 36.17 324.61 37.46 310.95 C 37.81 299.93 46.57 290.07 57.21 287.66 M 59.21 303.81 C 56.00 305.15 53.25 308.39 53.36 312.00 C 52.78 318.15 60.04 323.63 65.79 321.08 C 69.05 319.34 72.10 315.97 71.66 312.03 C 71.60 306.00 64.83 301.52 59.21 303.81 Z" />
<path fill="#1e479c" opacity="1.00" d=" M 474.24 287.64 C 478.80 287.14 483.65 286.88 487.99 288.65 C 497.80 292.28 505.16 302.41 504.56 313.01 C 504.70 326.31 492.31 338.35 478.99 337.62 C 470.03 337.80 461.72 332.05 457.41 324.42 C 453.37 317.14 453.35 307.85 457.37 300.55 C 460.99 294.26 466.99 289.08 474.24 287.64 M 476.20 303.78 C 470.11 305.96 468.19 314.63 473.02 319.01 C 477.96 324.79 488.89 320.63 488.63 313.01 C 489.66 306.50 482.04 301.50 476.20 303.78 Z" />
</svg>
