<?xml version="1.0" encoding="UTF-8" ?>
<!DOCTYPE svg PUBLIC "-//W3C//DTD SVG 1.1//EN" "http://www.w3.org/Graphics/SVG/1.1/DTD/svg11.dtd">
<svg width="538pt" height="500pt" viewBox="0 0 538 500" version="1.1" xmlns="http://www.w3.org/2000/svg">
<path fill="#11295b" opacity="0.58" d=" M 429.45 0.00 L 443.43 0.00 C 443.89 0.54 444.81 1.61 445.27 2.14 C 438.77 1.70 432.25 1.60 425.74 1.57 C 426.98 1.06 428.20 0.50 429.45 0.00 Z" />
<path fill="#1e479c" opacity="1.00" d=" M 415.19 2.29 C 418.73 2.53 422.25 2.10 425.74 1.57 C 432.25 1.60 438.77 1.70 445.27 2.14 C 447.28 2.28 449.30 2.28 451.33 2.29 C 451.12 2.70 450.92 3.11 450.73 3.52 C 452.76 3.98 454.86 4.28 456.80 5.12 C 469.80 10.84 480.37 21.47 486.79 34.05 C 489.03 38.20 487.43 44.12 482.74 45.59 C 479.89 45.73 475.99 46.68 474.10 43.93 C 470.90 39.67 469.04 34.52 465.47 30.51 C 457.17 21.16 444.64 15.28 432.00 16.56 C 417.90 18.35 404.03 21.68 389.94 23.53 C 381.87 25.09 373.82 26.97 365.59 27.39 C 365.86 27.80 366.13 28.21 366.40 28.62 C 358.81 28.51 351.50 30.97 344.00 31.77 C 337.48 32.40 331.13 34.42 324.56 34.39 C 324.84 34.80 325.14 35.20 325.43 35.61 C 320.20 35.44 315.17 37.08 310.04 37.78 C 300.02 39.30 290.03 41.00 280.09 42.99 C 259.97 45.93 240.15 50.59 220.02 53.47 C 207.86 56.20 196.30 62.58 188.10 72.05 C 179.39 83.08 173.01 96.70 173.33 111.01 C 173.48 122.85 173.07 134.71 173.52 146.55 C 178.37 146.95 183.08 145.40 187.85 144.75 C 209.14 141.29 230.29 137.07 251.59 133.65 C 262.46 131.99 273.20 129.61 284.07 127.95 C 289.87 127.15 295.55 125.27 301.47 125.58 C 300.82 125.13 300.08 124.83 299.44 124.38 C 305.07 124.83 310.45 122.86 315.98 122.22 C 322.47 121.43 328.82 119.38 335.42 119.62 C 335.12 119.19 334.83 118.77 334.54 118.35 C 340.50 118.85 346.18 116.78 352.01 116.01 C 363.24 114.27 374.31 111.65 385.59 110.23 C 401.73 107.16 417.95 104.56 434.09 101.53 C 446.51 100.05 458.58 96.47 471.03 95.21 C 472.84 94.90 474.83 94.69 476.31 93.46 C 476.63 85.99 475.89 78.48 476.62 71.03 C 478.00 66.82 483.11 65.93 486.97 66.76 C 490.71 70.12 491.24 75.25 491.21 79.98 C 491.20 158.99 491.20 237.99 491.21 317.00 C 491.35 328.81 490.84 340.81 487.33 352.18 C 486.21 356.37 483.97 360.35 484.09 364.80 C 488.40 364.09 492.56 362.37 497.00 362.47 C 507.75 361.87 518.03 371.15 518.37 381.95 C 518.58 389.97 518.18 397.99 518.31 406.02 C 518.23 407.26 518.82 408.37 519.48 409.39 C 523.90 416.24 529.76 422.03 533.91 429.07 C 535.02 432.03 536.36 434.89 538.00 437.59 L 538.00 445.25 C 537.00 447.11 536.24 449.07 535.81 451.14 C 534.16 455.00 531.44 458.55 527.62 460.44 C 520.27 464.00 512.18 465.47 504.38 467.68 C 500.70 468.71 497.19 470.75 495.29 474.18 C 492.27 479.39 488.72 484.24 485.13 489.06 C 481.71 491.98 478.70 495.68 474.38 497.29 C 466.87 499.59 458.53 498.29 451.96 494.04 C 447.50 489.41 444.25 483.81 440.36 478.73 C 437.79 475.41 436.02 471.00 431.91 469.27 C 425.30 466.02 417.76 465.78 410.98 463.01 C 405.33 461.04 400.25 457.18 397.11 452.07 C 394.04 445.70 395.78 438.42 395.88 431.66 C 391.55 431.25 387.35 432.80 383.05 433.07 C 373.73 433.79 364.28 433.55 355.07 431.88 C 346.74 430.39 338.84 427.24 331.13 423.87 C 322.06 419.94 314.81 412.96 308.01 405.97 C 303.39 401.25 300.41 395.26 297.67 389.33 C 293.78 381.15 292.05 372.02 292.30 363.00 C 292.11 354.69 292.44 346.25 295.06 338.30 C 298.35 328.70 302.14 319.13 307.69 310.59 C 313.43 301.28 321.91 294.23 329.47 286.48 C 335.14 280.57 342.75 277.23 349.43 272.66 C 356.70 268.57 364.23 264.81 372.23 262.32 C 385.81 257.31 400.42 255.99 414.78 255.52 C 416.15 254.52 415.31 252.47 415.60 251.04 C 415.49 212.69 415.59 174.35 415.55 136.00 C 415.49 131.21 415.82 126.40 415.31 121.62 C 411.54 121.30 407.85 122.30 404.18 122.97 C 391.18 125.35 378.04 126.89 365.13 129.74 C 345.36 133.47 325.41 136.17 305.70 140.22 C 297.96 141.29 290.36 143.67 282.48 143.39 C 283.14 143.81 283.84 144.17 284.51 144.60 C 281.77 144.63 279.03 144.71 276.33 145.24 C 261.87 148.06 247.19 149.74 232.80 152.90 C 232.42 176.92 232.71 200.97 232.62 225.00 C 232.64 276.66 232.59 328.32 232.59 379.98 C 232.69 392.24 227.90 403.80 222.63 414.63 C 220.80 418.58 217.92 421.89 215.72 425.63 C 212.63 431.04 207.91 435.20 203.91 439.91 C 194.19 450.84 182.00 459.35 168.92 465.79 C 161.87 469.22 154.60 472.75 146.67 473.43 C 146.89 473.81 147.10 474.19 147.32 474.57 C 144.10 474.98 140.91 475.58 137.76 476.37 C 119.78 480.15 100.70 479.56 83.25 473.56 C 79.20 472.27 75.58 469.98 71.63 468.44 C 57.53 461.92 46.45 449.84 40.04 435.79 C 37.30 429.84 34.51 423.70 34.30 417.04 C 32.14 401.91 34.13 386.21 40.41 372.27 C 42.13 369.17 45.11 365.91 49.00 366.38 C 52.32 366.21 55.65 368.66 56.26 371.98 C 57.01 375.53 55.35 378.96 53.99 382.15 C 51.20 388.00 50.23 394.58 50.25 401.02 C 50.31 409.23 49.55 417.73 52.63 425.56 C 56.78 435.79 64.06 444.75 73.34 450.78 C 83.04 457.98 95.06 461.60 107.02 462.45 C 117.38 462.64 128.04 463.12 138.08 460.09 C 156.57 455.30 174.36 446.54 188.06 433.06 C 193.36 427.62 199.31 422.63 202.98 415.85 C 214.18 400.49 219.96 380.54 216.04 361.67 C 215.02 357.47 213.29 353.50 211.61 349.53 C 208.25 341.52 202.02 335.07 195.10 329.99 C 184.25 320.95 169.84 317.56 156.03 316.64 C 140.65 316.03 125.16 319.03 111.01 325.06 C 105.36 327.52 99.65 330.05 94.81 333.95 C 88.75 337.65 82.88 341.79 78.01 347.00 C 75.48 350.14 71.27 352.47 67.23 350.76 C 61.92 349.43 60.91 341.92 64.24 338.19 C 71.86 329.95 81.66 324.25 90.80 317.88 C 96.36 315.94 101.38 312.77 106.91 310.76 C 122.92 304.19 140.33 301.19 157.60 301.62 C 158.04 237.75 157.67 173.86 157.66 109.98 C 157.87 103.78 159.20 97.68 160.61 91.66 C 162.09 85.82 165.06 80.53 166.92 74.82 C 174.47 62.89 184.28 51.98 196.96 45.43 C 209.08 38.17 223.41 36.93 237.02 34.47 C 259.44 30.95 281.64 26.19 304.06 22.73 C 338.37 16.91 372.52 10.20 406.88 4.82 C 410.37 3.85 413.97 3.44 417.59 3.54 C 416.81 3.09 415.98 2.71 415.19 2.29 M 456.91 114.24 C 450.38 114.36 444.09 116.36 437.58 116.70 C 435.59 117.13 432.01 116.97 432.45 119.96 C 432.22 164.30 432.42 208.65 432.35 252.99 C 432.53 255.10 432.01 257.51 433.36 259.34 C 446.63 261.26 459.15 267.83 468.69 277.25 C 470.88 278.72 472.54 281.79 475.45 281.58 C 475.89 272.73 475.43 263.85 475.57 255.00 C 475.37 207.17 475.76 159.33 475.45 111.51 C 469.11 110.64 463.00 112.90 456.91 114.24 M 174.80 162.85 C 171.60 165.14 173.22 169.70 173.17 173.00 C 173.28 213.00 173.18 253.00 173.22 293.00 C 173.32 296.48 172.38 300.03 173.46 303.44 C 186.49 306.40 198.64 312.68 209.01 321.03 C 211.55 322.90 213.37 326.61 216.76 326.80 C 217.08 325.56 217.25 324.31 217.26 323.04 C 217.23 271.03 217.24 219.02 217.25 167.00 C 217.18 163.68 217.55 160.30 216.88 157.02 C 215.53 155.87 213.59 156.64 212.00 156.55 C 199.48 157.98 187.31 161.54 174.80 162.85 M 389.03 273.83 C 375.27 277.42 361.81 282.85 350.04 290.97 C 345.88 294.16 341.07 296.55 337.52 300.49 C 332.69 305.66 327.14 310.19 323.21 316.14 C 317.05 324.05 313.65 333.53 310.01 342.75 C 306.35 356.29 306.16 371.41 312.82 384.08 C 318.48 396.73 329.34 407.10 342.58 411.45 C 354.49 417.16 368.01 418.10 381.02 417.37 C 388.57 416.33 396.32 415.60 403.43 412.68 C 405.34 412.17 407.33 411.88 409.06 410.84 C 410.56 409.94 413.15 410.23 413.33 407.96 C 414.17 400.34 413.23 392.65 413.43 385.00 C 412.80 377.29 417.29 369.89 423.25 365.29 C 428.09 361.76 434.35 362.21 440.02 362.47 C 447.78 362.88 454.18 368.93 462.05 368.57 C 464.54 367.43 465.21 364.56 466.48 362.38 C 470.33 355.78 472.58 348.38 474.30 340.97 C 474.93 333.33 474.80 325.62 474.43 317.97 C 472.96 308.18 468.49 298.62 461.07 291.93 C 455.90 286.32 449.95 281.32 442.83 278.38 C 435.05 275.82 427.31 272.58 418.98 272.48 C 408.99 272.32 398.87 271.92 389.03 273.83 M 429.65 383.95 C 429.13 394.31 432.76 405.33 428.17 415.18 C 424.46 424.32 415.97 430.31 411.47 438.97 C 411.16 440.96 411.20 443.00 411.56 444.98 C 417.88 450.44 426.85 450.01 434.30 453.00 C 438.37 455.03 442.93 456.43 446.02 459.97 C 452.95 466.32 455.88 475.85 462.85 482.13 C 464.94 484.42 468.63 483.67 470.56 481.56 C 476.56 475.99 479.63 468.10 485.02 462.02 C 488.09 458.64 491.42 455.04 496.08 454.06 C 503.15 450.75 511.17 450.40 518.28 447.21 C 520.62 446.28 522.48 443.54 522.27 441.08 C 517.15 431.03 508.13 423.40 503.75 412.93 C 502.72 402.73 503.80 392.44 503.37 382.21 C 503.41 380.63 502.02 379.58 500.99 378.61 C 493.42 377.22 486.20 380.56 479.46 383.54 C 472.49 386.77 464.34 387.32 457.05 384.84 C 453.03 383.95 449.78 381.16 445.71 380.45 C 442.73 379.85 440.14 377.99 437.03 377.89 C 433.29 376.80 429.63 380.26 429.65 383.95 Z" />
<path fill="#1e479c" opacity="1.00" d=" M 55.67 69.53 C 62.27 65.23 71.29 65.73 77.60 70.32 C 86.07 75.76 88.68 86.40 96.01 92.95 C 101.32 96.88 108.30 96.70 114.33 98.86 C 120.60 101.02 127.60 104.12 130.03 110.83 C 132.50 117.64 132.56 126.04 128.05 132.04 C 124.94 136.54 121.67 140.94 117.97 144.98 C 116.47 146.76 114.48 148.56 114.56 151.09 C 114.11 159.07 115.05 167.08 114.50 175.06 C 113.75 185.07 104.12 193.67 94.00 192.73 C 84.36 193.25 76.30 186.79 67.02 185.50 C 61.02 185.60 55.55 188.55 49.96 190.42 C 44.38 193.09 38.00 193.12 31.98 192.33 C 25.07 190.54 19.36 184.64 17.63 177.74 C 16.88 168.86 17.97 159.91 17.23 151.03 C 14.97 143.37 7.60 138.91 4.08 131.93 C 2.99 128.97 1.64 126.12 0.00 123.42 L 0.00 113.99 C 2.75 108.98 5.99 103.91 11.36 101.40 C 18.78 96.93 28.08 97.79 35.47 93.41 C 43.83 86.89 46.12 74.83 55.67 69.53 M 64.20 82.92 C 60.04 86.00 58.06 90.99 54.85 94.91 C 51.97 98.34 49.43 102.08 46.08 105.08 C 43.50 107.51 40.07 108.61 36.97 110.20 C 30.90 112.64 23.66 111.98 18.30 116.23 C 17.04 117.44 14.67 118.82 15.71 120.88 C 20.15 128.07 26.54 133.85 30.78 141.18 C 32.60 143.76 33.08 146.94 33.38 150.01 C 33.85 157.93 32.78 165.88 33.50 173.80 C 33.68 175.89 35.89 177.74 38.00 177.45 C 48.24 175.79 57.29 168.61 68.00 169.55 C 76.87 170.27 84.60 175.24 93.15 177.27 C 95.44 178.00 98.71 176.53 98.47 173.80 C 98.92 165.20 98.00 156.57 98.72 147.98 C 100.66 137.53 110.16 131.20 115.31 122.46 C 115.96 120.03 116.14 116.81 113.50 115.52 C 108.95 113.08 103.58 113.03 98.80 111.18 C 95.19 109.71 91.21 109.12 87.86 107.07 C 80.75 102.01 77.09 93.81 72.00 87.01 C 69.91 85.05 67.48 81.03 64.20 82.92 Z" />
<path fill="#0b1a3b" opacity="0.38" d=" M 486.97 66.76 C 492.04 68.40 492.95 74.35 492.68 78.95 C 492.53 160.30 492.64 241.65 492.62 323.00 C 493.36 336.91 489.23 350.46 484.94 363.53 C 488.99 362.72 492.90 361.22 497.04 360.87 C 508.53 361.23 519.94 370.96 519.69 382.93 C 519.59 391.75 519.67 400.57 519.48 409.39 C 518.82 408.37 518.23 407.26 518.31 406.02 C 518.18 397.99 518.58 389.97 518.37 381.95 C 518.03 371.15 507.75 361.87 497.00 362.47 C 492.56 362.37 488.40 364.09 484.09 364.80 C 483.97 360.35 486.21 356.37 487.33 352.18 C 490.84 340.81 491.35 328.81 491.21 317.00 C 491.20 237.99 491.20 158.99 491.21 79.98 C 491.24 75.25 490.71 70.12 486.97 66.76 Z" />
<path fill="#0c1d41" opacity="0.42" d=" M 159.77 90.73 C 161.46 85.16 163.36 79.51 166.92 74.82 C 165.06 80.53 162.09 85.82 160.61 91.66 C 159.20 97.68 157.87 103.78 157.66 109.98 C 157.67 173.86 158.04 237.75 157.60 301.62 C 140.33 301.19 122.92 304.19 106.91 310.76 C 101.38 312.77 96.36 315.94 90.80 317.88 C 92.95 316.29 95.17 314.75 97.60 313.58 C 110.13 307.56 123.58 303.44 137.36 301.52 C 143.83 300.78 150.38 301.61 156.84 300.78 C 157.86 296.22 156.42 291.63 156.41 287.05 C 156.39 246.35 156.43 205.65 156.39 164.96 C 156.45 160.29 157.27 155.67 157.26 151.00 C 157.18 135.65 157.25 120.30 157.23 104.95 C 157.19 100.10 158.42 95.36 159.77 90.73 Z" />
<path fill="#0f234e" opacity="0.51" d=" M 0.00 123.42 C 1.64 126.12 2.99 128.97 4.08 131.93 C 2.72 130.44 1.33 128.98 0.00 127.47 L 0.00 123.42 Z" />
<path fill="#0d2046" opacity="0.45" d=" M 111.01 325.06 C 125.16 319.03 140.65 316.03 156.03 316.64 C 169.84 317.56 184.25 320.95 195.10 329.99 C 186.83 325.99 178.82 321.11 169.63 319.46 C 160.69 318.14 151.56 316.83 142.54 318.28 C 131.46 318.94 120.69 322.10 110.53 326.47 C 105.17 328.72 100.28 331.94 94.81 333.95 C 99.65 330.05 105.36 327.52 111.01 325.06 Z" />
<path fill="#0f244e" opacity="0.51" d=" M 533.91 429.07 C 535.27 430.55 536.67 432.00 538.00 433.52 L 538.00 437.59 C 536.36 434.89 535.02 432.03 533.91 429.07 Z" />
<path fill="#0f2450" opacity="0.51" d=" M 535.81 451.14 C 536.24 449.07 537.00 447.11 538.00 445.25 L 538.00 449.37 C 537.45 449.81 536.36 450.70 535.81 451.14 Z" />
<path fill="#11295b" opacity="0.59" d=" M 474.38 497.29 C 478.70 495.68 481.71 491.98 485.13 489.06 C 482.50 494.62 476.95 497.65 471.56 500.00 L 460.57 500.00 C 457.47 498.38 454.37 496.62 451.96 494.04 C 458.53 498.29 466.87 499.59 474.38 497.29 Z" />
</svg>
