<?xml version="1.0" encoding="UTF-8" ?>
<!DOCTYPE svg PUBLIC "-//W3C//DTD SVG 1.1//EN" "http://www.w3.org/Graphics/SVG/1.1/DTD/svg11.dtd">
<svg width="371pt" height="508pt" viewBox="0 0 371 508" version="1.1" xmlns="http://www.w3.org/2000/svg">
<path fill="#1e479c" opacity="1.00" d=" M 54.98 3.83 C 60.65 2.92 66.29 1.56 72.07 1.64 C 140.72 1.55 209.37 1.74 278.02 1.64 C 281.68 1.72 286.14 0.93 288.77 4.14 C 291.11 6.35 290.41 9.76 290.53 12.63 C 289.18 13.88 287.85 15.13 286.50 16.38 C 215.35 16.48 144.20 16.38 73.05 16.43 C 58.83 17.15 44.30 21.83 33.86 31.85 C 22.08 42.40 15.02 58.12 15.38 73.96 C 15.39 159.69 15.34 245.42 15.40 331.15 C 19.88 329.85 24.40 328.59 29.06 328.14 C 31.03 327.90 33.01 327.72 35.00 327.69 C 120.00 327.71 205.01 327.71 290.02 327.69 C 299.07 328.26 308.23 329.03 316.86 332.03 C 330.77 336.79 343.67 345.05 352.99 356.51 C 353.65 356.63 354.96 356.86 355.61 356.98 C 355.51 261.99 355.61 167.00 355.56 72.02 C 355.55 51.27 342.26 31.87 323.94 22.70 C 321.01 21.23 317.79 20.39 314.93 18.79 C 312.45 17.33 311.60 14.41 310.35 12.00 C 311.73 9.64 313.30 7.40 315.13 5.36 C 319.63 5.01 324.10 5.87 328.07 8.06 C 349.67 17.44 366.16 38.16 369.71 61.52 L 370.41 61.48 C 370.58 63.59 370.78 65.70 371.00 67.81 L 371.00 410.71 C 370.80 412.99 370.61 415.29 370.46 417.58 L 369.73 417.53 C 367.59 434.32 358.69 449.89 346.53 461.49 C 334.45 473.09 318.49 480.20 301.98 482.47 C 291.61 483.26 281.09 481.71 270.81 483.36 C 270.15 490.85 265.85 497.64 259.98 502.20 C 256.75 504.69 252.85 506.03 249.15 507.63 C 244.37 508.00 239.54 508.09 234.82 507.17 C 226.67 504.24 220.34 497.75 211.89 495.53 C 202.79 498.29 196.10 506.19 186.39 507.35 L 190.48 508.00 L 172.74 508.00 L 172.89 506.80 C 162.57 503.09 154.23 493.79 153.05 482.70 C 126.24 482.57 99.43 482.76 72.62 482.61 C 67.97 479.27 67.92 471.69 72.63 468.38 C 99.49 468.08 126.36 468.44 153.22 468.20 C 153.34 458.39 153.32 448.59 153.24 438.79 C 114.82 438.65 76.40 438.79 37.98 438.72 C 32.28 438.84 25.72 438.00 20.99 441.88 C 13.71 447.13 13.55 458.98 20.57 464.50 C 27.23 469.81 36.33 467.79 44.18 468.46 C 45.32 469.57 46.46 470.68 47.60 471.79 C 47.62 474.21 47.61 476.63 47.56 479.06 C 46.44 480.21 45.33 481.38 44.23 482.55 C 35.04 482.25 25.08 484.41 16.63 479.78 C 12.22 477.64 8.48 474.27 5.57 470.35 C 3.42 467.19 2.07 463.55 0.00 460.34 L 0.00 453.60 C 0.09 451.33 0.24 449.08 0.37 446.82 C 2.05 442.88 3.48 438.73 6.22 435.37 C 10.76 429.68 17.34 425.89 24.31 424.01 C 24.50 411.88 24.28 399.76 24.43 387.63 C 19.68 385.62 14.75 383.72 10.83 380.26 C 6.80 377.07 4.09 372.63 1.64 368.19 C 1.60 367.28 1.56 366.38 1.53 365.48 L 0.49 365.55 C 0.32 363.95 0.16 362.37 -0.00 360.78 L 0.00 68.76 C 0.19 66.34 0.38 63.91 0.54 61.48 C 0.71 61.47 1.07 61.45 1.25 61.44 C 5.22 35.14 25.73 12.50 51.15 5.09 C 52.43 4.67 53.70 4.26 54.98 3.83 M 18.66 347.96 C 18.60 348.21 18.46 348.71 18.40 348.96 C 14.81 353.18 16.41 359.15 16.51 364.20 C 18.81 367.21 21.60 369.81 24.95 371.62 C 25.31 371.52 26.05 371.32 26.41 371.21 L 26.52 372.38 C 81.35 372.49 136.17 372.33 190.99 372.39 C 226.69 372.53 262.40 372.09 298.10 372.61 C 299.11 372.99 300.13 373.37 301.16 373.75 C 302.60 374.10 304.05 374.43 305.50 374.73 L 305.53 375.40 C 306.70 375.77 307.86 376.17 309.04 376.58 C 313.66 379.65 317.93 383.30 320.99 387.98 C 321.49 388.86 321.99 389.74 322.49 390.63 C 322.90 391.92 323.34 393.17 323.80 394.46 L 324.41 394.53 C 324.51 395.15 324.71 396.39 324.80 397.01 C 326.06 402.24 325.68 407.67 325.20 412.98 C 324.85 414.13 324.53 415.30 324.24 416.48 L 323.77 416.52 C 321.37 424.52 315.23 431.32 307.67 434.82 L 307.45 435.27 C 303.59 437.06 299.38 437.56 295.27 438.45 C 287.12 439.11 278.95 438.43 270.79 438.83 C 270.65 448.34 270.80 457.85 270.70 467.37 C 274.99 468.77 279.54 468.18 283.97 468.28 C 288.89 468.22 293.86 468.65 298.74 467.76 C 300.46 467.47 302.18 467.18 303.89 466.82 C 305.55 466.51 307.22 466.23 308.87 465.88 C 310.87 465.12 312.93 464.53 314.95 463.82 C 316.57 463.12 318.24 462.48 319.85 461.74 C 322.63 460.25 325.38 458.68 328.05 457.00 C 336.46 451.36 343.16 443.63 348.35 434.98 C 348.77 433.83 349.19 432.68 349.61 431.53 L 350.24 431.49 C 350.71 429.96 351.22 428.45 351.74 426.94 C 352.49 424.82 353.18 422.69 353.68 420.50 C 353.82 420.47 354.12 420.42 354.26 420.39 C 355.15 412.36 356.55 404.17 354.81 396.15 C 354.55 394.14 354.26 392.13 353.76 390.18 C 353.14 388.34 352.63 386.45 352.23 384.56 C 352.11 384.52 351.88 384.45 351.76 384.41 C 351.13 382.62 350.47 380.83 349.76 379.08 C 347.93 375.72 346.06 372.37 343.70 369.35 L 343.36 368.45 C 338.40 362.29 332.49 357.02 326.01 352.50 C 325.78 352.49 325.31 352.46 325.08 352.45 C 322.52 350.54 319.66 349.13 316.64 348.16 L 316.56 347.57 C 314.88 347.17 313.22 346.75 311.55 346.37 L 311.56 345.72 C 309.75 345.44 307.95 345.13 306.16 344.77 C 304.81 344.40 303.48 344.01 302.15 343.61 C 267.42 343.18 232.67 343.54 197.93 343.42 C 141.64 343.42 85.34 343.43 29.05 343.41 C 24.98 342.97 21.66 345.61 18.66 347.96 M 271.38 387.30 C 271.43 399.38 271.35 411.45 271.42 423.52 C 279.67 423.33 287.95 424.04 296.16 423.20 C 302.73 422.22 307.67 417.02 309.99 411.03 C 311.04 405.94 310.94 400.44 308.13 395.91 C 305.49 392.79 302.48 389.71 298.47 388.45 C 293.16 386.72 287.46 386.50 281.92 386.81 C 278.44 387.45 274.89 387.30 271.38 387.30 M 39.47 387.37 C 39.53 399.42 39.47 411.48 39.50 423.53 C 77.22 423.68 114.94 423.54 152.66 423.60 C 152.77 411.48 152.59 399.36 152.68 387.24 C 114.94 387.25 77.21 387.15 39.47 387.37 M 168.47 387.29 C 168.55 417.86 168.46 448.44 168.52 479.01 C 168.48 481.43 168.91 483.83 169.48 486.19 C 171.21 488.06 173.02 489.87 174.90 491.60 C 175.17 491.58 175.73 491.56 176.00 491.54 C 179.66 494.48 184.33 493.38 188.08 491.26 C 190.00 490.07 191.97 488.97 193.96 487.89 C 195.32 486.93 196.71 486.02 198.09 485.07 C 199.08 484.55 200.07 484.03 201.07 483.53 L 201.84 483.34 C 203.52 482.70 205.23 482.14 206.92 481.51 C 210.78 481.09 214.66 481.23 218.53 481.47 C 218.55 481.64 218.57 481.97 218.58 482.13 C 220.13 482.57 221.68 483.04 223.24 483.48 C 224.13 484.02 225.04 484.55 225.96 485.07 C 227.24 485.80 228.50 486.57 229.76 487.36 C 231.86 488.61 233.93 489.91 235.93 491.32 C 237.44 491.78 238.93 492.27 240.45 492.73 C 240.47 492.91 240.52 493.26 240.54 493.44 C 242.21 493.41 243.88 493.41 245.55 493.41 L 245.56 492.25 C 245.94 492.34 246.68 492.51 247.06 492.59 C 251.35 490.29 256.03 486.43 255.56 481.02 C 255.59 449.77 255.53 418.51 255.58 387.26 C 226.55 387.23 197.51 387.17 168.47 387.29 Z" />
<path fill="#1e479c" opacity="1.00" d=" M 136.06 198.02 C 138.34 197.47 140.67 197.21 143.02 197.28 C 164.48 197.40 185.95 197.12 207.41 197.51 L 207.57 198.10 C 211.75 200.13 211.90 205.01 211.44 209.04 C 210.64 209.75 209.81 210.42 208.94 211.05 C 207.94 211.48 206.96 211.92 205.99 212.38 C 183.32 212.55 160.64 212.51 137.97 212.40 C 136.92 211.96 135.88 211.54 134.83 211.13 C 133.31 209.40 132.28 207.35 131.80 205.10 C 132.11 203.94 132.38 202.77 132.63 201.60 C 133.78 200.41 134.92 199.22 136.06 198.02 Z" />
<path fill="#1e479c" opacity="1.00" d=" M 122.53 234.19 C 122.53 234.04 122.52 233.74 122.51 233.59 C 155.51 233.71 188.52 233.65 221.52 233.65 L 221.47 234.86 C 221.86 234.75 222.63 234.53 223.02 234.42 C 223.54 234.79 224.59 235.52 225.11 235.88 C 225.48 236.41 226.23 237.45 226.60 237.97 C 226.52 238.34 226.35 239.07 226.27 239.44 C 226.56 239.45 227.15 239.47 227.44 239.48 C 227.45 240.49 227.46 242.51 227.46 243.52 C 227.17 243.54 226.59 243.57 226.29 243.58 C 226.37 243.95 226.54 244.68 226.62 245.04 C 226.24 245.56 225.50 246.60 225.13 247.11 C 224.59 247.48 223.52 248.20 222.98 248.57 C 222.63 248.47 221.94 248.27 221.59 248.17 C 221.54 248.46 221.44 249.03 221.39 249.31 C 188.05 249.53 154.70 249.33 121.36 249.43 C 122.29 249.31 124.16 249.09 125.09 248.98 C 121.67 248.77 117.84 247.36 117.08 243.60 L 116.58 243.42 C 116.59 242.14 116.59 240.86 116.59 239.59 L 117.12 239.44 C 117.71 236.74 119.82 234.72 122.53 234.19 Z" />
</svg>
