<?xml version="1.0" encoding="UTF-8" ?>
<!DOCTYPE svg PUBLIC "-//W3C//DTD SVG 1.1//EN" "http://www.w3.org/Graphics/SVG/1.1/DTD/svg11.dtd">
<svg width="463pt" height="521pt" viewBox="0 0 463 521" version="1.1" xmlns="http://www.w3.org/2000/svg">
<path fill="#0f234e" opacity="0.50" d=" M 165.53 0.00 L 176.47 0.00 C 179.45 0.26 182.36 0.95 185.29 1.54 C 175.77 1.81 166.23 1.78 156.71 1.52 C 159.63 0.93 162.55 0.24 165.53 0.00 Z" />
<path fill="#1e479c" opacity="1.00" d=" M 121.29 7.68 C 133.07 5.52 144.65 1.99 156.71 1.52 C 166.23 1.78 175.77 1.81 185.29 1.54 C 194.62 2.07 203.83 3.75 212.93 5.83 C 217.23 7.32 221.69 8.35 226.02 9.79 C 243.07 16.26 260.32 23.66 274.02 36.00 C 278.17 39.44 275.46 46.65 270.68 47.90 C 267.73 49.12 264.79 47.27 262.39 45.68 C 254.58 39.88 245.76 35.66 237.32 30.87 C 225.64 25.82 213.52 21.63 201.04 19.05 C 195.05 18.14 189.01 17.57 183.01 16.76 C 161.61 15.11 139.87 17.85 119.56 24.83 C 102.53 30.49 87.30 40.33 72.99 50.98 C 67.41 55.00 62.96 60.29 58.03 65.03 C 50.65 72.20 44.46 80.50 39.21 89.33 C 31.55 100.27 26.87 112.88 22.55 125.42 C 20.39 132.35 18.40 139.48 18.45 146.79 C 18.15 146.27 17.85 145.74 17.55 145.22 C 15.69 164.09 16.47 183.08 16.76 202.01 C 17.78 210.47 17.11 219.03 18.31 227.47 C 19.48 241.53 20.77 255.58 21.87 269.65 C 22.54 274.45 22.68 279.29 22.53 284.12 C 22.90 282.06 23.25 279.99 23.60 277.93 C 23.31 282.62 23.47 287.33 24.08 291.99 C 24.90 306.44 26.95 320.83 26.52 335.34 C 26.77 335.41 27.28 335.56 27.53 335.63 C 27.47 343.33 28.63 350.97 28.41 358.67 C 27.33 365.74 27.83 372.89 27.79 380.00 C 28.14 393.29 28.49 406.81 32.44 419.62 C 34.57 426.41 36.90 433.27 40.93 439.19 C 46.23 447.65 51.26 456.48 58.73 463.27 C 61.57 466.34 66.15 469.25 65.41 474.04 C 65.20 479.20 58.70 482.41 54.38 479.79 C 50.81 477.39 48.06 474.00 44.98 471.03 C 35.91 462.23 29.05 451.34 24.13 439.75 C 16.05 423.11 13.07 404.37 13.27 386.00 C 12.25 370.67 12.97 355.29 12.39 339.94 C 10.86 322.03 9.36 304.11 8.18 286.17 C 7.11 276.58 6.16 266.99 5.42 257.38 C 5.66 252.56 5.61 247.71 4.79 242.95 C 3.51 235.11 3.96 227.12 2.64 219.29 C 1.76 210.65 1.81 201.95 1.53 193.28 C 1.99 182.87 1.26 172.44 1.87 162.02 C 2.11 158.36 2.04 154.69 1.61 151.04 C 3.87 132.04 9.06 113.26 17.69 96.14 C 26.28 80.27 35.77 64.48 49.06 52.06 C 58.33 42.22 68.94 33.65 80.45 26.58 C 88.75 21.86 97.38 17.76 105.98 13.61 C 107.40 13.21 108.82 12.79 110.25 12.40 C 110.37 12.17 110.60 11.73 110.71 11.51 C 112.25 11.20 113.79 10.87 115.34 10.55 C 115.42 10.30 115.58 9.81 115.66 9.56 C 118.03 9.22 120.39 8.80 122.76 8.46 C 122.27 8.20 121.78 7.94 121.29 7.68 Z" />
<path fill="#1e479c" opacity="1.00" d=" M 287.41 65.99 C 286.35 59.82 296.09 54.54 300.01 60.02 C 307.19 67.75 312.94 76.64 318.47 85.60 C 327.15 99.26 332.64 114.67 336.66 130.26 C 340.32 145.21 342.02 160.62 341.56 176.00 C 342.08 186.10 339.56 195.99 339.44 206.06 C 336.95 227.05 331.81 248.00 322.00 266.84 C 319.45 272.43 315.85 277.52 313.81 283.35 C 330.46 284.70 346.48 290.00 361.86 296.29 C 371.61 300.70 380.61 306.57 389.47 312.52 C 397.20 317.60 403.53 324.44 409.91 331.06 C 418.60 342.03 425.98 354.30 429.78 367.86 C 433.24 381.25 433.49 395.39 430.70 408.93 C 429.30 417.01 425.39 424.31 421.73 431.54 C 417.00 440.17 411.09 448.16 404.28 455.28 C 401.03 458.05 403.35 462.46 403.79 465.95 C 404.91 468.43 405.41 471.12 405.64 473.83 C 405.86 473.29 406.08 472.76 406.31 472.24 C 406.90 482.79 415.98 491.22 414.42 502.05 C 413.68 509.72 407.65 515.54 401.28 519.15 C 393.76 519.68 386.19 519.01 378.87 517.26 C 371.73 515.84 365.05 512.87 358.04 511.03 C 352.01 508.28 346.13 505.15 340.90 501.06 C 338.14 499.06 335.79 496.54 332.88 494.76 C 329.80 493.99 326.66 495.23 323.62 495.75 C 307.33 499.47 290.56 498.71 273.99 498.55 C 257.81 497.39 241.80 494.04 226.55 488.49 C 220.51 486.86 215.11 483.49 209.12 481.82 C 205.26 483.55 202.05 486.38 198.49 488.62 C 191.45 493.51 183.70 497.25 175.91 500.78 C 170.19 503.35 163.99 504.53 157.96 506.16 C 146.58 509.23 134.67 508.65 123.00 508.54 C 112.47 508.47 102.28 505.53 92.30 502.45 C 89.33 501.43 86.21 500.39 83.86 498.21 C 80.93 495.54 80.83 490.44 83.66 487.66 C 86.59 484.43 91.72 484.99 95.11 487.15 C 103.20 489.83 111.52 491.93 119.96 493.17 C 130.06 493.96 140.27 493.85 150.32 492.41 C 150.40 492.23 150.58 491.85 150.67 491.67 C 166.41 489.66 181.31 482.59 193.81 472.95 C 190.01 469.80 185.70 467.30 182.05 463.97 C 173.69 456.01 165.25 447.94 158.81 438.28 C 152.13 427.20 146.30 415.11 145.43 402.01 C 145.12 393.67 145.11 385.32 145.52 376.99 C 145.98 369.07 149.51 361.85 151.61 354.32 C 152.02 354.77 152.44 355.22 152.87 355.67 C 152.76 355.14 152.56 354.08 152.46 353.55 C 143.14 354.01 133.59 353.69 124.80 350.21 C 112.66 345.46 101.44 336.58 96.28 324.35 C 89.80 323.96 83.43 326.43 76.97 325.31 C 71.64 324.24 69.71 317.02 73.16 313.06 C 75.23 310.42 78.94 310.65 81.95 310.35 C 94.49 309.77 106.67 303.28 114.12 293.19 C 125.78 278.03 125.85 254.54 112.89 240.12 C 104.90 229.77 91.84 224.13 78.92 224.02 C 73.12 224.26 69.14 216.37 73.00 211.91 C 76.30 207.34 82.65 208.74 87.50 208.71 C 90.73 197.04 88.92 184.89 90.22 173.00 C 90.56 166.04 90.27 159.02 91.62 152.15 C 96.14 130.87 108.04 110.41 126.80 98.73 C 135.18 92.27 145.24 88.40 155.41 85.77 C 168.70 83.14 182.41 84.15 195.79 85.59 C 195.26 85.84 194.75 86.09 194.23 86.35 C 202.76 87.20 210.56 91.11 217.96 95.20 C 228.91 101.85 238.58 110.90 245.21 121.92 C 248.29 126.35 251.25 130.94 252.73 136.19 C 252.89 136.33 253.21 136.61 253.37 136.75 C 257.53 147.26 259.58 158.69 258.40 169.98 C 256.82 176.11 246.77 176.35 244.43 170.70 C 243.26 167.62 243.51 164.25 243.10 161.02 C 242.18 144.84 234.10 129.60 222.58 118.42 C 213.77 110.14 203.09 103.31 191.05 101.08 C 180.06 97.99 168.36 99.35 157.17 100.57 C 157.71 100.83 158.25 101.09 158.80 101.35 C 147.05 102.52 136.71 109.32 128.24 117.18 C 121.12 122.94 115.79 130.60 112.02 138.90 C 106.91 147.33 105.78 157.32 105.32 166.96 C 104.23 177.95 104.96 189.00 104.21 200.00 C 103.98 204.58 102.35 208.98 102.39 213.57 C 104.20 215.46 106.91 215.91 109.24 216.87 C 117.14 220.90 122.81 227.89 128.25 234.67 C 136.15 246.41 139.93 261.00 137.83 275.08 C 135.65 292.59 124.14 307.74 109.94 317.60 C 110.74 319.51 111.60 321.44 112.98 323.01 C 118.73 329.70 126.13 335.51 134.94 337.28 C 140.26 337.96 145.65 337.57 151.00 337.57 C 156.91 337.51 163.36 336.05 167.45 331.46 C 170.92 327.60 174.15 323.50 178.02 320.02 C 182.17 316.08 187.56 313.61 191.25 309.19 C 194.01 305.51 195.59 301.14 197.33 296.93 C 202.05 285.52 204.28 273.25 205.38 261.01 C 205.76 251.01 205.75 241.01 205.63 231.01 C 205.71 217.88 202.36 204.62 195.51 193.38 C 192.25 188.82 188.25 184.73 183.76 181.38 C 177.45 177.66 170.43 174.88 163.08 174.23 C 156.93 172.61 156.97 162.49 163.06 160.66 C 177.67 158.52 191.57 166.37 201.49 176.48 C 209.92 185.32 214.78 196.82 218.31 208.33 C 221.73 224.92 222.89 242.11 220.62 258.94 C 220.66 266.28 219.23 273.50 218.24 280.74 C 217.29 286.11 214.98 291.15 214.34 296.59 C 222.83 293.91 230.82 289.58 239.73 288.30 C 239.24 288.09 238.76 287.88 238.28 287.68 C 244.90 286.70 251.33 284.74 257.98 283.91 C 270.05 281.84 282.33 282.08 294.53 282.30 C 305.50 268.41 312.79 251.90 317.86 235.04 C 319.98 226.59 322.33 218.16 323.43 209.50 C 325.93 194.14 325.72 178.51 325.60 163.00 C 325.46 150.13 323.24 137.32 319.04 125.15 C 316.51 117.99 314.37 110.63 310.76 103.91 C 306.45 94.69 300.74 86.23 295.11 77.79 C 292.54 73.89 287.85 70.96 287.41 65.99 M 248.68 301.37 C 242.46 302.58 236.66 305.23 230.46 306.50 C 230.47 306.72 230.49 307.18 230.50 307.40 C 228.82 307.67 227.15 308.01 225.49 308.35 C 225.47 308.59 225.43 309.09 225.41 309.33 C 219.96 310.75 214.70 313.06 210.07 316.29 C 197.63 322.80 186.57 331.86 177.78 342.80 C 171.37 349.94 167.17 358.73 163.52 367.51 C 159.56 377.18 160.32 387.77 160.44 397.98 C 160.76 407.07 164.32 415.65 168.32 423.69 C 172.40 430.43 176.44 437.32 182.02 442.97 C 189.17 450.37 197.15 457.14 206.34 461.85 C 212.85 465.47 219.04 470.00 226.41 471.71 C 226.45 471.88 226.52 472.24 226.56 472.42 C 253.04 482.69 282.06 485.70 310.19 482.42 C 317.98 482.24 325.27 478.97 333.02 478.53 C 336.66 478.10 339.95 480.12 342.53 482.48 C 348.63 487.90 355.56 492.31 362.68 496.25 C 370.30 500.30 378.94 501.56 387.16 503.86 C 389.98 504.52 393.07 505.13 395.90 504.23 C 397.39 503.15 398.73 501.75 399.45 500.03 C 398.04 493.97 394.04 488.80 393.33 482.53 C 393.14 482.51 392.77 482.47 392.58 482.44 C 391.14 478.14 389.81 473.75 389.41 469.21 C 389.11 469.74 388.82 470.27 388.53 470.81 C 388.95 463.89 383.85 456.54 388.17 450.06 C 391.99 445.01 397.06 441.04 400.84 435.94 C 408.14 425.45 415.10 414.02 416.38 401.02 C 416.73 394.35 416.79 387.65 416.48 380.98 C 415.32 368.87 409.84 357.68 403.23 347.65 C 392.01 332.45 376.77 320.22 359.54 312.52 C 359.51 312.31 359.44 311.90 359.40 311.70 C 356.78 310.98 354.21 310.08 351.59 309.36 C 351.57 309.11 351.52 308.62 351.50 308.37 C 349.83 308.03 348.17 307.69 346.50 307.41 C 346.51 307.20 346.52 306.77 346.52 306.55 C 338.90 304.88 331.70 301.65 323.99 300.31 C 312.86 297.74 301.38 297.27 290.00 297.30 C 276.13 297.15 262.14 297.81 248.68 301.37 Z" />
<path fill="#0d1f46" opacity="0.45" d=" M 105.32 166.96 C 105.78 157.32 106.91 147.33 112.02 138.90 C 110.31 145.58 107.52 152.04 106.90 158.97 C 106.00 170.54 107.51 182.22 105.71 193.73 C 104.90 200.08 104.81 206.54 103.30 212.79 C 105.28 214.15 107.24 215.54 109.24 216.87 C 106.91 215.91 104.20 215.46 102.39 213.57 C 102.35 208.98 103.98 204.58 104.21 200.00 C 104.96 189.00 104.23 177.95 105.32 166.96 Z" />
<path fill="#132e65" opacity="0.65" d=" M 0.00 156.51 C 0.45 154.66 1.00 152.84 1.61 151.04 C 2.04 154.69 2.11 158.36 1.87 162.02 C 1.26 172.44 1.99 182.87 1.53 193.28 C 1.03 189.33 0.23 185.41 0.00 181.42 L 0.00 156.51 Z" />
<path fill="#1e479c" opacity="1.00" d=" M 398.04 175.45 C 401.74 175.54 405.27 174.07 408.98 174.26 C 415.32 174.02 421.37 176.14 427.35 177.95 C 431.42 180.10 435.99 181.44 439.51 184.52 C 448.23 191.47 454.40 201.12 458.08 211.58 C 460.26 221.38 460.32 231.62 458.47 241.48 C 458.25 241.49 457.80 241.50 457.57 241.51 C 455.94 251.68 449.25 260.11 441.66 266.67 C 438.30 269.31 435.31 272.69 431.15 274.09 C 428.96 274.93 426.76 275.75 424.56 276.56 C 424.54 276.80 424.49 277.27 424.47 277.51 C 420.49 277.11 416.83 278.78 413.03 279.49 C 407.64 279.24 402.09 280.09 396.87 278.41 C 394.16 277.58 391.33 277.55 388.53 277.57 C 388.51 277.26 388.46 276.65 388.44 276.35 C 387.50 276.07 386.55 275.80 385.62 275.53 C 385.56 275.33 385.44 274.93 385.38 274.72 C 383.66 274.17 381.86 273.69 380.49 272.47 C 374.74 268.02 368.35 263.87 364.48 257.55 C 361.84 252.90 358.00 248.91 356.42 243.70 C 353.98 237.76 354.44 231.27 354.42 225.00 C 354.22 216.94 355.78 208.48 360.73 201.92 C 363.94 195.12 369.21 189.68 374.74 184.71 C 376.64 183.07 379.08 182.33 381.38 181.46 C 381.45 181.26 381.58 180.85 381.65 180.65 C 384.55 179.89 387.14 178.38 389.65 176.78 C 392.15 175.17 395.23 175.66 398.04 175.45 M 384.05 195.08 C 379.85 198.52 375.34 202.12 373.24 207.29 C 371.47 211.64 369.55 216.08 369.35 220.84 C 365.25 236.92 375.22 254.31 389.79 261.30 C 393.28 263.31 397.38 263.67 401.03 265.31 C 405.01 265.76 409.04 265.29 413.05 265.29 C 417.80 265.17 421.61 261.85 426.22 261.08 C 432.90 255.76 440.12 250.13 442.87 241.66 C 443.22 241.39 443.94 240.84 444.30 240.56 C 445.55 232.12 446.76 223.28 444.29 214.94 C 442.26 206.25 435.99 199.35 429.01 194.16 C 425.22 191.23 420.35 190.48 415.96 188.86 C 405.12 187.81 393.21 188.56 384.05 195.08 Z" />
<path fill="#08152f" opacity="0.30" d=" M 0.00 181.42 C 0.23 185.41 1.03 189.33 1.53 193.28 C 1.81 201.95 1.76 210.65 2.64 219.29 C 3.96 227.12 3.51 235.11 4.79 242.95 C 5.61 247.71 5.66 252.56 5.42 257.38 C 2.04 248.55 4.12 238.96 2.26 229.87 C 1.11 224.04 1.81 217.99 0.00 212.28 L 0.00 181.42 Z" />
<path fill="#0d1e43" opacity="0.44" d=" M 28.41 358.67 C 28.89 360.74 29.47 362.80 29.57 364.93 C 30.05 382.60 28.09 400.68 33.07 417.90 C 34.84 425.30 38.59 431.99 40.93 439.19 C 36.90 433.27 34.57 426.41 32.44 419.62 C 28.49 406.81 28.14 393.29 27.79 380.00 C 27.83 372.89 27.33 365.74 28.41 358.67 Z" />
<path fill="#1e479c" opacity="1.00" d=" M 218.73 359.72 C 220.75 359.01 222.79 358.22 224.98 358.34 C 267.33 358.21 309.67 358.28 352.02 358.26 C 354.60 358.08 357.36 359.09 358.72 361.39 C 361.55 365.93 358.91 373.25 353.07 373.38 C 310.37 373.58 267.66 373.43 224.96 373.41 C 222.51 373.50 219.92 372.52 218.62 370.35 C 216.33 367.18 217.48 363.06 218.73 359.72 Z" />
<path fill="#1e479c" opacity="1.00" d=" M 241.30 408.15 C 242.66 407.23 244.43 407.62 245.98 407.47 C 274.66 407.47 303.35 407.43 332.03 407.46 C 337.71 406.89 341.57 414.04 338.70 418.71 C 337.34 421.55 334.02 422.79 331.03 422.56 C 301.99 422.52 272.95 422.57 243.91 422.46 C 236.64 422.21 235.52 411.42 241.30 408.15 Z" />
<path fill="#0d1f44" opacity="0.44" d=" M 358.04 511.03 C 365.05 512.87 371.73 515.84 378.87 517.26 C 386.19 519.01 393.76 519.68 401.28 519.15 C 400.35 519.75 399.44 520.36 398.54 521.00 L 389.59 521.00 C 379.02 517.92 367.68 516.74 358.04 511.03 Z" />
</svg>
