<?xml version="1.0" encoding="UTF-8" ?>
<!DOCTYPE svg PUBLIC "-//W3C//DTD SVG 1.1//EN" "http://www.w3.org/Graphics/SVG/1.1/DTD/svg11.dtd">
<svg width="546pt" height="574pt" viewBox="0 0 546 574" version="1.1" xmlns="http://www.w3.org/2000/svg">
<path fill="#0e2149" opacity="0.47" d=" M 292.10 4.62 C 298.84 4.03 305.66 4.95 312.34 3.67 C 316.53 3.01 320.67 5.27 324.85 4.08 C 330.11 2.39 335.42 5.44 340.69 3.93 C 345.69 2.43 350.70 5.36 355.69 3.94 C 360.96 2.42 366.25 5.43 371.51 3.81 C 376.57 2.46 381.62 5.35 386.67 3.89 C 391.76 2.42 396.84 5.34 401.93 4.04 C 406.89 2.59 411.87 5.27 416.82 3.96 C 421.81 2.52 426.82 5.25 431.81 3.97 C 437.13 2.41 442.48 5.36 447.81 3.88 C 452.47 2.62 457.15 5.06 461.81 3.96 C 464.88 3.27 468.03 3.40 471.10 4.00 C 475.02 4.94 478.87 3.09 482.81 3.48 C 485.80 3.75 488.79 4.63 491.80 3.95 C 497.27 2.73 502.80 4.03 508.19 4.98 C 513.27 6.12 518.29 7.78 522.88 10.24 C 532.13 16.93 538.77 27.02 541.39 38.12 C 541.59 41.54 541.74 44.97 542.33 48.36 C 542.92 52.25 540.94 56.07 541.78 59.96 C 542.01 62.33 543.06 64.85 542.14 67.18 C 539.59 70.16 536.16 73.12 531.98 72.87 C 527.20 73.44 523.11 69.24 522.23 64.82 C 521.88 61.88 522.41 58.91 522.15 55.96 C 520.94 49.47 522.73 42.88 520.82 36.46 C 522.59 36.79 522.28 38.83 522.54 40.17 C 522.99 46.86 523.97 53.57 523.18 60.29 C 522.66 63.45 523.86 66.61 526.06 68.88 C 529.39 73.00 537.00 71.98 538.97 66.98 C 540.52 62.85 539.98 58.31 540.17 53.99 C 539.99 45.70 540.56 36.93 536.79 29.28 C 533.27 21.64 527.91 14.31 519.97 10.88 C 512.13 6.40 502.79 6.36 494.02 6.61 C 431.68 6.59 369.30 6.83 307.01 6.99 C 273.31 7.20 239.58 6.97 205.86 7.49 C 154.92 7.70 103.97 7.57 53.03 7.76 C 45.59 7.68 37.72 7.26 30.82 10.56 C 26.34 12.63 21.55 14.44 17.99 17.98 C 14.30 21.49 11.90 26.07 9.60 30.55 C 6.62 36.21 6.80 42.79 6.55 49.01 C 6.68 142.67 6.61 236.39 7.03 330.01 C 7.41 335.01 6.60 340.01 7.01 345.01 C 7.49 351.42 6.69 358.06 8.93 364.23 C 11.66 372.82 17.90 379.73 25.00 385.04 C 27.23 386.90 29.58 388.81 32.49 389.45 C 43.00 391.85 53.84 391.06 64.52 391.53 C 68.32 391.65 72.39 390.86 75.33 388.31 C 79.13 384.11 76.92 375.75 70.99 374.98 C 63.65 374.72 56.29 374.29 48.96 374.97 C 40.42 374.85 30.04 372.14 26.77 363.21 C 30.15 365.52 31.91 369.86 36.04 371.08 C 40.75 372.71 45.84 374.20 50.84 373.00 C 55.54 371.71 60.24 374.27 64.95 373.12 C 67.22 372.88 69.78 371.81 71.92 373.13 C 75.70 375.43 79.28 379.26 78.82 384.03 C 79.44 388.40 75.19 391.15 71.74 392.68 C 67.75 394.81 63.37 392.11 59.21 393.02 C 52.80 394.59 46.41 392.14 39.95 392.61 C 34.31 392.98 29.35 390.01 24.70 387.23 C 19.42 384.46 15.47 379.84 11.68 375.35 C 8.02 370.95 6.73 365.27 5.19 359.90 C 3.94 356.02 5.04 351.89 4.25 347.94 C 3.67 344.99 4.26 342.02 4.49 339.07 C 4.84 335.36 3.63 331.68 4.11 327.97 C 4.87 322.00 4.13 315.99 4.44 310.00 C 4.77 305.00 3.42 300.02 4.31 295.05 C 5.13 290.01 2.86 285.02 4.23 280.01 C 5.36 275.27 2.84 270.58 3.99 265.86 C 5.47 260.59 2.79 255.29 4.17 250.01 C 5.34 245.28 2.88 240.58 3.96 235.86 C 4.63 232.70 4.57 229.45 3.86 226.31 C 2.83 221.88 5.25 217.48 4.15 213.05 C 3.46 210.04 3.42 206.94 4.10 203.93 C 5.26 199.23 2.65 194.54 3.95 189.84 C 5.43 184.84 2.64 179.84 3.94 174.83 C 4.56 172.01 4.49 169.12 3.88 166.31 C 2.61 161.26 5.37 156.22 3.97 151.18 C 2.52 146.23 5.21 141.25 3.88 136.31 C 2.60 131.60 5.09 126.89 4.02 122.17 C 3.35 119.08 3.32 115.91 3.98 112.81 C 5.02 108.37 2.73 103.96 3.70 99.51 C 4.42 96.25 4.34 92.93 3.65 89.69 C 2.72 85.22 4.92 80.79 3.89 76.34 C 3.23 73.19 3.36 69.96 3.96 66.81 C 4.92 62.03 2.54 57.28 3.76 52.50 C 4.98 47.88 2.80 43.24 3.77 38.62 C 4.64 34.37 5.59 29.87 8.56 26.52 C 10.72 23.99 12.26 21.00 14.45 18.50 C 18.61 14.20 23.55 10.64 29.02 8.21 C 32.76 6.44 36.96 6.25 40.86 4.98 C 43.21 4.11 45.66 4.97 48.04 5.23 C 51.33 5.81 54.53 4.31 57.82 4.51 C 61.15 4.73 64.48 5.87 67.82 5.03 C 70.91 4.33 74.10 4.30 77.19 4.98 C 81.91 6.10 86.61 3.51 91.34 4.83 C 96.33 6.26 101.33 3.50 106.34 4.82 C 109.31 5.54 112.34 5.20 115.30 4.64 C 119.77 3.68 124.21 5.94 128.66 4.89 C 131.82 4.22 135.06 4.33 138.21 4.95 C 142.37 5.93 146.49 3.86 150.67 4.57 C 153.59 5.02 156.55 5.44 159.48 4.76 C 164.75 3.51 170.04 5.91 175.30 4.64 C 180.09 3.63 184.86 5.77 189.64 4.79 C 193.43 3.98 197.26 4.66 201.06 5.05 C 204.94 5.00 208.81 3.86 212.71 4.59 C 217.71 5.62 222.71 3.79 227.72 4.55 C 232.72 5.40 237.72 3.91 242.73 4.52 C 248.01 5.25 253.30 3.91 258.59 4.55 C 263.04 5.12 267.48 4.09 271.94 4.38 C 278.65 5.15 285.38 3.86 292.10 4.62 Z" />
<path fill="#1e479c" opacity="1.00" d=" M 205.86 7.49 C 239.58 6.97 273.31 7.20 307.01 6.99 C 369.30 6.83 431.68 6.59 494.02 6.61 C 502.79 6.36 512.13 6.40 519.97 10.88 C 523.76 15.17 528.96 18.11 532.01 23.06 C 535.81 28.91 538.64 35.69 538.62 42.76 C 538.36 51.26 540.68 60.36 536.30 68.22 C 534.99 71.10 531.41 69.71 529.09 69.12 C 525.62 68.17 524.15 64.36 524.54 61.05 C 525.32 53.25 525.54 45.17 523.34 37.58 C 520.31 30.32 514.65 23.22 506.57 21.52 C 500.96 19.49 495.05 21.21 489.29 20.85 C 482.50 20.08 475.70 21.57 468.91 20.60 C 463.02 21.31 457.14 20.68 451.25 20.64 C 445.38 21.59 439.49 20.04 433.63 20.86 C 428.68 21.50 423.72 20.10 418.77 20.95 C 414.02 21.68 409.28 20.08 404.53 20.80 C 399.29 21.75 394.04 20.15 388.80 20.96 C 383.80 21.75 378.80 20.12 373.80 20.98 C 368.76 21.85 363.72 20.07 358.68 20.90 C 353.44 21.83 348.16 20.17 342.92 21.09 C 337.93 21.86 332.93 20.05 327.96 21.07 C 323.00 22.01 318.00 20.17 313.05 21.18 C 308.09 22.13 303.12 20.12 298.18 21.23 C 293.18 22.33 288.17 20.26 283.17 21.25 C 279.07 22.02 274.96 21.09 270.85 21.10 C 263.06 21.78 255.23 21.44 247.43 21.59 C 241.25 20.41 235.07 22.15 228.87 21.53 C 217.61 21.54 206.36 21.82 195.11 21.54 C 188.06 22.18 181.01 21.12 173.96 21.88 C 168.37 21.44 162.78 21.71 157.19 21.89 C 150.67 20.99 144.14 22.38 137.61 21.66 C 133.49 21.35 129.39 22.38 125.27 21.89 C 122.10 21.53 118.91 21.53 115.74 21.92 C 110.99 22.47 106.25 21.04 101.51 21.78 C 96.27 22.58 91.01 21.08 85.77 21.94 C 81.07 22.62 76.37 21.14 71.66 21.87 C 66.33 22.81 60.99 20.97 55.66 21.90 C 50.93 22.79 46.08 20.90 41.43 22.35 C 34.56 24.07 27.39 27.49 24.21 34.22 C 21.05 39.06 21.24 44.98 20.67 50.50 C 20.21 55.50 21.37 60.50 20.76 65.50 C 20.22 69.64 21.08 73.76 21.00 77.90 C 20.15 85.24 21.50 92.59 20.62 99.93 C 21.65 106.66 20.04 113.42 21.02 120.15 C 21.46 124.88 20.06 129.61 20.88 134.34 C 21.64 139.33 20.16 144.33 20.88 149.33 C 21.56 154.29 20.14 159.26 20.95 164.21 C 21.80 169.24 20.11 174.28 20.89 179.31 C 21.77 184.31 20.18 189.32 20.90 194.32 C 21.81 200.22 20.03 206.14 21.16 212.05 C 21.06 217.70 20.45 223.33 21.24 228.98 C 20.28 234.98 21.37 240.96 21.15 246.96 C 20.18 252.58 21.88 258.22 20.99 263.84 C 20.37 268.54 21.82 273.22 21.10 277.92 C 20.25 282.94 21.81 287.96 21.17 292.99 C 20.81 295.98 20.85 298.99 21.20 301.98 C 21.70 306.39 20.73 310.79 21.10 315.20 C 21.65 321.44 20.80 327.69 21.36 333.93 C 21.12 342.03 20.86 350.26 22.78 358.19 C 24.78 364.91 29.26 371.39 36.06 373.88 C 41.14 375.70 46.61 376.53 52.00 376.47 C 58.98 375.99 66.31 375.43 73.00 377.88 C 77.54 379.74 75.91 385.52 73.27 388.31 C 69.30 390.52 64.58 390.54 60.19 389.96 C 55.49 389.28 50.81 390.78 46.11 390.20 C 38.88 389.38 32.06 386.69 25.00 385.04 C 17.90 379.73 11.66 372.82 8.93 364.23 C 6.69 358.06 7.49 351.42 7.01 345.01 C 6.60 340.01 7.41 335.01 7.03 330.01 C 6.61 236.39 6.68 142.67 6.55 49.01 C 6.80 42.79 6.62 36.21 9.60 30.55 C 11.90 26.07 14.30 21.49 17.99 17.98 C 21.55 14.44 26.34 12.63 30.82 10.56 C 37.72 7.26 45.59 7.68 53.03 7.76 C 103.97 7.57 154.92 7.70 205.86 7.49 Z" />
<path fill="#102655" opacity="0.55" d=" M 519.97 10.88 C 527.91 14.31 533.27 21.64 536.79 29.28 C 540.56 36.93 539.99 45.70 540.17 53.99 C 539.98 58.31 540.52 62.85 538.97 66.98 C 537.00 71.98 529.39 73.00 526.06 68.88 C 523.86 66.61 522.66 63.45 523.18 60.29 C 523.97 53.57 522.99 46.86 522.54 40.17 C 522.28 38.83 522.59 36.79 520.82 36.46 C 518.59 33.10 516.78 29.24 513.36 26.84 C 509.22 23.86 503.96 23.21 499.00 23.58 C 461.34 23.65 423.63 23.61 386.02 23.84 C 380.68 23.04 375.34 24.63 370.00 23.81 C 365.00 23.09 360.01 24.74 355.01 23.87 C 351.34 23.31 347.68 23.99 344.02 24.20 C 340.01 24.08 335.99 23.23 331.99 23.99 C 327.32 24.87 322.66 23.12 317.99 23.90 C 315.01 24.38 311.98 24.39 309.00 23.94 C 304.33 23.15 299.68 24.89 295.02 24.10 C 289.68 23.05 284.35 25.03 279.01 24.03 C 274.68 23.22 270.36 24.68 266.02 24.29 C 259.02 23.28 252.00 25.00 244.98 23.94 C 238.33 24.95 231.65 23.55 224.99 24.31 C 180.67 24.08 136.32 24.81 91.98 24.63 C 85.00 24.94 78.01 24.39 71.03 24.85 C 63.67 24.24 56.33 25.37 48.98 24.62 C 42.28 25.08 34.34 24.91 29.57 30.48 C 25.10 34.75 23.84 41.08 23.54 47.00 C 23.61 109.67 23.63 172.36 23.73 235.02 C 24.19 241.67 23.25 248.33 24.04 254.98 C 23.33 260.64 24.00 266.31 24.04 271.97 C 23.00 277.98 24.72 283.99 23.83 290.00 C 23.22 294.66 24.68 299.32 23.95 303.99 C 23.14 308.65 24.54 313.31 24.11 317.98 C 23.13 324.65 24.95 331.33 23.77 338.01 C 24.87 346.41 22.55 355.39 26.77 363.21 C 30.04 372.14 40.42 374.85 48.96 374.97 C 56.29 374.29 63.65 374.72 70.99 374.98 C 76.92 375.75 79.13 384.11 75.33 388.31 C 72.39 390.86 68.32 391.65 64.52 391.53 C 53.84 391.06 43.00 391.85 32.49 389.45 C 29.58 388.81 27.23 386.90 25.00 385.04 C 32.06 386.69 38.88 389.38 46.11 390.20 C 50.81 390.78 55.49 389.28 60.19 389.96 C 64.58 390.54 69.30 390.52 73.27 388.31 C 75.91 385.52 77.54 379.74 73.00 377.88 C 66.31 375.43 58.98 375.99 52.00 376.47 C 46.61 376.53 41.14 375.70 36.06 373.88 C 29.26 371.39 24.78 364.91 22.78 358.19 C 20.86 350.26 21.12 342.03 21.36 333.93 C 20.80 327.69 21.65 321.44 21.10 315.20 C 20.73 310.79 21.70 306.39 21.20 301.98 C 20.85 298.99 20.81 295.98 21.17 292.99 C 21.81 287.96 20.25 282.94 21.10 277.92 C 21.82 273.22 20.37 268.54 20.99 263.84 C 21.88 258.22 20.18 252.58 21.15 246.96 C 21.37 240.96 20.28 234.98 21.24 228.98 C 20.45 223.33 21.06 217.70 21.16 212.05 C 20.03 206.14 21.81 200.22 20.90 194.32 C 20.18 189.32 21.77 184.31 20.89 179.31 C 20.11 174.28 21.80 169.24 20.95 164.21 C 20.14 159.26 21.56 154.29 20.88 149.33 C 20.16 144.33 21.64 139.33 20.88 134.34 C 20.06 129.61 21.46 124.88 21.02 120.15 C 20.04 113.42 21.65 106.66 20.62 99.93 C 21.50 92.59 20.15 85.24 21.00 77.90 C 21.08 73.76 20.22 69.64 20.76 65.50 C 21.37 60.50 20.21 55.50 20.67 50.50 C 21.24 44.98 21.05 39.06 24.21 34.22 C 27.39 27.49 34.56 24.07 41.43 22.35 C 46.08 20.90 50.93 22.79 55.66 21.90 C 60.99 20.97 66.33 22.81 71.66 21.87 C 76.37 21.14 81.07 22.62 85.77 21.94 C 91.01 21.08 96.27 22.58 101.51 21.78 C 106.25 21.04 110.99 22.47 115.74 21.92 C 118.91 21.53 122.10 21.53 125.27 21.89 C 129.39 22.38 133.49 21.35 137.61 21.66 C 144.14 22.38 150.67 20.99 157.19 21.89 C 162.78 21.71 168.37 21.44 173.96 21.88 C 181.01 21.12 188.06 22.18 195.11 21.54 C 206.36 21.82 217.61 21.54 228.87 21.53 C 235.07 22.15 241.25 20.41 247.43 21.59 C 255.23 21.44 263.06 21.78 270.85 21.10 C 274.96 21.09 279.07 22.02 283.17 21.25 C 288.17 20.26 293.18 22.33 298.18 21.23 C 303.12 20.12 308.09 22.13 313.05 21.18 C 318.00 20.17 323.00 22.01 327.96 21.07 C 332.93 20.05 337.93 21.86 342.92 21.09 C 348.16 20.17 353.44 21.83 358.68 20.90 C 363.72 20.07 368.76 21.85 373.80 20.98 C 378.80 20.12 383.80 21.75 388.80 20.96 C 394.04 20.15 399.29 21.75 404.53 20.80 C 409.28 20.08 414.02 21.68 418.77 20.95 C 423.72 20.10 428.68 21.50 433.63 20.86 C 439.49 20.04 445.38 21.59 451.25 20.64 C 457.14 20.68 463.02 21.31 468.91 20.60 C 475.70 21.57 482.50 20.08 489.29 20.85 C 495.05 21.21 500.96 19.49 506.57 21.52 C 514.65 23.22 520.31 30.32 523.34 37.58 C 525.54 45.17 525.32 53.25 524.54 61.05 C 524.15 64.36 525.62 68.17 529.09 69.12 C 531.41 69.71 534.99 71.10 536.30 68.22 C 540.68 60.36 538.36 51.26 538.62 42.76 C 538.64 35.69 535.81 28.91 532.01 23.06 C 528.96 18.11 523.76 15.17 519.97 10.88 Z" />
<path fill="#0d2048" opacity="0.46" d=" M 419.04 51.35 C 423.17 51.51 427.27 49.68 431.38 50.85 C 434.43 51.66 437.60 52.03 440.75 51.55 C 445.65 50.89 450.63 51.84 455.49 50.80 C 458.69 50.05 461.92 50.70 465.10 51.20 C 468.52 51.77 471.91 49.82 475.31 50.82 C 479.54 52.04 482.58 55.46 485.98 58.05 C 492.27 62.90 495.06 71.25 494.56 78.99 C 494.28 83.01 495.58 87.01 494.91 91.02 C 494.36 94.28 494.33 97.61 494.98 100.86 C 495.90 105.53 493.58 110.21 494.94 114.86 C 496.38 119.88 493.57 124.92 494.84 129.96 C 495.56 132.95 495.33 136.01 494.74 139.00 C 493.74 143.45 496.16 147.83 495.12 152.27 C 494.55 155.10 494.27 158.01 494.97 160.85 C 496.37 166.12 493.40 171.43 495.10 176.69 C 496.38 181.41 493.67 186.12 494.95 190.84 C 496.54 196.11 493.52 201.42 495.10 206.69 C 496.39 211.41 493.70 216.12 494.96 220.84 C 496.55 226.11 493.60 231.42 495.09 236.70 C 496.11 240.47 494.94 244.25 494.66 248.02 C 494.82 251.51 496.06 254.98 495.26 258.49 C 494.50 262.98 494.12 268.59 496.93 272.27 C 499.30 271.60 501.64 270.36 504.18 270.99 C 507.24 271.62 509.87 269.14 512.94 269.49 C 516.24 269.80 520.34 269.37 521.95 265.99 C 521.83 263.32 521.67 260.64 522.21 258.00 C 523.25 253.55 520.82 249.16 521.87 244.72 C 522.56 241.60 522.60 238.40 521.88 235.29 C 520.79 230.57 523.37 225.86 522.02 221.15 C 520.59 215.88 523.49 210.57 521.89 205.31 C 520.61 200.56 523.24 195.82 522.12 191.06 C 521.57 188.35 521.34 185.56 521.96 182.84 C 523.30 177.78 520.49 172.74 521.87 167.68 C 523.25 162.96 520.69 158.25 521.74 153.52 C 522.37 150.53 522.46 147.46 521.77 144.48 C 520.63 139.42 523.34 134.37 521.86 129.33 C 520.53 124.61 523.04 119.90 521.99 115.18 C 520.80 109.59 521.88 103.81 523.55 98.43 C 524.42 96.36 525.51 93.42 528.20 93.42 C 533.00 92.71 538.56 94.38 541.21 98.66 C 541.48 104.43 543.06 110.25 541.81 116.01 C 541.30 118.56 541.73 121.15 542.17 123.68 C 543.19 128.41 540.67 133.12 542.03 137.83 C 543.41 142.83 540.68 147.84 542.03 152.83 C 542.64 155.55 542.48 158.35 541.95 161.07 C 540.78 165.83 543.37 170.55 542.16 175.31 C 540.67 180.31 543.31 185.31 542.19 190.32 C 541.50 193.36 541.65 196.47 542.28 199.51 C 543.20 203.96 540.98 208.38 542.01 212.82 C 542.56 215.63 542.75 218.51 542.16 221.33 C 540.87 226.32 543.45 231.33 542.19 236.34 C 540.91 241.39 543.41 246.44 542.28 251.52 C 541.68 254.43 541.84 257.39 542.38 260.30 C 543.21 264.76 541.23 269.20 542.16 273.66 C 542.83 277.12 542.57 280.64 541.98 284.09 C 541.23 288.25 543.10 292.37 542.35 296.53 C 539.57 308.43 536.83 320.38 532.75 331.92 C 531.98 333.96 530.71 335.74 529.41 337.47 C 526.25 341.19 525.35 346.33 521.57 349.58 C 517.87 355.42 512.74 360.07 507.82 364.86 C 489.25 381.91 464.25 391.98 438.98 391.81 C 435.27 392.32 431.50 392.98 427.79 392.06 C 423.35 390.96 418.94 393.29 414.49 392.35 C 411.19 391.68 407.83 391.59 404.54 392.33 C 400.13 393.29 395.74 391.11 391.34 392.14 C 388.18 392.77 384.94 392.68 381.79 392.10 C 377.34 391.16 372.93 393.30 368.48 392.35 C 363.14 391.05 357.80 393.49 352.45 392.30 C 347.73 391.31 343.02 393.24 338.28 392.45 C 335.39 392.01 332.45 391.82 329.56 392.36 C 324.57 393.28 319.56 391.55 314.57 392.40 C 309.91 393.15 305.24 391.85 300.57 392.38 C 297.24 392.77 293.90 392.65 290.58 392.41 C 286.85 392.07 283.27 394.16 279.55 393.24 C 276.50 392.60 273.35 392.22 270.29 393.05 C 265.57 394.43 260.86 391.63 256.15 392.90 C 253.08 393.66 249.89 393.65 246.82 392.93 C 242.10 391.74 237.41 394.54 232.69 393.09 C 227.69 391.56 222.69 394.54 217.68 393.10 C 214.70 392.33 211.65 392.70 208.68 393.32 C 203.93 394.31 199.20 391.70 194.48 393.18 C 189.42 394.56 184.37 391.65 179.32 393.08 C 174.32 394.57 169.31 391.68 164.32 393.09 C 159.06 394.56 153.76 391.62 148.51 393.21 C 143.50 394.49 138.49 391.75 133.50 393.21 C 128.77 394.49 124.05 391.96 119.33 393.08 C 113.35 394.39 107.00 393.05 101.60 390.35 C 96.35 385.93 98.66 377.38 103.67 373.85 C 108.78 373.04 114.04 371.83 119.21 372.94 C 123.70 374.09 128.16 371.70 132.68 372.61 C 135.59 373.12 138.57 373.48 141.49 372.77 C 145.34 371.84 149.18 372.97 153.02 373.25 C 156.79 372.98 160.57 371.89 164.36 372.80 C 169.41 373.96 174.46 371.48 179.53 372.72 C 184.52 374.04 189.52 371.60 194.53 372.69 C 199.52 373.95 204.52 371.63 209.54 372.67 C 214.59 373.72 219.65 371.62 224.71 372.61 C 229.76 373.74 234.80 371.78 239.87 372.53 C 245.44 373.40 251.02 371.73 256.59 372.66 C 260.74 373.40 264.80 371.09 268.93 372.24 C 274.83 373.65 280.82 371.64 286.77 372.57 C 290.86 373.25 294.87 371.31 298.95 372.14 C 302.14 372.73 305.38 372.44 308.54 371.79 C 312.39 370.99 316.17 372.96 320.02 372.36 C 323.08 371.87 326.21 371.10 329.30 371.89 C 332.34 372.62 335.48 372.53 338.52 371.80 C 343.25 370.62 347.98 373.37 352.70 371.94 C 357.69 370.42 362.70 373.36 367.69 371.94 C 372.69 370.41 377.70 373.29 382.70 371.95 C 385.54 371.30 388.47 371.32 391.33 371.92 C 396.05 373.15 400.76 370.52 405.49 371.78 C 409.85 372.81 414.41 372.16 418.53 370.53 C 419.54 368.75 419.54 366.62 420.03 364.68 C 421.11 358.72 423.48 352.72 422.51 346.60 C 420.07 343.49 415.66 344.55 412.33 345.12 C 407.60 346.41 402.89 343.67 398.18 344.97 C 392.96 346.58 387.69 343.60 382.48 345.21 C 377.70 346.45 372.95 343.78 368.18 344.97 C 365.09 345.70 361.90 345.66 358.80 344.98 C 354.36 343.91 349.96 346.35 345.51 345.29 C 342.58 344.65 339.59 344.70 336.68 345.33 C 331.88 346.39 327.11 343.84 322.34 345.11 C 319.18 345.84 315.94 345.60 312.79 345.00 C 308.90 344.18 305.08 346.08 301.19 345.50 C 297.98 345.05 294.74 344.47 291.53 345.25 C 286.53 346.52 281.52 344.07 276.52 345.25 C 271.53 346.48 266.52 344.21 261.53 345.26 C 257.69 346.08 253.82 345.23 249.98 344.99 C 246.08 345.17 242.19 346.11 238.29 345.36 C 233.29 344.41 228.29 346.28 223.27 345.41 C 218.00 344.52 212.70 346.34 207.45 345.44 L 206.95 344.66 C 209.48 344.79 212.03 344.83 214.55 344.49 C 211.61 344.08 208.63 343.95 205.75 343.22 C 210.82 342.66 215.91 342.25 221.01 342.45 C 281.00 342.39 340.99 342.39 400.98 342.19 C 408.34 342.69 415.88 340.77 423.08 342.99 C 426.67 344.90 425.25 349.56 424.76 352.75 C 423.16 359.20 423.23 365.87 422.29 372.40 C 418.86 376.00 413.42 374.99 408.98 374.77 C 354.30 374.97 299.71 375.05 245.02 375.28 C 199.34 375.98 153.63 375.27 107.95 375.83 C 102.25 375.34 100.50 382.54 101.78 386.92 C 102.26 389.80 105.57 390.15 107.93 390.38 C 139.95 390.32 171.99 390.16 204.01 390.16 C 210.67 389.68 217.33 390.55 223.98 389.89 C 230.66 390.50 237.33 389.60 244.01 390.04 C 273.65 389.85 303.31 389.86 332.99 389.71 C 367.99 389.13 403.00 389.58 438.01 389.31 C 446.62 388.90 455.25 388.11 463.71 386.40 C 468.10 384.92 472.50 383.47 476.82 381.77 C 484.25 378.03 492.01 374.78 498.54 369.52 C 506.24 364.83 511.86 357.71 517.90 351.18 C 523.67 344.18 527.62 335.94 531.82 327.96 C 536.52 316.96 539.65 305.04 539.37 293.00 C 539.57 230.67 539.28 168.33 539.35 106.00 C 539.17 103.17 539.54 99.81 537.47 97.57 C 534.36 95.51 530.09 95.12 526.64 96.55 C 523.74 101.51 524.63 107.51 524.61 112.99 C 524.61 156.67 524.70 200.34 524.72 244.02 C 524.84 251.37 524.50 258.73 525.13 266.06 C 525.73 269.64 522.11 271.86 519.00 272.03 C 512.55 272.55 506.12 273.13 499.74 274.18 C 496.72 275.00 492.27 273.53 492.29 269.91 C 492.41 207.28 492.16 144.61 491.94 82.02 C 492.25 77.13 492.43 71.97 490.40 67.39 C 488.54 63.83 486.02 60.59 483.03 57.91 C 480.81 55.93 478.18 54.32 475.21 53.83 C 465.88 52.21 456.39 53.49 446.99 52.95 C 436.32 52.41 425.66 53.62 414.99 52.99 C 379.35 52.66 343.71 53.50 308.07 53.36 C 300.40 53.62 292.71 53.50 285.06 52.97 C 278.82 52.17 272.56 53.74 266.33 52.78 C 260.56 52.73 254.81 53.31 249.04 52.81 C 242.34 53.65 235.64 52.34 228.95 53.12 C 223.93 53.44 218.92 52.38 213.90 53.03 C 203.61 53.11 193.31 53.10 183.01 53.22 C 151.79 53.62 120.55 52.99 89.34 53.62 C 82.71 53.32 75.97 53.13 69.47 54.69 C 65.66 55.70 62.33 57.90 59.08 60.06 C 60.21 56.62 64.01 55.53 66.86 53.92 C 70.14 52.04 74.07 52.99 77.57 51.86 C 80.38 51.00 83.23 51.96 86.04 52.30 C 89.87 52.94 93.62 50.88 97.46 51.72 C 100.78 52.43 104.20 52.67 107.52 51.79 C 111.97 50.62 116.39 53.15 120.84 52.08 C 123.92 51.36 127.10 51.30 130.18 52.02 C 134.90 53.19 139.60 50.51 144.32 51.85 C 149.65 53.51 154.99 50.45 160.33 51.90 C 162.98 52.55 165.69 52.17 168.33 51.67 C 173.13 50.63 177.89 53.25 182.67 51.91 C 186.77 50.76 190.89 52.09 194.99 52.26 C 198.76 51.76 202.56 50.92 206.34 51.90 C 210.78 53.08 215.20 50.68 219.66 51.62 C 222.85 52.29 226.11 52.39 229.31 51.66 C 234.04 50.60 238.76 52.98 243.48 51.77 C 248.75 50.47 254.04 53.06 259.31 51.65 C 264.04 50.61 268.76 52.86 273.48 51.77 C 277.34 50.92 281.23 51.67 285.09 52.00 C 289.23 51.85 293.39 50.81 297.53 51.74 C 302.47 52.82 307.42 50.58 312.37 51.75 C 317.36 52.86 322.36 50.54 327.37 51.72 C 332.42 52.86 337.47 50.55 342.55 51.64 C 347.38 52.59 352.24 50.78 357.08 51.65 C 362.41 52.71 367.74 50.78 373.08 51.69 C 378.13 52.52 383.17 50.79 388.22 51.61 C 392.94 52.32 397.66 50.90 402.39 51.49 C 407.94 52.21 413.48 51.07 419.04 51.35 Z" />
<path fill="#112a5c" opacity="0.59" d=" M 183.01 53.22 C 193.31 53.10 203.61 53.11 213.90 53.03 C 218.92 52.38 223.93 53.44 228.95 53.12 C 235.64 52.34 242.34 53.65 249.04 52.81 C 254.81 53.31 260.56 52.73 266.33 52.78 C 272.56 53.74 278.82 52.17 285.06 52.97 C 292.71 53.50 300.40 53.62 308.07 53.36 C 343.71 53.50 379.35 52.66 414.99 52.99 C 425.66 53.62 436.32 52.41 446.99 52.95 C 456.39 53.49 465.88 52.21 475.21 53.83 C 478.18 54.32 480.81 55.93 483.03 57.91 C 475.57 56.09 468.06 53.03 460.25 54.21 C 455.31 54.89 450.35 53.74 445.40 54.26 C 439.78 54.96 434.15 53.70 428.52 54.38 C 399.45 54.33 370.37 54.62 341.28 54.50 C 335.24 54.95 329.18 54.14 323.16 54.86 C 318.62 55.43 314.10 54.02 309.57 54.68 C 303.40 55.62 297.21 53.97 291.02 54.76 C 283.97 54.40 276.94 55.82 269.91 54.94 C 265.78 54.47 261.68 55.71 257.55 55.24 C 251.02 54.30 244.48 56.01 237.94 54.91 C 232.31 55.38 226.70 55.41 221.06 54.98 C 214.59 56.02 208.10 54.43 201.63 55.31 C 199.33 55.52 197.02 55.34 194.73 55.14 C 189.97 54.59 185.23 55.89 180.48 55.27 C 175.78 54.66 171.08 55.73 166.37 55.35 C 159.86 54.65 153.34 55.98 146.83 55.17 C 139.51 55.78 132.20 54.94 124.89 55.46 C 120.77 55.60 116.66 54.98 112.55 55.34 C 107.22 55.87 101.89 54.87 96.56 55.38 C 91.65 55.82 86.71 54.95 81.81 55.64 C 77.17 56.34 72.26 54.90 67.85 56.94 C 62.54 58.85 58.99 63.55 56.11 68.16 C 52.92 73.04 54.97 79.06 54.23 84.47 C 53.52 90.06 54.81 95.65 54.19 101.24 C 53.73 106.55 54.79 111.85 54.17 117.16 C 54.44 141.88 54.26 166.61 54.38 191.35 C 54.12 200.08 54.04 208.85 55.05 217.54 C 53.96 224.31 55.73 231.10 54.65 237.86 C 53.97 242.58 55.54 247.29 54.77 252.02 C 53.98 256.76 55.78 261.44 55.02 266.17 C 54.20 270.83 55.36 275.50 55.00 280.17 C 54.18 287.12 55.62 294.07 54.74 301.03 C 56.05 309.02 53.68 317.11 55.55 325.05 C 56.58 332.95 63.07 339.14 70.24 341.88 C 79.87 343.34 89.63 342.32 99.31 342.70 C 123.81 342.47 148.31 342.61 172.82 342.44 C 178.06 342.89 183.29 341.56 188.53 342.31 C 194.24 343.05 200.06 342.11 205.75 343.22 C 208.63 343.95 211.61 344.08 214.55 344.49 C 212.03 344.83 209.48 344.79 206.95 344.66 C 201.95 344.33 196.99 345.89 192.01 344.94 C 187.00 344.03 182.00 346.02 177.00 345.00 C 173.65 344.35 170.33 345.30 167.00 345.50 C 135.04 345.44 103.07 345.58 71.12 345.51 C 66.07 344.01 61.92 340.40 58.20 336.80 C 52.71 331.48 51.99 323.24 52.27 316.02 C 52.69 311.00 51.38 306.01 52.19 301.01 C 52.82 296.00 51.25 291.01 52.14 286.01 C 52.85 281.00 51.19 276.01 52.07 271.01 C 52.86 266.34 51.32 261.69 51.91 257.02 C 52.29 254.02 52.39 250.98 51.95 247.99 C 51.18 242.99 52.85 237.99 51.93 232.99 C 51.15 227.99 52.80 222.99 51.89 217.99 C 51.13 212.99 52.67 207.99 51.88 203.00 C 51.17 197.66 52.60 192.32 51.77 186.99 C 51.74 152.05 51.54 117.06 51.59 82.10 C 50.93 74.29 52.19 64.91 59.08 60.06 C 62.33 57.90 65.66 55.70 69.47 54.69 C 75.97 53.13 82.71 53.32 89.34 53.62 C 120.55 52.99 151.79 53.62 183.01 53.22 Z" />
<path fill="#1e479c" opacity="1.00" d=" M 291.02 54.76 C 297.21 53.97 303.40 55.62 309.57 54.68 C 314.10 54.02 318.62 55.43 323.16 54.86 C 329.18 54.14 335.24 54.95 341.28 54.50 C 370.37 54.62 399.45 54.33 428.52 54.38 C 434.15 53.70 439.78 54.96 445.40 54.26 C 450.35 53.74 455.31 54.89 460.25 54.21 C 468.06 53.03 475.57 56.09 483.03 57.91 C 486.02 60.59 488.54 63.83 490.40 67.39 C 492.43 71.97 492.25 77.13 491.94 82.02 C 492.16 144.61 492.41 207.28 492.29 269.91 C 492.27 273.53 496.72 275.00 499.74 274.18 C 506.12 273.13 512.55 272.55 519.00 272.03 C 522.11 271.86 525.73 269.64 525.13 266.06 C 524.50 258.73 524.84 251.37 524.72 244.02 C 524.70 200.34 524.61 156.67 524.61 112.99 C 524.63 107.51 523.74 101.51 526.64 96.55 C 530.09 95.12 534.36 95.51 537.47 97.57 C 539.54 99.81 539.17 103.17 539.35 106.00 C 539.28 168.33 539.57 230.67 539.37 293.00 C 539.65 305.04 536.52 316.96 531.82 327.96 C 527.62 335.94 523.67 344.18 517.90 351.18 C 511.86 357.71 506.24 364.83 498.54 369.52 C 492.01 374.78 484.25 378.03 476.82 381.77 C 472.50 383.47 468.10 384.92 463.71 386.40 C 455.25 388.11 446.62 388.90 438.01 389.31 C 403.00 389.58 367.99 389.13 332.99 389.71 C 303.31 389.86 273.65 389.85 244.01 390.04 C 237.33 389.60 230.66 390.50 223.98 389.89 C 217.33 390.55 210.67 389.68 204.01 390.16 C 171.99 390.16 139.95 390.32 107.93 390.38 C 105.57 390.15 102.26 389.80 101.78 386.92 C 100.50 382.54 102.25 375.34 107.95 375.83 C 153.63 375.27 199.34 375.98 245.02 375.28 C 299.71 375.05 354.30 374.97 408.98 374.77 C 413.42 374.99 418.86 376.00 422.29 372.40 C 423.23 365.87 423.16 359.20 424.76 352.75 C 425.25 349.56 426.67 344.90 423.08 342.99 C 415.88 340.77 408.34 342.69 400.98 342.19 C 340.99 342.39 281.00 342.39 221.01 342.45 C 215.91 342.25 210.82 342.66 205.75 343.22 C 200.06 342.11 194.24 343.05 188.53 342.31 C 183.29 341.56 178.06 342.89 172.82 342.44 C 148.31 342.61 123.81 342.47 99.31 342.70 C 89.63 342.32 79.87 343.34 70.24 341.88 C 63.07 339.14 56.58 332.95 55.55 325.05 C 53.68 317.11 56.05 309.02 54.74 301.03 C 55.62 294.07 54.18 287.12 55.00 280.17 C 55.36 275.50 54.20 270.83 55.02 266.17 C 55.78 261.44 53.98 256.76 54.77 252.02 C 55.54 247.29 53.97 242.58 54.65 237.86 C 55.73 231.10 53.96 224.31 55.05 217.54 C 54.04 208.85 54.12 200.08 54.38 191.35 C 54.26 166.61 54.44 141.88 54.17 117.16 C 54.79 111.85 53.73 106.55 54.19 101.24 C 54.81 95.65 53.52 90.06 54.23 84.47 C 54.97 79.06 52.92 73.04 56.11 68.16 C 58.99 63.55 62.54 58.85 67.85 56.94 C 72.26 54.90 77.17 56.34 81.81 55.64 C 86.71 54.95 91.65 55.82 96.56 55.38 C 101.89 54.87 107.22 55.87 112.55 55.34 C 116.66 54.98 120.77 55.60 124.89 55.46 C 132.20 54.94 139.51 55.78 146.83 55.17 C 153.34 55.98 159.86 54.65 166.37 55.35 C 171.08 55.73 175.78 54.66 180.48 55.27 C 185.23 55.89 189.97 54.59 194.73 55.14 C 197.02 55.34 199.33 55.52 201.63 55.31 C 208.10 54.43 214.59 56.02 221.06 54.98 C 226.70 55.41 232.31 55.38 237.94 54.91 C 244.48 56.01 251.02 54.30 257.55 55.24 C 261.68 55.71 265.78 54.47 269.91 54.94 C 276.94 55.82 283.97 54.40 291.02 54.76 M 91.06 69.98 C 85.18 69.40 79.23 69.53 73.43 70.69 C 71.14 71.52 68.27 73.19 68.43 75.98 C 68.39 101.79 68.81 127.58 68.60 153.37 C 69.23 159.90 68.14 166.44 68.88 172.96 C 68.66 178.64 68.61 184.31 69.03 189.99 C 68.03 196.66 69.63 203.35 68.74 210.02 C 68.39 214.36 69.59 218.67 68.93 223.00 C 68.09 228.34 69.82 233.68 68.91 239.01 C 68.20 244.02 69.86 249.01 68.98 254.02 C 68.21 259.02 69.89 264.01 69.04 269.01 C 68.21 274.01 69.88 279.01 69.08 284.01 C 68.23 289.01 69.87 294.00 69.15 299.01 C 68.23 303.98 70.02 308.97 69.06 313.93 C 68.78 316.76 67.64 320.03 69.50 322.57 C 70.61 324.19 72.26 326.29 74.50 325.50 C 82.47 316.82 91.00 308.67 99.23 300.24 C 104.23 296.19 107.37 290.42 112.14 286.12 C 115.54 282.17 120.04 279.33 123.22 275.18 C 125.88 271.79 129.78 269.66 132.33 266.18 C 144.99 252.58 158.69 239.97 171.47 226.49 C 178.42 220.75 183.27 212.51 191.54 208.40 C 196.78 204.33 203.54 203.45 209.94 202.77 C 216.01 203.12 222.37 204.09 227.60 207.40 C 236.57 213.66 243.41 222.33 251.59 229.49 C 252.62 230.64 254.42 230.92 255.56 229.74 C 262.03 224.53 267.03 217.74 273.33 212.33 C 278.84 206.85 283.80 200.78 289.86 195.86 C 294.89 189.28 301.59 184.28 307.00 178.03 C 317.18 168.48 326.59 158.21 336.57 148.45 C 345.26 139.92 353.12 130.12 364.03 124.28 C 371.56 121.27 379.61 119.14 387.76 119.09 C 394.21 120.24 401.04 120.07 407.04 123.04 C 419.14 128.48 427.68 139.01 437.02 148.02 C 443.98 155.34 451.60 162.01 458.38 169.52 C 462.16 173.43 466.20 177.08 469.96 181.01 C 471.83 182.56 473.55 185.25 476.35 184.49 C 476.93 164.67 476.37 144.82 476.59 124.99 C 476.47 108.67 476.65 92.34 476.49 76.03 C 476.44 74.87 475.81 71.81 474.15 72.89 C 473.88 72.58 473.35 71.96 473.09 71.65 L 473.49 70.89 C 472.45 69.45 470.62 69.26 469.02 68.94 C 463.38 67.99 457.68 69.10 452.01 68.73 C 446.33 68.30 440.65 69.30 434.98 68.69 C 430.31 68.26 425.65 69.61 420.99 68.81 C 415.98 68.04 410.99 69.76 405.99 68.88 C 400.99 67.99 395.99 69.81 391.00 68.92 C 385.99 67.97 381.00 69.88 376.00 68.98 C 370.66 67.93 365.32 70.05 359.98 68.95 C 354.98 68.09 349.98 70.02 344.98 69.00 C 339.98 68.10 334.99 70.03 329.99 69.05 C 324.99 68.14 319.99 70.03 314.99 69.11 C 309.99 68.24 304.99 69.97 299.99 69.17 C 294.99 68.36 290.00 69.92 284.99 69.22 C 279.66 68.46 274.32 69.91 268.98 69.23 C 221.33 69.46 173.66 69.38 126.00 69.45 C 114.35 69.65 102.67 69.03 91.06 69.98 M 375.59 135.82 C 368.33 137.93 362.55 143.13 357.56 148.60 C 337.78 168.47 318.04 188.39 298.31 208.31 C 291.44 215.76 283.61 222.27 276.97 229.93 C 273.02 234.28 268.53 238.10 264.50 242.37 C 264.80 243.87 265.89 245.02 266.88 246.12 C 293.07 272.25 319.27 298.37 345.41 324.55 C 348.84 328.26 354.20 327.37 358.69 328.23 C 362.82 329.09 366.86 326.93 370.98 327.73 C 374.01 328.29 377.13 328.76 380.17 327.96 C 385.09 326.49 390.06 329.26 394.98 327.85 C 399.99 326.48 405.04 329.09 410.06 327.85 C 413.55 327.03 417.10 327.68 420.59 328.19 C 422.53 328.62 424.58 327.30 425.36 325.57 C 427.00 315.15 422.85 304.69 425.12 294.30 C 425.98 290.92 428.49 288.35 430.15 285.37 C 431.73 282.71 432.84 279.38 435.91 278.07 C 439.41 276.44 443.04 274.66 446.95 274.35 C 452.27 274.31 457.62 273.45 462.91 274.42 C 466.86 274.94 470.91 276.13 474.88 275.13 C 477.10 274.04 477.49 271.28 477.44 269.07 C 477.44 250.69 477.39 232.31 477.43 213.93 C 477.74 209.20 473.59 206.32 470.62 203.38 C 453.22 186.11 435.94 168.73 418.56 151.44 C 413.93 146.77 409.29 142.02 403.88 138.26 C 399.59 136.06 394.78 135.23 390.17 133.98 C 385.24 132.48 380.32 134.60 375.59 135.82 M 207.47 217.62 C 199.02 219.17 193.41 225.99 187.60 231.66 C 161.58 257.96 135.41 284.10 109.42 310.41 C 104.78 314.84 100.69 319.84 95.47 323.61 C 95.21 324.93 94.94 326.80 96.42 327.52 C 99.86 329.45 103.99 329.68 107.76 328.69 C 112.77 327.41 117.81 329.98 122.80 328.72 C 127.47 327.77 132.20 329.10 136.89 328.53 C 141.89 327.93 146.89 328.98 151.89 328.51 C 154.96 328.19 158.06 328.21 161.14 328.52 C 165.85 328.97 170.55 327.81 175.26 328.43 C 180.56 329.16 185.86 327.47 191.15 328.47 C 195.94 329.27 200.69 327.27 205.47 328.30 C 209.30 329.10 213.12 328.07 216.95 327.89 C 220.80 328.22 224.67 329.10 228.53 328.26 C 231.73 327.50 234.97 328.14 238.18 328.52 C 242.07 329.04 245.89 327.25 249.78 328.04 C 252.94 328.62 256.18 328.81 259.35 328.14 C 264.07 327.04 268.79 329.46 273.51 328.24 C 278.77 326.73 284.07 329.57 289.34 328.13 C 294.00 326.79 298.67 329.40 303.34 328.18 C 309.38 326.39 315.73 330.38 321.60 327.49 C 323.15 326.98 325.17 325.42 324.30 323.59 C 322.75 321.51 320.47 320.15 318.62 318.37 C 286.66 286.66 255.03 254.59 222.83 223.15 C 218.92 219.10 213.13 216.54 207.47 217.62 M 511.65 287.82 C 507.65 289.05 503.20 287.42 499.45 289.46 C 496.01 289.94 492.45 289.43 489.01 290.14 C 484.35 290.95 479.68 289.45 475.02 290.18 C 468.59 291.25 462.41 288.37 456.00 288.66 C 452.81 288.81 449.60 289.07 446.47 289.69 C 443.46 291.64 441.00 294.66 439.72 298.01 C 438.61 305.37 440.93 312.65 440.63 320.01 C 440.49 323.69 441.39 327.32 441.20 330.99 C 440.60 337.42 439.87 344.02 441.30 350.40 C 439.39 355.63 441.03 361.38 440.03 366.78 C 439.66 368.66 439.37 370.57 439.42 372.51 C 442.95 372.91 446.51 372.56 450.05 372.49 C 452.87 372.63 455.12 370.33 457.97 370.55 C 461.12 370.65 463.86 368.94 466.81 368.12 C 473.79 365.95 479.65 361.47 486.08 358.15 C 491.99 355.35 495.72 349.80 500.59 345.67 C 502.89 343.81 504.60 341.38 506.02 338.82 C 507.21 336.55 509.55 335.04 510.52 332.66 C 510.75 332.93 511.22 333.45 511.45 333.72 C 513.29 330.44 514.82 326.99 516.85 323.82 C 520.22 318.61 521.26 312.37 523.20 306.57 C 524.27 300.37 525.46 293.69 523.39 287.58 C 519.75 285.66 515.47 287.40 511.65 287.82 Z" />
<path fill="#0c1e42" opacity="0.42" d=" M 91.06 69.98 C 102.67 69.03 114.35 69.65 126.00 69.45 C 173.66 69.38 221.33 69.46 268.98 69.23 C 274.32 69.91 279.66 68.46 284.99 69.22 C 290.00 69.92 294.99 68.36 299.99 69.17 C 304.99 69.97 309.99 68.24 314.99 69.11 C 319.99 70.03 324.99 68.14 329.99 69.05 C 334.99 70.03 339.98 68.10 344.98 69.00 C 349.98 70.02 354.98 68.09 359.98 68.95 C 365.32 70.05 370.66 67.93 376.00 68.98 C 381.00 69.88 385.99 67.97 391.00 68.92 C 395.99 69.81 400.99 67.99 405.99 68.88 C 410.99 69.76 415.98 68.04 420.99 68.81 C 425.65 69.61 430.31 68.26 434.98 68.69 C 440.65 69.30 446.33 68.30 452.01 68.73 C 457.68 69.10 463.38 67.99 469.02 68.94 C 470.62 69.26 472.45 69.45 473.49 70.89 L 473.09 71.65 C 466.32 70.59 459.51 72.07 452.74 71.25 C 445.39 71.27 437.96 70.70 430.69 72.10 C 426.47 72.44 422.25 70.73 418.03 71.85 C 413.07 73.15 408.16 70.91 403.17 71.34 C 397.83 71.81 392.43 70.94 387.13 71.95 C 382.44 72.98 377.73 70.92 373.04 71.92 C 367.81 73.03 362.55 71.11 357.31 72.07 C 352.31 72.86 347.30 71.16 342.31 72.07 C 337.27 72.95 332.24 71.14 327.20 72.00 C 322.25 72.90 317.29 71.36 312.34 72.10 C 307.05 72.96 301.75 71.24 296.46 72.18 C 291.42 72.92 286.38 71.21 281.34 72.11 C 276.35 72.95 271.34 71.35 266.35 72.12 C 261.95 72.87 257.55 71.68 253.15 71.97 C 246.12 73.02 239.06 71.38 232.02 72.41 C 224.94 71.47 217.87 72.93 210.80 72.06 C 206.35 71.87 201.91 72.93 197.47 72.22 C 193.03 71.37 188.68 73.60 184.26 72.56 C 178.69 71.30 173.06 73.00 167.45 72.29 C 162.41 71.75 157.37 72.93 152.32 72.32 C 149.60 71.99 146.87 72.27 144.20 72.80 C 141.02 73.51 137.88 72.30 134.72 72.10 C 131.66 71.91 128.74 73.46 125.68 73.05 C 122.57 72.63 119.45 71.86 116.28 72.21 C 109.83 72.94 103.35 71.88 96.90 72.48 C 89.34 72.41 81.73 72.02 74.21 73.02 C 69.35 79.51 71.31 88.25 71.35 95.79 C 70.63 101.94 71.78 108.10 71.19 114.26 C 70.76 119.56 71.78 124.86 71.18 130.16 C 71.51 161.38 71.18 192.61 71.53 223.85 C 72.68 230.10 71.15 236.40 71.98 242.67 C 72.36 247.10 71.21 251.52 71.86 255.94 C 72.77 261.23 71.09 266.54 71.96 271.83 C 72.84 276.86 71.15 281.89 71.89 286.93 C 72.70 292.18 71.20 297.46 72.05 302.72 C 73.10 309.49 69.61 316.64 72.90 323.09 C 82.11 313.59 91.33 304.07 100.86 294.88 C 108.81 286.16 117.78 278.45 125.78 269.78 C 144.20 251.19 162.60 232.59 181.09 214.06 C 187.47 206.71 196.46 201.66 206.15 200.46 C 212.31 200.16 218.35 201.94 224.13 203.89 C 231.38 206.20 236.22 212.40 241.60 217.40 C 245.48 220.96 248.62 225.39 253.07 228.30 C 256.12 227.56 257.97 224.29 260.28 222.26 C 289.96 192.30 319.77 162.46 349.47 132.52 C 358.57 123.29 371.00 117.41 383.94 116.53 C 392.54 116.76 401.10 118.53 408.96 122.06 C 415.65 124.39 420.65 129.58 425.63 134.37 C 438.11 146.90 450.64 159.37 463.16 171.85 C 466.41 175.06 469.34 178.67 473.15 181.25 C 477.16 175.35 473.96 168.05 474.74 161.53 C 475.52 155.93 474.25 150.33 474.81 144.72 C 475.24 140.15 473.10 135.67 474.36 131.13 C 475.62 125.62 474.09 120.03 474.71 114.47 C 475.20 109.52 474.24 104.57 474.74 99.62 C 475.31 94.27 474.04 88.92 474.75 83.58 C 475.17 80.01 474.81 76.41 474.15 72.89 C 475.81 71.81 476.44 74.87 476.49 76.03 C 476.65 92.34 476.47 108.67 476.59 124.99 C 476.37 144.82 476.93 164.67 476.35 184.49 C 473.55 185.25 471.83 182.56 469.96 181.01 C 466.20 177.08 462.16 173.43 458.38 169.52 C 451.60 162.01 443.98 155.34 437.02 148.02 C 427.68 139.01 419.14 128.48 407.04 123.04 C 401.04 120.07 394.21 120.24 387.76 119.09 C 379.61 119.14 371.56 121.27 364.03 124.28 C 353.12 130.12 345.26 139.92 336.57 148.45 C 326.59 158.21 317.18 168.48 307.00 178.03 C 301.59 184.28 294.89 189.28 289.86 195.86 C 283.80 200.78 278.84 206.85 273.33 212.33 C 267.03 217.74 262.03 224.53 255.56 229.74 C 254.42 230.92 252.62 230.64 251.59 229.49 C 243.41 222.33 236.57 213.66 227.60 207.40 C 222.37 204.09 216.01 203.12 209.94 202.77 C 203.54 203.45 196.78 204.33 191.54 208.40 C 183.27 212.51 178.42 220.75 171.47 226.49 C 158.69 239.97 144.99 252.58 132.33 266.18 C 129.78 269.66 125.88 271.79 123.22 275.18 C 120.04 279.33 115.54 282.17 112.14 286.12 C 107.37 290.42 104.23 296.19 99.23 300.24 C 91.00 308.67 82.47 316.82 74.50 325.50 C 72.26 326.29 70.61 324.19 69.50 322.57 C 67.64 320.03 68.78 316.76 69.06 313.93 C 70.02 308.97 68.23 303.98 69.15 299.01 C 69.87 294.00 68.23 289.01 69.08 284.01 C 69.88 279.01 68.21 274.01 69.04 269.01 C 69.89 264.01 68.21 259.02 68.98 254.02 C 69.86 249.01 68.20 244.02 68.91 239.01 C 69.82 233.68 68.09 228.34 68.93 223.00 C 69.59 218.67 68.39 214.36 68.74 210.02 C 69.63 203.35 68.03 196.66 69.03 189.99 C 68.61 184.31 68.66 178.64 68.88 172.96 C 68.14 166.44 69.23 159.90 68.60 153.37 C 68.81 127.58 68.39 101.79 68.43 75.98 C 68.27 73.19 71.14 71.52 73.43 70.69 C 79.23 69.53 85.18 69.40 91.06 69.98 Z" />
<path fill="#09152e" opacity="0.30" d=" M 152.88 87.99 C 154.86 87.30 156.96 87.81 158.99 87.95 C 163.46 88.49 168.03 87.41 172.44 88.58 C 178.47 89.74 183.17 93.94 188.63 96.44 C 190.67 97.34 192.63 98.74 192.89 101.14 C 184.74 95.29 175.31 90.12 165.02 90.00 C 151.68 88.55 137.57 92.49 127.55 101.58 C 116.43 110.99 109.66 125.36 110.10 139.98 C 109.84 153.59 115.79 167.05 125.73 176.28 C 133.02 182.73 141.84 187.84 151.56 189.36 C 162.06 190.68 173.18 189.78 182.59 184.58 C 197.15 177.35 207.56 162.72 209.62 146.59 C 212.03 135.41 208.43 124.12 203.92 113.97 C 207.15 116.84 208.50 121.14 209.78 125.13 C 211.02 130.27 212.49 135.56 211.69 140.90 C 210.97 146.23 211.16 151.85 208.73 156.80 C 207.06 160.22 205.70 163.78 204.19 167.27 C 199.18 174.45 192.93 180.98 185.04 185.01 C 179.10 187.98 172.76 190.81 166.02 191.00 C 162.06 191.11 158.15 192.93 154.22 191.69 C 148.78 190.26 143.26 188.98 138.01 186.94 C 129.55 181.76 121.31 175.51 116.29 166.74 C 110.82 158.21 108.63 148.05 108.06 138.07 C 109.30 130.74 111.42 123.57 113.61 116.48 C 114.38 113.35 117.00 111.33 118.85 108.88 C 124.05 101.42 131.52 95.67 139.75 91.91 C 143.91 89.92 148.52 89.35 152.88 87.99 Z" />
<path fill="#14316d" opacity="0.70" d=" M 127.55 101.58 C 137.57 92.49 151.68 88.55 165.02 90.00 C 175.31 90.12 184.74 95.29 192.89 101.14 C 196.94 105.04 201.25 108.94 203.92 113.97 C 208.43 124.12 212.03 135.41 209.62 146.59 C 207.56 162.72 197.15 177.35 182.59 184.58 C 173.18 189.78 162.06 190.68 151.56 189.36 C 141.84 187.84 133.02 182.73 125.73 176.28 C 115.79 167.05 109.84 153.59 110.10 139.98 C 109.66 125.36 116.43 110.99 127.55 101.58 M 155.42 91.39 C 151.60 92.32 147.54 92.29 143.94 94.02 C 133.67 98.01 123.85 104.79 118.81 114.82 C 115.45 119.06 113.30 124.08 112.31 129.38 C 110.61 135.50 112.54 141.77 112.30 147.98 C 113.60 155.71 116.33 163.47 121.49 169.52 C 124.83 173.46 128.27 177.60 132.98 179.97 C 139.35 183.20 145.51 187.82 152.99 187.77 C 157.65 187.57 162.32 188.05 166.97 187.79 C 171.91 186.75 176.95 185.73 181.47 183.38 C 190.62 179.16 197.78 171.47 203.05 163.05 C 205.81 155.96 207.98 148.52 209.10 141.00 C 208.15 134.99 208.24 128.73 205.92 123.02 C 202.97 112.41 194.80 104.21 186.01 98.09 C 179.03 95.64 171.89 93.62 164.65 92.09 C 161.63 91.38 158.50 90.36 155.42 91.39 Z" />
<path fill="#1e479c" opacity="1.00" d=" M 155.42 91.39 C 158.50 90.36 161.63 91.38 164.65 92.09 C 171.89 93.62 179.03 95.64 186.01 98.09 C 194.80 104.21 202.97 112.41 205.92 123.02 C 208.24 128.73 208.15 134.99 209.10 141.00 C 207.98 148.52 205.81 155.96 203.05 163.05 C 197.78 171.47 190.62 179.16 181.47 183.38 C 176.95 185.73 171.91 186.75 166.97 187.79 C 162.32 188.05 157.65 187.57 152.99 187.77 C 145.51 187.82 139.35 183.20 132.98 179.97 C 128.27 177.60 124.83 173.46 121.49 169.52 C 116.33 163.47 113.60 155.71 112.30 147.98 C 112.54 141.77 110.61 135.50 112.31 129.38 C 113.30 124.08 115.45 119.06 118.81 114.82 C 123.85 104.79 133.67 98.01 143.94 94.02 C 147.54 92.29 151.60 92.32 155.42 91.39 M 156.30 105.99 C 145.39 106.70 136.01 114.37 130.61 123.51 C 128.40 126.21 126.70 129.38 126.59 132.95 C 126.49 138.80 125.80 144.95 128.13 150.50 C 130.63 158.30 136.80 164.18 143.29 168.81 C 147.20 173.35 153.62 172.59 159.00 172.69 C 166.56 172.83 174.83 171.82 180.75 166.66 C 183.36 164.60 185.08 161.68 187.49 159.41 C 190.18 157.03 190.79 153.33 192.13 150.16 C 194.43 144.70 193.52 138.66 193.40 132.92 C 193.62 130.08 191.62 127.94 190.73 125.43 C 188.27 118.74 182.29 114.23 176.59 110.36 C 170.81 106.18 163.24 105.10 156.30 105.99 Z" />
<path fill="#0e2148" opacity="0.47" d=" M 156.30 105.99 C 163.24 105.10 170.81 106.18 176.59 110.36 C 182.29 114.23 188.27 118.74 190.73 125.43 C 191.62 127.94 193.62 130.08 193.40 132.92 C 193.52 138.66 194.43 144.70 192.13 150.16 C 190.79 153.33 190.18 157.03 187.49 159.41 C 185.08 161.68 183.36 164.60 180.75 166.66 C 174.83 171.82 166.56 172.83 159.00 172.69 C 153.62 172.59 147.20 173.35 143.29 168.81 C 136.80 164.18 130.63 158.30 128.13 150.50 C 125.80 144.95 126.49 138.80 126.59 132.95 C 126.70 129.38 128.40 126.21 130.61 123.51 C 136.01 114.37 145.39 106.70 156.30 105.99 M 157.35 108.35 C 149.15 109.50 140.84 112.98 135.64 119.66 C 132.83 124.83 129.04 129.87 128.93 136.00 C 127.17 146.91 131.91 158.66 140.92 165.13 C 147.87 169.17 156.00 171.17 164.01 171.35 C 171.98 169.43 180.47 166.18 184.89 158.79 C 189.26 154.25 191.81 148.25 192.19 141.97 C 191.86 132.14 188.67 121.62 180.49 115.49 C 176.01 110.39 169.07 109.34 162.80 107.96 C 160.97 107.45 159.11 107.75 157.35 108.35 Z" />
<path fill="#0e224b" opacity="0.49" d=" M 375.59 135.82 C 380.32 134.60 385.24 132.48 390.17 133.98 C 394.78 135.23 399.59 136.06 403.88 138.26 C 409.29 142.02 413.93 146.77 418.56 151.44 C 435.94 168.73 453.22 186.11 470.62 203.38 C 473.59 206.32 477.74 209.20 477.43 213.93 C 477.39 232.31 477.44 250.69 477.44 269.07 C 477.49 271.28 477.10 274.04 474.88 275.13 C 470.91 276.13 466.86 274.94 462.91 274.42 C 457.62 273.45 452.27 274.31 446.95 274.35 C 443.04 274.66 439.41 276.44 435.91 278.07 C 432.84 279.38 431.73 282.71 430.15 285.37 C 428.49 288.35 425.98 290.92 425.12 294.30 C 422.85 304.69 427.00 315.15 425.36 325.57 C 424.58 327.30 422.53 328.62 420.59 328.19 C 417.10 327.68 413.55 327.03 410.06 327.85 C 405.04 329.09 399.99 326.48 394.98 327.85 C 390.06 329.26 385.09 326.49 380.17 327.96 C 377.13 328.76 374.01 328.29 370.98 327.73 C 366.86 326.93 362.82 329.09 358.69 328.23 C 354.20 327.37 348.84 328.26 345.41 324.55 C 319.27 298.37 293.07 272.25 266.88 246.12 C 265.89 245.02 264.80 243.87 264.50 242.37 C 268.53 238.10 273.02 234.28 276.97 229.93 C 283.61 222.27 291.44 215.76 298.31 208.31 C 318.04 188.39 337.78 168.47 357.56 148.60 C 362.55 143.13 368.33 137.93 375.59 135.82 M 377.37 138.21 C 372.09 139.61 367.47 142.81 363.67 146.67 C 358.18 152.19 352.45 157.46 347.13 163.14 C 341.62 169.30 335.38 174.73 329.66 180.68 C 322.52 188.52 314.57 195.56 307.37 203.33 C 296.06 214.34 285.24 225.85 273.86 236.79 C 271.82 238.90 269.33 240.92 268.61 243.91 C 273.05 249.57 278.70 254.16 283.61 259.40 C 304.45 280.21 325.32 301.00 346.12 321.85 C 349.84 325.55 355.65 325.85 360.51 324.76 C 365.56 323.57 370.61 326.29 375.65 324.85 C 380.65 323.46 385.67 326.18 390.66 324.85 C 393.49 324.22 396.39 324.43 399.22 324.95 C 403.10 325.80 406.92 324.01 410.82 324.46 C 413.86 324.65 416.87 325.70 419.94 325.27 C 422.41 324.32 424.05 321.66 423.40 319.02 C 422.64 314.44 422.45 309.80 421.91 305.19 C 420.61 298.95 422.62 292.57 424.99 286.86 C 428.84 282.19 432.68 277.12 438.29 274.46 C 441.97 272.47 446.17 272.00 450.21 271.16 C 456.83 269.30 463.19 273.73 469.84 272.96 C 472.39 272.59 475.04 270.82 475.21 268.03 C 476.38 262.32 473.68 256.63 475.05 250.94 C 475.75 247.80 475.17 244.62 474.68 241.50 C 474.17 238.30 475.33 235.17 475.37 231.98 C 475.25 228.82 474.15 225.70 474.67 222.53 C 474.97 219.48 476.07 216.29 474.87 213.30 C 473.42 208.81 469.59 205.83 466.41 202.59 C 449.69 185.97 433.05 169.28 416.36 152.64 C 411.28 147.30 405.69 142.25 399.17 138.74 C 392.33 135.25 384.53 136.79 377.37 138.21 Z" />
<path fill="#0f2450" opacity="0.51" d=" M 207.47 217.62 C 213.13 216.54 218.92 219.10 222.83 223.15 C 255.03 254.59 286.66 286.66 318.62 318.37 C 320.47 320.15 322.75 321.51 324.30 323.59 C 325.17 325.42 323.15 326.98 321.60 327.49 C 315.73 330.38 309.38 326.39 303.34 328.18 C 298.67 329.40 294.00 326.79 289.34 328.13 C 284.07 329.57 278.77 326.73 273.51 328.24 C 268.79 329.46 264.07 327.04 259.35 328.14 C 256.18 328.81 252.94 328.62 249.78 328.04 C 245.89 327.25 242.07 329.04 238.18 328.52 C 234.97 328.14 231.73 327.50 228.53 328.26 C 224.67 329.10 220.80 328.22 216.95 327.89 C 213.12 328.07 209.30 329.10 205.47 328.30 C 200.69 327.27 195.94 329.27 191.15 328.47 C 185.86 327.47 180.56 329.16 175.26 328.43 C 170.55 327.81 165.85 328.97 161.14 328.52 C 158.06 328.21 154.96 328.19 151.89 328.51 C 146.89 328.98 141.89 327.93 136.89 328.53 C 132.20 329.10 127.47 327.77 122.80 328.72 C 117.81 329.98 112.77 327.41 107.76 328.69 C 103.99 329.68 99.86 329.45 96.42 327.52 C 94.94 326.80 95.21 324.93 95.47 323.61 C 100.69 319.84 104.78 314.84 109.42 310.41 C 135.41 284.10 161.58 257.96 187.60 231.66 C 193.41 225.99 199.02 219.17 207.47 217.62 M 202.43 222.31 C 197.43 224.75 194.10 229.43 190.25 233.28 C 161.79 261.50 133.77 290.15 105.42 318.49 C 103.45 320.45 100.99 322.25 100.34 325.12 C 101.78 326.36 103.63 325.73 105.32 325.62 C 109.72 324.93 114.10 326.92 118.48 325.74 C 123.48 324.57 128.48 326.90 133.47 325.73 C 138.46 324.66 143.46 326.58 148.45 325.69 C 154.31 324.67 160.15 326.80 166.01 325.70 C 184.34 325.94 202.69 325.51 221.05 325.74 C 233.34 325.01 245.66 325.63 257.97 325.32 C 271.00 325.50 284.03 325.19 297.06 325.40 C 301.36 324.69 305.69 324.48 309.99 325.39 C 313.41 325.38 318.23 326.40 320.42 323.09 C 311.40 314.96 303.03 306.14 294.39 297.60 C 273.36 276.63 252.31 255.68 231.32 234.67 C 226.70 230.27 222.39 225.44 217.05 221.89 C 212.61 218.82 207.04 220.76 202.43 222.31 Z" />
<path fill="#0c1d40" opacity="0.42" d=" M 511.65 287.82 C 515.47 287.40 519.75 285.66 523.39 287.58 C 525.46 293.69 524.27 300.37 523.20 306.57 C 521.26 312.37 520.22 318.61 516.85 323.82 C 514.82 326.99 513.29 330.44 511.45 333.72 C 511.22 333.45 510.75 332.93 510.52 332.66 C 511.90 325.98 514.86 319.83 517.96 313.81 C 521.10 307.74 520.33 300.79 521.27 294.25 C 521.43 292.77 521.51 291.23 520.98 289.82 C 518.10 289.10 515.29 290.37 512.47 290.74 C 506.40 291.33 500.44 292.60 494.33 292.48 C 489.11 294.03 483.75 292.32 478.47 293.21 C 475.66 293.63 472.81 293.44 470.05 292.80 C 463.15 291.24 456.00 291.46 448.98 291.83 C 446.12 291.75 444.44 294.32 443.56 296.69 C 442.07 300.23 441.45 304.13 441.97 307.94 C 442.79 315.98 443.82 324.05 443.33 332.15 C 442.93 338.25 444.37 344.75 441.30 350.40 C 439.87 344.02 440.60 337.42 441.20 330.99 C 441.39 327.32 440.49 323.69 440.63 320.01 C 440.93 312.65 438.61 305.37 439.72 298.01 C 441.00 294.66 443.46 291.64 446.47 289.69 C 449.60 289.07 452.81 288.81 456.00 288.66 C 462.41 288.37 468.59 291.25 475.02 290.18 C 479.68 289.45 484.35 290.95 489.01 290.14 C 492.45 289.43 496.01 289.94 499.45 289.46 C 503.20 287.42 507.65 289.05 511.65 287.82 Z" />
<path fill="#0c1d40" opacity="0.42" d=" M 431.44 425.54 C 439.17 424.57 446.97 428.16 451.92 434.07 C 458.19 440.66 458.93 450.12 461.38 458.45 C 464.01 468.25 469.20 477.39 476.63 484.36 C 482.59 490.47 490.24 495.83 492.50 504.53 C 494.55 508.81 492.56 513.34 491.54 517.59 C 490.39 521.94 489.50 526.81 485.74 529.76 C 479.64 536.10 470.53 537.04 462.49 539.25 C 452.59 541.76 443.07 546.52 435.89 553.89 C 430.46 559.08 426.06 565.68 419.07 568.96 C 416.06 570.29 412.89 572.25 409.46 571.43 C 404.89 570.49 400.37 569.26 395.88 567.97 C 391.35 566.80 388.32 562.90 385.90 559.16 C 382.16 552.90 381.47 545.47 379.53 538.58 C 376.96 528.76 371.57 519.76 364.29 512.71 C 359.05 507.31 352.42 502.81 349.41 495.65 C 347.62 490.69 346.64 485.17 348.10 480.00 C 349.76 471.49 356.71 464.73 364.60 461.67 C 373.91 458.59 384.04 457.73 392.63 452.66 C 402.14 447.97 408.57 439.25 416.12 432.14 C 420.26 428.19 425.78 426.05 431.44 425.54 M 427.49 427.75 C 423.79 428.92 420.05 430.47 417.22 433.20 C 412.03 438.34 407.14 443.81 401.68 448.67 C 394.26 454.48 385.42 458.32 376.29 460.51 C 370.98 461.89 365.28 462.54 360.58 465.61 C 356.01 468.70 351.85 472.90 350.27 478.33 C 347.47 485.82 349.50 494.51 354.29 500.72 C 360.21 507.44 367.55 512.91 372.59 520.41 C 377.93 527.77 380.89 536.54 382.73 545.37 C 384.27 551.47 385.84 558.01 390.30 562.72 C 394.01 566.77 399.72 567.72 404.73 569.32 C 410.53 571.39 416.77 568.90 421.60 565.62 C 429.07 559.48 434.74 551.29 443.00 546.07 C 451.72 539.49 462.77 537.81 473.03 534.95 C 477.77 533.66 482.18 531.15 485.59 527.59 C 489.45 523.92 490.14 518.36 491.51 513.47 C 492.59 510.14 491.87 506.64 490.58 503.49 C 487.79 495.35 480.35 490.34 474.72 484.29 C 470.32 480.15 467.03 475.02 464.22 469.73 C 460.12 462.18 458.93 453.56 456.58 445.40 C 454.75 438.54 449.65 432.92 443.62 429.38 C 438.85 426.37 432.80 426.87 427.49 427.75 Z" />
<path fill="#112a5c" opacity="0.59" d=" M 427.49 427.75 C 432.80 426.87 438.85 426.37 443.62 429.38 C 449.65 432.92 454.75 438.54 456.58 445.40 C 458.93 453.56 460.12 462.18 464.22 469.73 C 467.03 475.02 470.32 480.15 474.72 484.29 C 480.35 490.34 487.79 495.35 490.58 503.49 C 491.87 506.64 492.59 510.14 491.51 513.47 C 490.14 518.36 489.45 523.92 485.59 527.59 C 482.18 531.15 477.77 533.66 473.03 534.95 C 462.77 537.81 451.72 539.49 443.00 546.07 C 434.74 551.29 429.07 559.48 421.60 565.62 C 416.77 568.90 410.53 571.39 404.73 569.32 C 399.72 567.72 394.01 566.77 390.30 562.72 C 385.84 558.01 384.27 551.47 382.73 545.37 C 380.89 536.54 377.93 527.77 372.59 520.41 C 367.55 512.91 360.21 507.44 354.29 500.72 C 349.50 494.51 347.47 485.82 350.27 478.33 C 351.85 472.90 356.01 468.70 360.58 465.61 C 365.28 462.54 370.98 461.89 376.29 460.51 C 385.42 458.32 394.26 454.48 401.68 448.67 C 407.14 443.81 412.03 438.34 417.22 433.20 C 420.05 430.47 423.79 428.92 427.49 427.75 M 427.37 429.57 C 418.25 431.87 412.84 440.25 406.32 446.32 C 399.41 452.94 390.95 458.08 381.66 460.51 C 375.46 462.56 368.67 462.76 362.86 465.93 C 357.39 468.65 353.96 474.06 351.38 479.38 C 349.47 486.90 350.98 495.74 356.58 501.41 C 363.15 508.17 370.68 514.20 375.50 522.45 C 380.93 530.63 383.03 540.34 385.24 549.75 C 386.52 555.27 389.37 560.64 393.98 564.08 C 401.36 568.49 410.99 570.10 418.79 565.77 C 424.44 562.24 428.48 556.79 433.30 552.28 C 439.09 546.49 445.89 541.67 453.52 538.62 C 461.11 535.70 469.32 534.80 476.95 531.98 C 488.49 527.17 493.83 511.98 488.08 500.96 C 484.87 495.06 479.35 490.99 474.77 486.24 C 469.47 481.35 465.59 475.20 462.23 468.88 C 458.42 461.40 457.27 452.98 455.13 444.96 C 453.06 437.48 446.45 432.23 439.45 429.57 C 435.48 428.83 431.35 429.01 427.37 429.57 Z" />
<path fill="#1e479c" opacity="1.00" d=" M 427.37 429.57 C 431.35 429.01 435.48 428.83 439.45 429.57 C 446.45 432.23 453.06 437.48 455.13 444.96 C 457.27 452.98 458.42 461.40 462.23 468.88 C 465.59 475.20 469.47 481.35 474.77 486.24 C 479.35 490.99 484.87 495.06 488.08 500.96 C 493.83 511.98 488.49 527.17 476.95 531.98 C 469.32 534.80 461.11 535.70 453.52 538.62 C 445.89 541.67 439.09 546.49 433.30 552.28 C 428.48 556.79 424.44 562.24 418.79 565.77 C 410.99 570.10 401.36 568.49 393.98 564.08 C 389.37 560.64 386.52 555.27 385.24 549.75 C 383.03 540.34 380.93 530.63 375.50 522.45 C 370.68 514.20 363.15 508.17 356.58 501.41 C 350.98 495.74 349.47 486.90 351.38 479.38 C 353.96 474.06 357.39 468.65 362.86 465.93 C 368.67 462.76 375.46 462.56 381.66 460.51 C 390.95 458.08 399.41 452.94 406.32 446.32 C 412.84 440.25 418.25 431.87 427.37 429.57 M 428.79 445.76 C 422.43 451.74 416.97 458.77 409.64 463.65 C 405.45 466.81 400.71 469.13 396.42 472.16 C 394.40 472.61 392.32 472.55 390.28 472.83 C 390.68 473.44 391.08 474.05 391.50 474.66 C 387.37 473.57 384.00 476.91 379.93 476.55 C 377.57 475.99 376.32 478.64 374.08 478.48 C 370.55 478.23 368.10 481.26 366.43 483.98 C 365.73 487.44 367.25 490.87 369.79 493.20 C 376.16 498.72 382.17 504.75 387.16 511.57 C 389.96 514.98 391.12 519.36 393.87 522.81 C 395.44 528.21 397.83 533.41 398.51 539.05 C 399.29 543.02 400.12 547.19 402.37 550.62 C 404.11 553.31 407.99 553.13 410.58 551.91 C 417.82 548.36 421.63 540.68 428.15 536.16 C 432.91 532.08 438.19 528.66 443.90 526.06 C 447.87 523.44 452.72 523.20 457.00 521.33 C 461.77 519.26 467.25 519.79 471.77 517.00 C 475.15 515.87 474.89 511.83 474.54 508.97 C 468.67 500.83 460.48 494.74 454.34 486.82 C 450.32 480.19 446.15 473.41 444.48 465.74 C 443.94 463.81 443.76 461.71 442.61 460.02 C 440.59 457.50 442.30 453.95 440.93 451.20 C 439.73 448.70 438.11 446.37 435.97 444.59 C 433.58 444.43 430.64 443.84 428.79 445.76 Z" />
</svg>
