<?xml version="1.0" encoding="UTF-8" ?>
<!DOCTYPE svg PUBLIC "-//W3C//DTD SVG 1.1//EN" "http://www.w3.org/Graphics/SVG/1.1/DTD/svg11.dtd">
<svg width="471pt" height="563pt" viewBox="0 0 471 563" version="1.1" xmlns="http://www.w3.org/2000/svg">
<path fill="#1e479c" opacity="1.00" d=" M 321.08 2.26 C 338.80 -2.09 358.12 1.63 373.25 11.73 C 396.03 27.27 418.77 42.86 441.55 58.39 C 456.92 69.19 467.44 86.56 469.92 105.17 C 472.04 118.90 468.70 132.65 465.28 145.87 C 462.08 156.84 458.52 167.76 453.59 178.08 C 459.54 190.45 460.07 205.47 454.06 217.92 C 449.20 227.48 441.63 236.02 431.80 240.61 C 425.24 243.71 417.79 244.41 410.67 243.38 C 398.25 256.20 384.78 268.14 369.60 277.61 C 360.20 283.91 349.13 287.27 337.93 288.30 C 279.97 368.65 221.96 448.98 163.99 529.34 C 159.89 535.01 155.72 540.76 150.29 545.25 C 137.19 556.86 119.54 563.22 102.05 562.47 C 85.58 561.80 69.46 554.94 57.49 543.63 C 43.83 531.01 35.43 512.71 35.24 494.08 C 34.55 480.24 38.21 466.28 45.44 454.47 C 97.56 368.58 149.66 282.69 201.80 196.81 C 203.08 194.98 201.46 192.81 201.22 190.90 C 197.02 175.75 199.98 159.90 203.92 145.04 C 206.93 133.90 210.61 122.93 215.30 112.38 C 216.26 110.64 215.31 108.78 214.65 107.13 C 209.15 93.95 210.63 78.16 218.37 66.17 C 226.75 52.31 243.20 44.01 259.33 45.42 C 268.43 35.77 278.22 26.73 288.95 18.90 C 298.64 11.67 309.11 4.91 321.08 2.26 M 292.71 36.72 C 287.26 41.23 281.81 45.79 277.01 51.00 C 311.15 73.80 344.92 97.15 378.86 120.26 C 383.69 123.22 383.64 131.09 378.84 134.05 C 375.77 136.31 371.55 135.50 368.72 133.25 C 338.61 112.67 308.49 92.10 278.39 71.51 C 274.72 69.07 271.27 66.19 267.11 64.61 C 261.08 62.21 254.30 61.78 247.98 63.12 C 233.67 66.51 224.64 83.06 228.78 97.01 C 231.12 103.94 235.02 110.65 241.24 114.77 C 293.52 150.47 345.76 186.23 398.05 221.92 C 407.48 228.62 421.17 228.50 430.43 221.52 C 437.37 216.30 442.19 207.79 441.83 198.96 C 442.69 187.42 434.89 177.30 425.24 171.89 C 416.14 165.63 406.98 159.47 397.92 153.17 C 393.86 150.69 393.00 144.64 396.01 141.03 C 397.42 139.08 399.81 138.41 402.00 137.72 C 406.85 138.53 410.45 142.06 414.47 144.58 C 423.69 150.96 432.96 157.27 442.13 163.72 C 446.21 153.05 449.76 142.16 452.06 130.96 C 453.53 123.78 455.18 116.40 453.99 109.06 C 452.47 94.02 443.94 79.95 431.46 71.46 C 409.13 56.20 386.79 40.95 364.47 25.67 C 358.68 21.74 352.02 19.23 345.19 17.83 C 339.14 16.96 332.99 17.18 326.94 17.79 C 313.82 20.40 303.06 28.76 292.71 36.72 M 215.95 166.84 C 214.24 178.13 216.63 189.88 222.14 199.84 C 226.51 207.81 233.28 214.26 240.84 219.19 C 259.86 232.11 278.80 245.15 297.80 258.08 C 303.20 261.84 308.58 265.79 314.77 268.18 C 328.73 273.91 345.28 272.76 358.34 265.18 C 370.74 257.87 381.75 248.50 392.28 238.74 C 391.87 237.88 391.32 237.15 390.61 236.55 C 355.27 212.59 320.06 188.42 284.79 164.35 C 265.80 151.23 246.58 138.44 227.76 125.09 C 222.11 138.44 218.43 152.58 215.95 166.84 M 210.99 213.10 C 169.71 281.41 128.17 349.57 86.83 417.85 C 85.34 420.15 83.86 422.47 82.82 425.02 C 105.69 440.52 128.50 456.13 151.27 471.79 C 155.73 474.52 156.03 481.63 152.04 484.89 C 149.24 487.29 144.83 487.35 141.86 485.24 C 119.20 469.88 96.74 454.21 73.97 439.01 C 68.66 447.71 63.37 456.44 58.14 465.19 C 47.61 483.73 49.42 508.46 62.76 525.15 C 72.63 537.99 88.67 546.21 104.96 545.72 C 120.53 546.13 135.82 538.54 145.61 526.53 C 149.44 521.69 152.94 516.59 156.57 511.60 C 210.66 436.67 264.72 361.73 318.81 286.80 C 309.53 284.66 300.88 280.44 293.16 274.90 C 274.75 262.26 256.29 249.69 237.86 237.08 C 232.63 233.35 227.04 230.07 222.24 225.76 C 217.88 222.13 214.39 217.60 210.99 213.10 Z" />
<path fill="#1e479c" opacity="1.00" d=" M 61.05 96.00 C 67.39 94.47 74.55 95.03 79.98 98.92 C 86.17 102.77 88.70 109.92 92.11 115.97 C 96.86 125.15 104.44 132.79 113.55 137.66 C 118.99 141.00 125.48 143.24 129.33 148.62 C 136.40 157.83 135.16 172.52 126.10 180.00 C 121.16 184.04 115.07 186.32 109.75 189.80 C 102.94 194.17 97.21 200.23 93.22 207.28 C 90.86 211.32 88.93 215.60 86.48 219.60 C 81.77 227.38 71.92 231.78 63.01 229.71 C 55.87 228.31 49.43 223.13 46.87 216.27 C 45.33 211.01 50.45 205.06 55.96 206.27 C 61.30 205.95 61.84 213.48 66.93 213.53 C 69.78 214.01 72.20 211.94 73.40 209.55 C 77.31 202.54 80.65 195.09 86.02 189.03 C 89.97 184.66 94.13 180.39 99.06 177.12 C 104.13 173.72 109.63 171.02 114.85 167.87 C 117.60 166.35 118.35 162.65 117.14 159.91 C 115.92 157.11 112.74 156.20 110.34 154.73 C 101.35 150.18 92.84 144.38 86.37 136.56 C 80.42 130.09 77.07 121.86 72.59 114.42 C 70.62 110.93 65.09 110.51 62.79 113.86 C 60.21 117.72 58.31 121.99 55.95 125.98 C 50.07 136.68 41.04 145.54 30.43 151.52 C 27.08 153.52 23.54 155.17 20.22 157.23 C 16.28 159.33 16.19 165.92 20.25 167.97 C 26.17 171.64 32.29 174.99 38.13 178.79 C 40.90 180.51 42.81 183.76 42.35 187.08 C 41.99 192.54 35.13 196.63 30.39 193.33 C 24.54 189.52 18.44 186.10 12.42 182.58 C 5.62 178.56 0.80 171.01 1.10 162.98 C 0.62 154.94 5.10 147.01 11.98 142.95 C 15.75 140.69 19.70 138.76 23.45 136.47 C 31.27 131.88 37.83 125.14 42.15 117.16 C 44.61 112.95 46.58 108.46 49.32 104.42 C 52.09 100.36 56.40 97.49 61.05 96.00 Z" />
<path fill="#1e479c" opacity="1.00" d=" M 184.05 328.97 C 192.41 327.63 201.31 329.08 208.67 333.34 C 216.18 338.27 221.74 346.18 223.47 355.04 C 225.53 364.09 223.58 373.90 218.48 381.62 C 211.05 392.81 203.67 404.03 196.27 415.24 C 192.15 421.35 188.54 428.06 182.66 432.71 C 169.54 444.11 147.51 441.55 136.39 428.54 C 126.32 417.39 125.06 399.61 133.19 387.02 C 142.75 372.61 152.37 358.24 161.91 343.81 C 167.06 336.30 174.87 330.33 184.05 328.97 M 176.55 351.54 C 171.95 358.00 167.88 364.82 163.31 371.30 C 175.41 371.75 187.08 379.38 192.01 390.47 C 192.28 390.45 192.82 390.40 193.09 390.38 C 196.72 384.65 200.51 379.03 204.29 373.40 C 206.91 369.54 208.73 364.89 208.29 360.16 C 207.57 352.83 201.45 347.16 194.87 344.68 C 188.02 342.13 180.58 345.93 176.55 351.54 M 159.55 387.85 C 150.87 388.98 143.60 397.18 144.17 406.03 C 143.89 415.82 153.22 424.54 162.98 423.48 C 172.35 423.03 179.77 414.13 179.65 404.95 C 180.18 394.63 169.22 386.74 159.55 387.85 Z" />
<path fill="#1e479c" opacity="1.00" d=" M 407.63 375.91 C 413.17 375.18 419.07 377.01 423.08 380.94 C 426.88 384.41 428.60 389.39 431.17 393.71 C 434.51 399.89 439.66 405.04 445.83 408.40 C 450.50 411.15 455.99 413.18 459.17 417.83 C 464.99 425.67 463.87 437.98 456.32 444.33 C 451.58 448.08 445.74 450.13 440.96 453.83 C 436.50 457.12 433.09 461.64 430.51 466.51 C 428.15 470.70 426.37 475.41 422.55 478.56 C 416.28 484.36 406.01 484.90 399.15 479.81 C 394.38 476.68 392.26 471.21 389.64 466.40 C 386.50 460.50 382.00 455.22 376.22 451.78 C 371.38 448.67 365.62 446.70 361.81 442.20 C 355.48 435.11 355.63 423.13 362.31 416.33 C 366.24 411.90 372.08 410.09 376.88 406.86 C 382.61 403.28 386.97 397.85 390.04 391.89 C 392.10 388.12 393.77 383.99 396.97 381.01 C 399.84 378.18 403.67 376.49 407.63 375.91 M 402.68 402.81 C 398.36 410.15 392.43 416.64 385.14 421.09 C 381.00 423.58 377.15 426.50 373.28 429.38 C 379.82 435.44 388.37 438.87 394.49 445.44 C 400.86 451.69 404.36 460.08 410.02 466.90 C 413.04 463.23 415.73 459.29 418.14 455.20 C 422.28 448.24 428.07 442.28 434.95 438.00 C 439.03 435.48 442.89 432.63 446.75 429.80 C 440.85 423.63 432.46 420.61 426.53 414.46 C 419.61 408.10 416.11 399.14 410.02 392.10 C 407.42 395.57 404.89 399.08 402.68 402.81 Z" />
</svg>
