<?xml version="1.0" encoding="UTF-8" ?>
<!DOCTYPE svg PUBLIC "-//W3C//DTD SVG 1.1//EN" "http://www.w3.org/Graphics/SVG/1.1/DTD/svg11.dtd">
<svg width="404pt" height="542pt" viewBox="0 0 404 542" version="1.1" xmlns="http://www.w3.org/2000/svg">
<path fill="#1e479c" opacity="1.00" d=" M 68.64 0.00 L 334.50 0.00 C 351.98 0.83 369.08 8.14 381.60 20.40 C 395.59 33.63 403.76 52.76 403.55 72.03 C 403.57 202.01 403.55 331.99 403.56 461.97 C 403.53 468.15 403.76 474.37 402.82 480.50 C 400.61 496.30 392.75 511.21 381.10 522.09 C 368.63 534.05 351.76 541.17 334.52 542.00 L 68.77 542.00 C 57.48 541.19 46.30 538.05 36.52 532.27 C 18.47 521.93 5.13 503.51 1.58 482.94 C 0.14 475.70 0.53 468.29 0.50 460.95 C 0.48 349.61 0.53 238.27 0.47 126.93 C 0.66 123.28 -0.25 119.13 2.07 115.98 C 4.62 112.42 10.16 111.49 13.54 114.42 C 15.97 116.15 16.78 119.19 16.64 122.03 C 16.62 237.69 16.67 353.35 16.62 469.01 C 16.49 477.33 18.10 485.72 21.65 493.27 C 28.26 507.72 41.26 519.12 56.52 523.63 C 64.11 525.97 72.14 526.30 80.04 526.18 C 163.35 526.15 246.66 526.18 329.96 526.16 C 336.92 526.01 343.93 525.08 350.47 522.63 C 372.14 515.02 387.80 493.04 387.41 470.00 C 387.40 337.00 387.44 204.00 387.39 71.00 C 387.39 48.02 371.41 26.37 349.71 19.09 C 338.93 15.13 327.30 15.87 316.03 15.85 C 235.35 15.85 154.68 15.84 74.01 15.85 C 63.31 15.93 52.51 18.53 43.40 24.24 C 29.73 32.63 19.77 47.01 17.34 62.91 C 15.84 72.02 17.21 81.28 16.43 90.43 C 15.76 96.83 6.67 98.91 2.63 94.35 C -0.11 91.64 0.57 87.51 0.47 84.03 C 0.66 76.28 0.01 68.47 1.29 60.78 C 3.65 45.01 11.67 30.20 23.41 19.43 C 35.62 7.93 51.93 1.10 68.64 0.00 Z" />
<path fill="#1e479c" opacity="1.00" d=" M 183.39 40.39 C 189.15 33.39 199.14 30.07 207.90 32.49 C 216.72 34.52 223.99 42.01 225.74 50.89 C 228.00 60.38 223.09 70.75 214.86 75.76 C 212.16 77.47 209.05 78.28 206.06 79.30 C 203.36 79.38 200.67 79.38 197.97 79.30 C 189.78 77.47 182.25 71.98 179.31 63.92 C 176.11 56.10 177.89 46.73 183.39 40.39 M 193.67 55.80 C 194.53 59.72 197.56 63.71 201.95 63.50 C 206.38 63.77 209.47 59.75 210.32 55.79 C 209.73 51.59 206.50 47.67 202.03 47.62 C 197.52 47.63 194.28 51.58 193.67 55.80 Z" />
<path fill="#1e479c" opacity="1.00" d=" M 79.04 73.09 C 86.53 66.88 96.26 63.20 106.04 63.50 C 116.72 63.48 127.41 63.45 138.09 63.50 C 148.33 63.60 158.17 70.90 160.80 80.87 C 161.86 84.24 161.15 87.99 162.76 91.20 C 164.38 94.08 167.84 95.43 171.04 95.31 C 191.71 95.29 212.38 95.29 233.05 95.30 C 236.21 95.42 239.63 94.05 241.23 91.21 C 242.86 88.01 242.13 84.27 243.18 80.91 C 245.81 70.89 255.73 63.53 266.02 63.51 C 276.66 63.50 287.31 63.54 297.95 63.50 C 311.53 63.14 325.11 70.16 332.52 81.57 C 336.58 87.63 338.59 94.78 339.17 102.00 C 339.43 197.36 339.13 292.72 339.32 388.08 C 338.64 392.13 335.53 396.37 330.98 395.92 C 326.16 396.38 322.38 391.59 322.70 387.03 C 322.70 292.37 322.73 197.71 322.69 103.05 C 323.13 90.40 311.48 79.26 298.99 79.44 C 288.31 79.44 277.63 79.43 266.95 79.44 C 262.73 79.07 258.59 82.74 258.56 87.00 C 258.33 91.96 257.11 96.99 254.06 101.01 C 249.58 107.44 241.84 111.20 234.05 111.22 C 213.04 111.27 192.04 111.22 171.04 111.25 C 159.55 111.83 148.14 103.55 146.05 92.08 C 145.56 89.75 145.62 87.33 145.14 85.00 C 144.05 81.69 140.65 79.15 137.11 79.41 C 126.38 79.39 115.64 79.37 104.91 79.44 C 92.49 79.33 80.89 90.42 81.33 103.02 C 81.34 215.01 81.34 327.01 81.33 439.01 C 80.89 451.61 92.50 462.68 104.92 462.58 C 167.61 462.63 230.30 462.58 292.99 462.61 C 297.35 462.55 301.86 462.96 306.03 461.44 C 315.21 458.57 322.53 449.77 322.66 440.01 C 322.75 432.96 322.75 425.91 322.63 418.87 C 323.68 415.70 325.89 412.71 329.34 412.02 C 334.25 410.84 338.73 415.17 339.32 419.88 C 338.89 431.22 340.57 443.16 335.98 453.89 C 330.21 468.26 315.35 478.19 299.94 478.49 C 234.61 478.48 169.28 478.49 103.95 478.48 C 87.85 478.15 72.46 467.25 67.26 451.92 C 64.44 445.30 65.49 438.00 65.12 431.02 C 64.91 427.02 65.26 423.03 65.10 419.04 C 65.16 418.23 65.28 416.63 65.34 415.82 L 64.73 415.08 C 64.68 412.38 64.90 409.69 65.07 407.01 C 65.83 399.67 64.10 392.35 65.05 385.02 C 65.84 379.00 64.25 372.98 65.02 366.96 C 65.48 359.64 65.28 352.28 64.81 344.96 C 64.48 339.29 65.56 333.63 64.89 327.97 C 64.45 321.98 65.38 315.99 64.84 310.01 C 64.85 308.66 64.86 307.32 64.87 305.98 C 64.88 300.64 64.65 295.31 65.19 289.99 C 64.63 283.67 65.40 277.35 64.75 271.03 C 64.94 259.67 65.82 248.29 64.83 236.94 C 65.08 227.63 65.33 218.31 65.09 208.99 C 64.09 197.67 66.06 186.33 64.77 175.02 C 65.56 169.02 64.90 163.00 65.12 157.00 C 65.28 151.00 65.36 144.99 65.06 139.00 C 65.82 132.32 64.12 125.66 65.05 119.00 C 65.76 113.32 64.24 107.65 65.16 101.99 C 65.23 90.93 70.67 80.21 79.04 73.09 Z" />
<path fill="#1e479c" opacity="1.00" d=" M 264.07 168.58 C 269.17 167.05 274.84 166.54 279.89 168.51 C 287.83 171.40 294.00 179.39 293.73 188.00 C 293.78 228.98 293.72 269.96 293.76 310.95 C 293.94 316.37 293.37 321.91 291.08 326.89 C 286.16 338.81 275.93 347.71 264.65 353.51 C 253.75 359.04 240.96 361.40 228.92 358.72 C 219.31 356.60 210.45 350.10 206.67 340.87 C 203.13 332.36 204.45 322.52 208.63 314.49 C 219.76 292.72 246.18 280.43 270.06 284.74 C 272.66 285.20 275.15 286.15 277.64 287.01 C 277.63 267.04 277.65 247.06 277.63 227.08 C 247.52 234.67 217.56 242.84 187.52 250.73 C 187.47 280.50 187.51 310.27 187.50 340.04 C 187.50 348.17 184.17 355.98 179.36 362.42 C 168.75 377.05 150.93 385.78 132.99 386.38 C 123.42 386.30 113.36 383.43 106.44 376.53 C 101.24 371.51 98.28 364.29 98.37 357.07 C 98.14 345.88 104.04 335.44 111.84 327.78 C 123.43 316.43 139.68 309.63 155.99 310.35 C 161.29 310.31 166.53 311.48 171.39 313.58 C 171.37 280.03 171.36 246.49 171.39 212.95 C 171.27 201.43 179.87 190.93 190.85 187.97 C 215.24 181.42 239.72 175.23 264.07 168.58 M 196.88 202.85 C 192.00 203.77 187.57 207.92 187.53 213.09 C 187.41 220.07 187.54 227.06 187.50 234.04 C 196.10 232.16 204.53 229.63 213.06 227.46 C 234.54 221.59 256.14 216.18 277.64 210.38 C 277.57 202.96 277.77 195.52 277.58 188.10 C 277.61 184.40 273.34 182.20 270.09 183.54 C 245.69 189.98 221.32 196.56 196.88 202.85 M 256.86 299.77 C 243.59 301.48 230.41 308.63 223.64 320.47 C 220.95 324.77 220.59 330.16 221.68 335.02 C 223.62 339.51 228.18 342.24 232.82 343.20 C 242.83 345.13 253.31 342.27 261.73 336.76 C 268.62 332.24 274.81 325.89 277.17 317.82 C 278.63 312.82 276.74 307.47 273.18 303.85 C 269.14 299.35 262.42 299.39 256.86 299.77 M 146.65 326.81 C 137.17 328.68 128.31 333.61 121.72 340.67 C 117.22 345.56 113.70 352.11 114.64 358.95 C 115.27 363.80 119.39 367.43 123.85 368.90 C 132.16 371.97 141.36 369.95 149.21 366.51 C 158.52 362.18 167.24 354.90 170.59 344.91 C 173.15 338.21 168.91 330.53 162.86 327.41 C 157.69 325.60 151.98 326.03 146.65 326.81 Z" />
</svg>
