<svg width="32" height="32" viewBox="0 0 32 32" fill="none" xmlns="http://www.w3.org/2000/svg">
<path d="M5.91915 2.97271C10.0151 -0.448211 16.2111 -0.966426 20.8355 1.67717C24.9383 3.92511 27.6643 8.49101 27.6956 13.2005C27.8069 16.6179 26.4508 19.9653 24.2742 22.5529C26.8403 25.179 29.4932 27.721 32.0001 30.3996V30.8863C31.8437 31.7022 30.7867 32.0978 30.2199 31.4431C27.6852 29.0095 25.2513 26.4675 22.7652 23.978C20.8807 25.3435 18.7354 26.422 16.4162 26.7476C12.5046 27.3884 8.33566 26.1664 5.3976 23.4807C2.44214 20.8512 0.780137 16.8385 0.978326 12.8713C1.10697 9.06175 2.96369 5.3572 5.91915 2.97271ZM13.6207 2.09735C11.7814 2.2269 9.97681 2.79764 8.41563 3.78505C3.89205 6.47767 1.81976 12.5387 3.77384 17.4617C5.69662 22.9765 12.2508 26.1734 17.741 24.2861C22.9877 22.7104 26.5378 16.8595 25.4356 11.4427C24.5802 5.92794 19.1283 1.64916 13.6207 2.09735Z" fill="#1C1841"/>
</svg>
