<?xml version="1.0" encoding="UTF-8"?>
<svg id="Layer_2" data-name="Layer 2" xmlns="http://www.w3.org/2000/svg" viewBox="0 0 487 480.18">
  <defs>
    <style>
      .cls-1 {
        fill: none;
        stroke: #000;
        stroke-linecap: round;
        stroke-linejoin: round;
        stroke-width: 35px;
      }
    </style>
  </defs>
  <g id="Layer_1-2" data-name="Layer 1">
    <path class="cls-1" d="M431.56,201.79c11.81-10.18,37.94-29.18,37.94-4.68v37.25c0,5.33-3.49,9.91-8.4,11.45-36.82,29.82-68.83,100.13-138.29,163-112.85,98.65-270.81,54.49-301.09-73.09-10.77-51.25-.69-112.74,27.65-168.7C137.1-6.21,345-30.69,384.13,102.86c17.65,69.48,.87,131.45-59.13,175.45-179,121-257.5-75.57-156.61-116.95,8.53-3.5,17.62,3.57,16.46,12.62-8.41,65.48,109.86,28.54,129.64,2.31,18.72-21.48-38.39-52.66-98.91-37.5"/>
  </g>
</svg>