<svg width="31" height="31" viewBox="0 0 31 31" fill="none" xmlns="http://www.w3.org/2000/svg">
<path d="M14.533 17.3806C14.3508 17.3806 14.1686 17.3374 14.0004 17.2365L1.62623 9.87202C1.12173 9.56937 0.953539 8.90638 1.24783 8.38755C1.54212 7.86872 2.17274 7.69575 2.69125 7.9984L14.533 15.0459L26.3044 8.04168C26.8089 7.73903 27.4535 7.92641 27.7478 8.43083C28.0421 8.94966 27.8601 9.61256 27.3696 9.91521L15.0795 17.2365C14.8973 17.323 14.7152 17.3806 14.533 17.3806Z" fill="#21D2B4"/>
<path d="M14.5338 30.4379C13.9592 30.4379 13.4828 29.9479 13.4828 29.357V16.2855C13.4828 15.6946 13.9592 15.2046 14.5338 15.2046C15.1084 15.2046 15.5848 15.6946 15.5848 16.2855V29.357C15.5848 29.9479 15.1084 30.4379 14.5338 30.4379Z" fill="#21D2B4"/>
<path d="M14.5323 31C13.2991 31 12.0658 30.7262 11.1129 30.1641L3.62955 25.8982C1.59756 24.7452 0 21.9637 0 19.5714V11.4142C0 9.02182 1.59756 6.25479 3.62955 5.08743L11.1129 0.821478C13.0188 -0.273826 16.0177 -0.273826 17.9376 0.821478L25.421 5.08743C27.453 6.24038 29.0505 9.02182 29.0505 11.4142V19.5714C29.0505 19.6723 29.0505 19.8164 29.0085 20.0037C28.9244 20.3784 28.6582 20.6811 28.3078 20.7964C27.9575 20.9117 27.5651 20.8396 27.2848 20.5802C25.6872 19.139 23.1928 19.0814 21.4831 20.4793C20.404 21.3584 19.7734 22.6987 19.7734 24.1255C19.7734 24.9758 19.9976 25.8117 20.4321 26.5323C20.5442 26.7341 20.6563 26.8926 20.7824 27.0367C20.9926 27.2817 21.0767 27.6132 21.0206 27.9303C20.9646 28.2473 20.7684 28.5356 20.4881 28.6797L17.9236 30.1353C16.9847 30.7262 15.7655 31 14.5323 31ZM14.5323 2.1762C13.6634 2.1762 12.7805 2.36357 12.1499 2.72386L4.66656 6.98981C3.30722 7.76805 2.13008 9.82888 2.13008 11.4142V19.5714C2.13008 21.1567 3.32124 23.232 4.66656 23.9958L12.1499 28.2617C13.4252 28.9967 15.6534 28.9967 16.9286 28.2617L18.4982 27.3682C17.9797 26.4026 17.6994 25.2785 17.6994 24.1255C17.6994 22.0214 18.6103 20.0758 20.1938 18.7787C22.1137 17.2078 24.8324 16.8763 26.9625 17.8275V11.3999C26.9625 9.81454 25.7713 7.73922 24.426 6.97539L16.9426 2.70944C16.284 2.36355 15.4011 2.1762 14.5323 2.1762Z" fill="#21D2B4"/>
<path d="M24.3435 31C20.6718 31 17.6869 27.9303 17.6869 24.1544C17.6869 22.0502 18.5978 20.1046 20.1814 18.8075C21.3585 17.8419 22.844 17.3087 24.3435 17.3087C28.0151 17.3087 31 20.3784 31 24.1544C31 26.1144 30.1732 27.9879 28.7298 29.285C27.5106 30.3947 25.955 31 24.3435 31ZM24.3435 19.4705C23.3064 19.4705 22.3255 19.8308 21.4987 20.5081C20.4196 21.3873 19.789 22.7276 19.789 24.1544C19.789 26.7341 21.835 28.8382 24.3435 28.8382C25.4365 28.8382 26.5016 28.4203 27.3564 27.6709C28.3374 26.7773 28.8979 25.5091 28.8979 24.1544C28.8979 21.5746 26.8519 19.4705 24.3435 19.4705Z" fill="#21D2B4"/>
<path d="M22.9419 26.6764C22.5916 26.6764 22.2412 26.4891 22.0451 26.1576C21.7508 25.6388 21.9049 24.9758 22.4094 24.6732L23.6566 23.9093V22.3529C23.6566 21.762 24.1331 21.272 24.7077 21.272C25.2822 21.272 25.7587 21.762 25.7587 22.3529V24.5146C25.7587 24.8894 25.5625 25.2497 25.2542 25.437L23.5025 26.5179C23.3063 26.6332 23.1241 26.6764 22.9419 26.6764Z" fill="#21D2B4"/>
</svg>
