<svg width="34" height="34" viewBox="0 0 34 34" fill="none" xmlns="http://www.w3.org/2000/svg">
<path d="M8.90307 27.9118C8.2547 27.9118 7.71702 27.3741 7.71702 26.7257V23.4522C7.71702 22.8038 8.2547 22.2662 8.90307 22.2662C9.55144 22.2662 10.0891 22.8038 10.0891 23.4522V26.7257C10.0891 27.3899 9.55144 27.9118 8.90307 27.9118Z" fill="#21D2B4"/>
<path d="M17 27.9116C16.3516 27.9116 15.814 27.374 15.814 26.7256V20.1628C15.814 19.5144 16.3516 18.9767 17 18.9767C17.6484 18.9767 18.186 19.5144 18.186 20.1628V26.7256C18.186 27.3898 17.6484 27.9116 17 27.9116Z" fill="#21D2B4"/>
<path d="M25.0969 27.9119C24.4486 27.9119 23.9109 27.3742 23.9109 26.7259V16.8896C23.9109 16.2412 24.4486 15.7035 25.0969 15.7035C25.7453 15.7035 26.283 16.2412 26.283 16.8896V26.7259C26.283 27.39 25.7611 27.9119 25.0969 27.9119Z" fill="#21D2B4"/>
<path d="M8.9026 18.8659C8.36493 18.8659 7.89051 18.5022 7.74818 17.9645C7.59004 17.3319 7.96958 16.6836 8.61795 16.5254C14.4375 15.0705 19.5612 11.892 23.4673 7.35336L24.1947 6.49941C24.6217 6.00918 25.365 5.94592 25.871 6.3729C26.3612 6.79987 26.4245 7.54313 25.9975 8.04918L25.2701 8.90313C21.0477 13.8371 15.4812 17.2687 9.18725 18.8343C9.09237 18.8659 8.99748 18.8659 8.9026 18.8659Z" fill="#21D2B4"/>
<path d="M25.0974 13.0783C24.4491 13.0783 23.9114 12.5406 23.9114 11.8922V8.46062H20.4639C19.8156 8.46062 19.2779 7.92295 19.2779 7.27457C19.2779 6.6262 19.8156 6.08853 20.4639 6.08853H25.0974C25.7458 6.08853 26.2835 6.6262 26.2835 7.27457V11.9081C26.2835 12.5564 25.7616 13.0783 25.0974 13.0783Z" fill="#21D2B4"/>
<path d="M21.7442 34H12.2558C3.66884 34 0 30.3312 0 21.7442V12.2558C0 3.66884 3.66884 0 12.2558 0H21.7442C30.3312 0 34 3.66884 34 12.2558V21.7442C34 30.3312 30.3312 34 21.7442 34ZM12.2558 2.37209C4.96558 2.37209 2.37209 4.96558 2.37209 12.2558V21.7442C2.37209 29.0344 4.96558 31.6279 12.2558 31.6279H21.7442C29.0344 31.6279 31.6279 29.0344 31.6279 21.7442V12.2558C31.6279 4.96558 29.0344 2.37209 21.7442 2.37209H12.2558Z" fill="#21D2B4"/>
</svg>
