<svg width="48" height="48" viewBox="0 0 48 48" fill="none" xmlns="http://www.w3.org/2000/svg">
<path d="M25.2449 47.7757C23.8206 48.1029 22.3641 47.7711 21.0135 47.3009C15.5745 45.4664 10.117 43.6872 4.68253 41.8388C1.99065 40.9999 0.00862205 38.3449 0.0270587 35.5147C-0.00981727 27.8032 -0.0098166 20.0918 0.0270608 12.3803C0.0132327 9.55473 1.98605 6.90895 4.6687 6.05622C10.223 4.17098 15.7957 2.34567 21.3546 0.478872C22.9264 -0.0880797 24.6734 -0.194098 26.259 0.391294C31.9193 2.29497 37.5935 4.16176 43.2584 6.06082C45.9549 6.88129 47.9415 9.55474 47.9231 12.3803C47.9553 20.0872 47.9553 27.794 47.9231 35.5009C47.9461 38.3265 45.9733 41.0045 43.2676 41.8296C37.257 43.7978 31.2832 45.895 25.2449 47.7757ZM27.1532 43.3276C32.1314 41.6636 37.1141 40.0319 42.083 38.3495C43.1616 38.0222 44.0604 37.0773 44.1941 35.9388C44.3462 34.1181 44.2125 32.2882 44.254 30.4629C38.354 32.3665 32.4909 34.367 26.6139 36.3444C25.0421 36.9252 23.2906 37.0174 21.7003 36.4504C15.6989 34.4684 9.69752 32.4633 3.70073 30.4582C3.74221 32.2928 3.59932 34.1319 3.76987 35.9572C3.92198 37.2248 5.00518 38.1375 6.17596 38.4693C11.721 40.29 17.2385 42.1799 22.7835 43.996C24.2724 44.5814 25.7474 43.7655 27.1532 43.3276ZM25.1942 32.9243C31.5367 30.7947 37.8885 28.6836 44.2402 26.5725C44.2448 25.0422 44.2494 23.5119 44.2402 21.9862C43.0187 22.3135 41.5483 23.2768 40.396 22.2904C39.451 21.5852 39.5801 19.9304 40.6264 19.3865C41.7788 18.8196 43.0417 18.5108 44.254 18.0821C44.2079 16.1876 44.3047 14.2886 44.2217 12.3895C44.2402 11.0989 43.3137 9.91887 42.0922 9.55473C36.4549 7.64184 30.7992 5.79349 25.1574 3.89903C24.1525 3.48419 23.0739 3.76074 22.0921 4.10184C16.7867 5.89028 11.4675 7.65567 6.15753 9.42567C4.97292 9.76215 3.88972 10.7071 3.76065 11.9839C3.61776 14.035 3.69612 16.0954 3.75143 18.1512C4.96831 18.5292 6.21284 18.8242 7.3744 19.3543C8.51752 19.8659 8.72956 21.6774 7.66479 22.3918C6.4387 23.3414 4.96831 22.3089 3.70534 21.9816C3.69151 23.5165 3.70073 25.0514 3.70995 26.591C9.96948 28.6606 16.2152 30.7671 22.4747 32.8413C23.3505 33.1501 24.3092 33.2884 25.1942 32.9243Z" fill="#21D2B4"/>
<path d="M26.5724 27.8816C23.5395 29.1584 20.4328 27.5359 17.5611 26.591C15.9294 26.1347 15.9755 23.5626 17.6164 23.1524C19.2389 22.8666 20.7278 23.9314 22.2719 24.2955C25.0698 25.5447 27.6326 22.9265 30.3936 23.0325C31.8917 23.3322 32.2881 25.5308 30.9882 26.3375C29.5685 26.9874 28.0336 27.3423 26.5724 27.8816Z" fill="#21D2B4"/>
<path d="M14.6065 24.7979C13.5049 25.6922 11.6934 24.821 11.6703 23.4151C11.5367 22.1061 13.0854 21.0183 14.2654 21.6451C15.5192 22.1383 15.722 24.0374 14.6065 24.7979Z" fill="#21D2B4"/>
<path d="M37.6257 24.1849C36.3628 24.7518 34.8509 23.5119 35.1367 22.166C35.298 20.714 37.3676 20.0872 38.2987 21.2303C39.1929 22.1015 38.7919 23.7747 37.6257 24.1849Z" fill="#21D2B4"/>
</svg>
