<svg width="48" height="48" viewBox="0 0 48 53" fill="none" xmlns="http://www.w3.org/2000/svg">
<path d="M6.65222 0.396406C7.94746 0.0737501 9.28418 0.0138281 10.6117 0C19.6783 0.0184375 28.7496 -8.3819e-09 37.8208 0.00921874C40.5357 -0.00460938 43.4535 0.645312 45.4125 2.655C47.3807 4.66469 47.9753 7.58703 47.9476 10.3112C47.9292 18.6127 47.9799 26.9141 47.9246 35.211C47.9292 38.6173 46.3113 42.2772 43.0294 43.6692C39.9734 45.2272 36.461 44.2592 33.2437 44.8953C30.9528 46.7805 29.8143 49.7582 27.5327 51.6803C25.4953 53.2521 22.4255 53.2429 20.3974 51.6619C18.1296 49.7352 17.0049 46.7575 14.7002 44.8907C11.5796 44.2638 8.19176 45.1995 5.19105 43.7891C1.76168 42.4754 0.000896428 38.7141 0.0285527 35.211C-0.0267598 27.057 0.0331619 18.8984 0.000896233 10.7445C-0.0175413 8.42133 0.240584 5.98297 1.51277 3.97789C2.64207 2.13875 4.57801 0.898828 6.65222 0.396406ZM7.09933 4.09773C4.59183 4.72 3.63308 7.50406 3.71144 9.8318C3.67918 17.9858 3.70683 26.1398 3.69762 34.2938C3.69762 36.3173 3.96957 38.7464 5.80871 39.9633C9.15512 42.0836 13.4649 39.8665 16.8389 41.8623C19.3649 43.6416 20.5218 46.7252 22.7666 48.7856C23.5594 49.288 24.7025 49.2466 25.4078 48.6012C27.399 46.5869 28.5975 43.8628 30.8146 42.0559C34.1794 39.7374 38.6735 42.1343 42.1121 39.9817C43.9789 38.7695 44.2555 36.3127 44.2555 34.2753C44.2647 26.4394 44.2509 18.6034 44.2647 10.7675C44.2417 8.88227 44.1725 6.77578 42.8404 5.29156C41.43 3.82578 39.2543 3.71516 37.3507 3.69211C28.4361 3.69672 19.5216 3.69672 10.6071 3.69211C9.43168 3.71055 8.23324 3.75203 7.09933 4.09773Z" fill="#21D2B4"/>
<path d="M13.1284 13.298C15.9954 10.4034 21.1349 10.2789 24.0065 13.2381C26.9381 10.1959 32.2573 10.4218 35.0736 13.4916C37.4843 16.2066 38.1389 20.1937 37.1479 23.6369C35.8849 28.532 32.0453 32.2702 27.9199 34.9391C26.6661 35.6812 25.44 36.6215 23.9789 36.8842C22.4301 36.5477 21.1303 35.5475 19.7982 34.7316C15.8064 32.1089 12.1236 28.4583 10.879 23.7106C9.8373 20.166 10.5379 16.013 13.1284 13.298ZM14.9629 16.9579C13.5663 19.4654 14.0134 22.5721 15.304 25.0243C17.2169 28.5735 20.5818 31.0395 24.0065 33.0031C27.8553 30.7445 31.7964 27.836 33.3543 23.4709C34.1886 21.1662 34.1195 18.4191 32.6629 16.3725C31.2801 14.4458 28.0489 14.1692 26.5325 16.0775C25.7673 16.9948 25.4677 18.7048 23.9743 18.6311C22.2504 18.585 22.1674 16.4278 20.9736 15.5889C19.1206 14.0309 16 14.8099 14.9629 16.9579Z" fill="#21D2B4"/>
</svg>
