<svg width="39" height="48" viewBox="0 0 39 48" fill="none" xmlns="http://www.w3.org/2000/svg">
<path d="M30.259 1.59077C30.8352 0.913194 31.4252 0.00975711 32.43 0.0189759C33.67 -0.151571 34.6932 0.853273 34.9652 1.9964C37.5833 9.59726 38.9339 17.8619 37.4128 25.8407C36.1913 32.3169 32.1673 38.3459 26.2719 41.4342C20.7822 44.3566 14.14 43.6237 8.52121 41.4803C7.72379 43.2641 7.27668 45.177 6.59449 47.0023C5.72793 48.7677 2.57051 47.5831 3.25269 45.6472C6.39629 34.1145 13.6468 23.7388 23.4049 16.8294C24.3959 16.055 25.9262 16.834 26.1382 18.0001C26.5024 18.9589 25.6819 19.7241 24.9905 20.2403C18.754 24.9787 13.6376 31.1507 10.07 38.1201C14.5595 39.7748 19.7773 40.4755 24.23 38.3367C28.8993 36.032 32.1996 31.4457 33.4718 26.4491C35.2971 19.406 34.1678 11.9711 32.1258 5.10312C29.9917 7.23265 27.3413 8.8321 24.4282 9.63413C18.9661 11.3626 12.8218 12.1001 8.44285 16.1426C3.53847 20.5998 2.60277 28.1269 4.83832 34.1468C5.88926 36.0873 2.59816 37.7651 1.61637 35.8476C-0.660665 30.3855 -0.55004 23.8909 2.06348 18.5579C4.14691 14.3173 8.01418 11.1414 12.3839 9.45437C16.3525 7.73046 20.6761 7.1128 24.7324 5.6378C26.8988 4.83116 28.8486 3.42991 30.259 1.59077Z" fill="#21D2B4"/>
</svg>
