<svg width="41" height="42" viewBox="0 0 41 42" fill="none" xmlns="http://www.w3.org/2000/svg">
<mask id="mask0_311_1701" style="mask-type:luminance" maskUnits="userSpaceOnUse" x="0" y="0" width="41" height="42">
<path d="M40.3384 0.466187H0.347656V41.5312H40.3384V0.466187Z" fill="white"/>
</mask>
<g mask="url(#mask0_311_1701)">
<path d="M15.1288 21.8658L0.482422 38.4036L0.484705 38.4137C0.643032 39.0397 0.93505 39.6184 1.33802 40.1049C1.74099 40.5911 2.24404 40.9718 2.80799 41.2175C3.37195 41.4633 3.98159 41.5671 4.58945 41.5211C5.19731 41.4749 5.78697 41.2803 6.31252 40.9522L6.35908 40.9224L22.8452 30.8028L15.1288 21.8658Z" fill="#AFB9C5"/>
<path d="M29.9467 19.0493L29.9329 19.0394L22.8155 14.6493L14.7969 22.2407L22.8437 30.7997L29.9236 26.454C30.5514 26.0949 31.0765 25.5619 31.4434 24.9115C31.8101 24.2611 32.0049 23.5175 32.0074 22.759C32.0098 22.0005 31.8195 21.2555 31.4569 20.6026C31.0941 19.9495 30.5724 19.4129 29.9467 19.0493Z" fill="#8D99A8"/>
<path d="M0.481812 7.01501C0.392335 7.36812 0.347228 7.73228 0.347669 8.098V37.3209C0.346778 37.6864 0.392211 38.0503 0.482746 38.4028L15.6328 22.2886L0.481812 7.01501Z" fill="#DEE3E7"/>
<path d="M15.2377 22.7092L22.8178 14.6467L6.35066 4.48952C5.82478 4.15348 5.23275 3.95194 4.62119 3.90075C4.00961 3.84955 3.39524 3.95013 2.82644 4.19453C2.25762 4.43894 1.74993 4.8205 1.34333 5.30919C0.93673 5.79786 0.642339 6.38028 0.483343 7.0106L0.482422 7.01477L15.2377 22.7092Z" fill="#AFB9C5"/>
</g>
</svg>
