<svg width="31" height="35" viewBox="0 0 31 35" fill="none" xmlns="http://www.w3.org/2000/svg">
<path d="M15.5 34.0731C14.4208 34.0731 13.3263 33.6568 12.5092 32.8397L9.87289 30.2343C9.22539 29.5868 8.33126 29.2322 7.42168 29.2322H6.25C3.05875 29.2322 0.46875 26.6577 0.46875 23.4972V6.66225C0.46875 3.50183 3.05875 0.927246 6.25 0.927246H24.75C27.9412 0.927246 30.5312 3.50183 30.5312 6.66225V23.4818C30.5312 26.6422 27.9412 29.2168 24.75 29.2168H23.5783C22.6687 29.2168 21.7746 29.5868 21.1271 30.2189L18.4908 32.8243C17.6737 33.6568 16.5792 34.0731 15.5 34.0731ZM6.25 3.23975C4.33833 3.23975 2.78125 4.78141 2.78125 6.66225V23.4818C2.78125 25.3781 4.33833 26.9043 6.25 26.9043H7.42168C8.94793 26.9043 10.4279 27.521 11.507 28.5847L14.1433 31.1902C14.8987 31.9302 16.1167 31.9302 16.8721 31.1902L19.5083 28.5847C20.5875 27.521 22.0675 26.9043 23.5938 26.9043H24.75C26.6617 26.9043 28.2188 25.3627 28.2188 23.4818V6.66225C28.2188 4.766 26.6617 3.23975 24.75 3.23975H6.25Z" fill="#21D2B4"/>
<path d="M15.6091 13.9544C15.5783 13.9544 15.5321 13.9544 15.5012 13.9544C15.455 13.9544 15.3933 13.9544 15.3471 13.9544C13.0962 13.8773 11.3387 12.0582 11.3387 9.79191C11.3387 7.49482 13.2042 5.62941 15.5012 5.62941C17.7983 5.62941 19.6637 7.49482 19.6637 9.79191C19.6483 12.0582 17.8908 13.8773 15.64 13.9544C15.64 13.9544 15.6246 13.9544 15.6091 13.9544ZM15.5012 7.94191C14.4837 7.94191 13.6512 8.77441 13.6512 9.79191C13.6512 10.794 14.4375 11.6111 15.4242 11.6419C15.4242 11.6265 15.5167 11.6265 15.6246 11.6419C16.5958 11.5802 17.3512 10.7786 17.3512 9.79191C17.3512 8.77441 16.5187 7.94191 15.5012 7.94191Z" fill="#21D2B4"/>
<path d="M15.5 24.7461C13.7425 24.7461 11.985 24.2836 10.6129 23.3741C9.31795 22.5107 8.5625 21.262 8.5625 19.9361C8.5625 18.6103 9.30253 17.3461 10.6129 16.4828C13.3571 14.6636 17.6429 14.6636 20.3717 16.4828C21.6667 17.3461 22.4221 18.6103 22.4221 19.9207C22.4221 21.2466 21.6821 22.4953 20.3717 23.3741C19.015 24.2991 17.2575 24.7461 15.5 24.7461ZM11.8925 18.4099C11.2295 18.857 10.875 19.3966 10.875 19.9361C10.875 20.4757 11.245 21.0153 11.8925 21.4624C13.8504 22.7728 17.1342 22.7728 19.0921 21.4624C19.755 21.0153 20.125 20.4757 20.1096 19.9361C20.1096 19.3966 19.7396 18.857 19.0921 18.4099C17.1496 17.0995 13.8504 17.0995 11.8925 18.4099Z" fill="#21D2B4"/>
</svg>
