<svg width="210" height="67" viewBox="0 0 210 67" fill="none" xmlns="http://www.w3.org/2000/svg">
<path fill-rule="evenodd" clip-rule="evenodd" d="M151.292 30.7697L171.588 65.9007C171.679 66.0827 171.861 66.1737 172.043 66.1737C172.225 66.1737 172.407 66.0827 172.498 65.9007L182.418 48.7902C183.966 46.1509 183.966 43.1474 182.418 40.5081L172.043 22.5785H156.207C155.205 22.5785 154.204 22.7605 153.385 23.3066C150.655 24.7628 149.745 28.1303 151.292 30.7697Z" fill="#3CDBC0"/>
<path fill-rule="evenodd" clip-rule="evenodd" d="M151.293 30.7696C149.746 28.1302 149.109 25.3088 149.109 22.4874C149.109 19.666 149.837 16.8446 151.293 14.2052L157.664 3.19267C158.665 1.46342 160.395 0.46228 162.488 0.46228H209.36C209.542 0.46228 209.724 0.553282 209.815 0.735308C209.906 0.917334 209.906 1.09937 209.815 1.28139L199.894 18.3918C198.347 21.0312 195.799 22.5784 192.704 22.5784H156.117C155.116 22.5784 154.115 22.7605 153.296 23.3065C150.656 24.7627 149.746 28.1302 151.293 30.7696Z" fill="#3CDBC0"/>
<path fill-rule="evenodd" clip-rule="evenodd" d="M154.478 36.3214L134.182 1.19039C134.091 1.00836 133.909 0.917358 133.727 0.917358C133.545 0.917358 133.363 1.00836 133.272 1.19039L123.351 18.3008C121.804 20.9402 121.804 23.9436 123.351 26.583L146.014 65.8096C146.105 65.9916 146.287 66.0826 146.469 66.0826C146.651 66.0826 146.833 65.9916 146.924 65.8096L154.387 52.7947C157.481 47.607 157.481 41.6001 154.478 36.3214Z" fill="#3CDBC0"/>
<path fill-rule="evenodd" clip-rule="evenodd" d="M194.251 60.7129L193.159 63.1703L192.067 60.7129H191.429H190.337V66.1737H191.429V61.9871L192.886 65.0815H193.523L193.796 64.4444L194.888 61.9871V66.1737H195.98V60.7129H194.888H194.251ZM184.786 60.7129H189.154V61.8051H187.516V66.1737H186.424V61.8051H184.786V60.7129Z" fill="#7F4CFF"/>
<path fill-rule="evenodd" clip-rule="evenodd" d="M151.292 30.7697L171.588 65.9007C171.679 66.0827 171.861 66.1737 172.043 66.1737C172.225 66.1737 172.407 66.0827 172.498 65.9007L182.418 48.7902C183.966 46.1509 183.966 43.1474 182.418 40.5081L172.043 22.5785H156.207C155.205 22.5785 154.204 22.7605 153.385 23.3066C150.655 24.7628 149.745 28.1303 151.292 30.7697Z" fill="#7F4CFF"/>
<path fill-rule="evenodd" clip-rule="evenodd" d="M51.0875 12.4761V9.19969C51.0875 9.01767 50.9055 8.83562 50.7235 8.83562H47.447C47.265 8.83562 47.0829 9.01767 47.0829 9.19969V12.4761C47.0829 12.6582 47.265 12.8402 47.447 12.8402H50.7235C50.9055 12.8402 51.0875 12.6582 51.0875 12.4761ZM54.1819 24.5809V5.1951C54.1819 5.01308 54.364 4.83105 54.546 4.83105H57.8225C58.0045 4.83105 58.1865 5.01308 58.1865 5.1951V24.5809C58.1865 24.7629 58.0045 24.9449 57.8225 24.9449H54.546C54.364 25.0359 54.1819 24.8539 54.1819 24.5809ZM61.1899 17.9369C61.1899 14.0234 64.3754 10.8379 68.2889 10.8379H81.6679C82.1229 10.8379 82.487 11.202 82.487 11.657C82.487 16.1167 82.487 20.5763 82.487 25.0359C82.487 28.9495 79.3015 32.1349 75.388 32.1349H73.7497C73.5677 32.1349 73.3857 31.9529 73.3857 31.7709V28.4944C73.3857 28.3124 73.5677 28.1304 73.7497 28.1304H75.388C77.0262 28.1304 78.3914 26.7652 78.3914 25.127V15.0245H68.2889C66.6507 15.0245 65.2855 16.3897 65.2855 18.0279V21.0314C69.5631 21.0314 73.7497 21.0314 78.0273 21.0314L75.934 24.6719C75.752 24.9449 75.57 25.0359 75.2059 25.0359C70.8373 25.0359 66.3777 25.0359 62.0091 25.0359C61.554 25.0359 61.1899 24.6719 61.1899 24.2168C61.1899 22.1235 61.1899 20.0302 61.1899 17.9369ZM104.694 17.9369C104.694 14.0234 101.509 10.8379 97.5951 10.8379H88.3118C88.0387 10.8379 87.7657 11.0199 87.5837 11.202L85.4904 14.8425H97.5951C99.2333 14.8425 100.599 16.2077 100.599 17.8459V20.8493H85.8544C85.6724 20.8493 85.4904 21.0314 85.4904 21.2134V24.4899C85.4904 24.6719 85.6724 24.8539 85.8544 24.8539H103.875C104.33 24.8539 104.694 24.4899 104.694 24.0348C104.694 22.1235 104.694 20.0302 104.694 17.9369ZM7.67434 14.9335C6.0361 14.9335 4.67091 16.2987 4.67091 17.9369C4.67091 19.5751 6.0361 20.9404 7.67434 20.9404H17.7768V14.8425H7.67434V14.9335ZM20.9622 25.0359H7.58332C3.66976 25.0359 0.484314 21.8505 0.484314 17.9369C0.484314 14.0234 3.66976 10.8379 7.58332 10.8379H14.8644C15.1374 10.8379 15.4104 11.0199 15.5925 11.202L17.6858 14.8425V9.19969C17.6858 9.01767 17.8678 8.83562 18.0498 8.83562H21.3263C21.5083 8.83562 21.6903 9.01767 21.6903 9.19969C21.6903 14.2054 21.6903 19.2111 21.6903 24.1258C21.7813 24.6719 21.4173 25.0359 20.9622 25.0359ZM44.0795 17.9369C44.0795 14.0234 40.8941 10.8379 36.9805 10.8379H27.6972C27.4241 10.8379 27.1511 11.0199 26.9691 11.202L24.8758 14.8425H36.9805C38.6187 14.8425 39.9839 16.2077 39.9839 17.8459V20.8493H25.2398C25.0578 20.8493 24.8758 21.0314 24.8758 21.2134V24.4899C24.8758 24.6719 25.0578 24.8539 25.2398 24.8539H43.2604C43.7155 24.8539 44.0795 24.4899 44.0795 24.0348C44.0795 22.1235 44.0795 20.0302 44.0795 17.9369ZM51.0875 25.0359V16.2987C51.0875 16.1167 50.9055 15.9346 50.7235 15.9346H47.447C47.265 15.9346 47.0829 16.1167 47.0829 16.2987V25.0359C47.0829 26.6742 45.7177 28.0394 44.0795 28.0394H42.4413C42.2592 28.0394 42.0772 28.2214 42.0772 28.4034V31.6799C42.0772 31.8619 42.2592 32.0439 42.4413 32.0439H44.0795C47.9931 32.0439 51.0875 28.9495 51.0875 25.0359Z" fill="#7F4CFF"/>
<path fill-rule="evenodd" clip-rule="evenodd" d="M37.0715 61.8052H32.4299C32.0658 61.8052 31.7928 61.5321 31.7928 61.1681C31.7928 56.5264 31.7928 51.8848 31.7928 47.2431C31.7928 47.0611 31.8838 46.9701 32.0658 46.9701H34.4321C34.6142 46.9701 34.7052 47.0611 34.7052 47.2431V58.8018H36.8895C38.1637 58.8018 39.0738 57.8006 39.0738 56.6174V47.2431C39.0738 47.0611 39.1648 46.9701 39.3469 46.9701H41.7132C41.8952 46.9701 41.9862 47.0611 41.9862 47.2431V56.6174C42.2593 59.4388 39.9839 61.8052 37.0715 61.8052ZM49.7223 56.6174V47.2431C49.7223 47.0611 49.6313 46.9701 49.4493 46.9701H46.9919C46.8099 46.9701 46.7189 47.0611 46.7189 47.2431V56.6174C46.7189 57.8916 45.7178 58.8018 44.5346 58.8018H41.8042L43.3514 61.4411C43.4424 61.6232 43.6245 61.7142 43.8975 61.7142H44.5346C47.356 61.8052 49.7223 59.4388 49.7223 56.6174ZM69.0171 61.1681V47.2431C69.0171 47.0611 69.1081 46.9701 69.2901 46.9701H71.6564C71.8385 46.9701 71.9295 47.0611 71.9295 47.2431V58.8018H75.388C75.57 58.8018 75.661 58.8928 75.661 59.0748V61.4411C75.661 61.6232 75.57 61.7142 75.388 61.7142C73.4767 61.7142 71.5654 61.7142 69.5631 61.7142C69.2901 61.8052 69.0171 61.5321 69.0171 61.1681ZM53.9999 61.8052H64.2844C64.4664 61.8052 64.5574 61.7142 64.5574 61.5322V59.0748C64.5574 58.8928 64.4664 58.8018 64.2844 58.8018H56.3663V55.7983H64.2844C64.4664 55.7983 64.5574 55.7073 64.5574 55.5253V53.159C64.5574 52.9769 64.4664 52.8859 64.2844 52.8859H58.4596C58.2775 52.8859 58.0955 52.9769 57.9135 53.159L56.3663 55.7983V51.3387C56.3663 50.5196 57.0034 49.8825 57.8225 49.8825H64.1934C64.3754 49.8825 64.4664 49.7915 64.4664 49.6095V47.2431C64.4664 47.0611 64.3754 46.9701 64.1934 46.9701H57.8225C55.3651 46.9701 53.3628 48.9724 53.3628 51.4297C53.3628 54.7062 53.3628 57.9826 53.3628 61.2591C53.4539 61.5321 53.7269 61.8052 53.9999 61.8052ZM86.8556 47.2431V53.614C86.8556 56.5264 84.4893 58.8018 81.6679 58.8018V47.2431C81.6679 47.0611 81.5769 46.9701 81.3948 46.9701H79.0285C78.8465 46.9701 78.7554 47.0611 78.7554 47.2431V61.1681C78.7554 61.5321 79.0285 61.8052 79.3925 61.8052H81.7589C86.3095 61.8052 89.95 58.1647 89.95 53.614V47.2431C89.95 47.0611 89.859 46.9701 89.677 46.9701H87.3107C86.9466 46.9701 86.8556 47.0611 86.8556 47.2431ZM94.1366 61.8052H104.421C104.603 61.8052 104.694 61.7142 104.694 61.5322V59.0748C104.694 58.8928 104.603 58.8018 104.421 58.8018H96.503V55.7983H104.421C104.603 55.7983 104.694 55.7073 104.694 55.5253V53.159C104.694 52.9769 104.603 52.8859 104.421 52.8859H98.5963C98.4142 52.8859 98.2322 52.9769 98.0502 53.159L96.503 55.7983V51.3387C96.503 50.5196 97.1401 49.8825 97.9592 49.8825H104.33C104.512 49.8825 104.603 49.7915 104.603 49.6095V47.2431C104.603 47.0611 104.512 46.9701 104.33 46.9701H97.9592C95.5018 46.9701 93.4995 48.9724 93.4995 51.4297C93.4995 54.7062 93.4995 57.9826 93.4995 61.2591C93.4995 61.5321 93.7726 61.8052 94.1366 61.8052ZM21.8724 61.5322V49.9735H18.0498C17.8678 49.9735 17.7768 49.8825 17.7768 49.7005V47.2431C17.7768 47.0611 17.8678 46.9701 18.0498 46.9701H28.6073C28.7894 46.9701 28.8804 47.0611 28.8804 47.2431V49.6095C28.8804 49.7915 28.7894 49.8825 28.6073 49.8825H24.7848V61.4411C24.7848 61.6232 24.6938 61.7142 24.5117 61.7142H22.1454C21.9634 61.8052 21.8724 61.6232 21.8724 61.5322Z" fill="#7F4CFF"/>
</svg>
