<svg width="448" height="448" viewBox="0 0 448 448" fill="none" xmlns="http://www.w3.org/2000/svg">
<path fill-rule="evenodd" clip-rule="evenodd" d="M28.0227 0.250145H419.009C426.441 0.250145 433.569 3.20227 438.824 8.45712C444.079 13.712 447.032 20.8391 447.032 28.2706V419.12C447.032 426.552 444.079 433.679 438.824 438.934C433.569 444.189 426.441 447.141 419.009 447.141H28.0227C20.5906 447.141 13.4629 444.189 8.20764 438.934C2.95237 433.679 0 426.552 0 419.12V28.1654C0 20.734 2.95237 13.6069 8.20764 8.35204C13.4629 3.0972 20.5906 0.14502 28.0227 0.14502" fill="url(#paint0_linear_143_503)"/>
<path fill-rule="evenodd" clip-rule="evenodd" d="M190.734 222.448L249.957 325.027C250.1 325.275 250.307 325.479 250.557 325.619C250.807 325.758 251.09 325.828 251.376 325.82C251.656 325.825 251.932 325.754 252.174 325.614C252.417 325.474 252.617 325.271 252.753 325.027L281.676 274.948C283.846 271.276 284.991 267.089 284.991 262.824C284.991 258.56 283.846 254.373 281.676 250.701L251.376 198.202H205.007C202.15 198.162 199.333 198.879 196.842 200.28C194.351 201.681 192.275 203.716 190.826 206.178C189.376 208.641 188.604 211.443 188.588 214.301C188.572 217.158 189.312 219.969 190.734 222.448Z" fill="white"/>
<path fill-rule="evenodd" clip-rule="evenodd" d="M190.733 222.448C186.468 215.087 184.222 206.73 184.222 198.223C184.222 189.715 186.468 181.358 190.733 173.997L209.389 141.654C210.776 139.174 212.807 137.116 215.269 135.698C217.731 134.28 220.53 133.555 223.371 133.6H360.473C360.757 133.6 361.035 133.675 361.281 133.816C361.527 133.957 361.731 134.16 361.875 134.404C362.018 134.649 362.095 134.926 362.098 135.21C362.101 135.493 362.03 135.773 361.892 136.02L333.011 185.932C330.931 189.629 327.898 192.702 324.228 194.83C320.558 196.959 316.385 198.065 312.143 198.035H205.007C202.149 197.995 199.332 198.712 196.841 200.113C194.351 201.514 192.275 203.549 190.825 206.011C189.375 208.474 188.603 211.276 188.587 214.134C188.571 216.992 189.312 219.802 190.733 222.281" fill="white"/>
<path fill-rule="evenodd" clip-rule="evenodd" d="M200.041 238.599L141.026 135.853C140.89 135.609 140.69 135.406 140.447 135.266C140.205 135.126 139.929 135.055 139.649 135.06C139.364 135.057 139.082 135.128 138.833 135.267C138.584 135.406 138.376 135.608 138.23 135.853L109.349 185.932C107.157 189.596 106 193.786 106 198.056C106 202.325 107.157 206.515 109.349 210.179L175.542 324.86C175.688 325.105 175.896 325.307 176.145 325.446C176.394 325.585 176.676 325.656 176.961 325.653C177.241 325.658 177.517 325.587 177.759 325.447C178.002 325.307 178.202 325.104 178.338 324.86L200.249 286.883C204.633 279.563 206.948 271.19 206.948 262.657C206.948 254.125 204.633 245.752 200.249 238.432" fill="white"/>
<path fill-rule="evenodd" clip-rule="evenodd" d="M190.734 222.448L249.957 325.027C250.1 325.275 250.307 325.479 250.557 325.619C250.807 325.758 251.09 325.828 251.376 325.82C251.656 325.825 251.932 325.754 252.174 325.614C252.417 325.474 252.617 325.271 252.753 325.027L281.676 274.948C283.846 271.276 284.991 267.089 284.991 262.824C284.991 258.56 283.846 254.373 281.676 250.701L251.376 198.202H205.007C202.15 198.162 199.333 198.879 196.842 200.28C194.351 201.681 192.275 203.716 190.826 206.178C189.376 208.641 188.604 211.443 188.588 214.301C188.572 217.158 189.312 219.969 190.734 222.448Z" fill="url(#paint1_linear_143_503)"/>
<defs>
<linearGradient id="paint0_linear_143_503" x1="-25.8354" y1="447" x2="402.165" y2="56.0001" gradientUnits="userSpaceOnUse">
<stop stop-color="#7F4CFF"/>
<stop offset="1" stop-color="#3CDCC1"/>
</linearGradient>
<linearGradient id="paint1_linear_143_503" x1="218.782" y1="179.354" x2="264.059" y2="279.439" gradientUnits="userSpaceOnUse">
<stop stop-color="#AAAAAA"/>
<stop offset="1" stop-color="#999999" stop-opacity="0"/>
</linearGradient>
</defs>
</svg>
