<svg width="448" height="448" viewBox="0 0 448 448" fill="none" xmlns="http://www.w3.org/2000/svg">
<path fill-rule="evenodd" clip-rule="evenodd" d="M28.0158 0.250145H419.037C426.469 0.250145 433.597 3.20227 438.852 8.45712C444.107 13.712 447.06 20.8391 447.06 28.2706V419.12C447.06 426.552 444.107 433.679 438.852 438.934C433.597 444.189 426.469 447.141 419.037 447.141H28.0158C20.5838 447.141 13.4561 444.189 8.20084 438.934C2.94558 433.679 -0.00683594 426.552 -0.00683594 419.12V28.1654C-0.00683594 20.734 2.94558 13.6069 8.20084 8.35204C13.4561 3.0972 20.5838 0.14502 28.0158 0.14502" fill="white"/>
<path fill-rule="evenodd" clip-rule="evenodd" d="M188.623 222.448L247.846 325.027C247.982 325.272 248.182 325.475 248.425 325.614C248.667 325.754 248.943 325.825 249.223 325.82C249.509 325.828 249.792 325.759 250.042 325.619C250.292 325.479 250.499 325.275 250.642 325.027L279.565 274.948C281.735 271.276 282.88 267.09 282.88 262.825C282.88 258.56 281.735 254.373 279.565 250.701L249.056 198.202H202.729C199.805 198.182 196.926 198.93 194.382 200.372C192.546 201.435 190.936 202.849 189.647 204.534C188.357 206.218 187.412 208.141 186.865 210.191C186.319 212.241 186.182 214.379 186.462 216.482C186.742 218.585 187.433 220.613 188.497 222.448" fill="#3CDBC0"/>
<path fill-rule="evenodd" clip-rule="evenodd" d="M188.624 222.448C184.358 215.087 182.112 206.73 182.112 198.223C182.112 189.715 184.358 181.358 188.624 173.997L207.279 141.654C208.666 139.174 210.697 137.116 213.159 135.698C215.621 134.28 218.42 133.555 221.261 133.6H358.363C358.648 133.6 358.927 133.673 359.176 133.812C359.424 133.951 359.633 134.15 359.782 134.393C359.925 134.64 360 134.921 360 135.206C360 135.492 359.925 135.773 359.782 136.02L330.859 186.099C328.779 189.796 325.747 192.869 322.077 194.997C318.407 197.126 314.234 198.232 309.991 198.202H202.897C199.973 198.181 197.094 198.93 194.55 200.372C192.713 201.434 191.104 202.849 189.814 204.533C188.525 206.218 187.58 208.141 187.033 210.191C186.487 212.241 186.349 214.379 186.63 216.482C186.91 218.585 187.601 220.612 188.665 222.448" fill="#3CDBC0"/>
<path fill-rule="evenodd" clip-rule="evenodd" d="M197.93 238.599L138.706 135.853C138.57 135.609 138.37 135.406 138.128 135.266C137.885 135.126 137.609 135.055 137.329 135.06C137.043 135.052 136.76 135.122 136.51 135.261C136.261 135.401 136.053 135.605 135.91 135.853L107.154 185.932C104.984 189.596 103.838 193.776 103.838 198.035C103.838 202.293 104.984 206.473 107.154 210.137L173.389 324.86C173.532 325.108 173.739 325.312 173.989 325.452C174.239 325.592 174.522 325.661 174.808 325.653C175.088 325.658 175.364 325.587 175.607 325.447C175.849 325.307 176.049 325.104 176.185 324.86L198.097 286.883C202.459 279.555 204.761 271.186 204.761 262.658C204.761 254.13 202.459 245.76 198.097 238.432" fill="#3CDBC0"/>
<path fill-rule="evenodd" clip-rule="evenodd" d="M188.623 222.448L247.846 325.027C247.982 325.272 248.182 325.475 248.425 325.614C248.667 325.754 248.943 325.825 249.223 325.82C249.509 325.828 249.792 325.759 250.042 325.619C250.292 325.479 250.499 325.275 250.642 325.027L279.565 274.948C281.735 271.276 282.88 267.09 282.88 262.825C282.88 258.56 281.735 254.373 279.565 250.701L249.056 198.202H202.729C199.805 198.182 196.926 198.93 194.382 200.372C192.546 201.435 190.936 202.849 189.647 204.534C188.357 206.218 187.412 208.141 186.865 210.191C186.319 212.241 186.182 214.379 186.462 216.482C186.742 218.585 187.433 220.613 188.497 222.448" fill="url(#paint0_linear_143_496)"/>
<defs>
<linearGradient id="paint0_linear_143_496" x1="205.292" y1="169.822" x2="257.717" y2="279.439" gradientUnits="userSpaceOnUse">
<stop stop-color="#765FF6"/>
<stop offset="1" stop-color="#7F4CFF" stop-opacity="0"/>
</linearGradient>
</defs>
</svg>
